<?xml version="1.0" encoding="UTF-8" standalone="no"?>
<!DOCTYPE svg PUBLIC "-//W3C//DTD SVG 1.1//EN" "http://www.w3.org/Graphics/SVG/1.1/DTD/svg11.dtd">
<svg width="100%" height="100%" viewBox="0 0 1772 1772" version="1.1" xmlns="http://www.w3.org/2000/svg" xmlns:xlink="http://www.w3.org/1999/xlink" xml:space="preserve" xmlns:serif="http://www.serif.com/" style="fill-rule:evenodd;clip-rule:evenodd;stroke-linejoin:round;stroke-miterlimit:2;">
    <path d="M1511.81,860.728C1511.81,840.357 1495.27,823.819 1474.9,823.819L341.72,823.819C321.35,823.819 304.811,840.357 304.811,860.728L304.811,934.547C304.811,954.918 321.35,971.457 341.72,971.457L1474.9,971.457C1495.27,971.457 1511.81,954.918 1511.81,934.547L1511.81,860.728ZM376.815,844.488C347.481,844.488 323.665,868.304 323.665,897.638C323.665,926.972 347.481,950.787 376.815,950.787L1439.81,950.787C1469.14,950.787 1492.96,926.972 1492.96,897.638C1492.96,868.304 1469.14,844.488 1439.81,844.488L977.886,844.488L977.886,902.067C977.886,904.511 975.901,906.496 973.457,906.496L924.363,906.496C921.298,911.79 915.572,915.354 909.02,915.354C899.242,915.354 891.303,907.416 891.303,897.638C891.303,887.86 899.242,879.921 909.02,879.921C915.572,879.921 921.298,883.486 924.363,888.78L960.169,888.78L960.169,844.488L376.815,844.488ZM376.815,915.354C367.037,915.354 359.098,907.416 359.098,897.638C359.098,887.86 367.037,879.921 376.815,879.921C386.593,879.921 394.531,887.86 394.531,897.638C394.531,907.416 386.593,915.354 376.815,915.354ZM1439.81,879.921C1449.59,879.921 1457.52,887.86 1457.52,897.638C1457.52,907.416 1449.59,915.354 1439.81,915.354C1430.03,915.354 1422.09,907.416 1422.09,897.638C1422.09,887.86 1430.03,879.921 1439.81,879.921Z"/>
</svg>
