<?xml version="1.0" encoding="UTF-8" standalone="no"?>
<!DOCTYPE svg PUBLIC "-//W3C//DTD SVG 1.1//EN" "http://www.w3.org/Graphics/SVG/1.1/DTD/svg11.dtd">
<svg width="100%" height="100%" viewBox="0 0 567 567" version="1.1" xmlns="http://www.w3.org/2000/svg" xmlns:xlink="http://www.w3.org/1999/xlink" xml:space="preserve" xmlns:serif="http://www.serif.com/" style="fill-rule:evenodd;clip-rule:evenodd;stroke-linejoin:round;stroke-miterlimit:2;">
    <g transform="matrix(0.32,0,0,0.32,0,0)">
        <g transform="matrix(1,0,0,1,-295.276,-413.386)">
            <path d="M1256.58,1181.1L1238.87,1181.1L1238.87,1225.39L1203.06,1225.39C1200,1220.1 1194.27,1216.54 1187.72,1216.54C1177.94,1216.54 1170,1224.47 1170,1234.25C1170,1244.03 1177.94,1251.97 1187.72,1251.97C1194.27,1251.97 1200,1248.4 1203.06,1243.11L1252.15,1243.11C1254.6,1243.11 1256.58,1241.13 1256.58,1238.68L1256.58,1181.1L1718.5,1181.1C1747.84,1181.1 1771.65,1204.92 1771.65,1234.25C1771.65,1263.59 1747.84,1287.4 1718.5,1287.4L655.512,1287.4C626.178,1287.4 602.362,1263.59 602.362,1234.25C602.362,1204.92 626.178,1181.1 655.512,1181.1L1256.58,1181.1ZM655.512,1251.97C645.734,1251.97 637.795,1244.03 637.795,1234.25C637.795,1224.47 645.734,1216.54 655.512,1216.54C665.29,1216.54 673.228,1224.47 673.228,1234.25C673.228,1244.03 665.29,1251.97 655.512,1251.97ZM1718.5,1216.54C1728.28,1216.54 1736.22,1224.47 1736.22,1234.25C1736.22,1244.03 1728.28,1251.97 1718.5,1251.97C1708.73,1251.97 1700.79,1244.03 1700.79,1234.25C1700.79,1224.47 1708.73,1216.54 1718.5,1216.54Z"/>
        </g>
    </g>
</svg>
