solid Light Switch Extender-KPC
facet normal 0.19509032201614385 -6.838404874579686e-16 0.9807852804032274
  outer loop
    vertex -38.26422676608099 -141.8436727127093 33.48064087114267
    vertex -38.5816478480136 -133.74974934578583 33.54377985000611
    vertex -38.5816478480136 -141.52625163077667 33.5437798500061
  endloop
endfacet
facet normal 0.19509032201614385 -6.838404874579686e-16 0.9807852804032274
  outer loop
    vertex -38.5816478480136 -133.74974934578583 33.54377985000611
    vertex -38.26422676608099 -141.8436727127093 33.48064087114267
    vertex -38.26422676608099 -133.4323282638532 33.480640871142676
  endloop
endfacet
facet normal 0.5555702330195733 -5.393304872814698e-16 0.8314696123025647
  outer loop
    vertex -37.99513016644331 -142.11276931234696 33.300836271728066
    vertex -38.26422676608099 -133.4323282638532 33.480640871142676
    vertex -38.26422676608099 -141.8436727127093 33.48064087114267
  endloop
endfacet
facet normal 0.5555702330195733 -5.393304872814698e-16 0.8314696123025647
  outer loop
    vertex -38.26422676608099 -133.4323282638532 33.480640871142676
    vertex -37.99513016644331 -142.11276931234696 33.300836271728066
    vertex -37.99513016644331 -133.16323166421554 33.300836271728066
  endloop
endfacet
facet normal 0.831469612302562 -3.432487058010373e-16 0.5555702330195773
  outer loop
    vertex -37.81532556702871 -132.98342706480094 33.0317396720904
    vertex -37.99513016644331 -142.11276931234696 33.300836271728066
    vertex -37.81532556702871 -142.29257391176156 33.031739672090396
  endloop
endfacet
facet normal 0.831469612302562 -3.432487058010373e-16 0.5555702330195773
  outer loop
    vertex -37.99513016644331 -142.11276931234696 33.300836271728066
    vertex -37.81532556702871 -132.98342706480094 33.0317396720904
    vertex -37.99513016644331 -133.16323166421554 33.300836271728066
  endloop
endfacet
facet normal 0.0 0.9807852804032295 0.19509032201613388
  outer loop
    vertex -44.350055728884975 -132.98342706480094 33.0317396720904
    vertex -37.75218658816527 -132.9202880859375 32.71431859015777
    vertex -44.41319470774841 -132.9202880859375 32.71431859015777
  endloop
endfacet
facet normal 0.0 0.9807852804032295 0.19509032201613388
  outer loop
    vertex -37.75218658816527 -132.9202880859375 32.71431859015777
    vertex -44.350055728884975 -132.98342706480094 33.0317396720904
    vertex -37.81532556702871 -132.98342706480094 33.0317396720904
  endloop
endfacet
facet normal 0.002753683464443207 -0.0007024502440480276 -0.999995961887363
  outer loop
    vertex -31.292809209087707 15.262828826904293 -0.20356914999388137
    vertex -37.75218658816527 -10.058652416865412 -0.20356914999390216
    vertex -37.75218658816527 15.262828826904293 -0.22135630249977106
  endloop
endfacet
facet normal 6.799325246881784e-05 0.00010872483258676224 -0.9999999917779142
  outer loop
    vertex -47.45627079528019 37.263619639446915 -0.2035691499938846
    vertex -47.747557456387874 34.492212185014765 -0.2035691499938846
    vertex -47.747557456387874 35.89322364311025 -0.2035691499938846
  endloop
endfacet
facet normal 6.799325246881784e-05 0.00010872483258676224 -0.9999999917779142
  outer loop
    vertex -47.747557456387874 34.492212185014765 -0.2035691499938846
    vertex -47.45627079528019 37.263619639446915 -0.2035691499938846
    vertex -47.45627079528019 33.12181618867812 -0.2035691499938846
  endloop
endfacet
facet normal 6.799325246881784e-05 0.00010872483258676224 -0.9999999917779142
  outer loop
    vertex -47.45627079528019 33.12181618867812 -0.2035691499938846
    vertex -47.45627079528019 37.263619639446915 -0.2035691499938846
    vertex -46.88642809790372 38.543507293095246 -0.2035691499938846
  endloop
endfacet
facet normal 6.799325246881784e-05 0.00010872483258676224 -0.9999999917779142
  outer loop
    vertex -47.45627079528019 33.12181618867812 -0.2035691499938846
    vertex -46.88642809790372 38.543507293095246 -0.2035691499938846
    vertex -46.88642809790372 31.84192853502979 -0.2035691499938846
  endloop
endfacet
facet normal 6.799325246881784e-05 0.00010872483258676224 -0.9999999917779142
  outer loop
    vertex -46.88642809790372 31.84192853502979 -0.2035691499938846
    vertex -46.88642809790372 38.543507293095246 -0.2035691499938846
    vertex -46.062934224542424 39.6769493720085 -0.2035691499938846
  endloop
endfacet
facet normal 6.799325246881784e-05 0.00010872483258676224 -0.9999999917779142
  outer loop
    vertex -46.88642809790372 31.84192853502979 -0.2035691499938846
    vertex -46.062934224542424 39.6769493720085 -0.2035691499938846
    vertex -46.06293422454242 30.708486456116514 -0.2035691499938846
  endloop
endfacet
facet normal 6.799325246881784e-05 0.00010872483258676224 -0.9999999917779142
  outer loop
    vertex -46.06293422454242 30.708486456116514 -0.2035691499938846
    vertex -46.062934224542424 39.6769493720085 -0.2035691499938846
    vertex -45.02177980902424 40.614409018479634 -0.2035691499938846
  endloop
endfacet
facet normal 6.799325246881784e-05 0.00010872483258676224 -0.9999999917779142
  outer loop
    vertex -46.06293422454242 30.708486456116514 -0.2035691499938846
    vertex -45.02177980902424 40.614409018479634 -0.2035691499938846
    vertex -45.00933406759407 29.75982061372736 -0.2035691499938846
  endloop
endfacet
facet normal 6.799325246881784e-05 0.00010872483258676224 -0.9999999917779142
  outer loop
    vertex -45.00933406759407 29.75982061372736 -0.2035691499938846
    vertex -45.02177980902424 40.614409018479634 -0.2035691499938846
    vertex -44.33819470774841 41.00907706071526 -0.2035691499938846
  endloop
endfacet
facet normal 6.799325246881784e-05 0.00010872483258676224 -0.9999999917779142
  outer loop
    vertex -45.00933406759407 29.75982061372736 -0.2035691499938846
    vertex -44.33819470774841 41.00907706071526 -0.2035691499938846
    vertex -44.7035977893724 29.477200905184308 -0.2035691499938846
  endloop
endfacet
facet normal 6.799325246881784e-05 0.00010872483258676224 -0.9999999917779142
  outer loop
    vertex -44.7035977893724 29.477200905184308 -0.2035691499938846
    vertex -44.33819470774841 41.00907706071526 -0.2035691499938846
    vertex -44.46296731658919 29.117071952944052 -0.2035691499938846
  endloop
endfacet
facet normal 6.799325246881784e-05 0.00010872483258676224 -0.9999999917779142
  outer loop
    vertex -44.46296731658919 29.117071952944052 -0.2035691499938846
    vertex -44.33819470774841 41.00907706071526 -0.2035691499938846
    vertex -44.313055917214506 28.71071932404759 -0.2035691499938846
  endloop
endfacet
facet normal 6.799325246881784e-05 0.00010872483258676224 -0.9999999917779142
  outer loop
    vertex -44.313055917214506 28.71071932404759 -0.2035691499938846
    vertex -44.33819470774841 41.00907706071526 -0.2035691499938846
    vertex -44.245119419405654 41.06281410349486 -0.2035691499938846
  endloop
endfacet
facet normal 6.799325246881784e-05 0.00010872483258676224 -0.9999999917779142
  outer loop
    vertex -44.313055917214506 28.71071932404759 -0.2035691499938846
    vertex -44.245119419405654 41.06281410349486 -0.2035691499938846
    vertex -44.26319470774841 28.289444092356614 -0.2035691499938846
  endloop
endfacet
facet normal 6.799325246881784e-05 0.00010872483258676224 -0.9999999917779142
  outer loop
    vertex -44.26319470774841 28.289444092356614 -0.2035691499938846
    vertex -44.245119419405654 41.06281410349486 -0.2035691499938846
    vertex -44.26319470774841 15.262828826904293 -0.2035691499938846
  endloop
endfacet
facet normal 6.799325246881784e-05 0.00010872483258676224 -0.9999999917779142
  outer loop
    vertex -37.827186588165276 41.00907706071526 -0.2035691499938846
    vertex -37.90218658816528 28.289444092356614 -0.2035691499938846
    vertex -37.920261876508036 41.06281410349486 -0.2035691499938846
  endloop
endfacet
facet normal 6.799325246881784e-05 0.00010872483258676224 -0.9999999917779142
  outer loop
    vertex -37.90218658816528 28.289444092356614 -0.2035691499938846
    vertex -37.827186588165276 41.00907706071526 -0.2035691499938846
    vertex -37.85232537869918 28.71071932404757 -0.2035691499938846
  endloop
endfacet
facet normal 6.799325246881784e-05 0.00010872483258676224 -0.9999999917779142
  outer loop
    vertex -37.85232537869918 28.71071932404757 -0.2035691499938846
    vertex -37.827186588165276 41.00907706071526 -0.2035691499938846
    vertex -37.7024139793245 29.117071952944052 -0.2035691499938846
  endloop
endfacet
facet normal 6.799325246881784e-05 0.00010872483258676224 -0.9999999917779142
  outer loop
    vertex -37.7024139793245 29.117071952944052 -0.2035691499938846
    vertex -37.827186588165276 41.00907706071526 -0.2035691499938846
    vertex -37.14360148688945 40.614409018479634 -0.2035691499938846
  endloop
endfacet
facet normal 6.799325246881784e-05 0.00010872483258676224 -0.9999999917779142
  outer loop
    vertex -37.7024139793245 29.117071952944052 -0.2035691499938846
    vertex -37.14360148688945 40.614409018479634 -0.2035691499938846
    vertex -37.46178350654129 29.477200905184308 -0.2035691499938846
  endloop
endfacet
facet normal 6.799325246881784e-05 0.00010872483258676224 -0.9999999917779142
  outer loop
    vertex -37.46178350654129 29.477200905184308 -0.2035691499938846
    vertex -37.14360148688945 40.614409018479634 -0.2035691499938846
    vertex -37.15604722831962 29.75982061372738 -0.2035691499938846
  endloop
endfacet
facet normal 6.799325246881784e-05 0.00010872483258676224 -0.9999999917779142
  outer loop
    vertex -37.15604722831962 29.75982061372738 -0.2035691499938846
    vertex -37.14360148688945 40.614409018479634 -0.2035691499938846
    vertex -36.102447071371266 30.708486456116514 -0.2035691499938846
  endloop
endfacet
facet normal 6.799325246881784e-05 0.00010872483258676224 -0.9999999917779142
  outer loop
    vertex -36.102447071371266 30.708486456116514 -0.2035691499938846
    vertex -37.14360148688945 40.614409018479634 -0.2035691499938846
    vertex -36.102447071371266 39.67694937200852 -0.2035691499938846
  endloop
endfacet
facet normal 6.799325246881784e-05 0.00010872483258676224 -0.9999999917779142
  outer loop
    vertex -36.102447071371266 30.708486456116514 -0.2035691499938846
    vertex -36.102447071371266 39.67694937200852 -0.2035691499938846
    vertex -35.27895319800997 38.543507293095246 -0.2035691499938846
  endloop
endfacet
facet normal 6.799325246881784e-05 0.00010872483258676224 -0.9999999917779142
  outer loop
    vertex -36.102447071371266 30.708486456116514 -0.2035691499938846
    vertex -35.27895319800997 38.543507293095246 -0.2035691499938846
    vertex -35.27895319800997 31.84192853502979 -0.2035691499938846
  endloop
endfacet
facet normal 6.799325246881784e-05 0.00010872483258676224 -0.9999999917779142
  outer loop
    vertex -35.27895319800997 31.84192853502979 -0.2035691499938846
    vertex -35.27895319800997 38.543507293095246 -0.2035691499938846
    vertex -34.70911050063349 33.12181618867812 -0.2035691499938846
  endloop
endfacet
facet normal 6.799325246881784e-05 0.00010872483258676224 -0.9999999917779142
  outer loop
    vertex -34.70911050063349 33.12181618867812 -0.2035691499938846
    vertex -35.27895319800997 38.543507293095246 -0.2035691499938846
    vertex -34.70911050063349 37.263619639446915 -0.2035691499938846
  endloop
endfacet
facet normal 6.799325246881784e-05 0.00010872483258676224 -0.9999999917779142
  outer loop
    vertex -34.70911050063349 33.12181618867812 -0.2035691499938846
    vertex -34.70911050063349 37.263619639446915 -0.2035691499938846
    vertex -34.41782383952581 35.89322364311025 -0.2035691499938846
  endloop
endfacet
facet normal 6.799325246881784e-05 0.00010872483258676224 -0.9999999917779142
  outer loop
    vertex -34.70911050063349 33.12181618867812 -0.2035691499938846
    vertex -34.41782383952581 35.89322364311025 -0.2035691499938846
    vertex -34.41782383952581 34.492212185014786 -0.2035691499938846
  endloop
endfacet
facet normal 6.799325246881784e-05 0.00010872483258676224 -0.9999999917779142
  outer loop
    vertex -44.26319470774841 15.262828826904293 -0.2035691499938846
    vertex -44.41319470774841 -10.058652416865412 -0.2213563024997706
    vertex -44.41319470774841 15.262828826904293 -0.22135630249977106
  endloop
endfacet
facet normal 6.799325246881784e-05 0.00010872483258676224 -0.9999999917779142
  outer loop
    vertex -44.41319470774841 -10.058652416865412 -0.2213563024997706
    vertex -44.26319470774841 15.262828826904293 -0.2035691499938846
    vertex -44.41319470774841 -142.355712890625 -0.22178064286708823
  endloop
endfacet
facet normal 6.799325246881784e-05 0.00010872483258676224 -0.9999999917779142
  outer loop
    vertex -44.41319470774841 -142.355712890625 -0.22178064286708823
    vertex -44.26319470774841 15.262828826904293 -0.2035691499938846
    vertex -37.75218658816527 -142.355712890625 -0.22135627269744865
  endloop
endfacet
facet normal 6.799325246881784e-05 0.00010872483258676224 -0.9999999917779142
  outer loop
    vertex -37.75218658816527 -142.355712890625 -0.22135627269744865
    vertex -44.26319470774841 15.262828826904293 -0.2035691499938846
    vertex -44.245119419405654 41.06281410349486 -0.2035691499938846
  endloop
endfacet
facet normal 6.799325246881784e-05 0.00010872483258676224 -0.9999999917779142
  outer loop
    vertex -37.75218658816527 -142.355712890625 -0.22135627269744865
    vertex -44.245119419405654 41.06281410349486 -0.2035691499938846
    vertex -43.80846829532049 41.314914747527375 -0.2035691499938846
  endloop
endfacet
facet normal 6.799325246881784e-05 0.00010872483258676224 -0.9999999917779142
  outer loop
    vertex -37.75218658816527 -142.355712890625 -0.22135627269744865
    vertex -43.80846829532049 41.314914747527375 -0.2035691499938846
    vertex -42.47602721869462 41.74785109739291 -0.2035691499938846
  endloop
endfacet
facet normal 6.799325246881784e-05 0.00010872483258676224 -0.9999999917779142
  outer loop
    vertex -37.75218658816527 -142.355712890625 -0.22135627269744865
    vertex -42.47602721869462 41.74785109739291 -0.2035691499938846
    vertex -41.082690647956845 41.894296672127986 -0.2035691499938846
  endloop
endfacet
facet normal 6.799325246881784e-05 0.00010872483258676224 -0.9999999917779142
  outer loop
    vertex -37.75218658816527 -142.355712890625 -0.22135627269744865
    vertex -41.082690647956845 41.894296672127986 -0.2035691499938846
    vertex -39.68935407721907 41.74785109739291 -0.2035691499938846
  endloop
endfacet
facet normal 6.799325246881784e-05 0.00010872483258676224 -0.9999999917779142
  outer loop
    vertex -37.75218658816527 -142.355712890625 -0.22135627269744865
    vertex -39.68935407721907 41.74785109739291 -0.2035691499938846
    vertex -38.3569130005932 41.314914747527375 -0.2035691499938846
  endloop
endfacet
facet normal 6.799325246881784e-05 0.00010872483258676224 -0.9999999917779142
  outer loop
    vertex -37.75218658816527 -142.355712890625 -0.22135627269744865
    vertex -38.3569130005932 41.314914747527375 -0.2035691499938846
    vertex -37.90218658816527 15.262828826904293 -0.2035691499938846
  endloop
endfacet
facet normal 6.799325246881784e-05 0.00010872483258676224 -0.9999999917779142
  outer loop
    vertex -37.90218658816527 15.262828826904293 -0.2035691499938846
    vertex -38.3569130005932 41.314914747527375 -0.2035691499938846
    vertex -37.920261876508036 41.06281410349486 -0.2035691499938846
  endloop
endfacet
facet normal 6.799325246881784e-05 0.00010872483258676224 -0.9999999917779142
  outer loop
    vertex -37.90218658816527 15.262828826904293 -0.2035691499938846
    vertex -37.920261876508036 41.06281410349486 -0.2035691499938846
    vertex -37.90218658816528 28.289444092356614 -0.2035691499938846
  endloop
endfacet
facet normal 6.799325246881784e-05 0.00010872483258676224 -0.9999999917779142
  outer loop
    vertex -37.75218658816527 -142.355712890625 -0.22135627269744865
    vertex -37.90218658816527 15.262828826904293 -0.2035691499938846
    vertex -37.75218658816527 15.262828826904293 -0.22135630249977106
  endloop
endfacet
facet normal 6.799325246881784e-05 0.00010872483258676224 -0.9999999917779142
  outer loop
    vertex -37.75218658816527 -142.355712890625 -0.22135627269744865
    vertex -37.75218658816527 15.262828826904293 -0.22135630249977106
    vertex -37.75218658816527 -10.058652416865412 -0.20356914999390216
  endloop
endfacet
facet normal 6.139257134794104e-17 -1.914112900907702e-17 -1.0
  outer loop
    vertex -44.41319470774841 -10.058652416865412 -0.2213563024997706
    vertex -50.87257208682601 15.262828826904293 -0.22135630249977148
    vertex -44.41319470774841 15.262828826904293 -0.22135630249977106
  endloop
endfacet
facet normal -0.8314696123025367 -0.5555702330196154 -0.0
  outer loop
    vertex -44.7035977893724 29.477200905184308 8.543779850006107
    vertex -44.46296731658919 29.117071952944052 -0.2035691499938846
    vertex -44.46296731658919 29.117071952944052 8.543779850006107
  endloop
endfacet
facet normal -0.8314696123025367 -0.5555702330196154 -0.0
  outer loop
    vertex -44.46296731658919 29.117071952944052 -0.2035691499938846
    vertex -44.7035977893724 29.477200905184308 8.543779850006107
    vertex -44.7035977893724 29.477200905184308 -0.2035691499938846
  endloop
endfacet
facet normal -0.9381913359224798 -0.3461170570775046 -0.0
  outer loop
    vertex -44.46296731658919 29.117071952944052 8.543779850006107
    vertex -44.313055917214506 28.71071932404759 -0.2035691499938846
    vertex -44.313055917214506 28.71071932404759 8.543779850006107
  endloop
endfacet
facet normal -0.9381913359224798 -0.3461170570775046 -0.0
  outer loop
    vertex -44.313055917214506 28.71071932404759 -0.2035691499938846
    vertex -44.46296731658919 29.117071952944052 8.543779850006107
    vertex -44.46296731658919 29.117071952944052 -0.2035691499938846
  endloop
endfacet
facet normal -0.6788007455329325 -0.7343225094356941 -0.0
  outer loop
    vertex -44.7035977893724 29.477200905184308 8.543779850006107
    vertex -45.00933406759407 29.75982061372736 -0.2035691499938846
    vertex -44.7035977893724 29.477200905184308 -0.2035691499938846
  endloop
endfacet
facet normal -0.6788007455329325 -0.7343225094356941 -0.0
  outer loop
    vertex -45.00933406759407 29.75982061372736 -0.2035691499938846
    vertex -44.7035977893724 29.477200905184308 8.543779850006107
    vertex -45.00933406759407 29.75982061372736 8.543779850006107
  endloop
endfacet
facet normal -0.3090169943749507 0.9510565162951526 0.0
  outer loop
    vertex -43.80846829532049 41.314914747527375 8.543779850006107
    vertex -42.47602721869462 41.74785109739291 -0.2035691499938846
    vertex -43.80846829532049 41.314914747527375 -0.2035691499938846
  endloop
endfacet
facet normal -0.3090169943749507 0.9510565162951526 0.0
  outer loop
    vertex -42.47602721869462 41.74785109739291 -0.2035691499938846
    vertex -43.80846829532049 41.314914747527375 8.543779850006107
    vertex -42.47602721869462 41.74785109739291 8.543779850006107
  endloop
endfacet
facet normal -1.0 0.0 0.0
  outer loop
    vertex -47.747557456387874 35.89322364311025 8.543779850006107
    vertex -47.747557456387874 34.492212185014765 -0.2035691499938846
    vertex -47.747557456387874 34.492212185014765 8.543779850006107
  endloop
endfacet
facet normal -1.0 0.0 0.0
  outer loop
    vertex -47.747557456387874 34.492212185014765 -0.2035691499938846
    vertex -47.747557456387874 35.89322364311025 8.543779850006107
    vertex -47.747557456387874 35.89322364311025 -0.2035691499938846
  endloop
endfacet
facet normal -0.9135454576426014 -0.40673664307579904 -0.0
  outer loop
    vertex -47.45627079528019 33.12181618867812 8.543779850006107
    vertex -46.88642809790372 31.84192853502979 -0.2035691499938846
    vertex -46.88642809790372 31.84192853502979 8.543779850006107
  endloop
endfacet
facet normal -0.9135454576426014 -0.40673664307579904 -0.0
  outer loop
    vertex -46.88642809790372 31.84192853502979 -0.2035691499938846
    vertex -47.45627079528019 33.12181618867812 8.543779850006107
    vertex -47.45627079528019 33.12181618867812 -0.2035691499938846
  endloop
endfacet
facet normal -0.6691306063588629 -0.74314482547739 -0.0
  outer loop
    vertex -45.00933406759407 29.75982061372736 8.543779850006107
    vertex -46.06293422454242 30.708486456116514 -0.2035691499938846
    vertex -45.00933406759407 29.75982061372736 -0.2035691499938846
  endloop
endfacet
facet normal -0.6691306063588629 -0.74314482547739 -0.0
  outer loop
    vertex -46.06293422454242 30.708486456116514 -0.2035691499938846
    vertex -45.00933406759407 29.75982061372736 8.543779850006107
    vertex -46.06293422454242 30.708486456116514 8.543779850006107
  endloop
endfacet
facet normal -0.9781476007338052 -0.20791169081776176 -0.0
  outer loop
    vertex -47.747557456387874 34.492212185014765 8.543779850006107
    vertex -47.45627079528019 33.12181618867812 -0.2035691499938846
    vertex -47.45627079528019 33.12181618867812 8.543779850006107
  endloop
endfacet
facet normal -0.9781476007338052 -0.20791169081776176 -0.0
  outer loop
    vertex -47.45627079528019 33.12181618867812 -0.2035691499938846
    vertex -47.747557456387874 34.492212185014765 8.543779850006107
    vertex -47.747557456387874 34.492212185014765 -0.2035691499938846
  endloop
endfacet
facet normal -0.9135454576426009 0.40673664307580054 0.0
  outer loop
    vertex -46.88642809790372 38.543507293095246 8.543779850006107
    vertex -47.45627079528019 37.263619639446915 -0.2035691499938846
    vertex -47.45627079528019 37.263619639446915 8.543779850006107
  endloop
endfacet
facet normal -0.9135454576426009 0.40673664307580054 0.0
  outer loop
    vertex -47.45627079528019 37.263619639446915 -0.2035691499938846
    vertex -46.88642809790372 38.543507293095246 8.543779850006107
    vertex -46.88642809790372 38.543507293095246 -0.2035691499938846
  endloop
endfacet
facet normal -0.5000000000000053 0.8660254037844358 0.0
  outer loop
    vertex -45.02177980902424 40.614409018479634 8.543779850006107
    vertex -44.33819470774841 41.00907706071526 -0.2035691499938846
    vertex -45.02177980902424 40.614409018479634 -0.2035691499938846
  endloop
endfacet
facet normal -0.5000000000000053 0.8660254037844358 0.0
  outer loop
    vertex -44.33819470774841 41.00907706071526 -0.2035691499938846
    vertex -45.02177980902424 40.614409018479634 8.543779850006107
    vertex -44.33819470774841 41.00907706071526 8.543779850006107
  endloop
endfacet
facet normal -0.978147600733806 0.20791169081775762 0.0
  outer loop
    vertex -47.45627079528019 37.263619639446915 8.543779850006107
    vertex -47.747557456387874 35.89322364311025 -0.2035691499938846
    vertex -47.747557456387874 35.89322364311025 8.543779850006107
  endloop
endfacet
facet normal -0.978147600733806 0.20791169081775762 0.0
  outer loop
    vertex -47.747557456387874 35.89322364311025 -0.2035691499938846
    vertex -47.45627079528019 37.263619639446915 8.543779850006107
    vertex -47.45627079528019 37.263619639446915 -0.2035691499938846
  endloop
endfacet
facet normal -0.6691306063588629 0.74314482547739 0.0
  outer loop
    vertex -46.062934224542424 39.6769493720085 8.543779850006107
    vertex -45.02177980902424 40.614409018479634 -0.2035691499938846
    vertex -46.062934224542424 39.6769493720085 -0.2035691499938846
  endloop
endfacet
facet normal -0.6691306063588629 0.74314482547739 0.0
  outer loop
    vertex -45.02177980902424 40.614409018479634 -0.2035691499938846
    vertex -46.062934224542424 39.6769493720085 8.543779850006107
    vertex -45.02177980902424 40.614409018479634 8.543779850006107
  endloop
endfacet
facet normal -0.8090169943749438 0.5877852522924784 0.0
  outer loop
    vertex -46.062934224542424 39.6769493720085 8.543779850006107
    vertex -46.88642809790372 38.543507293095246 -0.2035691499938846
    vertex -46.88642809790372 38.543507293095246 8.543779850006107
  endloop
endfacet
facet normal -0.8090169943749438 0.5877852522924784 0.0
  outer loop
    vertex -46.88642809790372 38.543507293095246 -0.2035691499938846
    vertex -46.062934224542424 39.6769493720085 8.543779850006107
    vertex -46.062934224542424 39.6769493720085 -0.2035691499938846
  endloop
endfacet
facet normal -0.49999999999999245 0.866025403784443 0.0
  outer loop
    vertex -44.33819470774841 41.00907706071526 8.543779850006107
    vertex -44.245119419405654 41.06281410349486 -0.2035691499938846
    vertex -44.33819470774841 41.00907706071526 -0.2035691499938846
  endloop
endfacet
facet normal -0.49999999999999245 0.866025403784443 0.0
  outer loop
    vertex -44.245119419405654 41.06281410349486 -0.2035691499938846
    vertex -44.33819470774841 41.00907706071526 8.543779850006107
    vertex -44.245119419405654 41.06281410349486 8.543779850006107
  endloop
endfacet
facet normal -0.49999999999999734 0.8660254037844403 0.0
  outer loop
    vertex -44.245119419405654 41.06281410349486 8.543779850006107
    vertex -43.80846829532049 41.314914747527375 -0.2035691499938846
    vertex -44.245119419405654 41.06281410349486 -0.2035691499938846
  endloop
endfacet
facet normal -0.49999999999999734 0.8660254037844403 0.0
  outer loop
    vertex -43.80846829532049 41.314914747527375 -0.2035691499938846
    vertex -44.245119419405654 41.06281410349486 8.543779850006107
    vertex -43.80846829532049 41.314914747527375 8.543779850006107
  endloop
endfacet
facet normal -0.8090169943749475 -0.5877852522924734 -0.0
  outer loop
    vertex -46.88642809790372 31.84192853502979 8.543779850006107
    vertex -46.06293422454242 30.708486456116514 -0.2035691499938846
    vertex -46.06293422454242 30.708486456116514 8.543779850006107
  endloop
endfacet
facet normal -0.8090169943749475 -0.5877852522924734 -0.0
  outer loop
    vertex -46.06293422454242 30.708486456116514 -0.2035691499938846
    vertex -46.88642809790372 31.84192853502979 8.543779850006107
    vertex -46.88642809790372 31.84192853502979 -0.2035691499938846
  endloop
endfacet
facet normal 0.0 1.0 0.0
  outer loop
    vertex -37.90218658816527 15.262828826904293 -0.2035691499938846
    vertex -31.292809209087707 15.262828826904293 -0.20356914999388137
    vertex -37.75218658816527 15.262828826904293 -0.22135630249977106
  endloop
endfacet
facet normal 0.0 1.0 0.0
  outer loop
    vertex -31.292809209087707 15.262828826904293 -0.20356914999388137
    vertex -37.90218658816527 15.262828826904293 -0.2035691499938846
    vertex -37.90218658816527 15.262828826904293 8.543779850006104
  endloop
endfacet
facet normal 0.0 1.0 0.0
  outer loop
    vertex -31.292809209087707 15.262828826904293 -0.20356914999388137
    vertex -37.90218658816527 15.262828826904293 8.543779850006104
    vertex -31.29280920908767 15.262828826904293 8.543779850006118
  endloop
endfacet
facet normal 0.9930684569549248 -0.11753739745785001 0.0
  outer loop
    vertex -37.85232537869918 28.71071932404757 -0.2035691499938846
    vertex -37.90218658816528 28.289444092356614 8.543779850006107
    vertex -37.90218658816528 28.289444092356614 -0.2035691499938846
  endloop
endfacet
facet normal 0.9930684569549248 -0.11753739745785001 0.0
  outer loop
    vertex -37.90218658816528 28.289444092356614 8.543779850006107
    vertex -37.85232537869918 28.71071932404757 -0.2035691499938846
    vertex -37.85232537869918 28.71071932404757 8.543779850006107
  endloop
endfacet
facet normal 0.8314696123025305 -0.5555702330196243 0.0
  outer loop
    vertex -37.46178350654129 29.477200905184308 -0.2035691499938846
    vertex -37.7024139793245 29.117071952944052 8.543779850006107
    vertex -37.7024139793245 29.117071952944052 -0.2035691499938846
  endloop
endfacet
facet normal 0.8314696123025305 -0.5555702330196243 0.0
  outer loop
    vertex -37.7024139793245 29.117071952944052 8.543779850006107
    vertex -37.46178350654129 29.477200905184308 -0.2035691499938846
    vertex -37.46178350654129 29.477200905184308 8.543779850006107
  endloop
endfacet
facet normal 0.9381913359224905 -0.3461170570774763 0.0
  outer loop
    vertex -37.7024139793245 29.117071952944052 -0.2035691499938846
    vertex -37.85232537869918 28.71071932404757 8.543779850006107
    vertex -37.85232537869918 28.71071932404757 -0.2035691499938846
  endloop
endfacet
facet normal 0.9381913359224905 -0.3461170570774763 0.0
  outer loop
    vertex -37.85232537869918 28.71071932404757 8.543779850006107
    vertex -37.7024139793245 29.117071952944052 -0.2035691499938846
    vertex -37.7024139793245 29.117071952944052 8.543779850006107
  endloop
endfacet
facet normal 1.0 4.329545971971224e-16 3.908689172775476e-33
  outer loop
    vertex -37.90218658816528 28.289444092356614 -0.2035691499938846
    vertex -37.90218658816527 15.262828826904293 8.543779850006104
    vertex -37.90218658816527 15.262828826904293 -0.2035691499938846
  endloop
endfacet
facet normal 1.0 4.329545971971224e-16 3.908689172775476e-33
  outer loop
    vertex -37.90218658816527 15.262828826904293 8.543779850006104
    vertex -37.90218658816528 28.289444092356614 -0.2035691499938846
    vertex -37.90218658816528 28.289444092356614 8.543779850006107
  endloop
endfacet
facet normal -0.19509032201613388 -6.825161348449277e-16 0.9807852804032295
  outer loop
    vertex -43.58373344790007 -141.52625163077667 33.5437798500061
    vertex -43.90115452983271 -133.4323282638532 33.480640871142676
    vertex -43.90115452983271 -141.8436727127093 33.48064087114267
  endloop
endfacet
facet normal -0.19509032201613388 -6.825161348449277e-16 0.9807852804032295
  outer loop
    vertex -43.90115452983271 -133.4323282638532 33.480640871142676
    vertex -43.58373344790007 -141.52625163077667 33.5437798500061
    vertex -43.58373344790007 -133.74974934578583 33.54377985000611
  endloop
endfacet
facet normal 0.0 1.0 0.0
  outer loop
    vertex -50.872572086826 15.262828826904293 8.543779850006104
    vertex -44.41319470774841 15.262828826904293 -0.22135630249977106
    vertex -50.87257208682601 15.262828826904293 -0.22135630249977148
  endloop
endfacet
facet normal 0.0 1.0 0.0
  outer loop
    vertex -44.41319470774841 15.262828826904293 -0.22135630249977106
    vertex -50.872572086826 15.262828826904293 8.543779850006104
    vertex -44.26319470774841 15.262828826904293 -0.2035691499938846
  endloop
endfacet
facet normal 0.0 1.0 0.0
  outer loop
    vertex -44.26319470774841 15.262828826904293 -0.2035691499938846
    vertex -50.872572086826 15.262828826904293 8.543779850006104
    vertex -44.26319470774841 15.262828826904293 8.543779850006104
  endloop
endfacet
facet normal -1.0 0.0 0.0
  outer loop
    vertex -44.26319470774841 28.289444092356614 8.543779850006107
    vertex -44.26319470774841 15.262828826904293 -0.2035691499938846
    vertex -44.26319470774841 15.262828826904293 8.543779850006104
  endloop
endfacet
facet normal -1.0 0.0 0.0
  outer loop
    vertex -44.26319470774841 15.262828826904293 -0.2035691499938846
    vertex -44.26319470774841 28.289444092356614 8.543779850006107
    vertex -44.26319470774841 28.289444092356614 -0.2035691499938846
  endloop
endfacet
facet normal -0.9930684569549273 -0.11753739745782915 -0.0
  outer loop
    vertex -44.313055917214506 28.71071932404759 8.543779850006107
    vertex -44.26319470774841 28.289444092356614 -0.2035691499938846
    vertex -44.26319470774841 28.289444092356614 8.543779850006107
  endloop
endfacet
facet normal -0.9930684569549273 -0.11753739745782915 -0.0
  outer loop
    vertex -44.26319470774841 28.289444092356614 -0.2035691499938846
    vertex -44.313055917214506 28.71071932404759 8.543779850006107
    vertex -44.313055917214506 28.71071932404759 -0.2035691499938846
  endloop
endfacet
facet normal 0.5000000000000138 0.8660254037844309 0.0
  outer loop
    vertex -37.827186588165276 41.00907706071526 8.543779850006107
    vertex -37.14360148688945 40.614409018479634 -0.2035691499938846
    vertex -37.827186588165276 41.00907706071526 -0.2035691499938846
  endloop
endfacet
facet normal 0.5000000000000138 0.8660254037844309 0.0
  outer loop
    vertex -37.14360148688945 40.614409018479634 -0.2035691499938846
    vertex -37.827186588165276 41.00907706071526 8.543779850006107
    vertex -37.14360148688945 40.614409018479634 8.543779850006107
  endloop
endfacet
facet normal 0.669130606358854 0.743144825477398 0.0
  outer loop
    vertex -37.14360148688945 40.614409018479634 8.543779850006107
    vertex -36.102447071371266 39.67694937200852 -0.2035691499938846
    vertex -37.14360148688945 40.614409018479634 -0.2035691499938846
  endloop
endfacet
facet normal 0.669130606358854 0.743144825477398 0.0
  outer loop
    vertex -36.102447071371266 39.67694937200852 -0.2035691499938846
    vertex -37.14360148688945 40.614409018479634 8.543779850006107
    vertex -36.102447071371266 39.67694937200852 8.543779850006107
  endloop
endfacet
facet normal -0.10452846326765802 0.9945218953682728 0.0
  outer loop
    vertex -42.47602721869462 41.74785109739291 8.543779850006107
    vertex -41.082690647956845 41.894296672127986 -0.2035691499938846
    vertex -42.47602721869462 41.74785109739291 -0.2035691499938846
  endloop
endfacet
facet normal -0.10452846326765802 0.9945218953682728 0.0
  outer loop
    vertex -41.082690647956845 41.894296672127986 -0.2035691499938846
    vertex -42.47602721869462 41.74785109739291 8.543779850006107
    vertex -41.082690647956845 41.894296672127986 8.543779850006107
  endloop
endfacet
facet normal 0.10452846326765845 0.994521895368273 0.0
  outer loop
    vertex -41.082690647956845 41.894296672127986 8.543779850006107
    vertex -39.68935407721907 41.74785109739291 -0.2035691499938846
    vertex -41.082690647956845 41.894296672127986 -0.2035691499938846
  endloop
endfacet
facet normal 0.10452846326765845 0.994521895368273 0.0
  outer loop
    vertex -39.68935407721907 41.74785109739291 -0.2035691499938846
    vertex -41.082690647956845 41.894296672127986 8.543779850006107
    vertex -39.68935407721907 41.74785109739291 8.543779850006107
  endloop
endfacet
facet normal 0.3090169943749507 0.9510565162951526 0.0
  outer loop
    vertex -39.68935407721907 41.74785109739291 8.543779850006107
    vertex -38.3569130005932 41.314914747527375 -0.2035691499938846
    vertex -39.68935407721907 41.74785109739291 -0.2035691499938846
  endloop
endfacet
facet normal 0.3090169943749507 0.9510565162951526 0.0
  outer loop
    vertex -38.3569130005932 41.314914747527375 -0.2035691499938846
    vertex -39.68935407721907 41.74785109739291 8.543779850006107
    vertex -38.3569130005932 41.314914747527375 8.543779850006107
  endloop
endfacet
facet normal 0.4999999999999531 0.8660254037844657 0.0
  outer loop
    vertex -37.920261876508036 41.06281410349486 8.543779850006107
    vertex -37.827186588165276 41.00907706071526 -0.2035691499938846
    vertex -37.920261876508036 41.06281410349486 -0.2035691499938846
  endloop
endfacet
facet normal 0.4999999999999531 0.8660254037844657 0.0
  outer loop
    vertex -37.827186588165276 41.00907706071526 -0.2035691499938846
    vertex -37.920261876508036 41.06281410349486 8.543779850006107
    vertex -37.827186588165276 41.00907706071526 8.543779850006107
  endloop
endfacet
facet normal 0.4999999999999925 0.8660254037844431 0.0
  outer loop
    vertex -38.3569130005932 41.314914747527375 8.543779850006107
    vertex -37.920261876508036 41.06281410349486 -0.2035691499938846
    vertex -38.3569130005932 41.314914747527375 -0.2035691499938846
  endloop
endfacet
facet normal 0.4999999999999925 0.8660254037844431 0.0
  outer loop
    vertex -37.920261876508036 41.06281410349486 -0.2035691499938846
    vertex -38.3569130005932 41.314914747527375 8.543779850006107
    vertex -37.920261876508036 41.06281410349486 8.543779850006107
  endloop
endfacet
facet normal 0.6788007455329398 -0.7343225094356874 0.0
  outer loop
    vertex -37.15604722831962 29.75982061372738 8.543779850006107
    vertex -37.46178350654129 29.477200905184308 -0.2035691499938846
    vertex -37.15604722831962 29.75982061372738 -0.2035691499938846
  endloop
endfacet
facet normal 0.6788007455329398 -0.7343225094356874 0.0
  outer loop
    vertex -37.46178350654129 29.477200905184308 -0.2035691499938846
    vertex -37.15604722831962 29.75982061372738 8.543779850006107
    vertex -37.46178350654129 29.477200905184308 8.543779850006107
  endloop
endfacet
facet normal 0.978147600733806 -0.20791169081775762 0.0
  outer loop
    vertex -34.41782383952581 34.492212185014786 -0.2035691499938846
    vertex -34.70911050063349 33.12181618867812 8.543779850006107
    vertex -34.70911050063349 33.12181618867812 -0.2035691499938846
  endloop
endfacet
facet normal 0.978147600733806 -0.20791169081775762 0.0
  outer loop
    vertex -34.70911050063349 33.12181618867812 8.543779850006107
    vertex -34.41782383952581 34.492212185014786 -0.2035691499938846
    vertex -34.41782383952581 34.492212185014786 8.543779850006107
  endloop
endfacet
facet normal 0.6691306063588585 -0.743144825477394 0.0
  outer loop
    vertex -36.102447071371266 30.708486456116514 8.543779850006107
    vertex -37.15604722831962 29.75982061372738 -0.2035691499938846
    vertex -36.102447071371266 30.708486456116514 -0.2035691499938846
  endloop
endfacet
facet normal 0.6691306063588585 -0.743144825477394 0.0
  outer loop
    vertex -37.15604722831962 29.75982061372738 -0.2035691499938846
    vertex -36.102447071371266 30.708486456116514 8.543779850006107
    vertex -37.15604722831962 29.75982061372738 8.543779850006107
  endloop
endfacet
facet normal 0.9135454576426009 0.40673664307580054 0.0
  outer loop
    vertex -35.27895319800997 38.543507293095246 -0.2035691499938846
    vertex -34.70911050063349 37.263619639446915 8.543779850006107
    vertex -34.70911050063349 37.263619639446915 -0.2035691499938846
  endloop
endfacet
facet normal 0.9135454576426009 0.40673664307580054 0.0
  outer loop
    vertex -34.70911050063349 37.263619639446915 8.543779850006107
    vertex -35.27895319800997 38.543507293095246 -0.2035691499938846
    vertex -35.27895319800997 38.543507293095246 8.543779850006107
  endloop
endfacet
facet normal 0.8090169943749475 0.5877852522924734 0.0
  outer loop
    vertex -36.102447071371266 39.67694937200852 -0.2035691499938846
    vertex -35.27895319800997 38.543507293095246 8.543779850006107
    vertex -35.27895319800997 38.543507293095246 -0.2035691499938846
  endloop
endfacet
facet normal 0.8090169943749475 0.5877852522924734 0.0
  outer loop
    vertex -35.27895319800997 38.543507293095246 8.543779850006107
    vertex -36.102447071371266 39.67694937200852 -0.2035691499938846
    vertex -36.102447071371266 39.67694937200852 8.543779850006107
  endloop
endfacet
facet normal 1.0 0.0 0.0
  outer loop
    vertex -34.41782383952581 35.89322364311025 -0.2035691499938846
    vertex -34.41782383952581 34.492212185014786 8.543779850006107
    vertex -34.41782383952581 34.492212185014786 -0.2035691499938846
  endloop
endfacet
facet normal 1.0 0.0 0.0
  outer loop
    vertex -34.41782383952581 34.492212185014786 8.543779850006107
    vertex -34.41782383952581 35.89322364311025 -0.2035691499938846
    vertex -34.41782383952581 35.89322364311025 8.543779850006107
  endloop
endfacet
facet normal 0.9135454576425994 -0.406736643075804 0.0
  outer loop
    vertex -34.70911050063349 33.12181618867812 -0.2035691499938846
    vertex -35.27895319800997 31.84192853502979 8.543779850006107
    vertex -35.27895319800997 31.84192853502979 -0.2035691499938846
  endloop
endfacet
facet normal 0.9135454576425994 -0.406736643075804 0.0
  outer loop
    vertex -35.27895319800997 31.84192853502979 8.543779850006107
    vertex -34.70911050063349 33.12181618867812 -0.2035691499938846
    vertex -34.70911050063349 33.12181618867812 8.543779850006107
  endloop
endfacet
facet normal 0.8090169943749507 -0.5877852522924688 0.0
  outer loop
    vertex -35.27895319800997 31.84192853502979 -0.2035691499938846
    vertex -36.102447071371266 30.708486456116514 8.543779850006107
    vertex -36.102447071371266 30.708486456116514 -0.2035691499938846
  endloop
endfacet
facet normal 0.8090169943749507 -0.5877852522924688 0.0
  outer loop
    vertex -36.102447071371266 30.708486456116514 8.543779850006107
    vertex -35.27895319800997 31.84192853502979 -0.2035691499938846
    vertex -35.27895319800997 31.84192853502979 8.543779850006107
  endloop
endfacet
facet normal 0.978147600733806 0.20791169081775762 0.0
  outer loop
    vertex -34.70911050063349 37.263619639446915 -0.2035691499938846
    vertex -34.41782383952581 35.89322364311025 8.543779850006107
    vertex -34.41782383952581 35.89322364311025 -0.2035691499938846
  endloop
endfacet
facet normal 0.978147600733806 0.20791169081775762 0.0
  outer loop
    vertex -34.41782383952581 35.89322364311025 8.543779850006107
    vertex -34.70911050063349 37.263619639446915 -0.2035691499938846
    vertex -34.70911050063349 37.263619639446915 8.543779850006107
  endloop
endfacet
facet normal 3.359366602301578e-31 -9.549554349443933e-17 1.0
  outer loop
    vertex -47.45627079528019 33.12181618867812 8.543779850006107
    vertex -47.747557456387874 35.89322364311025 8.543779850006107
    vertex -47.747557456387874 34.492212185014765 8.543779850006107
  endloop
endfacet
facet normal 3.359366602301578e-31 -9.549554349443933e-17 1.0
  outer loop
    vertex -47.747557456387874 35.89322364311025 8.543779850006107
    vertex -47.45627079528019 33.12181618867812 8.543779850006107
    vertex -47.45627079528019 37.263619639446915 8.543779850006107
  endloop
endfacet
facet normal 3.359366602301578e-31 -9.549554349443933e-17 1.0
  outer loop
    vertex -47.45627079528019 37.263619639446915 8.543779850006107
    vertex -47.45627079528019 33.12181618867812 8.543779850006107
    vertex -46.88642809790372 31.84192853502979 8.543779850006107
  endloop
endfacet
facet normal 3.359366602301578e-31 -9.549554349443933e-17 1.0
  outer loop
    vertex -47.45627079528019 37.263619639446915 8.543779850006107
    vertex -46.88642809790372 31.84192853502979 8.543779850006107
    vertex -46.88642809790372 38.543507293095246 8.543779850006107
  endloop
endfacet
facet normal 3.359366602301578e-31 -9.549554349443933e-17 1.0
  outer loop
    vertex -46.88642809790372 38.543507293095246 8.543779850006107
    vertex -46.88642809790372 31.84192853502979 8.543779850006107
    vertex -46.06293422454242 30.708486456116514 8.543779850006107
  endloop
endfacet
facet normal 3.359366602301578e-31 -9.549554349443933e-17 1.0
  outer loop
    vertex -46.88642809790372 38.543507293095246 8.543779850006107
    vertex -46.06293422454242 30.708486456116514 8.543779850006107
    vertex -46.062934224542424 39.6769493720085 8.543779850006107
  endloop
endfacet
facet normal 3.359366602301578e-31 -9.549554349443933e-17 1.0
  outer loop
    vertex -46.062934224542424 39.6769493720085 8.543779850006107
    vertex -46.06293422454242 30.708486456116514 8.543779850006107
    vertex -45.02177980902424 40.614409018479634 8.543779850006107
  endloop
endfacet
facet normal 3.359366602301578e-31 -9.549554349443933e-17 1.0
  outer loop
    vertex -45.02177980902424 40.614409018479634 8.543779850006107
    vertex -46.06293422454242 30.708486456116514 8.543779850006107
    vertex -45.00933406759407 29.75982061372736 8.543779850006107
  endloop
endfacet
facet normal 3.359366602301578e-31 -9.549554349443933e-17 1.0
  outer loop
    vertex -45.02177980902424 40.614409018479634 8.543779850006107
    vertex -45.00933406759407 29.75982061372736 8.543779850006107
    vertex -44.33819470774841 41.00907706071526 8.543779850006107
  endloop
endfacet
facet normal 3.359366602301578e-31 -9.549554349443933e-17 1.0
  outer loop
    vertex -44.33819470774841 41.00907706071526 8.543779850006107
    vertex -45.00933406759407 29.75982061372736 8.543779850006107
    vertex -44.7035977893724 29.477200905184308 8.543779850006107
  endloop
endfacet
facet normal 3.359366602301578e-31 -9.549554349443933e-17 1.0
  outer loop
    vertex -44.33819470774841 41.00907706071526 8.543779850006107
    vertex -44.7035977893724 29.477200905184308 8.543779850006107
    vertex -44.46296731658919 29.117071952944052 8.543779850006107
  endloop
endfacet
facet normal 3.359366602301578e-31 -9.549554349443933e-17 1.0
  outer loop
    vertex -44.33819470774841 41.00907706071526 8.543779850006107
    vertex -44.46296731658919 29.117071952944052 8.543779850006107
    vertex -44.313055917214506 28.71071932404759 8.543779850006107
  endloop
endfacet
facet normal 3.359366602301578e-31 -9.549554349443933e-17 1.0
  outer loop
    vertex -44.33819470774841 41.00907706071526 8.543779850006107
    vertex -44.313055917214506 28.71071932404759 8.543779850006107
    vertex -44.245119419405654 41.06281410349486 8.543779850006107
  endloop
endfacet
facet normal 3.359366602301578e-31 -9.549554349443933e-17 1.0
  outer loop
    vertex -44.245119419405654 41.06281410349486 8.543779850006107
    vertex -44.313055917214506 28.71071932404759 8.543779850006107
    vertex -44.26319470774841 28.289444092356614 8.543779850006107
  endloop
endfacet
facet normal 3.359366602301578e-31 -9.549554349443933e-17 1.0
  outer loop
    vertex -37.90218658816527 15.262828826904293 8.543779850006104
    vertex -44.26319470774841 28.289444092356614 8.543779850006107
    vertex -44.26319470774841 15.262828826904293 8.543779850006104
  endloop
endfacet
facet normal 3.359366602301578e-31 -9.549554349443933e-17 1.0
  outer loop
    vertex -44.26319470774841 28.289444092356614 8.543779850006107
    vertex -37.90218658816527 15.262828826904293 8.543779850006104
    vertex -44.245119419405654 41.06281410349486 8.543779850006107
  endloop
endfacet
facet normal 3.359366602301578e-31 -9.549554349443933e-17 1.0
  outer loop
    vertex -44.245119419405654 41.06281410349486 8.543779850006107
    vertex -37.90218658816527 15.262828826904293 8.543779850006104
    vertex -43.80846829532049 41.314914747527375 8.543779850006107
  endloop
endfacet
facet normal 3.359366602301578e-31 -9.549554349443933e-17 1.0
  outer loop
    vertex -43.80846829532049 41.314914747527375 8.543779850006107
    vertex -37.90218658816527 15.262828826904293 8.543779850006104
    vertex -42.47602721869462 41.74785109739291 8.543779850006107
  endloop
endfacet
facet normal 3.359366602301578e-31 -9.549554349443933e-17 1.0
  outer loop
    vertex -42.47602721869462 41.74785109739291 8.543779850006107
    vertex -37.90218658816527 15.262828826904293 8.543779850006104
    vertex -41.082690647956845 41.894296672127986 8.543779850006107
  endloop
endfacet
facet normal 3.359366602301578e-31 -9.549554349443933e-17 1.0
  outer loop
    vertex -41.082690647956845 41.894296672127986 8.543779850006107
    vertex -37.90218658816527 15.262828826904293 8.543779850006104
    vertex -39.68935407721907 41.74785109739291 8.543779850006107
  endloop
endfacet
facet normal 3.359366602301578e-31 -9.549554349443933e-17 1.0
  outer loop
    vertex -39.68935407721907 41.74785109739291 8.543779850006107
    vertex -37.90218658816527 15.262828826904293 8.543779850006104
    vertex -38.3569130005932 41.314914747527375 8.543779850006107
  endloop
endfacet
facet normal 3.359366602301578e-31 -9.549554349443933e-17 1.0
  outer loop
    vertex -38.3569130005932 41.314914747527375 8.543779850006107
    vertex -37.90218658816527 15.262828826904293 8.543779850006104
    vertex -37.920261876508036 41.06281410349486 8.543779850006107
  endloop
endfacet
facet normal 3.359366602301578e-31 -9.549554349443933e-17 1.0
  outer loop
    vertex -37.920261876508036 41.06281410349486 8.543779850006107
    vertex -37.90218658816527 15.262828826904293 8.543779850006104
    vertex -37.90218658816528 28.289444092356614 8.543779850006107
  endloop
endfacet
facet normal 3.359366602301578e-31 -9.549554349443933e-17 1.0
  outer loop
    vertex -37.90218658816528 28.289444092356614 8.543779850006107
    vertex -37.827186588165276 41.00907706071526 8.543779850006107
    vertex -37.920261876508036 41.06281410349486 8.543779850006107
  endloop
endfacet
facet normal 3.359366602301578e-31 -9.549554349443933e-17 1.0
  outer loop
    vertex -37.827186588165276 41.00907706071526 8.543779850006107
    vertex -37.90218658816528 28.289444092356614 8.543779850006107
    vertex -37.85232537869918 28.71071932404757 8.543779850006107
  endloop
endfacet
facet normal 3.359366602301578e-31 -9.549554349443933e-17 1.0
  outer loop
    vertex -37.827186588165276 41.00907706071526 8.543779850006107
    vertex -37.85232537869918 28.71071932404757 8.543779850006107
    vertex -37.7024139793245 29.117071952944052 8.543779850006107
  endloop
endfacet
facet normal 3.359366602301578e-31 -9.549554349443933e-17 1.0
  outer loop
    vertex -37.827186588165276 41.00907706071526 8.543779850006107
    vertex -37.7024139793245 29.117071952944052 8.543779850006107
    vertex -37.14360148688945 40.614409018479634 8.543779850006107
  endloop
endfacet
facet normal 3.359366602301578e-31 -9.549554349443933e-17 1.0
  outer loop
    vertex -37.14360148688945 40.614409018479634 8.543779850006107
    vertex -37.7024139793245 29.117071952944052 8.543779850006107
    vertex -37.46178350654129 29.477200905184308 8.543779850006107
  endloop
endfacet
facet normal 3.359366602301578e-31 -9.549554349443933e-17 1.0
  outer loop
    vertex -37.14360148688945 40.614409018479634 8.543779850006107
    vertex -37.46178350654129 29.477200905184308 8.543779850006107
    vertex -37.15604722831962 29.75982061372738 8.543779850006107
  endloop
endfacet
facet normal 3.359366602301578e-31 -9.549554349443933e-17 1.0
  outer loop
    vertex -37.14360148688945 40.614409018479634 8.543779850006107
    vertex -37.15604722831962 29.75982061372738 8.543779850006107
    vertex -36.102447071371266 30.708486456116514 8.543779850006107
  endloop
endfacet
facet normal 3.359366602301578e-31 -9.549554349443933e-17 1.0
  outer loop
    vertex -37.14360148688945 40.614409018479634 8.543779850006107
    vertex -36.102447071371266 30.708486456116514 8.543779850006107
    vertex -36.102447071371266 39.67694937200852 8.543779850006107
  endloop
endfacet
facet normal 3.359366602301578e-31 -9.549554349443933e-17 1.0
  outer loop
    vertex -36.102447071371266 39.67694937200852 8.543779850006107
    vertex -36.102447071371266 30.708486456116514 8.543779850006107
    vertex -35.27895319800997 31.84192853502979 8.543779850006107
  endloop
endfacet
facet normal 3.359366602301578e-31 -9.549554349443933e-17 1.0
  outer loop
    vertex -36.102447071371266 39.67694937200852 8.543779850006107
    vertex -35.27895319800997 31.84192853502979 8.543779850006107
    vertex -35.27895319800997 38.543507293095246 8.543779850006107
  endloop
endfacet
facet normal 3.359366602301578e-31 -9.549554349443933e-17 1.0
  outer loop
    vertex -35.27895319800997 38.543507293095246 8.543779850006107
    vertex -35.27895319800997 31.84192853502979 8.543779850006107
    vertex -34.70911050063349 33.12181618867812 8.543779850006107
  endloop
endfacet
facet normal 3.359366602301578e-31 -9.549554349443933e-17 1.0
  outer loop
    vertex -35.27895319800997 38.543507293095246 8.543779850006107
    vertex -34.70911050063349 33.12181618867812 8.543779850006107
    vertex -34.70911050063349 37.263619639446915 8.543779850006107
  endloop
endfacet
facet normal 3.359366602301578e-31 -9.549554349443933e-17 1.0
  outer loop
    vertex -34.70911050063349 37.263619639446915 8.543779850006107
    vertex -34.70911050063349 33.12181618867812 8.543779850006107
    vertex -34.41782383952581 34.492212185014786 8.543779850006107
  endloop
endfacet
facet normal 3.359366602301578e-31 -9.549554349443933e-17 1.0
  outer loop
    vertex -34.70911050063349 37.263619639446915 8.543779850006107
    vertex -34.41782383952581 34.492212185014786 8.543779850006107
    vertex -34.41782383952581 35.89322364311025 8.543779850006107
  endloop
endfacet
facet normal 1.2735582828674964e-17 -0.831469612302562 0.5555702330195774
  outer loop
    vertex -43.58373344790007 -142.11276931234696 33.300836271728066
    vertex -44.350055728884975 -142.29257391176156 33.031739672090396
    vertex -43.58373344790007 -142.29257391176156 33.031739672090396
  endloop
endfacet
facet normal 1.2735582828674964e-17 -0.831469612302562 0.5555702330195774
  outer loop
    vertex -44.350055728884975 -142.29257391176156 33.031739672090396
    vertex -43.58373344790007 -142.11276931234696 33.300836271728066
    vertex -44.17025112947037 -142.11276931234696 33.300836271728066
  endloop
endfacet
facet normal 0.0 -0.8314696123025621 0.5555702330195773
  outer loop
    vertex -37.99513016644331 -142.11276931234696 33.300836271728066
    vertex -43.58373344790007 -142.29257391176156 33.031739672090396
    vertex -37.81532556702871 -142.29257391176156 33.031739672090396
  endloop
endfacet
facet normal 0.0 -0.8314696123025621 0.5555702330195773
  outer loop
    vertex -43.58373344790007 -142.29257391176156 33.031739672090396
    vertex -37.99513016644331 -142.11276931234696 33.300836271728066
    vertex -43.58373344790007 -142.11276931234696 33.300836271728066
  endloop
endfacet
facet normal 0.0 1.0 0.0
  outer loop
    vertex -44.41319470774841 -132.9202880859375 18.543779850006107
    vertex -37.75218658816528 -132.9202880859375 11.043779850006105
    vertex -44.41319470774841 -132.9202880859375 11.043779850006105
  endloop
endfacet
facet normal 0.0 1.0 0.0
  outer loop
    vertex -37.75218658816528 -132.9202880859375 11.043779850006105
    vertex -44.41319470774841 -132.9202880859375 18.543779850006107
    vertex -37.75218658816527 -132.9202880859375 32.71431859015777
  endloop
endfacet
facet normal 0.0 1.0 0.0
  outer loop
    vertex -37.75218658816527 -132.9202880859375 32.71431859015777
    vertex -44.41319470774841 -132.9202880859375 18.543779850006107
    vertex -44.41319470774841 -132.9202880859375 32.71431859015777
  endloop
endfacet
facet normal 0.0 -7.252531740370266e-16 1.0
  outer loop
    vertex -38.5816478480136 -141.52625163077667 33.5437798500061
    vertex -43.58373344790007 -133.74974934578583 33.54377985000611
    vertex -43.58373344790007 -141.52625163077667 33.5437798500061
  endloop
endfacet
facet normal 0.0 -7.252531740370266e-16 1.0
  outer loop
    vertex -43.58373344790007 -133.74974934578583 33.54377985000611
    vertex -38.5816478480136 -141.52625163077667 33.5437798500061
    vertex -38.5816478480136 -133.74974934578583 33.54377985000611
  endloop
endfacet
facet normal 0.0 -0.5555702330195733 0.8314696123025648
  outer loop
    vertex -37.99513016644331 -142.11276931234696 33.300836271728066
    vertex -43.58373344790007 -141.8436727127093 33.48064087114267
    vertex -43.58373344790007 -142.11276931234696 33.300836271728066
  endloop
endfacet
facet normal 0.0 -0.5555702330195733 0.8314696123025648
  outer loop
    vertex -43.58373344790007 -141.8436727127093 33.48064087114267
    vertex -37.99513016644331 -142.11276931234696 33.300836271728066
    vertex -38.26422676608099 -141.8436727127093 33.48064087114267
  endloop
endfacet
facet normal 0.0 -0.9807852804032295 0.19509032201613388
  outer loop
    vertex -37.81532556702871 -142.29257391176156 33.031739672090396
    vertex -43.58373344790007 -142.355712890625 32.71431859015777
    vertex -37.75218658816527 -142.355712890625 32.71431859015777
  endloop
endfacet
facet normal 0.0 -0.9807852804032295 0.19509032201613388
  outer loop
    vertex -43.58373344790007 -142.355712890625 32.71431859015777
    vertex -37.81532556702871 -142.29257391176156 33.031739672090396
    vertex -43.58373344790007 -142.29257391176156 33.031739672090396
  endloop
endfacet
facet normal 0.0 -0.19509032201614382 0.9807852804032273
  outer loop
    vertex -38.26422676608099 -141.8436727127093 33.48064087114267
    vertex -43.58373344790007 -141.52625163077667 33.5437798500061
    vertex -43.58373344790007 -141.8436727127093 33.48064087114267
  endloop
endfacet
facet normal 0.0 -0.19509032201614382 0.9807852804032273
  outer loop
    vertex -43.58373344790007 -141.52625163077667 33.5437798500061
    vertex -38.26422676608099 -141.8436727127093 33.48064087114267
    vertex -38.5816478480136 -141.52625163077667 33.5437798500061
  endloop
endfacet
facet normal 0.9807852804032294 -1.1779221913903428e-16 0.19509032201613383
  outer loop
    vertex -37.75218658816527 -132.9202880859375 32.71431859015777
    vertex -37.81532556702871 -142.29257391176156 33.031739672090396
    vertex -37.75218658816527 -142.355712890625 32.71431859015777
  endloop
endfacet
facet normal 0.9807852804032294 -1.1779221913903428e-16 0.19509032201613383
  outer loop
    vertex -37.81532556702871 -142.29257391176156 33.031739672090396
    vertex -37.75218658816527 -132.9202880859375 32.71431859015777
    vertex -37.81532556702871 -132.98342706480094 33.0317396720904
  endloop
endfacet
facet normal -0.5555702330195893 -5.397857042387087e-16 0.831469612302554
  outer loop
    vertex -43.90115452983271 -141.8436727127093 33.48064087114267
    vertex -44.17025112947037 -133.16323166421554 33.300836271728066
    vertex -44.17025112947037 -142.11276931234696 33.300836271728066
  endloop
endfacet
facet normal -0.5555702330195893 -5.397857042387087e-16 0.831469612302554
  outer loop
    vertex -44.17025112947037 -133.16323166421554 33.300836271728066
    vertex -43.90115452983271 -141.8436727127093 33.48064087114267
    vertex -43.90115452983271 -133.4323282638532 33.480640871142676
  endloop
endfacet
facet normal 0.0 -0.9807852804032295 0.19509032201613388
  outer loop
    vertex -43.58373344790007 -142.29257391176156 33.031739672090396
    vertex -44.41319470774841 -142.355712890625 32.71431859015777
    vertex -43.58373344790007 -142.355712890625 32.71431859015777
  endloop
endfacet
facet normal 0.0 -0.9807852804032295 0.19509032201613388
  outer loop
    vertex -44.41319470774841 -142.355712890625 32.71431859015777
    vertex -43.58373344790007 -142.29257391176156 33.031739672090396
    vertex -44.350055728884975 -142.29257391176156 33.031739672090396
  endloop
endfacet
facet normal 0.0 -0.19509032201614385 0.9807852804032274
  outer loop
    vertex -43.58373344790007 -141.52625163077667 33.5437798500061
    vertex -43.90115452983271 -141.8436727127093 33.48064087114267
    vertex -43.58373344790007 -141.8436727127093 33.48064087114267
  endloop
endfacet
facet normal -0.831469612302554 -3.4304183038523186e-16 0.5555702330195893
  outer loop
    vertex -44.17025112947037 -142.11276931234696 33.300836271728066
    vertex -44.350055728884975 -132.98342706480094 33.0317396720904
    vertex -44.350055728884975 -142.29257391176156 33.031739672090396
  endloop
endfacet
facet normal -0.831469612302554 -3.4304183038523186e-16 0.5555702330195893
  outer loop
    vertex -44.350055728884975 -132.98342706480094 33.0317396720904
    vertex -44.17025112947037 -142.11276931234696 33.300836271728066
    vertex -44.17025112947037 -133.16323166421554 33.300836271728066
  endloop
endfacet
facet normal -1.7777483933543853e-17 -0.5555702330195733 0.8314696123025648
  outer loop
    vertex -43.58373344790007 -142.11276931234696 33.300836271728066
    vertex -43.90115452983271 -141.8436727127093 33.48064087114267
    vertex -44.17025112947037 -142.11276931234696 33.300836271728066
  endloop
endfacet
facet normal -1.7777483933543853e-17 -0.5555702330195733 0.8314696123025648
  outer loop
    vertex -43.90115452983271 -141.8436727127093 33.48064087114267
    vertex -43.58373344790007 -142.11276931234696 33.300836271728066
    vertex -43.58373344790007 -141.8436727127093 33.48064087114267
  endloop
endfacet
facet normal 0.0 0.19509032201614382 0.9807852804032273
  outer loop
    vertex -43.58373344790007 -133.74974934578583 33.54377985000611
    vertex -38.26422676608099 -133.4323282638532 33.480640871142676
    vertex -43.90115452983271 -133.4323282638532 33.480640871142676
  endloop
endfacet
facet normal 0.0 0.19509032201614382 0.9807852804032273
  outer loop
    vertex -38.26422676608099 -133.4323282638532 33.480640871142676
    vertex -43.58373344790007 -133.74974934578583 33.54377985000611
    vertex -38.5816478480136 -133.74974934578583 33.54377985000611
  endloop
endfacet
facet normal 0.0 0.831469612302562 0.5555702330195773
  outer loop
    vertex -44.17025112947037 -133.16323166421554 33.300836271728066
    vertex -37.81532556702871 -132.98342706480094 33.0317396720904
    vertex -44.350055728884975 -132.98342706480094 33.0317396720904
  endloop
endfacet
facet normal 0.0 0.831469612302562 0.5555702330195773
  outer loop
    vertex -37.81532556702871 -132.98342706480094 33.0317396720904
    vertex -44.17025112947037 -133.16323166421554 33.300836271728066
    vertex -37.99513016644331 -133.16323166421554 33.300836271728066
  endloop
endfacet
facet normal -0.9807852804032295 -1.174422784740245e-16 0.19509032201613388
  outer loop
    vertex -44.350055728884975 -142.29257391176156 33.031739672090396
    vertex -44.41319470774841 -132.9202880859375 32.71431859015777
    vertex -44.41319470774841 -142.355712890625 32.71431859015777
  endloop
endfacet
facet normal -0.9807852804032295 -1.174422784740245e-16 0.19509032201613388
  outer loop
    vertex -44.41319470774841 -132.9202880859375 32.71431859015777
    vertex -44.350055728884975 -142.29257391176156 33.031739672090396
    vertex -44.350055728884975 -132.98342706480094 33.0317396720904
  endloop
endfacet
facet normal 0.0 -1.0 0.0
  outer loop
    vertex -37.75218658816527 -142.355712890625 -0.22135627269744865
    vertex -44.41319470774841 -142.355712890625 32.71431859015777
    vertex -44.41319470774841 -142.355712890625 -0.22178064286708823
  endloop
endfacet
facet normal 0.0 -1.0 0.0
  outer loop
    vertex -44.41319470774841 -142.355712890625 32.71431859015777
    vertex -37.75218658816527 -142.355712890625 -0.22135627269744865
    vertex -37.75218658816527 -142.355712890625 32.71431859015777
  endloop
endfacet
facet normal 0.0 -1.0 0.0
  outer loop
    vertex -44.41319470774841 -142.355712890625 32.71431859015777
    vertex -37.75218658816527 -142.355712890625 32.71431859015777
    vertex -43.58373344790007 -142.355712890625 32.71431859015777
  endloop
endfacet
facet normal 0.0 0.5555702330195733 0.8314696123025647
  outer loop
    vertex -43.90115452983271 -133.4323282638532 33.480640871142676
    vertex -37.99513016644331 -133.16323166421554 33.300836271728066
    vertex -44.17025112947037 -133.16323166421554 33.300836271728066
  endloop
endfacet
facet normal 0.0 0.5555702330195733 0.8314696123025647
  outer loop
    vertex -37.99513016644331 -133.16323166421554 33.300836271728066
    vertex -43.90115452983271 -133.4323282638532 33.480640871142676
    vertex -38.26422676608099 -133.4323282638532 33.480640871142676
  endloop
endfacet
facet normal 1.0 -3.209254290958087e-17 -1.2858720297674423e-17
  outer loop
    vertex -37.75218658816527 -142.355712890625 -0.22135627269744865
    vertex -37.75218658816528 -132.9202880859375 11.043779850006105
    vertex -37.75218658816527 -142.355712890625 32.71431859015777
  endloop
endfacet
facet normal 1.0 -3.209254290958087e-17 -1.2858720297674423e-17
  outer loop
    vertex -37.75218658816528 -132.9202880859375 11.043779850006105
    vertex -37.75218658816527 -142.355712890625 -0.22135627269744865
    vertex -37.75218658816527 -125.42028808593732 6.5437798500061
  endloop
endfacet
facet normal 1.0 -3.209254290958087e-17 -1.2858720297674423e-17
  outer loop
    vertex -37.75218658816527 -125.42028808593732 6.5437798500061
    vertex -37.75218658816527 -142.355712890625 -0.22135627269744865
    vertex -37.75218658816527 -10.058652416865412 -0.20356914999390216
  endloop
endfacet
facet normal 1.0 -3.209254290958087e-17 -1.2858720297674423e-17
  outer loop
    vertex -37.75218658816527 -125.42028808593732 6.5437798500061
    vertex -37.75218658816527 -10.058652416865412 -0.20356914999390216
    vertex -37.75218658816527 -10.058652416865412 6.5437798500061
  endloop
endfacet
facet normal 1.0 -3.209254290958087e-17 -1.2858720297674423e-17
  outer loop
    vertex -37.75218658816527 -132.9202880859375 32.71431859015777
    vertex -37.75218658816527 -142.355712890625 32.71431859015777
    vertex -37.75218658816528 -132.9202880859375 11.043779850006105
  endloop
endfacet
facet normal -0.9689698030398971 -0.2471791269440509 -2.2429834593522495e-15
  outer loop
    vertex -50.872572086826 15.262828826904293 8.543779850006104
    vertex -44.41319470774841 -10.058652416865412 -0.2213563024997706
    vertex -44.41319470774847 -10.058652416865412 6.5437798500061
  endloop
endfacet
facet normal -0.9689698030398971 -0.2471791269440509 -2.2429834593522495e-15
  outer loop
    vertex -44.41319470774841 -10.058652416865412 -0.2213563024997706
    vertex -50.872572086826 15.262828826904293 8.543779850006104
    vertex -50.87257208682601 15.262828826904293 -0.22135630249977148
  endloop
endfacet
facet normal -5.835340492478985e-16 -0.0787390949332886 0.9968952577523312
  outer loop
    vertex -44.41319470774847 -10.058652416865412 6.5437798500061
    vertex -44.26319470774841 15.262828826904293 8.543779850006104
    vertex -50.872572086826 15.262828826904293 8.543779850006104
  endloop
endfacet
facet normal -5.835340492478985e-16 -0.0787390949332886 0.9968952577523312
  outer loop
    vertex -44.26319470774841 15.262828826904293 8.543779850006104
    vertex -44.41319470774847 -10.058652416865412 6.5437798500061
    vertex -37.75218658816527 -10.058652416865412 6.5437798500061
  endloop
endfacet
facet normal -5.835340492478985e-16 -0.0787390949332886 0.9968952577523312
  outer loop
    vertex -44.26319470774841 15.262828826904293 8.543779850006104
    vertex -37.75218658816527 -10.058652416865412 6.5437798500061
    vertex -37.90218658816527 15.262828826904293 8.543779850006104
  endloop
endfacet
facet normal -5.835340492478985e-16 -0.0787390949332886 0.9968952577523312
  outer loop
    vertex -37.90218658816527 15.262828826904293 8.543779850006104
    vertex -37.75218658816527 -10.058652416865412 6.5437798500061
    vertex -31.29280920908767 15.262828826904293 8.543779850006118
  endloop
endfacet
facet normal 2.5955509287153407e-17 0.5144957554275174 0.8574929257125496
  outer loop
    vertex -44.41319470774841 -132.9202880859375 11.043779850006105
    vertex -37.75218658816527 -125.42028808593732 6.5437798500061
    vertex -44.41319470774847 -125.42028808593732 6.5437798500061
  endloop
endfacet
facet normal 2.5955509287153407e-17 0.5144957554275174 0.8574929257125496
  outer loop
    vertex -37.75218658816527 -125.42028808593732 6.5437798500061
    vertex -44.41319470774841 -132.9202880859375 11.043779850006105
    vertex -37.75218658816528 -132.9202880859375 11.043779850006105
  endloop
endfacet
facet normal 0.0 0.0 1.0
  outer loop
    vertex -37.75218658816527 -125.42028808593732 6.5437798500061
    vertex -44.41319470774847 -10.058652416865412 6.5437798500061
    vertex -44.41319470774847 -125.42028808593732 6.5437798500061
  endloop
endfacet
facet normal 0.0 0.0 1.0
  outer loop
    vertex -44.41319470774847 -10.058652416865412 6.5437798500061
    vertex -37.75218658816527 -125.42028808593732 6.5437798500061
    vertex -37.75218658816527 -10.058652416865412 6.5437798500061
  endloop
endfacet
facet normal 0.9689698030398969 -0.2471791269440514 -2.0385422510337345e-15
  outer loop
    vertex -31.292809209087707 15.262828826904293 -0.20356914999388137
    vertex -37.75218658816527 -10.058652416865412 6.5437798500061
    vertex -37.75218658816527 -10.058652416865412 -0.20356914999390216
  endloop
endfacet
facet normal 0.9689698030398969 -0.2471791269440514 -2.0385422510337345e-15
  outer loop
    vertex -37.75218658816527 -10.058652416865412 6.5437798500061
    vertex -31.292809209087707 15.262828826904293 -0.20356914999388137
    vertex -31.29280920908767 15.262828826904293 8.543779850006118
  endloop
endfacet
facet normal -1.0 -1.3324902292301507e-16 3.449364644314219e-16
  outer loop
    vertex -44.41319470774841 -132.9202880859375 32.71431859015777
    vertex -44.41319470774841 -142.355712890625 -0.22178064286708823
    vertex -44.41319470774841 -142.355712890625 32.71431859015777
  endloop
endfacet
facet normal -1.0 -1.3324902292301507e-16 3.449364644314219e-16
  outer loop
    vertex -44.41319470774841 -142.355712890625 -0.22178064286708823
    vertex -44.41319470774841 -132.9202880859375 32.71431859015777
    vertex -44.41319470774841 -132.9202880859375 11.043779850006105
  endloop
endfacet
facet normal -1.0 -1.3324902292301507e-16 3.449364644314219e-16
  outer loop
    vertex -44.41319470774841 -142.355712890625 -0.22178064286708823
    vertex -44.41319470774841 -132.9202880859375 11.043779850006105
    vertex -44.41319470774847 -125.42028808593732 6.5437798500061
  endloop
endfacet
facet normal -1.0 -1.3324902292301507e-16 3.449364644314219e-16
  outer loop
    vertex -44.41319470774841 -142.355712890625 -0.22178064286708823
    vertex -44.41319470774847 -125.42028808593732 6.5437798500061
    vertex -44.41319470774841 -10.058652416865412 -0.2213563024997706
  endloop
endfacet
facet normal -1.0 -1.3324902292301507e-16 3.449364644314219e-16
  outer loop
    vertex -44.41319470774841 -132.9202880859375 11.043779850006105
    vertex -44.41319470774841 -132.9202880859375 32.71431859015777
    vertex -44.41319470774841 -132.9202880859375 18.543779850006107
  endloop
endfacet
facet normal -1.0 -1.3324902292301507e-16 3.449364644314219e-16
  outer loop
    vertex -44.41319470774841 -10.058652416865412 -0.2213563024997706
    vertex -44.41319470774847 -125.42028808593732 6.5437798500061
    vertex -44.41319470774847 -10.058652416865412 6.5437798500061
  endloop
endfacet
endsolid Light Switch Extender-KPC
