solid OpenSCAD_Model
  facet normal 0.06279051952931361 0.9980267284282716 0
    outer loop
      vertex 12.091010727596395 9.25756643513176 4
      vertex 12.904069188470269 9.206413132608116 0
      vertex 12.091010727596395 9.25756643513176 0
    endloop
  endfacet
  facet normal 0.5358267949789955 0.8443279255020157 0
    outer loop
      vertex 11.316217302413513 9.509312079485436 0
      vertex 10.628372033316758 9.945831960978683 0
      vertex 10.628372033316758 9.945831960978683 4
    endloop
  endfacet
  facet normal 0.728968627421412 0.6845471059286881 0
    outer loop
      vertex 10.07069476828142 10.539697930049462 4
      vertex 10.628372033316758 9.945831960978683 0
      vertex 10.07069476828142 10.539697930049462 0
    endloop
  endfacet
  facet normal 0.30901699437494845 0.9510565162951533 0
    outer loop
      vertex 11.316217302413513 9.509312079485436 4
      vertex 12.091010727596395 9.25756643513176 0
      vertex 11.316217302413513 9.509312079485436 0
    endloop
  endfacet
  facet normal 0.876306680043864 0.48175367410171427 0
    outer loop
      vertex 9.678226420863183 11.253595203774797 4
      vertex 10.07069476828142 10.539697930049462 0
      vertex 9.678226420863183 11.253595203774797 0
    endloop
  endfacet
  facet normal 0.9685831611286312 0.24868988716485466 0
    outer loop
      vertex 9.475627220727947 12.042666990916011 4
      vertex 9.678226420863183 11.253595203774797 0
      vertex 9.475627220727947 12.042666990916011 0
    endloop
  endfacet
  facet normal -0.1873813145857254 0.9822872507286886 0
    outer loop
      vertex 12.904069188470269 9.206413132608116 4
      vertex 13.704305231718578 9.35906632204075 0
      vertex 12.904069188470269 9.206413132608116 0
    endloop
  endfacet
  facet normal -0.4257792915650717 0.9048270524660199 0
    outer loop
      vertex 13.704305231718578 9.35906632204075 4
      vertex 14.441437083681738 9.705934242118449 0
      vertex 13.704305231718578 9.35906632204075 0
    endloop
  endfacet
  facet normal -0.6374239897486896 0.7705132427757893 0
    outer loop
      vertex 14.441437083681738 9.705934242118449 4
      vertex 15.069148039119588 10.225221905731761 0
      vertex 14.441437083681738 9.705934242118449 0
    endloop
  endfacet
  facet normal -0.8090169943749483 0.5877852522924719 0
    outer loop
      vertex 15.069148039119588 10.225221905731761 0
      vertex 15.069148039119588 10.225221905731761 4
      vertex 15.547996710142556 10.884300559169425 0
    endloop
  endfacet
  facet normal -0.9297764858882512 0.3681245526846787 0
    outer loop
      vertex 15.547996710142556 10.884300559169425 4
      vertex 15.847895273668051 11.641757866714222 0
      vertex 15.547996710142556 10.884300559169425 0
    endloop
  endfacet
  facet normal -0.9921147013144779 0.1253332335643035 0
    outer loop
      vertex 15.847895273668051 11.641757866714222 0
      vertex 15.847895273668051 11.641757866714222 4
      vertex 15.95 12.45 0
    endloop
  endfacet
  facet normal 0.06279051952931361 0.9980267284282716 0
    outer loop
      vertex 12.904069188470269 9.206413132608116 4
      vertex 12.904069188470269 9.206413132608116 0
      vertex 12.091010727596395 9.25756643513176 4
    endloop
  endfacet
  facet normal 1 0 0
    outer loop
      vertex 9.475627220727947 12.042666990916011 4
      vertex 9.475627220727947 12.042666990916011 0
      vertex 9.475627220727947 12.857333009083987 4
    endloop
  endfacet
  facet normal 0.5358267949789955 0.8443279255020157 0
    outer loop
      vertex 11.316217302413513 9.509312079485436 4
      vertex 11.316217302413513 9.509312079485436 0
      vertex 10.628372033316758 9.945831960978683 4
    endloop
  endfacet
  facet normal 0.876306680043864 0.48175367410171427 0
    outer loop
      vertex 9.678226420863183 11.253595203774797 4
      vertex 10.07069476828142 10.539697930049462 4
      vertex 10.07069476828142 10.539697930049462 0
    endloop
  endfacet
  facet normal 0.728968627421412 0.6845471059286881 0
    outer loop
      vertex 10.07069476828142 10.539697930049462 4
      vertex 10.628372033316758 9.945831960978683 4
      vertex 10.628372033316758 9.945831960978683 0
    endloop
  endfacet
  facet normal 0.30901699437494845 0.9510565162951533 0
    outer loop
      vertex 12.091010727596395 9.25756643513176 4
      vertex 12.091010727596395 9.25756643513176 0
      vertex 11.316217302413513 9.509312079485436 4
    endloop
  endfacet
  facet normal 0.9685831611286312 0.24868988716485466 0
    outer loop
      vertex 9.475627220727947 12.042666990916011 4
      vertex 9.678226420863183 11.253595203774797 4
      vertex 9.678226420863183 11.253595203774797 0
    endloop
  endfacet
  facet normal -0.1873813145857254 0.9822872507286886 0
    outer loop
      vertex 13.704305231718578 9.35906632204075 4
      vertex 13.704305231718578 9.35906632204075 0
      vertex 12.904069188470269 9.206413132608116 4
    endloop
  endfacet
  facet normal -0.4257792915650717 0.9048270524660199 0
    outer loop
      vertex 14.441437083681738 9.705934242118449 4
      vertex 14.441437083681738 9.705934242118449 0
      vertex 13.704305231718578 9.35906632204075 4
    endloop
  endfacet
  facet normal -0.6374239897486896 0.7705132427757893 0
    outer loop
      vertex 15.069148039119588 10.225221905731761 4
      vertex 15.069148039119588 10.225221905731761 0
      vertex 14.441437083681738 9.705934242118449 4
    endloop
  endfacet
  facet normal -0.8090169943749483 0.5877852522924719 0
    outer loop
      vertex 15.069148039119588 10.225221905731761 4
      vertex 15.547996710142556 10.884300559169425 4
      vertex 15.547996710142556 10.884300559169425 0
    endloop
  endfacet
  facet normal -0.9297764858882512 0.3681245526846787 0
    outer loop
      vertex 15.547996710142556 10.884300559169425 4
      vertex 15.847895273668051 11.641757866714222 4
      vertex 15.847895273668051 11.641757866714222 0
    endloop
  endfacet
  facet normal -0.9921147013144779 0.1253332335643035 0
    outer loop
      vertex 15.847895273668051 11.641757866714222 4
      vertex 15.95 12.45 4
      vertex 15.95 12.45 0
    endloop
  endfacet
  facet normal 1 0 0
    outer loop
      vertex 9.475627220727947 12.857333009083987 4
      vertex 9.475627220727947 12.042666990916011 0
      vertex 9.475627220727947 12.857333009083987 0
    endloop
  endfacet
  facet normal 0.9685831611286312 -0.24868988716485466 0
    outer loop
      vertex 9.678226420863183 13.646404796225202 4
      vertex 9.475627220727947 12.857333009083987 0
      vertex 9.678226420863183 13.646404796225202 0
    endloop
  endfacet
  facet normal 0.876306680043864 -0.48175367410171427 0
    outer loop
      vertex 10.07069476828142 14.360302069950537 4
      vertex 9.678226420863183 13.646404796225202 0
      vertex 10.07069476828142 14.360302069950537 0
    endloop
  endfacet
  facet normal 0.728968627421412 -0.6845471059286881 0
    outer loop
      vertex 10.628372033316758 14.954168039021315 4
      vertex 10.07069476828142 14.360302069950537 0
      vertex 10.628372033316758 14.954168039021315 0
    endloop
  endfacet
  facet normal 0.5358267949789955 -0.8443279255020157 0
    outer loop
      vertex 11.316217302413513 15.390687920514562 4
      vertex 10.628372033316758 14.954168039021315 0
      vertex 11.316217302413513 15.390687920514562 0
    endloop
  endfacet
  facet normal 0.30901699437494845 -0.9510565162951533 0
    outer loop
      vertex 12.091010727596395 15.642433564868238 4
      vertex 11.316217302413513 15.390687920514562 0
      vertex 12.091010727596395 15.642433564868238 0
    endloop
  endfacet
  facet normal 0.06279051952931375 -0.9980267284282716 0
    outer loop
      vertex 12.904069188470267 15.693586867391883 4
      vertex 12.091010727596395 15.642433564868238 0
      vertex 12.904069188470267 15.693586867391883 0
    endloop
  endfacet
  facet normal -0.9297764858882508 -0.36812455268467936 0
    outer loop
      vertex 15.847895273668051 13.258242133285778 4
      vertex 15.547996710142556 14.015699440830574 0
      vertex 15.847895273668051 13.258242133285778 0
    endloop
  endfacet
  facet normal -0.4257792915650735 -0.904827052466019 0
    outer loop
      vertex 14.441437083681738 15.194065757881548 4
      vertex 13.704305231718578 15.540933677959249 0
      vertex 14.441437083681738 15.194065757881548 0
    endloop
  endfacet
  facet normal -0.8090169943749472 -0.5877852522924734 0
    outer loop
      vertex 15.547996710142556 14.015699440830574 4
      vertex 15.069148039119586 14.674778094268238 0
      vertex 15.547996710142556 14.015699440830574 0
    endloop
  endfacet
  facet normal -0.6374239897486894 -0.7705132427757895 0
    outer loop
      vertex 15.069148039119586 14.674778094268238 4
      vertex 14.441437083681738 15.194065757881548 0
      vertex 15.069148039119586 14.674778094268238 0
    endloop
  endfacet
  facet normal -0.9921147013144779 -0.12533323356430323 0
    outer loop
      vertex 15.95 12.45 0
      vertex 15.95 12.45 4
      vertex 15.847895273668051 13.258242133285778 0
    endloop
  endfacet
  facet normal -0.187381314585725 -0.9822872507286886 0
    outer loop
      vertex 13.704305231718578 15.540933677959249 4
      vertex 12.904069188470267 15.693586867391883 0
      vertex 13.704305231718578 15.540933677959249 0
    endloop
  endfacet
  facet normal 0.9685831611286312 -0.24868988716485466 0
    outer loop
      vertex 9.678226420863183 13.646404796225202 4
      vertex 9.475627220727947 12.857333009083987 4
      vertex 9.475627220727947 12.857333009083987 0
    endloop
  endfacet
  facet normal 0.876306680043864 -0.48175367410171427 0
    outer loop
      vertex 10.07069476828142 14.360302069950537 4
      vertex 9.678226420863183 13.646404796225202 4
      vertex 9.678226420863183 13.646404796225202 0
    endloop
  endfacet
  facet normal 0.728968627421412 -0.6845471059286881 0
    outer loop
      vertex 10.628372033316758 14.954168039021315 4
      vertex 10.07069476828142 14.360302069950537 4
      vertex 10.07069476828142 14.360302069950537 0
    endloop
  endfacet
  facet normal 0.5358267949789955 -0.8443279255020157 0
    outer loop
      vertex 10.628372033316758 14.954168039021315 4
      vertex 10.628372033316758 14.954168039021315 0
      vertex 11.316217302413513 15.390687920514562 4
    endloop
  endfacet
  facet normal 0.30901699437494845 -0.9510565162951533 0
    outer loop
      vertex 11.316217302413513 15.390687920514562 4
      vertex 11.316217302413513 15.390687920514562 0
      vertex 12.091010727596395 15.642433564868238 4
    endloop
  endfacet
  facet normal 0.06279051952931375 -0.9980267284282716 0
    outer loop
      vertex 12.091010727596395 15.642433564868238 4
      vertex 12.091010727596395 15.642433564868238 0
      vertex 12.904069188470267 15.693586867391883 4
    endloop
  endfacet
  facet normal -0.9297764858882508 -0.36812455268467936 0
    outer loop
      vertex 15.847895273668051 13.258242133285778 4
      vertex 15.547996710142556 14.015699440830574 4
      vertex 15.547996710142556 14.015699440830574 0
    endloop
  endfacet
  facet normal -0.4257792915650735 -0.904827052466019 0
    outer loop
      vertex 13.704305231718578 15.540933677959249 4
      vertex 13.704305231718578 15.540933677959249 0
      vertex 14.441437083681738 15.194065757881548 4
    endloop
  endfacet
  facet normal -0.8090169943749472 -0.5877852522924734 0
    outer loop
      vertex 15.547996710142556 14.015699440830574 4
      vertex 15.069148039119586 14.674778094268238 4
      vertex 15.069148039119586 14.674778094268238 0
    endloop
  endfacet
  facet normal -0.6374239897486894 -0.7705132427757895 0
    outer loop
      vertex 14.441437083681738 15.194065757881548 4
      vertex 14.441437083681738 15.194065757881548 0
      vertex 15.069148039119586 14.674778094268238 4
    endloop
  endfacet
  facet normal -0.9921147013144779 -0.12533323356430323 0
    outer loop
      vertex 15.95 12.45 4
      vertex 15.847895273668051 13.258242133285778 4
      vertex 15.847895273668051 13.258242133285778 0
    endloop
  endfacet
  facet normal -0.187381314585725 -0.9822872507286886 0
    outer loop
      vertex 12.904069188470267 15.693586867391883 4
      vertex 12.904069188470267 15.693586867391883 0
      vertex 13.704305231718578 15.540933677959249 4
    endloop
  endfacet
  facet normal 0.06279051952931347 0.9980267284282716 0
    outer loop
      vertex 37.49101072759639 9.25756643513176 0
      vertex 37.49101072759639 9.25756643513176 4
      vertex 38.304069188470265 9.206413132608116 0
    endloop
  endfacet
  facet normal 0.5358267949789955 0.8443279255020157 0
    outer loop
      vertex 36.71621730241351 9.509312079485436 0
      vertex 36.02837203331676 9.945831960978683 0
      vertex 36.02837203331676 9.945831960978683 4
    endloop
  endfacet
  facet normal 0.728968627421412 0.6845471059286881 0
    outer loop
      vertex 36.02837203331676 9.945831960978683 0
      vertex 35.47069476828142 10.539697930049462 0
      vertex 35.47069476828142 10.539697930049462 4
    endloop
  endfacet
  facet normal 0.3090169943749497 0.9510565162951528 0
    outer loop
      vertex 36.71621730241351 9.509312079485436 0
      vertex 36.71621730241351 9.509312079485436 4
      vertex 37.49101072759639 9.25756643513176 0
    endloop
  endfacet
  facet normal 0.8763066800438604 0.481753674101721 0
    outer loop
      vertex 35.47069476828142 10.539697930049462 0
      vertex 35.078226420863174 11.253595203774797 0
      vertex 35.078226420863174 11.253595203774797 4
    endloop
  endfacet
  facet normal 0.9685831611286323 0.24868988716485058 0
    outer loop
      vertex 35.078226420863174 11.253595203774797 0
      vertex 34.87562722072794 12.042666990916011 0
      vertex 34.87562722072794 12.042666990916011 4
    endloop
  endfacet
  facet normal -0.1873813145857266 0.9822872507286883 0
    outer loop
      vertex 38.304069188470265 9.206413132608116 0
      vertex 38.304069188470265 9.206413132608116 4
      vertex 39.10430523171857 9.35906632204075 0
    endloop
  endfacet
  facet normal -0.42577929156507005 0.9048270524660207 0
    outer loop
      vertex 39.10430523171857 9.35906632204075 0
      vertex 39.10430523171857 9.35906632204075 4
      vertex 39.84143708368173 9.705934242118449 0
    endloop
  endfacet
  facet normal -0.6374239897486906 0.7705132427757884 0
    outer loop
      vertex 39.84143708368173 9.705934242118449 0
      vertex 39.84143708368173 9.705934242118449 4
      vertex 40.46914803911958 10.225221905731761 0
    endloop
  endfacet
  facet normal -0.8090169943749493 0.5877852522924705 0
    outer loop
      vertex 40.46914803911958 10.225221905731761 0
      vertex 40.46914803911958 10.225221905731761 4
      vertex 40.94799671014255 10.884300559169425 0
    endloop
  endfacet
  facet normal -0.9297764858882512 0.3681245526846787 0
    outer loop
      vertex 41.24789527366804 11.641757866714222 0
      vertex 40.94799671014255 10.884300559169425 0
      vertex 40.94799671014255 10.884300559169425 4
    endloop
  endfacet
  facet normal -0.9921147013144773 0.12533323356430778 0
    outer loop
      vertex 41.24789527366804 11.641757866714222 0
      vertex 41.24789527366804 11.641757866714222 4
      vertex 41.349999999999994 12.45 0
    endloop
  endfacet
  facet normal 0.06279051952931347 0.9980267284282716 0
    outer loop
      vertex 38.304069188470265 9.206413132608116 0
      vertex 37.49101072759639 9.25756643513176 4
      vertex 38.304069188470265 9.206413132608116 4
    endloop
  endfacet
  facet normal 1 0 0
    outer loop
      vertex 34.87562722072794 12.042666990916011 4
      vertex 34.87562722072794 12.042666990916011 0
      vertex 34.87562722072794 12.857333009083987 4
    endloop
  endfacet
  facet normal 0.5358267949789955 0.8443279255020157 0
    outer loop
      vertex 36.71621730241351 9.509312079485436 0
      vertex 36.02837203331676 9.945831960978683 4
      vertex 36.71621730241351 9.509312079485436 4
    endloop
  endfacet
  facet normal 0.8763066800438604 0.481753674101721 0
    outer loop
      vertex 35.47069476828142 10.539697930049462 0
      vertex 35.078226420863174 11.253595203774797 4
      vertex 35.47069476828142 10.539697930049462 4
    endloop
  endfacet
  facet normal 0.728968627421412 0.6845471059286881 0
    outer loop
      vertex 36.02837203331676 9.945831960978683 0
      vertex 35.47069476828142 10.539697930049462 4
      vertex 36.02837203331676 9.945831960978683 4
    endloop
  endfacet
  facet normal 0.3090169943749497 0.9510565162951528 0
    outer loop
      vertex 37.49101072759639 9.25756643513176 0
      vertex 36.71621730241351 9.509312079485436 4
      vertex 37.49101072759639 9.25756643513176 4
    endloop
  endfacet
  facet normal 0.9685831611286323 0.24868988716485058 0
    outer loop
      vertex 35.078226420863174 11.253595203774797 0
      vertex 34.87562722072794 12.042666990916011 4
      vertex 35.078226420863174 11.253595203774797 4
    endloop
  endfacet
  facet normal -0.1873813145857266 0.9822872507286883 0
    outer loop
      vertex 39.10430523171857 9.35906632204075 0
      vertex 38.304069188470265 9.206413132608116 4
      vertex 39.10430523171857 9.35906632204075 4
    endloop
  endfacet
  facet normal -0.42577929156507005 0.9048270524660207 0
    outer loop
      vertex 39.84143708368173 9.705934242118449 0
      vertex 39.10430523171857 9.35906632204075 4
      vertex 39.84143708368173 9.705934242118449 4
    endloop
  endfacet
  facet normal -0.6374239897486906 0.7705132427757884 0
    outer loop
      vertex 40.46914803911958 10.225221905731761 0
      vertex 39.84143708368173 9.705934242118449 4
      vertex 40.46914803911958 10.225221905731761 4
    endloop
  endfacet
  facet normal -0.8090169943749493 0.5877852522924705 0
    outer loop
      vertex 40.94799671014255 10.884300559169425 0
      vertex 40.46914803911958 10.225221905731761 4
      vertex 40.94799671014255 10.884300559169425 4
    endloop
  endfacet
  facet normal -0.9297764858882512 0.3681245526846787 0
    outer loop
      vertex 41.24789527366804 11.641757866714222 0
      vertex 40.94799671014255 10.884300559169425 4
      vertex 41.24789527366804 11.641757866714222 4
    endloop
  endfacet
  facet normal -0.9921147013144773 0.12533323356430778 0
    outer loop
      vertex 41.349999999999994 12.45 0
      vertex 41.24789527366804 11.641757866714222 4
      vertex 41.349999999999994 12.45 4
    endloop
  endfacet
  facet normal 1 0 0
    outer loop
      vertex 34.87562722072794 12.042666990916011 0
      vertex 34.87562722072794 12.857333009083987 0
      vertex 34.87562722072794 12.857333009083987 4
    endloop
  endfacet
  facet normal 0.9685831611286323 -0.24868988716485058 0
    outer loop
      vertex 34.87562722072794 12.857333009083987 0
      vertex 35.078226420863174 13.646404796225202 0
      vertex 35.078226420863174 13.646404796225202 4
    endloop
  endfacet
  facet normal 0.8763066800438604 -0.481753674101721 0
    outer loop
      vertex 35.078226420863174 13.646404796225202 0
      vertex 35.47069476828142 14.360302069950537 0
      vertex 35.47069476828142 14.360302069950537 4
    endloop
  endfacet
  facet normal 0.728968627421412 -0.6845471059286881 0
    outer loop
      vertex 35.47069476828142 14.360302069950537 0
      vertex 36.02837203331676 14.954168039021315 0
      vertex 36.02837203331676 14.954168039021315 4
    endloop
  endfacet
  facet normal 0.5358267949789955 -0.8443279255020157 0
    outer loop
      vertex 36.71621730241351 15.390687920514562 0
      vertex 36.71621730241351 15.390687920514562 4
      vertex 36.02837203331676 14.954168039021315 0
    endloop
  endfacet
  facet normal 0.3090169943749497 -0.9510565162951528 0
    outer loop
      vertex 37.49101072759639 15.642433564868238 0
      vertex 37.49101072759639 15.642433564868238 4
      vertex 36.71621730241351 15.390687920514562 0
    endloop
  endfacet
  facet normal 0.06279051952931347 -0.9980267284282716 0
    outer loop
      vertex 38.304069188470265 15.693586867391883 0
      vertex 38.304069188470265 15.693586867391883 4
      vertex 37.49101072759639 15.642433564868238 0
    endloop
  endfacet
  facet normal -0.9297764858882508 -0.36812455268467936 0
    outer loop
      vertex 40.94799671014255 14.015699440830574 0
      vertex 41.24789527366804 13.258242133285778 0
      vertex 41.24789527366804 13.258242133285778 4
    endloop
  endfacet
  facet normal -0.4257792915650719 -0.9048270524660199 0
    outer loop
      vertex 39.84143708368173 15.194065757881548 0
      vertex 39.84143708368173 15.194065757881548 4
      vertex 39.10430523171857 15.540933677959249 0
    endloop
  endfacet
  facet normal -0.8090169943749493 -0.5877852522924705 0
    outer loop
      vertex 40.46914803911958 14.674778094268238 0
      vertex 40.94799671014255 14.015699440830574 0
      vertex 40.94799671014255 14.015699440830574 4
    endloop
  endfacet
  facet normal -0.6374239897486894 -0.7705132427757895 0
    outer loop
      vertex 40.46914803911958 14.674778094268238 0
      vertex 40.46914803911958 14.674778094268238 4
      vertex 39.84143708368173 15.194065757881548 0
    endloop
  endfacet
  facet normal -0.9921147013144773 -0.12533323356430753 0
    outer loop
      vertex 41.349999999999994 12.45 0
      vertex 41.349999999999994 12.45 4
      vertex 41.24789527366804 13.258242133285778 0
    endloop
  endfacet
  facet normal -0.1873813145857266 -0.9822872507286883 0
    outer loop
      vertex 39.10430523171857 15.540933677959249 0
      vertex 39.10430523171857 15.540933677959249 4
      vertex 38.304069188470265 15.693586867391883 0
    endloop
  endfacet
  facet normal 0.9685831611286323 -0.24868988716485058 0
    outer loop
      vertex 34.87562722072794 12.857333009083987 0
      vertex 35.078226420863174 13.646404796225202 4
      vertex 34.87562722072794 12.857333009083987 4
    endloop
  endfacet
  facet normal 0.8763066800438604 -0.481753674101721 0
    outer loop
      vertex 35.078226420863174 13.646404796225202 0
      vertex 35.47069476828142 14.360302069950537 4
      vertex 35.078226420863174 13.646404796225202 4
    endloop
  endfacet
  facet normal 0.728968627421412 -0.6845471059286881 0
    outer loop
      vertex 35.47069476828142 14.360302069950537 0
      vertex 36.02837203331676 14.954168039021315 4
      vertex 35.47069476828142 14.360302069950537 4
    endloop
  endfacet
  facet normal 0.5358267949789955 -0.8443279255020157 0
    outer loop
      vertex 36.02837203331676 14.954168039021315 0
      vertex 36.71621730241351 15.390687920514562 4
      vertex 36.02837203331676 14.954168039021315 4
    endloop
  endfacet
  facet normal 0.3090169943749497 -0.9510565162951528 0
    outer loop
      vertex 36.71621730241351 15.390687920514562 0
      vertex 37.49101072759639 15.642433564868238 4
      vertex 36.71621730241351 15.390687920514562 4
    endloop
  endfacet
  facet normal 0.06279051952931347 -0.9980267284282716 0
    outer loop
      vertex 37.49101072759639 15.642433564868238 0
      vertex 38.304069188470265 15.693586867391883 4
      vertex 37.49101072759639 15.642433564868238 4
    endloop
  endfacet
  facet normal -0.9297764858882508 -0.36812455268467936 0
    outer loop
      vertex 40.94799671014255 14.015699440830574 0
      vertex 41.24789527366804 13.258242133285778 4
      vertex 40.94799671014255 14.015699440830574 4
    endloop
  endfacet
  facet normal -0.4257792915650719 -0.9048270524660199 0
    outer loop
      vertex 39.10430523171857 15.540933677959249 0
      vertex 39.84143708368173 15.194065757881548 4
      vertex 39.10430523171857 15.540933677959249 4
    endloop
  endfacet
  facet normal -0.8090169943749493 -0.5877852522924705 0
    outer loop
      vertex 40.46914803911958 14.674778094268238 0
      vertex 40.94799671014255 14.015699440830574 4
      vertex 40.46914803911958 14.674778094268238 4
    endloop
  endfacet
  facet normal -0.6374239897486894 -0.7705132427757895 0
    outer loop
      vertex 39.84143708368173 15.194065757881548 0
      vertex 40.46914803911958 14.674778094268238 4
      vertex 39.84143708368173 15.194065757881548 4
    endloop
  endfacet
  facet normal -0.9921147013144773 -0.12533323356430753 0
    outer loop
      vertex 41.24789527366804 13.258242133285778 0
      vertex 41.349999999999994 12.45 4
      vertex 41.24789527366804 13.258242133285778 4
    endloop
  endfacet
  facet normal -0.1873813145857266 -0.9822872507286883 0
    outer loop
      vertex 38.304069188470265 15.693586867391883 0
      vertex 39.10430523171857 15.540933677959249 4
      vertex 38.304069188470265 15.693586867391883 4
    endloop
  endfacet
  facet normal 0 0 -1
    outer loop
      vertex 0 0 0
      vertex 12.091010727596395 9.25756643513176 0
      vertex 12.904069188470269 9.206413132608116 0
    endloop
  endfacet
  facet normal 0 0 -1
    outer loop
      vertex 0 0 0
      vertex 12.904069188470269 9.206413132608116 0
      vertex 13.704305231718578 9.35906632204075 0
    endloop
  endfacet
  facet normal 0 0 -1
    outer loop
      vertex 0 0 0
      vertex 9.475627220727947 12.857333009083987 0
      vertex 9.475627220727947 12.042666990916011 0
    endloop
  endfacet
  facet normal 0 0 -1
    outer loop
      vertex 0 0 0
      vertex 10.07069476828142 10.539697930049462 0
      vertex 10.628372033316758 9.945831960978683 0
    endloop
  endfacet
  facet normal 0 0 -1
    outer loop
      vertex 0 0 0
      vertex 10.628372033316758 9.945831960978683 0
      vertex 11.316217302413513 9.509312079485436 0
    endloop
  endfacet
  facet normal 0 0 -1
    outer loop
      vertex 0 0 0
      vertex 11.316217302413513 9.509312079485436 0
      vertex 12.091010727596395 9.25756643513176 0
    endloop
  endfacet
  facet normal 0 0 -1
    outer loop
      vertex 0 0 0
      vertex 9.678226420863183 11.253595203774797 0
      vertex 10.07069476828142 10.539697930049462 0
    endloop
  endfacet
  facet normal 0 0 -1
    outer loop
      vertex 0 0 0
      vertex 9.475627220727947 12.042666990916011 0
      vertex 9.678226420863183 11.253595203774797 0
    endloop
  endfacet
  facet normal 0 0 -1
    outer loop
      vertex 0 0 0
      vertex 35.078226420863174 11.253595203774797 0
      vertex 35.47069476828142 10.539697930049462 0
    endloop
  endfacet
  facet normal 0 0 -1
    outer loop
      vertex 0 0 0
      vertex 34.87562722072794 12.042666990916011 0
      vertex 35.078226420863174 11.253595203774797 0
    endloop
  endfacet
  facet normal 0 0 -1
    outer loop
      vertex 0 0 0
      vertex 35.47069476828142 10.539697930049462 0
      vertex 36.02837203331676 9.945831960978683 0
    endloop
  endfacet
  facet normal 0 0 -1
    outer loop
      vertex 0 0 0
      vertex 34.87562722072794 12.857333009083987 0
      vertex 34.87562722072794 12.042666990916011 0
    endloop
  endfacet
  facet normal 0 0 -1
    outer loop
      vertex 0 0 0
      vertex 35.078226420863174 13.646404796225202 0
      vertex 34.87562722072794 12.857333009083987 0
    endloop
  endfacet
  facet normal 0 0 -1
    outer loop
      vertex 0 0 0
      vertex 35.47069476828142 14.360302069950537 0
      vertex 35.078226420863174 13.646404796225202 0
    endloop
  endfacet
  facet normal 0 0 -1
    outer loop
      vertex 0 0 0
      vertex 13.704305231718578 9.35906632204075 0
      vertex 50.8 24.9 0
    endloop
  endfacet
  facet normal 0 0 -1
    outer loop
      vertex 0 0 0
      vertex 36.02837203331676 14.954168039021315 0
      vertex 35.47069476828142 14.360302069950537 0
    endloop
  endfacet
  facet normal 0 0 1
    outer loop
      vertex 0 0 4
      vertex 12.904069188470269 9.206413132608116 4
      vertex 12.091010727596395 9.25756643513176 4
    endloop
  endfacet
  facet normal 0 0 1
    outer loop
      vertex 0 0 4
      vertex 13.704305231718578 9.35906632204075 4
      vertex 12.904069188470269 9.206413132608116 4
    endloop
  endfacet
  facet normal -1 0 0
    outer loop
      vertex 0 0 0
      vertex 0 0 4
      vertex 0 24.9 4
    endloop
  endfacet
  facet normal 0 0 1
    outer loop
      vertex 0 0 4
      vertex 9.678226420863183 11.253595203774797 4
      vertex 0 24.9 4
    endloop
  endfacet
  facet normal 0 0 1
    outer loop
      vertex 0 0 4
      vertex 10.628372033316758 9.945831960978683 4
      vertex 10.07069476828142 10.539697930049462 4
    endloop
  endfacet
  facet normal 0 0 1
    outer loop
      vertex 0 0 4
      vertex 11.316217302413513 9.509312079485436 4
      vertex 10.628372033316758 9.945831960978683 4
    endloop
  endfacet
  facet normal 0 0 1
    outer loop
      vertex 0 0 4
      vertex 12.091010727596395 9.25756643513176 4
      vertex 11.316217302413513 9.509312079485436 4
    endloop
  endfacet
  facet normal 0 0 1
    outer loop
      vertex 0 0 4
      vertex 10.07069476828142 10.539697930049462 4
      vertex 9.678226420863183 11.253595203774797 4
    endloop
  endfacet
  facet normal 0 0 1
    outer loop
      vertex 0 0 4
      vertex 14.441437083681738 9.705934242118449 4
      vertex 13.704305231718578 9.35906632204075 4
    endloop
  endfacet
  facet normal 0 -1 0
    outer loop
      vertex 0 0 0
      vertex 50.8 0 4
      vertex 0 0 4
    endloop
  endfacet
  facet normal 0 0 1
    outer loop
      vertex 0 0 4
      vertex 50.8 0 4
      vertex 14.441437083681738 9.705934242118449 4
    endloop
  endfacet
  facet normal 0 0 -1
    outer loop
      vertex 0 0 0
      vertex 0 24.9 0
      vertex 9.475627220727947 12.857333009083987 0
    endloop
  endfacet
  facet normal 0 0 -1
    outer loop
      vertex 0 24.9 0
      vertex 9.678226420863183 13.646404796225202 0
      vertex 9.475627220727947 12.857333009083987 0
    endloop
  endfacet
  facet normal 0 0 -1
    outer loop
      vertex 0 24.9 0
      vertex 10.07069476828142 14.360302069950537 0
      vertex 9.678226420863183 13.646404796225202 0
    endloop
  endfacet
  facet normal 0 0 -1
    outer loop
      vertex 0 24.9 0
      vertex 10.628372033316758 14.954168039021315 0
      vertex 10.07069476828142 14.360302069950537 0
    endloop
  endfacet
  facet normal 0 0 -1
    outer loop
      vertex 0 24.9 0
      vertex 11.316217302413513 15.390687920514562 0
      vertex 10.628372033316758 14.954168039021315 0
    endloop
  endfacet
  facet normal 0 0 -1
    outer loop
      vertex 0 24.9 0
      vertex 12.091010727596395 15.642433564868238 0
      vertex 11.316217302413513 15.390687920514562 0
    endloop
  endfacet
  facet normal -1 0 0
    outer loop
      vertex 0 0 0
      vertex 0 24.9 4
      vertex 0 24.9 0
    endloop
  endfacet
  facet normal 0 0 -1
    outer loop
      vertex 50.8 24.9 0
      vertex 12.904069188470267 15.693586867391883 0
      vertex 12.091010727596395 15.642433564868238 0
    endloop
  endfacet
  facet normal 0 0 -1
    outer loop
      vertex 0 24.9 0
      vertex 50.8 24.9 0
      vertex 12.091010727596395 15.642433564868238 0
    endloop
  endfacet
  facet normal 0 1 0
    outer loop
      vertex 0 24.9 0
      vertex 0 24.9 4
      vertex 50.8 24.9 0
    endloop
  endfacet
  facet normal 0 0 1
    outer loop
      vertex 0 24.9 4
      vertex 9.475627220727947 12.042666990916011 4
      vertex 9.475627220727947 12.857333009083987 4
    endloop
  endfacet
  facet normal 0 0 1
    outer loop
      vertex 0 24.9 4
      vertex 9.678226420863183 11.253595203774797 4
      vertex 9.475627220727947 12.042666990916011 4
    endloop
  endfacet
  facet normal 0 0 1
    outer loop
      vertex 0 24.9 4
      vertex 9.475627220727947 12.857333009083987 4
      vertex 9.678226420863183 13.646404796225202 4
    endloop
  endfacet
  facet normal 0 0 1
    outer loop
      vertex 0 24.9 4
      vertex 9.678226420863183 13.646404796225202 4
      vertex 10.07069476828142 14.360302069950537 4
    endloop
  endfacet
  facet normal 0 0 1
    outer loop
      vertex 0 24.9 4
      vertex 10.07069476828142 14.360302069950537 4
      vertex 10.628372033316758 14.954168039021315 4
    endloop
  endfacet
  facet normal 0 0 1
    outer loop
      vertex 0 24.9 4
      vertex 10.628372033316758 14.954168039021315 4
      vertex 11.316217302413513 15.390687920514562 4
    endloop
  endfacet
  facet normal 0 0 1
    outer loop
      vertex 0 24.9 4
      vertex 11.316217302413513 15.390687920514562 4
      vertex 12.091010727596395 15.642433564868238 4
    endloop
  endfacet
  facet normal 0 0 1
    outer loop
      vertex 0 24.9 4
      vertex 12.091010727596395 15.642433564868238 4
      vertex 12.904069188470267 15.693586867391883 4
    endloop
  endfacet
  facet normal 0 0 1
    outer loop
      vertex 0 24.9 4
      vertex 12.904069188470267 15.693586867391883 4
      vertex 13.704305231718578 15.540933677959249 4
    endloop
  endfacet
  facet normal 0 0 1
    outer loop
      vertex 0 24.9 4
      vertex 13.704305231718578 15.540933677959249 4
      vertex 50.8 0 4
    endloop
  endfacet
  facet normal 0 0 1
    outer loop
      vertex 0 24.9 4
      vertex 36.02837203331676 9.945831960978683 4
      vertex 35.47069476828142 10.539697930049462 4
    endloop
  endfacet
  facet normal 0 0 1
    outer loop
      vertex 0 24.9 4
      vertex 35.47069476828142 10.539697930049462 4
      vertex 35.078226420863174 11.253595203774797 4
    endloop
  endfacet
  facet normal 0 0 1
    outer loop
      vertex 0 24.9 4
      vertex 35.078226420863174 11.253595203774797 4
      vertex 34.87562722072794 12.042666990916011 4
    endloop
  endfacet
  facet normal 0 0 1
    outer loop
      vertex 0 24.9 4
      vertex 34.87562722072794 12.042666990916011 4
      vertex 34.87562722072794 12.857333009083987 4
    endloop
  endfacet
  facet normal 0 0 1
    outer loop
      vertex 0 24.9 4
      vertex 34.87562722072794 12.857333009083987 4
      vertex 35.078226420863174 13.646404796225202 4
    endloop
  endfacet
  facet normal 0 0 1
    outer loop
      vertex 0 24.9 4
      vertex 35.078226420863174 13.646404796225202 4
      vertex 35.47069476828142 14.360302069950537 4
    endloop
  endfacet
  facet normal 0 0 1
    outer loop
      vertex 0 24.9 4
      vertex 35.47069476828142 14.360302069950537 4
      vertex 36.02837203331676 14.954168039021315 4
    endloop
  endfacet
  facet normal 0 0 1
    outer loop
      vertex 0 24.9 4
      vertex 36.02837203331676 14.954168039021315 4
      vertex 36.71621730241351 15.390687920514562 4
    endloop
  endfacet
  facet normal 0 0 1
    outer loop
      vertex 0 24.9 4
      vertex 36.71621730241351 15.390687920514562 4
      vertex 37.49101072759639 15.642433564868238 4
    endloop
  endfacet
  facet normal 0 0 1
    outer loop
      vertex 0 24.9 4
      vertex 37.49101072759639 15.642433564868238 4
      vertex 38.304069188470265 15.693586867391883 4
    endloop
  endfacet
  facet normal 0 0 -1
    outer loop
      vertex 0 0 0
      vertex 36.02837203331676 9.945831960978683 0
      vertex 50.8 0 0
    endloop
  endfacet
  facet normal 0 -1 0
    outer loop
      vertex 0 0 0
      vertex 50.8 0 0
      vertex 50.8 0 4
    endloop
  endfacet
  facet normal 0 0 -1
    outer loop
      vertex 50.8 0 0
      vertex 37.49101072759639 9.25756643513176 0
      vertex 38.304069188470265 9.206413132608116 0
    endloop
  endfacet
  facet normal 0 0 -1
    outer loop
      vertex 50.8 0 0
      vertex 38.304069188470265 9.206413132608116 0
      vertex 39.10430523171857 9.35906632204075 0
    endloop
  endfacet
  facet normal 0 0 -1
    outer loop
      vertex 50.8 0 0
      vertex 36.02837203331676 9.945831960978683 0
      vertex 36.71621730241351 9.509312079485436 0
    endloop
  endfacet
  facet normal 0 0 -1
    outer loop
      vertex 50.8 0 0
      vertex 36.71621730241351 9.509312079485436 0
      vertex 37.49101072759639 9.25756643513176 0
    endloop
  endfacet
  facet normal 0 0 -1
    outer loop
      vertex 50.8 0 0
      vertex 39.10430523171857 9.35906632204075 0
      vertex 39.84143708368173 9.705934242118449 0
    endloop
  endfacet
  facet normal 0 0 -1
    outer loop
      vertex 50.8 0 0
      vertex 39.84143708368173 9.705934242118449 0
      vertex 40.46914803911958 10.225221905731761 0
    endloop
  endfacet
  facet normal 0 0 -1
    outer loop
      vertex 50.8 0 0
      vertex 40.46914803911958 10.225221905731761 0
      vertex 40.94799671014255 10.884300559169425 0
    endloop
  endfacet
  facet normal 0 0 -1
    outer loop
      vertex 50.8 0 0
      vertex 40.94799671014255 10.884300559169425 0
      vertex 41.24789527366804 11.641757866714222 0
    endloop
  endfacet
  facet normal 0 0 -1
    outer loop
      vertex 50.8 0 0
      vertex 41.24789527366804 11.641757866714222 0
      vertex 50.8 24.9 0
    endloop
  endfacet
  facet normal 1 0 0
    outer loop
      vertex 50.8 0 0
      vertex 50.8 24.9 0
      vertex 50.8 0 4
    endloop
  endfacet
  facet normal 0 0 1
    outer loop
      vertex 50.8 0 4
      vertex 15.069148039119588 10.225221905731761 4
      vertex 14.441437083681738 9.705934242118449 4
    endloop
  endfacet
  facet normal 0 0 1
    outer loop
      vertex 50.8 0 4
      vertex 15.547996710142556 10.884300559169425 4
      vertex 15.069148039119588 10.225221905731761 4
    endloop
  endfacet
  facet normal 0 0 1
    outer loop
      vertex 50.8 0 4
      vertex 15.847895273668051 11.641757866714222 4
      vertex 15.547996710142556 10.884300559169425 4
    endloop
  endfacet
  facet normal 0 0 1
    outer loop
      vertex 50.8 0 4
      vertex 15.95 12.45 4
      vertex 15.847895273668051 11.641757866714222 4
    endloop
  endfacet
  facet normal 0 0 1
    outer loop
      vertex 50.8 0 4
      vertex 15.847895273668051 13.258242133285778 4
      vertex 15.95 12.45 4
    endloop
  endfacet
  facet normal 0 0 1
    outer loop
      vertex 50.8 0 4
      vertex 15.547996710142556 14.015699440830574 4
      vertex 15.847895273668051 13.258242133285778 4
    endloop
  endfacet
  facet normal 0 0 1
    outer loop
      vertex 50.8 0 4
      vertex 14.441437083681738 15.194065757881548 4
      vertex 15.069148039119586 14.674778094268238 4
    endloop
  endfacet
  facet normal 0 0 1
    outer loop
      vertex 50.8 0 4
      vertex 13.704305231718578 15.540933677959249 4
      vertex 14.441437083681738 15.194065757881548 4
    endloop
  endfacet
  facet normal 0 0 1
    outer loop
      vertex 50.8 0 4
      vertex 15.069148039119586 14.674778094268238 4
      vertex 15.547996710142556 14.015699440830574 4
    endloop
  endfacet
  facet normal 0 0 1
    outer loop
      vertex 0 24.9 4
      vertex 50.8 0 4
      vertex 36.02837203331676 9.945831960978683 4
    endloop
  endfacet
  facet normal 0 0 1
    outer loop
      vertex 50.8 0 4
      vertex 38.304069188470265 9.206413132608116 4
      vertex 37.49101072759639 9.25756643513176 4
    endloop
  endfacet
  facet normal 0 0 1
    outer loop
      vertex 50.8 0 4
      vertex 39.10430523171857 9.35906632204075 4
      vertex 38.304069188470265 9.206413132608116 4
    endloop
  endfacet
  facet normal 0 0 1
    outer loop
      vertex 50.8 0 4
      vertex 36.71621730241351 9.509312079485436 4
      vertex 36.02837203331676 9.945831960978683 4
    endloop
  endfacet
  facet normal 0 0 1
    outer loop
      vertex 50.8 0 4
      vertex 37.49101072759639 9.25756643513176 4
      vertex 36.71621730241351 9.509312079485436 4
    endloop
  endfacet
  facet normal 0 0 1
    outer loop
      vertex 50.8 0 4
      vertex 39.84143708368173 9.705934242118449 4
      vertex 39.10430523171857 9.35906632204075 4
    endloop
  endfacet
  facet normal 0 0 1
    outer loop
      vertex 50.8 0 4
      vertex 40.46914803911958 10.225221905731761 4
      vertex 39.84143708368173 9.705934242118449 4
    endloop
  endfacet
  facet normal 0 0 1
    outer loop
      vertex 50.8 0 4
      vertex 40.94799671014255 10.884300559169425 4
      vertex 40.46914803911958 10.225221905731761 4
    endloop
  endfacet
  facet normal 0 0 1
    outer loop
      vertex 50.8 0 4
      vertex 41.24789527366804 11.641757866714222 4
      vertex 40.94799671014255 10.884300559169425 4
    endloop
  endfacet
  facet normal 0 0 1
    outer loop
      vertex 50.8 0 4
      vertex 41.349999999999994 12.45 4
      vertex 41.24789527366804 11.641757866714222 4
    endloop
  endfacet
  facet normal 0 0 1
    outer loop
      vertex 50.8 0 4
      vertex 50.8 24.9 4
      vertex 41.349999999999994 12.45 4
    endloop
  endfacet
  facet normal 0 0 -1
    outer loop
      vertex 50.8 24.9 0
      vertex 13.704305231718578 9.35906632204075 0
      vertex 14.441437083681738 9.705934242118449 0
    endloop
  endfacet
  facet normal 0 0 -1
    outer loop
      vertex 50.8 24.9 0
      vertex 14.441437083681738 9.705934242118449 0
      vertex 15.069148039119588 10.225221905731761 0
    endloop
  endfacet
  facet normal 0 0 -1
    outer loop
      vertex 50.8 24.9 0
      vertex 15.069148039119588 10.225221905731761 0
      vertex 15.547996710142556 10.884300559169425 0
    endloop
  endfacet
  facet normal 0 0 -1
    outer loop
      vertex 0 0 0
      vertex 50.8 24.9 0
      vertex 36.02837203331676 14.954168039021315 0
    endloop
  endfacet
  facet normal 0 0 -1
    outer loop
      vertex 50.8 24.9 0
      vertex 15.547996710142556 10.884300559169425 0
      vertex 15.847895273668051 11.641757866714222 0
    endloop
  endfacet
  facet normal 0 0 -1
    outer loop
      vertex 50.8 24.9 0
      vertex 15.847895273668051 11.641757866714222 0
      vertex 15.95 12.45 0
    endloop
  endfacet
  facet normal 0 0 -1
    outer loop
      vertex 50.8 24.9 0
      vertex 15.95 12.45 0
      vertex 15.847895273668051 13.258242133285778 0
    endloop
  endfacet
  facet normal 0 0 -1
    outer loop
      vertex 50.8 24.9 0
      vertex 15.069148039119586 14.674778094268238 0
      vertex 14.441437083681738 15.194065757881548 0
    endloop
  endfacet
  facet normal 0 0 -1
    outer loop
      vertex 50.8 24.9 0
      vertex 14.441437083681738 15.194065757881548 0
      vertex 13.704305231718578 15.540933677959249 0
    endloop
  endfacet
  facet normal 0 0 -1
    outer loop
      vertex 50.8 24.9 0
      vertex 15.847895273668051 13.258242133285778 0
      vertex 15.547996710142556 14.015699440830574 0
    endloop
  endfacet
  facet normal 0 0 -1
    outer loop
      vertex 50.8 24.9 0
      vertex 15.547996710142556 14.015699440830574 0
      vertex 15.069148039119586 14.674778094268238 0
    endloop
  endfacet
  facet normal 0 0 -1
    outer loop
      vertex 50.8 24.9 0
      vertex 13.704305231718578 15.540933677959249 0
      vertex 12.904069188470267 15.693586867391883 0
    endloop
  endfacet
  facet normal 0 0 -1
    outer loop
      vertex 50.8 24.9 0
      vertex 36.71621730241351 15.390687920514562 0
      vertex 36.02837203331676 14.954168039021315 0
    endloop
  endfacet
  facet normal 0 0 -1
    outer loop
      vertex 50.8 24.9 0
      vertex 37.49101072759639 15.642433564868238 0
      vertex 36.71621730241351 15.390687920514562 0
    endloop
  endfacet
  facet normal 0 0 -1
    outer loop
      vertex 50.8 24.9 0
      vertex 41.24789527366804 13.258242133285778 0
      vertex 40.94799671014255 14.015699440830574 0
    endloop
  endfacet
  facet normal 0 0 -1
    outer loop
      vertex 50.8 24.9 0
      vertex 40.94799671014255 14.015699440830574 0
      vertex 40.46914803911958 14.674778094268238 0
    endloop
  endfacet
  facet normal 0 0 -1
    outer loop
      vertex 50.8 24.9 0
      vertex 39.84143708368173 15.194065757881548 0
      vertex 39.10430523171857 15.540933677959249 0
    endloop
  endfacet
  facet normal 0 0 -1
    outer loop
      vertex 50.8 24.9 0
      vertex 40.46914803911958 14.674778094268238 0
      vertex 39.84143708368173 15.194065757881548 0
    endloop
  endfacet
  facet normal 0 0 -1
    outer loop
      vertex 50.8 24.9 0
      vertex 41.24789527366804 11.641757866714222 0
      vertex 41.349999999999994 12.45 0
    endloop
  endfacet
  facet normal 0 0 -1
    outer loop
      vertex 50.8 24.9 0
      vertex 41.349999999999994 12.45 0
      vertex 41.24789527366804 13.258242133285778 0
    endloop
  endfacet
  facet normal 0 0 -1
    outer loop
      vertex 50.8 24.9 0
      vertex 38.304069188470265 15.693586867391883 0
      vertex 37.49101072759639 15.642433564868238 0
    endloop
  endfacet
  facet normal 0 0 -1
    outer loop
      vertex 50.8 24.9 0
      vertex 39.10430523171857 15.540933677959249 0
      vertex 38.304069188470265 15.693586867391883 0
    endloop
  endfacet
  facet normal 0 1 0
    outer loop
      vertex 0 24.9 4
      vertex 50.8 24.9 4
      vertex 50.8 24.9 0
    endloop
  endfacet
  facet normal 0 0 1
    outer loop
      vertex 0 24.9 4
      vertex 38.304069188470265 15.693586867391883 4
      vertex 39.10430523171857 15.540933677959249 4
    endloop
  endfacet
  facet normal 0 0 1
    outer loop
      vertex 0 24.9 4
      vertex 39.10430523171857 15.540933677959249 4
      vertex 50.8 24.9 4
    endloop
  endfacet
  facet normal 1 0 0
    outer loop
      vertex 50.8 0 4
      vertex 50.8 24.9 0
      vertex 50.8 24.9 4
    endloop
  endfacet
  facet normal 0 0 1
    outer loop
      vertex 50.8 24.9 4
      vertex 40.94799671014255 14.015699440830574 4
      vertex 41.24789527366804 13.258242133285778 4
    endloop
  endfacet
  facet normal 0 0 1
    outer loop
      vertex 50.8 24.9 4
      vertex 40.46914803911958 14.674778094268238 4
      vertex 40.94799671014255 14.015699440830574 4
    endloop
  endfacet
  facet normal 0 0 1
    outer loop
      vertex 50.8 24.9 4
      vertex 39.10430523171857 15.540933677959249 4
      vertex 39.84143708368173 15.194065757881548 4
    endloop
  endfacet
  facet normal 0 0 1
    outer loop
      vertex 50.8 24.9 4
      vertex 39.84143708368173 15.194065757881548 4
      vertex 40.46914803911958 14.674778094268238 4
    endloop
  endfacet
  facet normal 0 0 1
    outer loop
      vertex 50.8 24.9 4
      vertex 41.24789527366804 13.258242133285778 4
      vertex 41.349999999999994 12.45 4
    endloop
  endfacet
endsolid OpenSCAD_Model
