999
DXF from OpenSCAD
  0
SECTION
  2
HEADER
  9
$ACADVER
  1
AC1006
  9
$INSBASE
 10
0.0
 20
0.0
 30
0.0
  9
$EXTMIN
 10
0
 20
0
  9
$EXTMAX
 10
113.774
 20
128.561
  9
$LINMIN
 10
0
 20
0
  9
$LINMAX
 10
113.774
 20
128.561
  0
ENDSEC
  0
SECTION
  2
TABLES
  0
TABLE
  2
LTYPE
 70
1
  0
LTYPE
  2
CONTINUOUS
 70
64
  3
Solid line
 72
65
 73
0
 40
0.000000
  0
ENDTAB
  0
TABLE
  2
LAYER
 70
6
  0
LAYER
  2
0
 70
64
 62
7
  6
CONTINUOUS
  0
ENDTAB
  0
TABLE
  2
STYLE
 70
0
  0
ENDTAB
  0
ENDSEC
  0
SECTION
  2
BLOCKS
  0
ENDSEC
  0
SECTION
  2
ENTITIES
  0
LWPOLYLINE
100
AcDbEntity
  8
0
100
AcDbPolyline
 90
35
 70
1
 10
107.394
 20
0
 10
107.98
 20
0.0577667
 10
108.544
 20
0.228842
 10
109.063
 20
0.506638
 10
109.518
 20
0.880456
 10
109.891
 20
1.3359
 10
113.274
 20
6.41127
 10
113.672
 20
7.28513
 10
113.774
 20
8.23993
 10
113.568
 20
9.17788
 10
113.077
 20
10.0029
 10
112.35
 20
10.6304
 10
57.6581
 20
44.2826
 10
30.1962
 20
91.8481
 10
24.567
 20
88.5981
 10
10.567
 20
112.847
 10
16.1962
 20
116.097
 10
9.86603
 20
127.061
 10
9.49738
 20
127.568
 10
9.0313
 20
127.988
 10
8.48816
 20
128.302
 10
7.89168
 20
128.495
 10
7.26795
 20
128.561
 10
3
 20
128.561
 10
2.07295
 20
128.414
 10
1.23664
 20
127.988
 10
0.572949
 20
127.324
 10
0.14683
 20
126.488
 10
0
 20
125.561
 10
0
 20
3
 10
0.14683
 20
2.07295
 10
0.572949
 20
1.23664
 10
1.23664
 20
0.572949
 10
2.07295
 20
0.14683
 10
3
 20
0
  0
ENDSEC
  0
EOF
