solid OpenSCAD_Model
  facet normal 0.15643446815250966 -0.9876883401022012 0
    outer loop
      vertex 112.92705098539591 0.1468304544687271 0
      vertex 112 0 4
      vertex 112 0 0
    endloop
  endfacet
  facet normal 0.15643446815250966 -0.9876883401022012 0
    outer loop
      vertex 112.92705098539591 0.1468304544687271 0
      vertex 112.92705098539591 0.1468304544687271 4
      vertex 112 0 4
    endloop
  endfacet
  facet normal 0.45399049706429795 -0.8910065255514753 0
    outer loop
      vertex 113.76335575431585 0.5729490146040916 0
      vertex 112.92705098539591 0.1468304544687271 4
      vertex 112.92705098539591 0.1468304544687271 0
    endloop
  endfacet
  facet normal 0.45399049706429795 -0.8910065255514753 0
    outer loop
      vertex 113.76335575431585 0.5729490146040916 0
      vertex 113.76335575431585 0.5729490146040916 4
      vertex 112.92705098539591 0.1468304544687271 4
    endloop
  endfacet
  facet normal 0.7071067811865475 -0.7071067811865475 0
    outer loop
      vertex 114.42705098539591 1.2366442456841469 0
      vertex 113.76335575431585 0.5729490146040916 4
      vertex 113.76335575431585 0.5729490146040916 0
    endloop
  endfacet
  facet normal 0.7071067811865475 -0.7071067811865475 0
    outer loop
      vertex 114.42705098539591 1.2366442456841469 0
      vertex 114.42705098539591 1.2366442456841469 4
      vertex 113.76335575431585 0.5729490146040916 4
    endloop
  endfacet
  facet normal 0.8910065255514753 -0.45399049706429795 0
    outer loop
      vertex 114.85316954553127 2.0729490146040916 0
      vertex 114.42705098539591 1.2366442456841469 4
      vertex 114.42705098539591 1.2366442456841469 0
    endloop
  endfacet
  facet normal 0.8910065255514753 -0.45399049706429795 0
    outer loop
      vertex 114.85316954553127 2.0729490146040916 0
      vertex 114.85316954553127 2.0729490146040916 4
      vertex 114.42705098539591 1.2366442456841469 4
    endloop
  endfacet
  facet normal 0.9876883401022012 -0.15643446815250966 0
    outer loop
      vertex 115 3 0
      vertex 114.85316954553127 2.0729490146040916 4
      vertex 114.85316954553127 2.0729490146040916 0
    endloop
  endfacet
  facet normal 0.9876883401022012 -0.15643446815250966 0
    outer loop
      vertex 115 3 0
      vertex 115 3 4
      vertex 114.85316954553127 2.0729490146040916 4
    endloop
  endfacet
  facet normal 1 0 0
    outer loop
      vertex 115 5.16651850938797 0
      vertex 115 3 4
      vertex 115 3 0
    endloop
  endfacet
  facet normal 1 0 0
    outer loop
      vertex 115 5.16651850938797 0
      vertex 115 5.16651850938797 4
      vertex 115 3 4
    endloop
  endfacet
  facet normal 0.9939871180067374 0.10949707410090934 0
    outer loop
      vertex 114.9280623421073 5.81955061852932 0
      vertex 115 5.16651850938797 4
      vertex 115 5.16651850938797 0
    endloop
  endfacet
  facet normal 0.9939871180067374 0.10949707410090934 0
    outer loop
      vertex 114.9280623421073 5.81955061852932 0
      vertex 114.9280623421073 5.81955061852932 4
      vertex 115 5.16651850938797 4
    endloop
  endfacet
  facet normal 0.946317044643197 0.32323992794480927 0
    outer loop
      vertex 114.71569937467575 6.44126433134079 0
      vertex 114.9280623421073 5.81955061852932 4
      vertex 114.9280623421073 5.81955061852932 0
    endloop
  endfacet
  facet normal 0.946317044643197 0.32323992794480927 0
    outer loop
      vertex 114.71569937467575 6.44126433134079 0
      vertex 114.71569937467575 6.44126433134079 4
      vertex 114.9280623421073 5.81955061852932 4
    endloop
  endfacet
  facet normal 0.8532630784868372 0.521480698483813 0
    outer loop
      vertex 114.37309569865465 7.001843214035034 0
      vertex 114.71569937467575 6.44126433134079 4
      vertex 114.71569937467575 6.44126433134079 0
    endloop
  endfacet
  facet normal 0.8532630784868372 0.521480698483813 0
    outer loop
      vertex 114.37309569865465 7.001843214035034 0
      vertex 114.37309569865465 7.001843214035034 4
      vertex 114.71569937467575 6.44126433134079 4
    endloop
  endfacet
  facet normal 0.7192879613285249 0.6947120473173433 0
    outer loop
      vertex 113.91668206453323 7.474402792751789 0
      vertex 114.37309569865465 7.001843214035034 4
      vertex 114.37309569865465 7.001843214035034 0
    endloop
  endfacet
  facet normal 0.7192879613285249 0.6947120473173433 0
    outer loop
      vertex 113.91668206453323 7.474402792751789 0
      vertex 113.91668206453323 7.474402792751789 4
      vertex 114.37309569865465 7.001843214035034 4
    endloop
  endfacet
  facet normal 0.5508168974142233 0.8346261112156563 0
    outer loop
      vertex 113.3683473393321 7.8362798392772675 0
      vertex 113.91668206453323 7.474402792751789 4
      vertex 113.91668206453323 7.474402792751789 0
    endloop
  endfacet
  facet normal 0.5508168974142233 0.8346261112156563 0
    outer loop
      vertex 113.3683473393321 7.8362798392772675 0
      vertex 113.3683473393321 7.8362798392772675 4
      vertex 113.91668206453323 7.474402792751789 4
    endloop
  endfacet
  facet normal 0.4561157789272452 0.8899204437552789 0
    outer loop
      vertex 59.649652898311615 35.36901529878378 0
      vertex 113.3683473393321 7.8362798392772675 4
      vertex 113.3683473393321 7.8362798392772675 0
    endloop
  endfacet
  facet normal 0.4561157789272452 0.8899204437552789 0
    outer loop
      vertex 59.649652898311615 35.36901529878378 0
      vertex 59.649652898311615 35.36901529878378 4
      vertex 113.3683473393321 7.8362798392772675 4
    endloop
  endfacet
  facet normal 0.866025403761658 0.5000000000394571 0
    outer loop
      vertex 27.04145187884569 91.84807620197535 0
      vertex 59.649652898311615 35.36901529878378 4
      vertex 59.649652898311615 35.36901529878378 0
    endloop
  endfacet
  facet normal 0.866025403761658 0.5000000000394571 0
    outer loop
      vertex 27.04145187884569 91.84807620197535 0
      vertex 27.04145187884569 91.84807620197535 4
      vertex 59.649652898311615 35.36901529878378 4
    endloop
  endfacet
  facet normal -0.4999999994185123 0.8660254041201606 0
    outer loop
      vertex 21.41228675842285 88.59807620942593 0
      vertex 27.04145187884569 91.84807620197535 4
      vertex 27.04145187884569 91.84807620197535 0
    endloop
  endfacet
  facet normal -0.4999999994185123 0.8660254041201606 0
    outer loop
      vertex 21.41228675842285 88.59807620942593 0
      vertex 21.41228675842285 88.59807620942593 4
      vertex 27.04145187884569 91.84807620197535 4
    endloop
  endfacet
  facet normal 0.8660254038233919 0.49999999993253086 0
    outer loop
      vertex 7.412286758422852 112.84678751975298 0
      vertex 21.41228675842285 88.59807620942593 4
      vertex 21.41228675842285 88.59807620942593 0
    endloop
  endfacet
  facet normal 0.8660254038233919 0.49999999993253086 0
    outer loop
      vertex 7.412286758422852 112.84678751975298 0
      vertex 7.412286758422852 112.84678751975298 4
      vertex 21.41228675842285 88.59807620942593 4
    endloop
  endfacet
  facet normal 0.4999999994185123 -0.8660254041201606 0
    outer loop
      vertex 13.041451878845692 116.0967875123024 0
      vertex 7.412286758422852 112.84678751975298 4
      vertex 7.412286758422852 112.84678751975298 0
    endloop
  endfacet
  facet normal 0.4999999994185123 -0.8660254041201606 0
    outer loop
      vertex 13.041451878845692 116.0967875123024 0
      vertex 13.041451878845692 116.0967875123024 4
      vertex 7.412286758422852 112.84678751975298 4
    endloop
  endfacet
  facet normal 0.8660254041047627 0.4999999994451823 0
    outer loop
      vertex 7.866025403141975 125.06088913232088 0
      vertex 13.041451878845692 116.0967875123024 4
      vertex 13.041451878845692 116.0967875123024 0
    endloop
  endfacet
  facet normal 0.8660254041047627 0.4999999994451823 0
    outer loop
      vertex 7.866025403141975 125.06088913232088 0
      vertex 7.866025403141975 125.06088913232088 4
      vertex 13.041451878845692 116.0967875123024 4
    endloop
  endfacet
  facet normal 0.8090169943140213 0.5877852523763307 0
    outer loop
      vertex 7.497383669018745 125.56828095018864 0
      vertex 7.866025403141975 125.06088913232088 4
      vertex 7.866025403141975 125.06088913232088 0
    endloop
  endfacet
  facet normal 0.8090169943140213 0.5877852523763307 0
    outer loop
      vertex 7.497383669018745 125.56828095018864 0
      vertex 7.497383669018745 125.56828095018864 4
      vertex 7.866025403141975 125.06088913232088 4
    endloop
  endfacet
  facet normal 0.6691306082876767 0.7431448237406784 0
    outer loop
      vertex 7.031304948031902 125.98794011771679 0
      vertex 7.497383669018745 125.56828095018864 4
      vertex 7.497383669018745 125.56828095018864 0
    endloop
  endfacet
  facet normal 0.6691306082876767 0.7431448237406784 0
    outer loop
      vertex 7.031304948031902 125.98794011771679 0
      vertex 7.031304948031902 125.98794011771679 4
      vertex 7.497383669018745 125.56828095018864 4
    endloop
  endfacet
  facet normal 0.49999999486335384 0.8660254067500828 0
    outer loop
      vertex 6.488159120082855 126.30152550339699 0
      vertex 7.031304948031902 125.98794011771679 4
      vertex 7.031304948031902 125.98794011771679 0
    endloop
  endfacet
  facet normal 0.49999999486335384 0.8660254067500828 0
    outer loop
      vertex 6.488159120082855 126.30152550339699 0
      vertex 6.488159120082855 126.30152550339699 4
      vertex 7.031304948031902 125.98794011771679 4
    endloop
  endfacet
  facet normal 0.309016998875429 0.9510565148328585 0
    outer loop
      vertex 5.891684263944626 126.49533193558455 0
      vertex 6.488159120082855 126.30152550339699 4
      vertex 6.488159120082855 126.30152550339699 0
    endloop
  endfacet
  facet normal 0.309016998875429 0.9510565148328585 0
    outer loop
      vertex 5.891684263944626 126.49533193558455 0
      vertex 5.891684263944626 126.49533193558455 4
      vertex 6.488159120082855 126.30152550339699 4
    endloop
  endfacet
  facet normal 0.10452846196119862 0.9945218955055872 0
    outer loop
      vertex 5.267949193716049 126.56088913232088 0
      vertex 5.891684263944626 126.49533193558455 4
      vertex 5.891684263944626 126.49533193558455 0
    endloop
  endfacet
  facet normal 0.10452846196119862 0.9945218955055872 0
    outer loop
      vertex 5.267949193716049 126.56088913232088 0
      vertex 5.267949193716049 126.56088913232088 4
      vertex 5.891684263944626 126.49533193558455 4
    endloop
  endfacet
  facet normal 0 1 0
    outer loop
      vertex 3 126.56088913232088 0
      vertex 5.267949193716049 126.56088913232088 4
      vertex 5.267949193716049 126.56088913232088 0
    endloop
  endfacet
  facet normal 0 1 0
    outer loop
      vertex 3 126.56088913232088 0
      vertex 3 126.56088913232088 4
      vertex 5.267949193716049 126.56088913232088 4
    endloop
  endfacet
  facet normal -0.15643446815250966 0.9876883401022012 0
    outer loop
      vertex 2.0729490146040916 126.41405867785215 0
      vertex 3 126.56088913232088 4
      vertex 3 126.56088913232088 0
    endloop
  endfacet
  facet normal -0.15643446815250966 0.9876883401022012 0
    outer loop
      vertex 2.0729490146040916 126.41405867785215 0
      vertex 2.0729490146040916 126.41405867785215 4
      vertex 3 126.56088913232088 4
    endloop
  endfacet
  facet normal -0.45399049706429795 0.8910065255514753 0
    outer loop
      vertex 1.2366442456841469 125.98794011771679 0
      vertex 2.0729490146040916 126.41405867785215 4
      vertex 2.0729490146040916 126.41405867785215 0
    endloop
  endfacet
  facet normal -0.45399049706429795 0.8910065255514753 0
    outer loop
      vertex 1.2366442456841469 125.98794011771679 0
      vertex 1.2366442456841469 125.98794011771679 4
      vertex 2.0729490146040916 126.41405867785215 4
    endloop
  endfacet
  facet normal -0.7071067811865475 0.7071067811865475 0
    outer loop
      vertex 0.5729490146040916 125.32424488663673 0
      vertex 1.2366442456841469 125.98794011771679 4
      vertex 1.2366442456841469 125.98794011771679 0
    endloop
  endfacet
  facet normal -0.7071067811865475 0.7071067811865475 0
    outer loop
      vertex 0.5729490146040916 125.32424488663673 0
      vertex 0.5729490146040916 125.32424488663673 4
      vertex 1.2366442456841469 125.98794011771679 4
    endloop
  endfacet
  facet normal -0.8910065255514753 0.45399049706429795 0
    outer loop
      vertex 0.1468304544687271 124.48794011771679 0
      vertex 0.5729490146040916 125.32424488663673 4
      vertex 0.5729490146040916 125.32424488663673 0
    endloop
  endfacet
  facet normal -0.8910065255514753 0.45399049706429795 0
    outer loop
      vertex 0.1468304544687271 124.48794011771679 0
      vertex 0.1468304544687271 124.48794011771679 4
      vertex 0.5729490146040916 125.32424488663673 4
    endloop
  endfacet
  facet normal -0.9876883401022012 0.15643446815250966 0
    outer loop
      vertex 0 123.56088913232088 0
      vertex 0.1468304544687271 124.48794011771679 4
      vertex 0.1468304544687271 124.48794011771679 0
    endloop
  endfacet
  facet normal -0.9876883401022012 0.15643446815250966 0
    outer loop
      vertex 0 123.56088913232088 0
      vertex 0 123.56088913232088 4
      vertex 0.1468304544687271 124.48794011771679 4
    endloop
  endfacet
  facet normal -1 0 0
    outer loop
      vertex 0 3 0
      vertex 0 123.56088913232088 4
      vertex 0 123.56088913232088 0
    endloop
  endfacet
  facet normal -1 0 0
    outer loop
      vertex 0 3 0
      vertex 0 3 4
      vertex 0 123.56088913232088 4
    endloop
  endfacet
  facet normal -0.9876883401022012 -0.15643446815250966 0
    outer loop
      vertex 0.1468304544687271 2.0729490146040916 0
      vertex 0 3 4
      vertex 0 3 0
    endloop
  endfacet
  facet normal -0.9876883401022012 -0.15643446815250966 0
    outer loop
      vertex 0.1468304544687271 2.0729490146040916 0
      vertex 0.1468304544687271 2.0729490146040916 4
      vertex 0 3 4
    endloop
  endfacet
  facet normal -0.8910065255514753 -0.45399049706429795 0
    outer loop
      vertex 0.5729490146040916 1.2366442456841469 0
      vertex 0.1468304544687271 2.0729490146040916 4
      vertex 0.1468304544687271 2.0729490146040916 0
    endloop
  endfacet
  facet normal -0.8910065255514753 -0.45399049706429795 0
    outer loop
      vertex 0.5729490146040916 1.2366442456841469 0
      vertex 0.5729490146040916 1.2366442456841469 4
      vertex 0.1468304544687271 2.0729490146040916 4
    endloop
  endfacet
  facet normal -0.7071067811865475 -0.7071067811865475 0
    outer loop
      vertex 1.2366442456841469 0.5729490146040916 0
      vertex 0.5729490146040916 1.2366442456841469 4
      vertex 0.5729490146040916 1.2366442456841469 0
    endloop
  endfacet
  facet normal -0.7071067811865475 -0.7071067811865475 0
    outer loop
      vertex 1.2366442456841469 0.5729490146040916 0
      vertex 1.2366442456841469 0.5729490146040916 4
      vertex 0.5729490146040916 1.2366442456841469 4
    endloop
  endfacet
  facet normal -0.45399049706429795 -0.8910065255514753 0
    outer loop
      vertex 2.0729490146040916 0.1468304544687271 0
      vertex 1.2366442456841469 0.5729490146040916 4
      vertex 1.2366442456841469 0.5729490146040916 0
    endloop
  endfacet
  facet normal -0.45399049706429795 -0.8910065255514753 0
    outer loop
      vertex 2.0729490146040916 0.1468304544687271 0
      vertex 2.0729490146040916 0.1468304544687271 4
      vertex 1.2366442456841469 0.5729490146040916 4
    endloop
  endfacet
  facet normal -0.15643446815250966 -0.9876883401022012 0
    outer loop
      vertex 3 0 0
      vertex 2.0729490146040916 0.1468304544687271 4
      vertex 2.0729490146040916 0.1468304544687271 0
    endloop
  endfacet
  facet normal -0.15643446815250966 -0.9876883401022012 0
    outer loop
      vertex 3 0 0
      vertex 3 0 4
      vertex 2.0729490146040916 0.1468304544687271 4
    endloop
  endfacet
  facet normal 0 -1 0
    outer loop
      vertex 112 0 0
      vertex 3 0 4
      vertex 3 0 0
    endloop
  endfacet
  facet normal 0 -1 0
    outer loop
      vertex 112 0 0
      vertex 112 0 4
      vertex 3 0 4
    endloop
  endfacet
  facet normal 0 0 -1
    outer loop
      vertex 7.866025403141975 125.06088913232088 0
      vertex 13.041451878845692 116.0967875123024 0
      vertex 7.412286758422852 112.84678751975298 0
    endloop
  endfacet
  facet normal 0 0 -1
    outer loop
      vertex 21.41228675842285 88.59807620942593 0
      vertex 27.04145187884569 91.84807620197535 0
      vertex 59.649652898311615 35.36901529878378 0
    endloop
  endfacet
  facet normal 0 0 -1
    outer loop
      vertex 7.497383669018745 125.56828095018864 0
      vertex 7.866025403141975 125.06088913232088 0
      vertex 7.412286758422852 112.84678751975298 0
    endloop
  endfacet
  facet normal 0 0 -1
    outer loop
      vertex 7.031304948031902 125.98794011771679 0
      vertex 7.497383669018745 125.56828095018864 0
      vertex 7.412286758422852 112.84678751975298 0
    endloop
  endfacet
  facet normal 0 0 -1
    outer loop
      vertex 6.488159120082855 126.30152550339699 0
      vertex 7.031304948031902 125.98794011771679 0
      vertex 7.412286758422852 112.84678751975298 0
    endloop
  endfacet
  facet normal 0 0 -1
    outer loop
      vertex 5.891684263944626 126.49533193558455 0
      vertex 6.488159120082855 126.30152550339699 0
      vertex 7.412286758422852 112.84678751975298 0
    endloop
  endfacet
  facet normal 0 0 -1
    outer loop
      vertex 5.267949193716049 126.56088913232088 0
      vertex 5.891684263944626 126.49533193558455 0
      vertex 7.412286758422852 112.84678751975298 0
    endloop
  endfacet
  facet normal 0 0 -1
    outer loop
      vertex 3 126.56088913232088 0
      vertex 5.267949193716049 126.56088913232088 0
      vertex 7.412286758422852 112.84678751975298 0
    endloop
  endfacet
  facet normal 0 0 -1
    outer loop
      vertex 2.0729490146040916 126.41405867785215 0
      vertex 3 126.56088913232088 0
      vertex 7.412286758422852 112.84678751975298 0
    endloop
  endfacet
  facet normal 0 0 -1
    outer loop
      vertex 1.2366442456841469 125.98794011771679 0
      vertex 2.0729490146040916 126.41405867785215 0
      vertex 7.412286758422852 112.84678751975298 0
    endloop
  endfacet
  facet normal 0 0 -1
    outer loop
      vertex 0.5729490146040916 125.32424488663673 0
      vertex 1.2366442456841469 125.98794011771679 0
      vertex 7.412286758422852 112.84678751975298 0
    endloop
  endfacet
  facet normal 0 0 -1
    outer loop
      vertex 0.1468304544687271 124.48794011771679 0
      vertex 0.5729490146040916 125.32424488663673 0
      vertex 7.412286758422852 112.84678751975298 0
    endloop
  endfacet
  facet normal 0 0 -1
    outer loop
      vertex 0 123.56088913232088 0
      vertex 0.1468304544687271 124.48794011771679 0
      vertex 7.412286758422852 112.84678751975298 0
    endloop
  endfacet
  facet normal 0 0 -1
    outer loop
      vertex 0 3 0
      vertex 0 123.56088913232088 0
      vertex 7.412286758422852 112.84678751975298 0
    endloop
  endfacet
  facet normal 0 0 -1
    outer loop
      vertex 0 3 0
      vertex 7.412286758422852 112.84678751975298 0
      vertex 21.41228675842285 88.59807620942593 0
    endloop
  endfacet
  facet normal 0 0 -1
    outer loop
      vertex 0 3 0
      vertex 21.41228675842285 88.59807620942593 0
      vertex 59.649652898311615 35.36901529878378 0
    endloop
  endfacet
  facet normal 0 0 -1
    outer loop
      vertex 0.1468304544687271 2.0729490146040916 0
      vertex 0 3 0
      vertex 59.649652898311615 35.36901529878378 0
    endloop
  endfacet
  facet normal 0 0 -1
    outer loop
      vertex 0.5729490146040916 1.2366442456841469 0
      vertex 0.1468304544687271 2.0729490146040916 0
      vertex 59.649652898311615 35.36901529878378 0
    endloop
  endfacet
  facet normal 0 0 -1
    outer loop
      vertex 1.2366442456841469 0.5729490146040916 0
      vertex 0.5729490146040916 1.2366442456841469 0
      vertex 59.649652898311615 35.36901529878378 0
    endloop
  endfacet
  facet normal 0 0 -1
    outer loop
      vertex 2.0729490146040916 0.1468304544687271 0
      vertex 1.2366442456841469 0.5729490146040916 0
      vertex 59.649652898311615 35.36901529878378 0
    endloop
  endfacet
  facet normal 0 0 -1
    outer loop
      vertex 3 0 0
      vertex 2.0729490146040916 0.1468304544687271 0
      vertex 59.649652898311615 35.36901529878378 0
    endloop
  endfacet
  facet normal 0 0 -1
    outer loop
      vertex 112 0 0
      vertex 3 0 0
      vertex 59.649652898311615 35.36901529878378 0
    endloop
  endfacet
  facet normal 0 0 -1
    outer loop
      vertex 112 0 0
      vertex 59.649652898311615 35.36901529878378 0
      vertex 113.3683473393321 7.8362798392772675 0
    endloop
  endfacet
  facet normal 0 0 -1
    outer loop
      vertex 112 0 0
      vertex 113.3683473393321 7.8362798392772675 0
      vertex 113.91668206453323 7.474402792751789 0
    endloop
  endfacet
  facet normal 0 0 -1
    outer loop
      vertex 112 0 0
      vertex 113.91668206453323 7.474402792751789 0
      vertex 114.37309569865465 7.001843214035034 0
    endloop
  endfacet
  facet normal 0 0 -1
    outer loop
      vertex 112 0 0
      vertex 114.37309569865465 7.001843214035034 0
      vertex 114.71569937467575 6.44126433134079 0
    endloop
  endfacet
  facet normal 0 0 -1
    outer loop
      vertex 112 0 0
      vertex 114.71569937467575 6.44126433134079 0
      vertex 114.9280623421073 5.81955061852932 0
    endloop
  endfacet
  facet normal 0 0 -1
    outer loop
      vertex 112 0 0
      vertex 114.9280623421073 5.81955061852932 0
      vertex 115 5.16651850938797 0
    endloop
  endfacet
  facet normal 0 0 -1
    outer loop
      vertex 112 0 0
      vertex 115 5.16651850938797 0
      vertex 115 3 0
    endloop
  endfacet
  facet normal 0 0 -1
    outer loop
      vertex 112 0 0
      vertex 115 3 0
      vertex 114.85316954553127 2.0729490146040916 0
    endloop
  endfacet
  facet normal 0 0 -1
    outer loop
      vertex 112.92705098539591 0.1468304544687271 0
      vertex 112 0 0
      vertex 114.85316954553127 2.0729490146040916 0
    endloop
  endfacet
  facet normal 0 0 -1
    outer loop
      vertex 114.42705098539591 1.2366442456841469 0
      vertex 113.76335575431585 0.5729490146040916 0
      vertex 112.92705098539591 0.1468304544687271 0
    endloop
  endfacet
  facet normal 0 0 -1
    outer loop
      vertex 114.42705098539591 1.2366442456841469 0
      vertex 112.92705098539591 0.1468304544687271 0
      vertex 114.85316954553127 2.0729490146040916 0
    endloop
  endfacet
  facet normal 0 0 1
    outer loop
      vertex 7.412286758422852 112.84678751975298 4
      vertex 13.041451878845692 116.0967875123024 4
      vertex 7.866025403141975 125.06088913232088 4
    endloop
  endfacet
  facet normal 0 0 1
    outer loop
      vertex 59.649652898311615 35.36901529878378 4
      vertex 27.04145187884569 91.84807620197535 4
      vertex 21.41228675842285 88.59807620942593 4
    endloop
  endfacet
  facet normal 0 0 1
    outer loop
      vertex 7.412286758422852 112.84678751975298 4
      vertex 7.866025403141975 125.06088913232088 4
      vertex 7.497383669018745 125.56828095018864 4
    endloop
  endfacet
  facet normal 0 0 1
    outer loop
      vertex 7.412286758422852 112.84678751975298 4
      vertex 7.497383669018745 125.56828095018864 4
      vertex 7.031304948031902 125.98794011771679 4
    endloop
  endfacet
  facet normal 0 0 1
    outer loop
      vertex 7.412286758422852 112.84678751975298 4
      vertex 7.031304948031902 125.98794011771679 4
      vertex 6.488159120082855 126.30152550339699 4
    endloop
  endfacet
  facet normal 0 0 1
    outer loop
      vertex 7.412286758422852 112.84678751975298 4
      vertex 6.488159120082855 126.30152550339699 4
      vertex 5.891684263944626 126.49533193558455 4
    endloop
  endfacet
  facet normal 0 0 1
    outer loop
      vertex 7.412286758422852 112.84678751975298 4
      vertex 5.891684263944626 126.49533193558455 4
      vertex 5.267949193716049 126.56088913232088 4
    endloop
  endfacet
  facet normal 0 0 1
    outer loop
      vertex 7.412286758422852 112.84678751975298 4
      vertex 5.267949193716049 126.56088913232088 4
      vertex 3 126.56088913232088 4
    endloop
  endfacet
  facet normal 0 0 1
    outer loop
      vertex 7.412286758422852 112.84678751975298 4
      vertex 3 126.56088913232088 4
      vertex 2.0729490146040916 126.41405867785215 4
    endloop
  endfacet
  facet normal 0 0 1
    outer loop
      vertex 7.412286758422852 112.84678751975298 4
      vertex 2.0729490146040916 126.41405867785215 4
      vertex 1.2366442456841469 125.98794011771679 4
    endloop
  endfacet
  facet normal 0 0 1
    outer loop
      vertex 7.412286758422852 112.84678751975298 4
      vertex 1.2366442456841469 125.98794011771679 4
      vertex 0.5729490146040916 125.32424488663673 4
    endloop
  endfacet
  facet normal 0 0 1
    outer loop
      vertex 7.412286758422852 112.84678751975298 4
      vertex 0.5729490146040916 125.32424488663673 4
      vertex 0.1468304544687271 124.48794011771679 4
    endloop
  endfacet
  facet normal 0 0 1
    outer loop
      vertex 7.412286758422852 112.84678751975298 4
      vertex 0.1468304544687271 124.48794011771679 4
      vertex 0 123.56088913232088 4
    endloop
  endfacet
  facet normal 0 0 1
    outer loop
      vertex 7.412286758422852 112.84678751975298 4
      vertex 0 123.56088913232088 4
      vertex 0 3 4
    endloop
  endfacet
  facet normal 0 0 1
    outer loop
      vertex 21.41228675842285 88.59807620942593 4
      vertex 7.412286758422852 112.84678751975298 4
      vertex 0 3 4
    endloop
  endfacet
  facet normal 0 0 1
    outer loop
      vertex 59.649652898311615 35.36901529878378 4
      vertex 21.41228675842285 88.59807620942593 4
      vertex 0 3 4
    endloop
  endfacet
  facet normal 0 0 1
    outer loop
      vertex 59.649652898311615 35.36901529878378 4
      vertex 0 3 4
      vertex 0.1468304544687271 2.0729490146040916 4
    endloop
  endfacet
  facet normal 0 0 1
    outer loop
      vertex 59.649652898311615 35.36901529878378 4
      vertex 0.1468304544687271 2.0729490146040916 4
      vertex 0.5729490146040916 1.2366442456841469 4
    endloop
  endfacet
  facet normal 0 0 1
    outer loop
      vertex 59.649652898311615 35.36901529878378 4
      vertex 0.5729490146040916 1.2366442456841469 4
      vertex 1.2366442456841469 0.5729490146040916 4
    endloop
  endfacet
  facet normal 0 0 1
    outer loop
      vertex 59.649652898311615 35.36901529878378 4
      vertex 1.2366442456841469 0.5729490146040916 4
      vertex 2.0729490146040916 0.1468304544687271 4
    endloop
  endfacet
  facet normal 0 0 1
    outer loop
      vertex 59.649652898311615 35.36901529878378 4
      vertex 2.0729490146040916 0.1468304544687271 4
      vertex 3 0 4
    endloop
  endfacet
  facet normal 0 0 1
    outer loop
      vertex 59.649652898311615 35.36901529878378 4
      vertex 3 0 4
      vertex 112 0 4
    endloop
  endfacet
  facet normal 0 0 1
    outer loop
      vertex 113.3683473393321 7.8362798392772675 4
      vertex 59.649652898311615 35.36901529878378 4
      vertex 112 0 4
    endloop
  endfacet
  facet normal 0 0 1
    outer loop
      vertex 113.91668206453323 7.474402792751789 4
      vertex 113.3683473393321 7.8362798392772675 4
      vertex 112 0 4
    endloop
  endfacet
  facet normal 0 0 1
    outer loop
      vertex 114.37309569865465 7.001843214035034 4
      vertex 113.91668206453323 7.474402792751789 4
      vertex 112 0 4
    endloop
  endfacet
  facet normal 0 0 1
    outer loop
      vertex 114.71569937467575 6.44126433134079 4
      vertex 114.37309569865465 7.001843214035034 4
      vertex 112 0 4
    endloop
  endfacet
  facet normal 0 0 1
    outer loop
      vertex 114.9280623421073 5.81955061852932 4
      vertex 114.71569937467575 6.44126433134079 4
      vertex 112 0 4
    endloop
  endfacet
  facet normal 0 0 1
    outer loop
      vertex 115 5.16651850938797 4
      vertex 114.9280623421073 5.81955061852932 4
      vertex 112 0 4
    endloop
  endfacet
  facet normal 0 0 1
    outer loop
      vertex 115 3 4
      vertex 115 5.16651850938797 4
      vertex 112 0 4
    endloop
  endfacet
  facet normal 0 0 1
    outer loop
      vertex 114.85316954553127 2.0729490146040916 4
      vertex 115 3 4
      vertex 112 0 4
    endloop
  endfacet
  facet normal 0 0 1
    outer loop
      vertex 114.85316954553127 2.0729490146040916 4
      vertex 112 0 4
      vertex 112.92705098539591 0.1468304544687271 4
    endloop
  endfacet
  facet normal 0 0 1
    outer loop
      vertex 112.92705098539591 0.1468304544687271 4
      vertex 113.76335575431585 0.5729490146040916 4
      vertex 114.42705098539591 1.2366442456841469 4
    endloop
  endfacet
  facet normal 0 0 1
    outer loop
      vertex 114.85316954553127 2.0729490146040916 4
      vertex 112.92705098539591 0.1468304544687271 4
      vertex 114.42705098539591 1.2366442456841469 4
    endloop
  endfacet
endsolid OpenSCAD_Model
