<?xml version="1.0" standalone="no"?>
<!DOCTYPE svg PUBLIC "-//W3C//DTD SVG 1.1//EN" "http://www.w3.org/Graphics/SVG/1.1/DTD/svg11.dtd">
<svg width="115mm" height="130mm" viewBox="-1 -129 115 130" xmlns="http://www.w3.org/2000/svg" version="1.1">
<title>OpenSCAD Model</title>
<path d="
M 107.394,-0 L 107.98,-0.0577667 L 108.544,-0.228842 L 109.063,-0.506638 L 109.518,-0.880456 L 109.891,-1.3359
 L 113.274,-6.41127 L 113.672,-7.28513 L 113.774,-8.23993 L 113.568,-9.17788 L 113.077,-10.0029 L 112.35,-10.6304
 L 57.6581,-44.2826 L 30.1962,-91.8481 L 24.567,-88.5981 L 10.567,-112.847 L 16.1962,-116.097 L 9.86603,-127.061
 L 9.49738,-127.568 L 9.0313,-127.988 L 8.48816,-128.302 L 7.89168,-128.495 L 7.26795,-128.561 L 3,-128.561
 L 2.07295,-128.414 L 1.23664,-127.988 L 0.572949,-127.324 L 0.14683,-126.488 L 0,-125.561 L 0,-3
 L 0.14683,-2.07295 L 0.572949,-1.23664 L 1.23664,-0.572949 L 2.07295,-0.14683 L 3,-0 z
" stroke="#000000" fill="none" stroke-width="0.35"/>
</svg>
