solid OpenSCAD_Model
  facet normal 1 0 0
    outer loop
      vertex 7.6499999999999995 -12.690133642141358 3.8619286348855404
      vertex 7.6499999999999995 -12.7 12.7
      vertex 7.6499999999999995 -12.7 3.860855057630055
    endloop
  endfacet
  facet normal 0 -1 0
    outer loop
      vertex 12.696854266637317 -7.6499999999999995 2.980286571977672
      vertex 12.7 -7.6499999999999995 2.9794436752635374
      vertex 12.7 -7.6499999999999995 12.7
    endloop
  endfacet
  facet normal 1 0 0
    outer loop
      vertex 7.6499999999999995 -12.690133642141358 3.8619286348855404
      vertex 7.6499999999999995 -12.690133642141358 12.7
      vertex 7.6499999999999995 -12.7 12.7
    endloop
  endfacet
  facet normal 0 -1 0
    outer loop
      vertex 12.696854266637317 -7.6499999999999995 2.980286571977672
      vertex 12.7 -7.6499999999999995 12.7
      vertex 12.696854266637317 -7.6499999999999995 12.7
    endloop
  endfacet
  facet normal 0.24868988716485604 -0.9685831611286309 0
    outer loop
      vertex 8.636906572928623 -12.611436253643443 3.6060510289156804
      vertex 9.245084971874736 -12.455282581475768 3.460081497578286
      vertex 9.245084971874736 -12.455282581475768 12.7
    endloop
  endfacet
  facet normal 0 -1 0
    outer loop
      vertex 7.6499999999999995 -12.690133642141358 3.8619286348855404
      vertex 8.013952597646568 -12.690133642141358 3.7644078302629365
      vertex 8.013952597646568 -12.690133642141358 12.7
    endloop
  endfacet
  facet normal 0.12533323356430504 -0.9921147013144778 0
    outer loop
      vertex 8.013952597646568 -12.690133642141358 3.7644078302629365
      vertex 8.636906572928623 -12.611436253643443 3.6060510289156804
      vertex 8.636906572928623 -12.611436253643443 12.7
    endloop
  endfacet
  facet normal 0.3681245526846774 -0.9297764858882517 0
    outer loop
      vertex 9.245084971874736 -12.455282581475768 3.460081497578286
      vertex 9.828896457825362 -12.224135262330098 3.3288012629579122
      vertex 9.828896457825362 -12.224135262330098 12.7
    endloop
  endfacet
  facet normal 0.4817536741017169 -0.8763066800438627 0
    outer loop
      vertex 9.828896457825362 -12.224135262330098 3.3288012629579122
      vertex 10.37913397489498 -11.921639627510075 3.2142806927775327
      vertex 10.37913397489498 -11.921639627510075 12.7
    endloop
  endfacet
  facet normal 0.587785252292472 -0.8090169943749483 0
    outer loop
      vertex 10.37913397489498 -11.921639627510075 3.2142806927775327
      vertex 10.88711994874345 -11.552566213878944 3.118325844840172
      vertex 10.88711994874345 -11.552566213878944 12.7
    endloop
  endfacet
  facet normal 0.6845471059286888 -0.7289686274214113 0
    outer loop
      vertex 10.88711994874345 -11.552566213878944 3.118325844840172
      vertex 11.344843137107057 -11.122735529643442 3.042449984418438
      vertex 11.344843137107057 -11.122735529643442 12.7
    endloop
  endfacet
  facet normal 0.7705132427757893 -0.6374239897486897 0
    outer loop
      vertex 11.344843137107057 -11.122735529643442 3.042449984418438
      vertex 11.745084971874736 -10.638926261462366 2.987849719157232
      vertex 11.745084971874736 -10.638926261462366 12.7
    endloop
  endfacet
  facet normal 0.8443279255020145 -0.5358267949789974 0
    outer loop
      vertex 11.745084971874736 -10.638926261462366 2.987849719157232
      vertex 12.081533400219318 -10.108768370508576 2.9553861278563405
      vertex 12.081533400219318 -10.108768370508576 12.7
    endloop
  endfacet
  facet normal 0.9048270524660198 -0.42577929156507216 0
    outer loop
      vertex 12.081533400219318 -10.108768370508576 2.9553861278563405
      vertex 12.348882429441256 -9.540622763423391 2.9455711807433818
      vertex 12.348882429441256 -9.540622763423391 12.7
    endloop
  endfacet
  facet normal 0.9510565162951549 -0.3090169943749432 0
    outer loop
      vertex 12.348882429441256 -9.540622763423391 2.9455711807433818
      vertex 12.384665777060059 -9.430492943551979 2.9479664978301505
      vertex 12.348882429441256 -9.540622763423391 12.7
    endloop
  endfacet
  facet normal 0.9510565162951535 -0.30901699437494745 0
    outer loop
      vertex 12.384665777060059 -9.430492943551979 2.9479664978301505
      vertex 12.542915805643155 -8.943449435824272 2.9372866497736867
      vertex 12.542915805643155 -8.943449435824272 12.7
    endloop
  endfacet
  facet normal 0.9822872507286885 -0.18738131458572557 0
    outer loop
      vertex 12.542915805643155 -8.943449435824272 2.9372866497736867
      vertex 12.660573506572389 -8.32666616782152 2.945933959994845
      vertex 12.660573506572389 -8.32666616782152 12.7
    endloop
  endfacet
  facet normal 0.9980267284282716 -0.06279051952931293 0
    outer loop
      vertex 12.660573506572389 -8.32666616782152 2.945933959994845
      vertex 12.7 -7.699999999999999 2.97618697244323
      vertex 12.660573506572389 -8.32666616782152 12.7
    endloop
  endfacet
  facet normal 0.9980267284282714 0.06279051952931453 0
    outer loop
      vertex 12.696854266637317 -7.6499999999999995 2.980286571977672
      vertex 12.696854266637317 -7.6499999999999995 12.7
      vertex 12.7 -7.699999999999999 2.97618697244323
    endloop
  endfacet
  facet normal 0 -1 0
    outer loop
      vertex 7.6499999999999995 -12.690133642141358 3.8619286348855404
      vertex 8.013952597646568 -12.690133642141358 12.7
      vertex 7.6499999999999995 -12.690133642141358 12.7
    endloop
  endfacet
  facet normal 0.36812455268467736 -0.9297764858882516 0
    outer loop
      vertex 9.245084971874736 -12.455282581475768 3.460081497578286
      vertex 9.828896457825362 -12.224135262330098 12.7
      vertex 9.245084971874736 -12.455282581475768 12.7
    endloop
  endfacet
  facet normal 0.12533323356430504 -0.9921147013144777 0
    outer loop
      vertex 8.013952597646568 -12.690133642141358 3.7644078302629365
      vertex 8.636906572928623 -12.611436253643443 12.7
      vertex 8.013952597646568 -12.690133642141358 12.7
    endloop
  endfacet
  facet normal 0.24868988716485604 -0.9685831611286307 0
    outer loop
      vertex 8.636906572928623 -12.611436253643443 3.6060510289156804
      vertex 9.245084971874736 -12.455282581475768 12.7
      vertex 8.636906572928623 -12.611436253643443 12.7
    endloop
  endfacet
  facet normal 0.48175367410171693 -0.8763066800438627 0
    outer loop
      vertex 9.828896457825362 -12.224135262330098 3.3288012629579122
      vertex 10.37913397489498 -11.921639627510075 12.7
      vertex 9.828896457825362 -12.224135262330098 12.7
    endloop
  endfacet
  facet normal 0.5877852522924719 -0.8090169943749483 0
    outer loop
      vertex 10.37913397489498 -11.921639627510075 3.2142806927775327
      vertex 10.88711994874345 -11.552566213878944 12.7
      vertex 10.37913397489498 -11.921639627510075 12.7
    endloop
  endfacet
  facet normal 0.684547105928689 -0.7289686274214114 0
    outer loop
      vertex 10.88711994874345 -11.552566213878944 3.118325844840172
      vertex 11.344843137107057 -11.122735529643442 12.7
      vertex 10.88711994874345 -11.552566213878944 12.7
    endloop
  endfacet
  facet normal 0.7705132427757891 -0.6374239897486897 0
    outer loop
      vertex 11.344843137107057 -11.122735529643442 3.042449984418438
      vertex 11.745084971874736 -10.638926261462366 12.7
      vertex 11.344843137107057 -11.122735529643442 12.7
    endloop
  endfacet
  facet normal 0.8443279255020145 -0.5358267949789973 0
    outer loop
      vertex 11.745084971874736 -10.638926261462366 2.987849719157232
      vertex 12.081533400219318 -10.108768370508576 12.7
      vertex 11.745084971874736 -10.638926261462366 12.7
    endloop
  endfacet
  facet normal 0.9048270524660198 -0.4257792915650722 0
    outer loop
      vertex 12.081533400219318 -10.108768370508576 2.9553861278563405
      vertex 12.348882429441256 -9.540622763423391 12.7
      vertex 12.081533400219318 -10.108768370508576 12.7
    endloop
  endfacet
  facet normal 0.9510565162951538 -0.3090169943749466 -4.2494454037621546e-17
    outer loop
      vertex 12.384665777060059 -9.430492943551979 2.9479664978301505
      vertex 12.542915805643155 -8.943449435824272 12.7
      vertex 12.348882429441256 -9.540622763423391 12.7
    endloop
  endfacet
  facet normal 0.9822872507286886 -0.1873813145857256 0
    outer loop
      vertex 12.542915805643155 -8.943449435824272 2.9372866497736867
      vertex 12.660573506572389 -8.32666616782152 12.7
      vertex 12.542915805643155 -8.943449435824272 12.7
    endloop
  endfacet
  facet normal 0.9980267284282716 -0.06279051952931293 0
    outer loop
      vertex 12.7 -7.699999999999999 12.7
      vertex 12.660573506572389 -8.32666616782152 12.7
      vertex 12.7 -7.699999999999999 2.97618697244323
    endloop
  endfacet
  facet normal 0.9980267284282714 0.06279051952931453 0
    outer loop
      vertex 12.7 -7.699999999999999 12.7
      vertex 12.7 -7.699999999999999 2.97618697244323
      vertex 12.696854266637317 -7.6499999999999995 12.7
    endloop
  endfacet
  facet normal 1 0 0
    outer loop
      vertex 7.6499999999999995 12.690133642141358 3.8619286348855404
      vertex 7.6499999999999995 12.7 3.860855057630055
      vertex 7.6499999999999995 12.690133642141358 12.7
    endloop
  endfacet
  facet normal 0 1 0
    outer loop
      vertex 12.696854266637317 7.6499999999999995 2.980286571977672
      vertex 12.7 7.6499999999999995 12.7
      vertex 12.7 7.6499999999999995 2.9794436752635374
    endloop
  endfacet
  facet normal 1 0 0
    outer loop
      vertex 7.6499999999999995 12.7 12.7
      vertex 7.6499999999999995 12.690133642141358 12.7
      vertex 7.6499999999999995 12.7 3.860855057630055
    endloop
  endfacet
  facet normal 0 1 0
    outer loop
      vertex 12.696854266637317 7.6499999999999995 2.980286571977672
      vertex 12.696854266637317 7.6499999999999995 12.7
      vertex 12.7 7.6499999999999995 12.7
    endloop
  endfacet
  facet normal 0.24868988716485538 0.9685831611286311 0
    outer loop
      vertex 8.636906572928622 12.611436253643443 3.6060510289156804
      vertex 9.245084971874736 12.455282581475768 12.7
      vertex 9.245084971874736 12.455282581475768 3.460081497578286
    endloop
  endfacet
  facet normal 0 1 0
    outer loop
      vertex 7.6499999999999995 12.690133642141358 3.8619286348855404
      vertex 7.6499999999999995 12.690133642141358 12.7
      vertex 8.013952597646565 12.690133642141358 3.7644078302629365
    endloop
  endfacet
  facet normal 0.12533323356430467 0.9921147013144778 0
    outer loop
      vertex 8.013952597646565 12.690133642141358 3.7644078302629365
      vertex 8.636906572928622 12.611436253643443 12.7
      vertex 8.636906572928622 12.611436253643443 3.6060510289156804
    endloop
  endfacet
  facet normal 0.9980267284282714 -0.06279051952931453 0
    outer loop
      vertex 12.696854266637317 7.6499999999999995 2.980286571977672
      vertex 12.7 7.699999999999999 2.97618697244323
      vertex 12.7 7.699999999999999 12.7
    endloop
  endfacet
  facet normal 0.9980267284282717 0.06279051952931275 0
    outer loop
      vertex 12.660573506572389 8.326666167821521 2.945933959994845
      vertex 12.660573506572389 8.326666167821521 12.7
      vertex 12.7 7.699999999999999 2.97618697244323
    endloop
  endfacet
  facet normal 0.9510565162951532 0.3090169943749484 0
    outer loop
      vertex 12.542915805643155 8.943449435824274 2.9372866497736867
      vertex 12.384665777060059 9.430492943551979 2.9479664978301505
      vertex 12.542915805643155 8.943449435824274 12.7
    endloop
  endfacet
  facet normal 0.9822872507286885 0.1873813145857256 0
    outer loop
      vertex 12.660573506572389 8.326666167821521 2.945933959994845
      vertex 12.542915805643155 8.943449435824274 2.9372866497736867
      vertex 12.542915805643155 8.943449435824274 12.7
    endloop
  endfacet
  facet normal 0.9510565162951535 0.3090169943749478 0
    outer loop
      vertex 12.384665777060059 9.430492943551979 2.9479664978301505
      vertex 12.348882429441256 9.54062276342339 2.9455711807433818
      vertex 12.348882429441256 9.54062276342339 12.7
    endloop
  endfacet
  facet normal 0.3681245526846774 0.9297764858882517 0
    outer loop
      vertex 9.245084971874736 12.455282581475768 3.460081497578286
      vertex 9.828896457825362 12.224135262330098 12.7
      vertex 9.828896457825362 12.224135262330098 3.3288012629579122
    endloop
  endfacet
  facet normal 0.48175367410171566 0.8763066800438633 0
    outer loop
      vertex 9.828896457825362 12.224135262330098 3.3288012629579122
      vertex 10.379133974894982 11.921639627510075 12.7
      vertex 10.379133974894982 11.921639627510075 3.2142806927775327
    endloop
  endfacet
  facet normal 0.5877852522924728 0.8090169943749478 0
    outer loop
      vertex 10.379133974894982 11.921639627510075 3.2142806927775327
      vertex 10.887119948743448 11.552566213878945 12.7
      vertex 10.887119948743448 11.552566213878945 3.1183258448401716
    endloop
  endfacet
  facet normal 0.7705132427757893 0.6374239897486897 0
    outer loop
      vertex 11.344843137107057 11.122735529643442 3.042449984418438
      vertex 11.745084971874736 10.638926261462366 12.7
      vertex 11.745084971874736 10.638926261462366 2.987849719157232
    endloop
  endfacet
  facet normal 0.9048270524660202 0.42577929156507116 0
    outer loop
      vertex 12.348882429441256 9.54062276342339 2.9455711807433818
      vertex 12.081533400219318 10.108768370508576 2.9553861278563405
      vertex 12.081533400219318 10.108768370508576 12.7
    endloop
  endfacet
  facet normal 0.8443279255020145 0.5358267949789974 0
    outer loop
      vertex 12.081533400219318 10.108768370508576 2.9553861278563405
      vertex 11.745084971874736 10.638926261462366 2.987849719157232
      vertex 12.081533400219318 10.108768370508576 12.7
    endloop
  endfacet
  facet normal 0.684547105928689 0.7289686274214113 0
    outer loop
      vertex 11.344843137107057 11.122735529643442 3.042449984418438
      vertex 10.887119948743448 11.552566213878945 3.1183258448401716
      vertex 11.344843137107057 11.122735529643442 12.7
    endloop
  endfacet
  facet normal 0 1 0
    outer loop
      vertex 8.013952597646565 12.690133642141358 3.7644078302629365
      vertex 7.6499999999999995 12.690133642141358 12.7
      vertex 8.013952597646565 12.690133642141358 12.7
    endloop
  endfacet
  facet normal 0.36812455268467736 0.9297764858882516 0
    outer loop
      vertex 9.245084971874736 12.455282581475768 3.460081497578286
      vertex 9.245084971874736 12.455282581475768 12.7
      vertex 9.828896457825362 12.224135262330098 12.7
    endloop
  endfacet
  facet normal 0.12533323356430467 0.9921147013144778 0
    outer loop
      vertex 8.013952597646565 12.690133642141358 3.7644078302629365
      vertex 8.013952597646565 12.690133642141358 12.7
      vertex 8.636906572928622 12.611436253643443 12.7
    endloop
  endfacet
  facet normal 0.2486898871648554 0.9685831611286311 0
    outer loop
      vertex 8.636906572928622 12.611436253643443 3.6060510289156804
      vertex 8.636906572928622 12.611436253643443 12.7
      vertex 9.245084971874736 12.455282581475768 12.7
    endloop
  endfacet
  facet normal 0.9980267284282714 -0.06279051952931453 0
    outer loop
      vertex 12.696854266637317 7.6499999999999995 2.980286571977672
      vertex 12.7 7.699999999999999 12.7
      vertex 12.696854266637317 7.6499999999999995 12.7
    endloop
  endfacet
  facet normal 0.9980267284282717 0.06279051952931275 0
    outer loop
      vertex 12.7 7.699999999999999 12.7
      vertex 12.7 7.699999999999999 2.97618697244323
      vertex 12.660573506572389 8.326666167821521 12.7
    endloop
  endfacet
  facet normal 0.9822872507286885 0.1873813145857256 0
    outer loop
      vertex 12.660573506572389 8.326666167821521 2.945933959994845
      vertex 12.542915805643155 8.943449435824274 12.7
      vertex 12.660573506572389 8.326666167821521 12.7
    endloop
  endfacet
  facet normal 0.9510565162951533 0.30901699437494834 -6.799112646019484e-18
    outer loop
      vertex 12.384665777060059 9.430492943551979 2.9479664978301505
      vertex 12.348882429441256 9.54062276342339 12.7
      vertex 12.542915805643155 8.943449435824274 12.7
    endloop
  endfacet
  facet normal 0.4817536741017157 0.8763066800438634 0
    outer loop
      vertex 9.828896457825362 12.224135262330098 3.3288012629579122
      vertex 9.828896457825362 12.224135262330098 12.7
      vertex 10.379133974894982 11.921639627510075 12.7
    endloop
  endfacet
  facet normal 0.5877852522924727 0.8090169943749477 0
    outer loop
      vertex 10.379133974894982 11.921639627510075 3.2142806927775327
      vertex 10.379133974894982 11.921639627510075 12.7
      vertex 10.887119948743448 11.552566213878945 12.7
    endloop
  endfacet
  facet normal 0.684547105928689 0.7289686274214112 0
    outer loop
      vertex 10.887119948743448 11.552566213878945 3.1183258448401716
      vertex 10.887119948743448 11.552566213878945 12.7
      vertex 11.344843137107057 11.122735529643442 12.7
    endloop
  endfacet
  facet normal 0.7705132427757891 0.6374239897486897 0
    outer loop
      vertex 11.344843137107057 11.122735529643442 3.042449984418438
      vertex 11.344843137107057 11.122735529643442 12.7
      vertex 11.745084971874736 10.638926261462366 12.7
    endloop
  endfacet
  facet normal 0.8443279255020145 0.5358267949789973 0
    outer loop
      vertex 11.745084971874736 10.638926261462366 2.987849719157232
      vertex 11.745084971874736 10.638926261462366 12.7
      vertex 12.081533400219318 10.108768370508576 12.7
    endloop
  endfacet
  facet normal 0.9048270524660202 0.42577929156507116 0
    outer loop
      vertex 12.348882429441256 9.54062276342339 2.9455711807433818
      vertex 12.081533400219318 10.108768370508576 12.7
      vertex 12.348882429441256 9.54062276342339 12.7
    endloop
  endfacet
  facet normal -1 0 0
    outer loop
      vertex -12.7 -12.7 12.7
      vertex -12.7 -9.430492943551979 9.669382435198013
      vertex -12.7 -12.7 9.313621123603399
    endloop
  endfacet
  facet normal -1 0 0
    outer loop
      vertex -12.7 -12.7 12.7
      vertex -12.7 -4.7193861752808095 9.976235929177902
      vertex -12.7 -9.430492943551979 9.669382435198013
    endloop
  endfacet
  facet normal 0 0 1
    outer loop
      vertex -12.7 -12.7 12.7
      vertex -3.816179294638359 -3.499159080053629 12.7
      vertex -4.216763204636124 -2.8679398411367742 12.7
    endloop
  endfacet
  facet normal 0 0 1
    outer loop
      vertex -12.7 -12.7 12.7
      vertex -3.339641360118091 -4.075194489981723 12.7
      vertex -3.816179294638359 -3.499159080053629 12.7
    endloop
  endfacet
  facet normal -1 0 0
    outer loop
      vertex -12.7 -12.7 12.7
      vertex -12.7 12.7 12.7
      vertex -12.7 -4.7193861752808095 9.976235929177902
    endloop
  endfacet
  facet normal 0 0 1
    outer loop
      vertex -12.7 -12.7 12.7
      vertex -4.766096631093882 -1.4804819845282766 12.7
      vertex -12.7 12.7 12.7
    endloop
  endfacet
  facet normal 0 0 1
    outer loop
      vertex -12.7 -12.7 12.7
      vertex -4.216763204636124 -2.8679398411367742 12.7
      vertex -4.535075642553497 -2.191491477700973 12.7
    endloop
  endfacet
  facet normal 0 0 1
    outer loop
      vertex -12.7 -12.7 12.7
      vertex -4.535075642553497 -2.191491477700973 12.7
      vertex -4.766096631093882 -1.4804819845282766 12.7
    endloop
  endfacet
  facet normal 0 -1 0
    outer loop
      vertex -12.7 -12.7 12.7
      vertex -12.7 -12.7 9.313621123603399
      vertex 7.6499999999999995 -12.7 12.7
    endloop
  endfacet
  facet normal 0 0 1
    outer loop
      vertex -12.7 -12.7 12.7
      vertex -2.18984388885934 -5.026389681504183 12.7
      vertex -2.794664688972668 -4.586961648399621 12.7
    endloop
  endfacet
  facet normal 0 0 1
    outer loop
      vertex -12.7 -12.7 12.7
      vertex -2.794664688972668 -4.586961648399621 12.7
      vertex -3.339641360118091 -4.075194489981723 12.7
    endloop
  endfacet
  facet normal 0 0 1
    outer loop
      vertex -12.7 -12.7 12.7
      vertex -1.534717345098322 -5.386548546711773 12.7
      vertex -2.18984388885934 -5.026389681504183 12.7
    endloop
  endfacet
  facet normal 0 0 1
    outer loop
      vertex -12.7 -12.7 12.7
      vertex -0.8396167946383588 -5.661758323569586 12.7
      vertex -1.534717345098322 -5.386548546711773 12.7
    endloop
  endfacet
  facet normal 0 0 1
    outer loop
      vertex -12.7 -12.7 12.7
      vertex -0.11550438839314303 -5.847678789494225 12.7
      vertex -0.8396167946383588 -5.661758323569586 12.7
    endloop
  endfacet
  facet normal 0 0 1
    outer loop
      vertex -12.7 -12.7 12.7
      vertex 0.626200188427054 -5.941377867674555 12.7
      vertex -0.11550438839314303 -5.847678789494225 12.7
    endloop
  endfacet
  facet normal 0 0 1
    outer loop
      vertex -12.7 -12.7 12.7
      vertex 1.373799811572946 -5.941377867674555 12.7
      vertex 0.626200188427054 -5.941377867674555 12.7
    endloop
  endfacet
  facet normal 0 0 1
    outer loop
      vertex -12.7 -12.7 12.7
      vertex 7.6499999999999995 -12.690133642141358 12.7
      vertex 1.373799811572946 -5.941377867674555 12.7
    endloop
  endfacet
  facet normal -1 0 0
    outer loop
      vertex -12.7 12.7 12.7
      vertex -12.7 0 10.078580276091612
      vertex -12.7 -4.7193861752808095 9.976235929177902
    endloop
  endfacet
  facet normal -1 0 0
    outer loop
      vertex -12.7 12.7 12.7
      vertex -12.7 4.7193861752808095 9.976235929177902
      vertex -12.7 0 10.078580276091612
    endloop
  endfacet
  facet normal 0 0 1
    outer loop
      vertex -12.7 12.7 12.7
      vertex -4.766096631093882 -1.4804819845282766 12.7
      vertex -4.906182831262751 -0.7461244060624976 12.7
    endloop
  endfacet
  facet normal 0 0 1
    outer loop
      vertex -12.7 12.7 12.7
      vertex -4.906182831262751 -0.7461244060624976 12.7
      vertex -4.953125 0 12.7
    endloop
  endfacet
  facet normal 0 0 1
    outer loop
      vertex -12.7 12.7 12.7
      vertex -4.953125 0 12.7
      vertex -4.906182831262751 0.7461244060624976 12.7
    endloop
  endfacet
  facet normal 0 0 1
    outer loop
      vertex -12.7 12.7 12.7
      vertex -4.906182831262751 0.7461244060624976 12.7
      vertex -4.766096631093882 1.4804819845282766 12.7
    endloop
  endfacet
  facet normal 0 0 1
    outer loop
      vertex -12.7 12.7 12.7
      vertex -4.766096631093882 1.4804819845282766 12.7
      vertex -4.535075642553497 2.191491477700973 12.7
    endloop
  endfacet
  facet normal 0 0 1
    outer loop
      vertex -12.7 12.7 12.7
      vertex -4.535075642553497 2.191491477700973 12.7
      vertex -4.216763204636124 2.8679398411367742 12.7
    endloop
  endfacet
  facet normal -1 0 0
    outer loop
      vertex -12.7 12.7 12.7
      vertex -12.7 9.430492943551979 9.669382435198013
      vertex -12.7 4.7193861752808095 9.976235929177902
    endloop
  endfacet
  facet normal -1 0 0
    outer loop
      vertex -12.7 12.7 12.7
      vertex -12.7 12.7 9.313621123603399
      vertex -12.7 9.430492943551979 9.669382435198013
    endloop
  endfacet
  facet normal 0 0 1
    outer loop
      vertex -12.7 12.7 12.7
      vertex -4.216763204636124 2.8679398411367742 12.7
      vertex -3.816179294638359 3.499159080053629 12.7
    endloop
  endfacet
  facet normal 0 0 1
    outer loop
      vertex -12.7 12.7 12.7
      vertex -3.816179294638359 3.499159080053629 12.7
      vertex -3.339641360118091 4.075194489981723 12.7
    endloop
  endfacet
  facet normal 0 0 1
    outer loop
      vertex -12.7 12.7 12.7
      vertex -3.339641360118091 4.075194489981723 12.7
      vertex -2.794664688972668 4.586961648399621 12.7
    endloop
  endfacet
  facet normal 0 0 1
    outer loop
      vertex -12.7 12.7 12.7
      vertex -2.794664688972668 4.586961648399621 12.7
      vertex -2.18984388885934 5.026389681504183 12.7
    endloop
  endfacet
  facet normal 0 0 1
    outer loop
      vertex -12.7 12.7 12.7
      vertex -2.18984388885934 5.026389681504183 12.7
      vertex -1.5347173450983234 5.386548546711772 12.7
    endloop
  endfacet
  facet normal 0 0 1
    outer loop
      vertex -12.7 12.7 12.7
      vertex -1.5347173450983234 5.386548546711772 12.7
      vertex -0.8396167946383588 5.661758323569586 12.7
    endloop
  endfacet
  facet normal 0 0 1
    outer loop
      vertex -12.7 12.7 12.7
      vertex -0.8396167946383588 5.661758323569586 12.7
      vertex -0.1155043883931417 5.847678789494225 12.7
    endloop
  endfacet
  facet normal 0 0 1
    outer loop
      vertex -12.7 12.7 12.7
      vertex -0.1155043883931417 5.847678789494225 12.7
      vertex 0.6262001884270569 5.941377867674555 12.7
    endloop
  endfacet
  facet normal 0 0 1
    outer loop
      vertex -12.7 12.7 12.7
      vertex 0.6262001884270569 5.941377867674555 12.7
      vertex 1.373799811572943 5.941377867674555 12.7
    endloop
  endfacet
  facet normal 0 1 0
    outer loop
      vertex -12.7 12.7 12.7
      vertex 7.6499999999999995 12.7 12.7
      vertex -12.7 12.7 9.313621123603399
    endloop
  endfacet
  facet normal 0 0 1
    outer loop
      vertex -12.7 12.7 12.7
      vertex 1.373799811572943 5.941377867674555 12.7
      vertex 2.1155043883931417 5.847678789494225 12.7
    endloop
  endfacet
  facet normal 0 0 1
    outer loop
      vertex -12.7 12.7 12.7
      vertex 2.1155043883931417 5.847678789494225 12.7
      vertex 7.6499999999999995 12.690133642141358 12.7
    endloop
  endfacet
  facet normal 1 0 0
    outer loop
      vertex 12.7 -7.6499999999999995 12.7
      vertex 12.7 -7.6499999999999995 2.9794436752635374
      vertex 12.7 -6.223765295145768 3.0723401269778985
    endloop
  endfacet
  facet normal 1 0 0
    outer loop
      vertex 12.7 -7.6499999999999995 12.7
      vertex 12.7 -6.223765295145768 3.0723401269778985
      vertex 12.7 -4.7193861752808095 3.1703264414273815
    endloop
  endfacet
  facet normal 1 0 0
    outer loop
      vertex 12.7 -7.6499999999999995 12.7
      vertex 12.7 -4.7193861752808095 3.1703264414273815
      vertex 12.7 0 3.272670788341097
    endloop
  endfacet
  facet normal 0 -1 0
    outer loop
      vertex -12.7 -12.7 9.313621123603399
      vertex 7.6499999999999995 -12.7 3.860855057630055
      vertex 7.6499999999999995 -12.7 12.7
    endloop
  endfacet
  facet normal 0 0 1
    outer loop
      vertex -12.7 -12.7 12.7
      vertex 7.6499999999999995 -12.7 12.7
      vertex 7.6499999999999995 -12.690133642141358 12.7
    endloop
  endfacet
  facet normal 0 0 1
    outer loop
      vertex 7.6499999999999995 -12.690133642141358 12.7
      vertex 2.115504388393143 -5.847678789494225 12.7
      vertex 1.373799811572946 -5.941377867674555 12.7
    endloop
  endfacet
  facet normal 0 0 1
    outer loop
      vertex 7.6499999999999995 -12.690133642141358 12.7
      vertex 2.839616794638359 -5.661758323569586 12.7
      vertex 2.115504388393143 -5.847678789494225 12.7
    endloop
  endfacet
  facet normal 0 0 1
    outer loop
      vertex 7.6499999999999995 -12.690133642141358 12.7
      vertex 3.534717345098322 -5.386548546711773 12.7
      vertex 2.839616794638359 -5.661758323569586 12.7
    endloop
  endfacet
  facet normal 0 0 1
    outer loop
      vertex 7.6499999999999995 -12.690133642141358 12.7
      vertex 4.189843888859337 -5.026389681504185 12.7
      vertex 3.534717345098322 -5.386548546711773 12.7
    endloop
  endfacet
  facet normal 0 0 1
    outer loop
      vertex 4.189843888859337 -5.026389681504185 12.7
      vertex 7.6499999999999995 -12.690133642141358 12.7
      vertex 8.013952597646568 -12.690133642141358 12.7
    endloop
  endfacet
  facet normal 0 0 1
    outer loop
      vertex 4.189843888859337 -5.026389681504185 12.7
      vertex 8.013952597646568 -12.690133642141358 12.7
      vertex 8.636906572928623 -12.611436253643443 12.7
    endloop
  endfacet
  facet normal 0 0 1
    outer loop
      vertex 4.189843888859337 -5.026389681504185 12.7
      vertex 8.636906572928623 -12.611436253643443 12.7
      vertex 9.245084971874736 -12.455282581475768 12.7
    endloop
  endfacet
  facet normal 0 0 1
    outer loop
      vertex 4.189843888859337 -5.026389681504185 12.7
      vertex 9.245084971874736 -12.455282581475768 12.7
      vertex 9.828896457825362 -12.224135262330098 12.7
    endloop
  endfacet
  facet normal 0 0 1
    outer loop
      vertex 4.189843888859337 -5.026389681504185 12.7
      vertex 9.828896457825362 -12.224135262330098 12.7
      vertex 10.37913397489498 -11.921639627510075 12.7
    endloop
  endfacet
  facet normal 0 0 1
    outer loop
      vertex 11.344843137107057 -11.122735529643442 12.7
      vertex 4.79466468897267 -4.586961648399619 12.7
      vertex 4.189843888859337 -5.026389681504185 12.7
    endloop
  endfacet
  facet normal 0 0 1
    outer loop
      vertex 4.189843888859337 -5.026389681504185 12.7
      vertex 10.37913397489498 -11.921639627510075 12.7
      vertex 10.88711994874345 -11.552566213878944 12.7
    endloop
  endfacet
  facet normal 0 0 1
    outer loop
      vertex 4.189843888859337 -5.026389681504185 12.7
      vertex 10.88711994874345 -11.552566213878944 12.7
      vertex 11.344843137107057 -11.122735529643442 12.7
    endloop
  endfacet
  facet normal 0 0 1
    outer loop
      vertex 4.79466468897267 -4.586961648399619 12.7
      vertex 11.344843137107057 -11.122735529643442 12.7
      vertex 11.745084971874736 -10.638926261462366 12.7
    endloop
  endfacet
  facet normal 0 0 1
    outer loop
      vertex 4.79466468897267 -4.586961648399619 12.7
      vertex 11.745084971874736 -10.638926261462366 12.7
      vertex 12.081533400219318 -10.108768370508576 12.7
    endloop
  endfacet
  facet normal 0 0 1
    outer loop
      vertex 4.79466468897267 -4.586961648399619 12.7
      vertex 12.081533400219318 -10.108768370508576 12.7
      vertex 12.348882429441256 -9.540622763423391 12.7
    endloop
  endfacet
  facet normal 0 0 1
    outer loop
      vertex 4.79466468897267 -4.586961648399619 12.7
      vertex 12.348882429441256 -9.540622763423391 12.7
      vertex 12.542915805643155 -8.943449435824272 12.7
    endloop
  endfacet
  facet normal 0 0 1
    outer loop
      vertex 4.79466468897267 -4.586961648399619 12.7
      vertex 12.542915805643155 -8.943449435824272 12.7
      vertex 12.660573506572389 -8.32666616782152 12.7
    endloop
  endfacet
  facet normal 0 0 1
    outer loop
      vertex 12.7 -7.699999999999999 12.7
      vertex 4.79466468897267 -4.586961648399619 12.7
      vertex 12.660573506572389 -8.32666616782152 12.7
    endloop
  endfacet
  facet normal 0 0 1
    outer loop
      vertex 12.7 -7.699999999999999 12.7
      vertex 5.339641360118091 -4.075194489981723 12.7
      vertex 4.79466468897267 -4.586961648399619 12.7
    endloop
  endfacet
  facet normal 0 0 1
    outer loop
      vertex 12.7 -7.699999999999999 12.7
      vertex 5.816179294638359 -3.499159080053629 12.7
      vertex 5.339641360118091 -4.075194489981723 12.7
    endloop
  endfacet
  facet normal 0 0 1
    outer loop
      vertex 5.816179294638359 -3.499159080053629 12.7
      vertex 12.696854266637317 -7.6499999999999995 12.7
      vertex 6.216763204636124 -2.8679398411367742 12.7
    endloop
  endfacet
  facet normal 0 0 1
    outer loop
      vertex 6.216763204636124 -2.8679398411367742 12.7
      vertex 12.696854266637317 -7.6499999999999995 12.7
      vertex 6.535075642553496 -2.1914914777009757 12.7
    endloop
  endfacet
  facet normal 0 0 1
    outer loop
      vertex 6.535075642553496 -2.1914914777009757 12.7
      vertex 12.696854266637317 -7.6499999999999995 12.7
      vertex 6.766096631093882 -1.480481984528274 12.7
    endloop
  endfacet
  facet normal 0 0 1
    outer loop
      vertex 6.766096631093882 -1.480481984528274 12.7
      vertex 12.696854266637317 -7.6499999999999995 12.7
      vertex 6.906182831262751 -0.7461244060624976 12.7
    endloop
  endfacet
  facet normal 0 0 1
    outer loop
      vertex 12.7 -7.699999999999999 12.7
      vertex 12.696854266637317 -7.6499999999999995 12.7
      vertex 5.816179294638359 -3.499159080053629 12.7
    endloop
  endfacet
  facet normal 0 0 1
    outer loop
      vertex 6.906182831262751 -0.7461244060624976 12.7
      vertex 12.696854266637317 -7.6499999999999995 12.7
      vertex 12.696854266637317 7.6499999999999995 12.7
    endloop
  endfacet
  facet normal 0 0 1
    outer loop
      vertex 12.7 -7.6499999999999995 12.7
      vertex 12.7 7.6499999999999995 12.7
      vertex 12.696854266637317 -7.6499999999999995 12.7
    endloop
  endfacet
  facet normal 1 0 0
    outer loop
      vertex 12.7 7.6499999999999995 12.7
      vertex 12.7 0 3.272670788341097
      vertex 12.7 4.7193861752808095 3.1703264414273806
    endloop
  endfacet
  facet normal 1 0 0
    outer loop
      vertex 12.7 7.6499999999999995 12.7
      vertex 12.7 4.7193861752808095 3.1703264414273806
      vertex 12.7 7.6499999999999995 2.9794436752635374
    endloop
  endfacet
  facet normal 0 1 0
    outer loop
      vertex -12.7 12.7 9.313621123603399
      vertex 7.6499999999999995 12.7 12.7
      vertex 7.6499999999999995 12.7 3.860855057630055
    endloop
  endfacet
  facet normal 0 0 1
    outer loop
      vertex -12.7 12.7 12.7
      vertex 7.6499999999999995 12.690133642141358 12.7
      vertex 7.6499999999999995 12.7 12.7
    endloop
  endfacet
  facet normal 0 0 1
    outer loop
      vertex 3.5347173450983234 5.386548546711772 12.7
      vertex 7.6499999999999995 12.690133642141358 12.7
      vertex 2.839616794638359 5.661758323569586 12.7
    endloop
  endfacet
  facet normal 0 0 1
    outer loop
      vertex 2.839616794638359 5.661758323569586 12.7
      vertex 7.6499999999999995 12.690133642141358 12.7
      vertex 2.1155043883931417 5.847678789494225 12.7
    endloop
  endfacet
  facet normal 0 0 1
    outer loop
      vertex 4.18984388885934 5.026389681504184 12.7
      vertex 7.6499999999999995 12.690133642141358 12.7
      vertex 3.5347173450983234 5.386548546711772 12.7
    endloop
  endfacet
  facet normal 0 0 1
    outer loop
      vertex 4.794664688972668 4.58696164839962 12.7
      vertex 7.6499999999999995 12.690133642141358 12.7
      vertex 4.18984388885934 5.026389681504184 12.7
    endloop
  endfacet
  facet normal 1 0 0
    outer loop
      vertex 12.7 7.6499999999999995 12.7
      vertex 12.7 -7.6499999999999995 12.7
      vertex 12.7 0 3.272670788341097
    endloop
  endfacet
  facet normal 0 0 1
    outer loop
      vertex 6.906182831262751 -0.7461244060624976 12.7
      vertex 12.696854266637317 7.6499999999999995 12.7
      vertex 6.953125 0 12.7
    endloop
  endfacet
  facet normal 0 0 1
    outer loop
      vertex 6.953125 0 12.7
      vertex 12.696854266637317 7.6499999999999995 12.7
      vertex 6.906182831262751 0.7461244060624987 12.7
    endloop
  endfacet
  facet normal 0 0 1
    outer loop
      vertex 5.33964136011809 4.075194489981725 12.7
      vertex 12.696854266637317 7.6499999999999995 12.7
      vertex 4.794664688972668 4.58696164839962 12.7
    endloop
  endfacet
  facet normal 0 0 1
    outer loop
      vertex 6.766096631093882 1.4804819845282762 12.7
      vertex 12.696854266637317 7.6499999999999995 12.7
      vertex 6.535075642553497 2.1914914777009735 12.7
    endloop
  endfacet
  facet normal 0 0 1
    outer loop
      vertex 6.216763204636125 2.8679398411367742 12.7
      vertex 12.696854266637317 7.6499999999999995 12.7
      vertex 5.816179294638359 3.499159080053629 12.7
    endloop
  endfacet
  facet normal 0 0 1
    outer loop
      vertex 6.535075642553497 2.1914914777009735 12.7
      vertex 12.696854266637317 7.6499999999999995 12.7
      vertex 6.216763204636125 2.8679398411367742 12.7
    endloop
  endfacet
  facet normal 0 0 1
    outer loop
      vertex 6.906182831262751 0.7461244060624987 12.7
      vertex 12.696854266637317 7.6499999999999995 12.7
      vertex 6.766096631093882 1.4804819845282762 12.7
    endloop
  endfacet
  facet normal 0 0 1
    outer loop
      vertex 5.816179294638359 3.499159080053629 12.7
      vertex 12.696854266637317 7.6499999999999995 12.7
      vertex 5.33964136011809 4.075194489981725 12.7
    endloop
  endfacet
  facet normal 0 0 1
    outer loop
      vertex 12.7 7.6499999999999995 12.7
      vertex 12.696854266637317 7.6499999999999995 12.7
      vertex 12.696854266637317 -7.6499999999999995 12.7
    endloop
  endfacet
  facet normal 0 0 1
    outer loop
      vertex 4.794664688972668 4.58696164839962 12.7
      vertex 10.887119948743448 11.552566213878945 12.7
      vertex 10.379133974894982 11.921639627510075 12.7
    endloop
  endfacet
  facet normal 0 0 1
    outer loop
      vertex 4.794664688972668 4.58696164839962 12.7
      vertex 11.344843137107057 11.122735529643442 12.7
      vertex 10.887119948743448 11.552566213878945 12.7
    endloop
  endfacet
  facet normal 0 0 1
    outer loop
      vertex 4.794664688972668 4.58696164839962 12.7
      vertex 11.745084971874736 10.638926261462366 12.7
      vertex 11.344843137107057 11.122735529643442 12.7
    endloop
  endfacet
  facet normal 0 0 1
    outer loop
      vertex 4.794664688972668 4.58696164839962 12.7
      vertex 8.013952597646565 12.690133642141358 12.7
      vertex 7.6499999999999995 12.690133642141358 12.7
    endloop
  endfacet
  facet normal 0 0 1
    outer loop
      vertex 4.794664688972668 4.58696164839962 12.7
      vertex 8.636906572928622 12.611436253643443 12.7
      vertex 8.013952597646565 12.690133642141358 12.7
    endloop
  endfacet
  facet normal 0 0 1
    outer loop
      vertex 4.794664688972668 4.58696164839962 12.7
      vertex 9.245084971874736 12.455282581475768 12.7
      vertex 8.636906572928622 12.611436253643443 12.7
    endloop
  endfacet
  facet normal 0 0 1
    outer loop
      vertex 4.794664688972668 4.58696164839962 12.7
      vertex 9.828896457825362 12.224135262330098 12.7
      vertex 9.245084971874736 12.455282581475768 12.7
    endloop
  endfacet
  facet normal 0 0 1
    outer loop
      vertex 4.794664688972668 4.58696164839962 12.7
      vertex 10.379133974894982 11.921639627510075 12.7
      vertex 9.828896457825362 12.224135262330098 12.7
    endloop
  endfacet
  facet normal 0 0 1
    outer loop
      vertex 12.7 7.699999999999999 12.7
      vertex 4.794664688972668 4.58696164839962 12.7
      vertex 12.696854266637317 7.6499999999999995 12.7
    endloop
  endfacet
  facet normal 0 0 1
    outer loop
      vertex 12.7 7.699999999999999 12.7
      vertex 12.660573506572389 8.326666167821521 12.7
      vertex 4.794664688972668 4.58696164839962 12.7
    endloop
  endfacet
  facet normal 0 0 1
    outer loop
      vertex 4.794664688972668 4.58696164839962 12.7
      vertex 12.542915805643155 8.943449435824274 12.7
      vertex 12.348882429441256 9.54062276342339 12.7
    endloop
  endfacet
  facet normal 0 0 1
    outer loop
      vertex 4.794664688972668 4.58696164839962 12.7
      vertex 12.660573506572389 8.326666167821521 12.7
      vertex 12.542915805643155 8.943449435824274 12.7
    endloop
  endfacet
  facet normal 0 0 1
    outer loop
      vertex 4.794664688972668 4.58696164839962 12.7
      vertex 12.348882429441256 9.54062276342339 12.7
      vertex 12.081533400219318 10.108768370508576 12.7
    endloop
  endfacet
  facet normal 0 0 1
    outer loop
      vertex 4.794664688972668 4.58696164839962 12.7
      vertex 12.081533400219318 10.108768370508576 12.7
      vertex 11.745084971874736 10.638926261462366 12.7
    endloop
  endfacet
  facet normal 0.7705132427757888 0.6374239897486903 0
    outer loop
      vertex -3.339641360118091 -4.075194489981723 7.482105295923719
      vertex -3.816179294638359 -3.499159080053629 7.622285122600552
      vertex -3.816179294638359 -3.499159080053629 12.7
    endloop
  endfacet
  facet normal 0.9822872507286886 0.18738131458572488 0
    outer loop
      vertex -4.766096631093882 -1.4804819845282766 7.920591625340846
      vertex -4.906182831262751 -0.7461244060624976 7.974052847274338
      vertex -4.906182831262751 -0.7461244060624976 12.7
    endloop
  endfacet
  facet normal 0.9980267284282717 0.0627905195293128 0
    outer loop
      vertex -4.906182831262751 -0.7461244060624976 7.974052847274338
      vertex -4.953125 0 8.002811375976759
      vertex -4.953125 0 12.7
    endloop
  endfacet
  facet normal 0.9048270524660192 0.4257792915650733 0
    outer loop
      vertex -4.216763204636124 -2.8679398411367742 7.743309843200271
      vertex -4.535075642553497 -2.191491477700973 7.8432708255823576
      vertex -4.535075642553497 -2.191491477700973 12.7
    endloop
  endfacet
  facet normal 0.8443279255020156 0.5358267949789957 0
    outer loop
      vertex -4.216763204636124 -2.8679398411367742 7.743309843200271
      vertex -4.216763204636124 -2.8679398411367742 12.7
      vertex -3.816179294638359 -3.499159080053629 7.622285122600552
    endloop
  endfacet
  facet normal 0.9510565162951535 0.30901699437494784 0
    outer loop
      vertex -4.766096631093882 -1.4804819845282766 7.920591625340846
      vertex -4.766096631093882 -1.4804819845282766 12.7
      vertex -4.535075642553497 -2.191491477700973 7.8432708255823576
    endloop
  endfacet
  facet normal 0.5877852522924729 0.8090169943749475 0
    outer loop
      vertex -2.6123979643464508 -4.7193861752808095 7.273271110157984
      vertex -2.18984388885934 -5.026389681504183 12.7
      vertex -2.18984388885934 -5.026389681504183 7.140051703181499
    endloop
  endfacet
  facet normal 0.4817536741017155 0.8763066800438636 0
    outer loop
      vertex -1.534717345098322 -5.386548546711773 6.941052466998945
      vertex -2.18984388885934 -5.026389681504183 7.140051703181499
      vertex -1.534717345098322 -5.386548546711773 12.7
    endloop
  endfacet
  facet normal 0.36812455268467764 0.9297764858882513 0
    outer loop
      vertex -1.534717345098322 -5.386548546711773 6.941052466998945
      vertex -0.8396167946383588 -5.661758323569586 12.7
      vertex -0.8396167946383588 -5.661758323569586 6.736875306715393
    endloop
  endfacet
  facet normal 0.24868988716485518 0.968583161128631 0
    outer loop
      vertex -0.8396167946383588 -5.661758323569586 6.736875306715393
      vertex -0.11550438839314303 -5.847678789494225 12.7
      vertex -0.11550438839314303 -5.847678789494225 6.53074021811804
    endloop
  endfacet
  facet normal 0.6845471059286891 0.7289686274214112 0
    outer loop
      vertex -2.794664688972668 -4.586961648399621 7.324981082775834
      vertex -3.339641360118091 -4.075194489981723 7.482105295923719
      vertex -2.794664688972668 -4.586961648399621 12.7
    endloop
  endfacet
  facet normal 0.5877852522924734 0.8090169943749472 0
    outer loop
      vertex -2.794664688972668 -4.586961648399621 7.324981082775834
      vertex -2.794664688972668 -4.586961648399621 12.7
      vertex -2.6123979643464508 -4.7193861752808095 7.273271110157984
    endloop
  endfacet
  facet normal 0.8443279255020157 0.5358267949789957 0
    outer loop
      vertex -3.816179294638359 -3.499159080053629 7.622285122600552
      vertex -4.216763204636124 -2.8679398411367742 12.7
      vertex -3.816179294638359 -3.499159080053629 12.7
    endloop
  endfacet
  facet normal 0.7705132427757888 0.6374239897486902 0
    outer loop
      vertex -3.339641360118091 -4.075194489981723 7.482105295923719
      vertex -3.816179294638359 -3.499159080053629 12.7
      vertex -3.339641360118091 -4.075194489981723 12.7
    endloop
  endfacet
  facet normal 0.9822872507286886 0.18738131458572485 0
    outer loop
      vertex -4.766096631093882 -1.4804819845282766 7.920591625340846
      vertex -4.906182831262751 -0.7461244060624976 12.7
      vertex -4.766096631093882 -1.4804819845282766 12.7
    endloop
  endfacet
  facet normal 0.9980267284282716 0.06279051952931279 0
    outer loop
      vertex -4.906182831262751 -0.7461244060624976 7.974052847274338
      vertex -4.953125 0 12.7
      vertex -4.906182831262751 -0.7461244060624976 12.7
    endloop
  endfacet
  facet normal 0.9048270524660192 0.4257792915650733 0
    outer loop
      vertex -4.216763204636124 -2.8679398411367742 7.743309843200271
      vertex -4.535075642553497 -2.191491477700973 12.7
      vertex -4.216763204636124 -2.8679398411367742 12.7
    endloop
  endfacet
  facet normal 0.9510565162951534 0.30901699437494784 0
    outer loop
      vertex -4.535075642553497 -2.191491477700973 7.8432708255823576
      vertex -4.766096631093882 -1.4804819845282766 12.7
      vertex -4.535075642553497 -2.191491477700973 12.7
    endloop
  endfacet
  facet normal 0.4817536741017154 0.8763066800438634 0
    outer loop
      vertex -2.18984388885934 -5.026389681504183 7.140051703181499
      vertex -2.18984388885934 -5.026389681504183 12.7
      vertex -1.534717345098322 -5.386548546711773 12.7
    endloop
  endfacet
  facet normal 0.5877852522924731 0.8090169943749475 -1.026205406182229e-17
    outer loop
      vertex -2.6123979643464508 -4.7193861752808095 7.273271110157984
      vertex -2.794664688972668 -4.586961648399621 12.7
      vertex -2.18984388885934 -5.026389681504183 12.7
    endloop
  endfacet
  facet normal 0.6845471059286891 0.7289686274214111 0
    outer loop
      vertex -3.339641360118091 -4.075194489981723 7.482105295923719
      vertex -3.339641360118091 -4.075194489981723 12.7
      vertex -2.794664688972668 -4.586961648399621 12.7
    endloop
  endfacet
  facet normal 0.3681245526846777 0.9297764858882516 0
    outer loop
      vertex -1.534717345098322 -5.386548546711773 6.941052466998945
      vertex -1.534717345098322 -5.386548546711773 12.7
      vertex -0.8396167946383588 -5.661758323569586 12.7
    endloop
  endfacet
  facet normal 0.24868988716485518 0.9685831611286309 0
    outer loop
      vertex -0.8396167946383588 -5.661758323569586 6.736875306715393
      vertex -0.8396167946383588 -5.661758323569586 12.7
      vertex -0.11550438839314303 -5.847678789494225 12.7
    endloop
  endfacet
  facet normal 0.9980267284282716 -0.06279051952931279 0
    outer loop
      vertex -4.953125 0 8.002811375976759
      vertex -4.906182831262751 0.7461244060624976 7.974052847274338
      vertex -4.906182831262751 0.7461244060624976 12.7
    endloop
  endfacet
  facet normal 0.9822872507286886 -0.18738131458572485 0
    outer loop
      vertex -4.906182831262751 0.7461244060624976 7.974052847274338
      vertex -4.766096631093882 1.4804819845282766 7.920591625340846
      vertex -4.766096631093882 1.4804819845282766 12.7
    endloop
  endfacet
  facet normal 0.9510565162951534 -0.30901699437494784 0
    outer loop
      vertex -4.766096631093882 1.4804819845282766 7.920591625340846
      vertex -4.535075642553497 2.191491477700973 7.8432708255823576
      vertex -4.535075642553497 2.191491477700973 12.7
    endloop
  endfacet
  facet normal 0.9048270524660192 -0.4257792915650733 0
    outer loop
      vertex -4.535075642553497 2.191491477700973 7.8432708255823576
      vertex -4.216763204636124 2.8679398411367742 7.743309843200271
      vertex -4.216763204636124 2.8679398411367742 12.7
    endloop
  endfacet
  facet normal 0.7705132427757888 -0.6374239897486902 0
    outer loop
      vertex -3.816179294638359 3.499159080053629 7.622285122600552
      vertex -3.339641360118091 4.075194489981723 7.482105295923719
      vertex -3.339641360118091 4.075194489981723 12.7
    endloop
  endfacet
  facet normal 0.8443279255020157 -0.5358267949789958 0
    outer loop
      vertex -4.216763204636124 2.8679398411367742 7.743309843200271
      vertex -3.816179294638359 3.499159080053629 7.622285122600552
      vertex -3.816179294638359 3.499159080053629 12.7
    endloop
  endfacet
  facet normal 0.5877852522924729 -0.8090169943749475 0
    outer loop
      vertex -2.6123979643464508 4.7193861752808095 7.273271110157984
      vertex -2.18984388885934 5.026389681504183 7.140051703181499
      vertex -2.18984388885934 5.026389681504183 12.7
    endloop
  endfacet
  facet normal 0.4817536741017152 -0.8763066800438635 0
    outer loop
      vertex -2.18984388885934 5.026389681504183 7.140051703181499
      vertex -1.5347173450983234 5.386548546711772 6.941052466998945
      vertex -1.5347173450983234 5.386548546711772 12.7
    endloop
  endfacet
  facet normal 0.3681245526846782 -0.9297764858882513 0
    outer loop
      vertex -1.5347173450983234 5.386548546711772 6.941052466998945
      vertex -0.8396167946383588 5.661758323569586 6.736875306715393
      vertex -0.8396167946383588 5.661758323569586 12.7
    endloop
  endfacet
  facet normal 0.2486898871648548 -0.9685831611286312 0
    outer loop
      vertex -0.8396167946383588 5.661758323569586 6.736875306715393
      vertex -0.1155043883931417 5.847678789494225 6.53074021811804
      vertex -0.1155043883931417 5.847678789494225 12.7
    endloop
  endfacet
  facet normal 0.6845471059286892 -0.7289686274214112 0
    outer loop
      vertex -3.339641360118091 4.075194489981723 7.482105295923719
      vertex -2.794664688972668 4.586961648399621 7.324981082775834
      vertex -2.794664688972668 4.586961648399621 12.7
    endloop
  endfacet
  facet normal 0.5877852522924732 -0.8090169943749473 -3.33168670565071e-17
    outer loop
      vertex -2.794664688972668 4.586961648399621 7.324981082775834
      vertex -2.6123979643464508 4.7193861752808095 7.273271110157984
      vertex -2.18984388885934 5.026389681504183 12.7
    endloop
  endfacet
  facet normal 0.9980267284282717 -0.0627905195293128 0
    outer loop
      vertex -4.953125 0 8.002811375976759
      vertex -4.906182831262751 0.7461244060624976 12.7
      vertex -4.953125 0 12.7
    endloop
  endfacet
  facet normal 0.9822872507286886 -0.18738131458572488 0
    outer loop
      vertex -4.906182831262751 0.7461244060624976 7.974052847274338
      vertex -4.766096631093882 1.4804819845282766 12.7
      vertex -4.906182831262751 0.7461244060624976 12.7
    endloop
  endfacet
  facet normal 0.9510565162951535 -0.30901699437494784 0
    outer loop
      vertex -4.766096631093882 1.4804819845282766 7.920591625340846
      vertex -4.535075642553497 2.191491477700973 12.7
      vertex -4.766096631093882 1.4804819845282766 12.7
    endloop
  endfacet
  facet normal 0.9048270524660192 -0.4257792915650733 0
    outer loop
      vertex -4.535075642553497 2.191491477700973 7.8432708255823576
      vertex -4.216763204636124 2.8679398411367742 12.7
      vertex -4.535075642553497 2.191491477700973 12.7
    endloop
  endfacet
  facet normal 0.8443279255020156 -0.5358267949789957 0
    outer loop
      vertex -4.216763204636124 2.8679398411367742 7.743309843200271
      vertex -3.816179294638359 3.499159080053629 12.7
      vertex -4.216763204636124 2.8679398411367742 12.7
    endloop
  endfacet
  facet normal 0.7705132427757888 -0.6374239897486902 0
    outer loop
      vertex -3.816179294638359 3.499159080053629 7.622285122600552
      vertex -3.339641360118091 4.075194489981723 12.7
      vertex -3.816179294638359 3.499159080053629 12.7
    endloop
  endfacet
  facet normal 0.6845471059286891 -0.7289686274214111 0
    outer loop
      vertex -3.339641360118091 4.075194489981723 7.482105295923719
      vertex -2.794664688972668 4.586961648399621 12.7
      vertex -3.339641360118091 4.075194489981723 12.7
    endloop
  endfacet
  facet normal 0.5877852522924731 -0.8090169943749475 0
    outer loop
      vertex -2.794664688972668 4.586961648399621 7.324981082775834
      vertex -2.18984388885934 5.026389681504183 12.7
      vertex -2.794664688972668 4.586961648399621 12.7
    endloop
  endfacet
  facet normal 0.4817536741017154 -0.8763066800438637 0
    outer loop
      vertex -2.18984388885934 5.026389681504183 7.140051703181499
      vertex -1.5347173450983234 5.386548546711772 12.7
      vertex -2.18984388885934 5.026389681504183 12.7
    endloop
  endfacet
  facet normal 0.3681245526846781 -0.9297764858882512 0
    outer loop
      vertex -1.5347173450983234 5.386548546711772 6.941052466998945
      vertex -0.8396167946383588 5.661758323569586 12.7
      vertex -1.5347173450983234 5.386548546711772 12.7
    endloop
  endfacet
  facet normal 0.2486898871648548 -0.9685831611286312 0
    outer loop
      vertex -0.8396167946383588 5.661758323569586 6.736875306715393
      vertex -0.1155043883931417 5.847678789494225 12.7
      vertex -0.8396167946383588 5.661758323569586 12.7
    endloop
  endfacet
  facet normal -0.5877852522924729 0.8090169943749477 0
    outer loop
      vertex 4.61239796434645 -4.7193861752808095 5.337392875585055
      vertex 4.79466468897267 -4.586961648399619 12.7
      vertex 4.79466468897267 -4.586961648399619 5.291426404861581
    endloop
  endfacet
  facet normal -0.6845471059286894 0.7289686274214109 0
    outer loop
      vertex 4.79466468897267 -4.586961648399619 5.291426404861581
      vertex 5.339641360118091 -4.075194489981723 12.7
      vertex 5.339641360118091 -4.075194489981723 5.156498500155034
    endloop
  endfacet
  facet normal -0.7705132427757888 0.6374239897486902 0
    outer loop
      vertex 5.339641360118091 -4.075194489981723 5.156498500155034
      vertex 5.339641360118091 -4.075194489981723 12.7
      vertex 5.816179294638359 -3.499159080053629 5.041302417396867
    endloop
  endfacet
  facet normal -0.8443279255020157 0.5358267949789957 0
    outer loop
      vertex 5.816179294638359 -3.499159080053629 5.041302417396867
      vertex 5.816179294638359 -3.499159080053629 12.7
      vertex 6.216763204636124 -2.8679398411367742 4.947654867626982
    endloop
  endfacet
  facet normal -0.904827052466019 0.42577929156507377 0
    outer loop
      vertex 6.216763204636124 -2.8679398411367742 4.947654867626982
      vertex 6.216763204636124 -2.8679398411367742 12.7
      vertex 6.535075642553496 -2.1914914777009757 4.877032728647581
    endloop
  endfacet
  facet normal -0.9510565162951538 0.3090169943749468 0
    outer loop
      vertex 6.535075642553496 -2.1914914777009757 4.877032728647581
      vertex 6.535075642553496 -2.1914914777009757 12.7
      vertex 6.766096631093882 -1.480481984528274 4.830549753777998
    endloop
  endfacet
  facet normal -0.9822872507286884 0.18738131458572552 0
    outer loop
      vertex 6.766096631093882 -1.480481984528274 4.830549753777998
      vertex 6.766096631093882 -1.480481984528274 12.7
      vertex 6.906182831262751 -0.7461244060624976 4.808939007299506
    endloop
  endfacet
  facet normal -0.9980267284282716 0.0627905195293128 0
    outer loop
      vertex 6.906182831262751 -0.7461244060624976 4.808939007299506
      vertex 6.906182831262751 -0.7461244060624976 12.7
      vertex 6.953125 0 4.812541303593704
    endloop
  endfacet
  facet normal 0 1 0
    outer loop
      vertex 0.626200188427054 -5.941377867674555 6.325898074693202
      vertex 1.373799811572946 -5.941377867674555 12.7
      vertex 1.373799811572946 -5.941377867674555 6.125579359409445
    endloop
  endfacet
  facet normal 0.12533323356430498 0.9921147013144778 0
    outer loop
      vertex -0.11550438839314303 -5.847678789494225 6.53074021811804
      vertex 0.626200188427054 -5.941377867674555 12.7
      vertex 0.626200188427054 -5.941377867674555 6.325898074693202
    endloop
  endfacet
  facet normal -0.12533323356430495 0.9921147013144777 0
    outer loop
      vertex 1.373799811572946 -5.941377867674555 6.125579359409445
      vertex 2.115504388393143 -5.847678789494225 12.7
      vertex 2.115504388393143 -5.847678789494225 5.932943218071405
    endloop
  endfacet
  facet normal -0.24868988716485513 0.968583161128631 0
    outer loop
      vertex 2.115504388393143 -5.847678789494225 5.932943218071405
      vertex 2.839616794638359 -5.661758323569586 12.7
      vertex 2.839616794638359 -5.661758323569586 5.751027637703233
    endloop
  endfacet
  facet normal -0.3681245526846778 0.9297764858882515 0
    outer loop
      vertex 2.839616794638359 -5.661758323569586 5.751027637703233
      vertex 3.534717345098322 -5.386548546711773 12.7
      vertex 3.534717345098322 -5.386548546711773 5.58270153567843
    endloop
  endfacet
  facet normal -0.48175367410171543 0.8763066800438636 0
    outer loop
      vertex 3.534717345098322 -5.386548546711773 5.58270153567843
      vertex 4.189843888859337 -5.026389681504185 12.7
      vertex 4.189843888859337 -5.026389681504185 5.430619515179075
    endloop
  endfacet
  facet normal -0.5877852522924728 0.8090169943749477 0
    outer loop
      vertex 4.189843888859337 -5.026389681504185 5.430619515179075
      vertex 4.189843888859337 -5.026389681504185 12.7
      vertex 4.61239796434645 -4.7193861752808095 5.337392875585055
    endloop
  endfacet
  facet normal -0.5877852522924728 0.8090169943749477 -1.2606355399511734e-18
    outer loop
      vertex 4.61239796434645 -4.7193861752808095 5.337392875585055
      vertex 4.189843888859337 -5.026389681504185 12.7
      vertex 4.79466468897267 -4.586961648399619 12.7
    endloop
  endfacet
  facet normal -0.6845471059286894 0.7289686274214109 0
    outer loop
      vertex 4.79466468897267 -4.586961648399619 5.291426404861581
      vertex 4.79466468897267 -4.586961648399619 12.7
      vertex 5.339641360118091 -4.075194489981723 12.7
    endloop
  endfacet
  facet normal -0.7705132427757887 0.6374239897486901 0
    outer loop
      vertex 5.816179294638359 -3.499159080053629 5.041302417396867
      vertex 5.339641360118091 -4.075194489981723 12.7
      vertex 5.816179294638359 -3.499159080053629 12.7
    endloop
  endfacet
  facet normal -0.8443279255020156 0.5358267949789957 0
    outer loop
      vertex 6.216763204636124 -2.8679398411367742 4.947654867626982
      vertex 5.816179294638359 -3.499159080053629 12.7
      vertex 6.216763204636124 -2.8679398411367742 12.7
    endloop
  endfacet
  facet normal 0.12533323356430498 0.9921147013144778 0
    outer loop
      vertex -0.11550438839314303 -5.847678789494225 6.53074021811804
      vertex -0.11550438839314303 -5.847678789494225 12.7
      vertex 0.626200188427054 -5.941377867674555 12.7
    endloop
  endfacet
  facet normal 0 1 0
    outer loop
      vertex 0.626200188427054 -5.941377867674555 6.325898074693202
      vertex 0.626200188427054 -5.941377867674555 12.7
      vertex 1.373799811572946 -5.941377867674555 12.7
    endloop
  endfacet
  facet normal -0.12533323356430498 0.9921147013144778 0
    outer loop
      vertex 1.373799811572946 -5.941377867674555 6.125579359409445
      vertex 1.373799811572946 -5.941377867674555 12.7
      vertex 2.115504388393143 -5.847678789494225 12.7
    endloop
  endfacet
  facet normal -0.24868988716485516 0.968583161128631 0
    outer loop
      vertex 2.115504388393143 -5.847678789494225 5.932943218071405
      vertex 2.115504388393143 -5.847678789494225 12.7
      vertex 2.839616794638359 -5.661758323569586 12.7
    endloop
  endfacet
  facet normal -0.36812455268467786 0.9297764858882516 0
    outer loop
      vertex 2.839616794638359 -5.661758323569586 5.751027637703233
      vertex 2.839616794638359 -5.661758323569586 12.7
      vertex 3.534717345098322 -5.386548546711773 12.7
    endloop
  endfacet
  facet normal -0.4817536741017154 0.8763066800438635 0
    outer loop
      vertex 3.534717345098322 -5.386548546711773 5.58270153567843
      vertex 3.534717345098322 -5.386548546711773 12.7
      vertex 4.189843888859337 -5.026389681504185 12.7
    endloop
  endfacet
  facet normal -0.904827052466019 0.42577929156507377 0
    outer loop
      vertex 6.535075642553496 -2.1914914777009757 4.877032728647581
      vertex 6.216763204636124 -2.8679398411367742 12.7
      vertex 6.535075642553496 -2.1914914777009757 12.7
    endloop
  endfacet
  facet normal -0.9510565162951539 0.3090169943749468 0
    outer loop
      vertex 6.766096631093882 -1.480481984528274 4.830549753777998
      vertex 6.535075642553496 -2.1914914777009757 12.7
      vertex 6.766096631093882 -1.480481984528274 12.7
    endloop
  endfacet
  facet normal -0.9822872507286884 0.18738131458572552 0
    outer loop
      vertex 6.906182831262751 -0.7461244060624976 4.808939007299506
      vertex 6.766096631093882 -1.480481984528274 12.7
      vertex 6.906182831262751 -0.7461244060624976 12.7
    endloop
  endfacet
  facet normal -0.9980267284282718 0.0627905195293128 0
    outer loop
      vertex 6.953125 0 4.812541303593704
      vertex 6.906182831262751 -0.7461244060624976 12.7
      vertex 6.953125 0 12.7
    endloop
  endfacet
  facet normal -0.8443279255020152 -0.5358267949789965 0
    outer loop
      vertex 5.816179294638359 3.499159080053629 5.041302417396867
      vertex 6.216763204636125 2.8679398411367742 4.947654867626982
      vertex 6.216763204636125 2.8679398411367742 12.7
    endloop
  endfacet
  facet normal -0.587785252292474 -0.8090169943749468 0
    outer loop
      vertex 4.61239796434645 4.7193861752808095 5.337392875585054
      vertex 4.794664688972668 4.58696164839962 5.291426404861581
      vertex 4.794664688972668 4.58696164839962 12.7
    endloop
  endfacet
  facet normal -0.6845471059286882 -0.7289686274214121 0
    outer loop
      vertex 5.33964136011809 4.075194489981725 5.156498500155034
      vertex 5.33964136011809 4.075194489981725 12.7
      vertex 4.794664688972668 4.58696164839962 5.291426404861581
    endloop
  endfacet
  facet normal -0.7705132427757891 -0.6374239897486897 0
    outer loop
      vertex 5.816179294638359 3.499159080053629 5.041302417396867
      vertex 5.816179294638359 3.499159080053629 12.7
      vertex 5.33964136011809 4.075194489981725 5.156498500155034
    endloop
  endfacet
  facet normal -0.9980267284282716 -0.0627905195293127 0
    outer loop
      vertex 6.953125 0 4.812541303593704
      vertex 6.953125 0 12.7
      vertex 6.906182831262751 0.7461244060624987 4.808939007299506
    endloop
  endfacet
  facet normal -0.9822872507286886 -0.1873813145857253 0
    outer loop
      vertex 6.906182831262751 0.7461244060624987 4.808939007299506
      vertex 6.906182831262751 0.7461244060624987 12.7
      vertex 6.766096631093882 1.4804819845282762 4.830549753777998
    endloop
  endfacet
  facet normal -0.9510565162951535 -0.3090169943749475 0
    outer loop
      vertex 6.766096631093882 1.4804819845282762 4.830549753777998
      vertex 6.766096631093882 1.4804819845282762 12.7
      vertex 6.535075642553497 2.1914914777009735 4.877032728647581
    endloop
  endfacet
  facet normal -0.9048270524660196 -0.4257792915650726 0
    outer loop
      vertex 6.535075642553497 2.1914914777009735 4.877032728647581
      vertex 6.535075642553497 2.1914914777009735 12.7
      vertex 6.216763204636125 2.8679398411367742 4.947654867626982
    endloop
  endfacet
  facet normal 0 -1 0
    outer loop
      vertex 0.6262001884270569 5.941377867674555 6.325898074693199
      vertex 1.373799811572943 5.941377867674555 6.125579359409449
      vertex 1.373799811572943 5.941377867674555 12.7
    endloop
  endfacet
  facet normal 0.12533323356430473 -0.9921147013144778 0
    outer loop
      vertex -0.1155043883931417 5.847678789494225 6.53074021811804
      vertex 0.6262001884270569 5.941377867674555 6.325898074693199
      vertex 0.6262001884270569 5.941377867674555 12.7
    endloop
  endfacet
  facet normal -0.12533323356430476 -0.9921147013144779 0
    outer loop
      vertex 1.373799811572943 5.941377867674555 6.125579359409449
      vertex 2.1155043883931417 5.847678789494225 5.932943218071405
      vertex 2.1155043883931417 5.847678789494225 12.7
    endloop
  endfacet
  facet normal -0.24868988716485466 -0.9685831611286311 0
    outer loop
      vertex 2.1155043883931417 5.847678789494225 5.932943218071405
      vertex 2.839616794638359 5.661758323569586 5.751027637703233
      vertex 2.839616794638359 5.661758323569586 12.7
    endloop
  endfacet
  facet normal -0.9048270524660196 -0.42577929156507255 0
    outer loop
      vertex 6.216763204636125 2.8679398411367742 4.947654867626982
      vertex 6.535075642553497 2.1914914777009735 12.7
      vertex 6.216763204636125 2.8679398411367742 12.7
    endloop
  endfacet
  facet normal -0.36812455268467825 -0.9297764858882512 0
    outer loop
      vertex 2.839616794638359 5.661758323569586 5.751027637703233
      vertex 3.5347173450983234 5.386548546711772 5.58270153567843
      vertex 3.5347173450983234 5.386548546711772 12.7
    endloop
  endfacet
  facet normal -0.48175367410171466 -0.8763066800438639 0
    outer loop
      vertex 4.18984388885934 5.026389681504184 5.430619515179075
      vertex 4.18984388885934 5.026389681504184 12.7
      vertex 3.5347173450983234 5.386548546711772 5.58270153567843
    endloop
  endfacet
  facet normal -0.587785252292474 -0.8090169943749468 1.7946030741913976e-18
    outer loop
      vertex 4.61239796434645 4.7193861752808095 5.337392875585054
      vertex 4.794664688972668 4.58696164839962 12.7
      vertex 4.18984388885934 5.026389681504184 5.430619515179075
    endloop
  endfacet
  facet normal -0.7705132427757891 -0.6374239897486896 0
    outer loop
      vertex 5.33964136011809 4.075194489981725 5.156498500155034
      vertex 5.816179294638359 3.499159080053629 12.7
      vertex 5.33964136011809 4.075194489981725 12.7
    endloop
  endfacet
  facet normal -0.6845471059286881 -0.7289686274214121 0
    outer loop
      vertex 4.794664688972668 4.58696164839962 5.291426404861581
      vertex 5.33964136011809 4.075194489981725 12.7
      vertex 4.794664688972668 4.58696164839962 12.7
    endloop
  endfacet
  facet normal -0.8443279255020152 -0.5358267949789965 0
    outer loop
      vertex 5.816179294638359 3.499159080053629 5.041302417396867
      vertex 6.216763204636125 2.8679398411367742 12.7
      vertex 5.816179294638359 3.499159080053629 12.7
    endloop
  endfacet
  facet normal 0.12533323356430473 -0.9921147013144778 0
    outer loop
      vertex -0.1155043883931417 5.847678789494225 6.53074021811804
      vertex 0.6262001884270569 5.941377867674555 12.7
      vertex -0.1155043883931417 5.847678789494225 12.7
    endloop
  endfacet
  facet normal 0 -1 0
    outer loop
      vertex 0.6262001884270569 5.941377867674555 6.325898074693199
      vertex 1.373799811572943 5.941377867674555 12.7
      vertex 0.6262001884270569 5.941377867674555 12.7
    endloop
  endfacet
  facet normal -0.12533323356430473 -0.9921147013144778 0
    outer loop
      vertex 1.373799811572943 5.941377867674555 6.125579359409449
      vertex 2.1155043883931417 5.847678789494225 12.7
      vertex 1.373799811572943 5.941377867674555 12.7
    endloop
  endfacet
  facet normal -0.2486898871648547 -0.9685831611286312 0
    outer loop
      vertex 2.1155043883931417 5.847678789494225 5.932943218071405
      vertex 2.839616794638359 5.661758323569586 12.7
      vertex 2.1155043883931417 5.847678789494225 12.7
    endloop
  endfacet
  facet normal -0.3681245526846783 -0.9297764858882513 0
    outer loop
      vertex 2.839616794638359 5.661758323569586 5.751027637703233
      vertex 3.5347173450983234 5.386548546711772 12.7
      vertex 2.839616794638359 5.661758323569586 12.7
    endloop
  endfacet
  facet normal -0.48175367410171455 -0.8763066800438638 0
    outer loop
      vertex 3.5347173450983234 5.386548546711772 5.58270153567843
      vertex 4.18984388885934 5.026389681504184 12.7
      vertex 3.5347173450983234 5.386548546711772 12.7
    endloop
  endfacet
  facet normal -0.5877852522924741 -0.8090169943749468 0
    outer loop
      vertex 4.18984388885934 5.026389681504184 5.430619515179075
      vertex 4.794664688972668 4.58696164839962 12.7
      vertex 4.18984388885934 5.026389681504184 12.7
    endloop
  endfacet
  facet normal -0.9980267284282716 -0.06279051952931271 0
    outer loop
      vertex 6.906182831262751 0.7461244060624987 4.808939007299506
      vertex 6.953125 0 12.7
      vertex 6.906182831262751 0.7461244060624987 12.7
    endloop
  endfacet
  facet normal -0.9822872507286886 -0.18738131458572527 0
    outer loop
      vertex 6.766096631093882 1.4804819845282762 4.830549753777998
      vertex 6.906182831262751 0.7461244060624987 12.7
      vertex 6.766096631093882 1.4804819845282762 12.7
    endloop
  endfacet
  facet normal -0.9510565162951535 -0.30901699437494745 0
    outer loop
      vertex 6.535075642553497 2.1914914777009735 4.877032728647581
      vertex 6.766096631093882 1.4804819845282762 12.7
      vertex 6.535075642553497 2.1914914777009735 12.7
    endloop
  endfacet
  facet normal -0.25740120729276533 0.10452846326765611 -0.9606343835461695
    outer loop
      vertex 7.6499999999999995 -12.690133642141358 3.8619286348855404
      vertex -12.7 -12.7 9.313621123603399
      vertex -12.7 -9.430492943551979 9.669382435198013
    endloop
  endfacet
  facet normal -0.258308324838598 0.0627905195293171 -0.9640197923156535
    outer loop
      vertex -1.534717345098322 -5.386548546711773 6.941052466998945
      vertex -0.8396167946383588 -5.661758323569586 6.736875306715393
      vertex -12.7 -9.430492943551979 9.669382435198013
    endloop
  endfacet
  facet normal -0.2583083248385962 0.06279051952930999 -0.9640197923156545
    outer loop
      vertex -0.11550438839314303 -5.847678789494225 6.53074021811804
      vertex 0.626200188427054 -5.941377867674555 6.325898074693202
      vertex -12.7 -9.430492943551979 9.669382435198013
    endloop
  endfacet
  facet normal -0.25830832483859834 0.06279051952931822 -0.9640197923156535
    outer loop
      vertex -0.8396167946383588 -5.661758323569586 6.736875306715393
      vertex -0.11550438839314303 -5.847678789494225 6.53074021811804
      vertex -12.7 -9.430492943551979 9.669382435198013
    endloop
  endfacet
  facet normal -0.2587622818089051 0.020942419883352055 -0.9657139827932895
    outer loop
      vertex -4.953125 0 8.002811375976759
      vertex -12.7 -4.7193861752808095 9.976235929177902
      vertex -12.7 0 10.078580276091612
    endloop
  endfacet
  facet normal -0.258308324838598 0.0627905195293162 -0.9640197923156536
    outer loop
      vertex -2.6123979643464508 -4.7193861752808095 7.273271110157984
      vertex -12.7 -9.430492943551979 9.669382435198013
      vertex -12.7 -4.7193861752808095 9.976235929177902
    endloop
  endfacet
  facet normal -0.2587622818089049 0.020942419883346924 -0.9657139827932898
    outer loop
      vertex -3.339641360118091 -4.075194489981723 7.482105295923719
      vertex -12.7 -4.7193861752808095 9.976235929177902
      vertex -3.816179294638359 -3.499159080053629 7.622285122600552
    endloop
  endfacet
  facet normal -0.25876228180890587 0.020942419883352714 -0.9657139827932893
    outer loop
      vertex -4.216763204636124 -2.8679398411367742 7.743309843200271
      vertex -12.7 -4.7193861752808095 9.976235929177902
      vertex -4.535075642553497 -2.191491477700973 7.8432708255823576
    endloop
  endfacet
  facet normal -0.2587622818089054 0.0209424198833501 -0.9657139827932897
    outer loop
      vertex -4.216763204636124 -2.8679398411367742 7.743309843200271
      vertex -3.816179294638359 -3.499159080053629 7.622285122600552
      vertex -12.7 -4.7193861752808095 9.976235929177902
    endloop
  endfacet
  facet normal -0.25876228180890604 0.020942419883353134 -0.9657139827932893
    outer loop
      vertex -4.766096631093882 -1.4804819845282766 7.920591625340846
      vertex -4.535075642553497 -2.191491477700973 7.8432708255823576
      vertex -12.7 -4.7193861752808095 9.976235929177902
    endloop
  endfacet
  facet normal -0.25876228180890626 0.020942419883353665 -0.9657139827932893
    outer loop
      vertex -4.766096631093882 -1.4804819845282766 7.920591625340846
      vertex -12.7 -4.7193861752808095 9.976235929177902
      vertex -4.906182831262751 -0.7461244060624976 7.974052847274338
    endloop
  endfacet
  facet normal -0.25876228180890726 0.020942419883355764 -0.965713982793289
    outer loop
      vertex -4.906182831262751 -0.7461244060624976 7.974052847274338
      vertex -12.7 -4.7193861752808095 9.976235929177902
      vertex -4.953125 0 8.002811375976759
    endloop
  endfacet
  facet normal -0.2583083248385982 0.06279051952931668 -0.9640197923156536
    outer loop
      vertex -2.6123979643464508 -4.7193861752808095 7.273271110157984
      vertex -2.18984388885934 -5.026389681504183 7.140051703181499
      vertex -12.7 -9.430492943551979 9.669382435198013
    endloop
  endfacet
  facet normal -0.25830832483859617 0.0627905195293114 -0.9640197923156544
    outer loop
      vertex -1.534717345098322 -5.386548546711773 6.941052466998945
      vertex -12.7 -9.430492943551979 9.669382435198013
      vertex -2.18984388885934 -5.026389681504183 7.140051703181499
    endloop
  endfacet
  facet normal -0.258762281808905 0.020942419883346223 -0.9657139827932898
    outer loop
      vertex -2.794664688972668 -4.586961648399621 7.324981082775834
      vertex -12.7 -4.7193861752808095 9.976235929177902
      vertex -3.339641360118091 -4.075194489981723 7.482105295923719
    endloop
  endfacet
  facet normal -0.25876228180890504 0.02094241988335614 -0.9657139827932897
    outer loop
      vertex -2.794664688972668 -4.586961648399621 7.324981082775834
      vertex -2.6123979643464508 -4.7193861752808095 7.273271110157984
      vertex -12.7 -4.7193861752808095 9.976235929177902
    endloop
  endfacet
  facet normal -0.2583083248385974 -0.06279051952932009 -0.9640197923156535
    outer loop
      vertex -0.8396167946383588 5.661758323569586 6.736875306715393
      vertex -12.7 4.7193861752808095 9.976235929177902
      vertex -0.1155043883931417 5.847678789494225 6.53074021811804
    endloop
  endfacet
  facet normal -0.2583083248385938 -0.06279051952935805 -0.9640197923156519
    outer loop
      vertex -0.1155043883931417 5.847678789494225 6.53074021811804
      vertex -12.7 4.7193861752808095 9.976235929177902
      vertex 0.6262001884270569 5.941377867674555 6.325898074693199
    endloop
  endfacet
  facet normal -0.258308324838598 -0.06279051952931618 -0.9640197923156536
    outer loop
      vertex 12.384665777060059 9.430492943551979 2.9479664978301505
      vertex -12.7 4.7193861752808095 9.976235929177902
      vertex -12.7 9.430492943551979 9.669382435198013
    endloop
  endfacet
  facet normal -0.25740120729276533 -0.10452846326765611 -0.9606343835461695
    outer loop
      vertex 7.6499999999999995 12.690133642141358 3.8619286348855404
      vertex -12.7 9.430492943551979 9.669382435198013
      vertex -12.7 12.7 9.313621123603399
    endloop
  endfacet
  facet normal -0.25876228180890504 -0.02094241988335592 -0.9657139827932895
    outer loop
      vertex -4.953125 0 8.002811375976759
      vertex -12.7 0 10.078580276091612
      vertex -4.906182831262751 0.7461244060624976 7.974052847274338
    endloop
  endfacet
  facet normal -0.2587622818089053 -0.020942419883353852 -0.9657139827932895
    outer loop
      vertex -4.906182831262751 0.7461244060624976 7.974052847274338
      vertex -12.7 0 10.078580276091612
      vertex -4.766096631093882 1.4804819845282766 7.920591625340846
    endloop
  endfacet
  facet normal -0.2587622818089054 -0.020942419883353363 -0.9657139827932897
    outer loop
      vertex -4.766096631093882 1.4804819845282766 7.920591625340846
      vertex -12.7 0 10.078580276091612
      vertex -4.535075642553497 2.191491477700973 7.8432708255823576
    endloop
  endfacet
  facet normal -0.25876228180890887 -0.020942419883343475 -0.9657139827932889
    outer loop
      vertex -3.816179294638359 3.499159080053629 7.622285122600552
      vertex -12.7 0 10.078580276091612
      vertex -3.339641360118091 4.075194489981723 7.482105295923719
    endloop
  endfacet
  facet normal -0.25876228180890554 -0.020942419883352888 -0.9657139827932896
    outer loop
      vertex -4.535075642553497 2.191491477700973 7.8432708255823576
      vertex -12.7 0 10.078580276091612
      vertex -4.216763204636124 2.8679398411367742 7.743309843200271
    endloop
  endfacet
  facet normal -0.25876228180890676 -0.020942419883349238 -0.9657139827932893
    outer loop
      vertex -4.216763204636124 2.8679398411367742 7.743309843200271
      vertex -12.7 0 10.078580276091612
      vertex -3.816179294638359 3.499159080053629 7.622285122600552
    endloop
  endfacet
  facet normal -0.25876228180890504 -0.020942419883352107 -0.9657139827932897
    outer loop
      vertex -2.794664688972668 4.586961648399621 7.324981082775834
      vertex -12.7 0 10.078580276091612
      vertex -12.7 4.7193861752808095 9.976235929177902
    endloop
  endfacet
  facet normal -0.25876228180891003 -0.02094241988334044 -0.9657139827932885
    outer loop
      vertex -3.339641360118091 4.075194489981723 7.482105295923719
      vertex -12.7 0 10.078580276091612
      vertex -2.794664688972668 4.586961648399621 7.324981082775834
    endloop
  endfacet
  facet normal -0.25876228180890504 -0.02094241988335614 -0.9657139827932897
    outer loop
      vertex -2.794664688972668 4.586961648399621 7.324981082775834
      vertex -12.7 4.7193861752808095 9.976235929177902
      vertex -2.6123979643464508 4.7193861752808095 7.273271110157984
    endloop
  endfacet
  facet normal -0.258308324838598 -0.062790519529317 -0.9640197923156536
    outer loop
      vertex -2.6123979643464508 4.7193861752808095 7.273271110157984
      vertex -12.7 4.7193861752808095 9.976235929177902
      vertex -2.18984388885934 5.026389681504183 7.140051703181499
    endloop
  endfacet
  facet normal -0.25830832483859834 -0.06279051952930838 -0.964019792315654
    outer loop
      vertex -2.18984388885934 5.026389681504183 7.140051703181499
      vertex -12.7 4.7193861752808095 9.976235929177902
      vertex -1.5347173450983234 5.386548546711772 6.941052466998945
    endloop
  endfacet
  facet normal -0.2583083248385978 -0.06279051952931639 -0.9640197923156537
    outer loop
      vertex -1.5347173450983234 5.386548546711772 6.941052466998945
      vertex -12.7 4.7193861752808095 9.976235929177902
      vertex -0.8396167946383588 5.661758323569586 6.736875306715393
    endloop
  endfacet
  facet normal -0.25740120729276406 0.1045284632676661 -0.9606343835461688
    outer loop
      vertex 10.37913397489498 -11.921639627510075 3.2142806927775327
      vertex -12.7 -9.430492943551979 9.669382435198013
      vertex 10.88711994874345 -11.552566213878944 3.118325844840172
    endloop
  endfacet
  facet normal -0.25740120729276605 0.10452846326764834 -0.9606343835461701
    outer loop
      vertex 10.88711994874345 -11.552566213878944 3.118325844840172
      vertex -12.7 -9.430492943551979 9.669382435198013
      vertex 11.344843137107057 -11.122735529643442 3.042449984418438
    endloop
  endfacet
  facet normal -0.2574012072927655 0.10452846326765428 -0.9606343835461697
    outer loop
      vertex 11.344843137107057 -11.122735529643442 3.042449984418438
      vertex -12.7 -9.430492943551979 9.669382435198013
      vertex 11.745084971874736 -10.638926261462366 2.987849719157232
    endloop
  endfacet
  facet normal -0.2574012072927653 0.10452846326765733 -0.9606343835461695
    outer loop
      vertex 11.745084971874736 -10.638926261462366 2.987849719157232
      vertex -12.7 -9.430492943551979 9.669382435198013
      vertex 12.081533400219318 -10.108768370508576 2.9553861278563405
    endloop
  endfacet
  facet normal -0.25740120729276567 0.10452846326764982 -0.9606343835461701
    outer loop
      vertex 12.081533400219318 -10.108768370508576 2.9553861278563405
      vertex -12.7 -9.430492943551979 9.669382435198013
      vertex 12.348882429441256 -9.540622763423391 2.9455711807433818
    endloop
  endfacet
  facet normal -0.25740120729276544 0.10452846326765544 -0.9606343835461696
    outer loop
      vertex 12.348882429441256 -9.540622763423391 2.9455711807433818
      vertex -12.7 -9.430492943551979 9.669382435198013
      vertex 12.384665777060059 -9.430492943551979 2.9479664978301505
    endloop
  endfacet
  facet normal -0.2583083248385979 0.06279051952931916 -0.9640197923156535
    outer loop
      vertex 12.384665777060059 -9.430492943551979 2.9479664978301505
      vertex -12.7 -9.430492943551979 9.669382435198013
      vertex 12.542915805643155 -8.943449435824272 2.9372866497736867
    endloop
  endfacet
  facet normal -0.2583083248385979 0.06279051952931468 -0.9640197923156538
    outer loop
      vertex 12.542915805643155 -8.943449435824272 2.9372866497736867
      vertex -12.7 -9.430492943551979 9.669382435198013
      vertex 12.660573506572389 -8.32666616782152 2.945933959994845
    endloop
  endfacet
  facet normal -0.2583083248385981 0.06279051952931973 -0.9640197923156534
    outer loop
      vertex 12.660573506572389 -8.32666616782152 2.945933959994845
      vertex -12.7 -9.430492943551979 9.669382435198013
      vertex 12.7 -7.699999999999999 2.97618697244323
    endloop
  endfacet
  facet normal -0.25830832483859856 0.062790519529329 -0.9640197923156527
    outer loop
      vertex 12.696854266637317 -7.6499999999999995 2.980286571977672
      vertex 12.7 -7.699999999999999 2.97618697244323
      vertex -12.7 -9.430492943551979 9.669382435198013
    endloop
  endfacet
  facet normal -0.2583083248385979 0.06279051952931711 -0.9640197923156536
    outer loop
      vertex 12.696854266637317 -7.6499999999999995 2.980286571977672
      vertex -12.7 -9.430492943551979 9.669382435198013
      vertex 12.7 -6.223765295145768 3.0723401269778985
    endloop
  endfacet
  facet normal -0.2574012072927654 0.10452846326765605 -0.9606343835461695
    outer loop
      vertex 7.6499999999999995 -12.690133642141358 3.8619286348855404
      vertex 7.6499999999999995 -12.7 3.860855057630055
      vertex -12.7 -12.7 9.313621123603399
    endloop
  endfacet
  facet normal -0.25740120729276617 0.10452846326765103 -0.9606343835461699
    outer loop
      vertex 8.013952597646568 -12.690133642141358 3.7644078302629365
      vertex -12.7 -9.430492943551979 9.669382435198013
      vertex 8.636906572928623 -12.611436253643443 3.6060510289156804
    endloop
  endfacet
  facet normal -0.2574012072927552 0.1045284632677134 -0.9606343835461659
    outer loop
      vertex 7.6499999999999995 -12.690133642141358 3.8619286348855404
      vertex -12.7 -9.430492943551979 9.669382435198013
      vertex 8.013952597646568 -12.690133642141358 3.7644078302629365
    endloop
  endfacet
  facet normal -0.2574012072927649 0.10452846326765813 -0.9606343835461695
    outer loop
      vertex 8.636906572928623 -12.611436253643443 3.6060510289156804
      vertex -12.7 -9.430492943551979 9.669382435198013
      vertex 9.245084971874736 -12.455282581475768 3.460081497578286
    endloop
  endfacet
  facet normal -0.2574012072927653 0.10452846326765602 -0.9606343835461696
    outer loop
      vertex 9.245084971874736 -12.455282581475768 3.460081497578286
      vertex -12.7 -9.430492943551979 9.669382435198013
      vertex 9.828896457825362 -12.224135262330098 3.3288012629579122
    endloop
  endfacet
  facet normal -0.2574012072927663 0.10452846326764938 -0.9606343835461701
    outer loop
      vertex 9.828896457825362 -12.224135262330098 3.3288012629579122
      vertex -12.7 -9.430492943551979 9.669382435198013
      vertex 10.37913397489498 -11.921639627510075 3.2142806927775327
    endloop
  endfacet
  facet normal -0.25830832483859784 0.0627905195293172 -0.9640197923156535
    outer loop
      vertex 0.626200188427054 -5.941377867674555 6.325898074693202
      vertex 12.7 -6.223765295145768 3.0723401269778985
      vertex -12.7 -9.430492943551979 9.669382435198013
    endloop
  endfacet
  facet normal -0.2583083248386054 0.06279051952912039 -0.9640197923156644
    outer loop
      vertex 0.626200188427054 -5.941377867674555 6.325898074693202
      vertex 1.373799811572946 -5.941377867674555 6.125579359409445
      vertex 12.7 -6.223765295145768 3.0723401269778985
    endloop
  endfacet
  facet normal -0.25830832483859445 0.06279051952926776 -0.9640197923156577
    outer loop
      vertex 1.373799811572946 -5.941377867674555 6.125579359409445
      vertex 2.115504388393143 -5.847678789494225 5.932943218071405
      vertex 12.7 -4.7193861752808095 3.1703264414273815
    endloop
  endfacet
  facet normal -0.2583083248385989 0.06279051952932349 -0.9640197923156529
    outer loop
      vertex 2.115504388393143 -5.847678789494225 5.932943218071405
      vertex 2.839616794638359 -5.661758323569586 5.751027637703233
      vertex 12.7 -4.7193861752808095 3.1703264414273815
    endloop
  endfacet
  facet normal -0.2583083248386226 0.06279051952931673 -0.9640197923156468
    outer loop
      vertex 12.696854266637317 -7.6499999999999995 2.980286571977672
      vertex 12.7 -6.223765295145768 3.0723401269778985
      vertex 12.7 -7.6499999999999995 2.9794436752635374
    endloop
  endfacet
  facet normal -0.25830832483859795 0.06279051952931006 -0.9640197923156542
    outer loop
      vertex 1.373799811572946 -5.941377867674555 6.125579359409445
      vertex 12.7 -4.7193861752808095 3.1703264414273815
      vertex 12.7 -6.223765295145768 3.0723401269778985
    endloop
  endfacet
  facet normal -0.2583083248385984 0.06279051952932113 -0.9640197923156532
    outer loop
      vertex 3.534717345098322 -5.386548546711773 5.58270153567843
      vertex 4.189843888859337 -5.026389681504185 5.430619515179075
      vertex 12.7 -4.7193861752808095 3.1703264414273815
    endloop
  endfacet
  facet normal -0.25830832483859817 0.06279051952930942 -0.9640197923156538
    outer loop
      vertex 4.189843888859337 -5.026389681504185 5.430619515179075
      vertex 4.61239796434645 -4.7193861752808095 5.337392875585055
      vertex 12.7 -4.7193861752808095 3.1703264414273815
    endloop
  endfacet
  facet normal -0.25830832483859745 0.0627905195293025 -0.9640197923156547
    outer loop
      vertex 2.839616794638359 -5.661758323569586 5.751027637703233
      vertex 3.534717345098322 -5.386548546711773 5.58270153567843
      vertex 12.7 -4.7193861752808095 3.1703264414273815
    endloop
  endfacet
  facet normal -0.25876228180890515 0.02094241988334539 -0.9657139827932898
    outer loop
      vertex 4.61239796434645 -4.7193861752808095 5.337392875585055
      vertex 4.79466468897267 -4.586961648399619 5.291426404861581
      vertex 12.7 -4.7193861752808095 3.1703264414273815
    endloop
  endfacet
  facet normal -0.2587622818089029 0.020942419883348957 -0.9657139827932903
    outer loop
      vertex 4.79466468897267 -4.586961648399619 5.291426404861581
      vertex 5.339641360118091 -4.075194489981723 5.156498500155034
      vertex 12.7 0 3.272670788341097
    endloop
  endfacet
  facet normal -0.25876228180890326 0.020942419883349828 -0.9657139827932902
    outer loop
      vertex 5.339641360118091 -4.075194489981723 5.156498500155034
      vertex 5.816179294638359 -3.499159080053629 5.041302417396867
      vertex 12.7 0 3.272670788341097
    endloop
  endfacet
  facet normal -0.2587622818089032 0.02094241988334953 -0.9657139827932902
    outer loop
      vertex 5.816179294638359 -3.499159080053629 5.041302417396867
      vertex 6.216763204636124 -2.8679398411367742 4.947654867626982
      vertex 12.7 0 3.272670788341097
    endloop
  endfacet
  facet normal -0.258762281808902 0.020942419883346705 -0.9657139827932906
    outer loop
      vertex 6.216763204636124 -2.8679398411367742 4.947654867626982
      vertex 6.535075642553496 -2.1914914777009757 4.877032728647581
      vertex 12.7 0 3.272670788341097
    endloop
  endfacet
  facet normal -0.25876228180890437 0.020942419883353842 -0.9657139827932899
    outer loop
      vertex 6.535075642553496 -2.1914914777009757 4.877032728647581
      vertex 6.766096631093882 -1.480481984528274 4.830549753777998
      vertex 12.7 0 3.272670788341097
    endloop
  endfacet
  facet normal -0.2587622818089051 0.020942419883357117 -0.9657139827932896
    outer loop
      vertex 6.766096631093882 -1.480481984528274 4.830549753777998
      vertex 6.906182831262751 -0.7461244060624976 4.808939007299506
      vertex 12.7 0 3.272670788341097
    endloop
  endfacet
  facet normal -0.2587622818089049 0.0209424198833561 -0.9657139827932897
    outer loop
      vertex 6.906182831262751 -0.7461244060624976 4.808939007299506
      vertex 6.953125 0 4.812541303593704
      vertex 12.7 0 3.272670788341097
    endloop
  endfacet
  facet normal -0.25876228180890504 0.020942419883353044 -0.9657139827932897
    outer loop
      vertex 4.79466468897267 -4.586961648399619 5.291426404861581
      vertex 12.7 0 3.272670788341097
      vertex 12.7 -4.7193861752808095 3.1703264414273815
    endloop
  endfacet
  facet normal -0.25830832483859806 -0.06279051952931432 -0.9640197923156538
    outer loop
      vertex 0.6262001884270569 5.941377867674555 6.325898074693199
      vertex -12.7 4.7193861752808095 9.976235929177902
      vertex 12.7 7.6499999999999995 2.9794436752635374
    endloop
  endfacet
  facet normal -0.2574012072927644 -0.10452846326766337 -0.9606343835461689
    outer loop
      vertex 10.379133974894982 11.921639627510075 3.2142806927775327
      vertex 10.887119948743448 11.552566213878945 3.1183258448401716
      vertex -12.7 9.430492943551979 9.669382435198013
    endloop
  endfacet
  facet normal -0.2583083248385963 -0.0627905195293292 -0.9640197923156533
    outer loop
      vertex 12.696854266637317 7.6499999999999995 2.980286571977672
      vertex -12.7 4.7193861752808095 9.976235929177902
      vertex 12.7 7.699999999999999 2.97618697244323
    endloop
  endfacet
  facet normal -0.2583083248386263 -0.0627905195290867 -0.9640197923156608
    outer loop
      vertex 12.696854266637317 7.6499999999999995 2.980286571977672
      vertex 12.7 7.6499999999999995 2.9794436752635374
      vertex -12.7 4.7193861752808095 9.976235929177902
    endloop
  endfacet
  facet normal -0.2583083248385975 -0.06279051952931951 -0.9640197923156535
    outer loop
      vertex 12.660573506572389 8.326666167821521 2.945933959994845
      vertex 12.7 7.699999999999999 2.97618697244323
      vertex -12.7 4.7193861752808095 9.976235929177902
    endloop
  endfacet
  facet normal -0.2583083248385982 -0.06279051952931473 -0.9640197923156536
    outer loop
      vertex 12.660573506572389 8.326666167821521 2.945933959994845
      vertex -12.7 4.7193861752808095 9.976235929177902
      vertex 12.542915805643155 8.943449435824274 2.9372866497736867
    endloop
  endfacet
  facet normal -0.2583083248385974 -0.06279051952931922 -0.9640197923156535
    outer loop
      vertex 12.542915805643155 8.943449435824274 2.9372866497736867
      vertex -12.7 4.7193861752808095 9.976235929177902
      vertex 12.384665777060059 9.430492943551979 2.9479664978301505
    endloop
  endfacet
  facet normal -0.2574012072927654 -0.10452846326765712 -0.9606343835461694
    outer loop
      vertex 12.384665777060059 9.430492943551979 2.9479664978301505
      vertex -12.7 9.430492943551979 9.669382435198013
      vertex 12.348882429441256 9.54062276342339 2.9455711807433818
    endloop
  endfacet
  facet normal -0.25830832483860106 -0.06279051952929682 -0.9640197923156539
    outer loop
      vertex 1.373799811572943 5.941377867674555 6.125579359409449
      vertex 12.7 7.6499999999999995 2.9794436752635374
      vertex 2.1155043883931417 5.847678789494225 5.932943218071405
    endloop
  endfacet
  facet normal -0.2583083248385952 -0.0627905195293334 -0.9640197923156533
    outer loop
      vertex 0.6262001884270569 5.941377867674555 6.325898074693199
      vertex 12.7 7.6499999999999995 2.9794436752635374
      vertex 1.373799811572943 5.941377867674555 6.125579359409449
    endloop
  endfacet
  facet normal -0.2583083248385973 -0.06279051952931804 -0.9640197923156537
    outer loop
      vertex 2.1155043883931417 5.847678789494225 5.932943218071405
      vertex 12.7 7.6499999999999995 2.9794436752635374
      vertex 2.839616794638359 5.661758323569586 5.751027637703233
    endloop
  endfacet
  facet normal -0.25740120729276567 -0.10452846326764949 -0.9606343835461701
    outer loop
      vertex 12.348882429441256 9.54062276342339 2.9455711807433818
      vertex -12.7 9.430492943551979 9.669382435198013
      vertex 12.081533400219318 10.108768370508576 2.9553861278563405
    endloop
  endfacet
  facet normal -0.2574012072927653 -0.1045284632676573 -0.9606343835461695
    outer loop
      vertex 12.081533400219318 10.108768370508576 2.9553861278563405
      vertex -12.7 9.430492943551979 9.669382435198013
      vertex 11.745084971874736 10.638926261462366 2.987849719157232
    endloop
  endfacet
  facet normal -0.2574012072927659 -0.10452846326764977 -0.96063438354617
    outer loop
      vertex 11.344843137107057 11.122735529643442 3.042449984418438
      vertex -12.7 9.430492943551979 9.669382435198013
      vertex 10.887119948743448 11.552566213878945 3.1183258448401716
    endloop
  endfacet
  facet normal -0.2574012072927655 -0.10452846326765428 -0.9606343835461697
    outer loop
      vertex 11.344843137107057 11.122735529643442 3.042449984418438
      vertex 11.745084971874736 10.638926261462366 2.987849719157232
      vertex -12.7 9.430492943551979 9.669382435198013
    endloop
  endfacet
  facet normal -0.25740120729276567 -0.10452846326765376 -0.9606343835461697
    outer loop
      vertex 8.013952597646565 12.690133642141358 3.7644078302629365
      vertex 8.636906572928622 12.611436253643443 3.6060510289156804
      vertex -12.7 9.430492943551979 9.669382435198013
    endloop
  endfacet
  facet normal -0.257401207292758 -0.10452846326769799 -0.9606343835461669
    outer loop
      vertex 7.6499999999999995 12.690133642141358 3.8619286348855404
      vertex 8.013952597646565 12.690133642141358 3.7644078302629365
      vertex -12.7 9.430492943551979 9.669382435198013
    endloop
  endfacet
  facet normal -0.2574012072927654 -0.10452846326765605 -0.9606343835461695
    outer loop
      vertex 7.6499999999999995 12.690133642141358 3.8619286348855404
      vertex -12.7 12.7 9.313621123603399
      vertex 7.6499999999999995 12.7 3.860855057630055
    endloop
  endfacet
  facet normal -0.25740120729276456 -0.10452846326766019 -0.9606343835461691
    outer loop
      vertex 8.636906572928622 12.611436253643443 3.6060510289156804
      vertex 9.245084971874736 12.455282581475768 3.460081497578286
      vertex -12.7 9.430492943551979 9.669382435198013
    endloop
  endfacet
  facet normal -0.2574012072927653 -0.10452846326765602 -0.9606343835461696
    outer loop
      vertex 9.245084971874736 12.455282581475768 3.460081497578286
      vertex 9.828896457825362 12.224135262330098 3.3288012629579122
      vertex -12.7 9.430492943551979 9.669382435198013
    endloop
  endfacet
  facet normal -0.2574012072927661 -0.1045284632676506 -0.9606343835461699
    outer loop
      vertex 9.828896457825362 12.224135262330098 3.3288012629579122
      vertex 10.379133974894982 11.921639627510075 3.2142806927775327
      vertex -12.7 9.430492943551979 9.669382435198013
    endloop
  endfacet
  facet normal -0.25876228180890404 -0.020942419883353557 -0.9657139827932898
    outer loop
      vertex 6.766096631093882 1.4804819845282762 4.830549753777998
      vertex 6.535075642553497 2.1914914777009735 4.877032728647581
      vertex 12.7 4.7193861752808095 3.1703264414273806
    endloop
  endfacet
  facet normal -0.2587622818089029 -0.020942419883355948 -0.9657139827932902
    outer loop
      vertex 6.953125 0 4.812541303593704
      vertex 6.906182831262751 0.7461244060624987 4.808939007299506
      vertex 12.7 4.7193861752808095 3.1703264414273806
    endloop
  endfacet
  facet normal -0.2587622818089025 -0.020942419883356565 -0.9657139827932902
    outer loop
      vertex 6.906182831262751 0.7461244060624987 4.808939007299506
      vertex 6.766096631093882 1.4804819845282762 4.830549753777998
      vertex 12.7 4.7193861752808095 3.1703264414273806
    endloop
  endfacet
  facet normal -0.2587622818089052 -0.020942419883348534 -0.9657139827932897
    outer loop
      vertex 4.61239796434645 4.7193861752808095 5.337392875585054
      vertex 12.7 4.7193861752808095 3.1703264414273806
      vertex 4.794664688972668 4.58696164839962 5.291426404861581
    endloop
  endfacet
  facet normal -0.2587622818089051 -0.02094241988335206 -0.9657139827932896
    outer loop
      vertex 5.33964136011809 4.075194489981725 5.156498500155034
      vertex 4.794664688972668 4.58696164839962 5.291426404861581
      vertex 12.7 4.7193861752808095 3.1703264414273806
    endloop
  endfacet
  facet normal -0.2583083248385968 -0.06279051952931884 -0.9640197923156538
    outer loop
      vertex 4.18984388885934 5.026389681504184 5.430619515179075
      vertex 3.5347173450983234 5.386548546711772 5.58270153567843
      vertex 12.7 7.6499999999999995 2.9794436752635374
    endloop
  endfacet
  facet normal -0.25830832483860017 -0.06279051952930745 -0.9640197923156536
    outer loop
      vertex 4.61239796434645 4.7193861752808095 5.337392875585054
      vertex 4.18984388885934 5.026389681504184 5.430619515179075
      vertex 12.7 7.6499999999999995 2.9794436752635374
    endloop
  endfacet
  facet normal -0.2583083248385993 -0.06279051952930867 -0.9640197923156538
    outer loop
      vertex 2.839616794638359 5.661758323569586 5.751027637703233
      vertex 12.7 7.6499999999999995 2.9794436752635374
      vertex 3.5347173450983234 5.386548546711772 5.58270153567843
    endloop
  endfacet
  facet normal -0.2587622818089052 -0.020942419883351285 -0.9657139827932897
    outer loop
      vertex 5.816179294638359 3.499159080053629 5.041302417396867
      vertex 12.7 4.7193861752808095 3.1703264414273806
      vertex 6.216763204636125 2.8679398411367742 4.947654867626982
    endloop
  endfacet
  facet normal -0.258762281808906 -0.020942419883348627 -0.9657139827932896
    outer loop
      vertex 6.535075642553497 2.1914914777009735 4.877032728647581
      vertex 6.216763204636125 2.8679398411367742 4.947654867626982
      vertex 12.7 4.7193861752808095 3.1703264414273806
    endloop
  endfacet
  facet normal -0.2587622818089051 -0.020942419883351805 -0.9657139827932897
    outer loop
      vertex 5.816179294638359 3.499159080053629 5.041302417396867
      vertex 5.33964136011809 4.075194489981725 5.156498500155034
      vertex 12.7 4.7193861752808095 3.1703264414273806
    endloop
  endfacet
  facet normal -0.2587622818089049 -0.02094241988335326 -0.9657139827932896
    outer loop
      vertex 6.953125 0 4.812541303593704
      vertex 12.7 4.7193861752808095 3.1703264414273806
      vertex 12.7 0 3.272670788341097
    endloop
  endfacet
  facet normal -0.2583083248385981 -0.06279051952931325 -0.9640197923156538
    outer loop
      vertex 4.61239796434645 4.7193861752808095 5.337392875585054
      vertex 12.7 7.6499999999999995 2.9794436752635374
      vertex 12.7 4.7193861752808095 3.1703264414273806
    endloop
  endfacet
endsolid OpenSCAD_Model
