solid OpenSCAD_Model
  facet normal -1 0 0
    outer loop
      vertex 0 0 0
      vertex 0 15.615638967978498 18.03463498732692
      vertex 0 18.156373505325462 15.822174242256866
    endloop
  endfacet
  facet normal -1 0 0
    outer loop
      vertex 0 0 0
      vertex 0 14.464129319929638 19.81638675327779
      vertex 0 15.615638967978498 18.03463498732692
    endloop
  endfacet
  facet normal -1 0 0
    outer loop
      vertex 0 0 0
      vertex 0 13.680281771816045 21.43951229474587
      vertex 0 14.464129319929638 19.81638675327779
    endloop
  endfacet
  facet normal -1 0 0
    outer loop
      vertex 0 0 0
      vertex 0 13.652612308299702 21.61663615480786
      vertex 0 13.680281771816045 21.43951229474587
    endloop
  endfacet
  facet normal 0 0 -1
    outer loop
      vertex 1 0.04285714285714286 0
      vertex 1 47 0
      vertex 3 3 0
    endloop
  endfacet
  facet normal -1 0 0
    outer loop
      vertex 0 0 0
      vertex 0 18.156373505325462 15.822174242256866
      vertex 0 19.80636879113463 14.934177554491397
    endloop
  endfacet
  facet normal -1 0 0
    outer loop
      vertex 0 0 0
      vertex 0 19.80636879113463 14.934177554491397
      vertex 0 21.21019512808096 14.449733127758925
    endloop
  endfacet
  facet normal -1 0 0
    outer loop
      vertex 0 0 0
      vertex 0 21.21019512808096 14.449733127758925
      vertex 0 24 14.124078984532403
    endloop
  endfacet
  facet normal -1 0 0
    outer loop
      vertex 0 0 0
      vertex 0 24 14.124078984532403
      vertex 0 26.78980487191904 14.449733127758925
    endloop
  endfacet
  facet normal -1 0 0
    outer loop
      vertex 0 0 0
      vertex 0 26.78980487191904 14.449733127758925
      vertex 0 28.19363120886537 14.934177554491397
    endloop
  endfacet
  facet normal 0 0 -1
    outer loop
      vertex 0 0 0
      vertex 1 0.04285714285714286 0
      vertex 73 0 0
    endloop
  endfacet
  facet normal 0 0 -1
    outer loop
      vertex 1 0.04285714285714286 0
      vertex 3 3 0
      vertex 70 3 0
    endloop
  endfacet
  facet normal 0 -1 0
    outer loop
      vertex 0 0 0
      vertex 73 0 25
      vertex 7.505553499465135 0 25
    endloop
  endfacet
  facet normal 0 0 1
    outer loop
      vertex 7.505553499465135 0 25
      vertex 72 1 25
      vertex 7.505553499465135 1 25
    endloop
  endfacet
  facet normal 0 0 -1
    outer loop
      vertex 0 0 0
      vertex 0 48 0
      vertex 0.9795918367346939 47.02040816326531 0
    endloop
  endfacet
  facet normal 0 0 -1
    outer loop
      vertex 3 3 0
      vertex 1 47 0
      vertex 3 45 0
    endloop
  endfacet
  facet normal -1 0 0
    outer loop
      vertex 0 0 0
      vertex 0 48 25
      vertex 0 48 0
    endloop
  endfacet
  facet normal -1 0 0
    outer loop
      vertex 0 0 0
      vertex 0 28.19363120886537 14.934177554491397
      vertex 0 48 25
    endloop
  endfacet
  facet normal -1 0 0
    outer loop
      vertex 0 48 25
      vertex 0 28.19363120886537 14.934177554491397
      vertex 0 29.843626494674538 15.822174242256866
    endloop
  endfacet
  facet normal 0 0 -1
    outer loop
      vertex 0.9795918367346939 47.02040816326531 0
      vertex 73 48 0
      vertex 1 47 0
    endloop
  endfacet
  facet normal 0 0 -1
    outer loop
      vertex 0.9795918367346939 47.02040816326531 0
      vertex 0 48 0
      vertex 73 48 0
    endloop
  endfacet
  facet normal 0 0 -1
    outer loop
      vertex 1 47 0
      vertex 73 48 0
      vertex 3 45 0
    endloop
  endfacet
  facet normal 0 1 0
    outer loop
      vertex 0 48 0
      vertex 0 48 25
      vertex 73 48 0
    endloop
  endfacet
  facet normal 0 1 0
    outer loop
      vertex 0 48 25
      vertex 7.505553499465135 48 25
      vertex 73 48 0
    endloop
  endfacet
  facet normal -1 0 0
    outer loop
      vertex 0 48 25
      vertex 0 29.843626494674538 15.822174242256866
      vertex 0 32.3843610320215 18.03463498732692
    endloop
  endfacet
  facet normal -1 0 0
    outer loop
      vertex 0 48 25
      vertex 0 32.3843610320215 18.03463498732692
      vertex 0 33.53587068007036 19.81638675327779
    endloop
  endfacet
  facet normal -1 0 0
    outer loop
      vertex 0 48 25
      vertex 0 33.53587068007036 19.81638675327779
      vertex 0 34.31971822818395 21.43951229474587
    endloop
  endfacet
  facet normal -1 0 0
    outer loop
      vertex 0 48 25
      vertex 0 34.31971822818395 21.43951229474587
      vertex 0 34.8759210154676 25
    endloop
  endfacet
  facet normal 0 0 1
    outer loop
      vertex 7.505553499465135 47 25
      vertex 72 47 25
      vertex 7.505553499465135 48 25
    endloop
  endfacet
  facet normal 0 0 -1
    outer loop
      vertex 1 0.04285714285714286 0
      vertex 70 3 0
      vertex 73 0 0
    endloop
  endfacet
  facet normal 0 -1 0
    outer loop
      vertex 0 0 0
      vertex 73 0 0
      vertex 73 0 25
    endloop
  endfacet
  facet normal 0 0 -1
    outer loop
      vertex 73 0 0
      vertex 70 3 0
      vertex 73 48 0
    endloop
  endfacet
  facet normal 1 0 0
    outer loop
      vertex 73 0 0
      vertex 73 48 0
      vertex 73 0 25
    endloop
  endfacet
  facet normal 0 0 1
    outer loop
      vertex 7.505553499465135 0 25
      vertex 73 0 25
      vertex 72 1 25
    endloop
  endfacet
  facet normal 0 0 1
    outer loop
      vertex 73 0 25
      vertex 73 48 25
      vertex 72 1 25
    endloop
  endfacet
  facet normal 0 0 -1
    outer loop
      vertex 3 45 0
      vertex 73 48 0
      vertex 70 45 0
    endloop
  endfacet
  facet normal 0 1 0
    outer loop
      vertex 7.505553499465135 48 25
      vertex 73 48 25
      vertex 73 48 0
    endloop
  endfacet
  facet normal 0 0 -1
    outer loop
      vertex 70 3 0
      vertex 70 45 0
      vertex 73 48 0
    endloop
  endfacet
  facet normal 1 0 0
    outer loop
      vertex 73 0 25
      vertex 73 48 0
      vertex 73 48 25
    endloop
  endfacet
  facet normal 0 0 1
    outer loop
      vertex 7.505553499465135 48 25
      vertex 72 47 25
      vertex 73 48 25
    endloop
  endfacet
  facet normal 0 0 1
    outer loop
      vertex 72 1 25
      vertex 73 48 25
      vertex 72 47 25
    endloop
  endfacet
  facet normal 0 1 0
    outer loop
      vertex 2.0408885599144213 1 4
      vertex 7.505553499465135 1 25
      vertex 72 1 4
    endloop
  endfacet
  facet normal 0 0 1
    outer loop
      vertex 2.0408885599144213 1 4
      vertex 72 47 4
      vertex 2.0408885599144213 47 4
    endloop
  endfacet
  facet normal 0 -1 0
    outer loop
      vertex 2.0408885599144213 47 4
      vertex 72 47 25
      vertex 7.505553499465135 47 25
    endloop
  endfacet
  facet normal 0 1 0
    outer loop
      vertex 7.505553499465135 1 25
      vertex 72 1 25
      vertex 72 1 4
    endloop
  endfacet
  facet normal 0 0 1
    outer loop
      vertex 2.0408885599144213 1 4
      vertex 72 1 4
      vertex 72 47 4
    endloop
  endfacet
  facet normal -1 0 0
    outer loop
      vertex 72 1 4
      vertex 72 1 25
      vertex 72 47 4
    endloop
  endfacet
  facet normal 0 -1 0
    outer loop
      vertex 2.0408885599144213 47 4
      vertex 72 47 4
      vertex 72 47 25
    endloop
  endfacet
  facet normal -1 0 0
    outer loop
      vertex 72 1 25
      vertex 72 47 25
      vertex 72 47 4
    endloop
  endfacet
  facet normal 1 0 0
    outer loop
      vertex 3 3 0
      vertex 3 45 3
      vertex 3 3 3
    endloop
  endfacet
  facet normal 0 1 0
    outer loop
      vertex 3 3 0
      vertex 3 3 3
      vertex 70 3 3
    endloop
  endfacet
  facet normal 0 0 -1
    outer loop
      vertex 3 3 3
      vertex 3 45 3
      vertex 70 3 3
    endloop
  endfacet
  facet normal 1 0 0
    outer loop
      vertex 3 3 0
      vertex 3 45 0
      vertex 3 45 3
    endloop
  endfacet
  facet normal 0 -1 0
    outer loop
      vertex 3 45 0
      vertex 70 45 0
      vertex 3 45 3
    endloop
  endfacet
  facet normal 0 1 0
    outer loop
      vertex 3 3 0
      vertex 70 3 3
      vertex 70 3 0
    endloop
  endfacet
  facet normal -1 0 0
    outer loop
      vertex 70 3 0
      vertex 70 3 3
      vertex 70 45 0
    endloop
  endfacet
  facet normal 0 0 -1
    outer loop
      vertex 3 45 3
      vertex 70 45 3
      vertex 70 3 3
    endloop
  endfacet
  facet normal 0 -1 0
    outer loop
      vertex 3 45 3
      vertex 70 45 0
      vertex 70 45 3
    endloop
  endfacet
  facet normal -1 0 0
    outer loop
      vertex 70 3 3
      vertex 70 45 3
      vertex 70 45 0
    endloop
  endfacet
  facet normal -1 0 0
    outer loop
      vertex 0 0 0
      vertex 0 13.124078984532403 25
      vertex 0 13.652612308299702 21.61663615480786
    endloop
  endfacet
  facet normal 0 0 -1
    outer loop
      vertex 0 0 0
      vertex 1 47 0
      vertex 1 0.04285714285714286 0
    endloop
  endfacet
  facet normal 0.9677701301696039 0 -0.25183521428010786
    outer loop
      vertex 2.0408885599144213 1 4
      vertex 7.505553499465135 47 25
      vertex 7.505553499465135 1 25
    endloop
  endfacet
  facet normal 0 -1 0
    outer loop
      vertex 0 0 0
      vertex 7.505553499465135 0 25
      vertex 0 0 38
    endloop
  endfacet
  facet normal -1 0 0
    outer loop
      vertex 0 0 0
      vertex 0 0 38
      vertex 0 13.124078984532403 25
    endloop
  endfacet
  facet normal 0 -1 0
    outer loop
      vertex 7.505553499465135 0 25
      vertex 7.505553499465135 0 27
      vertex 1 0 38
    endloop
  endfacet
  facet normal 0 -1 0
    outer loop
      vertex 7.505553499465135 0 25
      vertex 1 0 38
      vertex 0 0 38
    endloop
  endfacet
  facet normal -1 0 0
    outer loop
      vertex 0 0 38
      vertex 0 13.680281771816045 28.56048770525413
      vertex 0 13.124078984532403 25
    endloop
  endfacet
  facet normal -1 0 0
    outer loop
      vertex 0 0 38
      vertex 0 14.464129319929638 30.18361324672221
      vertex 0 13.680281771816045 28.56048770525413
    endloop
  endfacet
  facet normal -1 0 0
    outer loop
      vertex 0 0 38
      vertex 0 15.615638967978498 31.96536501267308
      vertex 0 14.464129319929638 30.18361324672221
    endloop
  endfacet
  facet normal -1 0 0
    outer loop
      vertex 0 0 38
      vertex 0 18.156373505325462 34.177825757743136
      vertex 0 15.615638967978498 31.96536501267308
    endloop
  endfacet
  facet normal 1 0 0
    outer loop
      vertex 7.505553499465135 0 25
      vertex 7.505553499465135 1 25
      vertex 7.505553499465135 48 27
    endloop
  endfacet
  facet normal 1 0 0
    outer loop
      vertex 7.505553499465135 0 25
      vertex 7.505553499465135 48 27
      vertex 7.505553499465135 0 27
    endloop
  endfacet
  facet normal 0.8607361424814268 0 0.5090513658032879
    outer loop
      vertex 7.505553499465135 0 27
      vertex 7.505553499465135 48 27
      vertex 1 0 38
    endloop
  endfacet
  facet normal -1 0 0
    outer loop
      vertex 0 0 38
      vertex 0 19.80636879113463 35.0658224455086
      vertex 0 18.156373505325462 34.177825757743136
    endloop
  endfacet
  facet normal -1 0 0
    outer loop
      vertex 0 0 38
      vertex 0 21.21019512808096 35.550266872241075
      vertex 0 19.80636879113463 35.0658224455086
    endloop
  endfacet
  facet normal -1 0 0
    outer loop
      vertex 0 0 38
      vertex 0 24 35.8759210154676
      vertex 0 21.21019512808096 35.550266872241075
    endloop
  endfacet
  facet normal 0 0 1
    outer loop
      vertex 0 0 38
      vertex 1 0 38
      vertex 0 48 38
    endloop
  endfacet
  facet normal 0 0 -1
    outer loop
      vertex 0 0 0
      vertex 0.9795918367346939 47.02040816326531 0
      vertex 1 47 0
    endloop
  endfacet
  facet normal 0.9677701301696039 0 -0.25183521428010786
    outer loop
      vertex 2.0408885599144213 1 4
      vertex 2.0408885599144213 47 4
      vertex 7.505553499465135 47 25
    endloop
  endfacet
  facet normal 1 0 0
    outer loop
      vertex 7.505553499465135 1 25
      vertex 7.505553499465135 47 25
      vertex 7.505553499465135 48 27
    endloop
  endfacet
  facet normal -1 0 0
    outer loop
      vertex 0 0 38
      vertex 0 48 38
      vertex 0 24 35.8759210154676
    endloop
  endfacet
  facet normal 0.8607361424814268 0 0.5090513658032879
    outer loop
      vertex 1 0 38
      vertex 7.505553499465135 48 27
      vertex 1 48 38
    endloop
  endfacet
  facet normal -1 0 0
    outer loop
      vertex 0 48 38
      vertex 0 26.78980487191904 35.550266872241075
      vertex 0 24 35.8759210154676
    endloop
  endfacet
  facet normal 0 0 1
    outer loop
      vertex 1 0 38
      vertex 1 48 38
      vertex 0 48 38
    endloop
  endfacet
  facet normal -1 0 0
    outer loop
      vertex 0 48 38
      vertex 0 28.19363120886537 35.0658224455086
      vertex 0 26.78980487191904 35.550266872241075
    endloop
  endfacet
  facet normal -1 0 0
    outer loop
      vertex 0 48 38
      vertex 0 29.843626494674538 34.177825757743136
      vertex 0 28.19363120886537 35.0658224455086
    endloop
  endfacet
  facet normal -1 0 0
    outer loop
      vertex 0 48 25
      vertex 0 34.31971822818395 28.56048770525413
      vertex 0 33.53587068007036 30.18361324672221
    endloop
  endfacet
  facet normal -1 0 0
    outer loop
      vertex 0 48 25
      vertex 0 34.8759210154676 25
      vertex 0 34.31971822818395 28.56048770525413
    endloop
  endfacet
  facet normal 0 1 0
    outer loop
      vertex 0 48 25
      vertex 7.505553499465135 48 27
      vertex 7.505553499465135 48 25
    endloop
  endfacet
  facet normal 1 0 0
    outer loop
      vertex 7.505553499465135 47 25
      vertex 7.505553499465135 48 25
      vertex 7.505553499465135 48 27
    endloop
  endfacet
  facet normal -1 0 0
    outer loop
      vertex 0 48 38
      vertex 0 32.3843610320215 31.96536501267308
      vertex 0 29.843626494674538 34.177825757743136
    endloop
  endfacet
  facet normal -1 0 0
    outer loop
      vertex 0 48 38
      vertex 0 33.53587068007036 30.18361324672221
      vertex 0 32.3843610320215 31.96536501267308
    endloop
  endfacet
  facet normal -1 0 0
    outer loop
      vertex 0 48 25
      vertex 0 33.53587068007036 30.18361324672221
      vertex 0 48 38
    endloop
  endfacet
  facet normal 0 1 0
    outer loop
      vertex 0 48 25
      vertex 0 48 38
      vertex 7.505553499465135 48 27
    endloop
  endfacet
  facet normal 0 1 0
    outer loop
      vertex 7.505553499465135 48 27
      vertex 0 48 38
      vertex 1 48 38
    endloop
  endfacet
  facet normal -0.7510264345127449 0.4336053141344579 0.4979414887488607
    outer loop
      vertex 1.1669308169477226 17.63682243184981 18.03463498732692
      vertex 0 18.156373505325462 15.822174242256866
      vertex 0 15.615638967978498 18.03463498732692
    endloop
  endfacet
  facet normal -0.8247663190155667 0.2679828218376705 0.4979414887488607
    outer loop
      vertex 1.1669308169477226 17.63682243184981 18.03463498732692
      vertex 0 19.80636879113463 14.934177554491397
      vertex 0 18.156373505325462 15.822174242256866
    endloop
  endfacet
  facet normal -0.708507881665544 0.23020816568938862 0.6670987798427834
    outer loop
      vertex 0.42666379801249477 21.119504938186353 14.934177554491397
      vertex 0 21.21019512808096 14.449733127758925
      vertex 0 19.80636879113463 14.934177554491397
    endloop
  endfacet
  facet normal -0.8247663190155669 0.2679828218376704 0.49794148874886074
    outer loop
      vertex 0.42666379801249477 21.119504938186353 14.934177554491397
      vertex 0 19.80636879113463 14.934177554491397
      vertex 2.177596845618698 20.747332629872762 18.03463498732692
    endloop
  endfacet
  facet normal -0.8247663190155667 0.2679828218376705 0.49794148874886063
    outer loop
      vertex 1.1669308169477226 17.63682243184981 18.03463498732692
      vertex 2.177596845618698 20.747332629872762 18.03463498732692
      vertex 0 19.80636879113463 14.934177554491397
    endloop
  endfacet
  facet normal -0.7408882535206787 0.0778704933036136 0.6670987798427835
    outer loop
      vertex 0.42666379801249477 21.119504938186353 14.934177554491397
      vertex 0 24 14.124078984532403
      vertex 0 21.21019512808096 14.449733127758925
    endloop
  endfacet
  facet normal -0.7408882535206789 0.07787049330361354 0.6670987798427834
    outer loop
      vertex 0.42666379801249477 21.119504938186353 14.934177554491397
      vertex 0.7294160286709754 24 14.934177554491397
      vertex 0 24 14.124078984532403
    endloop
  endfacet
  facet normal -0.8624599577095138 0.09064819430232605 0.4979414887488604
    outer loop
      vertex 0.42666379801249477 21.119504938186353 14.934177554491397
      vertex 2.519465962129539 24 18.03463498732692
      vertex 0.7294160286709754 24 14.934177554491397
    endloop
  endfacet
  facet normal -0.8624599577095137 0.09064819430232568 0.4979414887488605
    outer loop
      vertex 0.42666379801249477 21.119504938186353 14.934177554491397
      vertex 2.177596845618698 20.747332629872762 18.03463498732692
      vertex 2.519465962129539 24 18.03463498732692
    endloop
  endfacet
  facet normal -0.8240691157960905 0.47577652583573105 0.30748461726520826
    outer loop
      vertex 0.426663798012493 14.154139925513274 21.43951229474587
      vertex 0 15.615638967978498 18.03463498732692
      vertex 0 14.464129319929638 19.81638675327779
    endloop
  endfacet
  facet normal -0.7071417265168688 0.6367132704475466 0.3074846172652082
    outer loop
      vertex 0.426663798012493 14.154139925513274 21.43951229474587
      vertex 0 14.464129319929638 19.81638675327779
      vertex 0 13.680281771816045 21.43951229474587
    endloop
  endfacet
  facet normal -0.7391179203117906 0.6655047646617455 0.10396205118449912
    outer loop
      vertex 0.426663798012493 14.154139925513274 21.43951229474587
      vertex 0 13.680281771816045 21.43951229474587
      vertex 0 13.652612308299702 21.61663615480786
    endloop
  endfacet
  facet normal -0.7391179203117907 0.6655047646617454 0.10396205118449836
    outer loop
      vertex 0.426663798012493 14.154139925513274 21.43951229474587
      vertex 0 13.652612308299702 21.61663615480786
      vertex 0.7294160286709754 13.934177554491397 25
    endloop
  endfacet
  facet normal -0.8240691157960911 0.47577652583573016 0.307484617265208
    outer loop
      vertex 0.426663798012493 14.154139925513274 21.43951229474587
      vertex 2.1775968456186963 17.186844924618633 21.43951229474587
      vertex 0 15.615638967978498 18.03463498732692
    endloop
  endfacet
  facet normal -0.824069115796091 0.4757765258357299 0.3074846172652081
    outer loop
      vertex 1.1669308169477226 17.63682243184981 18.03463498732692
      vertex 0 15.615638967978498 18.03463498732692
      vertex 2.1775968456186963 17.186844924618633 21.43951229474587
    endloop
  endfacet
  facet normal -0.861332641280437 0.4972906323050717 0.10396205118449767
    outer loop
      vertex 0.426663798012493 14.154139925513274 21.43951229474587
      vertex 2.519465962129539 17.03463498732692 25
      vertex 2.1775968456186963 17.186844924618633 21.43951229474587
    endloop
  endfacet
  facet normal -0.7391179203117906 0.6655047646617455 0.10396205118449833
    outer loop
      vertex 0.7294160286709754 13.934177554491397 25
      vertex 0 13.652612308299702 21.61663615480786
      vertex 0 13.124078984532403 25
    endloop
  endfacet
  facet normal -0.7391179203117906 0.6655047646617456 -0.10396205118449836
    outer loop
      vertex 0.7294160286709754 13.934177554491397 25
      vertex 0 13.124078984532403 25
      vertex 0.426663798012493 14.154139925513274 28.56048770525413
    endloop
  endfacet
  facet normal -0.7391179203117907 0.6655047646617456 -0.10396205118449839
    outer loop
      vertex 0.426663798012493 14.154139925513274 28.56048770525413
      vertex 0 13.124078984532403 25
      vertex 0 13.680281771816045 28.56048770525413
    endloop
  endfacet
  facet normal -0.8613326412804372 0.49729063230507115 0.1039620511844983
    outer loop
      vertex 0.426663798012493 14.154139925513274 21.43951229474587
      vertex 0.7294160286709754 13.934177554491397 25
      vertex 2.519465962129539 17.03463498732692 25
    endloop
  endfacet
  facet normal -0.8613326412804373 0.49729063230507115 -0.10396205118449832
    outer loop
      vertex 0.7294160286709754 13.934177554491397 25
      vertex 0.426663798012493 14.154139925513274 28.56048770525413
      vertex 2.519465962129539 17.03463498732692 25
    endloop
  endfacet
  facet normal -0.861332641280437 0.4972906323050717 -0.10396205118449767
    outer loop
      vertex 0.426663798012493 14.154139925513274 28.56048770525413
      vertex 2.1775968456186963 17.186844924618633 28.56048770525413
      vertex 2.519465962129539 17.03463498732692 25
    endloop
  endfacet
  facet normal -0.9049807303926811 0.2940460640158235 0.30748461726520804
    outer loop
      vertex 1.1669308169477226 17.63682243184981 18.03463498732692
      vertex 2.1775968456186963 17.186844924618633 21.43951229474587
      vertex 3.2597329810647686 20.517317493663462 21.43951229474587
    endloop
  endfacet
  facet normal -0.9049807303926812 0.29404606401582395 0.3074846172652076
    outer loop
      vertex 1.1669308169477226 17.63682243184981 18.03463498732692
      vertex 3.2597329810647686 20.517317493663462 21.43951229474587
      vertex 2.177596845618698 20.747332629872762 18.03463498732692
    endloop
  endfacet
  facet normal -0.9459029926925512 0.30734251305146054 0.10396205118449804
    outer loop
      vertex 2.1775968456186963 17.186844924618633 21.43951229474587
      vertex 3.6257776625664206 20.43951229474587 25
      vertex 3.2597329810647686 20.517317493663462 21.43951229474587
    endloop
  endfacet
  facet normal -0.9463403444917652 0.09946437820886399 0.30748461726520776
    outer loop
      vertex 2.177596845618698 20.747332629872762 18.03463498732692
      vertex 3.2597329810647686 20.517317493663462 21.43951229474587
      vertex 3.6257776625664206 24 21.43951229474587
    endloop
  endfacet
  facet normal -0.946340344491765 0.09946437820886336 0.30748461726520837
    outer loop
      vertex 2.177596845618698 20.747332629872762 18.03463498732692
      vertex 3.6257776625664206 24 21.43951229474587
      vertex 2.519465962129539 24 18.03463498732692
    endloop
  endfacet
  facet normal -0.9891328443778539 0.10396205118449793 0.10396205118449793
    outer loop
      vertex 3.2597329810647686 20.517317493663462 21.43951229474587
      vertex 4 24 25
      vertex 3.6257776625664206 24 21.43951229474587
    endloop
  endfacet
  facet normal -0.9459029926925512 0.3073425130514609 0.10396205118449772
    outer loop
      vertex 2.1775968456186963 17.186844924618633 21.43951229474587
      vertex 2.519465962129539 17.03463498732692 25
      vertex 3.6257776625664206 20.43951229474587 25
    endloop
  endfacet
  facet normal -0.9459029926925512 0.3073425130514609 -0.10396205118449772
    outer loop
      vertex 2.519465962129539 17.03463498732692 25
      vertex 2.1775968456186963 17.186844924618633 28.56048770525413
      vertex 3.6257776625664206 20.43951229474587 25
    endloop
  endfacet
  facet normal -0.9459029926925512 0.30734251305146054 -0.10396205118449804
    outer loop
      vertex 2.1775968456186963 17.186844924618633 28.56048770525413
      vertex 3.2597329810647686 20.517317493663462 28.56048770525413
      vertex 3.6257776625664206 20.43951229474587 25
    endloop
  endfacet
  facet normal -0.9891328443778538 0.10396205118449794 0.10396205118449793
    outer loop
      vertex 3.2597329810647686 20.517317493663462 21.43951229474587
      vertex 3.6257776625664206 20.43951229474587 25
      vertex 4 24 25
    endloop
  endfacet
  facet normal -0.9891328443778538 0.10396205118449793 -0.10396205118449792
    outer loop
      vertex 3.6257776625664206 20.43951229474587 25
      vertex 3.2597329810647686 20.517317493663462 28.56048770525413
      vertex 4 24 25
    endloop
  endfacet
  facet normal -0.9891328443778539 0.10396205118449793 -0.10396205118449793
    outer loop
      vertex 3.2597329810647686 20.517317493663462 28.56048770525413
      vertex 3.6257776625664206 24 28.56048770525413
      vertex 4 24 25
    endloop
  endfacet
  facet normal -0.7071417265168688 0.6367132704475466 -0.3074846172652082
    outer loop
      vertex 0.426663798012493 14.154139925513274 28.56048770525413
      vertex 0 13.680281771816045 28.56048770525413
      vertex 0 14.464129319929638 30.18361324672221
    endloop
  endfacet
  facet normal -0.824069115796091 0.47577652583573016 -0.3074846172652082
    outer loop
      vertex 0.426663798012493 14.154139925513274 28.56048770525413
      vertex 0 14.464129319929638 30.18361324672221
      vertex 2.1775968456186963 17.186844924618633 28.56048770525413
    endloop
  endfacet
  facet normal -0.824069115796091 0.47577652583573016 -0.3074846172652081
    outer loop
      vertex 2.1775968456186963 17.186844924618633 28.56048770525413
      vertex 0 14.464129319929638 30.18361324672221
      vertex 1.1669308169477226 17.63682243184981 31.96536501267308
    endloop
  endfacet
  facet normal -0.8240691157960912 0.47577652583572994 -0.30748461726520754
    outer loop
      vertex 1.1669308169477226 17.63682243184981 31.96536501267308
      vertex 0 14.464129319929638 30.18361324672221
      vertex 0 15.615638967978498 31.96536501267308
    endloop
  endfacet
  facet normal -0.751026434512745 0.433605314134458 -0.4979414887488604
    outer loop
      vertex 1.1669308169477226 17.63682243184981 31.96536501267308
      vertex 0 15.615638967978498 31.96536501267308
      vertex 0 18.156373505325462 34.177825757743136
    endloop
  endfacet
  facet normal -0.9049807303926811 0.29404606401582345 -0.3074846172652081
    outer loop
      vertex 2.1775968456186963 17.186844924618633 28.56048770525413
      vertex 1.1669308169477226 17.63682243184981 31.96536501267308
      vertex 3.2597329810647686 20.517317493663462 28.56048770525413
    endloop
  endfacet
  facet normal -0.9049807303926812 0.29404606401582395 -0.3074846172652076
    outer loop
      vertex 1.1669308169477226 17.63682243184981 31.96536501267308
      vertex 2.177596845618698 20.747332629872762 31.96536501267308
      vertex 3.2597329810647686 20.517317493663462 28.56048770525413
    endloop
  endfacet
  facet normal -0.8247663190155669 0.2679828218376705 -0.49794148874886035
    outer loop
      vertex 1.1669308169477226 17.63682243184981 31.96536501267308
      vertex 0 18.156373505325462 34.177825757743136
      vertex 2.177596845618698 20.747332629872762 31.96536501267308
    endloop
  endfacet
  facet normal -0.9463403444917652 0.099464378208864 -0.30748461726520776
    outer loop
      vertex 3.2597329810647686 20.517317493663462 28.56048770525413
      vertex 2.177596845618698 20.747332629872762 31.96536501267308
      vertex 3.6257776625664206 24 28.56048770525413
    endloop
  endfacet
  facet normal -0.946340344491765 0.09946437820886336 -0.30748461726520837
    outer loop
      vertex 2.177596845618698 20.747332629872762 31.96536501267308
      vertex 2.519465962129539 24 31.96536501267308
      vertex 3.6257776625664206 24 28.56048770525413
    endloop
  endfacet
  facet normal -0.8624599577095134 0.09064819430232572 -0.49794148874886074
    outer loop
      vertex 2.177596845618698 20.747332629872762 31.96536501267308
      vertex 0.42666379801249477 21.119504938186353 35.0658224455086
      vertex 2.519465962129539 24 31.96536501267308
    endloop
  endfacet
  facet normal -0.8247663190155667 0.26798282183767 -0.497941488748861
    outer loop
      vertex 2.177596845618698 20.747332629872762 31.96536501267308
      vertex 0 18.156373505325462 34.177825757743136
      vertex 0.42666379801249477 21.119504938186353 35.0658224455086
    endloop
  endfacet
  facet normal -0.8247663190155661 0.2679828218376702 -0.49794148874886207
    outer loop
      vertex 0.42666379801249477 21.119504938186353 35.0658224455086
      vertex 0 18.156373505325462 34.177825757743136
      vertex 0 19.80636879113463 35.0658224455086
    endloop
  endfacet
  facet normal -0.7085078816655451 0.23020816568938898 -0.6670987798427821
    outer loop
      vertex 0.42666379801249477 21.119504938186353 35.0658224455086
      vertex 0 19.80636879113463 35.0658224455086
      vertex 0 21.21019512808096 35.550266872241075
    endloop
  endfacet
  facet normal -0.7408882535206798 0.07787049330361363 -0.6670987798427821
    outer loop
      vertex 0.42666379801249477 21.119504938186353 35.0658224455086
      vertex 0 21.21019512808096 35.550266872241075
      vertex 0.7294160286709754 24 35.0658224455086
    endloop
  endfacet
  facet normal -0.8624599577095136 0.09064819430232604 -0.4979414887488606
    outer loop
      vertex 0.42666379801249477 21.119504938186353 35.0658224455086
      vertex 0.7294160286709754 24 35.0658224455086
      vertex 2.519465962129539 24 31.96536501267308
    endloop
  endfacet
  facet normal -0.7408882535206796 0.07787049330361351 -0.6670987798427824
    outer loop
      vertex 0.7294160286709754 24 35.0658224455086
      vertex 0 21.21019512808096 35.550266872241075
      vertex 0 24 35.8759210154676
    endloop
  endfacet
  facet normal -0.7408882535206788 -0.07787049330361359 0.6670987798427833
    outer loop
      vertex 0.7294160286709754 24 14.934177554491397
      vertex 0 26.78980487191904 14.449733127758925
      vertex 0 24 14.124078984532403
    endloop
  endfacet
  facet normal -0.8624599577095138 -0.09064819430232605 0.4979414887488604
    outer loop
      vertex 0.7294160286709754 24 14.934177554491397
      vertex 2.519465962129539 24 18.03463498732692
      vertex 0.42666379801249477 26.880495061813647 14.934177554491397
    endloop
  endfacet
  facet normal -0.7408882535206786 -0.07787049330361351 0.6670987798427834
    outer loop
      vertex 0.7294160286709754 24 14.934177554491397
      vertex 0.42666379801249477 26.880495061813647 14.934177554491397
      vertex 0 26.78980487191904 14.449733127758925
    endloop
  endfacet
  facet normal -0.8624599577095137 -0.09064819430232568 0.4979414887488605
    outer loop
      vertex 0.42666379801249477 26.880495061813647 14.934177554491397
      vertex 2.519465962129539 24 18.03463498732692
      vertex 2.177596845618698 27.252667370127238 18.03463498732692
    endloop
  endfacet
  facet normal -0.708507881665544 -0.23020816568938862 0.6670987798427834
    outer loop
      vertex 0.42666379801249477 26.880495061813647 14.934177554491397
      vertex 0 28.19363120886537 14.934177554491397
      vertex 0 26.78980487191904 14.449733127758925
    endloop
  endfacet
  facet normal -0.8247663190155669 -0.26798282183767047 0.4979414887488606
    outer loop
      vertex 0.42666379801249477 26.880495061813647 14.934177554491397
      vertex 0 29.843626494674538 15.822174242256866
      vertex 0 28.19363120886537 14.934177554491397
    endloop
  endfacet
  facet normal -0.8247663190155666 -0.2679828218376704 0.4979414887488607
    outer loop
      vertex 0.42666379801249477 26.880495061813647 14.934177554491397
      vertex 2.177596845618698 27.252667370127238 18.03463498732692
      vertex 0 29.843626494674538 15.822174242256866
    endloop
  endfacet
  facet normal -0.8247663190155669 -0.2679828218376705 0.4979414887488608
    outer loop
      vertex 2.177596845618698 27.252667370127238 18.03463498732692
      vertex 1.1669308169477226 30.36317756815019 18.03463498732692
      vertex 0 29.843626494674538 15.822174242256866
    endloop
  endfacet
  facet normal -0.7510264345127449 -0.4336053141344579 0.4979414887488607
    outer loop
      vertex 1.1669308169477226 30.36317756815019 18.03463498732692
      vertex 0 32.3843610320215 18.03463498732692
      vertex 0 29.843626494674538 15.822174242256866
    endloop
  endfacet
  facet normal -0.8240691157960914 -0.47577652583573005 0.3074846172652072
    outer loop
      vertex 1.1669308169477226 30.36317756815019 18.03463498732692
      vertex 0 33.53587068007036 19.81638675327779
      vertex 0 32.3843610320215 18.03463498732692
    endloop
  endfacet
  facet normal -0.9463403444917652 -0.09946437820886338 0.30748461726520837
    outer loop
      vertex 2.519465962129539 24 18.03463498732692
      vertex 3.6257776625664206 24 21.43951229474587
      vertex 2.177596845618698 27.252667370127238 18.03463498732692
    endloop
  endfacet
  facet normal -0.9463403444917652 -0.09946437820886399 0.30748461726520776
    outer loop
      vertex 2.177596845618698 27.252667370127238 18.03463498732692
      vertex 3.6257776625664206 24 21.43951229474587
      vertex 3.2597329810647686 27.482682506336538 21.43951229474587
    endloop
  endfacet
  facet normal -0.9891328443778539 -0.10396205118449793 0.10396205118449794
    outer loop
      vertex 3.6257776625664206 24 21.43951229474587
      vertex 4 24 25
      vertex 3.2597329810647686 27.482682506336538 21.43951229474587
    endloop
  endfacet
  facet normal -0.9049807303926812 -0.29404606401582395 0.30748461726520765
    outer loop
      vertex 2.177596845618698 27.252667370127238 18.03463498732692
      vertex 3.2597329810647686 27.482682506336538 21.43951229474587
      vertex 1.1669308169477226 30.36317756815019 18.03463498732692
    endloop
  endfacet
  facet normal -0.9049807303926811 -0.29404606401582345 0.30748461726520804
    outer loop
      vertex 3.2597329810647686 27.482682506336538 21.43951229474587
      vertex 2.1775968456186963 30.813155075381367 21.43951229474587
      vertex 1.1669308169477226 30.36317756815019 18.03463498732692
    endloop
  endfacet
  facet normal -0.9459029926925512 -0.30734251305146054 0.10396205118449804
    outer loop
      vertex 3.2597329810647686 27.482682506336538 21.43951229474587
      vertex 3.6257776625664206 27.56048770525413 25
      vertex 2.1775968456186963 30.813155075381367 21.43951229474587
    endloop
  endfacet
  facet normal -0.9891328443778538 -0.10396205118449794 0.10396205118449793
    outer loop
      vertex 3.2597329810647686 27.482682506336538 21.43951229474587
      vertex 4 24 25
      vertex 3.6257776625664206 27.56048770525413 25
    endloop
  endfacet
  facet normal -0.9891328443778538 -0.10396205118449793 -0.10396205118449793
    outer loop
      vertex 4 24 25
      vertex 3.6257776625664206 24 28.56048770525413
      vertex 3.2597329810647686 27.482682506336538 28.56048770525413
    endloop
  endfacet
  facet normal -0.9891328443778538 -0.10396205118449793 -0.10396205118449793
    outer loop
      vertex 4 24 25
      vertex 3.2597329810647686 27.482682506336538 28.56048770525413
      vertex 3.6257776625664206 27.56048770525413 25
    endloop
  endfacet
  facet normal -0.9459029926925512 -0.3073425130514609 0.10396205118449772
    outer loop
      vertex 2.1775968456186963 30.813155075381367 21.43951229474587
      vertex 3.6257776625664206 27.56048770525413 25
      vertex 2.519465962129539 30.96536501267308 25
    endloop
  endfacet
  facet normal -0.9459029926925512 -0.3073425130514609 -0.10396205118449772
    outer loop
      vertex 3.6257776625664206 27.56048770525413 25
      vertex 2.1775968456186963 30.813155075381367 28.56048770525413
      vertex 2.519465962129539 30.96536501267308 25
    endloop
  endfacet
  facet normal -0.9459029926925512 -0.30734251305146054 -0.10396205118449804
    outer loop
      vertex 3.6257776625664206 27.56048770525413 25
      vertex 3.2597329810647686 27.482682506336538 28.56048770525413
      vertex 2.1775968456186963 30.813155075381367 28.56048770525413
    endloop
  endfacet
  facet normal -0.8240691157960909 -0.47577652583573043 0.30748461726520815
    outer loop
      vertex 1.1669308169477226 30.36317756815019 18.03463498732692
      vertex 2.1775968456186963 30.813155075381367 21.43951229474587
      vertex 0 33.53587068007036 19.81638675327779
    endloop
  endfacet
  facet normal -0.8240691157960909 -0.47577652583573066 0.3074846172652078
    outer loop
      vertex 2.1775968456186963 30.813155075381367 21.43951229474587
      vertex 0.426663798012493 33.84586007448672 21.43951229474587
      vertex 0 33.53587068007036 19.81638675327779
    endloop
  endfacet
  facet normal -0.8613326412804366 -0.49729063230507214 0.10396205118449764
    outer loop
      vertex 2.1775968456186963 30.813155075381367 21.43951229474587
      vertex 2.519465962129539 30.96536501267308 25
      vertex 0.426663798012493 33.84586007448672 21.43951229474587
    endloop
  endfacet
  facet normal -0.7071417265168689 -0.6367132704475467 0.30748461726520754
    outer loop
      vertex 0.426663798012493 33.84586007448672 21.43951229474587
      vertex 0 34.31971822818395 21.43951229474587
      vertex 0 33.53587068007036 19.81638675327779
    endloop
  endfacet
  facet normal -0.7391179203117905 -0.6655047646617455 0.10396205118449903
    outer loop
      vertex 0.426663798012493 33.84586007448672 21.43951229474587
      vertex 0 34.8759210154676 25
      vertex 0 34.31971822818395 21.43951229474587
    endloop
  endfacet
  facet normal -0.8613326412804371 -0.4972906323050714 0.10396205118449857
    outer loop
      vertex 0.426663798012493 33.84586007448672 21.43951229474587
      vertex 2.519465962129539 30.96536501267308 25
      vertex 0.7294160286709754 34.0658224455086 25
    endloop
  endfacet
  facet normal -0.8613326412804371 -0.4972906323050713 -0.10396205118449857
    outer loop
      vertex 2.519465962129539 30.96536501267308 25
      vertex 0.426663798012493 33.84586007448672 28.56048770525413
      vertex 0.7294160286709754 34.0658224455086 25
    endloop
  endfacet
  facet normal -0.8613326412804365 -0.49729063230507214 -0.10396205118449761
    outer loop
      vertex 2.519465962129539 30.96536501267308 25
      vertex 2.1775968456186963 30.813155075381367 28.56048770525413
      vertex 0.426663798012493 33.84586007448672 28.56048770525413
    endloop
  endfacet
  facet normal -0.7391179203117914 -0.6655047646617447 0.10396205118449871
    outer loop
      vertex 0.426663798012493 33.84586007448672 21.43951229474587
      vertex 0.7294160286709754 34.0658224455086 25
      vertex 0 34.8759210154676 25
    endloop
  endfacet
  facet normal -0.7391179203117912 -0.6655047646617447 -0.1039620511844989
    outer loop
      vertex 0.7294160286709754 34.0658224455086 25
      vertex 0 34.31971822818395 28.56048770525413
      vertex 0 34.8759210154676 25
    endloop
  endfacet
  facet normal -0.7391179203117906 -0.6655047646617457 -0.1039620511844987
    outer loop
      vertex 0.7294160286709754 34.0658224455086 25
      vertex 0.426663798012493 33.84586007448672 28.56048770525413
      vertex 0 34.31971822818395 28.56048770525413
    endloop
  endfacet
  facet normal -0.9463403444917652 -0.09946437820886335 -0.30748461726520837
    outer loop
      vertex 3.6257776625664206 24 28.56048770525413
      vertex 2.519465962129539 24 31.96536501267308
      vertex 2.177596845618698 27.252667370127238 31.96536501267308
    endloop
  endfacet
  facet normal -0.9463403444917652 -0.099464378208864 -0.30748461726520776
    outer loop
      vertex 3.6257776625664206 24 28.56048770525413
      vertex 2.177596845618698 27.252667370127238 31.96536501267308
      vertex 3.2597329810647686 27.482682506336538 28.56048770525413
    endloop
  endfacet
  facet normal -0.8624599577095134 -0.09064819430232572 -0.49794148874886074
    outer loop
      vertex 2.519465962129539 24 31.96536501267308
      vertex 0.42666379801249477 26.880495061813647 35.0658224455086
      vertex 2.177596845618698 27.252667370127238 31.96536501267308
    endloop
  endfacet
  facet normal -0.9049807303926812 -0.29404606401582395 -0.30748461726520765
    outer loop
      vertex 3.2597329810647686 27.482682506336538 28.56048770525413
      vertex 2.177596845618698 27.252667370127238 31.96536501267308
      vertex 1.1669308169477226 30.36317756815019 31.96536501267308
    endloop
  endfacet
  facet normal -0.9049807303926811 -0.29404606401582345 -0.30748461726520804
    outer loop
      vertex 3.2597329810647686 27.482682506336538 28.56048770525413
      vertex 1.1669308169477226 30.36317756815019 31.96536501267308
      vertex 2.1775968456186963 30.813155075381367 28.56048770525413
    endloop
  endfacet
  facet normal -0.8247663190155666 -0.2679828218376705 -0.4979414887488609
    outer loop
      vertex 2.177596845618698 27.252667370127238 31.96536501267308
      vertex 0 28.19363120886537 35.0658224455086
      vertex 1.1669308169477226 30.36317756815019 31.96536501267308
    endloop
  endfacet
  facet normal -0.8624599577095136 -0.09064819430232601 -0.4979414887488606
    outer loop
      vertex 2.519465962129539 24 31.96536501267308
      vertex 0.7294160286709754 24 35.0658224455086
      vertex 0.42666379801249477 26.880495061813647 35.0658224455086
    endloop
  endfacet
  facet normal -0.7408882535206797 -0.0778704933036136 -0.6670987798427825
    outer loop
      vertex 0.7294160286709754 24 35.0658224455086
      vertex 0 24 35.8759210154676
      vertex 0.42666379801249477 26.880495061813647 35.0658224455086
    endloop
  endfacet
  facet normal -0.74088825352068 -0.07787049330361345 -0.6670987798427821
    outer loop
      vertex 0.42666379801249477 26.880495061813647 35.0658224455086
      vertex 0 24 35.8759210154676
      vertex 0 26.78980487191904 35.550266872241075
    endloop
  endfacet
  facet normal -0.8247663190155665 -0.2679828218376705 -0.49794148874886096
    outer loop
      vertex 2.177596845618698 27.252667370127238 31.96536501267308
      vertex 0.42666379801249477 26.880495061813647 35.0658224455086
      vertex 0 28.19363120886537 35.0658224455086
    endloop
  endfacet
  facet normal -0.7085078816655451 -0.23020816568938898 -0.6670987798427821
    outer loop
      vertex 0.42666379801249477 26.880495061813647 35.0658224455086
      vertex 0 26.78980487191904 35.550266872241075
      vertex 0 28.19363120886537 35.0658224455086
    endloop
  endfacet
  facet normal -0.8247663190155674 -0.2679828218376692 -0.4979414887488604
    outer loop
      vertex 1.1669308169477226 30.36317756815019 31.96536501267308
      vertex 0 28.19363120886537 35.0658224455086
      vertex 0 29.843626494674538 34.177825757743136
    endloop
  endfacet
  facet normal -0.824069115796091 -0.47577652583572994 -0.30748461726520815
    outer loop
      vertex 2.1775968456186963 30.813155075381367 28.56048770525413
      vertex 1.1669308169477226 30.36317756815019 31.96536501267308
      vertex 0 32.3843610320215 31.96536501267308
    endloop
  endfacet
  facet normal -0.8240691157960909 -0.47577652583573066 -0.30748461726520776
    outer loop
      vertex 2.1775968456186963 30.813155075381367 28.56048770525413
      vertex 0 32.3843610320215 31.96536501267308
      vertex 0.426663798012493 33.84586007448672 28.56048770525413
    endloop
  endfacet
  facet normal -0.751026434512745 -0.433605314134458 -0.4979414887488604
    outer loop
      vertex 1.1669308169477226 30.36317756815019 31.96536501267308
      vertex 0 29.843626494674538 34.177825757743136
      vertex 0 32.3843610320215 31.96536501267308
    endloop
  endfacet
  facet normal -0.7071417265168689 -0.6367132704475467 -0.30748461726520754
    outer loop
      vertex 0.426663798012493 33.84586007448672 28.56048770525413
      vertex 0 33.53587068007036 30.18361324672221
      vertex 0 34.31971822818395 28.56048770525413
    endloop
  endfacet
  facet normal -0.8240691157960907 -0.47577652583573093 -0.30748461726520776
    outer loop
      vertex 0.426663798012493 33.84586007448672 28.56048770525413
      vertex 0 32.3843610320215 31.96536501267308
      vertex 0 33.53587068007036 30.18361324672221
    endloop
  endfacet
endsolid OpenSCAD_Model
