solid OpenSCAD_Model
  facet normal -1 0 0
    outer loop
      vertex 0 0 0
      vertex 0 5.125357504457472 16.28458069978127
      vertex 0 5.656373505325463 15.822174242256866
    endloop
  endfacet
  facet normal -1 0 0
    outer loop
      vertex 0 0 0
      vertex 0 5.656373505325463 15.822174242256866
      vertex 0 7.306368791134631 14.934177554491397
    endloop
  endfacet
  facet normal -1 0 0
    outer loop
      vertex 0 0 0
      vertex 0 7.306368791134631 14.934177554491397
      vertex 0 8.71019512808096 14.449733127758925
    endloop
  endfacet
  facet normal 0 0 -1
    outer loop
      vertex 0.53 0 0
      vertex 0.53 22.47 0
      vertex 3 3 0
    endloop
  endfacet
  facet normal -1 0 0
    outer loop
      vertex 0 0 0
      vertex 0 8.71019512808096 14.449733127758925
      vertex 0 11.5 14.124078984532403
    endloop
  endfacet
  facet normal -1 0 0
    outer loop
      vertex 0 0 0
      vertex 0 11.5 14.124078984532403
      vertex 0 14.28980487191904 14.449733127758925
    endloop
  endfacet
  facet normal 0 0 -1
    outer loop
      vertex 0.53 0 0
      vertex 3 3 0
      vertex 70 3 0
    endloop
  endfacet
  facet normal 0 -1 0
    outer loop
      vertex 0.53 0 0
      vertex 73 0 25
      vertex 7.505553499465135 0 25
    endloop
  endfacet
  facet normal 0 0 1
    outer loop
      vertex 7.505553499465135 0 25
      vertex 72.47 0.53 25
      vertex 7.505553499465135 0.53 25
    endloop
  endfacet
  facet normal -1 0 0
    outer loop
      vertex 0 0 0
      vertex 0 14.28980487191904 14.449733127758925
      vertex 0 23 0
    endloop
  endfacet
  facet normal 0 0 -1
    outer loop
      vertex 0 0 0
      vertex 0 23 0
      vertex 0.5180620484487888 22.48193795155121 0
    endloop
  endfacet
  facet normal 0 0 -1
    outer loop
      vertex 3 3 0
      vertex 0.53 22.47 0
      vertex 3 20 0
    endloop
  endfacet
  facet normal -1 0 0
    outer loop
      vertex 0 23 0
      vertex 0 14.28980487191904 14.449733127758925
      vertex 0 15.69363120886537 14.934177554491397
    endloop
  endfacet
  facet normal -1 0 0
    outer loop
      vertex 0 23 0
      vertex 0 15.69363120886537 14.934177554491397
      vertex 0 17.343626494674538 15.822174242256866
    endloop
  endfacet
  facet normal -1 0 0
    outer loop
      vertex 0 23 0
      vertex 0 17.343626494674538 15.822174242256866
      vertex 0 19.884361032021502 18.03463498732692
    endloop
  endfacet
  facet normal -1 0 0
    outer loop
      vertex 0 23 0
      vertex 0 19.884361032021502 18.03463498732692
      vertex 0 21.03587068007036 19.81638675327779
    endloop
  endfacet
  facet normal -1 0 0
    outer loop
      vertex 0 23 0
      vertex 0 21.03587068007036 19.81638675327779
      vertex 0 21.819718228183955 21.43951229474587
    endloop
  endfacet
  facet normal -1 0 0
    outer loop
      vertex 0 23 0
      vertex 0 21.819718228183955 21.43951229474587
      vertex 0 22.375921015467597 25
    endloop
  endfacet
  facet normal -1 0 0
    outer loop
      vertex 0 23 0
      vertex 0 22.375921015467597 25
      vertex 0 23 25
    endloop
  endfacet
  facet normal 0 0 -1
    outer loop
      vertex 4 15 0
      vertex 4 15.53 0
      vertex 69 15.53 0
    endloop
  endfacet
  facet normal 0 0 -1
    outer loop
      vertex 0.5180620484487888 22.48193795155121 0
      vertex 0 23 0
      vertex 73 23 0
    endloop
  endfacet
  facet normal 0 0 -1
    outer loop
      vertex 0.53 22.47 0
      vertex 0.5180620484487888 22.48193795155121 0
      vertex 73 23 0
    endloop
  endfacet
  facet normal 0 0 -1
    outer loop
      vertex 3 20 0
      vertex 0.53 22.47 0
      vertex 73 23 0
    endloop
  endfacet
  facet normal 0 1 0
    outer loop
      vertex 0 23 0
      vertex 0 23 25
      vertex 73 23 0
    endloop
  endfacet
  facet normal 0 1 0
    outer loop
      vertex 0 23 25
      vertex 7.505553499465135 23 25
      vertex 73 23 0
    endloop
  endfacet
  facet normal 0 0 1
    outer loop
      vertex 7.505553499465135 22.470000000000002 25
      vertex 72.47 22.470000000000002 25
      vertex 7.505553499465135 23 25
    endloop
  endfacet
  facet normal 0 0 -1
    outer loop
      vertex 0.53 0 0
      vertex 70 3 0
      vertex 73 0 0
    endloop
  endfacet
  facet normal 0 -1 0
    outer loop
      vertex 0.53 0 0
      vertex 73 0 0
      vertex 73 0 25
    endloop
  endfacet
  facet normal 1 0 0
    outer loop
      vertex 73 0 0
      vertex 73 23 0
      vertex 73 0 25
    endloop
  endfacet
  facet normal 0 0 -1
    outer loop
      vertex 73 0 0
      vertex 70 3 0
      vertex 73 23 0
    endloop
  endfacet
  facet normal 0 0 1
    outer loop
      vertex 7.505553499465135 0 25
      vertex 73 0 25
      vertex 72.47 0.53 25
    endloop
  endfacet
  facet normal 0 0 1
    outer loop
      vertex 73 0 25
      vertex 73 23 25
      vertex 72.47 0.53 25
    endloop
  endfacet
  facet normal 0 0 -1
    outer loop
      vertex 4 15 0
      vertex 69 15.53 0
      vertex 69 15 0
    endloop
  endfacet
  facet normal 0 0 -1
    outer loop
      vertex 3 20 0
      vertex 73 23 0
      vertex 70 20 0
    endloop
  endfacet
  facet normal 0 1 0
    outer loop
      vertex 7.505553499465135 23 25
      vertex 73 23 25
      vertex 73 23 0
    endloop
  endfacet
  facet normal 0 0 -1
    outer loop
      vertex 70 3 0
      vertex 70 20 0
      vertex 73 23 0
    endloop
  endfacet
  facet normal 1 0 0
    outer loop
      vertex 73 0 25
      vertex 73 23 0
      vertex 73 23 25
    endloop
  endfacet
  facet normal 0 0 1
    outer loop
      vertex 7.505553499465135 23 25
      vertex 72.47 22.470000000000002 25
      vertex 73 23 25
    endloop
  endfacet
  facet normal 0 0 1
    outer loop
      vertex 72.47 0.53 25
      vertex 73 23 25
      vertex 72.47 22.470000000000002 25
    endloop
  endfacet
  facet normal 0 1 0
    outer loop
      vertex 1.6460885599144215 0.53 4
      vertex 7.505553499465135 0.53 25
      vertex 72.47 0.53 4
    endloop
  endfacet
  facet normal 0 0 1
    outer loop
      vertex 1.6460885599144215 0.53 4
      vertex 72.47 22.470000000000002 4
      vertex 1.6460885599144213 22.470000000000002 4
    endloop
  endfacet
  facet normal 0 -1 0
    outer loop
      vertex 1.6460885599144213 22.470000000000002 4
      vertex 72.47 22.470000000000002 25
      vertex 7.505553499465135 22.470000000000002 25
    endloop
  endfacet
  facet normal 0 1 0
    outer loop
      vertex 7.505553499465135 0.53 25
      vertex 72.47 0.53 25
      vertex 72.47 0.53 4
    endloop
  endfacet
  facet normal 0 0 1
    outer loop
      vertex 1.6460885599144215 0.53 4
      vertex 72.47 0.53 4
      vertex 72.47 22.470000000000002 4
    endloop
  endfacet
  facet normal -1 0 0
    outer loop
      vertex 72.47 0.53 4
      vertex 72.47 0.53 25
      vertex 72.47 22.470000000000002 4
    endloop
  endfacet
  facet normal 0 -1 0
    outer loop
      vertex 1.6460885599144213 22.470000000000002 4
      vertex 72.47 22.470000000000002 4
      vertex 72.47 22.470000000000002 25
    endloop
  endfacet
  facet normal -1 0 0
    outer loop
      vertex 72.47 0.53 25
      vertex 72.47 22.470000000000002 25
      vertex 72.47 22.470000000000002 4
    endloop
  endfacet
  facet normal -1 0 0
    outer loop
      vertex 4 15 0
      vertex 4 15.53 2.75
      vertex 4 15.53 0
    endloop
  endfacet
  facet normal -1 0 0
    outer loop
      vertex 4 15 0
      vertex 4 15 2.75
      vertex 4 15.53 2.75
    endloop
  endfacet
  facet normal 0 -1 0
    outer loop
      vertex 4 15 0
      vertex 69 15 2.75
      vertex 4 15 2.75
    endloop
  endfacet
  facet normal 0 1 0
    outer loop
      vertex 4 15.53 0
      vertex 4 15.53 2.75
      vertex 69 15.53 0
    endloop
  endfacet
  facet normal 0 0 1
    outer loop
      vertex 4 15 2.75
      vertex 69 15 2.75
      vertex 4 15.53 2.75
    endloop
  endfacet
  facet normal 0 -1 0
    outer loop
      vertex 4 15 0
      vertex 69 15 0
      vertex 69 15 2.75
    endloop
  endfacet
  facet normal 0 1 0
    outer loop
      vertex 4 15.53 2.75
      vertex 69 15.53 2.75
      vertex 69 15.53 0
    endloop
  endfacet
  facet normal 0 0 1
    outer loop
      vertex 4 15.53 2.75
      vertex 69 15 2.75
      vertex 69 15.53 2.75
    endloop
  endfacet
  facet normal 1 0 0
    outer loop
      vertex 69 15 0
      vertex 69 15.53 0
      vertex 69 15 2.75
    endloop
  endfacet
  facet normal 1 0 0
    outer loop
      vertex 69 15.53 0
      vertex 69 15.53 2.75
      vertex 69 15 2.75
    endloop
  endfacet
  facet normal 1 0 0
    outer loop
      vertex 3 3 0
      vertex 3 20 3
      vertex 3 3 3
    endloop
  endfacet
  facet normal 0 1 0
    outer loop
      vertex 3 3 0
      vertex 3 3 3
      vertex 70 3 0
    endloop
  endfacet
  facet normal 0 0 -1
    outer loop
      vertex 3 3 3
      vertex 3 20 3
      vertex 70 3 3
    endloop
  endfacet
  facet normal 1 0 0
    outer loop
      vertex 3 3 0
      vertex 3 20 0
      vertex 3 20 3
    endloop
  endfacet
  facet normal 0 -1 0
    outer loop
      vertex 3 20 0
      vertex 70 20 3
      vertex 3 20 3
    endloop
  endfacet
  facet normal 0 1 0
    outer loop
      vertex 3 3 3
      vertex 70 3 3
      vertex 70 3 0
    endloop
  endfacet
  facet normal -1 0 0
    outer loop
      vertex 70 3 0
      vertex 70 3 3
      vertex 70 20 0
    endloop
  endfacet
  facet normal 0 0 -1
    outer loop
      vertex 3 20 3
      vertex 70 20 3
      vertex 70 3 3
    endloop
  endfacet
  facet normal 0 -1 0
    outer loop
      vertex 3 20 0
      vertex 70 20 0
      vertex 70 20 3
    endloop
  endfacet
  facet normal -1 0 0
    outer loop
      vertex 70 3 3
      vertex 70 20 3
      vertex 70 20 0
    endloop
  endfacet
  facet normal 0 -1 0
    outer loop
      vertex 0 0 0
      vertex 0.53 0 0
      vertex 7.505553499465135 0 25
    endloop
  endfacet
  facet normal -1 0 0
    outer loop
      vertex 0 0 0
      vertex 0 1.1802817718160439 21.43951229474587
      vertex 0 1.9641293199296386 19.81638675327779
    endloop
  endfacet
  facet normal -1 0 0
    outer loop
      vertex 0 0 0
      vertex 0 3.115638967978499 18.03463498732692
      vertex 0 5.125357504457472 16.28458069978127
    endloop
  endfacet
  facet normal -1 0 0
    outer loop
      vertex 0 0 0
      vertex 0 1.9641293199296386 19.81638675327779
      vertex 0 3.115638967978499 18.03463498732692
    endloop
  endfacet
  facet normal -1 0 0
    outer loop
      vertex 0 0 0
      vertex 0 0.6240789845324024 25
      vertex 0 1.1802817718160439 21.43951229474587
    endloop
  endfacet
  facet normal 0 0 -1
    outer loop
      vertex 0 0 0
      vertex 0.5180620484487888 22.48193795155121 0
      vertex 0.53 0 0
    endloop
  endfacet
  facet normal 0.9632081777555864 0 -0.26875640700225667
    outer loop
      vertex 1.6460885599144215 0.53 4
      vertex 7.505553499465135 22.470000000000002 25
      vertex 7.505553499465135 0.53 25
    endloop
  endfacet
  facet normal -1 0 0
    outer loop
      vertex 0 0 0
      vertex 0 0 38
      vertex 0 0.6240789845324024 25
    endloop
  endfacet
  facet normal 0 -1 0
    outer loop
      vertex 0 0 0
      vertex 7.505553499465135 0 25
      vertex 0 0 38
    endloop
  endfacet
  facet normal -1 0 0
    outer loop
      vertex 0 0 38
      vertex 0 1.1802817718160439 28.56048770525413
      vertex 0 0.6240789845324024 25
    endloop
  endfacet
  facet normal -1 0 0
    outer loop
      vertex 0 0 38
      vertex 0 1.9641293199296386 30.18361324672221
      vertex 0 1.1802817718160439 28.56048770525413
    endloop
  endfacet
  facet normal 0 -1 0
    outer loop
      vertex 7.505553499465135 0 25
      vertex 7.505553499465135 0 27
      vertex 0.53 0 38
    endloop
  endfacet
  facet normal 0 -1 0
    outer loop
      vertex 7.505553499465135 0 25
      vertex 0.53 0 38
      vertex 0 0 38
    endloop
  endfacet
  facet normal -1 0 0
    outer loop
      vertex 0 0 38
      vertex 0 3.115638967978499 31.96536501267308
      vertex 0 1.9641293199296386 30.18361324672221
    endloop
  endfacet
  facet normal -1 0 0
    outer loop
      vertex 0 0 38
      vertex 0 5.656373505325463 34.177825757743136
      vertex 0 3.115638967978499 31.96536501267308
    endloop
  endfacet
  facet normal -1 0 0
    outer loop
      vertex 0 0 38
      vertex 0 7.306368791134631 35.0658224455086
      vertex 0 5.656373505325463 34.177825757743136
    endloop
  endfacet
  facet normal -1 0 0
    outer loop
      vertex 0 0 38
      vertex 0 8.71019512808096 35.550266872241075
      vertex 0 7.306368791134631 35.0658224455086
    endloop
  endfacet
  facet normal 1 0 0
    outer loop
      vertex 7.505553499465135 0 25
      vertex 7.505553499465135 0.53 25
      vertex 7.505553499465135 23 27
    endloop
  endfacet
  facet normal 1 0 0
    outer loop
      vertex 7.505553499465135 0 25
      vertex 7.505553499465135 23 27
      vertex 7.505553499465135 0 27
    endloop
  endfacet
  facet normal 0.8445105318105736 0 0.5355389450460372
    outer loop
      vertex 7.505553499465135 0 27
      vertex 7.505553499465135 23 27
      vertex 0.53 0 38
    endloop
  endfacet
  facet normal 0 0 1
    outer loop
      vertex 0 0 38
      vertex 0.53 0 38
      vertex 0 23 38
    endloop
  endfacet
  facet normal -1 0 0
    outer loop
      vertex 0 0 38
      vertex 0 23 38
      vertex 0 8.71019512808096 35.550266872241075
    endloop
  endfacet
  facet normal 0 0 -1
    outer loop
      vertex 0.53 0 0
      vertex 0.5180620484487888 22.48193795155121 0
      vertex 0.53 22.47 0
    endloop
  endfacet
  facet normal 0.9632081777555864 9.748185017789357e-18 -0.26875640700225667
    outer loop
      vertex 1.6460885599144215 0.53 4
      vertex 1.6460885599144213 22.470000000000002 4
      vertex 7.505553499465135 22.470000000000002 25
    endloop
  endfacet
  facet normal 1 0 0
    outer loop
      vertex 7.505553499465135 0.53 25
      vertex 7.505553499465135 22.470000000000002 25
      vertex 7.505553499465135 23 27
    endloop
  endfacet
  facet normal 0.8445105318105736 0 0.5355389450460372
    outer loop
      vertex 0.53 0 38
      vertex 7.505553499465135 23 27
      vertex 0.53 23 38
    endloop
  endfacet
  facet normal -1 0 0
    outer loop
      vertex 0 23 38
      vertex 0 11.5 35.8759210154676
      vertex 0 8.71019512808096 35.550266872241075
    endloop
  endfacet
  facet normal 0 0 1
    outer loop
      vertex 0.53 0 38
      vertex 0.53 23 38
      vertex 0 23 38
    endloop
  endfacet
  facet normal -1 0 0
    outer loop
      vertex 0 23 38
      vertex 0 14.28980487191904 35.550266872241075
      vertex 0 11.5 35.8759210154676
    endloop
  endfacet
  facet normal -1 0 0
    outer loop
      vertex 0 23 25
      vertex 0 22.375921015467597 25
      vertex 0 21.819718228183955 28.56048770525413
    endloop
  endfacet
  facet normal 0 1 0
    outer loop
      vertex 0 23 25
      vertex 7.505553499465135 23 27
      vertex 7.505553499465135 23 25
    endloop
  endfacet
  facet normal 1 0 0
    outer loop
      vertex 7.505553499465135 22.470000000000002 25
      vertex 7.505553499465135 23 25
      vertex 7.505553499465135 23 27
    endloop
  endfacet
  facet normal -1 0 0
    outer loop
      vertex 0 23 38
      vertex 0 15.69363120886537 35.0658224455086
      vertex 0 14.28980487191904 35.550266872241075
    endloop
  endfacet
  facet normal -1 0 0
    outer loop
      vertex 0 23 38
      vertex 0 17.343626494674538 34.177825757743136
      vertex 0 15.69363120886537 35.0658224455086
    endloop
  endfacet
  facet normal -1 0 0
    outer loop
      vertex 0 23 38
      vertex 0 19.884361032021502 31.96536501267308
      vertex 0 17.343626494674538 34.177825757743136
    endloop
  endfacet
  facet normal -1 0 0
    outer loop
      vertex 0 23 25
      vertex 0 21.819718228183955 28.56048770525413
      vertex 0 23 38
    endloop
  endfacet
  facet normal 0 1 0
    outer loop
      vertex 0 23 25
      vertex 0 23 38
      vertex 7.505553499465135 23 27
    endloop
  endfacet
  facet normal -1 0 0
    outer loop
      vertex 0 23 38
      vertex 0 21.819718228183955 28.56048770525413
      vertex 0 21.03587068007036 30.18361324672221
    endloop
  endfacet
  facet normal -1 0 0
    outer loop
      vertex 0 23 38
      vertex 0 21.03587068007036 30.18361324672221
      vertex 0 19.884361032021502 31.96536501267308
    endloop
  endfacet
  facet normal 0 1 0
    outer loop
      vertex 7.505553499465135 23 27
      vertex 0 23 38
      vertex 0.53 23 38
    endloop
  endfacet
  facet normal -0.751026434512745 0.4336053141344579 0.49794148874886063
    outer loop
      vertex 1.1669308169477226 5.136822431849812 18.03463498732692
      vertex 0 5.125357504457472 16.28458069978127
      vertex 0 3.115638967978499 18.03463498732692
    endloop
  endfacet
  facet normal -0.751026434512745 0.4336053141344578 0.4979414887488607
    outer loop
      vertex 1.1669308169477226 5.136822431849812 18.03463498732692
      vertex 0 5.656373505325463 15.822174242256866
      vertex 0 5.125357504457472 16.28458069978127
    endloop
  endfacet
  facet normal -0.8247663190155667 0.26798282183767064 0.49794148874886063
    outer loop
      vertex 1.1669308169477226 5.136822431849812 18.03463498732692
      vertex 0 7.306368791134631 14.934177554491397
      vertex 0 5.656373505325463 15.822174242256866
    endloop
  endfacet
  facet normal -0.8247663190155667 0.26798282183767047 0.49794148874886063
    outer loop
      vertex 1.1669308169477226 5.136822431849812 18.03463498732692
      vertex 2.177596845618698 8.247332629872764 18.03463498732692
      vertex 0 7.306368791134631 14.934177554491397
    endloop
  endfacet
  facet normal -0.7085078816655439 0.2302081656893889 0.6670987798427834
    outer loop
      vertex 0.42666379801249477 8.61950493818635 14.934177554491397
      vertex 0 8.71019512808096 14.449733127758925
      vertex 0 7.306368791134631 14.934177554491397
    endloop
  endfacet
  facet normal -0.8247663190155667 0.26798282183767075 0.4979414887488605
    outer loop
      vertex 0.42666379801249477 8.61950493818635 14.934177554491397
      vertex 0 7.306368791134631 14.934177554491397
      vertex 2.177596845618698 8.247332629872764 18.03463498732692
    endloop
  endfacet
  facet normal -0.7408882535206787 0.07787049330361356 0.6670987798427834
    outer loop
      vertex 0.42666379801249477 8.61950493818635 14.934177554491397
      vertex 0 11.5 14.124078984532403
      vertex 0 8.71019512808096 14.449733127758925
    endloop
  endfacet
  facet normal -0.8624599577095137 0.09064819430232572 0.49794148874886046
    outer loop
      vertex 0.42666379801249477 8.61950493818635 14.934177554491397
      vertex 2.177596845618698 8.247332629872764 18.03463498732692
      vertex 2.519465962129539 11.5 18.03463498732692
    endloop
  endfacet
  facet normal -0.7408882535206788 0.07787049330361348 0.6670987798427833
    outer loop
      vertex 0.42666379801249477 8.61950493818635 14.934177554491397
      vertex 0.7294160286709754 11.5 14.934177554491397
      vertex 0 11.5 14.124078984532403
    endloop
  endfacet
  facet normal -0.8624599577095138 0.09064819430232599 0.4979414887488603
    outer loop
      vertex 0.42666379801249477 8.61950493818635 14.934177554491397
      vertex 2.519465962129539 11.5 18.03463498732692
      vertex 0.7294160286709754 11.5 14.934177554491397
    endloop
  endfacet
  facet normal -0.7391179203117911 0.6655047646617448 0.10396205118449837
    outer loop
      vertex 0.426663798012493 1.6541399255132738 21.43951229474587
      vertex 0 1.1802817718160439 21.43951229474587
      vertex 0.7294160286709754 1.4341775544913968 25
    endloop
  endfacet
  facet normal -0.7071417265168692 0.6367132704475458 0.3074846172652083
    outer loop
      vertex 0.426663798012493 1.6541399255132738 21.43951229474587
      vertex 0 1.9641293199296386 19.81638675327779
      vertex 0 1.1802817718160439 21.43951229474587
    endloop
  endfacet
  facet normal -0.8240691157960905 0.47577652583573105 0.30748461726520837
    outer loop
      vertex 0.426663798012493 1.6541399255132738 21.43951229474587
      vertex 0 3.115638967978499 18.03463498732692
      vertex 0 1.9641293199296386 19.81638675327779
    endloop
  endfacet
  facet normal -0.7391179203117909 0.6655047646617454 0.10396205118449828
    outer loop
      vertex 0.7294160286709754 1.4341775544913968 25
      vertex 0 1.1802817718160439 21.43951229474587
      vertex 0 0.6240789845324024 25
    endloop
  endfacet
  facet normal -0.7391179203117909 0.6655047646617454 -0.10396205118449837
    outer loop
      vertex 0.7294160286709754 1.4341775544913968 25
      vertex 0 0.6240789845324024 25
      vertex 0.426663798012493 1.6541399255132738 28.56048770525413
    endloop
  endfacet
  facet normal -0.7391179203117911 0.6655047646617448 -0.10396205118449822
    outer loop
      vertex 0.426663798012493 1.6541399255132738 28.56048770525413
      vertex 0 0.6240789845324024 25
      vertex 0 1.1802817718160439 28.56048770525413
    endloop
  endfacet
  facet normal -0.8613326412804372 0.49729063230507115 0.1039620511844983
    outer loop
      vertex 0.426663798012493 1.6541399255132738 21.43951229474587
      vertex 0.7294160286709754 1.4341775544913968 25
      vertex 2.519465962129539 4.534634987326921 25
    endloop
  endfacet
  facet normal -0.8613326412804373 0.49729063230507115 -0.10396205118449832
    outer loop
      vertex 0.7294160286709754 1.4341775544913968 25
      vertex 0.426663798012493 1.6541399255132738 28.56048770525413
      vertex 2.519465962129539 4.534634987326921 25
    endloop
  endfacet
  facet normal -0.8240691157960912 0.4757765258357299 0.307484617265208
    outer loop
      vertex 0.426663798012493 1.6541399255132738 21.43951229474587
      vertex 2.1775968456186963 4.686844924618635 21.43951229474587
      vertex 0 3.115638967978499 18.03463498732692
    endloop
  endfacet
  facet normal -0.8613326412804371 0.49729063230507153 0.1039620511844979
    outer loop
      vertex 0.426663798012493 1.6541399255132738 21.43951229474587
      vertex 2.519465962129539 4.534634987326921 25
      vertex 2.1775968456186963 4.686844924618635 21.43951229474587
    endloop
  endfacet
  facet normal -0.824069115796091 0.4757765258357299 0.307484617265208
    outer loop
      vertex 1.1669308169477226 5.136822431849812 18.03463498732692
      vertex 0 3.115638967978499 18.03463498732692
      vertex 2.1775968456186963 4.686844924618635 21.43951229474587
    endloop
  endfacet
  facet normal -0.8613326412804371 0.49729063230507153 -0.1039620511844979
    outer loop
      vertex 0.426663798012493 1.6541399255132738 28.56048770525413
      vertex 2.1775968456186963 4.686844924618635 28.56048770525413
      vertex 2.519465962129539 4.534634987326921 25
    endloop
  endfacet
  facet normal -0.9459029926925512 0.3073425130514608 0.10396205118449785
    outer loop
      vertex 2.1775968456186963 4.686844924618635 21.43951229474587
      vertex 2.519465962129539 4.534634987326921 25
      vertex 3.6257776625664206 7.939512294745871 25
    endloop
  endfacet
  facet normal -0.9459029926925511 0.3073425130514608 -0.10396205118449785
    outer loop
      vertex 2.519465962129539 4.534634987326921 25
      vertex 2.1775968456186963 4.686844924618635 28.56048770525413
      vertex 3.6257776625664206 7.939512294745871 25
    endloop
  endfacet
  facet normal -0.7071417265168692 0.6367132704475458 -0.3074846172652083
    outer loop
      vertex 0.426663798012493 1.6541399255132738 28.56048770525413
      vertex 0 1.1802817718160439 28.56048770525413
      vertex 0 1.9641293199296386 30.18361324672221
    endloop
  endfacet
  facet normal -0.8240691157960911 0.47577652583572994 -0.30748461726520837
    outer loop
      vertex 0.426663798012493 1.6541399255132738 28.56048770525413
      vertex 0 1.9641293199296386 30.18361324672221
      vertex 2.1775968456186963 4.686844924618635 28.56048770525413
    endloop
  endfacet
  facet normal -0.824069115796091 0.4757765258357301 -0.30748461726520804
    outer loop
      vertex 2.1775968456186963 4.686844924618635 28.56048770525413
      vertex 0 1.9641293199296386 30.18361324672221
      vertex 1.1669308169477226 5.136822431849812 31.96536501267308
    endloop
  endfacet
  facet normal -0.8240691157960912 0.47577652583572994 -0.30748461726520765
    outer loop
      vertex 1.1669308169477226 5.136822431849812 31.96536501267308
      vertex 0 1.9641293199296386 30.18361324672221
      vertex 0 3.115638967978499 31.96536501267308
    endloop
  endfacet
  facet normal -0.751026434512745 0.433605314134458 -0.4979414887488604
    outer loop
      vertex 1.1669308169477226 5.136822431849812 31.96536501267308
      vertex 0 3.115638967978499 31.96536501267308
      vertex 0 5.656373505325463 34.177825757743136
    endloop
  endfacet
  facet normal -0.9049807303926812 0.2940460640158238 0.307484617265208
    outer loop
      vertex 1.1669308169477226 5.136822431849812 18.03463498732692
      vertex 2.1775968456186963 4.686844924618635 21.43951229474587
      vertex 3.2597329810647686 8.01731749366346 21.43951229474587
    endloop
  endfacet
  facet normal -0.9049807303926811 0.2940460640158239 0.307484617265208
    outer loop
      vertex 1.1669308169477226 5.136822431849812 18.03463498732692
      vertex 3.2597329810647686 8.01731749366346 21.43951229474587
      vertex 2.177596845618698 8.247332629872764 18.03463498732692
    endloop
  endfacet
  facet normal -0.9459029926925513 0.3073425130514609 0.10396205118449788
    outer loop
      vertex 2.1775968456186963 4.686844924618635 21.43951229474587
      vertex 3.6257776625664206 7.939512294745871 25
      vertex 3.2597329810647686 8.01731749366346 21.43951229474587
    endloop
  endfacet
  facet normal -0.9459029926925513 0.3073425130514609 -0.10396205118449788
    outer loop
      vertex 2.1775968456186963 4.686844924618635 28.56048770525413
      vertex 3.2597329810647686 8.01731749366346 28.56048770525413
      vertex 3.6257776625664206 7.939512294745871 25
    endloop
  endfacet
  facet normal -0.9463403444917652 0.09946437820886395 0.3074846172652079
    outer loop
      vertex 2.177596845618698 8.247332629872764 18.03463498732692
      vertex 3.2597329810647686 8.01731749366346 21.43951229474587
      vertex 3.6257776625664206 11.5 21.43951229474587
    endloop
  endfacet
  facet normal -0.946340344491765 0.09946437820886342 0.30748461726520837
    outer loop
      vertex 2.177596845618698 8.247332629872764 18.03463498732692
      vertex 3.6257776625664206 11.5 21.43951229474587
      vertex 2.519465962129539 11.5 18.03463498732692
    endloop
  endfacet
  facet normal -0.9891328443778539 0.10396205118449786 0.10396205118449793
    outer loop
      vertex 3.2597329810647686 8.01731749366346 21.43951229474587
      vertex 4 11.5 25
      vertex 3.6257776625664206 11.5 21.43951229474587
    endloop
  endfacet
  facet normal -0.9891328443778538 0.10396205118449794 0.10396205118449786
    outer loop
      vertex 3.2597329810647686 8.01731749366346 21.43951229474587
      vertex 3.6257776625664206 7.939512294745871 25
      vertex 4 11.5 25
    endloop
  endfacet
  facet normal -0.9891328443778538 0.10396205118449793 -0.10396205118449786
    outer loop
      vertex 3.6257776625664206 7.939512294745871 25
      vertex 3.2597329810647686 8.01731749366346 28.56048770525413
      vertex 4 11.5 25
    endloop
  endfacet
  facet normal -0.9891328443778539 0.10396205118449786 -0.10396205118449793
    outer loop
      vertex 3.2597329810647686 8.01731749366346 28.56048770525413
      vertex 3.6257776625664206 11.5 28.56048770525413
      vertex 4 11.5 25
    endloop
  endfacet
  facet normal -0.9049807303926812 0.2940460640158238 -0.30748461726520804
    outer loop
      vertex 2.1775968456186963 4.686844924618635 28.56048770525413
      vertex 1.1669308169477226 5.136822431849812 31.96536501267308
      vertex 3.2597329810647686 8.01731749366346 28.56048770525413
    endloop
  endfacet
  facet normal -0.9049807303926811 0.2940460640158239 -0.307484617265208
    outer loop
      vertex 1.1669308169477226 5.136822431849812 31.96536501267308
      vertex 2.177596845618698 8.247332629872764 31.96536501267308
      vertex 3.2597329810647686 8.01731749366346 28.56048770525413
    endloop
  endfacet
  facet normal -0.8247663190155669 0.26798282183767047 -0.49794148874886035
    outer loop
      vertex 1.1669308169477226 5.136822431849812 31.96536501267308
      vertex 0 5.656373505325463 34.177825757743136
      vertex 2.177596845618698 8.247332629872764 31.96536501267308
    endloop
  endfacet
  facet normal -0.824766319015567 0.2679828218376702 -0.4979414887488607
    outer loop
      vertex 2.177596845618698 8.247332629872764 31.96536501267308
      vertex 0 5.656373505325463 34.177825757743136
      vertex 0.42666379801249477 8.61950493818635 35.0658224455086
    endloop
  endfacet
  facet normal -0.8247663190155657 0.26798282183767047 -0.4979414887488623
    outer loop
      vertex 0.42666379801249477 8.61950493818635 35.0658224455086
      vertex 0 5.656373505325463 34.177825757743136
      vertex 0 7.306368791134631 35.0658224455086
    endloop
  endfacet
  facet normal -0.7085078816655451 0.2302081656893893 -0.6670987798427821
    outer loop
      vertex 0.42666379801249477 8.61950493818635 35.0658224455086
      vertex 0 7.306368791134631 35.0658224455086
      vertex 0 8.71019512808096 35.550266872241075
    endloop
  endfacet
  facet normal -0.9463403444917652 0.09946437820886396 -0.30748461726520787
    outer loop
      vertex 3.2597329810647686 8.01731749366346 28.56048770525413
      vertex 2.177596845618698 8.247332629872764 31.96536501267308
      vertex 3.6257776625664206 11.5 28.56048770525413
    endloop
  endfacet
  facet normal -0.8624599577095136 0.09064819430232578 -0.49794148874886074
    outer loop
      vertex 2.177596845618698 8.247332629872764 31.96536501267308
      vertex 0.42666379801249477 8.61950493818635 35.0658224455086
      vertex 2.519465962129539 11.5 31.96536501267308
    endloop
  endfacet
  facet normal -0.946340344491765 0.09946437820886342 -0.30748461726520837
    outer loop
      vertex 2.177596845618698 8.247332629872764 31.96536501267308
      vertex 2.519465962129539 11.5 31.96536501267308
      vertex 3.6257776625664206 11.5 28.56048770525413
    endloop
  endfacet
  facet normal -0.7408882535206799 0.07787049330361359 -0.6670987798427821
    outer loop
      vertex 0.42666379801249477 8.61950493818635 35.0658224455086
      vertex 0 8.71019512808096 35.550266872241075
      vertex 0.7294160286709754 11.5 35.0658224455086
    endloop
  endfacet
  facet normal -0.8624599577095137 0.090648194302326 -0.4979414887488606
    outer loop
      vertex 0.42666379801249477 8.61950493818635 35.0658224455086
      vertex 0.7294160286709754 11.5 35.0658224455086
      vertex 2.519465962129539 11.5 31.96536501267308
    endloop
  endfacet
  facet normal -0.7408882535206796 0.07787049330361345 -0.6670987798427825
    outer loop
      vertex 0.7294160286709754 11.5 35.0658224455086
      vertex 0 8.71019512808096 35.550266872241075
      vertex 0 11.5 35.8759210154676
    endloop
  endfacet
  facet normal -0.7408882535206788 -0.07787049330361352 0.6670987798427832
    outer loop
      vertex 0.7294160286709754 11.5 14.934177554491397
      vertex 0 14.28980487191904 14.449733127758925
      vertex 0 11.5 14.124078984532403
    endloop
  endfacet
  facet normal -0.8624599577095138 -0.09064819430232599 0.4979414887488603
    outer loop
      vertex 0.7294160286709754 11.5 14.934177554491397
      vertex 2.519465962129539 11.5 18.03463498732692
      vertex 0.42666379801249477 14.38049506181365 14.934177554491397
    endloop
  endfacet
  facet normal -0.7408882535206787 -0.07787049330361347 0.6670987798427834
    outer loop
      vertex 0.7294160286709754 11.5 14.934177554491397
      vertex 0.42666379801249477 14.38049506181365 14.934177554491397
      vertex 0 14.28980487191904 14.449733127758925
    endloop
  endfacet
  facet normal -0.8624599577095137 -0.09064819430232572 0.49794148874886046
    outer loop
      vertex 0.42666379801249477 14.38049506181365 14.934177554491397
      vertex 2.519465962129539 11.5 18.03463498732692
      vertex 2.177596845618698 14.752667370127236 18.03463498732692
    endloop
  endfacet
  facet normal -0.7085078816655439 -0.2302081656893889 0.6670987798427834
    outer loop
      vertex 0.42666379801249477 14.38049506181365 14.934177554491397
      vertex 0 15.69363120886537 14.934177554491397
      vertex 0 14.28980487191904 14.449733127758925
    endloop
  endfacet
  facet normal -0.8247663190155664 -0.2679828218376707 0.497941488748861
    outer loop
      vertex 0.42666379801249477 14.38049506181365 14.934177554491397
      vertex 0 17.343626494674538 15.822174242256866
      vertex 0 15.69363120886537 14.934177554491397
    endloop
  endfacet
  facet normal -0.8247663190155669 -0.2679828218376706 0.49794148874886046
    outer loop
      vertex 0.42666379801249477 14.38049506181365 14.934177554491397
      vertex 2.177596845618698 14.752667370127236 18.03463498732692
      vertex 0 17.343626494674538 15.822174242256866
    endloop
  endfacet
  facet normal -0.8247663190155669 -0.26798282183767036 0.4979414887488607
    outer loop
      vertex 2.177596845618698 14.752667370127236 18.03463498732692
      vertex 1.1669308169477226 17.86317756815019 18.03463498732692
      vertex 0 17.343626494674538 15.822174242256866
    endloop
  endfacet
  facet normal -0.7510264345127449 -0.4336053141344579 0.4979414887488607
    outer loop
      vertex 1.1669308169477226 17.86317756815019 18.03463498732692
      vertex 0 19.884361032021502 18.03463498732692
      vertex 0 17.343626494674538 15.822174242256866
    endloop
  endfacet
  facet normal -0.8240691157960914 -0.47577652583573005 0.3074846172652072
    outer loop
      vertex 1.1669308169477226 17.86317756815019 18.03463498732692
      vertex 0 21.03587068007036 19.81638675327779
      vertex 0 19.884361032021502 18.03463498732692
    endloop
  endfacet
  facet normal -0.9463403444917651 -0.09946437820886343 0.3074846172652084
    outer loop
      vertex 2.519465962129539 11.5 18.03463498732692
      vertex 3.6257776625664206 11.5 21.43951229474587
      vertex 2.177596845618698 14.752667370127236 18.03463498732692
    endloop
  endfacet
  facet normal -0.9891328443778539 -0.10396205118449786 0.10396205118449793
    outer loop
      vertex 3.6257776625664206 11.5 21.43951229474587
      vertex 4 11.5 25
      vertex 3.2597329810647686 14.98268250633654 21.43951229474587
    endloop
  endfacet
  facet normal -0.9463403444917652 -0.09946437820886395 0.3074846172652079
    outer loop
      vertex 2.177596845618698 14.752667370127236 18.03463498732692
      vertex 3.6257776625664206 11.5 21.43951229474587
      vertex 3.2597329810647686 14.98268250633654 21.43951229474587
    endloop
  endfacet
  facet normal -0.9891328443778538 -0.10396205118449788 -0.10396205118449792
    outer loop
      vertex 4 11.5 25
      vertex 3.6257776625664206 11.5 28.56048770525413
      vertex 3.2597329810647686 14.98268250633654 28.56048770525413
    endloop
  endfacet
  facet normal -0.9891328443778538 -0.10396205118449794 0.10396205118449786
    outer loop
      vertex 3.2597329810647686 14.98268250633654 21.43951229474587
      vertex 4 11.5 25
      vertex 3.6257776625664206 15.060487705254129 25
    endloop
  endfacet
  facet normal -0.9891328443778538 -0.10396205118449793 -0.10396205118449788
    outer loop
      vertex 4 11.5 25
      vertex 3.2597329810647686 14.98268250633654 28.56048770525413
      vertex 3.6257776625664206 15.060487705254129 25
    endloop
  endfacet
  facet normal -0.9049807303926811 -0.2940460640158238 0.3074846172652079
    outer loop
      vertex 2.177596845618698 14.752667370127236 18.03463498732692
      vertex 3.2597329810647686 14.98268250633654 21.43951229474587
      vertex 1.1669308169477226 17.86317756815019 18.03463498732692
    endloop
  endfacet
  facet normal -0.9049807303926812 -0.2940460640158236 0.30748461726520804
    outer loop
      vertex 3.2597329810647686 14.98268250633654 21.43951229474587
      vertex 2.1775968456186963 18.313155075381367 21.43951229474587
      vertex 1.1669308169477226 17.86317756815019 18.03463498732692
    endloop
  endfacet
  facet normal -0.9459029926925512 -0.30734251305146065 0.10396205118449788
    outer loop
      vertex 3.2597329810647686 14.98268250633654 21.43951229474587
      vertex 3.6257776625664206 15.060487705254129 25
      vertex 2.1775968456186963 18.313155075381367 21.43951229474587
    endloop
  endfacet
  facet normal -0.9459029926925512 -0.3073425130514607 -0.10396205118449789
    outer loop
      vertex 3.6257776625664206 15.060487705254129 25
      vertex 3.2597329810647686 14.98268250633654 28.56048770525413
      vertex 2.1775968456186963 18.313155075381367 28.56048770525413
    endloop
  endfacet
  facet normal -0.9463403444917651 -0.09946437820886342 -0.3074846172652084
    outer loop
      vertex 3.6257776625664206 11.5 28.56048770525413
      vertex 2.519465962129539 11.5 31.96536501267308
      vertex 2.177596845618698 14.752667370127236 31.96536501267308
    endloop
  endfacet
  facet normal -0.9463403444917652 -0.09946437820886396 -0.3074846172652079
    outer loop
      vertex 3.6257776625664206 11.5 28.56048770525413
      vertex 2.177596845618698 14.752667370127236 31.96536501267308
      vertex 3.2597329810647686 14.98268250633654 28.56048770525413
    endloop
  endfacet
  facet normal -0.8624599577095136 -0.09064819430232578 -0.49794148874886074
    outer loop
      vertex 2.519465962129539 11.5 31.96536501267308
      vertex 0.42666379801249477 14.38049506181365 35.0658224455086
      vertex 2.177596845618698 14.752667370127236 31.96536501267308
    endloop
  endfacet
  facet normal -0.8624599577095137 -0.09064819430232597 -0.4979414887488606
    outer loop
      vertex 2.519465962129539 11.5 31.96536501267308
      vertex 0.7294160286709754 11.5 35.0658224455086
      vertex 0.42666379801249477 14.38049506181365 35.0658224455086
    endloop
  endfacet
  facet normal -0.7408882535206796 -0.07787049330361355 -0.6670987798427825
    outer loop
      vertex 0.7294160286709754 11.5 35.0658224455086
      vertex 0 11.5 35.8759210154676
      vertex 0.42666379801249477 14.38049506181365 35.0658224455086
    endloop
  endfacet
  facet normal -0.7408882535206799 -0.0778704933036134 -0.667098779842782
    outer loop
      vertex 0.42666379801249477 14.38049506181365 35.0658224455086
      vertex 0 11.5 35.8759210154676
      vertex 0 14.28980487191904 35.550266872241075
    endloop
  endfacet
  facet normal -0.9049807303926811 -0.2940460640158238 -0.3074846172652079
    outer loop
      vertex 3.2597329810647686 14.98268250633654 28.56048770525413
      vertex 2.177596845618698 14.752667370127236 31.96536501267308
      vertex 1.1669308169477226 17.86317756815019 31.96536501267308
    endloop
  endfacet
  facet normal -0.9049807303926812 -0.2940460640158236 -0.30748461726520804
    outer loop
      vertex 3.2597329810647686 14.98268250633654 28.56048770525413
      vertex 1.1669308169477226 17.86317756815019 31.96536501267308
      vertex 2.1775968456186963 18.313155075381367 28.56048770525413
    endloop
  endfacet
  facet normal -0.8247663190155667 -0.26798282183767036 -0.49794148874886074
    outer loop
      vertex 2.177596845618698 14.752667370127236 31.96536501267308
      vertex 0 15.69363120886537 35.0658224455086
      vertex 1.1669308169477226 17.86317756815019 31.96536501267308
    endloop
  endfacet
  facet normal -0.8247663190155665 -0.26798282183767086 -0.4979414887488607
    outer loop
      vertex 2.177596845618698 14.752667370127236 31.96536501267308
      vertex 0.42666379801249477 14.38049506181365 35.0658224455086
      vertex 0 15.69363120886537 35.0658224455086
    endloop
  endfacet
  facet normal -0.7085078816655451 -0.2302081656893893 -0.6670987798427821
    outer loop
      vertex 0.42666379801249477 14.38049506181365 35.0658224455086
      vertex 0 14.28980487191904 35.550266872241075
      vertex 0 15.69363120886537 35.0658224455086
    endloop
  endfacet
  facet normal -0.8247663190155674 -0.2679828218376692 -0.4979414887488604
    outer loop
      vertex 1.1669308169477226 17.86317756815019 31.96536501267308
      vertex 0 15.69363120886537 35.0658224455086
      vertex 0 17.343626494674538 34.177825757743136
    endloop
  endfacet
  facet normal -0.8240691157960909 -0.47577652583573043 0.30748461726520815
    outer loop
      vertex 1.1669308169477226 17.86317756815019 18.03463498732692
      vertex 2.1775968456186963 18.313155075381367 21.43951229474587
      vertex 0 21.03587068007036 19.81638675327779
    endloop
  endfacet
  facet normal -0.861332641280437 -0.4972906323050717 0.10396205118449765
    outer loop
      vertex 2.1775968456186963 18.313155075381367 21.43951229474587
      vertex 2.519465962129539 18.46536501267308 25
      vertex 0.426663798012493 21.345860074486726 21.43951229474587
    endloop
  endfacet
  facet normal -0.9459029926925512 -0.3073425130514609 0.10396205118449772
    outer loop
      vertex 2.1775968456186963 18.313155075381367 21.43951229474587
      vertex 3.6257776625664206 15.060487705254129 25
      vertex 2.519465962129539 18.46536501267308 25
    endloop
  endfacet
  facet normal -0.9459029926925512 -0.3073425130514609 -0.10396205118449772
    outer loop
      vertex 3.6257776625664206 15.060487705254129 25
      vertex 2.1775968456186963 18.313155075381367 28.56048770525413
      vertex 2.519465962129539 18.46536501267308 25
    endloop
  endfacet
  facet normal -0.861332641280437 -0.4972906323050718 -0.10396205118449764
    outer loop
      vertex 2.519465962129539 18.46536501267308 25
      vertex 2.1775968456186963 18.313155075381367 28.56048770525413
      vertex 0.426663798012493 21.345860074486726 28.56048770525413
    endloop
  endfacet
  facet normal -0.8240691157960908 -0.47577652583573 0.3074846172652086
    outer loop
      vertex 2.1775968456186963 18.313155075381367 21.43951229474587
      vertex 0.426663798012493 21.345860074486726 21.43951229474587
      vertex 0 21.03587068007036 19.81638675327779
    endloop
  endfacet
  facet normal -0.7071417265168686 -0.6367132704475463 0.30748461726520876
    outer loop
      vertex 0.426663798012493 21.345860074486726 21.43951229474587
      vertex 0 21.819718228183955 21.43951229474587
      vertex 0 21.03587068007036 19.81638675327779
    endloop
  endfacet
  facet normal -0.7391179203117907 -0.6655047646617456 0.10396205118449839
    outer loop
      vertex 0.426663798012493 21.345860074486726 21.43951229474587
      vertex 0 22.375921015467597 25
      vertex 0 21.819718228183955 21.43951229474587
    endloop
  endfacet
  facet normal -0.8613326412804371 -0.4972906323050714 0.10396205118449807
    outer loop
      vertex 0.426663798012493 21.345860074486726 21.43951229474587
      vertex 2.519465962129539 18.46536501267308 25
      vertex 0.7294160286709754 21.5658224455086 25
    endloop
  endfacet
  facet normal -0.8613326412804371 -0.4972906323050713 -0.10396205118449801
    outer loop
      vertex 2.519465962129539 18.46536501267308 25
      vertex 0.426663798012493 21.345860074486726 28.56048770525413
      vertex 0.7294160286709754 21.5658224455086 25
    endloop
  endfacet
  facet normal -0.7391179203117914 -0.6655047646617448 0.10396205118449806
    outer loop
      vertex 0.426663798012493 21.345860074486726 21.43951229474587
      vertex 0.7294160286709754 21.5658224455086 25
      vertex 0 22.375921015467597 25
    endloop
  endfacet
  facet normal -0.7391179203117914 -0.6655047646617448 -0.10396205118449825
    outer loop
      vertex 0.7294160286709754 21.5658224455086 25
      vertex 0 21.819718228183955 28.56048770525413
      vertex 0 22.375921015467597 25
    endloop
  endfacet
  facet normal -0.7391179203117906 -0.6655047646617457 -0.10396205118449804
    outer loop
      vertex 0.7294160286709754 21.5658224455086 25
      vertex 0.426663798012493 21.345860074486726 28.56048770525413
      vertex 0 21.819718228183955 28.56048770525413
    endloop
  endfacet
  facet normal -0.824069115796091 -0.47577652583572994 -0.30748461726520815
    outer loop
      vertex 2.1775968456186963 18.313155075381367 28.56048770525413
      vertex 1.1669308169477226 17.86317756815019 31.96536501267308
      vertex 0 19.884361032021502 31.96536501267308
    endloop
  endfacet
  facet normal -0.751026434512745 -0.433605314134458 -0.4979414887488604
    outer loop
      vertex 1.1669308169477226 17.86317756815019 31.96536501267308
      vertex 0 17.343626494674538 34.177825757743136
      vertex 0 19.884361032021502 31.96536501267308
    endloop
  endfacet
  facet normal -0.8240691157960911 -0.47577652583573016 -0.307484617265208
    outer loop
      vertex 2.1775968456186963 18.313155075381367 28.56048770525413
      vertex 0 19.884361032021502 31.96536501267308
      vertex 0.426663798012493 21.345860074486726 28.56048770525413
    endloop
  endfacet
  facet normal -0.8240691157960893 -0.47577652583573254 -0.3074846172652088
    outer loop
      vertex 0.426663798012493 21.345860074486726 28.56048770525413
      vertex 0 19.884361032021502 31.96536501267308
      vertex 0 21.03587068007036 30.18361324672221
    endloop
  endfacet
  facet normal -0.7071417265168686 -0.6367132704475463 -0.30748461726520876
    outer loop
      vertex 0.426663798012493 21.345860074486726 28.56048770525413
      vertex 0 21.03587068007036 30.18361324672221
      vertex 0 21.819718228183955 28.56048770525413
    endloop
  endfacet
endsolid OpenSCAD_Model
