solid OpenSCAD_Model
  facet normal -0.463214 -0.580848 -0.669364
    outer loop
      vertex 1.58883 0.198567 1.23463
      vertex 0.335226 1.19829 1.23463
      vertex 1.31043 1.66792 0.152241
    endloop
  endfacet
  facet normal 0.165704 0.724397 -0.669172
    outer loop
      vertex 142.83 118.746 0.152241
      vertex 142.589 119.801 1.23463
      vertex 143.477 118.598 0.152241
    endloop
  endfacet
  facet normal -0.623217 0.782049 0
    outer loop
      vertex 1.58883 119.801 1.23463
      vertex 0.335226 118.802 50
      vertex 1.58883 119.801 50
    endloop
  endfacet
  facet normal -0.623217 0.782049 0
    outer loop
      vertex 0.335226 118.802 50
      vertex 1.58883 119.801 1.23463
      vertex 0.335226 118.802 1.23463
    endloop
  endfacet
  facet normal -1 0 0
    outer loop
      vertex 0.335226 1.19829 1.23463
      vertex 0.335226 118.802 50
      vertex 0.335226 118.802 1.23463
    endloop
  endfacet
  facet normal -1 -0 0
    outer loop
      vertex 0.335226 118.802 50
      vertex 0.335226 1.19829 1.23463
      vertex 0.335226 1.19829 50
    endloop
  endfacet
  facet normal 0.669211 0.322296 -0.669539
    outer loop
      vertex 143.765 118 0.152241
      vertex 143.477 118.598 0.152241
      vertex 144.152 119.445 1.23463
    endloop
  endfacet
  facet normal 0.669163 -0.322391 -0.669541
    outer loop
      vertex 144.152 0.555364 1.23463
      vertex 143.765 2 0.152241
      vertex 144.848 2 1.23463
    endloop
  endfacet
  facet normal 0.222079 0.975029 -0
    outer loop
      vertex 144.152 119.445 1.23463
      vertex 142.589 119.801 50
      vertex 144.152 119.445 50
    endloop
  endfacet
  facet normal 0.222079 0.975029 0
    outer loop
      vertex 142.589 119.801 50
      vertex 144.152 119.445 1.23463
      vertex 142.589 119.801 1.23463
    endloop
  endfacet
  facet normal -0.463177 0.580941 -0.669309
    outer loop
      vertex 1.82969 118.746 0.152241
      vertex 1.31043 118.332 0.152241
      vertex 1.58883 119.801 1.23463
    endloop
  endfacet
  facet normal 0.66943 -0.322191 -0.66937
    outer loop
      vertex 144.152 0.555364 1.23463
      vertex 143.477 1.40161 0.152241
      vertex 143.765 2 0.152241
    endloop
  endfacet
  facet normal -0.742934 0 -0.669364
    outer loop
      vertex 1.31043 1.66792 0.152241
      vertex 0.335226 118.802 1.23463
      vertex 1.31043 118.332 0.152241
    endloop
  endfacet
  facet normal -0.742934 -0 -0.669364
    outer loop
      vertex 0.335226 118.802 1.23463
      vertex 1.31043 1.66792 0.152241
      vertex 0.335226 1.19829 1.23463
    endloop
  endfacet
  facet normal 0.222552 -0.974921 0
    outer loop
      vertex 142.589 0.198567 1.23463
      vertex 144.152 0.555364 50
      vertex 142.589 0.198567 50
    endloop
  endfacet
  facet normal 0.222552 -0.974921 0
    outer loop
      vertex 144.152 0.555364 50
      vertex 142.589 0.198567 1.23463
      vertex 144.152 0.555364 1.23463
    endloop
  endfacet
  facet normal -0.462983 0.580978 -0.669411
    outer loop
      vertex 1.31043 118.332 0.152241
      vertex 0.335226 118.802 1.23463
      vertex 1.58883 119.801 1.23463
    endloop
  endfacet
  facet normal 0 1 -0
    outer loop
      vertex 142.589 119.801 1.23463
      vertex 1.58883 119.801 50
      vertex 142.589 119.801 50
    endloop
  endfacet
  facet normal 0 1 0
    outer loop
      vertex 1.58883 119.801 50
      vertex 142.589 119.801 1.23463
      vertex 1.58883 119.801 1.23463
    endloop
  endfacet
  facet normal -0.463215 -0.580848 -0.669363
    outer loop
      vertex 1.58883 0.198567 1.23463
      vertex 1.31043 1.66792 0.152241
      vertex 1.82969 1.25382 0.152241
    endloop
  endfacet
  facet normal 0 -0.716025 -0.698074
    outer loop
      vertex 1.82969 1.25382 0.152241
      vertex 142.589 0.198567 1.23463
      vertex 1.58883 0.198567 1.23463
    endloop
  endfacet
  facet normal 0 -0.716025 -0.698074
    outer loop
      vertex 142.589 0.198567 1.23463
      vertex 1.82969 1.25382 0.152241
      vertex 142.83 1.25382 0.152241
    endloop
  endfacet
  facet normal 0.164949 0.7242 -0.669572
    outer loop
      vertex 143.477 118.598 0.152241
      vertex 142.589 119.801 1.23463
      vertex 144.152 119.445 1.23463
    endloop
  endfacet
  facet normal 0 0.716109 -0.697988
    outer loop
      vertex 1.82969 118.746 0.152241
      vertex 142.589 119.801 1.23463
      vertex 142.83 118.746 0.152241
    endloop
  endfacet
  facet normal 0 0.716109 -0.697988
    outer loop
      vertex 142.589 119.801 1.23463
      vertex 1.82969 118.746 0.152241
      vertex 1.58883 119.801 1.23463
    endloop
  endfacet
  facet normal 0.900896 -0.434036 0
    outer loop
      vertex 144.152 0.555364 50
      vertex 144.848 2 1.23463
      vertex 144.848 2 50
    endloop
  endfacet
  facet normal 0.900896 -0.434036 0
    outer loop
      vertex 144.848 2 1.23463
      vertex 144.152 0.555364 50
      vertex 144.152 0.555364 1.23463
    endloop
  endfacet
  facet normal 0.165338 -0.724288 -0.66938
    outer loop
      vertex 144.152 0.555364 1.23463
      vertex 142.589 0.198567 1.23463
      vertex 143.477 1.40161 0.152241
    endloop
  endfacet
  facet normal 0.706907 0 -0.707306
    outer loop
      vertex 143.765 2 0.152241
      vertex 144.848 118 1.23463
      vertex 144.848 2 1.23463
    endloop
  endfacet
  facet normal 0.706907 0 -0.707306
    outer loop
      vertex 144.848 118 1.23463
      vertex 143.765 2 0.152241
      vertex 143.765 118 0.152241
    endloop
  endfacet
  facet normal 1 -0 0
    outer loop
      vertex 144.848 2 50
      vertex 144.848 118 1.23463
      vertex 144.848 118 50
    endloop
  endfacet
  facet normal 1 0 0
    outer loop
      vertex 144.848 118 1.23463
      vertex 144.848 2 50
      vertex 144.848 2 1.23463
    endloop
  endfacet
  facet normal 0.669181 0.322318 -0.669558
    outer loop
      vertex 144.848 118 1.23463
      vertex 143.765 118 0.152241
      vertex 144.152 119.445 1.23463
    endloop
  endfacet
  facet normal 0.165451 -0.724318 -0.66932
    outer loop
      vertex 143.477 1.40161 0.152241
      vertex 142.589 0.198567 1.23463
      vertex 142.83 1.25382 0.152241
    endloop
  endfacet
  facet normal 0.900938 0.433947 0
    outer loop
      vertex 144.848 118 50
      vertex 144.152 119.445 1.23463
      vertex 144.152 119.445 50
    endloop
  endfacet
  facet normal 0.900938 0.433947 0
    outer loop
      vertex 144.152 119.445 1.23463
      vertex 144.848 118 50
      vertex 144.848 118 1.23463
    endloop
  endfacet
  facet normal 0 -1 0
    outer loop
      vertex 1.58883 0.198567 1.23463
      vertex 142.589 0.198567 50
      vertex 1.58883 0.198567 50
    endloop
  endfacet
  facet normal 0 -1 -0
    outer loop
      vertex 142.589 0.198567 50
      vertex 1.58883 0.198567 1.23463
      vertex 142.589 0.198567 1.23463
    endloop
  endfacet
  facet normal 0 0 -1
    outer loop
      vertex 142.83 1.25382 0.152241
      vertex 143.765 2 0.152241
      vertex 143.477 1.40161 0.152241
    endloop
  endfacet
  facet normal -0 0 -1
    outer loop
      vertex 143.765 2 0.152241
      vertex 142.83 1.25382 0.152241
      vertex 143.765 118 0.152241
    endloop
  endfacet
  facet normal 0 0 -1
    outer loop
      vertex 142.83 118.746 0.152241
      vertex 143.765 118 0.152241
      vertex 142.83 1.25382 0.152241
    endloop
  endfacet
  facet normal 0 0 -1
    outer loop
      vertex 143.765 118 0.152241
      vertex 142.83 118.746 0.152241
      vertex 143.477 118.598 0.152241
    endloop
  endfacet
  facet normal 0 0 -1
    outer loop
      vertex 1.82969 1.25382 0.152241
      vertex 142.83 118.746 0.152241
      vertex 142.83 1.25382 0.152241
    endloop
  endfacet
  facet normal 0 0 -1
    outer loop
      vertex 1.82969 1.25382 0.152241
      vertex 1.82969 118.746 0.152241
      vertex 142.83 118.746 0.152241
    endloop
  endfacet
  facet normal 0 0 -1
    outer loop
      vertex 1.31043 1.66792 0.152241
      vertex 1.82969 118.746 0.152241
      vertex 1.82969 1.25382 0.152241
    endloop
  endfacet
  facet normal 0 0 -1
    outer loop
      vertex 1.82969 118.746 0.152241
      vertex 1.31043 1.66792 0.152241
      vertex 1.31043 118.332 0.152241
    endloop
  endfacet
  facet normal -0.623493 -0.781829 0
    outer loop
      vertex 0.335226 1.19829 1.23463
      vertex 1.58883 0.198567 50
      vertex 0.335226 1.19829 50
    endloop
  endfacet
  facet normal -0.623493 -0.781829 -0
    outer loop
      vertex 1.58883 0.198567 50
      vertex 0.335226 1.19829 1.23463
      vertex 1.58883 0.198567 1.23463
    endloop
  endfacet
  facet normal -0 0 1
    outer loop
      vertex 99.1521 39.4446 50
      vertex 101.335 38.8017 50
      vertex 99.1521 41.5554 50
    endloop
  endfacet
  facet normal 0 0 1
    outer loop
      vertex 101.335 38.8017 50
      vertex 99.1521 39.4446 50
      vertex 99.8478 38 50
    endloop
  endfacet
  facet normal -0 0 1
    outer loop
      vertex 97.5888 41.1986 50
      vertex 99.1521 39.4446 50
      vertex 99.1521 41.5554 50
    endloop
  endfacet
  facet normal 0 0 1
    outer loop
      vertex 97.5888 41.1986 50
      vertex 97.5888 39.8014 50
      vertex 99.1521 39.4446 50
    endloop
  endfacet
  facet normal -0 0 1
    outer loop
      vertex 58.5888 41.1986 50
      vertex 97.5888 39.8014 50
      vertex 97.5888 41.1986 50
    endloop
  endfacet
  facet normal 0 0 1
    outer loop
      vertex 58.5888 41.1986 50
      vertex 58.5888 39.8014 50
      vertex 97.5888 39.8014 50
    endloop
  endfacet
  facet normal 0 0 1
    outer loop
      vertex 57.3352 42.1983 50
      vertex 58.5888 39.8014 50
      vertex 58.5888 41.1986 50
    endloop
  endfacet
  facet normal 0 0 1
    outer loop
      vertex 58.5888 39.8014 50
      vertex 57.3352 42.1983 50
      vertex 57.3352 38.8017 50
    endloop
  endfacet
  facet normal -0 0 1
    outer loop
      vertex 143.152 41.5554 50
      vertex 143.848 38 50
      vertex 143.848 43 50
    endloop
  endfacet
  facet normal 0 0 1
    outer loop
      vertex 143.152 41.5554 50
      vertex 143.152 39.4446 50
      vertex 143.848 38 50
    endloop
  endfacet
  facet normal -0 0 1
    outer loop
      vertex 141.589 41.1986 50
      vertex 143.152 39.4446 50
      vertex 143.152 41.5554 50
    endloop
  endfacet
  facet normal 0 0 1
    outer loop
      vertex 141.589 41.1986 50
      vertex 141.589 39.8014 50
      vertex 143.152 39.4446 50
    endloop
  endfacet
  facet normal -0 0 1
    outer loop
      vertex 102.589 41.1986 50
      vertex 141.589 39.8014 50
      vertex 141.589 41.1986 50
    endloop
  endfacet
  facet normal 0 0 1
    outer loop
      vertex 102.589 41.1986 50
      vertex 102.589 39.8014 50
      vertex 141.589 39.8014 50
    endloop
  endfacet
  facet normal 0 0 1
    outer loop
      vertex 101.335 42.1983 50
      vertex 102.589 39.8014 50
      vertex 102.589 41.1986 50
    endloop
  endfacet
  facet normal 0 0 1
    outer loop
      vertex 102.589 39.8014 50
      vertex 101.335 42.1983 50
      vertex 101.335 38.8017 50
    endloop
  endfacet
  facet normal -0 0 1
    outer loop
      vertex 143.152 118.445 50
      vertex 144.848 118 50
      vertex 144.152 119.445 50
    endloop
  endfacet
  facet normal 0 0 1
    outer loop
      vertex 144.848 118 50
      vertex 143.848 43 50
      vertex 144.848 2 50
    endloop
  endfacet
  facet normal 0 0 1
    outer loop
      vertex 144.848 118 50
      vertex 143.848 117 50
      vertex 143.848 43 50
    endloop
  endfacet
  facet normal 0 0 1
    outer loop
      vertex 144.848 118 50
      vertex 143.152 118.445 50
      vertex 143.848 117 50
    endloop
  endfacet
  facet normal 0 0 1
    outer loop
      vertex 142.589 119.801 50
      vertex 143.152 118.445 50
      vertex 144.152 119.445 50
    endloop
  endfacet
  facet normal 0 0 1
    outer loop
      vertex 142.589 119.801 50
      vertex 141.589 118.801 50
      vertex 143.152 118.445 50
    endloop
  endfacet
  facet normal 0 0 1
    outer loop
      vertex 142.589 119.801 50
      vertex 102.589 118.801 50
      vertex 141.589 118.801 50
    endloop
  endfacet
  facet normal -0 0 1
    outer loop
      vertex 99.8478 43 50
      vertex 101.335 42.1983 50
      vertex 101.335 117.802 50
    endloop
  endfacet
  facet normal 0 0 1
    outer loop
      vertex 99.1521 41.5554 50
      vertex 101.335 42.1983 50
      vertex 99.8478 43 50
    endloop
  endfacet
  facet normal 0 0 1
    outer loop
      vertex 99.8478 43 50
      vertex 101.335 117.802 50
      vertex 99.8478 117 50
    endloop
  endfacet
  facet normal -0 0 1
    outer loop
      vertex 99.1521 118.445 50
      vertex 101.335 117.802 50
      vertex 102.589 118.801 50
    endloop
  endfacet
  facet normal 0 0 1
    outer loop
      vertex 101.335 117.802 50
      vertex 99.1521 118.445 50
      vertex 99.8478 117 50
    endloop
  endfacet
  facet normal 0 0 1
    outer loop
      vertex 102.589 118.801 50
      vertex 97.5888 118.801 50
      vertex 99.1521 118.445 50
    endloop
  endfacet
  facet normal 0 0 1
    outer loop
      vertex 142.589 119.801 50
      vertex 97.5888 118.801 50
      vertex 102.589 118.801 50
    endloop
  endfacet
  facet normal 0 0 1
    outer loop
      vertex 142.589 119.801 50
      vertex 58.5888 118.801 50
      vertex 97.5888 118.801 50
    endloop
  endfacet
  facet normal -0 0 1
    outer loop
      vertex 55.8478 117 50
      vertex 57.3352 42.1983 50
      vertex 57.3352 117.802 50
    endloop
  endfacet
  facet normal 0 0 1
    outer loop
      vertex 55.8478 3 50
      vertex 57.3352 42.1983 50
      vertex 55.8478 117 50
    endloop
  endfacet
  facet normal 0 0 1
    outer loop
      vertex 57.3352 42.1983 50
      vertex 55.8478 3 50
      vertex 57.3352 38.8017 50
    endloop
  endfacet
  facet normal -0 0 1
    outer loop
      vertex 55.1521 118.445 50
      vertex 57.3352 117.802 50
      vertex 58.5888 118.801 50
    endloop
  endfacet
  facet normal 0 0 1
    outer loop
      vertex 57.3352 117.802 50
      vertex 55.1521 118.445 50
      vertex 55.8478 117 50
    endloop
  endfacet
  facet normal 0 0 1
    outer loop
      vertex 58.5888 118.801 50
      vertex 53.5888 118.801 50
      vertex 55.1521 118.445 50
    endloop
  endfacet
  facet normal 0 0 1
    outer loop
      vertex 142.589 119.801 50
      vertex 53.5888 118.801 50
      vertex 58.5888 118.801 50
    endloop
  endfacet
  facet normal -0 0 1
    outer loop
      vertex 1.58883 119.801 50
      vertex 53.5888 118.801 50
      vertex 142.589 119.801 50
    endloop
  endfacet
  facet normal 0 0 1
    outer loop
      vertex 53.5888 118.801 50
      vertex 1.58883 119.801 50
      vertex 2.58883 118.801 50
    endloop
  endfacet
  facet normal 0 0 1
    outer loop
      vertex 1.58883 119.801 50
      vertex 1.33523 117.802 50
      vertex 2.58883 118.801 50
    endloop
  endfacet
  facet normal 0 0 1
    outer loop
      vertex 1.33523 117.802 50
      vertex 0.335226 118.802 50
      vertex 1.33523 2.19829 50
    endloop
  endfacet
  facet normal -0 0 1
    outer loop
      vertex 0.335226 118.802 50
      vertex 1.33523 117.802 50
      vertex 1.58883 119.801 50
    endloop
  endfacet
  facet normal -0 0 1
    outer loop
      vertex 143.848 38 50
      vertex 144.848 2 50
      vertex 143.848 43 50
    endloop
  endfacet
  facet normal -0 0 1
    outer loop
      vertex 143.848 3 50
      vertex 144.848 2 50
      vertex 143.848 38 50
    endloop
  endfacet
  facet normal 0 0 1
    outer loop
      vertex 143.152 1.55536 50
      vertex 144.848 2 50
      vertex 143.848 3 50
    endloop
  endfacet
  facet normal 0 0 1
    outer loop
      vertex 144.848 2 50
      vertex 143.152 1.55536 50
      vertex 144.152 0.555364 50
    endloop
  endfacet
  facet normal 0 0 1
    outer loop
      vertex 143.152 1.55536 50
      vertex 142.589 0.198567 50
      vertex 144.152 0.555364 50
    endloop
  endfacet
  facet normal -0 0 1
    outer loop
      vertex 141.589 1.19857 50
      vertex 142.589 0.198567 50
      vertex 143.152 1.55536 50
    endloop
  endfacet
  facet normal -0 0 1
    outer loop
      vertex 102.589 1.19857 50
      vertex 142.589 0.198567 50
      vertex 141.589 1.19857 50
    endloop
  endfacet
  facet normal 0 0 1
    outer loop
      vertex 101.335 42.1983 50
      vertex 99.1521 41.5554 50
      vertex 101.335 38.8017 50
    endloop
  endfacet
  facet normal 0 0 1
    outer loop
      vertex 101.335 38.8017 50
      vertex 99.8478 38 50
      vertex 101.335 2.19829 50
    endloop
  endfacet
  facet normal -0 0 1
    outer loop
      vertex 99.8478 3 50
      vertex 101.335 2.19829 50
      vertex 99.8478 38 50
    endloop
  endfacet
  facet normal 0 0 1
    outer loop
      vertex 99.1521 1.55536 50
      vertex 101.335 2.19829 50
      vertex 99.8478 3 50
    endloop
  endfacet
  facet normal 0 0 1
    outer loop
      vertex 101.335 2.19829 50
      vertex 99.1521 1.55536 50
      vertex 102.589 1.19857 50
    endloop
  endfacet
  facet normal 0 0 1
    outer loop
      vertex 97.5888 1.19857 50
      vertex 102.589 1.19857 50
      vertex 99.1521 1.55536 50
    endloop
  endfacet
  facet normal -0 0 1
    outer loop
      vertex 97.5888 1.19857 50
      vertex 142.589 0.198567 50
      vertex 102.589 1.19857 50
    endloop
  endfacet
  facet normal -0 0 1
    outer loop
      vertex 58.5888 1.19857 50
      vertex 142.589 0.198567 50
      vertex 97.5888 1.19857 50
    endloop
  endfacet
  facet normal 0 0 1
    outer loop
      vertex 57.3352 38.8017 50
      vertex 55.8478 3 50
      vertex 57.3352 2.19829 50
    endloop
  endfacet
  facet normal 0 0 1
    outer loop
      vertex 55.1521 1.55536 50
      vertex 57.3352 2.19829 50
      vertex 55.8478 3 50
    endloop
  endfacet
  facet normal 0 0 1
    outer loop
      vertex 57.3352 2.19829 50
      vertex 55.1521 1.55536 50
      vertex 58.5888 1.19857 50
    endloop
  endfacet
  facet normal 0 0 1
    outer loop
      vertex 53.5888 1.19857 50
      vertex 58.5888 1.19857 50
      vertex 55.1521 1.55536 50
    endloop
  endfacet
  facet normal -0 0 1
    outer loop
      vertex 53.5888 1.19857 50
      vertex 142.589 0.198567 50
      vertex 58.5888 1.19857 50
    endloop
  endfacet
  facet normal 0 0 1
    outer loop
      vertex 1.58883 0.198567 50
      vertex 53.5888 1.19857 50
      vertex 2.58883 1.19857 50
    endloop
  endfacet
  facet normal 0 0 1
    outer loop
      vertex 53.5888 1.19857 50
      vertex 1.58883 0.198567 50
      vertex 142.589 0.198567 50
    endloop
  endfacet
  facet normal 0 0 1
    outer loop
      vertex 1.33523 2.19829 50
      vertex 1.58883 0.198567 50
      vertex 2.58883 1.19857 50
    endloop
  endfacet
  facet normal 0 0 1
    outer loop
      vertex 1.33523 2.19829 50
      vertex 0.335226 1.19829 50
      vertex 1.58883 0.198567 50
    endloop
  endfacet
  facet normal 0 0 1
    outer loop
      vertex 0.335226 1.19829 50
      vertex 1.33523 2.19829 50
      vertex 0.335226 118.802 50
    endloop
  endfacet
  facet normal -0.669377 -0.322274 0.669383
    outer loop
      vertex 55.8478 117 2.23463
      vertex 55.1521 118.445 2.23463
      vertex 54.7654 117 1.15224
    endloop
  endfacet
  facet normal -0.222507 0.974931 0
    outer loop
      vertex 55.1521 1.55536 2.23463
      vertex 53.5888 1.19857 50
      vertex 55.1521 1.55536 50
    endloop
  endfacet
  facet normal -0.222507 0.974931 0
    outer loop
      vertex 53.5888 1.19857 50
      vertex 55.1521 1.55536 2.23463
      vertex 53.5888 1.19857 2.23463
    endloop
  endfacet
  facet normal -0.164922 -0.724221 0.669556
    outer loop
      vertex 54.4772 117.598 1.15224
      vertex 55.1521 118.445 2.23463
      vertex 53.5888 118.801 2.23463
    endloop
  endfacet
  facet normal -0.707104 0 0.70711
    outer loop
      vertex 54.7654 117 1.15224
      vertex 55.8478 3 2.23463
      vertex 55.8478 117 2.23463
    endloop
  endfacet
  facet normal -0.707104 0 0.70711
    outer loop
      vertex 55.8478 3 2.23463
      vertex 54.7654 117 1.15224
      vertex 54.7654 3 1.15224
    endloop
  endfacet
  facet normal -0.900969 0.433883 0
    outer loop
      vertex 55.1521 1.55536 2.23463
      vertex 55.8478 3 50
      vertex 55.8478 3 2.23463
    endloop
  endfacet
  facet normal -0.900969 0.433883 0
    outer loop
      vertex 55.8478 3 50
      vertex 55.1521 1.55536 2.23463
      vertex 55.1521 1.55536 50
    endloop
  endfacet
  facet normal 0.623218 -0.782048 0
    outer loop
      vertex 1.33523 117.802 2.23463
      vertex 2.58883 118.801 50
      vertex 1.33523 117.802 50
    endloop
  endfacet
  facet normal 0.623218 -0.782048 0
    outer loop
      vertex 2.58883 118.801 50
      vertex 1.33523 117.802 2.23463
      vertex 2.58883 118.801 2.23463
    endloop
  endfacet
  facet normal -0.222039 -0.975038 0
    outer loop
      vertex 53.5888 118.801 2.23463
      vertex 55.1521 118.445 50
      vertex 53.5888 118.801 50
    endloop
  endfacet
  facet normal -0.222039 -0.975038 -0
    outer loop
      vertex 55.1521 118.445 50
      vertex 53.5888 118.801 2.23463
      vertex 55.1521 118.445 2.23463
    endloop
  endfacet
  facet normal -0.66936 0.322346 0.669366
    outer loop
      vertex 55.1521 1.55536 2.23463
      vertex 55.8478 3 2.23463
      vertex 54.7654 3 1.15224
    endloop
  endfacet
  facet normal 0.623493 0.781829 -0
    outer loop
      vertex 2.58883 1.19857 2.23463
      vertex 1.33523 2.19829 50
      vertex 2.58883 1.19857 50
    endloop
  endfacet
  facet normal 0.623493 0.781829 0
    outer loop
      vertex 1.33523 2.19829 50
      vertex 2.58883 1.19857 2.23463
      vertex 1.33523 2.19829 2.23463
    endloop
  endfacet
  facet normal 0 0 1
    outer loop
      vertex 53.8297 117.746 1.15224
      vertex 54.7654 117 1.15224
      vertex 54.4772 117.598 1.15224
    endloop
  endfacet
  facet normal -0 0 1
    outer loop
      vertex 2.31043 117.332 1.15224
      vertex 54.7654 117 1.15224
      vertex 53.8297 117.746 1.15224
    endloop
  endfacet
  facet normal 0 0 1
    outer loop
      vertex 54.7654 117 1.15224
      vertex 2.31043 117.332 1.15224
      vertex 54.7654 3 1.15224
    endloop
  endfacet
  facet normal 0 0 1
    outer loop
      vertex 54.7654 3 1.15224
      vertex 53.8297 2.25382 1.15224
      vertex 54.4772 2.40161 1.15224
    endloop
  endfacet
  facet normal 0 0 1
    outer loop
      vertex 2.31043 117.332 1.15224
      vertex 53.8297 117.746 1.15224
      vertex 2.82969 117.746 1.15224
    endloop
  endfacet
  facet normal 0 0 1
    outer loop
      vertex 2.31043 2.66792 1.15224
      vertex 54.7654 3 1.15224
      vertex 2.31043 117.332 1.15224
    endloop
  endfacet
  facet normal 0 0 1
    outer loop
      vertex 54.7654 3 1.15224
      vertex 2.31043 2.66792 1.15224
      vertex 53.8297 2.25382 1.15224
    endloop
  endfacet
  facet normal 0 0 1
    outer loop
      vertex 53.8297 2.25382 1.15224
      vertex 2.31043 2.66792 1.15224
      vertex 2.82969 2.25382 1.15224
    endloop
  endfacet
  facet normal 0.462985 -0.580978 0.66941
    outer loop
      vertex 2.31043 117.332 1.15224
      vertex 2.58883 118.801 2.23463
      vertex 1.33523 117.802 2.23463
    endloop
  endfacet
  facet normal 0 -0.716109 0.697988
    outer loop
      vertex 2.82969 117.746 1.15224
      vertex 53.5888 118.801 2.23463
      vertex 2.58883 118.801 2.23463
    endloop
  endfacet
  facet normal 0 -0.716109 0.697988
    outer loop
      vertex 53.5888 118.801 2.23463
      vertex 2.82969 117.746 1.15224
      vertex 53.8297 117.746 1.15224
    endloop
  endfacet
  facet normal -0.669112 -0.322472 0.669553
    outer loop
      vertex 54.7654 117 1.15224
      vertex 55.1521 118.445 2.23463
      vertex 54.4772 117.598 1.15224
    endloop
  endfacet
  facet normal 0 -1 0
    outer loop
      vertex 2.58883 118.801 2.23463
      vertex 53.5888 118.801 50
      vertex 2.58883 118.801 50
    endloop
  endfacet
  facet normal 0 -1 -0
    outer loop
      vertex 53.5888 118.801 50
      vertex 2.58883 118.801 2.23463
      vertex 53.5888 118.801 2.23463
    endloop
  endfacet
  facet normal 1 -0 0
    outer loop
      vertex 1.33523 2.19829 50
      vertex 1.33523 117.802 2.23463
      vertex 1.33523 117.802 50
    endloop
  endfacet
  facet normal 1 0 0
    outer loop
      vertex 1.33523 117.802 2.23463
      vertex 1.33523 2.19829 50
      vertex 1.33523 2.19829 2.23463
    endloop
  endfacet
  facet normal -0.165575 -0.724392 0.66921
    outer loop
      vertex 53.8297 117.746 1.15224
      vertex 54.4772 117.598 1.15224
      vertex 53.5888 118.801 2.23463
    endloop
  endfacet
  facet normal 0.463215 0.580849 0.669363
    outer loop
      vertex 2.58883 1.19857 2.23463
      vertex 2.31043 2.66792 1.15224
      vertex 1.33523 2.19829 2.23463
    endloop
  endfacet
  facet normal -0.669331 0.322367 0.669384
    outer loop
      vertex 55.1521 1.55536 2.23463
      vertex 54.7654 3 1.15224
      vertex 54.4772 2.40161 1.15224
    endloop
  endfacet
  facet normal -0.901012 -0.433795 0
    outer loop
      vertex 55.8478 117 2.23463
      vertex 55.1521 118.445 50
      vertex 55.1521 118.445 2.23463
    endloop
  endfacet
  facet normal -0.901012 -0.433795 0
    outer loop
      vertex 55.1521 118.445 50
      vertex 55.8478 117 2.23463
      vertex 55.8478 117 50
    endloop
  endfacet
  facet normal -1 0 0
    outer loop
      vertex 55.8478 3 2.23463
      vertex 55.8478 117 50
      vertex 55.8478 117 2.23463
    endloop
  endfacet
  facet normal -1 -0 0
    outer loop
      vertex 55.8478 117 50
      vertex 55.8478 3 2.23463
      vertex 55.8478 3 50
    endloop
  endfacet
  facet normal 0.463216 0.580849 0.669362
    outer loop
      vertex 2.58883 1.19857 2.23463
      vertex 2.82969 2.25382 1.15224
      vertex 2.31043 2.66792 1.15224
    endloop
  endfacet
  facet normal 0 1 -0
    outer loop
      vertex 53.5888 1.19857 2.23463
      vertex 2.58883 1.19857 50
      vertex 53.5888 1.19857 50
    endloop
  endfacet
  facet normal 0 1 0
    outer loop
      vertex 2.58883 1.19857 50
      vertex 53.5888 1.19857 2.23463
      vertex 2.58883 1.19857 2.23463
    endloop
  endfacet
  facet normal -0 0.716027 0.698073
    outer loop
      vertex 2.82969 2.25382 1.15224
      vertex 53.5888 1.19857 2.23463
      vertex 53.8297 2.25382 1.15224
    endloop
  endfacet
  facet normal 0 0.716027 0.698073
    outer loop
      vertex 53.5888 1.19857 2.23463
      vertex 2.82969 2.25382 1.15224
      vertex 2.58883 1.19857 2.23463
    endloop
  endfacet
  facet normal 0.742936 0 0.669362
    outer loop
      vertex 1.33523 117.802 2.23463
      vertex 2.31043 2.66792 1.15224
      vertex 2.31043 117.332 1.15224
    endloop
  endfacet
  facet normal 0.742936 0 0.669362
    outer loop
      vertex 2.31043 2.66792 1.15224
      vertex 1.33523 117.802 2.23463
      vertex 1.33523 2.19829 2.23463
    endloop
  endfacet
  facet normal 0.463177 -0.580941 0.669309
    outer loop
      vertex 2.82969 117.746 1.15224
      vertex 2.58883 118.801 2.23463
      vertex 2.31043 117.332 1.15224
    endloop
  endfacet
  facet normal -0.165322 0.724313 0.669357
    outer loop
      vertex 54.4772 2.40161 1.15224
      vertex 53.8297 2.25382 1.15224
      vertex 53.5888 1.19857 2.23463
    endloop
  endfacet
  facet normal -0.165308 0.72431 0.669365
    outer loop
      vertex 55.1521 1.55536 2.23463
      vertex 54.4772 2.40161 1.15224
      vertex 53.5888 1.19857 2.23463
    endloop
  endfacet
  facet normal 0.463215 -0.580861 0.669352
    outer loop
      vertex 58.3104 38.3321 1.15224
      vertex 58.5888 39.8014 2.23463
      vertex 57.3352 38.8017 2.23463
    endloop
  endfacet
  facet normal -0.900969 0.433883 0
    outer loop
      vertex 99.1521 1.55536 2.23463
      vertex 99.8478 3 50
      vertex 99.8478 3 2.23463
    endloop
  endfacet
  facet normal -0.900969 0.433883 0
    outer loop
      vertex 99.8478 3 50
      vertex 99.1521 1.55536 2.23463
      vertex 99.1521 1.55536 50
    endloop
  endfacet
  facet normal 0.463215 0.580849 0.669363
    outer loop
      vertex 58.5888 1.19857 2.23463
      vertex 58.3104 2.66792 1.15224
      vertex 57.3352 2.19829 2.23463
    endloop
  endfacet
  facet normal -0.669341 -0.322366 0.669375
    outer loop
      vertex 98.7654 38 1.15224
      vertex 99.1521 39.4446 2.23463
      vertex 98.4772 38.5984 1.15224
    endloop
  endfacet
  facet normal -0.165322 0.724313 0.669357
    outer loop
      vertex 98.4772 2.40161 1.15224
      vertex 97.8297 2.25382 1.15224
      vertex 97.5888 1.19857 2.23463
    endloop
  endfacet
  facet normal 1 -0 0
    outer loop
      vertex 57.3352 2.19829 50
      vertex 57.3352 38.8017 2.23463
      vertex 57.3352 38.8017 50
    endloop
  endfacet
  facet normal 1 0 0
    outer loop
      vertex 57.3352 38.8017 2.23463
      vertex 57.3352 2.19829 50
      vertex 57.3352 2.19829 2.23463
    endloop
  endfacet
  facet normal 0.623485 -0.781835 0
    outer loop
      vertex 57.3352 38.8017 2.23463
      vertex 58.5888 39.8014 50
      vertex 57.3352 38.8017 50
    endloop
  endfacet
  facet normal 0.623485 -0.781835 0
    outer loop
      vertex 58.5888 39.8014 50
      vertex 57.3352 38.8017 2.23463
      vertex 58.5888 39.8014 2.23463
    endloop
  endfacet
  facet normal -0.165337 -0.724329 0.669336
    outer loop
      vertex 97.8297 38.7462 1.15224
      vertex 98.4772 38.5984 1.15224
      vertex 97.5888 39.8014 2.23463
    endloop
  endfacet
  facet normal -0 0.716027 0.698073
    outer loop
      vertex 58.8297 2.25382 1.15224
      vertex 97.5888 1.19857 2.23463
      vertex 97.8297 2.25382 1.15224
    endloop
  endfacet
  facet normal 0 0.716027 0.698073
    outer loop
      vertex 97.5888 1.19857 2.23463
      vertex 58.8297 2.25382 1.15224
      vertex 58.5888 1.19857 2.23463
    endloop
  endfacet
  facet normal -0.669331 0.322367 0.669384
    outer loop
      vertex 99.1521 1.55536 2.23463
      vertex 98.7654 3 1.15224
      vertex 98.4772 2.40161 1.15224
    endloop
  endfacet
  facet normal 0 1 -0
    outer loop
      vertex 97.5888 1.19857 2.23463
      vertex 58.5888 1.19857 50
      vertex 97.5888 1.19857 50
    endloop
  endfacet
  facet normal 0 1 0
    outer loop
      vertex 58.5888 1.19857 50
      vertex 97.5888 1.19857 2.23463
      vertex 58.5888 1.19857 2.23463
    endloop
  endfacet
  facet normal -0.669358 -0.322354 0.669364
    outer loop
      vertex 99.8478 38 2.23463
      vertex 99.1521 39.4446 2.23463
      vertex 98.7654 38 1.15224
    endloop
  endfacet
  facet normal 0.463193 -0.580865 0.669363
    outer loop
      vertex 58.8297 38.7462 1.15224
      vertex 58.5888 39.8014 2.23463
      vertex 58.3104 38.3321 1.15224
    endloop
  endfacet
  facet normal -0.165308 0.72431 0.669365
    outer loop
      vertex 99.1521 1.55536 2.23463
      vertex 98.4772 2.40161 1.15224
      vertex 97.5888 1.19857 2.23463
    endloop
  endfacet
  facet normal -0.707104 0 0.70711
    outer loop
      vertex 98.7654 3 1.15224
      vertex 99.8478 38 2.23463
      vertex 98.7654 38 1.15224
    endloop
  endfacet
  facet normal -0.707104 0 0.70711
    outer loop
      vertex 99.8478 38 2.23463
      vertex 98.7654 3 1.15224
      vertex 99.8478 3 2.23463
    endloop
  endfacet
  facet normal -0.165316 -0.724324 0.669347
    outer loop
      vertex 98.4772 38.5984 1.15224
      vertex 99.1521 39.4446 2.23463
      vertex 97.5888 39.8014 2.23463
    endloop
  endfacet
  facet normal -0.900965 -0.433893 0
    outer loop
      vertex 99.8478 38 2.23463
      vertex 99.1521 39.4446 50
      vertex 99.1521 39.4446 2.23463
    endloop
  endfacet
  facet normal -0.900965 -0.433893 0
    outer loop
      vertex 99.1521 39.4446 50
      vertex 99.8478 38 2.23463
      vertex 99.8478 38 50
    endloop
  endfacet
  facet normal -0.222507 0.974931 0
    outer loop
      vertex 99.1521 1.55536 2.23463
      vertex 97.5888 1.19857 50
      vertex 99.1521 1.55536 50
    endloop
  endfacet
  facet normal -0.222507 0.974931 0
    outer loop
      vertex 97.5888 1.19857 50
      vertex 99.1521 1.55536 2.23463
      vertex 97.5888 1.19857 2.23463
    endloop
  endfacet
  facet normal 0.742936 0 0.669362
    outer loop
      vertex 57.3352 38.8017 2.23463
      vertex 58.3104 2.66792 1.15224
      vertex 58.3104 38.3321 1.15224
    endloop
  endfacet
  facet normal 0.742936 0 0.669362
    outer loop
      vertex 58.3104 2.66792 1.15224
      vertex 57.3352 38.8017 2.23463
      vertex 57.3352 2.19829 2.23463
    endloop
  endfacet
  facet normal -1 0 0
    outer loop
      vertex 99.8478 3 2.23463
      vertex 99.8478 38 50
      vertex 99.8478 38 2.23463
    endloop
  endfacet
  facet normal -1 -0 0
    outer loop
      vertex 99.8478 38 50
      vertex 99.8478 3 2.23463
      vertex 99.8478 3 50
    endloop
  endfacet
  facet normal 0 -0.716043 0.698056
    outer loop
      vertex 58.8297 38.7462 1.15224
      vertex 97.5888 39.8014 2.23463
      vertex 58.5888 39.8014 2.23463
    endloop
  endfacet
  facet normal 0 -0.716043 0.698056
    outer loop
      vertex 97.5888 39.8014 2.23463
      vertex 58.8297 38.7462 1.15224
      vertex 97.8297 38.7462 1.15224
    endloop
  endfacet
  facet normal -0.66936 0.322346 0.669366
    outer loop
      vertex 99.1521 1.55536 2.23463
      vertex 99.8478 3 2.23463
      vertex 98.7654 3 1.15224
    endloop
  endfacet
  facet normal 0.623493 0.781829 -0
    outer loop
      vertex 58.5888 1.19857 2.23463
      vertex 57.3352 2.19829 50
      vertex 58.5888 1.19857 50
    endloop
  endfacet
  facet normal 0.623493 0.781829 0
    outer loop
      vertex 57.3352 2.19829 50
      vertex 58.5888 1.19857 2.23463
      vertex 57.3352 2.19829 2.23463
    endloop
  endfacet
  facet normal -0.222513 -0.97493 0
    outer loop
      vertex 97.5888 39.8014 2.23463
      vertex 99.1521 39.4446 50
      vertex 97.5888 39.8014 50
    endloop
  endfacet
  facet normal -0.222513 -0.97493 -0
    outer loop
      vertex 99.1521 39.4446 50
      vertex 97.5888 39.8014 2.23463
      vertex 99.1521 39.4446 2.23463
    endloop
  endfacet
  facet normal 0 -1 0
    outer loop
      vertex 58.5888 39.8014 2.23463
      vertex 97.5888 39.8014 50
      vertex 58.5888 39.8014 50
    endloop
  endfacet
  facet normal 0 -1 -0
    outer loop
      vertex 97.5888 39.8014 50
      vertex 58.5888 39.8014 2.23463
      vertex 97.5888 39.8014 2.23463
    endloop
  endfacet
  facet normal 0.463185 0.580855 0.669378
    outer loop
      vertex 58.5888 1.19857 2.23463
      vertex 58.8297 2.25382 1.15224
      vertex 58.3104 2.66792 1.15224
    endloop
  endfacet
  facet normal 0 0 1
    outer loop
      vertex 97.8297 38.7462 1.15224
      vertex 98.7654 38 1.15224
      vertex 98.4772 38.5984 1.15224
    endloop
  endfacet
  facet normal 0 0 1
    outer loop
      vertex 98.7654 38 1.15224
      vertex 97.8297 38.7462 1.15224
      vertex 98.7654 3 1.15224
    endloop
  endfacet
  facet normal 0 0 1
    outer loop
      vertex 97.8297 2.25382 1.15224
      vertex 98.7654 3 1.15224
      vertex 97.8297 38.7462 1.15224
    endloop
  endfacet
  facet normal 0 0 1
    outer loop
      vertex 98.7654 3 1.15224
      vertex 97.8297 2.25382 1.15224
      vertex 98.4772 2.40161 1.15224
    endloop
  endfacet
  facet normal -0 0 1
    outer loop
      vertex 58.8297 38.7462 1.15224
      vertex 97.8297 2.25382 1.15224
      vertex 97.8297 38.7462 1.15224
    endloop
  endfacet
  facet normal 0 0 1
    outer loop
      vertex 58.8297 38.7462 1.15224
      vertex 58.8297 2.25382 1.15224
      vertex 97.8297 2.25382 1.15224
    endloop
  endfacet
  facet normal -0 0 1
    outer loop
      vertex 58.3104 38.3321 1.15224
      vertex 58.8297 2.25382 1.15224
      vertex 58.8297 38.7462 1.15224
    endloop
  endfacet
  facet normal 0 0 1
    outer loop
      vertex 58.8297 2.25382 1.15224
      vertex 58.3104 38.3321 1.15224
      vertex 58.3104 2.66792 1.15224
    endloop
  endfacet
  facet normal 0.463167 -0.580986 0.669277
    outer loop
      vertex 102.31 38.3321 1.15224
      vertex 102.589 39.8014 2.23463
      vertex 101.335 38.8017 2.23463
    endloop
  endfacet
  facet normal -0.900896 0.434035 0
    outer loop
      vertex 143.152 1.55536 2.23463
      vertex 143.848 3 50
      vertex 143.848 3 2.23463
    endloop
  endfacet
  facet normal -0.900896 0.434035 0
    outer loop
      vertex 143.848 3 50
      vertex 143.152 1.55536 2.23463
      vertex 143.152 1.55536 50
    endloop
  endfacet
  facet normal 0.463167 0.580974 0.669288
    outer loop
      vertex 102.589 1.19857 2.23463
      vertex 102.31 2.66792 1.15224
      vertex 101.335 2.19829 2.23463
    endloop
  endfacet
  facet normal -0.66944 -0.32219 0.669361
    outer loop
      vertex 142.765 38 1.15224
      vertex 143.152 39.4446 2.23463
      vertex 142.477 38.5984 1.15224
    endloop
  endfacet
  facet normal -0.165452 0.724319 0.669319
    outer loop
      vertex 142.477 2.40161 1.15224
      vertex 141.83 2.25382 1.15224
      vertex 141.589 1.19857 2.23463
    endloop
  endfacet
  facet normal 1 -0 0
    outer loop
      vertex 101.335 2.19829 50
      vertex 101.335 38.8017 2.23463
      vertex 101.335 38.8017 50
    endloop
  endfacet
  facet normal 1 0 0
    outer loop
      vertex 101.335 38.8017 2.23463
      vertex 101.335 2.19829 50
      vertex 101.335 2.19829 2.23463
    endloop
  endfacet
  facet normal 0.623363 -0.781932 0
    outer loop
      vertex 101.335 38.8017 2.23463
      vertex 102.589 39.8014 50
      vertex 101.335 38.8017 50
    endloop
  endfacet
  facet normal 0.623363 -0.781932 0
    outer loop
      vertex 102.589 39.8014 50
      vertex 101.335 38.8017 2.23463
      vertex 102.589 39.8014 2.23463
    endloop
  endfacet
  facet normal -0.165466 -0.724335 0.669298
    outer loop
      vertex 141.83 38.7462 1.15224
      vertex 142.477 38.5984 1.15224
      vertex 141.589 39.8014 2.23463
    endloop
  endfacet
  facet normal -0 0.716027 0.698073
    outer loop
      vertex 102.83 2.25382 1.15224
      vertex 141.589 1.19857 2.23463
      vertex 141.83 2.25382 1.15224
    endloop
  endfacet
  facet normal 0 0.716027 0.698073
    outer loop
      vertex 141.589 1.19857 2.23463
      vertex 102.83 2.25382 1.15224
      vertex 102.589 1.19857 2.23463
    endloop
  endfacet
  facet normal -0.66943 0.322191 0.66937
    outer loop
      vertex 143.152 1.55536 2.23463
      vertex 142.765 3 1.15224
      vertex 142.477 2.40161 1.15224
    endloop
  endfacet
  facet normal 0 1 -0
    outer loop
      vertex 141.589 1.19857 2.23463
      vertex 102.589 1.19857 50
      vertex 141.589 1.19857 50
    endloop
  endfacet
  facet normal 0 1 0
    outer loop
      vertex 102.589 1.19857 50
      vertex 141.589 1.19857 2.23463
      vertex 102.589 1.19857 2.23463
    endloop
  endfacet
  facet normal -0.669162 -0.322398 0.669539
    outer loop
      vertex 143.848 38 2.23463
      vertex 143.152 39.4446 2.23463
      vertex 142.765 38 1.15224
    endloop
  endfacet
  facet normal 0.462733 -0.58107 0.669504
    outer loop
      vertex 102.83 38.7462 1.15224
      vertex 102.589 39.8014 2.23463
      vertex 102.31 38.3321 1.15224
    endloop
  endfacet
  facet normal -0.165335 0.724289 0.66938
    outer loop
      vertex 143.152 1.55536 2.23463
      vertex 142.477 2.40161 1.15224
      vertex 141.589 1.19857 2.23463
    endloop
  endfacet
  facet normal -0.706908 0 0.707306
    outer loop
      vertex 142.765 38 1.15224
      vertex 143.848 3 2.23463
      vertex 143.848 38 2.23463
    endloop
  endfacet
  facet normal -0.706908 0 0.707306
    outer loop
      vertex 143.848 3 2.23463
      vertex 142.765 38 1.15224
      vertex 142.765 3 1.15224
    endloop
  endfacet
  facet normal -0.165343 -0.724303 0.669363
    outer loop
      vertex 142.477 38.5984 1.15224
      vertex 143.152 39.4446 2.23463
      vertex 141.589 39.8014 2.23463
    endloop
  endfacet
  facet normal -0.900891 -0.434044 0
    outer loop
      vertex 143.848 38 2.23463
      vertex 143.152 39.4446 50
      vertex 143.152 39.4446 2.23463
    endloop
  endfacet
  facet normal -0.900891 -0.434044 0
    outer loop
      vertex 143.152 39.4446 50
      vertex 143.848 38 2.23463
      vertex 143.848 38 50
    endloop
  endfacet
  facet normal -0.222548 0.974922 0
    outer loop
      vertex 143.152 1.55536 2.23463
      vertex 141.589 1.19857 50
      vertex 143.152 1.55536 50
    endloop
  endfacet
  facet normal -0.222548 0.974922 0
    outer loop
      vertex 141.589 1.19857 50
      vertex 143.152 1.55536 2.23463
      vertex 141.589 1.19857 2.23463
    endloop
  endfacet
  facet normal 0.743004 0 0.669287
    outer loop
      vertex 101.335 38.8017 2.23463
      vertex 102.31 2.66792 1.15224
      vertex 102.31 38.3321 1.15224
    endloop
  endfacet
  facet normal 0.743004 0 0.669287
    outer loop
      vertex 102.31 2.66792 1.15224
      vertex 101.335 38.8017 2.23463
      vertex 101.335 2.19829 2.23463
    endloop
  endfacet
  facet normal -1 0 0
    outer loop
      vertex 143.848 3 2.23463
      vertex 143.848 38 50
      vertex 143.848 38 2.23463
    endloop
  endfacet
  facet normal -1 -0 0
    outer loop
      vertex 143.848 38 50
      vertex 143.848 3 2.23463
      vertex 143.848 3 50
    endloop
  endfacet
  facet normal 0 -0.716043 0.698056
    outer loop
      vertex 102.83 38.7462 1.15224
      vertex 141.589 39.8014 2.23463
      vertex 102.589 39.8014 2.23463
    endloop
  endfacet
  facet normal 0 -0.716043 0.698056
    outer loop
      vertex 141.589 39.8014 2.23463
      vertex 102.83 38.7462 1.15224
      vertex 141.83 38.7462 1.15224
    endloop
  endfacet
  facet normal -0.669164 0.32239 0.669541
    outer loop
      vertex 143.152 1.55536 2.23463
      vertex 143.848 3 2.23463
      vertex 142.765 3 1.15224
    endloop
  endfacet
  facet normal 0.623371 0.781926 -0
    outer loop
      vertex 102.589 1.19857 2.23463
      vertex 101.335 2.19829 50
      vertex 102.589 1.19857 50
    endloop
  endfacet
  facet normal 0.623371 0.781926 0
    outer loop
      vertex 101.335 2.19829 50
      vertex 102.589 1.19857 2.23463
      vertex 101.335 2.19829 2.23463
    endloop
  endfacet
  facet normal -0.222554 -0.97492 0
    outer loop
      vertex 141.589 39.8014 2.23463
      vertex 143.152 39.4446 50
      vertex 141.589 39.8014 50
    endloop
  endfacet
  facet normal -0.222554 -0.97492 -0
    outer loop
      vertex 143.152 39.4446 50
      vertex 141.589 39.8014 2.23463
      vertex 143.152 39.4446 2.23463
    endloop
  endfacet
  facet normal 0 -1 0
    outer loop
      vertex 102.589 39.8014 2.23463
      vertex 141.589 39.8014 50
      vertex 102.589 39.8014 50
    endloop
  endfacet
  facet normal 0 -1 -0
    outer loop
      vertex 141.589 39.8014 50
      vertex 102.589 39.8014 2.23463
      vertex 141.589 39.8014 2.23463
    endloop
  endfacet
  facet normal 0.462725 0.58106 0.669519
    outer loop
      vertex 102.589 1.19857 2.23463
      vertex 102.83 2.25382 1.15224
      vertex 102.31 2.66792 1.15224
    endloop
  endfacet
  facet normal 0 0 1
    outer loop
      vertex 141.83 38.7462 1.15224
      vertex 142.765 38 1.15224
      vertex 142.477 38.5984 1.15224
    endloop
  endfacet
  facet normal 0 0 1
    outer loop
      vertex 142.765 38 1.15224
      vertex 141.83 38.7462 1.15224
      vertex 142.765 3 1.15224
    endloop
  endfacet
  facet normal 0 0 1
    outer loop
      vertex 141.83 2.25382 1.15224
      vertex 142.765 3 1.15224
      vertex 141.83 38.7462 1.15224
    endloop
  endfacet
  facet normal 0 0 1
    outer loop
      vertex 142.765 3 1.15224
      vertex 141.83 2.25382 1.15224
      vertex 142.477 2.40161 1.15224
    endloop
  endfacet
  facet normal -0 0 1
    outer loop
      vertex 102.83 38.7462 1.15224
      vertex 141.83 2.25382 1.15224
      vertex 141.83 38.7462 1.15224
    endloop
  endfacet
  facet normal 0 0 1
    outer loop
      vertex 102.83 38.7462 1.15224
      vertex 102.83 2.25382 1.15224
      vertex 141.83 2.25382 1.15224
    endloop
  endfacet
  facet normal -0 0 1
    outer loop
      vertex 102.31 38.3321 1.15224
      vertex 102.83 2.25382 1.15224
      vertex 102.83 38.7462 1.15224
    endloop
  endfacet
  facet normal 0 0 1
    outer loop
      vertex 102.83 2.25382 1.15224
      vertex 102.31 38.3321 1.15224
      vertex 102.31 2.66792 1.15224
    endloop
  endfacet
  facet normal -0.669211 -0.322296 0.669539
    outer loop
      vertex 142.765 117 1.15224
      vertex 143.152 118.445 2.23463
      vertex 142.477 117.598 1.15224
    endloop
  endfacet
  facet normal 0.623363 0.781932 -0
    outer loop
      vertex 102.589 41.1986 2.23463
      vertex 101.335 42.1983 50
      vertex 102.589 41.1986 50
    endloop
  endfacet
  facet normal 0.623363 0.781932 0
    outer loop
      vertex 101.335 42.1983 50
      vertex 102.589 41.1986 2.23463
      vertex 101.335 42.1983 2.23463
    endloop
  endfacet
  facet normal 0.462936 -0.581103 0.669335
    outer loop
      vertex 102.31 117.332 1.15224
      vertex 102.589 118.801 2.23463
      vertex 101.335 117.802 2.23463
    endloop
  endfacet
  facet normal 0 1 -0
    outer loop
      vertex 141.589 41.1986 2.23463
      vertex 102.589 41.1986 50
      vertex 141.589 41.1986 50
    endloop
  endfacet
  facet normal 0 1 0
    outer loop
      vertex 102.589 41.1986 50
      vertex 141.589 41.1986 2.23463
      vertex 102.589 41.1986 2.23463
    endloop
  endfacet
  facet normal 0.743004 0 0.669287
    outer loop
      vertex 101.335 117.802 2.23463
      vertex 102.31 42.6679 1.15224
      vertex 102.31 117.332 1.15224
    endloop
  endfacet
  facet normal 0.743004 0 0.669287
    outer loop
      vertex 102.31 42.6679 1.15224
      vertex 101.335 117.802 2.23463
      vertex 101.335 42.1983 2.23463
    endloop
  endfacet
  facet normal 1 -0 0
    outer loop
      vertex 101.335 42.1983 50
      vertex 101.335 117.802 2.23463
      vertex 101.335 117.802 50
    endloop
  endfacet
  facet normal 1 0 0
    outer loop
      vertex 101.335 117.802 2.23463
      vertex 101.335 42.1983 50
      vertex 101.335 42.1983 2.23463
    endloop
  endfacet
  facet normal -0.165466 0.724335 0.669298
    outer loop
      vertex 142.477 42.4016 1.15224
      vertex 141.83 42.2538 1.15224
      vertex 141.589 41.1986 2.23463
    endloop
  endfacet
  facet normal 0 -1 0
    outer loop
      vertex 102.589 118.801 2.23463
      vertex 141.589 118.801 50
      vertex 102.589 118.801 50
    endloop
  endfacet
  facet normal 0 -1 -0
    outer loop
      vertex 141.589 118.801 50
      vertex 102.589 118.801 2.23463
      vertex 141.589 118.801 2.23463
    endloop
  endfacet
  facet normal -0.165343 0.724303 0.669363
    outer loop
      vertex 143.152 41.5554 2.23463
      vertex 142.477 42.4016 1.15224
      vertex 141.589 41.1986 2.23463
    endloop
  endfacet
  facet normal 0.463167 0.580986 0.669277
    outer loop
      vertex 102.589 41.1986 2.23463
      vertex 102.31 42.6679 1.15224
      vertex 101.335 42.1983 2.23463
    endloop
  endfacet
  facet normal -0.706908 0 0.707306
    outer loop
      vertex 142.765 117 1.15224
      vertex 143.848 43 2.23463
      vertex 143.848 117 2.23463
    endloop
  endfacet
  facet normal -0.706908 0 0.707306
    outer loop
      vertex 143.848 43 2.23463
      vertex 142.765 117 1.15224
      vertex 142.765 43 1.15224
    endloop
  endfacet
  facet normal 0.462686 -0.581152 0.669465
    outer loop
      vertex 102.83 117.746 1.15224
      vertex 102.589 118.801 2.23463
      vertex 102.31 117.332 1.15224
    endloop
  endfacet
  facet normal -0.669181 -0.322318 0.669558
    outer loop
      vertex 143.848 117 2.23463
      vertex 143.152 118.445 2.23463
      vertex 142.765 117 1.15224
    endloop
  endfacet
  facet normal -0.669162 0.322398 0.669539
    outer loop
      vertex 143.152 41.5554 2.23463
      vertex 143.848 43 2.23463
      vertex 142.765 43 1.15224
    endloop
  endfacet
  facet normal 0.623096 -0.782145 0
    outer loop
      vertex 101.335 117.802 2.23463
      vertex 102.589 118.801 50
      vertex 101.335 117.802 50
    endloop
  endfacet
  facet normal 0.623096 -0.782145 0
    outer loop
      vertex 102.589 118.801 50
      vertex 101.335 117.802 2.23463
      vertex 102.589 118.801 2.23463
    endloop
  endfacet
  facet normal -0.222079 -0.975029 0
    outer loop
      vertex 141.589 118.801 2.23463
      vertex 143.152 118.445 50
      vertex 141.589 118.801 50
    endloop
  endfacet
  facet normal -0.222079 -0.975029 -0
    outer loop
      vertex 143.152 118.445 50
      vertex 141.589 118.801 2.23463
      vertex 143.152 118.445 2.23463
    endloop
  endfacet
  facet normal 0.462733 0.58107 0.669504
    outer loop
      vertex 102.589 41.1986 2.23463
      vertex 102.83 42.2538 1.15224
      vertex 102.31 42.6679 1.15224
    endloop
  endfacet
  facet normal -0.66944 0.32219 0.669361
    outer loop
      vertex 143.152 41.5554 2.23463
      vertex 142.765 43 1.15224
      vertex 142.477 42.4016 1.15224
    endloop
  endfacet
  facet normal -0.222554 0.97492 0
    outer loop
      vertex 143.152 41.5554 2.23463
      vertex 141.589 41.1986 50
      vertex 143.152 41.5554 50
    endloop
  endfacet
  facet normal -0.222554 0.97492 0
    outer loop
      vertex 141.589 41.1986 50
      vertex 143.152 41.5554 2.23463
      vertex 141.589 41.1986 2.23463
    endloop
  endfacet
  facet normal 0 0 1
    outer loop
      vertex 141.83 117.746 1.15224
      vertex 142.765 117 1.15224
      vertex 142.477 117.598 1.15224
    endloop
  endfacet
  facet normal -0 0 1
    outer loop
      vertex 102.31 117.332 1.15224
      vertex 142.765 117 1.15224
      vertex 141.83 117.746 1.15224
    endloop
  endfacet
  facet normal 0 0 1
    outer loop
      vertex 142.765 117 1.15224
      vertex 102.31 117.332 1.15224
      vertex 142.765 43 1.15224
    endloop
  endfacet
  facet normal 0 0 1
    outer loop
      vertex 142.765 43 1.15224
      vertex 141.83 42.2538 1.15224
      vertex 142.477 42.4016 1.15224
    endloop
  endfacet
  facet normal 0 0 1
    outer loop
      vertex 102.31 117.332 1.15224
      vertex 141.83 117.746 1.15224
      vertex 102.83 117.746 1.15224
    endloop
  endfacet
  facet normal 0 0 1
    outer loop
      vertex 102.31 42.6679 1.15224
      vertex 142.765 43 1.15224
      vertex 102.31 117.332 1.15224
    endloop
  endfacet
  facet normal 0 0 1
    outer loop
      vertex 142.765 43 1.15224
      vertex 102.31 42.6679 1.15224
      vertex 141.83 42.2538 1.15224
    endloop
  endfacet
  facet normal 0 0 1
    outer loop
      vertex 141.83 42.2538 1.15224
      vertex 102.31 42.6679 1.15224
      vertex 102.83 42.2538 1.15224
    endloop
  endfacet
  facet normal 0 -0.716109 0.697988
    outer loop
      vertex 102.83 117.746 1.15224
      vertex 141.589 118.801 2.23463
      vertex 102.589 118.801 2.23463
    endloop
  endfacet
  facet normal 0 -0.716109 0.697988
    outer loop
      vertex 141.589 118.801 2.23463
      vertex 102.83 117.746 1.15224
      vertex 141.83 117.746 1.15224
    endloop
  endfacet
  facet normal -0.900891 0.434044 0
    outer loop
      vertex 143.152 41.5554 2.23463
      vertex 143.848 43 50
      vertex 143.848 43 2.23463
    endloop
  endfacet
  facet normal -0.900891 0.434044 0
    outer loop
      vertex 143.848 43 50
      vertex 143.152 41.5554 2.23463
      vertex 143.152 41.5554 50
    endloop
  endfacet
  facet normal -1 0 0
    outer loop
      vertex 143.848 43 2.23463
      vertex 143.848 117 50
      vertex 143.848 117 2.23463
    endloop
  endfacet
  facet normal -1 -0 0
    outer loop
      vertex 143.848 117 50
      vertex 143.848 43 2.23463
      vertex 143.848 43 50
    endloop
  endfacet
  facet normal -0.165705 -0.724397 0.669171
    outer loop
      vertex 141.83 117.746 1.15224
      vertex 142.477 117.598 1.15224
      vertex 141.589 118.801 2.23463
    endloop
  endfacet
  facet normal -0.164949 -0.7242 0.669572
    outer loop
      vertex 142.477 117.598 1.15224
      vertex 143.152 118.445 2.23463
      vertex 141.589 118.801 2.23463
    endloop
  endfacet
  facet normal -0 0.716043 0.698056
    outer loop
      vertex 102.83 42.2538 1.15224
      vertex 141.589 41.1986 2.23463
      vertex 141.83 42.2538 1.15224
    endloop
  endfacet
  facet normal 0 0.716043 0.698056
    outer loop
      vertex 141.589 41.1986 2.23463
      vertex 102.83 42.2538 1.15224
      vertex 102.589 41.1986 2.23463
    endloop
  endfacet
  facet normal -0.900938 -0.433947 0
    outer loop
      vertex 143.848 117 2.23463
      vertex 143.152 118.445 50
      vertex 143.152 118.445 2.23463
    endloop
  endfacet
  facet normal -0.900938 -0.433947 0
    outer loop
      vertex 143.152 118.445 50
      vertex 143.848 117 2.23463
      vertex 143.848 117 50
    endloop
  endfacet
  facet normal -0.669112 -0.322472 0.669553
    outer loop
      vertex 98.7654 117 1.15224
      vertex 99.1521 118.445 2.23463
      vertex 98.4772 117.598 1.15224
    endloop
  endfacet
  facet normal 0.623485 0.781835 -0
    outer loop
      vertex 58.5888 41.1986 2.23463
      vertex 57.3352 42.1983 50
      vertex 58.5888 41.1986 50
    endloop
  endfacet
  facet normal 0.623485 0.781835 0
    outer loop
      vertex 57.3352 42.1983 50
      vertex 58.5888 41.1986 2.23463
      vertex 57.3352 42.1983 2.23463
    endloop
  endfacet
  facet normal 0.462985 -0.580978 0.66941
    outer loop
      vertex 58.3104 117.332 1.15224
      vertex 58.5888 118.801 2.23463
      vertex 57.3352 117.802 2.23463
    endloop
  endfacet
  facet normal 0 1 -0
    outer loop
      vertex 97.5888 41.1986 2.23463
      vertex 58.5888 41.1986 50
      vertex 97.5888 41.1986 50
    endloop
  endfacet
  facet normal 0 1 0
    outer loop
      vertex 58.5888 41.1986 50
      vertex 97.5888 41.1986 2.23463
      vertex 58.5888 41.1986 2.23463
    endloop
  endfacet
  facet normal 0.742936 0 0.669362
    outer loop
      vertex 57.3352 117.802 2.23463
      vertex 58.3104 42.6679 1.15224
      vertex 58.3104 117.332 1.15224
    endloop
  endfacet
  facet normal 0.742936 0 0.669362
    outer loop
      vertex 58.3104 42.6679 1.15224
      vertex 57.3352 117.802 2.23463
      vertex 57.3352 42.1983 2.23463
    endloop
  endfacet
  facet normal 1 -0 0
    outer loop
      vertex 57.3352 42.1983 50
      vertex 57.3352 117.802 2.23463
      vertex 57.3352 117.802 50
    endloop
  endfacet
  facet normal 1 0 0
    outer loop
      vertex 57.3352 117.802 2.23463
      vertex 57.3352 42.1983 50
      vertex 57.3352 42.1983 2.23463
    endloop
  endfacet
  facet normal -0.165337 0.724329 0.669336
    outer loop
      vertex 98.4772 42.4016 1.15224
      vertex 97.8297 42.2538 1.15224
      vertex 97.5888 41.1986 2.23463
    endloop
  endfacet
  facet normal 0 -1 0
    outer loop
      vertex 58.5888 118.801 2.23463
      vertex 97.5888 118.801 50
      vertex 58.5888 118.801 50
    endloop
  endfacet
  facet normal 0 -1 -0
    outer loop
      vertex 97.5888 118.801 50
      vertex 58.5888 118.801 2.23463
      vertex 97.5888 118.801 2.23463
    endloop
  endfacet
  facet normal -0.165316 0.724324 0.669347
    outer loop
      vertex 99.1521 41.5554 2.23463
      vertex 98.4772 42.4016 1.15224
      vertex 97.5888 41.1986 2.23463
    endloop
  endfacet
  facet normal 0.463215 0.580861 0.669352
    outer loop
      vertex 58.5888 41.1986 2.23463
      vertex 58.3104 42.6679 1.15224
      vertex 57.3352 42.1983 2.23463
    endloop
  endfacet
  facet normal -0.707104 0 0.70711
    outer loop
      vertex 98.7654 43 1.15224
      vertex 99.8478 117 2.23463
      vertex 98.7654 117 1.15224
    endloop
  endfacet
  facet normal -0.707104 0 0.70711
    outer loop
      vertex 99.8478 117 2.23463
      vertex 98.7654 43 1.15224
      vertex 99.8478 43 2.23463
    endloop
  endfacet
  facet normal 0.463146 -0.580947 0.669325
    outer loop
      vertex 58.8297 117.746 1.15224
      vertex 58.5888 118.801 2.23463
      vertex 58.3104 117.332 1.15224
    endloop
  endfacet
  facet normal -0.669377 -0.322274 0.669383
    outer loop
      vertex 99.8478 117 2.23463
      vertex 99.1521 118.445 2.23463
      vertex 98.7654 117 1.15224
    endloop
  endfacet
  facet normal -0.669358 0.322354 0.669364
    outer loop
      vertex 99.1521 41.5554 2.23463
      vertex 99.8478 43 2.23463
      vertex 98.7654 43 1.15224
    endloop
  endfacet
  facet normal 0.623218 -0.782048 0
    outer loop
      vertex 57.3352 117.802 2.23463
      vertex 58.5888 118.801 50
      vertex 57.3352 117.802 50
    endloop
  endfacet
  facet normal 0.623218 -0.782048 0
    outer loop
      vertex 58.5888 118.801 50
      vertex 57.3352 117.802 2.23463
      vertex 58.5888 118.801 2.23463
    endloop
  endfacet
  facet normal -0.222039 -0.975038 0
    outer loop
      vertex 97.5888 118.801 2.23463
      vertex 99.1521 118.445 50
      vertex 97.5888 118.801 50
    endloop
  endfacet
  facet normal -0.222039 -0.975038 -0
    outer loop
      vertex 99.1521 118.445 50
      vertex 97.5888 118.801 2.23463
      vertex 99.1521 118.445 2.23463
    endloop
  endfacet
  facet normal 0.463193 0.580865 0.669363
    outer loop
      vertex 58.5888 41.1986 2.23463
      vertex 58.8297 42.2538 1.15224
      vertex 58.3104 42.6679 1.15224
    endloop
  endfacet
  facet normal -0.669341 0.322366 0.669375
    outer loop
      vertex 99.1521 41.5554 2.23463
      vertex 98.7654 43 1.15224
      vertex 98.4772 42.4016 1.15224
    endloop
  endfacet
  facet normal -0.222513 0.97493 0
    outer loop
      vertex 99.1521 41.5554 2.23463
      vertex 97.5888 41.1986 50
      vertex 99.1521 41.5554 50
    endloop
  endfacet
  facet normal -0.222513 0.97493 0
    outer loop
      vertex 97.5888 41.1986 50
      vertex 99.1521 41.5554 2.23463
      vertex 97.5888 41.1986 2.23463
    endloop
  endfacet
  facet normal 0 0 1
    outer loop
      vertex 97.8297 117.746 1.15224
      vertex 98.7654 117 1.15224
      vertex 98.4772 117.598 1.15224
    endloop
  endfacet
  facet normal -0 0 1
    outer loop
      vertex 58.3104 117.332 1.15224
      vertex 98.7654 117 1.15224
      vertex 97.8297 117.746 1.15224
    endloop
  endfacet
  facet normal 0 0 1
    outer loop
      vertex 98.7654 117 1.15224
      vertex 58.3104 117.332 1.15224
      vertex 98.7654 43 1.15224
    endloop
  endfacet
  facet normal 0 0 1
    outer loop
      vertex 98.7654 43 1.15224
      vertex 97.8297 42.2538 1.15224
      vertex 98.4772 42.4016 1.15224
    endloop
  endfacet
  facet normal 0 0 1
    outer loop
      vertex 58.3104 117.332 1.15224
      vertex 97.8297 117.746 1.15224
      vertex 58.8297 117.746 1.15224
    endloop
  endfacet
  facet normal 0 0 1
    outer loop
      vertex 58.3104 42.6679 1.15224
      vertex 98.7654 43 1.15224
      vertex 58.3104 117.332 1.15224
    endloop
  endfacet
  facet normal 0 0 1
    outer loop
      vertex 98.7654 43 1.15224
      vertex 58.3104 42.6679 1.15224
      vertex 97.8297 42.2538 1.15224
    endloop
  endfacet
  facet normal 0 0 1
    outer loop
      vertex 97.8297 42.2538 1.15224
      vertex 58.3104 42.6679 1.15224
      vertex 58.8297 42.2538 1.15224
    endloop
  endfacet
  facet normal 0 -0.716109 0.697988
    outer loop
      vertex 58.8297 117.746 1.15224
      vertex 97.5888 118.801 2.23463
      vertex 58.5888 118.801 2.23463
    endloop
  endfacet
  facet normal 0 -0.716109 0.697988
    outer loop
      vertex 97.5888 118.801 2.23463
      vertex 58.8297 117.746 1.15224
      vertex 97.8297 117.746 1.15224
    endloop
  endfacet
  facet normal -0.900965 0.433893 0
    outer loop
      vertex 99.1521 41.5554 2.23463
      vertex 99.8478 43 50
      vertex 99.8478 43 2.23463
    endloop
  endfacet
  facet normal -0.900965 0.433893 0
    outer loop
      vertex 99.8478 43 50
      vertex 99.1521 41.5554 2.23463
      vertex 99.1521 41.5554 50
    endloop
  endfacet
  facet normal -1 0 0
    outer loop
      vertex 99.8478 43 2.23463
      vertex 99.8478 117 50
      vertex 99.8478 117 2.23463
    endloop
  endfacet
  facet normal -1 -0 0
    outer loop
      vertex 99.8478 117 50
      vertex 99.8478 43 2.23463
      vertex 99.8478 43 50
    endloop
  endfacet
  facet normal -0.165575 -0.724392 0.66921
    outer loop
      vertex 97.8297 117.746 1.15224
      vertex 98.4772 117.598 1.15224
      vertex 97.5888 118.801 2.23463
    endloop
  endfacet
  facet normal -0.164922 -0.724221 0.669556
    outer loop
      vertex 98.4772 117.598 1.15224
      vertex 99.1521 118.445 2.23463
      vertex 97.5888 118.801 2.23463
    endloop
  endfacet
  facet normal -0 0.716043 0.698056
    outer loop
      vertex 58.8297 42.2538 1.15224
      vertex 97.5888 41.1986 2.23463
      vertex 97.8297 42.2538 1.15224
    endloop
  endfacet
  facet normal 0 0.716043 0.698056
    outer loop
      vertex 97.5888 41.1986 2.23463
      vertex 58.8297 42.2538 1.15224
      vertex 58.5888 41.1986 2.23463
    endloop
  endfacet
  facet normal -0.901012 -0.433795 0
    outer loop
      vertex 99.8478 117 2.23463
      vertex 99.1521 118.445 50
      vertex 99.1521 118.445 2.23463
    endloop
  endfacet
  facet normal -0.901012 -0.433795 0
    outer loop
      vertex 99.1521 118.445 50
      vertex 99.8478 117 2.23463
      vertex 99.8478 117 50
    endloop
  endfacet
endsolid OpenSCAD_Model
