solid OpenSCAD_Model
  facet normal 1 0 0
    outer loop
      vertex 20 26 58
      vertex 20 24 38
      vertex 20 26 0
    endloop
  endfacet
  facet normal 1 -0 0
    outer loop
      vertex 20 22 58
      vertex 20 24 38
      vertex 20 26 58
    endloop
  endfacet
  facet normal 1 0 0
    outer loop
      vertex 20 24 38
      vertex 20 22 58
      vertex 20 22 38
    endloop
  endfacet
  facet normal 1 0 0
    outer loop
      vertex 20 26 0
      vertex 20 24 38
      vertex 20 24 0
    endloop
  endfacet
  facet normal 0 0 1
    outer loop
      vertex 20 26 58
      vertex 0 26 58
      vertex 20 22 58
    endloop
  endfacet
  facet normal 0 0 1
    outer loop
      vertex 35 22 58
      vertex 37 37 58
      vertex 35 37 58
    endloop
  endfacet
  facet normal 0 0 1
    outer loop
      vertex 37 37 58
      vertex 35 22 58
      vertex 37 20 58
    endloop
  endfacet
  facet normal -0 0 1
    outer loop
      vertex 20 22 58
      vertex 37 20 58
      vertex 35 22 58
    endloop
  endfacet
  facet normal 0 0 1
    outer loop
      vertex 20 22 58
      vertex 0 20 58
      vertex 37 20 58
    endloop
  endfacet
  facet normal 0 0 1
    outer loop
      vertex 0 20 58
      vertex 20 22 58
      vertex 0 26 58
    endloop
  endfacet
  facet normal 0 0 -1
    outer loop
      vertex 37 20 0
      vertex 35 22 0
      vertex 37 37 0
    endloop
  endfacet
  facet normal 0 0 -1
    outer loop
      vertex 0 20 0
      vertex 35 22 0
      vertex 37 20 0
    endloop
  endfacet
  facet normal -0 0 -1
    outer loop
      vertex 35 22 0
      vertex 0 20 0
      vertex 0 22 0
    endloop
  endfacet
  facet normal -0 0 -1
    outer loop
      vertex 37 37 0
      vertex 35 22 0
      vertex 35 37 0
    endloop
  endfacet
  facet normal 0 0 -1
    outer loop
      vertex 0 24 0
      vertex 20 26 0
      vertex 20 24 0
    endloop
  endfacet
  facet normal -0 0 -1
    outer loop
      vertex 20 26 0
      vertex 0 24 0
      vertex 0 26 0
    endloop
  endfacet
  facet normal -1 0 0
    outer loop
      vertex 0 22 0
      vertex 0 20 0
      vertex 0 22 38
    endloop
  endfacet
  facet normal -1 0 0
    outer loop
      vertex 0 24 38
      vertex 0 26 0
      vertex 0 24 0
    endloop
  endfacet
  facet normal -1 0 0
    outer loop
      vertex 0 26 0
      vertex 0 24 38
      vertex 0 26 58
    endloop
  endfacet
  facet normal -1 0 0
    outer loop
      vertex 0 22 38
      vertex 0 26 58
      vertex 0 24 38
    endloop
  endfacet
  facet normal -1 0 0
    outer loop
      vertex 0 22 38
      vertex 0 20 58
      vertex 0 26 58
    endloop
  endfacet
  facet normal -1 0 0
    outer loop
      vertex 0 20 58
      vertex 0 22 38
      vertex 0 20 0
    endloop
  endfacet
  facet normal 0 1 -0
    outer loop
      vertex 20 26 0
      vertex 0 26 58
      vertex 20 26 58
    endloop
  endfacet
  facet normal 0 1 0
    outer loop
      vertex 0 26 58
      vertex 20 26 0
      vertex 0 26 0
    endloop
  endfacet
  facet normal 0 -1 0
    outer loop
      vertex 0 20 0
      vertex 37 20 58
      vertex 0 20 58
    endloop
  endfacet
  facet normal 0 -1 -0
    outer loop
      vertex 37 20 58
      vertex 0 20 0
      vertex 37 20 0
    endloop
  endfacet
  facet normal 0 0 -1
    outer loop
      vertex 0 22 38
      vertex 20 24 38
      vertex 20 22 38
    endloop
  endfacet
  facet normal -0 0 -1
    outer loop
      vertex 20 24 38
      vertex 0 22 38
      vertex 0 24 38
    endloop
  endfacet
  facet normal 0 -1 0
    outer loop
      vertex 0 24 0
      vertex 20 24 38
      vertex 0 24 38
    endloop
  endfacet
  facet normal 0 -1 -0
    outer loop
      vertex 20 24 38
      vertex 0 24 0
      vertex 20 24 0
    endloop
  endfacet
  facet normal 0 1 0
    outer loop
      vertex 35 22 58
      vertex 20 22 38
      vertex 20 22 58
    endloop
  endfacet
  facet normal 0 1 -0
    outer loop
      vertex 35 22 0
      vertex 20 22 38
      vertex 35 22 58
    endloop
  endfacet
  facet normal 0 1 0
    outer loop
      vertex 0 22 0
      vertex 20 22 38
      vertex 35 22 0
    endloop
  endfacet
  facet normal 0 1 0
    outer loop
      vertex 20 22 38
      vertex 0 22 0
      vertex 0 22 38
    endloop
  endfacet
  facet normal 1 -0 0
    outer loop
      vertex 37 20 58
      vertex 37 37 0
      vertex 37 37 58
    endloop
  endfacet
  facet normal 1 0 0
    outer loop
      vertex 37 37 0
      vertex 37 20 58
      vertex 37 20 0
    endloop
  endfacet
  facet normal 0 1 -0
    outer loop
      vertex 37 37 0
      vertex 35 37 58
      vertex 37 37 58
    endloop
  endfacet
  facet normal 0 1 0
    outer loop
      vertex 35 37 58
      vertex 37 37 0
      vertex 35 37 0
    endloop
  endfacet
  facet normal -1 0 0
    outer loop
      vertex 35 22 0
      vertex 35 37 58
      vertex 35 37 0
    endloop
  endfacet
  facet normal -1 -0 0
    outer loop
      vertex 35 37 58
      vertex 35 22 0
      vertex 35 22 58
    endloop
  endfacet
  facet normal 1 0 0
    outer loop
      vertex 20 -22 58
      vertex 20 -24 38
      vertex 20 -22 38
    endloop
  endfacet
  facet normal 1 -0 0
    outer loop
      vertex 20 -26 58
      vertex 20 -24 38
      vertex 20 -22 58
    endloop
  endfacet
  facet normal 1 0 0
    outer loop
      vertex 20 -26 0
      vertex 20 -24 38
      vertex 20 -26 58
    endloop
  endfacet
  facet normal 1 0 0
    outer loop
      vertex 20 -24 38
      vertex 20 -26 0
      vertex 20 -24 0
    endloop
  endfacet
  facet normal 0 0 1
    outer loop
      vertex 37 -20 58
      vertex 35 -22 58
      vertex 37 -37 58
    endloop
  endfacet
  facet normal 0 0 1
    outer loop
      vertex 37 -20 58
      vertex 20 -22 58
      vertex 35 -22 58
    endloop
  endfacet
  facet normal -0 0 1
    outer loop
      vertex 0 -20 58
      vertex 20 -22 58
      vertex 37 -20 58
    endloop
  endfacet
  facet normal 0 0 1
    outer loop
      vertex 0 -26 58
      vertex 20 -22 58
      vertex 0 -20 58
    endloop
  endfacet
  facet normal 0 0 1
    outer loop
      vertex 20 -22 58
      vertex 0 -26 58
      vertex 20 -26 58
    endloop
  endfacet
  facet normal 0 0 1
    outer loop
      vertex 37 -37 58
      vertex 35 -22 58
      vertex 35 -37 58
    endloop
  endfacet
  facet normal 0 0 -1
    outer loop
      vertex 35 -22 0
      vertex 37 -37 0
      vertex 35 -37 0
    endloop
  endfacet
  facet normal 0 0 -1
    outer loop
      vertex 37 -37 0
      vertex 35 -22 0
      vertex 37 -20 0
    endloop
  endfacet
  facet normal 0 0 -1
    outer loop
      vertex 0 -20 0
      vertex 35 -22 0
      vertex 0 -22 0
    endloop
  endfacet
  facet normal 0 0 -1
    outer loop
      vertex 35 -22 0
      vertex 0 -20 0
      vertex 37 -20 0
    endloop
  endfacet
  facet normal 0 0 -1
    outer loop
      vertex 0 -26 0
      vertex 20 -24 0
      vertex 20 -26 0
    endloop
  endfacet
  facet normal -0 0 -1
    outer loop
      vertex 20 -24 0
      vertex 0 -26 0
      vertex 0 -24 0
    endloop
  endfacet
  facet normal -1 0 0
    outer loop
      vertex 0 -24 0
      vertex 0 -26 0
      vertex 0 -24 38
    endloop
  endfacet
  facet normal -1 0 0
    outer loop
      vertex 0 -22 38
      vertex 0 -20 0
      vertex 0 -22 0
    endloop
  endfacet
  facet normal -1 0 0
    outer loop
      vertex 0 -20 0
      vertex 0 -22 38
      vertex 0 -20 58
    endloop
  endfacet
  facet normal -1 0 0
    outer loop
      vertex 0 -24 38
      vertex 0 -20 58
      vertex 0 -22 38
    endloop
  endfacet
  facet normal -1 0 0
    outer loop
      vertex 0 -24 38
      vertex 0 -26 58
      vertex 0 -20 58
    endloop
  endfacet
  facet normal -1 0 0
    outer loop
      vertex 0 -26 58
      vertex 0 -24 38
      vertex 0 -26 0
    endloop
  endfacet
  facet normal 0 -1 0
    outer loop
      vertex 0 -26 0
      vertex 20 -26 58
      vertex 0 -26 58
    endloop
  endfacet
  facet normal 0 -1 -0
    outer loop
      vertex 20 -26 58
      vertex 0 -26 0
      vertex 20 -26 0
    endloop
  endfacet
  facet normal 0 1 -0
    outer loop
      vertex 37 -20 0
      vertex 0 -20 58
      vertex 37 -20 58
    endloop
  endfacet
  facet normal 0 1 0
    outer loop
      vertex 0 -20 58
      vertex 37 -20 0
      vertex 0 -20 0
    endloop
  endfacet
  facet normal 0 0 -1
    outer loop
      vertex 0 -24 38
      vertex 20 -22 38
      vertex 20 -24 38
    endloop
  endfacet
  facet normal -0 0 -1
    outer loop
      vertex 20 -22 38
      vertex 0 -24 38
      vertex 0 -22 38
    endloop
  endfacet
  facet normal 0 1 -0
    outer loop
      vertex 20 -24 0
      vertex 0 -24 38
      vertex 20 -24 38
    endloop
  endfacet
  facet normal 0 1 0
    outer loop
      vertex 0 -24 38
      vertex 20 -24 0
      vertex 0 -24 0
    endloop
  endfacet
  facet normal 0 -1 0
    outer loop
      vertex 0 -22 38
      vertex 0 -22 0
      vertex 20 -22 38
    endloop
  endfacet
  facet normal 0 -1 0
    outer loop
      vertex 20 -22 38
      vertex 35 -22 58
      vertex 20 -22 58
    endloop
  endfacet
  facet normal 0 -1 0
    outer loop
      vertex 35 -22 0
      vertex 20 -22 38
      vertex 0 -22 0
    endloop
  endfacet
  facet normal 0 -1 0
    outer loop
      vertex 20 -22 38
      vertex 35 -22 0
      vertex 35 -22 58
    endloop
  endfacet
  facet normal 1 -0 0
    outer loop
      vertex 37 -37 58
      vertex 37 -20 0
      vertex 37 -20 58
    endloop
  endfacet
  facet normal 1 0 0
    outer loop
      vertex 37 -20 0
      vertex 37 -37 58
      vertex 37 -37 0
    endloop
  endfacet
  facet normal 0 -1 0
    outer loop
      vertex 35 -37 0
      vertex 37 -37 58
      vertex 35 -37 58
    endloop
  endfacet
  facet normal 0 -1 -0
    outer loop
      vertex 37 -37 58
      vertex 35 -37 0
      vertex 37 -37 0
    endloop
  endfacet
  facet normal -1 0 0
    outer loop
      vertex 35 -37 0
      vertex 35 -22 58
      vertex 35 -22 0
    endloop
  endfacet
  facet normal -1 -0 0
    outer loop
      vertex 35 -22 58
      vertex 35 -37 0
      vertex 35 -37 58
    endloop
  endfacet
endsolid OpenSCAD_Model
