solid OpenSCAD_Model
  facet normal 1 0 0
    outer loop
      vertex 214 6 58
      vertex 214 4 38
      vertex 214 6 0
    endloop
  endfacet
  facet normal 1 0 0
    outer loop
      vertex 214 6 58
      vertex 214 2 38
      vertex 214 4 38
    endloop
  endfacet
  facet normal 1 -0 0
    outer loop
      vertex 214 0 58
      vertex 214 2 38
      vertex 214 6 58
    endloop
  endfacet
  facet normal 1 0 0
    outer loop
      vertex 214 0 0
      vertex 214 2 38
      vertex 214 0 58
    endloop
  endfacet
  facet normal 1 0 0
    outer loop
      vertex 214 2 38
      vertex 214 0 0
      vertex 214 2 0
    endloop
  endfacet
  facet normal 1 0 0
    outer loop
      vertex 214 6 0
      vertex 214 4 38
      vertex 214 4 0
    endloop
  endfacet
  facet normal -0 0 1
    outer loop
      vertex 0 6 58
      vertex 214 0 58
      vertex 214 6 58
    endloop
  endfacet
  facet normal 0 0 1
    outer loop
      vertex 214 0 58
      vertex 0 6 58
      vertex 0 0 58
    endloop
  endfacet
  facet normal 0 0 -1
    outer loop
      vertex 0 4 0
      vertex 214 6 0
      vertex 214 4 0
    endloop
  endfacet
  facet normal -0 0 -1
    outer loop
      vertex 214 6 0
      vertex 0 4 0
      vertex 0 6 0
    endloop
  endfacet
  facet normal 0 0 -1
    outer loop
      vertex 0 0 0
      vertex 214 2 0
      vertex 214 0 0
    endloop
  endfacet
  facet normal -0 0 -1
    outer loop
      vertex 214 2 0
      vertex 0 0 0
      vertex 0 2 0
    endloop
  endfacet
  facet normal -1 0 0
    outer loop
      vertex 0 2 0
      vertex 0 0 0
      vertex 0 2 38
    endloop
  endfacet
  facet normal -1 0 0
    outer loop
      vertex 0 4 38
      vertex 0 6 0
      vertex 0 4 0
    endloop
  endfacet
  facet normal -1 0 0
    outer loop
      vertex 0 6 0
      vertex 0 4 38
      vertex 0 6 58
    endloop
  endfacet
  facet normal -1 0 0
    outer loop
      vertex 0 2 38
      vertex 0 6 58
      vertex 0 4 38
    endloop
  endfacet
  facet normal -1 0 0
    outer loop
      vertex 0 2 38
      vertex 0 0 58
      vertex 0 6 58
    endloop
  endfacet
  facet normal -1 0 0
    outer loop
      vertex 0 0 58
      vertex 0 2 38
      vertex 0 0 0
    endloop
  endfacet
  facet normal 0 1 -0
    outer loop
      vertex 214 6 0
      vertex 0 6 58
      vertex 214 6 58
    endloop
  endfacet
  facet normal 0 1 0
    outer loop
      vertex 0 6 58
      vertex 214 6 0
      vertex 0 6 0
    endloop
  endfacet
  facet normal 0 -1 0
    outer loop
      vertex 0 0 0
      vertex 214 0 58
      vertex 0 0 58
    endloop
  endfacet
  facet normal 0 -1 -0
    outer loop
      vertex 214 0 58
      vertex 0 0 0
      vertex 214 0 0
    endloop
  endfacet
  facet normal 0 0 -1
    outer loop
      vertex 0 2 38
      vertex 214 4 38
      vertex 214 2 38
    endloop
  endfacet
  facet normal -0 0 -1
    outer loop
      vertex 214 4 38
      vertex 0 2 38
      vertex 0 4 38
    endloop
  endfacet
  facet normal 0 -1 0
    outer loop
      vertex 0 4 0
      vertex 214 4 38
      vertex 0 4 38
    endloop
  endfacet
  facet normal 0 -1 -0
    outer loop
      vertex 214 4 38
      vertex 0 4 0
      vertex 214 4 0
    endloop
  endfacet
  facet normal 0 1 -0
    outer loop
      vertex 214 2 0
      vertex 0 2 38
      vertex 214 2 38
    endloop
  endfacet
  facet normal 0 1 0
    outer loop
      vertex 0 2 38
      vertex 214 2 0
      vertex 0 2 0
    endloop
  endfacet
endsolid OpenSCAD_Model
