solid OpenSCAD_Model
  facet normal 1 -0 0
    outer loop
      vertex 100 0 20
      vertex 100 40 0
      vertex 100 40 20
    endloop
  endfacet
  facet normal 1 0 0
    outer loop
      vertex 100 40 0
      vertex 100 0 20
      vertex 100 0 0
    endloop
  endfacet
  facet normal -0 0 1
    outer loop
      vertex 0 40 20
      vertex 20 0 20
      vertex 20 40 20
    endloop
  endfacet
  facet normal 0 0 1
    outer loop
      vertex 20 0 20
      vertex 0 40 20
      vertex 0 0 20
    endloop
  endfacet
  facet normal -0 0 1
    outer loop
      vertex 25 40 20
      vertex 100 0 20
      vertex 100 40 20
    endloop
  endfacet
  facet normal 0 0 1
    outer loop
      vertex 100 0 20
      vertex 25 40 20
      vertex 25 0 20
    endloop
  endfacet
  facet normal 0 0 -1
    outer loop
      vertex 0 0 0
      vertex 100 40 0
      vertex 100 0 0
    endloop
  endfacet
  facet normal -0 0 -1
    outer loop
      vertex 100 40 0
      vertex 0 0 0
      vertex 0 40 0
    endloop
  endfacet
  facet normal -1 0 0
    outer loop
      vertex 0 0 0
      vertex 0 40 20
      vertex 0 40 0
    endloop
  endfacet
  facet normal -1 -0 0
    outer loop
      vertex 0 40 20
      vertex 0 0 0
      vertex 0 0 20
    endloop
  endfacet
  facet normal 0 1 -0
    outer loop
      vertex 100 40 0
      vertex 25 40 20
      vertex 100 40 20
    endloop
  endfacet
  facet normal 0 1 0
    outer loop
      vertex 0 40 0
      vertex 25 40 20
      vertex 100 40 0
    endloop
  endfacet
  facet normal 0 1 0
    outer loop
      vertex 25 40 20
      vertex 0 40 0
      vertex 20 40 20
    endloop
  endfacet
  facet normal 0 1 0
    outer loop
      vertex 20 40 20
      vertex 0 40 0
      vertex 0 40 20
    endloop
  endfacet
  facet normal 0 1 -0
    outer loop
      vertex 25 40 20
      vertex 20 40 25
      vertex 25 40 25
    endloop
  endfacet
  facet normal 0 1 0
    outer loop
      vertex 20 40 25
      vertex 25 40 20
      vertex 20 40 20
    endloop
  endfacet
  facet normal 0 -1 0
    outer loop
      vertex 0 0 0
      vertex 20 0 20
      vertex 0 0 20
    endloop
  endfacet
  facet normal 0 -1 -0
    outer loop
      vertex 20 0 20
      vertex 0 0 0
      vertex 25 0 20
    endloop
  endfacet
  facet normal 0 -1 0
    outer loop
      vertex 100 0 0
      vertex 25 0 20
      vertex 0 0 0
    endloop
  endfacet
  facet normal 0 -1 0
    outer loop
      vertex 25 0 20
      vertex 100 0 0
      vertex 100 0 20
    endloop
  endfacet
  facet normal 0 -1 0
    outer loop
      vertex 20 0 20
      vertex 25 0 25
      vertex 20 0 25
    endloop
  endfacet
  facet normal 0 -1 -0
    outer loop
      vertex 25 0 25
      vertex 20 0 20
      vertex 25 0 20
    endloop
  endfacet
  facet normal 1 -0 0
    outer loop
      vertex 25 0 25
      vertex 25 40 20
      vertex 25 40 25
    endloop
  endfacet
  facet normal 1 0 0
    outer loop
      vertex 25 40 20
      vertex 25 0 25
      vertex 25 0 20
    endloop
  endfacet
  facet normal -0 0 1
    outer loop
      vertex 20 40 25
      vertex 25 0 25
      vertex 25 40 25
    endloop
  endfacet
  facet normal 0 0 1
    outer loop
      vertex 25 0 25
      vertex 20 40 25
      vertex 20 0 25
    endloop
  endfacet
  facet normal -1 0 0
    outer loop
      vertex 20 0 20
      vertex 20 40 25
      vertex 20 40 20
    endloop
  endfacet
  facet normal -1 -0 0
    outer loop
      vertex 20 40 25
      vertex 20 0 20
      vertex 20 0 25
    endloop
  endfacet
endsolid OpenSCAD_Model
