solid OpenSCAD_Model
  facet normal 1 -0 0
    outer loop
      vertex 25 5 90
      vertex 25 75 84
      vertex 25 75 90
    endloop
  endfacet
  facet normal 1 0 0
    outer loop
      vertex 25 75 84
      vertex 25 5 90
      vertex 25 5 84
    endloop
  endfacet
  facet normal -0 0 1
    outer loop
      vertex 18.5306 75.8766 90
      vertex 19.9039 75 90
      vertex 19.5306 76.8766 90
    endloop
  endfacet
  facet normal 0 0 1
    outer loop
      vertex 19 75 90
      vertex 18.9039 74 90
      vertex 19 5 90
    endloop
  endfacet
  facet normal 0 0 1
    outer loop
      vertex 19 75 90
      vertex 18.5306 75.8766 90
      vertex 18.9039 74 90
    endloop
  endfacet
  facet normal 0 0 1
    outer loop
      vertex 19.9039 75 90
      vertex 18.5306 75.8766 90
      vertex 19 75 90
    endloop
  endfacet
  facet normal -0 0 1
    outer loop
      vertex 17.4676 77.4676 90
      vertex 19.5306 76.8766 90
      vertex 18.4676 78.4676 90
    endloop
  endfacet
  facet normal 0 0 1
    outer loop
      vertex 19.5306 76.8766 90
      vertex 17.4676 77.4676 90
      vertex 18.5306 75.8766 90
    endloop
  endfacet
  facet normal 0 0 1
    outer loop
      vertex 16.8767 79.5306 90
      vertex 17.4676 77.4676 90
      vertex 18.4676 78.4676 90
    endloop
  endfacet
  facet normal 0 0 1
    outer loop
      vertex 16.8767 79.5306 90
      vertex 15.8767 78.5306 90
      vertex 17.4676 77.4676 90
    endloop
  endfacet
  facet normal 0 0 1
    outer loop
      vertex 15 79.9039 90
      vertex 15.8767 78.5306 90
      vertex 16.8767 79.5306 90
    endloop
  endfacet
  facet normal 0 0 1
    outer loop
      vertex 15 79.9039 90
      vertex 14 78.9039 90
      vertex 15.8767 78.5306 90
    endloop
  endfacet
  facet normal 0 0 1
    outer loop
      vertex 15 79.9039 90
      vertex 6 78.9039 90
      vertex 14 78.9039 90
    endloop
  endfacet
  facet normal -0 0 1
    outer loop
      vertex 5 79.9039 90
      vertex 6 78.9039 90
      vertex 15 79.9039 90
    endloop
  endfacet
  facet normal 0 0 1
    outer loop
      vertex 5 79.9039 90
      vertex 4.12335 78.5306 90
      vertex 6 78.9039 90
    endloop
  endfacet
  facet normal -0 0 1
    outer loop
      vertex 3.12335 79.5306 90
      vertex 4.12335 78.5306 90
      vertex 5 79.9039 90
    endloop
  endfacet
  facet normal 0 0 1
    outer loop
      vertex 3.12335 79.5306 90
      vertex 2.5324 77.4676 90
      vertex 4.12335 78.5306 90
    endloop
  endfacet
  facet normal -0 0 1
    outer loop
      vertex 1.5324 78.4676 90
      vertex 2.5324 77.4676 90
      vertex 3.12335 79.5306 90
    endloop
  endfacet
  facet normal 0 0 1
    outer loop
      vertex 0.469362 76.8766 90
      vertex 2.5324 77.4676 90
      vertex 1.5324 78.4676 90
    endloop
  endfacet
  facet normal 0 0 1
    outer loop
      vertex 2.5324 77.4676 90
      vertex 0.469362 76.8766 90
      vertex 1.46936 75.8766 90
    endloop
  endfacet
  facet normal 0 0 1
    outer loop
      vertex 1.46936 75.8766 90
      vertex 0.0960732 75 90
      vertex 1.09607 74 90
    endloop
  endfacet
  facet normal 0 0 1
    outer loop
      vertex 0.0960732 75 90
      vertex 1.46936 75.8766 90
      vertex 0.469362 76.8766 90
    endloop
  endfacet
  facet normal 0 0 1
    outer loop
      vertex 18.5306 4.12335 90
      vertex 19.9039 5 90
      vertex 19 5 90
    endloop
  endfacet
  facet normal -0 0 1
    outer loop
      vertex 18.9039 6 90
      vertex 19 5 90
      vertex 18.9039 74 90
    endloop
  endfacet
  facet normal 0 0 1
    outer loop
      vertex 18.5306 4.12335 90
      vertex 19 5 90
      vertex 18.9039 6 90
    endloop
  endfacet
  facet normal 0 0 1
    outer loop
      vertex 19.9039 5 90
      vertex 18.5306 4.12335 90
      vertex 19.5306 3.12335 90
    endloop
  endfacet
  facet normal 0 0 1
    outer loop
      vertex 17.4676 2.5324 90
      vertex 19.5306 3.12335 90
      vertex 18.5306 4.12335 90
    endloop
  endfacet
  facet normal 0 0 1
    outer loop
      vertex 19.5306 3.12335 90
      vertex 17.4676 2.5324 90
      vertex 18.4676 1.5324 90
    endloop
  endfacet
  facet normal 0 0 1
    outer loop
      vertex 17.4676 2.5324 90
      vertex 16.8767 0.469362 90
      vertex 18.4676 1.5324 90
    endloop
  endfacet
  facet normal -0 0 1
    outer loop
      vertex 15.8767 1.46936 90
      vertex 16.8767 0.469362 90
      vertex 17.4676 2.5324 90
    endloop
  endfacet
  facet normal 0 0 1
    outer loop
      vertex 15.8767 1.46936 90
      vertex 15 0.0960732 90
      vertex 16.8767 0.469362 90
    endloop
  endfacet
  facet normal -0 0 1
    outer loop
      vertex 14 1.09607 90
      vertex 15 0.0960732 90
      vertex 15.8767 1.46936 90
    endloop
  endfacet
  facet normal -0 0 1
    outer loop
      vertex 6 1.09607 90
      vertex 15 0.0960732 90
      vertex 14 1.09607 90
    endloop
  endfacet
  facet normal 0 0 1
    outer loop
      vertex 6 1.09607 90
      vertex 5 0.0960732 90
      vertex 15 0.0960732 90
    endloop
  endfacet
  facet normal 0 0 1
    outer loop
      vertex 4.12335 1.46936 90
      vertex 5 0.0960732 90
      vertex 6 1.09607 90
    endloop
  endfacet
  facet normal 0 0 1
    outer loop
      vertex 4.12335 1.46936 90
      vertex 3.12335 0.469362 90
      vertex 5 0.0960732 90
    endloop
  endfacet
  facet normal 0 0 1
    outer loop
      vertex 2.5324 2.5324 90
      vertex 3.12335 0.469362 90
      vertex 4.12335 1.46936 90
    endloop
  endfacet
  facet normal 0 0 1
    outer loop
      vertex 2.5324 2.5324 90
      vertex 1.5324 1.5324 90
      vertex 3.12335 0.469362 90
    endloop
  endfacet
  facet normal -0 0 1
    outer loop
      vertex 0.469362 3.12335 90
      vertex 2.5324 2.5324 90
      vertex 1.46936 4.12335 90
    endloop
  endfacet
  facet normal -0 0 1
    outer loop
      vertex 0.0960732 5 90
      vertex 1.46936 4.12335 90
      vertex 1.09607 6 90
    endloop
  endfacet
  facet normal 0 0 1
    outer loop
      vertex 2.5324 2.5324 90
      vertex 0.469362 3.12335 90
      vertex 1.5324 1.5324 90
    endloop
  endfacet
  facet normal 0 0 1
    outer loop
      vertex 1.09607 74 90
      vertex 0.0960732 75 90
      vertex 1.09607 6 90
    endloop
  endfacet
  facet normal 0 0 1
    outer loop
      vertex 0.0960732 5 90
      vertex 1.09607 6 90
      vertex 0.0960732 75 90
    endloop
  endfacet
  facet normal 0 0 1
    outer loop
      vertex 1.46936 4.12335 90
      vertex 0.0960732 5 90
      vertex 0.469362 3.12335 90
    endloop
  endfacet
  facet normal -0 0 1
    outer loop
      vertex 19.9039 75 90
      vertex 25 5 90
      vertex 25 75 90
    endloop
  endfacet
  facet normal 0 0 1
    outer loop
      vertex 19.9039 75 90
      vertex 19.9039 5 90
      vertex 25 5 90
    endloop
  endfacet
  facet normal -0 0 1
    outer loop
      vertex 19 75 90
      vertex 19.9039 5 90
      vertex 19.9039 75 90
    endloop
  endfacet
  facet normal 0 0 1
    outer loop
      vertex 19.9039 5 90
      vertex 19 75 90
      vertex 19 5 90
    endloop
  endfacet
  facet normal 0 0 -1
    outer loop
      vertex 24 5 84
      vertex 25 75 84
      vertex 25 5 84
    endloop
  endfacet
  facet normal -0 0 -1
    outer loop
      vertex 25 75 84
      vertex 24 5 84
      vertex 24 75 84
    endloop
  endfacet
  facet normal 0 1 0
    outer loop
      vertex 25 75 90
      vertex 24 75 89
      vertex 19.9039 75 90
    endloop
  endfacet
  facet normal 0 1 -0
    outer loop
      vertex 25 75 84
      vertex 24 75 89
      vertex 25 75 90
    endloop
  endfacet
  facet normal 0 1 0
    outer loop
      vertex 24 75 89
      vertex 25 75 84
      vertex 24 75 84
    endloop
  endfacet
  facet normal 0 1 0
    outer loop
      vertex 19.9039 75 90
      vertex 24 75 89
      vertex 19.9039 75 89
    endloop
  endfacet
  facet normal 0 -1 0
    outer loop
      vertex 24 5 89
      vertex 19.9039 5 90
      vertex 19.9039 5 89
    endloop
  endfacet
  facet normal 0 -1 0
    outer loop
      vertex 19.9039 5 90
      vertex 24 5 89
      vertex 25 5 90
    endloop
  endfacet
  facet normal 0 -1 0
    outer loop
      vertex 25 5 84
      vertex 24 5 89
      vertex 24 5 84
    endloop
  endfacet
  facet normal 0 -1 0
    outer loop
      vertex 24 5 89
      vertex 25 5 84
      vertex 25 5 90
    endloop
  endfacet
  facet normal -1 0 0
    outer loop
      vertex 24 5 84
      vertex 24 75 89
      vertex 24 75 84
    endloop
  endfacet
  facet normal -1 -0 0
    outer loop
      vertex 24 75 89
      vertex 24 5 84
      vertex 24 5 89
    endloop
  endfacet
  facet normal 0 0 -1
    outer loop
      vertex 19.9039 5 89
      vertex 24 75 89
      vertex 24 5 89
    endloop
  endfacet
  facet normal -0 0 -1
    outer loop
      vertex 24 75 89
      vertex 19.9039 5 89
      vertex 19.9039 75 89
    endloop
  endfacet
  facet normal -1 0 0
    outer loop
      vertex 0.0960732 5 4.02455
      vertex 0.0960732 75 90
      vertex 0.0960732 75 4.02455
    endloop
  endfacet
  facet normal -1 -0 0
    outer loop
      vertex 0.0960732 75 90
      vertex 0.0960732 5 4.02455
      vertex 0.0960732 5 90
    endloop
  endfacet
  facet normal -0.980784 0.195095 0
    outer loop
      vertex 0.0960732 75 4.02455
      vertex 0.469362 76.8766 90
      vertex 0.469362 76.8766 4.02455
    endloop
  endfacet
  facet normal -0.980784 0.195095 0
    outer loop
      vertex 0.469362 76.8766 90
      vertex 0.0960732 75 4.02455
      vertex 0.0960732 75 90
    endloop
  endfacet
  facet normal 0.908684 0.180709 -0.376348
    outer loop
      vertex 19.1573 75 2.22215
      vertex 18.8409 76.591 2.22215
      vertex 19.5306 76.8766 4.02455
    endloop
  endfacet
  facet normal -0.908663 0.180749 -0.37638
    outer loop
      vertex 0.842651 75 2.22215
      vertex 0.0960732 75 4.02455
      vertex 0.469362 76.8766 4.02455
    endloop
  endfacet
  facet normal 0.980783 0.195101 -0
    outer loop
      vertex 19.9039 75 89
      vertex 19.5306 76.8766 90
      vertex 19.9039 75 90
    endloop
  endfacet
  facet normal 0.980783 0.195101 0
    outer loop
      vertex 19.5306 76.8766 90
      vertex 19.9039 75 89
      vertex 19.5306 76.8766 4.02455
    endloop
  endfacet
  facet normal 0.980783 0.195101 0
    outer loop
      vertex 19.5306 76.8766 4.02455
      vertex 19.9039 75 89
      vertex 19.9039 75 4.02455
    endloop
  endfacet
  facet normal -0.980785 -0.19509 0
    outer loop
      vertex 0.469362 3.12335 4.02455
      vertex 0.0960732 5 90
      vertex 0.0960732 5 4.02455
    endloop
  endfacet
  facet normal -0.980785 -0.19509 0
    outer loop
      vertex 0.0960732 5 90
      vertex 0.469362 3.12335 4.02455
      vertex 0.469362 3.12335 90
    endloop
  endfacet
  facet normal 0.195091 0.980785 -0
    outer loop
      vertex 16.8767 79.5306 4.02455
      vertex 15 79.9039 90
      vertex 16.8767 79.5306 90
    endloop
  endfacet
  facet normal 0.195091 0.980785 0
    outer loop
      vertex 15 79.9039 90
      vertex 16.8767 79.5306 4.02455
      vertex 15 79.9039 4.02455
    endloop
  endfacet
  facet normal -0.770328 -0.514717 -0.37638
    outer loop
      vertex 2.06031 2.06031 2.22215
      vertex 0.469362 3.12335 4.02455
      vertex 1.15911 3.40905 2.22215
    endloop
  endfacet
  facet normal 0.139254 0.700221 -0.700213
    outer loop
      vertex 16.063 77.5664 0.842651
      vertex 15 77.7778 0.842651
      vertex 16.5909 78.8409 2.22215
    endloop
  endfacet
  facet normal 0 0.923876 -0.382693
    outer loop
      vertex 15 79.1573 2.22215
      vertex 5 79.9039 4.02455
      vertex 15 79.9039 4.02455
    endloop
  endfacet
  facet normal 0 0.923876 -0.382693
    outer loop
      vertex 5 79.9039 4.02455
      vertex 15 79.1573 2.22215
      vertex 5 79.1573 2.22215
    endloop
  endfacet
  facet normal 0.323481 0.216165 -0.921213
    outer loop
      vertex 15.9012 75.3733 0.0960732
      vertex 15.6897 75.6898 0.0960732
      vertex 16.9642 76.9642 0.842651
    endloop
  endfacet
  facet normal 0 1 -0
    outer loop
      vertex 15 79.9039 4.02455
      vertex 5 79.9039 90
      vertex 15 79.9039 90
    endloop
  endfacet
  facet normal 0 1 0
    outer loop
      vertex 5 79.9039 90
      vertex 15 79.9039 4.02455
      vertex 5 79.9039 4.02455
    endloop
  endfacet
  facet normal -0.19509 -0.980785 0
    outer loop
      vertex 3.12335 0.469362 4.02455
      vertex 5 0.0960732 90
      vertex 3.12335 0.469362 90
    endloop
  endfacet
  facet normal -0.19509 -0.980785 -0
    outer loop
      vertex 5 0.0960732 90
      vertex 3.12335 0.469362 4.02455
      vertex 5 0.0960732 4.02455
    endloop
  endfacet
  facet normal 0.195085 -0.980786 0
    outer loop
      vertex 15 0.0960732 4.02455
      vertex 16.8767 0.469362 90
      vertex 15 0.0960732 90
    endloop
  endfacet
  facet normal 0.195085 -0.980786 0
    outer loop
      vertex 16.8767 0.469362 90
      vertex 15 0.0960732 4.02455
      vertex 16.8767 0.469362 4.02455
    endloop
  endfacet
  facet normal -0.831478 0.555558 0
    outer loop
      vertex 0.469362 76.8766 4.02455
      vertex 1.5324 78.4676 90
      vertex 1.5324 78.4676 4.02455
    endloop
  endfacet
  facet normal -0.831478 0.555558 0
    outer loop
      vertex 1.5324 78.4676 90
      vertex 0.469362 76.8766 4.02455
      vertex 0.469362 76.8766 90
    endloop
  endfacet
  facet normal 0.770347 0.514694 -0.376372
    outer loop
      vertex 19.5306 76.8766 4.02455
      vertex 17.9397 77.9397 2.22215
      vertex 18.4676 78.4676 4.02455
    endloop
  endfacet
  facet normal 0.707132 0 -0.707081
    outer loop
      vertex 17.7779 5 0.842651
      vertex 19.1573 75 2.22215
      vertex 19.1573 5 2.22215
    endloop
  endfacet
  facet normal 0.707132 0 -0.707081
    outer loop
      vertex 19.1573 75 2.22215
      vertex 17.7779 5 0.842651
      vertex 17.7779 75 0.842651
    endloop
  endfacet
  facet normal 0.980784 -0.195096 0
    outer loop
      vertex 19.5306 3.12335 90
      vertex 19.9039 5 89
      vertex 19.9039 5 90
    endloop
  endfacet
  facet normal 0.980784 -0.195096 0
    outer loop
      vertex 19.5306 3.12335 4.02455
      vertex 19.9039 5 89
      vertex 19.5306 3.12335 90
    endloop
  endfacet
  facet normal 0.980784 -0.195096 0
    outer loop
      vertex 19.9039 5 89
      vertex 19.5306 3.12335 4.02455
      vertex 19.9039 5 4.02455
    endloop
  endfacet
  facet normal -0.908663 -0.180744 -0.37638
    outer loop
      vertex 0.469362 3.12335 4.02455
      vertex 0.0960732 5 4.02455
      vertex 0.842651 5 2.22215
    endloop
  endfacet
  facet normal -0.13928 -0.700215 -0.700214
    outer loop
      vertex 5 2.22215 0.842651
      vertex 3.40905 1.15911 2.22215
      vertex 3.93696 2.4336 0.842651
    endloop
  endfacet
  facet normal 0.831487 0.555544 0
    outer loop
      vertex 19.5306 76.8766 90
      vertex 18.4676 78.4676 4.02455
      vertex 18.4676 78.4676 90
    endloop
  endfacet
  facet normal 0.831487 0.555544 0
    outer loop
      vertex 18.4676 78.4676 4.02455
      vertex 19.5306 76.8766 90
      vertex 19.5306 76.8766 4.02455
    endloop
  endfacet
  facet normal 0.075903 -0.381579 -0.921214
    outer loop
      vertex 16.063 2.4336 0.842651
      vertex 15 2.22215 0.842651
      vertex 15 4.02455 0.0960732
    endloop
  endfacet
  facet normal -0.770328 -0.514716 -0.37638
    outer loop
      vertex 1.5324 1.5324 4.02455
      vertex 0.469362 3.12335 4.02455
      vertex 2.06031 2.06031 2.22215
    endloop
  endfacet
  facet normal 0 -0.382683 -0.92388
    outer loop
      vertex 5 2.22215 0.842651
      vertex 15 4.02455 0.0960732
      vertex 15 2.22215 0.842651
    endloop
  endfacet
  facet normal -0 -0.382683 -0.92388
    outer loop
      vertex 15 4.02455 0.0960732
      vertex 5 2.22215 0.842651
      vertex 5 4.02455 0.0960732
    endloop
  endfacet
  facet normal -0.514721 0.770334 -0.376362
    outer loop
      vertex 3.40905 78.8409 2.22215
      vertex 2.06031 77.9397 2.22215
      vertex 3.12335 79.5306 4.02455
    endloop
  endfacet
  facet normal -0.555556 0.831479 0
    outer loop
      vertex 3.12335 79.5306 4.02455
      vertex 1.5324 78.4676 90
      vertex 3.12335 79.5306 90
    endloop
  endfacet
  facet normal -0.555556 0.831479 0
    outer loop
      vertex 1.5324 78.4676 90
      vertex 3.12335 79.5306 4.02455
      vertex 1.5324 78.4676 4.02455
    endloop
  endfacet
  facet normal 0.555568 0.831471 -0
    outer loop
      vertex 18.4676 78.4676 4.02455
      vertex 16.8767 79.5306 90
      vertex 18.4676 78.4676 90
    endloop
  endfacet
  facet normal 0.555568 0.831471 0
    outer loop
      vertex 16.8767 79.5306 90
      vertex 18.4676 78.4676 4.02455
      vertex 16.8767 79.5306 4.02455
    endloop
  endfacet
  facet normal 0.180744 0.90866 -0.37639
    outer loop
      vertex 16.8767 79.5306 4.02455
      vertex 15 79.1573 2.22215
      vertex 15 79.9039 4.02455
    endloop
  endfacet
  facet normal -0.83147 -0.55557 0
    outer loop
      vertex 1.5324 1.5324 4.02455
      vertex 0.469362 3.12335 90
      vertex 0.469362 3.12335 4.02455
    endloop
  endfacet
  facet normal -0.83147 -0.55557 0
    outer loop
      vertex 0.469362 3.12335 90
      vertex 1.5324 1.5324 4.02455
      vertex 1.5324 1.5324 90
    endloop
  endfacet
  facet normal 0.139285 -0.700214 -0.700214
    outer loop
      vertex 16.5909 1.15911 2.22215
      vertex 15 0.842651 2.22215
      vertex 15 2.22215 0.842651
    endloop
  endfacet
  facet normal 0 -0.92388 -0.382683
    outer loop
      vertex 5 0.842651 2.22215
      vertex 15 0.0960732 4.02455
      vertex 5 0.0960732 4.02455
    endloop
  endfacet
  facet normal 0 -0.92388 -0.382683
    outer loop
      vertex 15 0.0960732 4.02455
      vertex 5 0.842651 2.22215
      vertex 15 0.842651 2.22215
    endloop
  endfacet
  facet normal -0.180713 0.908679 -0.376357
    outer loop
      vertex 3.40905 78.8409 2.22215
      vertex 3.12335 79.5306 4.02455
      vertex 5 79.1573 2.22215
    endloop
  endfacet
  facet normal 0.514716 0.770331 -0.376374
    outer loop
      vertex 17.9397 77.9397 2.22215
      vertex 16.8767 79.5306 4.02455
      vertex 18.4676 78.4676 4.02455
    endloop
  endfacet
  facet normal 0.180718 0.908675 -0.376366
    outer loop
      vertex 16.5909 78.8409 2.22215
      vertex 15 79.1573 2.22215
      vertex 16.8767 79.5306 4.02455
    endloop
  endfacet
  facet normal 0.0758499 0.381601 -0.92121
    outer loop
      vertex 15.3733 75.9012 0.0960732
      vertex 15 75.9754 0.0960732
      vertex 16.063 77.5664 0.842651
    endloop
  endfacet
  facet normal 0.923876 0 -0.382693
    outer loop
      vertex 19.9039 5 4.02455
      vertex 19.1573 75 2.22215
      vertex 19.9039 75 4.02455
    endloop
  endfacet
  facet normal 0.923876 0 -0.382693
    outer loop
      vertex 19.1573 75 2.22215
      vertex 19.9039 5 4.02455
      vertex 19.1573 5 2.22215
    endloop
  endfacet
  facet normal 0.831479 -0.555556 0
    outer loop
      vertex 18.4676 1.5324 90
      vertex 19.5306 3.12335 4.02455
      vertex 19.5306 3.12335 90
    endloop
  endfacet
  facet normal 0.831479 -0.555556 0
    outer loop
      vertex 19.5306 3.12335 4.02455
      vertex 18.4676 1.5324 90
      vertex 18.4676 1.5324 4.02455
    endloop
  endfacet
  facet normal -0.195096 0.980784 0
    outer loop
      vertex 5 79.9039 4.02455
      vertex 3.12335 79.5306 90
      vertex 5 79.9039 90
    endloop
  endfacet
  facet normal -0.195096 0.980784 0
    outer loop
      vertex 3.12335 79.5306 90
      vertex 5 79.9039 4.02455
      vertex 3.12335 79.5306 4.02455
    endloop
  endfacet
  facet normal 0.770338 -0.514705 -0.376375
    outer loop
      vertex 18.4676 1.5324 4.02455
      vertex 17.9397 2.06031 2.22215
      vertex 19.5306 3.12335 4.02455
    endloop
  endfacet
  facet normal 0 0.382683 -0.92388
    outer loop
      vertex 5 75.9754 0.0960732
      vertex 15 77.7778 0.842651
      vertex 15 75.9754 0.0960732
    endloop
  endfacet
  facet normal 0 0.382683 -0.92388
    outer loop
      vertex 15 77.7778 0.842651
      vertex 5 75.9754 0.0960732
      vertex 5 77.7778 0.842651
    endloop
  endfacet
  facet normal -0.180744 -0.908663 -0.37638
    outer loop
      vertex 5 0.0960732 4.02455
      vertex 3.12335 0.469362 4.02455
      vertex 5 0.842651 2.22215
    endloop
  endfacet
  facet normal -0.514716 -0.770328 -0.37638
    outer loop
      vertex 3.12335 0.469362 4.02455
      vertex 1.5324 1.5324 4.02455
      vertex 2.06031 2.06031 2.22215
    endloop
  endfacet
  facet normal 0.13926 0.700216 -0.700217
    outer loop
      vertex 16.5909 78.8409 2.22215
      vertex 15 77.7778 0.842651
      vertex 15 79.1573 2.22215
    endloop
  endfacet
  facet normal 0.770335 0.514737 -0.376337
    outer loop
      vertex 18.8409 76.591 2.22215
      vertex 17.9397 77.9397 2.22215
      vertex 19.5306 76.8766 4.02455
    endloop
  endfacet
  facet normal 0.396619 0.593608 -0.70023
    outer loop
      vertex 16.9642 76.9642 0.842651
      vertex 16.5909 78.8409 2.22215
      vertex 17.9397 77.9397 2.22215
    endloop
  endfacet
  facet normal 0 0.707107 -0.707107
    outer loop
      vertex 5 77.7778 0.842651
      vertex 15 79.1573 2.22215
      vertex 15 77.7778 0.842651
    endloop
  endfacet
  facet normal 0 0.707107 -0.707107
    outer loop
      vertex 15 79.1573 2.22215
      vertex 5 77.7778 0.842651
      vertex 5 79.1573 2.22215
    endloop
  endfacet
  facet normal -0.700215 -0.139281 -0.700215
    outer loop
      vertex 1.15911 3.40905 2.22215
      vertex 0.842651 5 2.22215
      vertex 2.22215 5 0.842651
    endloop
  endfacet
  facet normal 0.514695 -0.77033 -0.376405
    outer loop
      vertex 16.8767 0.469362 4.02455
      vertex 16.5909 1.15911 2.22215
      vertex 17.9397 2.06031 2.22215
    endloop
  endfacet
  facet normal 0.381564 0.0759449 -0.921217
    outer loop
      vertex 15.9755 75 0.0960732
      vertex 15.9012 75.3733 0.0960732
      vertex 17.5664 76.063 0.842651
    endloop
  endfacet
  facet normal -0.700215 -0.13928 -0.700214
    outer loop
      vertex 2.4336 3.93696 0.842651
      vertex 1.15911 3.40905 2.22215
      vertex 2.22215 5 0.842651
    endloop
  endfacet
  facet normal -0.0759002 -0.381579 -0.921215
    outer loop
      vertex 5 2.22215 0.842651
      vertex 3.93696 2.4336 0.842651
      vertex 5 4.02455 0.0960732
    endloop
  endfacet
  facet normal -0.514705 0.770338 -0.376375
    outer loop
      vertex 2.06031 77.9397 2.22215
      vertex 1.5324 78.4676 4.02455
      vertex 3.12335 79.5306 4.02455
    endloop
  endfacet
  facet normal -0.770337 0.514706 -0.376377
    outer loop
      vertex 2.06031 77.9397 2.22215
      vertex 0.469362 76.8766 4.02455
      vertex 1.5324 78.4676 4.02455
    endloop
  endfacet
  facet normal 0.0758852 0.38158 -0.921216
    outer loop
      vertex 16.063 77.5664 0.842651
      vertex 15 75.9754 0.0960732
      vertex 15 77.7778 0.842651
    endloop
  endfacet
  facet normal 0.382683 0 -0.92388
    outer loop
      vertex 15.9755 5 0.0960732
      vertex 17.7779 75 0.842651
      vertex 17.7779 5 0.842651
    endloop
  endfacet
  facet normal 0.382683 0 -0.92388
    outer loop
      vertex 17.7779 75 0.842651
      vertex 15.9755 5 0.0960732
      vertex 15.9755 75 0.0960732
    endloop
  endfacet
  facet normal 0.908658 0.180753 -0.376389
    outer loop
      vertex 19.9039 75 4.02455
      vertex 19.1573 75 2.22215
      vertex 19.5306 76.8766 4.02455
    endloop
  endfacet
  facet normal 0.323457 -0.216177 -0.921218
    outer loop
      vertex 16.9642 3.03576 0.842651
      vertex 15.6897 4.31025 0.0960732
      vertex 15.9012 4.62671 0.0960732
    endloop
  endfacet
  facet normal 0.514699 0.770336 -0.376388
    outer loop
      vertex 17.9397 77.9397 2.22215
      vertex 16.5909 78.8409 2.22215
      vertex 16.8767 79.5306 4.02455
    endloop
  endfacet
  facet normal 0.593591 0.39665 -0.700227
    outer loop
      vertex 17.5664 76.063 0.842651
      vertex 16.9642 76.9642 0.842651
      vertex 18.8409 76.591 2.22215
    endloop
  endfacet
  facet normal 0 -1 0
    outer loop
      vertex 5 0.0960732 4.02455
      vertex 15 0.0960732 90
      vertex 5 0.0960732 90
    endloop
  endfacet
  facet normal 0 -1 -0
    outer loop
      vertex 15 0.0960732 90
      vertex 5 0.0960732 4.02455
      vertex 15 0.0960732 4.02455
    endloop
  endfacet
  facet normal 1 -0 0
    outer loop
      vertex 19.9039 5 89
      vertex 19.9039 75 4.02455
      vertex 19.9039 75 89
    endloop
  endfacet
  facet normal 1 0 0
    outer loop
      vertex 19.9039 75 4.02455
      vertex 19.9039 5 89
      vertex 19.9039 5 4.02455
    endloop
  endfacet
  facet normal -0.139281 -0.700215 -0.700215
    outer loop
      vertex 5 0.842651 2.22215
      vertex 3.40905 1.15911 2.22215
      vertex 5 2.22215 0.842651
    endloop
  endfacet
  facet normal -0.39664 -0.593614 -0.700213
    outer loop
      vertex 3.40905 1.15911 2.22215
      vertex 2.06031 2.06031 2.22215
      vertex 3.03576 3.03576 0.842651
    endloop
  endfacet
  facet normal -0.180744 -0.908664 -0.37638
    outer loop
      vertex 5 0.842651 2.22215
      vertex 3.12335 0.469362 4.02455
      vertex 3.40905 1.15911 2.22215
    endloop
  endfacet
  facet normal -0.514717 -0.770328 -0.37638
    outer loop
      vertex 3.12335 0.469362 4.02455
      vertex 2.06031 2.06031 2.22215
      vertex 3.40905 1.15911 2.22215
    endloop
  endfacet
  facet normal 0.908659 -0.180749 -0.37639
    outer loop
      vertex 19.5306 3.12335 4.02455
      vertex 19.1573 5 2.22215
      vertex 19.9039 5 4.02455
    endloop
  endfacet
  facet normal 0.593605 -0.396635 -0.700224
    outer loop
      vertex 17.9397 2.06031 2.22215
      vertex 16.9642 3.03576 0.842651
      vertex 18.8409 3.40905 2.22215
    endloop
  endfacet
  facet normal -0.216146 -0.323488 -0.921215
    outer loop
      vertex 4.62671 4.0988 0.0960732
      vertex 3.03576 3.03576 0.842651
      vertex 4.31025 4.31025 0.0960732
    endloop
  endfacet
  facet normal -0.707107 0 -0.707107
    outer loop
      vertex 2.22215 5 0.842651
      vertex 0.842651 75 2.22215
      vertex 2.22215 75 0.842651
    endloop
  endfacet
  facet normal -0.707107 -0 -0.707107
    outer loop
      vertex 0.842651 75 2.22215
      vertex 2.22215 5 0.842651
      vertex 0.842651 5 2.22215
    endloop
  endfacet
  facet normal -0.180749 0.908659 -0.37639
    outer loop
      vertex 5 79.1573 2.22215
      vertex 3.12335 79.5306 4.02455
      vertex 5 79.9039 4.02455
    endloop
  endfacet
  facet normal 0.21616 0.323487 -0.921212
    outer loop
      vertex 16.9642 76.9642 0.842651
      vertex 15.3733 75.9012 0.0960732
      vertex 16.063 77.5664 0.842651
    endloop
  endfacet
  facet normal 0.396658 0.593603 -0.700213
    outer loop
      vertex 16.9642 76.9642 0.842651
      vertex 16.063 77.5664 0.842651
      vertex 16.5909 78.8409 2.22215
    endloop
  endfacet
  facet normal 0.593593 0.396638 -0.700233
    outer loop
      vertex 18.8409 76.591 2.22215
      vertex 16.9642 76.9642 0.842651
      vertex 17.9397 77.9397 2.22215
    endloop
  endfacet
  facet normal 0.323483 -0.216158 -0.921214
    outer loop
      vertex 16.9642 3.03576 0.842651
      vertex 15.9012 4.62671 0.0960732
      vertex 17.5664 3.93696 0.842651
    endloop
  endfacet
  facet normal -0.55557 -0.83147 0
    outer loop
      vertex 1.5324 1.5324 4.02455
      vertex 3.12335 0.469362 90
      vertex 1.5324 1.5324 90
    endloop
  endfacet
  facet normal -0.55557 -0.83147 -0
    outer loop
      vertex 3.12335 0.469362 90
      vertex 1.5324 1.5324 4.02455
      vertex 3.12335 0.469362 4.02455
    endloop
  endfacet
  facet normal -0.396639 -0.593614 -0.700214
    outer loop
      vertex 3.40905 1.15911 2.22215
      vertex 3.03576 3.03576 0.842651
      vertex 3.93696 2.4336 0.842651
    endloop
  endfacet
  facet normal -0.216147 -0.323488 -0.921215
    outer loop
      vertex 3.93696 2.4336 0.842651
      vertex 3.03576 3.03576 0.842651
      vertex 4.62671 4.0988 0.0960732
    endloop
  endfacet
  facet normal 0.514728 -0.770321 -0.376379
    outer loop
      vertex 18.4676 1.5324 4.02455
      vertex 16.8767 0.469362 4.02455
      vertex 17.9397 2.06031 2.22215
    endloop
  endfacet
  facet normal -0.382683 0 -0.92388
    outer loop
      vertex 2.22215 5 0.842651
      vertex 4.02455 75 0.0960732
      vertex 4.02455 5 0.0960732
    endloop
  endfacet
  facet normal -0.382683 0 -0.92388
    outer loop
      vertex 4.02455 75 0.0960732
      vertex 2.22215 5 0.842651
      vertex 2.22215 75 0.842651
    endloop
  endfacet
  facet normal 0.0758974 -0.381582 -0.921214
    outer loop
      vertex 16.063 2.4336 0.842651
      vertex 15 4.02455 0.0960732
      vertex 15.3733 4.0988 0.0960732
    endloop
  endfacet
  facet normal -0.908664 -0.180744 -0.37638
    outer loop
      vertex 1.15911 3.40905 2.22215
      vertex 0.469362 3.12335 4.02455
      vertex 0.842651 5 2.22215
    endloop
  endfacet
  facet normal -0.92388 0 -0.382683
    outer loop
      vertex 0.842651 5 2.22215
      vertex 0.0960732 75 4.02455
      vertex 0.842651 75 2.22215
    endloop
  endfacet
  facet normal -0.92388 -0 -0.382683
    outer loop
      vertex 0.0960732 75 4.02455
      vertex 0.842651 5 2.22215
      vertex 0.0960732 5 4.02455
    endloop
  endfacet
  facet normal 0.381579 -0.075918 -0.921213
    outer loop
      vertex 17.5664 3.93696 0.842651
      vertex 15.9755 5 0.0960732
      vertex 17.7779 5 0.842651
    endloop
  endfacet
  facet normal -0.139249 0.700222 -0.700213
    outer loop
      vertex 3.93696 77.5664 0.842651
      vertex 3.40905 78.8409 2.22215
      vertex 5 77.7778 0.842651
    endloop
  endfacet
  facet normal -0.139256 0.700217 -0.700217
    outer loop
      vertex 5 77.7778 0.842651
      vertex 3.40905 78.8409 2.22215
      vertex 5 79.1573 2.22215
    endloop
  endfacet
  facet normal 0.323487 0.21616 -0.921212
    outer loop
      vertex 17.5664 76.063 0.842651
      vertex 15.9012 75.3733 0.0960732
      vertex 16.9642 76.9642 0.842651
    endloop
  endfacet
  facet normal 0.216147 0.323505 -0.921209
    outer loop
      vertex 15.6897 75.6898 0.0960732
      vertex 15.3733 75.9012 0.0960732
      vertex 16.9642 76.9642 0.842651
    endloop
  endfacet
  facet normal 0.700242 0.139256 -0.700192
    outer loop
      vertex 19.1573 75 2.22215
      vertex 17.7779 75 0.842651
      vertex 18.8409 76.591 2.22215
    endloop
  endfacet
  facet normal -0.381579 -0.0759002 -0.921215
    outer loop
      vertex 2.4336 3.93696 0.842651
      vertex 2.22215 5 0.842651
      vertex 4.02455 5 0.0960732
    endloop
  endfacet
  facet normal 0.700242 -0.13926 -0.700191
    outer loop
      vertex 18.8409 3.40905 2.22215
      vertex 17.7779 5 0.842651
      vertex 19.1573 5 2.22215
    endloop
  endfacet
  facet normal 0.396625 -0.593617 -0.700219
    outer loop
      vertex 17.9397 2.06031 2.22215
      vertex 16.5909 1.15911 2.22215
      vertex 16.9642 3.03576 0.842651
    endloop
  endfacet
  facet normal 0.908679 -0.180713 -0.376357
    outer loop
      vertex 19.5306 3.12335 4.02455
      vertex 18.8409 3.40905 2.22215
      vertex 19.1573 5 2.22215
    endloop
  endfacet
  facet normal 0.770334 -0.514721 -0.376362
    outer loop
      vertex 19.5306 3.12335 4.02455
      vertex 17.9397 2.06031 2.22215
      vertex 18.8409 3.40905 2.22215
    endloop
  endfacet
  facet normal 0.180749 -0.908659 -0.376389
    outer loop
      vertex 16.8767 0.469362 4.02455
      vertex 15 0.842651 2.22215
      vertex 16.5909 1.15911 2.22215
    endloop
  endfacet
  facet normal 0.18074 -0.908664 -0.376381
    outer loop
      vertex 16.8767 0.469362 4.02455
      vertex 15 0.0960732 4.02455
      vertex 15 0.842651 2.22215
    endloop
  endfacet
  facet normal -0.700215 0.139277 -0.700215
    outer loop
      vertex 2.22215 75 0.842651
      vertex 0.842651 75 2.22215
      vertex 1.15911 76.591 2.22215
    endloop
  endfacet
  facet normal -0.908668 0.180739 -0.376371
    outer loop
      vertex 0.842651 75 2.22215
      vertex 0.469362 76.8766 4.02455
      vertex 1.15911 76.591 2.22215
    endloop
  endfacet
  facet normal -0.0758823 0.38158 -0.921216
    outer loop
      vertex 5 75.9754 0.0960732
      vertex 3.93696 77.5664 0.842651
      vertex 5 77.7778 0.842651
    endloop
  endfacet
  facet normal 0.216149 -0.323492 -0.921213
    outer loop
      vertex 16.063 2.4336 0.842651
      vertex 15.3733 4.0988 0.0960732
      vertex 16.9642 3.03576 0.842651
    endloop
  endfacet
  facet normal -0.0758989 -0.38158 -0.921214
    outer loop
      vertex 5 4.02455 0.0960732
      vertex 3.93696 2.4336 0.842651
      vertex 4.62671 4.0988 0.0960732
    endloop
  endfacet
  facet normal 0.381579 0.0759209 -0.921213
    outer loop
      vertex 17.7779 75 0.842651
      vertex 15.9755 75 0.0960732
      vertex 17.5664 76.063 0.842651
    endloop
  endfacet
  facet normal 0.700197 0.139315 -0.700225
    outer loop
      vertex 17.7779 75 0.842651
      vertex 17.5664 76.063 0.842651
      vertex 18.8409 76.591 2.22215
    endloop
  endfacet
  facet normal 0.555582 -0.831462 0
    outer loop
      vertex 16.8767 0.469362 4.02455
      vertex 18.4676 1.5324 90
      vertex 16.8767 0.469362 90
    endloop
  endfacet
  facet normal 0.555582 -0.831462 0
    outer loop
      vertex 18.4676 1.5324 90
      vertex 16.8767 0.469362 4.02455
      vertex 18.4676 1.5324 4.02455
    endloop
  endfacet
  facet normal 0.381562 -0.0759464 -0.921218
    outer loop
      vertex 17.5664 3.93696 0.842651
      vertex 15.9012 4.62671 0.0960732
      vertex 15.9755 5 0.0960732
    endloop
  endfacet
  facet normal 0.216171 -0.323464 -0.921217
    outer loop
      vertex 16.9642 3.03576 0.842651
      vertex 15.3733 4.0988 0.0960732
      vertex 15.6897 4.31025 0.0960732
    endloop
  endfacet
  facet normal -0.593614 -0.39664 -0.700213
    outer loop
      vertex 2.06031 2.06031 2.22215
      vertex 1.15911 3.40905 2.22215
      vertex 3.03576 3.03576 0.842651
    endloop
  endfacet
  facet normal -0.593614 -0.396639 -0.700214
    outer loop
      vertex 3.03576 3.03576 0.842651
      vertex 1.15911 3.40905 2.22215
      vertex 2.4336 3.93696 0.842651
    endloop
  endfacet
  facet normal 0.396639 -0.593615 -0.700213
    outer loop
      vertex 16.5909 1.15911 2.22215
      vertex 16.063 2.4336 0.842651
      vertex 16.9642 3.03576 0.842651
    endloop
  endfacet
  facet normal 0.139285 -0.700214 -0.700214
    outer loop
      vertex 16.5909 1.15911 2.22215
      vertex 15 2.22215 0.842651
      vertex 16.063 2.4336 0.842651
    endloop
  endfacet
  facet normal -0.323492 0.216149 -0.921213
    outer loop
      vertex 4.0988 75.3733 0.0960732
      vertex 2.4336 76.063 0.842651
      vertex 3.03576 76.9642 0.842651
    endloop
  endfacet
  facet normal -0.396657 0.593602 -0.700214
    outer loop
      vertex 3.93696 77.5664 0.842651
      vertex 3.03576 76.9642 0.842651
      vertex 3.40905 78.8409 2.22215
    endloop
  endfacet
  facet normal 0.700203 -0.139311 -0.70022
    outer loop
      vertex 18.8409 3.40905 2.22215
      vertex 17.5664 3.93696 0.842651
      vertex 17.7779 5 0.842651
    endloop
  endfacet
  facet normal 0.593602 -0.396657 -0.700214
    outer loop
      vertex 18.8409 3.40905 2.22215
      vertex 16.9642 3.03576 0.842651
      vertex 17.5664 3.93696 0.842651
    endloop
  endfacet
  facet normal 0 -0.707107 -0.707107
    outer loop
      vertex 5 2.22215 0.842651
      vertex 15 0.842651 2.22215
      vertex 5 0.842651 2.22215
    endloop
  endfacet
  facet normal 0 -0.707107 -0.707107
    outer loop
      vertex 15 0.842651 2.22215
      vertex 5 2.22215 0.842651
      vertex 15 2.22215 0.842651
    endloop
  endfacet
  facet normal -0.700209 0.139284 -0.700219
    outer loop
      vertex 2.22215 75 0.842651
      vertex 1.15911 76.591 2.22215
      vertex 2.4336 76.063 0.842651
    endloop
  endfacet
  facet normal -0.593602 0.396644 -0.700222
    outer loop
      vertex 3.03576 76.9642 0.842651
      vertex 1.15911 76.591 2.22215
      vertex 2.06031 77.9397 2.22215
    endloop
  endfacet
  facet normal 0 0 -1
    outer loop
      vertex 15 4.02455 0.0960732
      vertex 15.9755 5 0.0960732
      vertex 15.9012 4.62671 0.0960732
    endloop
  endfacet
  facet normal 0 0 -1
    outer loop
      vertex 15.9755 5 0.0960732
      vertex 4.02455 5 0.0960732
      vertex 15.9755 75 0.0960732
    endloop
  endfacet
  facet normal 0 0 -1
    outer loop
      vertex 15 4.02455 0.0960732
      vertex 15.9012 4.62671 0.0960732
      vertex 15.6897 4.31025 0.0960732
    endloop
  endfacet
  facet normal 0 0 -1
    outer loop
      vertex 4.02455 75 0.0960732
      vertex 15.9755 75 0.0960732
      vertex 4.02455 5 0.0960732
    endloop
  endfacet
  facet normal 0 0 -1
    outer loop
      vertex 15 4.02455 0.0960732
      vertex 15.6897 4.31025 0.0960732
      vertex 15.3733 4.0988 0.0960732
    endloop
  endfacet
  facet normal 0 -0 -1
    outer loop
      vertex 15 75.9754 0.0960732
      vertex 15.9755 75 0.0960732
      vertex 4.02455 75 0.0960732
    endloop
  endfacet
  facet normal -0 0 -1
    outer loop
      vertex 15.9755 5 0.0960732
      vertex 15 4.02455 0.0960732
      vertex 4.02455 5 0.0960732
    endloop
  endfacet
  facet normal 0 0 -1
    outer loop
      vertex 15.9755 75 0.0960732
      vertex 15 75.9754 0.0960732
      vertex 15.9012 75.3733 0.0960732
    endloop
  endfacet
  facet normal 0 0 -1
    outer loop
      vertex 4.02455 5 0.0960732
      vertex 15 4.02455 0.0960732
      vertex 5 4.02455 0.0960732
    endloop
  endfacet
  facet normal 0 0 -1
    outer loop
      vertex 15.9012 75.3733 0.0960732
      vertex 15 75.9754 0.0960732
      vertex 15.6897 75.6898 0.0960732
    endloop
  endfacet
  facet normal 0 0 -1
    outer loop
      vertex 4.02455 5 0.0960732
      vertex 5 4.02455 0.0960732
      vertex 4.62671 4.0988 0.0960732
    endloop
  endfacet
  facet normal 0 0 -1
    outer loop
      vertex 15.6897 75.6898 0.0960732
      vertex 15 75.9754 0.0960732
      vertex 15.3733 75.9012 0.0960732
    endloop
  endfacet
  facet normal 0 0 -1
    outer loop
      vertex 4.02455 5 0.0960732
      vertex 4.62671 4.0988 0.0960732
      vertex 4.31025 4.31025 0.0960732
    endloop
  endfacet
  facet normal -0 0 -1
    outer loop
      vertex 15 75.9754 0.0960732
      vertex 4.02455 75 0.0960732
      vertex 5 75.9754 0.0960732
    endloop
  endfacet
  facet normal 0 0 -1
    outer loop
      vertex 4.02455 5 0.0960732
      vertex 4.31025 4.31025 0.0960732
      vertex 4.0988 4.62671 0.0960732
    endloop
  endfacet
  facet normal 0 0 -1
    outer loop
      vertex 5 75.9754 0.0960732
      vertex 4.02455 75 0.0960732
      vertex 4.62671 75.9012 0.0960732
    endloop
  endfacet
  facet normal 0 0 -1
    outer loop
      vertex 4.62671 75.9012 0.0960732
      vertex 4.02455 75 0.0960732
      vertex 4.31025 75.6898 0.0960732
    endloop
  endfacet
  facet normal 0 0 -1
    outer loop
      vertex 4.31025 75.6898 0.0960732
      vertex 4.02455 75 0.0960732
      vertex 4.0988 75.3733 0.0960732
    endloop
  endfacet
  facet normal -0.323512 0.216134 -0.921209
    outer loop
      vertex 4.0988 75.3733 0.0960732
      vertex 3.03576 76.9642 0.842651
      vertex 4.31025 75.6898 0.0960732
    endloop
  endfacet
  facet normal -0.38158 -0.0758989 -0.921214
    outer loop
      vertex 4.0988 4.62671 0.0960732
      vertex 2.4336 3.93696 0.842651
      vertex 4.02455 5 0.0960732
    endloop
  endfacet
  facet normal -0.0758514 0.381598 -0.921211
    outer loop
      vertex 4.62671 75.9012 0.0960732
      vertex 3.93696 77.5664 0.842651
      vertex 5 75.9754 0.0960732
    endloop
  endfacet
  facet normal -0.216158 0.323483 -0.921214
    outer loop
      vertex 4.62671 75.9012 0.0960732
      vertex 3.03576 76.9642 0.842651
      vertex 3.93696 77.5664 0.842651
    endloop
  endfacet
  facet normal -0.770329 0.514733 -0.376354
    outer loop
      vertex 1.15911 76.591 2.22215
      vertex 0.469362 76.8766 4.02455
      vertex 2.06031 77.9397 2.22215
    endloop
  endfacet
  facet normal -0.396635 0.593605 -0.700224
    outer loop
      vertex 3.03576 76.9642 0.842651
      vertex 2.06031 77.9397 2.22215
      vertex 3.40905 78.8409 2.22215
    endloop
  endfacet
  facet normal -0.593603 0.396631 -0.700227
    outer loop
      vertex 2.4336 76.063 0.842651
      vertex 1.15911 76.591 2.22215
      vertex 3.03576 76.9642 0.842651
    endloop
  endfacet
  facet normal -0.323488 -0.216146 -0.921215
    outer loop
      vertex 4.31025 4.31025 0.0960732
      vertex 3.03576 3.03576 0.842651
      vertex 4.0988 4.62671 0.0960732
    endloop
  endfacet
  facet normal -0.323488 -0.216147 -0.921215
    outer loop
      vertex 3.03576 3.03576 0.842651
      vertex 2.4336 3.93696 0.842651
      vertex 4.0988 4.62671 0.0960732
    endloop
  endfacet
  facet normal -0.381582 0.0758974 -0.921214
    outer loop
      vertex 4.02455 75 0.0960732
      vertex 2.4336 76.063 0.842651
      vertex 4.0988 75.3733 0.0960732
    endloop
  endfacet
  facet normal -0.381579 0.075903 -0.921214
    outer loop
      vertex 4.02455 75 0.0960732
      vertex 2.22215 75 0.842651
      vertex 2.4336 76.063 0.842651
    endloop
  endfacet
  facet normal -0.216122 0.323529 -0.921206
    outer loop
      vertex 4.31025 75.6898 0.0960732
      vertex 3.03576 76.9642 0.842651
      vertex 4.62671 75.9012 0.0960732
    endloop
  endfacet
  facet normal 0.195096 -0.980784 0
    outer loop
      vertex 4.12335 78.5306 5.02455
      vertex 6 78.9039 90
      vertex 4.12335 78.5306 90
    endloop
  endfacet
  facet normal 0.195096 -0.980784 0
    outer loop
      vertex 6 78.9039 90
      vertex 4.12335 78.5306 5.02455
      vertex 6 78.9039 5.02455
    endloop
  endfacet
  facet normal -0.195091 -0.980785 0
    outer loop
      vertex 14 78.9039 5.02455
      vertex 15.8767 78.5306 90
      vertex 14 78.9039 90
    endloop
  endfacet
  facet normal -0.195091 -0.980785 -0
    outer loop
      vertex 15.8767 78.5306 90
      vertex 14 78.9039 5.02455
      vertex 15.8767 78.5306 5.02455
    endloop
  endfacet
  facet normal 1 -0 0
    outer loop
      vertex 1.09607 6 90
      vertex 1.09607 74 5.02455
      vertex 1.09607 74 90
    endloop
  endfacet
  facet normal 1 0 0
    outer loop
      vertex 1.09607 74 5.02455
      vertex 1.09607 6 90
      vertex 1.09607 6 5.02455
    endloop
  endfacet
  facet normal 0.13928 0.700215 0.700214
    outer loop
      vertex 6 3.22215 1.84265
      vertex 4.93696 3.4336 1.84265
      vertex 4.40905 2.15911 3.22215
    endloop
  endfacet
  facet normal -1 0 0
    outer loop
      vertex 18.9039 6 5.02455
      vertex 18.9039 74 90
      vertex 18.9039 74 5.02455
    endloop
  endfacet
  facet normal -1 -0 0
    outer loop
      vertex 18.9039 74 90
      vertex 18.9039 6 5.02455
      vertex 18.9039 6 90
    endloop
  endfacet
  facet normal 0 -1 0
    outer loop
      vertex 6 78.9039 5.02455
      vertex 14 78.9039 90
      vertex 6 78.9039 90
    endloop
  endfacet
  facet normal 0 -1 -0
    outer loop
      vertex 14 78.9039 90
      vertex 6 78.9039 5.02455
      vertex 14 78.9039 5.02455
    endloop
  endfacet
  facet normal 0.514721 -0.770334 0.376362
    outer loop
      vertex 4.40905 77.8409 3.22215
      vertex 4.12335 78.5306 5.02455
      vertex 3.06031 76.9397 3.22215
    endloop
  endfacet
  facet normal 0.0758825 -0.381581 0.921216
    outer loop
      vertex 6 74.9754 1.09607
      vertex 6 76.7778 1.84265
      vertex 4.93696 76.5664 1.84265
    endloop
  endfacet
  facet normal -0.908658 -0.180753 0.376389
    outer loop
      vertex 18.9039 74 5.02455
      vertex 18.5306 75.8766 5.02455
      vertex 18.1573 74 3.22215
    endloop
  endfacet
  facet normal 0.923879 -0 0.382684
    outer loop
      vertex 1.09607 6 5.02455
      vertex 1.84265 74 3.22215
      vertex 1.09607 74 5.02455
    endloop
  endfacet
  facet normal 0.923879 0 0.382684
    outer loop
      vertex 1.84265 74 3.22215
      vertex 1.09607 6 5.02455
      vertex 1.84265 6 3.22215
    endloop
  endfacet
  facet normal -0.180744 -0.90866 0.37639
    outer loop
      vertex 15.8767 78.5306 5.02455
      vertex 14 78.9039 5.02455
      vertex 14 78.1573 3.22215
    endloop
  endfacet
  facet normal -0.180718 -0.908675 0.376366
    outer loop
      vertex 15.5909 77.8409 3.22215
      vertex 15.8767 78.5306 5.02455
      vertex 14 78.1573 3.22215
    endloop
  endfacet
  facet normal -0.908679 0.180713 0.376357
    outer loop
      vertex 18.5306 4.12335 5.02455
      vertex 18.1573 6 3.22215
      vertex 17.8409 4.40905 3.22215
    endloop
  endfacet
  facet normal 0.908663 0.180745 0.376381
    outer loop
      vertex 2.15911 4.40905 3.22215
      vertex 1.84265 6 3.22215
      vertex 1.46936 4.12335 5.02455
    endloop
  endfacet
  facet normal -0.980783 -0.195101 0
    outer loop
      vertex 18.9039 74 5.02455
      vertex 18.5306 75.8766 90
      vertex 18.5306 75.8766 5.02455
    endloop
  endfacet
  facet normal -0.980783 -0.195101 0
    outer loop
      vertex 18.5306 75.8766 90
      vertex 18.9039 74 5.02455
      vertex 18.9039 74 90
    endloop
  endfacet
  facet normal -0.514716 -0.770331 0.376374
    outer loop
      vertex 16.9397 76.9397 3.22215
      vertex 17.4676 77.4676 5.02455
      vertex 15.8767 78.5306 5.02455
    endloop
  endfacet
  facet normal -0.381563 0.0759466 0.921218
    outer loop
      vertex 16.5664 4.93696 1.84265
      vertex 14.9755 6 1.09607
      vertex 14.9012 5.62671 1.09607
    endloop
  endfacet
  facet normal 0.707107 -0 0.707107
    outer loop
      vertex 1.84265 6 3.22215
      vertex 3.22215 74 1.84265
      vertex 1.84265 74 3.22215
    endloop
  endfacet
  facet normal 0.707107 0 0.707107
    outer loop
      vertex 3.22215 74 1.84265
      vertex 1.84265 6 3.22215
      vertex 3.22215 6 1.84265
    endloop
  endfacet
  facet normal -0.980784 0.195096 0
    outer loop
      vertex 18.5306 4.12335 5.02455
      vertex 18.9039 6 90
      vertex 18.9039 6 5.02455
    endloop
  endfacet
  facet normal -0.980784 0.195096 0
    outer loop
      vertex 18.9039 6 90
      vertex 18.5306 4.12335 5.02455
      vertex 18.5306 4.12335 90
    endloop
  endfacet
  facet normal -0.593591 -0.39665 0.700227
    outer loop
      vertex 16.5664 75.063 1.84265
      vertex 17.8409 75.591 3.22215
      vertex 15.9642 75.9642 1.84265
    endloop
  endfacet
  facet normal -0.707132 0 0.707081
    outer loop
      vertex 16.7779 74 1.84265
      vertex 18.1573 6 3.22215
      vertex 18.1573 74 3.22215
    endloop
  endfacet
  facet normal -0.707132 0 0.707081
    outer loop
      vertex 18.1573 6 3.22215
      vertex 16.7779 74 1.84265
      vertex 16.7779 6 1.84265
    endloop
  endfacet
  facet normal 0.323493 -0.21615 0.921212
    outer loop
      vertex 5.0988 74.3733 1.09607
      vertex 4.03576 75.9642 1.84265
      vertex 3.4336 75.063 1.84265
    endloop
  endfacet
  facet normal 0.908668 -0.18074 0.376372
    outer loop
      vertex 1.84265 74 3.22215
      vertex 2.15911 75.591 3.22215
      vertex 1.46936 75.8766 5.02455
    endloop
  endfacet
  facet normal 0.908662 -0.18075 0.376381
    outer loop
      vertex 1.84265 74 3.22215
      vertex 1.46936 75.8766 5.02455
      vertex 1.09607 74 5.02455
    endloop
  endfacet
  facet normal -0.139285 0.700214 0.700214
    outer loop
      vertex 15.5909 2.15911 3.22215
      vertex 15.063 3.4336 1.84265
      vertex 14 3.22215 1.84265
    endloop
  endfacet
  facet normal -0 0.382684 0.923879
    outer loop
      vertex 6 5.02455 1.09607
      vertex 14 3.22215 1.84265
      vertex 14 5.02455 1.09607
    endloop
  endfacet
  facet normal 0 0.382684 0.923879
    outer loop
      vertex 14 3.22215 1.84265
      vertex 6 5.02455 1.09607
      vertex 6 3.22215 1.84265
    endloop
  endfacet
  facet normal 0.514717 0.770327 0.37638
    outer loop
      vertex 4.12335 1.46936 5.02455
      vertex 3.06031 3.06031 3.22215
      vertex 2.5324 2.5324 5.02455
    endloop
  endfacet
  facet normal 0.180749 -0.908659 0.37639
    outer loop
      vertex 6 78.1573 3.22215
      vertex 6 78.9039 5.02455
      vertex 4.12335 78.5306 5.02455
    endloop
  endfacet
  facet normal 0 -0.707107 0.707107
    outer loop
      vertex 6 78.1573 3.22215
      vertex 14 76.7778 1.84265
      vertex 14 78.1573 3.22215
    endloop
  endfacet
  facet normal 0 -0.707107 0.707107
    outer loop
      vertex 14 76.7778 1.84265
      vertex 6 78.1573 3.22215
      vertex 6 76.7778 1.84265
    endloop
  endfacet
  facet normal -0.770335 -0.514737 0.376337
    outer loop
      vertex 17.8409 75.591 3.22215
      vertex 18.5306 75.8766 5.02455
      vertex 16.9397 76.9397 3.22215
    endloop
  endfacet
  facet normal -0.770334 0.514721 0.376362
    outer loop
      vertex 18.5306 4.12335 5.02455
      vertex 17.8409 4.40905 3.22215
      vertex 16.9397 3.06031 3.22215
    endloop
  endfacet
  facet normal -0.908659 0.180749 0.37639
    outer loop
      vertex 18.5306 4.12335 5.02455
      vertex 18.9039 6 5.02455
      vertex 18.1573 6 3.22215
    endloop
  endfacet
  facet normal -0.555568 -0.831471 0
    outer loop
      vertex 15.8767 78.5306 5.02455
      vertex 17.4676 77.4676 90
      vertex 15.8767 78.5306 90
    endloop
  endfacet
  facet normal -0.555568 -0.831471 -0
    outer loop
      vertex 17.4676 77.4676 90
      vertex 15.8767 78.5306 5.02455
      vertex 17.4676 77.4676 5.02455
    endloop
  endfacet
  facet normal -0.0758976 0.381583 0.921213
    outer loop
      vertex 15.063 3.4336 1.84265
      vertex 14.3733 5.0988 1.09607
      vertex 14 5.02455 1.09607
    endloop
  endfacet
  facet normal 0.381583 -0.0758976 0.921213
    outer loop
      vertex 5.02455 74 1.09607
      vertex 5.0988 74.3733 1.09607
      vertex 3.4336 75.063 1.84265
    endloop
  endfacet
  facet normal 0.770336 -0.514707 0.376377
    outer loop
      vertex 3.06031 76.9397 3.22215
      vertex 2.5324 77.4676 5.02455
      vertex 1.46936 75.8766 5.02455
    endloop
  endfacet
  facet normal 0.593602 -0.396644 0.700221
    outer loop
      vertex 4.03576 75.9642 1.84265
      vertex 3.06031 76.9397 3.22215
      vertex 2.15911 75.591 3.22215
    endloop
  endfacet
  facet normal 0.700215 -0.139277 0.700215
    outer loop
      vertex 3.22215 74 1.84265
      vertex 2.15911 75.591 3.22215
      vertex 1.84265 74 3.22215
    endloop
  endfacet
  facet normal 0.908663 0.180745 0.376381
    outer loop
      vertex 1.46936 4.12335 5.02455
      vertex 1.84265 6 3.22215
      vertex 1.09607 6 5.02455
    endloop
  endfacet
  facet normal 0.216147 0.323489 0.921214
    outer loop
      vertex 5.62671 5.0988 1.09607
      vertex 5.31025 5.31025 1.09607
      vertex 4.03576 4.03576 1.84265
    endloop
  endfacet
  facet normal 0.195091 0.980785 -0
    outer loop
      vertex 6 1.09607 5.02455
      vertex 4.12335 1.46936 90
      vertex 6 1.09607 90
    endloop
  endfacet
  facet normal 0.195091 0.980785 0
    outer loop
      vertex 4.12335 1.46936 90
      vertex 6 1.09607 5.02455
      vertex 4.12335 1.46936 5.02455
    endloop
  endfacet
  facet normal 0 1 -0
    outer loop
      vertex 14 1.09607 5.02455
      vertex 6 1.09607 90
      vertex 14 1.09607 90
    endloop
  endfacet
  facet normal 0 1 0
    outer loop
      vertex 6 1.09607 90
      vertex 14 1.09607 5.02455
      vertex 6 1.09607 5.02455
    endloop
  endfacet
  facet normal -0.18074 0.908664 0.376382
    outer loop
      vertex 15.8767 1.46936 5.02455
      vertex 14 1.84265 3.22215
      vertex 14 1.09607 5.02455
    endloop
  endfacet
  facet normal -0.0759032 0.38158 0.921214
    outer loop
      vertex 15.063 3.4336 1.84265
      vertex 14 5.02455 1.09607
      vertex 14 3.22215 1.84265
    endloop
  endfacet
  facet normal 0.831469 0.555571 0
    outer loop
      vertex 2.5324 2.5324 90
      vertex 1.46936 4.12335 5.02455
      vertex 1.46936 4.12335 90
    endloop
  endfacet
  facet normal 0.831469 0.555571 0
    outer loop
      vertex 1.46936 4.12335 5.02455
      vertex 2.5324 2.5324 90
      vertex 2.5324 2.5324 5.02455
    endloop
  endfacet
  facet normal 0.980785 0.195091 0
    outer loop
      vertex 1.46936 4.12335 90
      vertex 1.09607 6 5.02455
      vertex 1.09607 6 90
    endloop
  endfacet
  facet normal 0.980785 0.195091 0
    outer loop
      vertex 1.09607 6 5.02455
      vertex 1.46936 4.12335 90
      vertex 1.46936 4.12335 5.02455
    endloop
  endfacet
  facet normal 0.770327 0.514717 0.37638
    outer loop
      vertex 2.5324 2.5324 5.02455
      vertex 3.06031 3.06031 3.22215
      vertex 1.46936 4.12335 5.02455
    endloop
  endfacet
  facet normal 0.139256 -0.700217 0.700217
    outer loop
      vertex 6 76.7778 1.84265
      vertex 6 78.1573 3.22215
      vertex 4.40905 77.8409 3.22215
    endloop
  endfacet
  facet normal 0.180713 -0.908679 0.376357
    outer loop
      vertex 4.40905 77.8409 3.22215
      vertex 6 78.1573 3.22215
      vertex 4.12335 78.5306 5.02455
    endloop
  endfacet
  facet normal -0.514699 -0.770336 0.376388
    outer loop
      vertex 16.9397 76.9397 3.22215
      vertex 15.8767 78.5306 5.02455
      vertex 15.5909 77.8409 3.22215
    endloop
  endfacet
  facet normal 0 -0.382684 0.923879
    outer loop
      vertex 6 76.7778 1.84265
      vertex 14 74.9754 1.09607
      vertex 14 76.7778 1.84265
    endloop
  endfacet
  facet normal 0 -0.382684 0.923879
    outer loop
      vertex 14 74.9754 1.09607
      vertex 6 76.7778 1.84265
      vertex 6 74.9754 1.09607
    endloop
  endfacet
  facet normal -0.0758854 -0.381581 0.921215
    outer loop
      vertex 15.063 76.5664 1.84265
      vertex 14 76.7778 1.84265
      vertex 14 74.9754 1.09607
    endloop
  endfacet
  facet normal 0.593604 -0.396632 0.700227
    outer loop
      vertex 3.4336 75.063 1.84265
      vertex 4.03576 75.9642 1.84265
      vertex 2.15911 75.591 3.22215
    endloop
  endfacet
  facet normal 0.770327 0.514717 0.37638
    outer loop
      vertex 3.06031 3.06031 3.22215
      vertex 2.15911 4.40905 3.22215
      vertex 1.46936 4.12335 5.02455
    endloop
  endfacet
  facet normal -0.923876 0 0.382693
    outer loop
      vertex 18.1573 6 3.22215
      vertex 18.9039 74 5.02455
      vertex 18.1573 74 3.22215
    endloop
  endfacet
  facet normal -0.923876 0 0.382693
    outer loop
      vertex 18.9039 74 5.02455
      vertex 18.1573 6 3.22215
      vertex 18.9039 6 5.02455
    endloop
  endfacet
  facet normal -0.139286 0.700214 0.700214
    outer loop
      vertex 15.5909 2.15911 3.22215
      vertex 14 3.22215 1.84265
      vertex 14 1.84265 3.22215
    endloop
  endfacet
  facet normal -0.700242 -0.139256 0.700192
    outer loop
      vertex 18.1573 74 3.22215
      vertex 17.8409 75.591 3.22215
      vertex 16.7779 74 1.84265
    endloop
  endfacet
  facet normal -0.382684 0 0.923879
    outer loop
      vertex 14.9755 74 1.09607
      vertex 16.7779 6 1.84265
      vertex 16.7779 74 1.84265
    endloop
  endfacet
  facet normal -0.382684 0 0.923879
    outer loop
      vertex 16.7779 6 1.84265
      vertex 14.9755 74 1.09607
      vertex 14.9755 6 1.09607
    endloop
  endfacet
  facet normal -0.770338 0.514705 0.376375
    outer loop
      vertex 17.4676 2.5324 5.02455
      vertex 18.5306 4.12335 5.02455
      vertex 16.9397 3.06031 3.22215
    endloop
  endfacet
  facet normal 0 0.707107 0.707107
    outer loop
      vertex 14 3.22215 1.84265
      vertex 6 1.84265 3.22215
      vertex 14 1.84265 3.22215
    endloop
  endfacet
  facet normal 0 0.707107 0.707107
    outer loop
      vertex 6 1.84265 3.22215
      vertex 14 3.22215 1.84265
      vertex 6 3.22215 1.84265
    endloop
  endfacet
  facet normal 0.770329 -0.514733 0.376355
    outer loop
      vertex 2.15911 75.591 3.22215
      vertex 3.06031 76.9397 3.22215
      vertex 1.46936 75.8766 5.02455
    endloop
  endfacet
  facet normal -0.0758501 -0.381602 0.92121
    outer loop
      vertex 14.3733 74.9012 1.09607
      vertex 15.063 76.5664 1.84265
      vertex 14 74.9754 1.09607
    endloop
  endfacet
  facet normal -0.13926 -0.700217 0.700217
    outer loop
      vertex 15.5909 77.8409 3.22215
      vertex 14 78.1573 3.22215
      vertex 14 76.7778 1.84265
    endloop
  endfacet
  facet normal -0.831487 -0.555544 0
    outer loop
      vertex 18.5306 75.8766 5.02455
      vertex 17.4676 77.4676 90
      vertex 17.4676 77.4676 5.02455
    endloop
  endfacet
  facet normal -0.831487 -0.555544 0
    outer loop
      vertex 17.4676 77.4676 90
      vertex 18.5306 75.8766 5.02455
      vertex 18.5306 75.8766 90
    endloop
  endfacet
  facet normal -0.770347 -0.514694 0.376372
    outer loop
      vertex 18.5306 75.8766 5.02455
      vertex 17.4676 77.4676 5.02455
      vertex 16.9397 76.9397 3.22215
    endloop
  endfacet
  facet normal -0.908684 -0.180709 0.376348
    outer loop
      vertex 18.1573 74 3.22215
      vertex 18.5306 75.8766 5.02455
      vertex 17.8409 75.591 3.22215
    endloop
  endfacet
  facet normal -0.139254 -0.700221 0.700213
    outer loop
      vertex 15.063 76.5664 1.84265
      vertex 15.5909 77.8409 3.22215
      vertex 14 76.7778 1.84265
    endloop
  endfacet
  facet normal -0.396658 -0.593603 0.700213
    outer loop
      vertex 15.9642 75.9642 1.84265
      vertex 15.5909 77.8409 3.22215
      vertex 15.063 76.5664 1.84265
    endloop
  endfacet
  facet normal 0.396635 -0.593605 0.700224
    outer loop
      vertex 4.03576 75.9642 1.84265
      vertex 4.40905 77.8409 3.22215
      vertex 3.06031 76.9397 3.22215
    endloop
  endfacet
  facet normal -0.21615 0.323493 0.921212
    outer loop
      vertex 15.063 3.4336 1.84265
      vertex 15.9642 4.03576 1.84265
      vertex 14.3733 5.0988 1.09607
    endloop
  endfacet
  facet normal 0 -0.923876 0.382693
    outer loop
      vertex 6 78.1573 3.22215
      vertex 14 78.9039 5.02455
      vertex 6 78.9039 5.02455
    endloop
  endfacet
  facet normal 0 -0.923876 0.382693
    outer loop
      vertex 14 78.9039 5.02455
      vertex 6 78.1573 3.22215
      vertex 14 78.1573 3.22215
    endloop
  endfacet
  facet normal -0.323483 0.216158 0.921213
    outer loop
      vertex 15.9642 4.03576 1.84265
      vertex 16.5664 4.93696 1.84265
      vertex 14.9012 5.62671 1.09607
    endloop
  endfacet
  facet normal 0.216147 0.323488 0.921214
    outer loop
      vertex 4.93696 3.4336 1.84265
      vertex 5.62671 5.0988 1.09607
      vertex 4.03576 4.03576 1.84265
    endloop
  endfacet
  facet normal -0.195086 0.980786 0
    outer loop
      vertex 15.8767 1.46936 5.02455
      vertex 14 1.09607 90
      vertex 15.8767 1.46936 90
    endloop
  endfacet
  facet normal -0.195086 0.980786 0
    outer loop
      vertex 14 1.09607 90
      vertex 15.8767 1.46936 5.02455
      vertex 14 1.09607 5.02455
    endloop
  endfacet
  facet normal -0.514728 0.77032 0.376379
    outer loop
      vertex 17.4676 2.5324 5.02455
      vertex 16.9397 3.06031 3.22215
      vertex 15.8767 1.46936 5.02455
    endloop
  endfacet
  facet normal -0.180749 0.908658 0.37639
    outer loop
      vertex 15.8767 1.46936 5.02455
      vertex 15.5909 2.15911 3.22215
      vertex 14 1.84265 3.22215
    endloop
  endfacet
  facet normal 0.593614 0.396641 0.700213
    outer loop
      vertex 3.06031 3.06031 3.22215
      vertex 4.03576 4.03576 1.84265
      vertex 2.15911 4.40905 3.22215
    endloop
  endfacet
  facet normal 0.216158 -0.323483 0.921213
    outer loop
      vertex 5.62671 74.9012 1.09607
      vertex 4.93696 76.5664 1.84265
      vertex 4.03576 75.9642 1.84265
    endloop
  endfacet
  facet normal 0.0758516 -0.381599 0.92121
    outer loop
      vertex 5.62671 74.9012 1.09607
      vertex 6 74.9754 1.09607
      vertex 4.93696 76.5664 1.84265
    endloop
  endfacet
  facet normal 0 0.923879 0.382684
    outer loop
      vertex 14 1.84265 3.22215
      vertex 6 1.09607 5.02455
      vertex 14 1.09607 5.02455
    endloop
  endfacet
  facet normal 0 0.923879 0.382684
    outer loop
      vertex 6 1.09607 5.02455
      vertex 14 1.84265 3.22215
      vertex 6 1.84265 3.22215
    endloop
  endfacet
  facet normal 0.0759004 0.38158 0.921214
    outer loop
      vertex 6 3.22215 1.84265
      vertex 6 5.02455 1.09607
      vertex 4.93696 3.4336 1.84265
    endloop
  endfacet
  facet normal 0.980784 -0.195096 0
    outer loop
      vertex 1.09607 74 90
      vertex 1.46936 75.8766 5.02455
      vertex 1.46936 75.8766 90
    endloop
  endfacet
  facet normal 0.980784 -0.195096 0
    outer loop
      vertex 1.46936 75.8766 5.02455
      vertex 1.09607 74 90
      vertex 1.09607 74 5.02455
    endloop
  endfacet
  facet normal 0.555571 0.831469 -0
    outer loop
      vertex 4.12335 1.46936 5.02455
      vertex 2.5324 2.5324 90
      vertex 4.12335 1.46936 90
    endloop
  endfacet
  facet normal 0.555571 0.831469 0
    outer loop
      vertex 2.5324 2.5324 90
      vertex 4.12335 1.46936 5.02455
      vertex 2.5324 2.5324 5.02455
    endloop
  endfacet
  facet normal -0.700198 -0.139315 0.700225
    outer loop
      vertex 16.7779 74 1.84265
      vertex 17.8409 75.591 3.22215
      vertex 16.5664 75.063 1.84265
    endloop
  endfacet
  facet normal -0.38158 -0.0759211 0.921213
    outer loop
      vertex 16.7779 74 1.84265
      vertex 16.5664 75.063 1.84265
      vertex 14.9755 74 1.09607
    endloop
  endfacet
  facet normal -0.381565 -0.0759451 0.921217
    outer loop
      vertex 14.9755 74 1.09607
      vertex 16.5664 75.063 1.84265
      vertex 14.9012 74.3733 1.09607
    endloop
  endfacet
  facet normal -0.323488 -0.216161 0.921211
    outer loop
      vertex 16.5664 75.063 1.84265
      vertex 15.9642 75.9642 1.84265
      vertex 14.9012 74.3733 1.09607
    endloop
  endfacet
  facet normal 0.323488 0.216147 0.921214
    outer loop
      vertex 4.03576 4.03576 1.84265
      vertex 5.0988 5.62671 1.09607
      vertex 3.4336 4.93696 1.84265
    endloop
  endfacet
  facet normal 0.396657 -0.593602 0.700214
    outer loop
      vertex 4.93696 76.5664 1.84265
      vertex 4.40905 77.8409 3.22215
      vertex 4.03576 75.9642 1.84265
    endloop
  endfacet
  facet normal 0.139249 -0.700222 0.700213
    outer loop
      vertex 4.93696 76.5664 1.84265
      vertex 6 76.7778 1.84265
      vertex 4.40905 77.8409 3.22215
    endloop
  endfacet
  facet normal 0.323513 -0.216135 0.921209
    outer loop
      vertex 5.0988 74.3733 1.09607
      vertex 5.31025 74.6898 1.09607
      vertex 4.03576 75.9642 1.84265
    endloop
  endfacet
  facet normal -0.593602 0.396657 0.700214
    outer loop
      vertex 17.8409 4.40905 3.22215
      vertex 16.5664 4.93696 1.84265
      vertex 15.9642 4.03576 1.84265
    endloop
  endfacet
  facet normal -0.700242 0.139261 0.700191
    outer loop
      vertex 17.8409 4.40905 3.22215
      vertex 18.1573 6 3.22215
      vertex 16.7779 6 1.84265
    endloop
  endfacet
  facet normal -0.39664 0.593616 0.700213
    outer loop
      vertex 15.5909 2.15911 3.22215
      vertex 15.9642 4.03576 1.84265
      vertex 15.063 3.4336 1.84265
    endloop
  endfacet
  facet normal -0.514695 0.770329 0.376406
    outer loop
      vertex 15.8767 1.46936 5.02455
      vertex 16.9397 3.06031 3.22215
      vertex 15.5909 2.15911 3.22215
    endloop
  endfacet
  facet normal 0.38158 0.0759004 0.921214
    outer loop
      vertex 3.4336 4.93696 1.84265
      vertex 5.02455 6 1.09607
      vertex 3.22215 6 1.84265
    endloop
  endfacet
  facet normal 0.382684 0 0.923879
    outer loop
      vertex 3.22215 74 1.84265
      vertex 5.02455 6 1.09607
      vertex 5.02455 74 1.09607
    endloop
  endfacet
  facet normal 0.382684 0 0.923879
    outer loop
      vertex 5.02455 6 1.09607
      vertex 3.22215 74 1.84265
      vertex 3.22215 6 1.84265
    endloop
  endfacet
  facet normal 0.514705 -0.770338 0.376375
    outer loop
      vertex 3.06031 76.9397 3.22215
      vertex 4.12335 78.5306 5.02455
      vertex 2.5324 77.4676 5.02455
    endloop
  endfacet
  facet normal 0.700214 0.139281 0.700214
    outer loop
      vertex 2.15911 4.40905 3.22215
      vertex 3.22215 6 1.84265
      vertex 1.84265 6 3.22215
    endloop
  endfacet
  facet normal 0.700215 0.13928 0.700214
    outer loop
      vertex 3.4336 4.93696 1.84265
      vertex 3.22215 6 1.84265
      vertex 2.15911 4.40905 3.22215
    endloop
  endfacet
  facet normal 0.700209 -0.139284 0.700219
    outer loop
      vertex 3.22215 74 1.84265
      vertex 3.4336 75.063 1.84265
      vertex 2.15911 75.591 3.22215
    endloop
  endfacet
  facet normal 0.38158 -0.0759032 0.921214
    outer loop
      vertex 5.02455 74 1.09607
      vertex 3.4336 75.063 1.84265
      vertex 3.22215 74 1.84265
    endloop
  endfacet
  facet normal -0.323482 -0.216165 0.921212
    outer loop
      vertex 14.9012 74.3733 1.09607
      vertex 15.9642 75.9642 1.84265
      vertex 14.6897 74.6898 1.09607
    endloop
  endfacet
  facet normal 0.216123 -0.32353 0.921205
    outer loop
      vertex 5.31025 74.6898 1.09607
      vertex 5.62671 74.9012 1.09607
      vertex 4.03576 75.9642 1.84265
    endloop
  endfacet
  facet normal 0.180745 0.908663 0.376381
    outer loop
      vertex 6 1.09607 5.02455
      vertex 6 1.84265 3.22215
      vertex 4.12335 1.46936 5.02455
    endloop
  endfacet
  facet normal 0.514717 0.770327 0.37638
    outer loop
      vertex 4.12335 1.46936 5.02455
      vertex 4.40905 2.15911 3.22215
      vertex 3.06031 3.06031 3.22215
    endloop
  endfacet
  facet normal 0.180745 0.908663 0.376381
    outer loop
      vertex 6 1.84265 3.22215
      vertex 4.40905 2.15911 3.22215
      vertex 4.12335 1.46936 5.02455
    endloop
  endfacet
  facet normal 0.139281 0.700214 0.700214
    outer loop
      vertex 6 1.84265 3.22215
      vertex 6 3.22215 1.84265
      vertex 4.40905 2.15911 3.22215
    endloop
  endfacet
  facet normal -0.831479 0.555556 0
    outer loop
      vertex 17.4676 2.5324 5.02455
      vertex 18.5306 4.12335 90
      vertex 18.5306 4.12335 5.02455
    endloop
  endfacet
  facet normal -0.831479 0.555556 0
    outer loop
      vertex 18.5306 4.12335 90
      vertex 17.4676 2.5324 5.02455
      vertex 17.4676 2.5324 90
    endloop
  endfacet
  facet normal -0.555583 0.831461 0
    outer loop
      vertex 17.4676 2.5324 5.02455
      vertex 15.8767 1.46936 90
      vertex 17.4676 2.5324 90
    endloop
  endfacet
  facet normal -0.555583 0.831461 0
    outer loop
      vertex 15.8767 1.46936 90
      vertex 17.4676 2.5324 5.02455
      vertex 15.8767 1.46936 5.02455
    endloop
  endfacet
  facet normal -0.216148 -0.323506 0.921208
    outer loop
      vertex 14.6897 74.6898 1.09607
      vertex 15.9642 75.9642 1.84265
      vertex 14.3733 74.9012 1.09607
    endloop
  endfacet
  facet normal -0.216161 -0.323488 0.921211
    outer loop
      vertex 15.9642 75.9642 1.84265
      vertex 15.063 76.5664 1.84265
      vertex 14.3733 74.9012 1.09607
    endloop
  endfacet
  facet normal 0.381581 0.0758991 0.921214
    outer loop
      vertex 5.0988 5.62671 1.09607
      vertex 5.02455 6 1.09607
      vertex 3.4336 4.93696 1.84265
    endloop
  endfacet
  facet normal 0.0758991 0.381581 0.921214
    outer loop
      vertex 6 5.02455 1.09607
      vertex 5.62671 5.0988 1.09607
      vertex 4.93696 3.4336 1.84265
    endloop
  endfacet
  facet normal -0.396625 0.593618 0.700219
    outer loop
      vertex 16.9397 3.06031 3.22215
      vertex 15.9642 4.03576 1.84265
      vertex 15.5909 2.15911 3.22215
    endloop
  endfacet
  facet normal -0.593605 0.396635 0.700224
    outer loop
      vertex 16.9397 3.06031 3.22215
      vertex 17.8409 4.40905 3.22215
      vertex 15.9642 4.03576 1.84265
    endloop
  endfacet
  facet normal -0.38158 0.0759182 0.921213
    outer loop
      vertex 16.5664 4.93696 1.84265
      vertex 16.7779 6 1.84265
      vertex 14.9755 6 1.09607
    endloop
  endfacet
  facet normal -0.700204 0.139311 0.70022
    outer loop
      vertex 17.8409 4.40905 3.22215
      vertex 16.7779 6 1.84265
      vertex 16.5664 4.93696 1.84265
    endloop
  endfacet
  facet normal 0.831477 -0.555559 0
    outer loop
      vertex 1.46936 75.8766 90
      vertex 2.5324 77.4676 5.02455
      vertex 2.5324 77.4676 90
    endloop
  endfacet
  facet normal 0.831477 -0.555559 0
    outer loop
      vertex 2.5324 77.4676 5.02455
      vertex 1.46936 75.8766 90
      vertex 1.46936 75.8766 5.02455
    endloop
  endfacet
  facet normal 0.555556 -0.831479 0
    outer loop
      vertex 2.5324 77.4676 5.02455
      vertex 4.12335 78.5306 90
      vertex 2.5324 77.4676 90
    endloop
  endfacet
  facet normal 0.555556 -0.831479 0
    outer loop
      vertex 4.12335 78.5306 90
      vertex 2.5324 77.4676 5.02455
      vertex 4.12335 78.5306 5.02455
    endloop
  endfacet
  facet normal 0.593614 0.396639 0.700214
    outer loop
      vertex 4.03576 4.03576 1.84265
      vertex 3.4336 4.93696 1.84265
      vertex 2.15911 4.40905 3.22215
    endloop
  endfacet
  facet normal 0 0 1
    outer loop
      vertex 14 74.9754 1.09607
      vertex 14.9755 74 1.09607
      vertex 14.9012 74.3733 1.09607
    endloop
  endfacet
  facet normal 0 0 1
    outer loop
      vertex 14.9755 74 1.09607
      vertex 5.02455 74 1.09607
      vertex 14.9755 6 1.09607
    endloop
  endfacet
  facet normal 0 0 1
    outer loop
      vertex 14 74.9754 1.09607
      vertex 14.9012 74.3733 1.09607
      vertex 14.6897 74.6898 1.09607
    endloop
  endfacet
  facet normal 0 0 1
    outer loop
      vertex 5.02455 6 1.09607
      vertex 14.9755 6 1.09607
      vertex 5.02455 74 1.09607
    endloop
  endfacet
  facet normal 0 0 1
    outer loop
      vertex 14 74.9754 1.09607
      vertex 14.6897 74.6898 1.09607
      vertex 14.3733 74.9012 1.09607
    endloop
  endfacet
  facet normal 0 -0 1
    outer loop
      vertex 14 5.02455 1.09607
      vertex 14.9755 6 1.09607
      vertex 5.02455 6 1.09607
    endloop
  endfacet
  facet normal 0 0 1
    outer loop
      vertex 14.9755 74 1.09607
      vertex 14 74.9754 1.09607
      vertex 5.02455 74 1.09607
    endloop
  endfacet
  facet normal 0 0 1
    outer loop
      vertex 14.9755 6 1.09607
      vertex 14 5.02455 1.09607
      vertex 14.9012 5.62671 1.09607
    endloop
  endfacet
  facet normal 0 0 1
    outer loop
      vertex 5.02455 74 1.09607
      vertex 14 74.9754 1.09607
      vertex 6 74.9754 1.09607
    endloop
  endfacet
  facet normal 0 0 1
    outer loop
      vertex 14.9012 5.62671 1.09607
      vertex 14 5.02455 1.09607
      vertex 14.6897 5.31025 1.09607
    endloop
  endfacet
  facet normal 0 0 1
    outer loop
      vertex 5.02455 74 1.09607
      vertex 6 74.9754 1.09607
      vertex 5.62671 74.9012 1.09607
    endloop
  endfacet
  facet normal 0 0 1
    outer loop
      vertex 14.6897 5.31025 1.09607
      vertex 14 5.02455 1.09607
      vertex 14.3733 5.0988 1.09607
    endloop
  endfacet
  facet normal 0 0 1
    outer loop
      vertex 5.02455 74 1.09607
      vertex 5.62671 74.9012 1.09607
      vertex 5.31025 74.6898 1.09607
    endloop
  endfacet
  facet normal 0 0 1
    outer loop
      vertex 14 5.02455 1.09607
      vertex 5.02455 6 1.09607
      vertex 6 5.02455 1.09607
    endloop
  endfacet
  facet normal 0 0 1
    outer loop
      vertex 5.02455 74 1.09607
      vertex 5.31025 74.6898 1.09607
      vertex 5.0988 74.3733 1.09607
    endloop
  endfacet
  facet normal 0 0 1
    outer loop
      vertex 6 5.02455 1.09607
      vertex 5.02455 6 1.09607
      vertex 5.62671 5.0988 1.09607
    endloop
  endfacet
  facet normal 0 0 1
    outer loop
      vertex 5.62671 5.0988 1.09607
      vertex 5.02455 6 1.09607
      vertex 5.31025 5.31025 1.09607
    endloop
  endfacet
  facet normal 0 0 1
    outer loop
      vertex 5.31025 5.31025 1.09607
      vertex 5.02455 6 1.09607
      vertex 5.0988 5.62671 1.09607
    endloop
  endfacet
  facet normal 0.396641 0.593614 0.700213
    outer loop
      vertex 4.40905 2.15911 3.22215
      vertex 4.03576 4.03576 1.84265
      vertex 3.06031 3.06031 3.22215
    endloop
  endfacet
  facet normal 0.396639 0.593614 0.700214
    outer loop
      vertex 4.40905 2.15911 3.22215
      vertex 4.93696 3.4336 1.84265
      vertex 4.03576 4.03576 1.84265
    endloop
  endfacet
  facet normal -0.396619 -0.593609 0.70023
    outer loop
      vertex 15.9642 75.9642 1.84265
      vertex 16.9397 76.9397 3.22215
      vertex 15.5909 77.8409 3.22215
    endloop
  endfacet
  facet normal -0.593593 -0.396638 0.700232
    outer loop
      vertex 17.8409 75.591 3.22215
      vertex 16.9397 76.9397 3.22215
      vertex 15.9642 75.9642 1.84265
    endloop
  endfacet
  facet normal -0.216171 0.323464 0.921217
    outer loop
      vertex 15.9642 4.03576 1.84265
      vertex 14.6897 5.31025 1.09607
      vertex 14.3733 5.0988 1.09607
    endloop
  endfacet
  facet normal 0.323489 0.216147 0.921214
    outer loop
      vertex 5.31025 5.31025 1.09607
      vertex 5.0988 5.62671 1.09607
      vertex 4.03576 4.03576 1.84265
    endloop
  endfacet
  facet normal -0.323458 0.216177 0.921218
    outer loop
      vertex 15.9642 4.03576 1.84265
      vertex 14.9012 5.62671 1.09607
      vertex 14.6897 5.31025 1.09607
    endloop
  endfacet
endsolid OpenSCAD_Model
