solid OpenSCAD_Model
  facet normal 0 -1 0
    outer loop
      vertex 1.58883 0.198567 1.23463
      vertex 231.589 0.198567 35
      vertex 1.58883 0.198567 35
    endloop
  endfacet
  facet normal 0 -1 -0
    outer loop
      vertex 231.589 0.198567 35
      vertex 1.58883 0.198567 1.23463
      vertex 231.589 0.198567 1.23463
    endloop
  endfacet
  facet normal 0.66943 -0.322191 -0.66937
    outer loop
      vertex 233.152 0.555364 1.23463
      vertex 232.477 1.40161 0.152241
      vertex 232.765 2 0.152241
    endloop
  endfacet
  facet normal 0 0.716109 -0.697988
    outer loop
      vertex 1.82969 109.746 0.152241
      vertex 231.589 110.801 1.23463
      vertex 231.83 109.746 0.152241
    endloop
  endfacet
  facet normal 0 0.716109 -0.697988
    outer loop
      vertex 231.589 110.801 1.23463
      vertex 1.82969 109.746 0.152241
      vertex 1.58883 110.801 1.23463
    endloop
  endfacet
  facet normal 0.164949 0.7242 -0.669572
    outer loop
      vertex 232.477 109.598 0.152241
      vertex 231.589 110.801 1.23463
      vertex 233.152 110.445 1.23463
    endloop
  endfacet
  facet normal 0 1 -0
    outer loop
      vertex 231.589 110.801 1.23463
      vertex 1.58883 110.801 35
      vertex 231.589 110.801 35
    endloop
  endfacet
  facet normal 0 1 0
    outer loop
      vertex 1.58883 110.801 35
      vertex 231.589 110.801 1.23463
      vertex 1.58883 110.801 1.23463
    endloop
  endfacet
  facet normal 0.165704 0.724397 -0.669172
    outer loop
      vertex 231.83 109.746 0.152241
      vertex 231.589 110.801 1.23463
      vertex 232.477 109.598 0.152241
    endloop
  endfacet
  facet normal 0.669181 0.322318 -0.669558
    outer loop
      vertex 233.848 109 1.23463
      vertex 232.765 109 0.152241
      vertex 233.152 110.445 1.23463
    endloop
  endfacet
  facet normal -0.463177 0.580941 -0.669309
    outer loop
      vertex 1.82969 109.746 0.152241
      vertex 1.31043 109.332 0.152241
      vertex 1.58883 110.801 1.23463
    endloop
  endfacet
  facet normal -0.463215 -0.580848 -0.669363
    outer loop
      vertex 1.58883 0.198567 1.23463
      vertex 1.31043 1.66792 0.152241
      vertex 1.82969 1.25382 0.152241
    endloop
  endfacet
  facet normal 0.222552 -0.974921 0
    outer loop
      vertex 231.589 0.198567 1.23463
      vertex 233.152 0.555364 35
      vertex 231.589 0.198567 35
    endloop
  endfacet
  facet normal 0.222552 -0.974921 0
    outer loop
      vertex 233.152 0.555364 35
      vertex 231.589 0.198567 1.23463
      vertex 233.152 0.555364 1.23463
    endloop
  endfacet
  facet normal -0.742934 0 -0.669364
    outer loop
      vertex 1.31043 1.66792 0.152241
      vertex 0.335226 109.802 1.23463
      vertex 1.31043 109.332 0.152241
    endloop
  endfacet
  facet normal -0.742934 -0 -0.669364
    outer loop
      vertex 0.335226 109.802 1.23463
      vertex 1.31043 1.66792 0.152241
      vertex 0.335226 1.19829 1.23463
    endloop
  endfacet
  facet normal 0.669163 -0.322391 -0.669541
    outer loop
      vertex 233.152 0.555364 1.23463
      vertex 232.765 2 0.152241
      vertex 233.848 2 1.23463
    endloop
  endfacet
  facet normal -0.463214 -0.580848 -0.669364
    outer loop
      vertex 1.58883 0.198567 1.23463
      vertex 0.335226 1.19829 1.23463
      vertex 1.31043 1.66792 0.152241
    endloop
  endfacet
  facet normal -0.623217 0.782049 0
    outer loop
      vertex 1.58883 110.801 1.23463
      vertex 0.335226 109.802 35
      vertex 1.58883 110.801 35
    endloop
  endfacet
  facet normal -0.623217 0.782049 0
    outer loop
      vertex 0.335226 109.802 35
      vertex 1.58883 110.801 1.23463
      vertex 0.335226 109.802 1.23463
    endloop
  endfacet
  facet normal 0 0 -1
    outer loop
      vertex 231.83 1.25382 0.152241
      vertex 232.765 2 0.152241
      vertex 232.477 1.40161 0.152241
    endloop
  endfacet
  facet normal -0 0 -1
    outer loop
      vertex 232.765 2 0.152241
      vertex 231.83 1.25382 0.152241
      vertex 232.765 109 0.152241
    endloop
  endfacet
  facet normal 0 0 -1
    outer loop
      vertex 231.83 109.746 0.152241
      vertex 232.765 109 0.152241
      vertex 231.83 1.25382 0.152241
    endloop
  endfacet
  facet normal 0 0 -1
    outer loop
      vertex 232.765 109 0.152241
      vertex 231.83 109.746 0.152241
      vertex 232.477 109.598 0.152241
    endloop
  endfacet
  facet normal 0 0 -1
    outer loop
      vertex 1.82969 1.25382 0.152241
      vertex 231.83 109.746 0.152241
      vertex 231.83 1.25382 0.152241
    endloop
  endfacet
  facet normal 0 0 -1
    outer loop
      vertex 1.82969 1.25382 0.152241
      vertex 1.82969 109.746 0.152241
      vertex 231.83 109.746 0.152241
    endloop
  endfacet
  facet normal 0 0 -1
    outer loop
      vertex 1.31043 1.66792 0.152241
      vertex 1.82969 109.746 0.152241
      vertex 1.82969 1.25382 0.152241
    endloop
  endfacet
  facet normal 0 0 -1
    outer loop
      vertex 1.82969 109.746 0.152241
      vertex 1.31043 1.66792 0.152241
      vertex 1.31043 109.332 0.152241
    endloop
  endfacet
  facet normal 0 -0.716025 -0.698074
    outer loop
      vertex 1.82969 1.25382 0.152241
      vertex 231.589 0.198567 1.23463
      vertex 1.58883 0.198567 1.23463
    endloop
  endfacet
  facet normal 0 -0.716025 -0.698074
    outer loop
      vertex 231.589 0.198567 1.23463
      vertex 1.82969 1.25382 0.152241
      vertex 231.83 1.25382 0.152241
    endloop
  endfacet
  facet normal -0.623493 -0.781829 0
    outer loop
      vertex 0.335226 1.19829 1.23463
      vertex 1.58883 0.198567 35
      vertex 0.335226 1.19829 35
    endloop
  endfacet
  facet normal -0.623493 -0.781829 -0
    outer loop
      vertex 1.58883 0.198567 35
      vertex 0.335226 1.19829 1.23463
      vertex 1.58883 0.198567 1.23463
    endloop
  endfacet
  facet normal -0.462983 0.580978 -0.669411
    outer loop
      vertex 1.31043 109.332 0.152241
      vertex 0.335226 109.802 1.23463
      vertex 1.58883 110.801 1.23463
    endloop
  endfacet
  facet normal 1 -0 0
    outer loop
      vertex 233.848 2 35
      vertex 233.848 109 1.23463
      vertex 233.848 109 35
    endloop
  endfacet
  facet normal 1 0 0
    outer loop
      vertex 233.848 109 1.23463
      vertex 233.848 2 35
      vertex 233.848 2 1.23463
    endloop
  endfacet
  facet normal 0.165338 -0.724288 -0.66938
    outer loop
      vertex 233.152 0.555364 1.23463
      vertex 231.589 0.198567 1.23463
      vertex 232.477 1.40161 0.152241
    endloop
  endfacet
  facet normal 0.900938 0.433947 0
    outer loop
      vertex 233.848 109 35
      vertex 233.152 110.445 1.23463
      vertex 233.152 110.445 35
    endloop
  endfacet
  facet normal 0.900938 0.433947 0
    outer loop
      vertex 233.152 110.445 1.23463
      vertex 233.848 109 35
      vertex 233.848 109 1.23463
    endloop
  endfacet
  facet normal 0.222079 0.975029 -0
    outer loop
      vertex 233.152 110.445 1.23463
      vertex 231.589 110.801 35
      vertex 233.152 110.445 35
    endloop
  endfacet
  facet normal 0.222079 0.975029 0
    outer loop
      vertex 231.589 110.801 35
      vertex 233.152 110.445 1.23463
      vertex 231.589 110.801 1.23463
    endloop
  endfacet
  facet normal -1 0 0
    outer loop
      vertex 0.335226 1.19829 1.23463
      vertex 0.335226 109.802 35
      vertex 0.335226 109.802 1.23463
    endloop
  endfacet
  facet normal -1 -0 0
    outer loop
      vertex 0.335226 109.802 35
      vertex 0.335226 1.19829 1.23463
      vertex 0.335226 1.19829 35
    endloop
  endfacet
  facet normal 0.165451 -0.724318 -0.66932
    outer loop
      vertex 232.477 1.40161 0.152241
      vertex 231.589 0.198567 1.23463
      vertex 231.83 1.25382 0.152241
    endloop
  endfacet
  facet normal 0.900896 -0.434036 0
    outer loop
      vertex 233.152 0.555364 35
      vertex 233.848 2 1.23463
      vertex 233.848 2 35
    endloop
  endfacet
  facet normal 0.900896 -0.434036 0
    outer loop
      vertex 233.848 2 1.23463
      vertex 233.152 0.555364 35
      vertex 233.152 0.555364 1.23463
    endloop
  endfacet
  facet normal 0.669211 0.322296 -0.669539
    outer loop
      vertex 232.765 109 0.152241
      vertex 232.477 109.598 0.152241
      vertex 233.152 110.445 1.23463
    endloop
  endfacet
  facet normal 0.706907 0 -0.707306
    outer loop
      vertex 232.765 2 0.152241
      vertex 233.848 109 1.23463
      vertex 233.848 2 1.23463
    endloop
  endfacet
  facet normal 0.706907 0 -0.707306
    outer loop
      vertex 233.848 109 1.23463
      vertex 232.765 2 0.152241
      vertex 232.765 109 0.152241
    endloop
  endfacet
  facet normal -0 0 1
    outer loop
      vertex 232.152 42.5554 35
      vertex 232.848 39 35
      vertex 232.848 44 35
    endloop
  endfacet
  facet normal 0 0 1
    outer loop
      vertex 232.152 42.5554 35
      vertex 232.152 40.4446 35
      vertex 232.848 39 35
    endloop
  endfacet
  facet normal -0 0 1
    outer loop
      vertex 230.589 42.1986 35
      vertex 232.152 40.4446 35
      vertex 232.152 42.5554 35
    endloop
  endfacet
  facet normal 0 0 1
    outer loop
      vertex 230.589 42.1986 35
      vertex 230.589 40.8014 35
      vertex 232.152 40.4446 35
    endloop
  endfacet
  facet normal -0 0 1
    outer loop
      vertex 2.58883 42.1986 35
      vertex 230.589 40.8014 35
      vertex 230.589 42.1986 35
    endloop
  endfacet
  facet normal 0 0 1
    outer loop
      vertex 2.58883 42.1986 35
      vertex 2.58883 40.8014 35
      vertex 230.589 40.8014 35
    endloop
  endfacet
  facet normal 0 0 1
    outer loop
      vertex 1.33523 43.1983 35
      vertex 2.58883 40.8014 35
      vertex 2.58883 42.1986 35
    endloop
  endfacet
  facet normal 0 0 1
    outer loop
      vertex 2.58883 40.8014 35
      vertex 1.33523 43.1983 35
      vertex 1.33523 39.8017 35
    endloop
  endfacet
  facet normal 0 0 1
    outer loop
      vertex 231.589 110.801 35
      vertex 233.848 109 35
      vertex 233.152 110.445 35
    endloop
  endfacet
  facet normal 0 0 1
    outer loop
      vertex 233.848 109 35
      vertex 232.848 44 35
      vertex 233.848 2 35
    endloop
  endfacet
  facet normal 0 0 1
    outer loop
      vertex 233.848 109 35
      vertex 232.848 98 35
      vertex 232.848 44 35
    endloop
  endfacet
  facet normal 0 0 1
    outer loop
      vertex 233.848 109 35
      vertex 232.152 99.4446 35
      vertex 232.848 98 35
    endloop
  endfacet
  facet normal 0 0 1
    outer loop
      vertex 233.848 109 35
      vertex 231.589 110.801 35
      vertex 230.589 99.8014 35
    endloop
  endfacet
  facet normal 0 0 1
    outer loop
      vertex 233.848 109 35
      vertex 230.589 99.8014 35
      vertex 232.152 99.4446 35
    endloop
  endfacet
  facet normal 0 0 1
    outer loop
      vertex 231.589 110.801 35
      vertex 2.58883 99.8014 35
      vertex 230.589 99.8014 35
    endloop
  endfacet
  facet normal -0 0 1
    outer loop
      vertex 1.58883 110.801 35
      vertex 2.58883 99.8014 35
      vertex 231.589 110.801 35
    endloop
  endfacet
  facet normal -0 0 1
    outer loop
      vertex 0.335226 109.802 35
      vertex 2.58883 99.8014 35
      vertex 1.58883 110.801 35
    endloop
  endfacet
  facet normal 0 0 1
    outer loop
      vertex 0.335226 109.802 35
      vertex 1.33523 43.1983 35
      vertex 1.33523 98.8017 35
    endloop
  endfacet
  facet normal 0 0 1
    outer loop
      vertex 0.335226 1.19829 35
      vertex 1.33523 43.1983 35
      vertex 0.335226 109.802 35
    endloop
  endfacet
  facet normal 0 0 1
    outer loop
      vertex 1.33523 43.1983 35
      vertex 0.335226 1.19829 35
      vertex 1.33523 39.8017 35
    endloop
  endfacet
  facet normal 0 0 1
    outer loop
      vertex 2.58883 99.8014 35
      vertex 0.335226 109.802 35
      vertex 1.33523 98.8017 35
    endloop
  endfacet
  facet normal -0 0 1
    outer loop
      vertex 232.848 39 35
      vertex 233.848 2 35
      vertex 232.848 44 35
    endloop
  endfacet
  facet normal -0 0 1
    outer loop
      vertex 232.848 3 35
      vertex 233.848 2 35
      vertex 232.848 39 35
    endloop
  endfacet
  facet normal 0 0 1
    outer loop
      vertex 232.152 1.55536 35
      vertex 233.848 2 35
      vertex 232.848 3 35
    endloop
  endfacet
  facet normal 0 0 1
    outer loop
      vertex 233.848 2 35
      vertex 232.152 1.55536 35
      vertex 233.152 0.555364 35
    endloop
  endfacet
  facet normal 0 0 1
    outer loop
      vertex 232.152 1.55536 35
      vertex 231.589 0.198567 35
      vertex 233.152 0.555364 35
    endloop
  endfacet
  facet normal -0 0 1
    outer loop
      vertex 230.589 1.19857 35
      vertex 231.589 0.198567 35
      vertex 232.152 1.55536 35
    endloop
  endfacet
  facet normal -0 0 1
    outer loop
      vertex 2.58883 1.19857 35
      vertex 231.589 0.198567 35
      vertex 230.589 1.19857 35
    endloop
  endfacet
  facet normal 0 0 1
    outer loop
      vertex 2.58883 1.19857 35
      vertex 1.58883 0.198567 35
      vertex 231.589 0.198567 35
    endloop
  endfacet
  facet normal 0 0 1
    outer loop
      vertex 1.33523 2.19829 35
      vertex 1.58883 0.198567 35
      vertex 2.58883 1.19857 35
    endloop
  endfacet
  facet normal 0 0 1
    outer loop
      vertex 1.33523 2.19829 35
      vertex 0.335226 1.19829 35
      vertex 1.58883 0.198567 35
    endloop
  endfacet
  facet normal 0 0 1
    outer loop
      vertex 1.33523 39.8017 35
      vertex 0.335226 1.19829 35
      vertex 1.33523 2.19829 35
    endloop
  endfacet
  facet normal 0.463215 -0.580861 0.669352
    outer loop
      vertex 2.31043 39.3321 1.15224
      vertex 2.58883 40.8014 2.23463
      vertex 1.33523 39.8017 2.23463
    endloop
  endfacet
  facet normal -0.900896 0.434035 0
    outer loop
      vertex 232.152 1.55536 2.23463
      vertex 232.848 3 35
      vertex 232.848 3 2.23463
    endloop
  endfacet
  facet normal -0.900896 0.434035 0
    outer loop
      vertex 232.848 3 35
      vertex 232.152 1.55536 2.23463
      vertex 232.152 1.55536 35
    endloop
  endfacet
  facet normal -0.66944 -0.32219 0.669361
    outer loop
      vertex 231.765 39 1.15224
      vertex 232.152 40.4446 2.23463
      vertex 231.477 39.5984 1.15224
    endloop
  endfacet
  facet normal 1 -0 0
    outer loop
      vertex 1.33523 2.19829 35
      vertex 1.33523 39.8017 2.23463
      vertex 1.33523 39.8017 35
    endloop
  endfacet
  facet normal 1 0 0
    outer loop
      vertex 1.33523 39.8017 2.23463
      vertex 1.33523 2.19829 35
      vertex 1.33523 2.19829 2.23463
    endloop
  endfacet
  facet normal 0.623485 -0.781835 0
    outer loop
      vertex 1.33523 39.8017 2.23463
      vertex 2.58883 40.8014 35
      vertex 1.33523 39.8017 35
    endloop
  endfacet
  facet normal 0.623485 -0.781835 0
    outer loop
      vertex 2.58883 40.8014 35
      vertex 1.33523 39.8017 2.23463
      vertex 2.58883 40.8014 2.23463
    endloop
  endfacet
  facet normal 0.623493 0.781829 -0
    outer loop
      vertex 2.58883 1.19857 2.23463
      vertex 1.33523 2.19829 35
      vertex 2.58883 1.19857 35
    endloop
  endfacet
  facet normal 0.623493 0.781829 0
    outer loop
      vertex 1.33523 2.19829 35
      vertex 2.58883 1.19857 2.23463
      vertex 1.33523 2.19829 2.23463
    endloop
  endfacet
  facet normal 0.463224 -0.580859 0.669347
    outer loop
      vertex 2.82969 39.7462 1.15224
      vertex 2.58883 40.8014 2.23463
      vertex 2.31043 39.3321 1.15224
    endloop
  endfacet
  facet normal -0 0.716027 0.698073
    outer loop
      vertex 2.82969 2.25382 1.15224
      vertex 230.589 1.19857 2.23463
      vertex 230.83 2.25382 1.15224
    endloop
  endfacet
  facet normal 0 0.716027 0.698073
    outer loop
      vertex 230.589 1.19857 2.23463
      vertex 2.82969 2.25382 1.15224
      vertex 2.58883 1.19857 2.23463
    endloop
  endfacet
  facet normal -0.66943 0.322191 0.66937
    outer loop
      vertex 232.152 1.55536 2.23463
      vertex 231.765 3 1.15224
      vertex 231.477 2.40161 1.15224
    endloop
  endfacet
  facet normal -0.165466 -0.724335 0.669298
    outer loop
      vertex 230.83 39.7462 1.15224
      vertex 231.477 39.5984 1.15224
      vertex 230.589 40.8014 2.23463
    endloop
  endfacet
  facet normal -0.222548 0.974922 0
    outer loop
      vertex 232.152 1.55536 2.23463
      vertex 230.589 1.19857 35
      vertex 232.152 1.55536 35
    endloop
  endfacet
  facet normal -0.222548 0.974922 0
    outer loop
      vertex 230.589 1.19857 35
      vertex 232.152 1.55536 2.23463
      vertex 230.589 1.19857 2.23463
    endloop
  endfacet
  facet normal 0 -1 0
    outer loop
      vertex 2.58883 40.8014 2.23463
      vertex 230.589 40.8014 35
      vertex 2.58883 40.8014 35
    endloop
  endfacet
  facet normal 0 -1 -0
    outer loop
      vertex 230.589 40.8014 35
      vertex 2.58883 40.8014 2.23463
      vertex 230.589 40.8014 2.23463
    endloop
  endfacet
  facet normal -0.706908 0 0.707306
    outer loop
      vertex 231.765 39 1.15224
      vertex 232.848 3 2.23463
      vertex 232.848 39 2.23463
    endloop
  endfacet
  facet normal -0.706908 0 0.707306
    outer loop
      vertex 232.848 3 2.23463
      vertex 231.765 39 1.15224
      vertex 231.765 3 1.15224
    endloop
  endfacet
  facet normal 0 -0.716043 0.698056
    outer loop
      vertex 2.82969 39.7462 1.15224
      vertex 230.589 40.8014 2.23463
      vertex 2.58883 40.8014 2.23463
    endloop
  endfacet
  facet normal 0 -0.716043 0.698056
    outer loop
      vertex 230.589 40.8014 2.23463
      vertex 2.82969 39.7462 1.15224
      vertex 230.83 39.7462 1.15224
    endloop
  endfacet
  facet normal -0.900891 -0.434044 0
    outer loop
      vertex 232.848 39 2.23463
      vertex 232.152 40.4446 35
      vertex 232.152 40.4446 2.23463
    endloop
  endfacet
  facet normal -0.900891 -0.434044 0
    outer loop
      vertex 232.152 40.4446 35
      vertex 232.848 39 2.23463
      vertex 232.848 39 35
    endloop
  endfacet
  facet normal 0 1 -0
    outer loop
      vertex 230.589 1.19857 2.23463
      vertex 2.58883 1.19857 35
      vertex 230.589 1.19857 35
    endloop
  endfacet
  facet normal 0 1 0
    outer loop
      vertex 2.58883 1.19857 35
      vertex 230.589 1.19857 2.23463
      vertex 2.58883 1.19857 2.23463
    endloop
  endfacet
  facet normal 0.463215 0.580849 0.669363
    outer loop
      vertex 2.58883 1.19857 2.23463
      vertex 2.31043 2.66792 1.15224
      vertex 1.33523 2.19829 2.23463
    endloop
  endfacet
  facet normal -1 0 0
    outer loop
      vertex 232.848 3 2.23463
      vertex 232.848 39 35
      vertex 232.848 39 2.23463
    endloop
  endfacet
  facet normal -1 -0 0
    outer loop
      vertex 232.848 39 35
      vertex 232.848 3 2.23463
      vertex 232.848 3 35
    endloop
  endfacet
  facet normal 0.463216 0.580849 0.669362
    outer loop
      vertex 2.58883 1.19857 2.23463
      vertex 2.82969 2.25382 1.15224
      vertex 2.31043 2.66792 1.15224
    endloop
  endfacet
  facet normal 0.742936 0 0.669362
    outer loop
      vertex 1.33523 39.8017 2.23463
      vertex 2.31043 2.66792 1.15224
      vertex 2.31043 39.3321 1.15224
    endloop
  endfacet
  facet normal 0.742936 0 0.669362
    outer loop
      vertex 2.31043 2.66792 1.15224
      vertex 1.33523 39.8017 2.23463
      vertex 1.33523 2.19829 2.23463
    endloop
  endfacet
  facet normal -0.669162 -0.322398 0.669539
    outer loop
      vertex 232.848 39 2.23463
      vertex 232.152 40.4446 2.23463
      vertex 231.765 39 1.15224
    endloop
  endfacet
  facet normal -0.669164 0.32239 0.669541
    outer loop
      vertex 232.152 1.55536 2.23463
      vertex 232.848 3 2.23463
      vertex 231.765 3 1.15224
    endloop
  endfacet
  facet normal -0.165452 0.724319 0.669319
    outer loop
      vertex 231.477 2.40161 1.15224
      vertex 230.83 2.25382 1.15224
      vertex 230.589 1.19857 2.23463
    endloop
  endfacet
  facet normal -0.165335 0.724289 0.66938
    outer loop
      vertex 232.152 1.55536 2.23463
      vertex 231.477 2.40161 1.15224
      vertex 230.589 1.19857 2.23463
    endloop
  endfacet
  facet normal 0 0 1
    outer loop
      vertex 230.83 39.7462 1.15224
      vertex 231.765 39 1.15224
      vertex 231.477 39.5984 1.15224
    endloop
  endfacet
  facet normal 0 0 1
    outer loop
      vertex 231.765 39 1.15224
      vertex 230.83 39.7462 1.15224
      vertex 231.765 3 1.15224
    endloop
  endfacet
  facet normal 0 0 1
    outer loop
      vertex 230.83 2.25382 1.15224
      vertex 231.765 3 1.15224
      vertex 230.83 39.7462 1.15224
    endloop
  endfacet
  facet normal 0 0 1
    outer loop
      vertex 231.765 3 1.15224
      vertex 230.83 2.25382 1.15224
      vertex 231.477 2.40161 1.15224
    endloop
  endfacet
  facet normal -0 0 1
    outer loop
      vertex 2.82969 39.7462 1.15224
      vertex 230.83 2.25382 1.15224
      vertex 230.83 39.7462 1.15224
    endloop
  endfacet
  facet normal 0 0 1
    outer loop
      vertex 2.82969 39.7462 1.15224
      vertex 2.82969 2.25382 1.15224
      vertex 230.83 2.25382 1.15224
    endloop
  endfacet
  facet normal -0 0 1
    outer loop
      vertex 2.31043 39.3321 1.15224
      vertex 2.82969 2.25382 1.15224
      vertex 2.82969 39.7462 1.15224
    endloop
  endfacet
  facet normal 0 0 1
    outer loop
      vertex 2.82969 2.25382 1.15224
      vertex 2.31043 39.3321 1.15224
      vertex 2.31043 2.66792 1.15224
    endloop
  endfacet
  facet normal -0.165343 -0.724303 0.669363
    outer loop
      vertex 231.477 39.5984 1.15224
      vertex 232.152 40.4446 2.23463
      vertex 230.589 40.8014 2.23463
    endloop
  endfacet
  facet normal -0.222554 -0.97492 0
    outer loop
      vertex 230.589 40.8014 2.23463
      vertex 232.152 40.4446 35
      vertex 230.589 40.8014 35
    endloop
  endfacet
  facet normal -0.222554 -0.97492 -0
    outer loop
      vertex 232.152 40.4446 35
      vertex 230.589 40.8014 2.23463
      vertex 232.152 40.4446 2.23463
    endloop
  endfacet
  facet normal -0.165466 -0.724335 0.669298
    outer loop
      vertex 230.83 98.7462 1.15224
      vertex 231.477 98.5984 1.15224
      vertex 230.589 99.8014 2.23463
    endloop
  endfacet
  facet normal 0.463224 -0.580859 0.669347
    outer loop
      vertex 2.82969 98.7462 1.15224
      vertex 2.58883 99.8014 2.23463
      vertex 2.31043 98.3321 1.15224
    endloop
  endfacet
  facet normal -0.66944 -0.32219 0.669361
    outer loop
      vertex 231.765 98 1.15224
      vertex 232.152 99.4446 2.23463
      vertex 231.477 98.5984 1.15224
    endloop
  endfacet
  facet normal 0 0 1
    outer loop
      vertex 230.83 98.7462 1.15224
      vertex 231.765 98 1.15224
      vertex 231.477 98.5984 1.15224
    endloop
  endfacet
  facet normal 0 0 1
    outer loop
      vertex 231.765 98 1.15224
      vertex 230.83 98.7462 1.15224
      vertex 231.765 44 1.15224
    endloop
  endfacet
  facet normal 0 0 1
    outer loop
      vertex 230.83 43.2538 1.15224
      vertex 231.765 44 1.15224
      vertex 230.83 98.7462 1.15224
    endloop
  endfacet
  facet normal 0 0 1
    outer loop
      vertex 231.765 44 1.15224
      vertex 230.83 43.2538 1.15224
      vertex 231.477 43.4016 1.15224
    endloop
  endfacet
  facet normal -0 0 1
    outer loop
      vertex 2.82969 98.7462 1.15224
      vertex 230.83 43.2538 1.15224
      vertex 230.83 98.7462 1.15224
    endloop
  endfacet
  facet normal 0 0 1
    outer loop
      vertex 2.82969 98.7462 1.15224
      vertex 2.82969 43.2538 1.15224
      vertex 230.83 43.2538 1.15224
    endloop
  endfacet
  facet normal -0 0 1
    outer loop
      vertex 2.31043 98.3321 1.15224
      vertex 2.82969 43.2538 1.15224
      vertex 2.82969 98.7462 1.15224
    endloop
  endfacet
  facet normal 0 0 1
    outer loop
      vertex 2.82969 43.2538 1.15224
      vertex 2.31043 98.3321 1.15224
      vertex 2.31043 43.6679 1.15224
    endloop
  endfacet
  facet normal -0.669162 0.322398 0.669539
    outer loop
      vertex 232.152 42.5554 2.23463
      vertex 232.848 44 2.23463
      vertex 231.765 44 1.15224
    endloop
  endfacet
  facet normal 0.463215 -0.580861 0.669352
    outer loop
      vertex 2.31043 98.3321 1.15224
      vertex 2.58883 99.8014 2.23463
      vertex 1.33523 98.8017 2.23463
    endloop
  endfacet
  facet normal 0 -0.716043 0.698056
    outer loop
      vertex 2.82969 98.7462 1.15224
      vertex 230.589 99.8014 2.23463
      vertex 2.58883 99.8014 2.23463
    endloop
  endfacet
  facet normal 0 -0.716043 0.698056
    outer loop
      vertex 230.589 99.8014 2.23463
      vertex 2.82969 98.7462 1.15224
      vertex 230.83 98.7462 1.15224
    endloop
  endfacet
  facet normal -0 0.716043 0.698056
    outer loop
      vertex 2.82969 43.2538 1.15224
      vertex 230.589 42.1986 2.23463
      vertex 230.83 43.2538 1.15224
    endloop
  endfacet
  facet normal 0 0.716043 0.698056
    outer loop
      vertex 230.589 42.1986 2.23463
      vertex 2.82969 43.2538 1.15224
      vertex 2.58883 42.1986 2.23463
    endloop
  endfacet
  facet normal 0 1 -0
    outer loop
      vertex 230.589 42.1986 2.23463
      vertex 2.58883 42.1986 35
      vertex 230.589 42.1986 35
    endloop
  endfacet
  facet normal 0 1 0
    outer loop
      vertex 2.58883 42.1986 35
      vertex 230.589 42.1986 2.23463
      vertex 2.58883 42.1986 2.23463
    endloop
  endfacet
  facet normal -0.165343 -0.724303 0.669363
    outer loop
      vertex 231.477 98.5984 1.15224
      vertex 232.152 99.4446 2.23463
      vertex 230.589 99.8014 2.23463
    endloop
  endfacet
  facet normal -0.165343 0.724303 0.669363
    outer loop
      vertex 232.152 42.5554 2.23463
      vertex 231.477 43.4016 1.15224
      vertex 230.589 42.1986 2.23463
    endloop
  endfacet
  facet normal -0.900891 0.434044 0
    outer loop
      vertex 232.152 42.5554 2.23463
      vertex 232.848 44 35
      vertex 232.848 44 2.23463
    endloop
  endfacet
  facet normal -0.900891 0.434044 0
    outer loop
      vertex 232.848 44 35
      vertex 232.152 42.5554 2.23463
      vertex 232.152 42.5554 35
    endloop
  endfacet
  facet normal 0.463224 0.580859 0.669347
    outer loop
      vertex 2.58883 42.1986 2.23463
      vertex 2.82969 43.2538 1.15224
      vertex 2.31043 43.6679 1.15224
    endloop
  endfacet
  facet normal 0 -1 0
    outer loop
      vertex 2.58883 99.8014 2.23463
      vertex 230.589 99.8014 35
      vertex 2.58883 99.8014 35
    endloop
  endfacet
  facet normal 0 -1 -0
    outer loop
      vertex 230.589 99.8014 35
      vertex 2.58883 99.8014 2.23463
      vertex 230.589 99.8014 2.23463
    endloop
  endfacet
  facet normal 0.623485 -0.781835 0
    outer loop
      vertex 1.33523 98.8017 2.23463
      vertex 2.58883 99.8014 35
      vertex 1.33523 98.8017 35
    endloop
  endfacet
  facet normal 0.623485 -0.781835 0
    outer loop
      vertex 2.58883 99.8014 35
      vertex 1.33523 98.8017 2.23463
      vertex 2.58883 99.8014 2.23463
    endloop
  endfacet
  facet normal -0.165466 0.724335 0.669298
    outer loop
      vertex 231.477 43.4016 1.15224
      vertex 230.83 43.2538 1.15224
      vertex 230.589 42.1986 2.23463
    endloop
  endfacet
  facet normal 0.742936 0 0.669362
    outer loop
      vertex 1.33523 98.8017 2.23463
      vertex 2.31043 43.6679 1.15224
      vertex 2.31043 98.3321 1.15224
    endloop
  endfacet
  facet normal 0.742936 0 0.669362
    outer loop
      vertex 2.31043 43.6679 1.15224
      vertex 1.33523 98.8017 2.23463
      vertex 1.33523 43.1983 2.23463
    endloop
  endfacet
  facet normal -0.706908 0 0.707306
    outer loop
      vertex 231.765 98 1.15224
      vertex 232.848 44 2.23463
      vertex 232.848 98 2.23463
    endloop
  endfacet
  facet normal -0.706908 0 0.707306
    outer loop
      vertex 232.848 44 2.23463
      vertex 231.765 98 1.15224
      vertex 231.765 44 1.15224
    endloop
  endfacet
  facet normal -0.669162 -0.322398 0.669539
    outer loop
      vertex 232.848 98 2.23463
      vertex 232.152 99.4446 2.23463
      vertex 231.765 98 1.15224
    endloop
  endfacet
  facet normal -0.66944 0.32219 0.669361
    outer loop
      vertex 232.152 42.5554 2.23463
      vertex 231.765 44 1.15224
      vertex 231.477 43.4016 1.15224
    endloop
  endfacet
  facet normal -0.222554 0.97492 0
    outer loop
      vertex 232.152 42.5554 2.23463
      vertex 230.589 42.1986 35
      vertex 232.152 42.5554 35
    endloop
  endfacet
  facet normal -0.222554 0.97492 0
    outer loop
      vertex 230.589 42.1986 35
      vertex 232.152 42.5554 2.23463
      vertex 230.589 42.1986 2.23463
    endloop
  endfacet
  facet normal 0.463215 0.580861 0.669352
    outer loop
      vertex 2.58883 42.1986 2.23463
      vertex 2.31043 43.6679 1.15224
      vertex 1.33523 43.1983 2.23463
    endloop
  endfacet
  facet normal 1 -0 0
    outer loop
      vertex 1.33523 43.1983 35
      vertex 1.33523 98.8017 2.23463
      vertex 1.33523 98.8017 35
    endloop
  endfacet
  facet normal 1 0 0
    outer loop
      vertex 1.33523 98.8017 2.23463
      vertex 1.33523 43.1983 35
      vertex 1.33523 43.1983 2.23463
    endloop
  endfacet
  facet normal 0.623485 0.781835 -0
    outer loop
      vertex 2.58883 42.1986 2.23463
      vertex 1.33523 43.1983 35
      vertex 2.58883 42.1986 35
    endloop
  endfacet
  facet normal 0.623485 0.781835 0
    outer loop
      vertex 1.33523 43.1983 35
      vertex 2.58883 42.1986 2.23463
      vertex 1.33523 43.1983 2.23463
    endloop
  endfacet
  facet normal -0.900891 -0.434044 0
    outer loop
      vertex 232.848 98 2.23463
      vertex 232.152 99.4446 35
      vertex 232.152 99.4446 2.23463
    endloop
  endfacet
  facet normal -0.900891 -0.434044 0
    outer loop
      vertex 232.152 99.4446 35
      vertex 232.848 98 2.23463
      vertex 232.848 98 35
    endloop
  endfacet
  facet normal -0.222554 -0.97492 0
    outer loop
      vertex 230.589 99.8014 2.23463
      vertex 232.152 99.4446 35
      vertex 230.589 99.8014 35
    endloop
  endfacet
  facet normal -0.222554 -0.97492 -0
    outer loop
      vertex 232.152 99.4446 35
      vertex 230.589 99.8014 2.23463
      vertex 232.152 99.4446 2.23463
    endloop
  endfacet
  facet normal -1 0 0
    outer loop
      vertex 232.848 44 2.23463
      vertex 232.848 98 35
      vertex 232.848 98 2.23463
    endloop
  endfacet
  facet normal -1 -0 0
    outer loop
      vertex 232.848 98 35
      vertex 232.848 44 2.23463
      vertex 232.848 44 35
    endloop
  endfacet
endsolid OpenSCAD_Model
