solid OpenSCAD_Model
  facet normal 1 -0 0
    outer loop
      vertex 73 0 25
      vertex 73 98 0
      vertex 73 98 25
    endloop
  endfacet
  facet normal 1 0 0
    outer loop
      vertex 73 98 0
      vertex 73 0 25
      vertex 73 0 0
    endloop
  endfacet
  facet normal 0 0 1
    outer loop
      vertex 73 98 25
      vertex 72 97 25
      vertex 73 0 25
    endloop
  endfacet
  facet normal -0 0 1
    outer loop
      vertex 7.50555 98 25
      vertex 72 97 25
      vertex 73 98 25
    endloop
  endfacet
  facet normal 0 0 1
    outer loop
      vertex 72 97 25
      vertex 7.50555 98 25
      vertex 7.50555 97 25
    endloop
  endfacet
  facet normal -0 0 1
    outer loop
      vertex 72 1 25
      vertex 73 0 25
      vertex 72 97 25
    endloop
  endfacet
  facet normal 0 0 1
    outer loop
      vertex 7.50555 0 25
      vertex 72 1 25
      vertex 7.50555 1 25
    endloop
  endfacet
  facet normal 0 0 1
    outer loop
      vertex 72 1 25
      vertex 7.50555 0 25
      vertex 73 0 25
    endloop
  endfacet
  facet normal 0 0 -1
    outer loop
      vertex 73 0 0
      vertex 70 3 0
      vertex 73 98 0
    endloop
  endfacet
  facet normal 0 0 -1
    outer loop
      vertex 73 0 0
      vertex 3 3 0
      vertex 70 3 0
    endloop
  endfacet
  facet normal -0 0 -1
    outer loop
      vertex 3 3 0
      vertex 0 0 0
      vertex 3 95 0
    endloop
  endfacet
  facet normal 0 0 -1
    outer loop
      vertex 0 0 0
      vertex 3 3 0
      vertex 73 0 0
    endloop
  endfacet
  facet normal 0 0 -1
    outer loop
      vertex 70 95 0
      vertex 73 98 0
      vertex 70 3 0
    endloop
  endfacet
  facet normal 0 0 -1
    outer loop
      vertex 3 95 0
      vertex 73 98 0
      vertex 70 95 0
    endloop
  endfacet
  facet normal 0 0 -1
    outer loop
      vertex 3 95 0
      vertex 0 98 0
      vertex 73 98 0
    endloop
  endfacet
  facet normal 0 0 -1
    outer loop
      vertex 0 98 0
      vertex 3 95 0
      vertex 0 0 0
    endloop
  endfacet
  facet normal -1 0 0
    outer loop
      vertex 0 59.7226 24.0185
      vertex 0 98 38
      vertex 0 98 0
    endloop
  endfacet
  facet normal -1 0 0
    outer loop
      vertex 0 98 38
      vertex 0 59.7226 24.0185
      vertex 0 59.8759 25
    endloop
  endfacet
  facet normal -1 0 0
    outer loop
      vertex 0 98 0
      vertex 0 59.3197 21.4395
      vertex 0 59.7226 24.0185
    endloop
  endfacet
  facet normal -1 0 0
    outer loop
      vertex 0 98 0
      vertex 0 58.5359 19.8164
      vertex 0 59.3197 21.4395
    endloop
  endfacet
  facet normal -1 0 0
    outer loop
      vertex 0 98 0
      vertex 0 57.7739 18.6373
      vertex 0 58.5359 19.8164
    endloop
  endfacet
  facet normal -1 0 0
    outer loop
      vertex 0 98 0
      vertex 0 57.3844 18.0346
      vertex 0 57.7739 18.6373
    endloop
  endfacet
  facet normal -1 0 0
    outer loop
      vertex 0 98 0
      vertex 0 54.8436 15.8222
      vertex 0 57.3844 18.0346
    endloop
  endfacet
  facet normal -1 0 0
    outer loop
      vertex 0 98 0
      vertex 0 54.2134 15.483
      vertex 0 54.8436 15.8222
    endloop
  endfacet
  facet normal -1 0 0
    outer loop
      vertex 0 98 0
      vertex 0 53.1936 14.9342
      vertex 0 54.2134 15.483
    endloop
  endfacet
  facet normal -1 0 0
    outer loop
      vertex 0 98 0
      vertex 0 51.7898 14.4497
      vertex 0 53.1936 14.9342
    endloop
  endfacet
  facet normal -1 0 0
    outer loop
      vertex 0 98 0
      vertex 0 49.6568 14.2007
      vertex 0 51.7898 14.4497
    endloop
  endfacet
  facet normal -1 0 0
    outer loop
      vertex 0 98 0
      vertex 0 49 14.1241
      vertex 0 49.6568 14.2007
    endloop
  endfacet
  facet normal -1 0 0
    outer loop
      vertex 0 0 0
      vertex 0 49 14.1241
      vertex 0 98 0
    endloop
  endfacet
  facet normal -1 -0 0
    outer loop
      vertex 0 49 14.1241
      vertex 0 0 0
      vertex 0 48.3432 14.2007
    endloop
  endfacet
  facet normal -1 0 0
    outer loop
      vertex 0 0 0
      vertex 0 40.2261 18.6373
      vertex 0 40.6156 18.0346
    endloop
  endfacet
  facet normal -1 0 0
    outer loop
      vertex 0 0 38
      vertex 0 38.2774 24.0185
      vertex 0 38.6803 21.4395
    endloop
  endfacet
  facet normal -1 0 0
    outer loop
      vertex 0 0 38
      vertex 0 38.6803 21.4395
      vertex 0 0 0
    endloop
  endfacet
  facet normal -1 -0 0
    outer loop
      vertex 0 39.4641 19.8164
      vertex 0 0 0
      vertex 0 38.6803 21.4395
    endloop
  endfacet
  facet normal -1 -0 0
    outer loop
      vertex 0 40.2261 18.6373
      vertex 0 0 0
      vertex 0 39.4641 19.8164
    endloop
  endfacet
  facet normal -1 -0 0
    outer loop
      vertex 0 43.1564 15.8222
      vertex 0 0 0
      vertex 0 40.6156 18.0346
    endloop
  endfacet
  facet normal -1 -0 0
    outer loop
      vertex 0 43.7866 15.483
      vertex 0 0 0
      vertex 0 43.1564 15.8222
    endloop
  endfacet
  facet normal -1 -0 0
    outer loop
      vertex 0 44.8064 14.9342
      vertex 0 0 0
      vertex 0 43.7866 15.483
    endloop
  endfacet
  facet normal -1 -0 0
    outer loop
      vertex 0 46.2102 14.4497
      vertex 0 0 0
      vertex 0 44.8064 14.9342
    endloop
  endfacet
  facet normal -1 -0 0
    outer loop
      vertex 0 48.3432 14.2007
      vertex 0 0 0
      vertex 0 46.2102 14.4497
    endloop
  endfacet
  facet normal -1 0 0
    outer loop
      vertex 0 59.7226 25.9815
      vertex 0 98 38
      vertex 0 59.8759 25
    endloop
  endfacet
  facet normal -1 0 0
    outer loop
      vertex 0 59.3197 28.5605
      vertex 0 98 38
      vertex 0 59.7226 25.9815
    endloop
  endfacet
  facet normal -1 0 0
    outer loop
      vertex 0 58.5359 30.1836
      vertex 0 98 38
      vertex 0 59.3197 28.5605
    endloop
  endfacet
  facet normal -1 0 0
    outer loop
      vertex 0 57.7739 31.3627
      vertex 0 98 38
      vertex 0 58.5359 30.1836
    endloop
  endfacet
  facet normal -1 0 0
    outer loop
      vertex 0 57.3844 31.9654
      vertex 0 98 38
      vertex 0 57.7739 31.3627
    endloop
  endfacet
  facet normal -1 0 0
    outer loop
      vertex 0 54.8436 34.1778
      vertex 0 98 38
      vertex 0 57.3844 31.9654
    endloop
  endfacet
  facet normal -1 0 0
    outer loop
      vertex 0 54.2134 34.517
      vertex 0 98 38
      vertex 0 54.8436 34.1778
    endloop
  endfacet
  facet normal -1 0 0
    outer loop
      vertex 0 53.1936 35.0658
      vertex 0 98 38
      vertex 0 54.2134 34.517
    endloop
  endfacet
  facet normal -1 0 0
    outer loop
      vertex 0 51.7898 35.5503
      vertex 0 98 38
      vertex 0 53.1936 35.0658
    endloop
  endfacet
  facet normal -1 0 0
    outer loop
      vertex 0 49.6568 35.7993
      vertex 0 98 38
      vertex 0 51.7898 35.5503
    endloop
  endfacet
  facet normal -1 0 0
    outer loop
      vertex 0 49 35.8759
      vertex 0 98 38
      vertex 0 49.6568 35.7993
    endloop
  endfacet
  facet normal -1 0 0
    outer loop
      vertex 0 0 38
      vertex 0 38.2774 25.9815
      vertex 0 38.1241 25
    endloop
  endfacet
  facet normal -1 0 0
    outer loop
      vertex 0 38.2774 24.0185
      vertex 0 0 38
      vertex 0 38.1241 25
    endloop
  endfacet
  facet normal -1 0 0
    outer loop
      vertex 0 38.2774 25.9815
      vertex 0 0 38
      vertex 0 38.6803 28.5605
    endloop
  endfacet
  facet normal -1 0 0
    outer loop
      vertex 0 38.6803 28.5605
      vertex 0 0 38
      vertex 0 39.4641 30.1836
    endloop
  endfacet
  facet normal -1 0 0
    outer loop
      vertex 0 39.4641 30.1836
      vertex 0 0 38
      vertex 0 40.2261 31.3627
    endloop
  endfacet
  facet normal -1 0 0
    outer loop
      vertex 0 40.2261 31.3627
      vertex 0 0 38
      vertex 0 40.6156 31.9654
    endloop
  endfacet
  facet normal -1 0 0
    outer loop
      vertex 0 49 35.8759
      vertex 0 0 38
      vertex 0 98 38
    endloop
  endfacet
  facet normal -1 0 0
    outer loop
      vertex 0 48.3432 35.7993
      vertex 0 0 38
      vertex 0 49 35.8759
    endloop
  endfacet
  facet normal -1 0 0
    outer loop
      vertex 0 46.2102 35.5503
      vertex 0 0 38
      vertex 0 48.3432 35.7993
    endloop
  endfacet
  facet normal -1 0 0
    outer loop
      vertex 0 44.8064 35.0658
      vertex 0 0 38
      vertex 0 46.2102 35.5503
    endloop
  endfacet
  facet normal -1 0 0
    outer loop
      vertex 0 43.7866 34.517
      vertex 0 0 38
      vertex 0 44.8064 35.0658
    endloop
  endfacet
  facet normal -1 0 0
    outer loop
      vertex 0 43.1564 34.1778
      vertex 0 0 38
      vertex 0 43.7866 34.517
    endloop
  endfacet
  facet normal -1 0 0
    outer loop
      vertex 0 40.6156 31.9654
      vertex 0 0 38
      vertex 0 43.1564 34.1778
    endloop
  endfacet
  facet normal 0 1 0
    outer loop
      vertex 73 98 25
      vertex 73 98 0
      vertex 7.50555 98 25
    endloop
  endfacet
  facet normal 0 1 0
    outer loop
      vertex 7.50555 98 27
      vertex 0 98 38
      vertex 1 98 38
    endloop
  endfacet
  facet normal 0 1 -0
    outer loop
      vertex 7.50555 98 25
      vertex 0 98 38
      vertex 7.50555 98 27
    endloop
  endfacet
  facet normal 0 1 0
    outer loop
      vertex 7.50555 98 25
      vertex 0 98 0
      vertex 0 98 38
    endloop
  endfacet
  facet normal 0 1 0
    outer loop
      vertex 0 98 0
      vertex 7.50555 98 25
      vertex 73 98 0
    endloop
  endfacet
  facet normal 0 -1 0
    outer loop
      vertex 0 0 38
      vertex 7.50555 0 27
      vertex 1 0 38
    endloop
  endfacet
  facet normal 0 -1 0
    outer loop
      vertex 0 0 38
      vertex 7.50555 0 25
      vertex 7.50555 0 27
    endloop
  endfacet
  facet normal 0 -1 0
    outer loop
      vertex 0 0 0
      vertex 7.50555 0 25
      vertex 0 0 38
    endloop
  endfacet
  facet normal 0 -1 0
    outer loop
      vertex 73 0 0
      vertex 7.50555 0 25
      vertex 0 0 0
    endloop
  endfacet
  facet normal 0 -1 0
    outer loop
      vertex 7.50555 0 25
      vertex 73 0 0
      vertex 73 0 25
    endloop
  endfacet
  facet normal -1 0 0
    outer loop
      vertex 72 1 4
      vertex 72 97 25
      vertex 72 97 4
    endloop
  endfacet
  facet normal -1 -0 0
    outer loop
      vertex 72 97 25
      vertex 72 1 4
      vertex 72 1 25
    endloop
  endfacet
  facet normal -0 0 1
    outer loop
      vertex 2.04089 97 4
      vertex 72 1 4
      vertex 72 97 4
    endloop
  endfacet
  facet normal 0 0 1
    outer loop
      vertex 72 1 4
      vertex 2.04089 97 4
      vertex 2.04089 1 4
    endloop
  endfacet
  facet normal 0 -1 0
    outer loop
      vertex 72 97 4
      vertex 7.50555 97 25
      vertex 2.04089 97 4
    endloop
  endfacet
  facet normal 0 -1 0
    outer loop
      vertex 7.50555 97 25
      vertex 72 97 4
      vertex 72 97 25
    endloop
  endfacet
  facet normal 0 1 -0
    outer loop
      vertex 72 1 4
      vertex 7.50555 1 25
      vertex 72 1 25
    endloop
  endfacet
  facet normal 0 1 0
    outer loop
      vertex 7.50555 1 25
      vertex 72 1 4
      vertex 2.04089 1 4
    endloop
  endfacet
  facet normal -1 0 0
    outer loop
      vertex 70 3 0
      vertex 70 95 3
      vertex 70 95 0
    endloop
  endfacet
  facet normal -1 -0 0
    outer loop
      vertex 70 95 3
      vertex 70 3 0
      vertex 70 3 3
    endloop
  endfacet
  facet normal 0 0 -1
    outer loop
      vertex 3 3 3
      vertex 70 95 3
      vertex 70 3 3
    endloop
  endfacet
  facet normal -0 0 -1
    outer loop
      vertex 70 95 3
      vertex 3 3 3
      vertex 3 95 3
    endloop
  endfacet
  facet normal 1 -0 0
    outer loop
      vertex 3 3 3
      vertex 3 95 0
      vertex 3 95 3
    endloop
  endfacet
  facet normal 1 0 0
    outer loop
      vertex 3 95 0
      vertex 3 3 3
      vertex 3 3 0
    endloop
  endfacet
  facet normal 0 -1 0
    outer loop
      vertex 3 95 0
      vertex 70 95 3
      vertex 3 95 3
    endloop
  endfacet
  facet normal 0 -1 -0
    outer loop
      vertex 70 95 3
      vertex 3 95 0
      vertex 70 95 0
    endloop
  endfacet
  facet normal 0 1 -0
    outer loop
      vertex 70 3 0
      vertex 3 3 3
      vertex 70 3 3
    endloop
  endfacet
  facet normal 0 1 0
    outer loop
      vertex 3 3 3
      vertex 70 3 0
      vertex 3 3 0
    endloop
  endfacet
  facet normal -0 0 1
    outer loop
      vertex 0 98 38
      vertex 1 0 38
      vertex 1 98 38
    endloop
  endfacet
  facet normal 0 0 1
    outer loop
      vertex 1 0 38
      vertex 0 98 38
      vertex 0 0 38
    endloop
  endfacet
  facet normal 1 0 0
    outer loop
      vertex 7.50555 98 27
      vertex 7.50555 97 25
      vertex 7.50555 98 25
    endloop
  endfacet
  facet normal 1 0 0
    outer loop
      vertex 7.50555 98 27
      vertex 7.50555 1 25
      vertex 7.50555 97 25
    endloop
  endfacet
  facet normal 1 -0 0
    outer loop
      vertex 7.50555 0 27
      vertex 7.50555 1 25
      vertex 7.50555 98 27
    endloop
  endfacet
  facet normal 1 0 0
    outer loop
      vertex 7.50555 1 25
      vertex 7.50555 0 27
      vertex 7.50555 0 25
    endloop
  endfacet
  facet normal 0.860736 -0 0.509051
    outer loop
      vertex 1 0 38
      vertex 7.50555 98 27
      vertex 1 98 38
    endloop
  endfacet
  facet normal 0.860736 0 0.509051
    outer loop
      vertex 7.50555 98 27
      vertex 1 0 38
      vertex 7.50555 0 27
    endloop
  endfacet
  facet normal 0.96777 0 -0.251835
    outer loop
      vertex 7.50555 1 25
      vertex 2.04089 97 4
      vertex 7.50555 97 25
    endloop
  endfacet
  facet normal 0.96777 0 -0.251835
    outer loop
      vertex 2.04089 97 4
      vertex 7.50555 1 25
      vertex 2.04089 1 4
    endloop
  endfacet
  facet normal -0.824074 -0.475775 0.307474
    outer loop
      vertex 1.16693 55.3632 18.0346
      vertex 0 57.7739 18.6373
      vertex 0 57.3844 18.0346
    endloop
  endfacet
  facet normal -0.824069 -0.475776 0.307486
    outer loop
      vertex 0 57.7739 18.6373
      vertex 1.16693 55.3632 18.0346
      vertex 2.1776 55.8132 21.4395
    endloop
  endfacet
  facet normal -0.862455 -0.0906478 -0.49795
    outer loop
      vertex 2.1776 52.2527 31.9654
      vertex 0.729416 49 35.0658
      vertex 0.426663 51.8805 35.0658
    endloop
  endfacet
  facet normal -0.904982 -0.294048 -0.30748
    outer loop
      vertex 3.25973 52.4827 28.5605
      vertex 2.1776 52.2527 31.9654
      vertex 1.16693 55.3632 31.9654
    endloop
  endfacet
  facet normal -0.739077 -0.665548 0.103974
    outer loop
      vertex 0.426663 58.8459 21.4395
      vertex 0 59.7226 24.0185
      vertex 0 59.3197 21.4395
    endloop
  endfacet
  facet normal -0.739123 -0.665501 0.10395
    outer loop
      vertex 0 59.7226 24.0185
      vertex 0.426663 58.8459 21.4395
      vertex 0.729416 59.0658 25
    endloop
  endfacet
  facet normal -0.824074 0.475775 0.307474
    outer loop
      vertex 0 40.2261 18.6373
      vertex 1.16693 42.6368 18.0346
      vertex 0 40.6156 18.0346
    endloop
  endfacet
  facet normal -0.824069 0.475776 0.307486
    outer loop
      vertex 1.16693 42.6368 18.0346
      vertex 0 40.2261 18.6373
      vertex 2.1776 42.1868 21.4395
    endloop
  endfacet
  facet normal -0.861329 0.497299 -0.103953
    outer loop
      vertex 2.51947 42.0346 25
      vertex 0.729416 38.9342 25
      vertex 0.426663 39.1541 28.5605
    endloop
  endfacet
  facet normal -0.945904 -0.30734 0.103963
    outer loop
      vertex 3.25973 52.4827 21.4395
      vertex 3.62578 52.5605 25
      vertex 2.51947 55.9654 25
    endloop
  endfacet
  facet normal -0.739077 0.665548 0.103974
    outer loop
      vertex 0 38.2774 24.0185
      vertex 0.426663 39.1541 21.4395
      vertex 0 38.6803 21.4395
    endloop
  endfacet
  facet normal -0.739123 0.665501 0.10395
    outer loop
      vertex 0.426663 39.1541 21.4395
      vertex 0 38.2774 24.0185
      vertex 0.729416 38.9342 25
    endloop
  endfacet
  facet normal -0.740927 -0.0778701 -0.667056
    outer loop
      vertex 0.426663 51.8805 35.0658
      vertex 0 49.6568 35.7993
      vertex 0 51.7898 35.5503
    endloop
  endfacet
  facet normal -0.74092 -0.0778739 -0.667064
    outer loop
      vertex 0 49.6568 35.7993
      vertex 0.426663 51.8805 35.0658
      vertex 0.729416 49 35.0658
    endloop
  endfacet
  facet normal -0.740927 -0.0778701 0.667056
    outer loop
      vertex 0 49.6568 14.2007
      vertex 0.426663 51.8805 14.9342
      vertex 0 51.7898 14.4497
    endloop
  endfacet
  facet normal -0.74092 -0.0778739 0.667064
    outer loop
      vertex 0.426663 51.8805 14.9342
      vertex 0 49.6568 14.2007
      vertex 0.729416 49 14.9342
    endloop
  endfacet
  facet normal -0.946341 0.0994654 0.307482
    outer loop
      vertex 3.25973 45.5173 21.4395
      vertex 3.62578 49 21.4395
      vertex 2.51947 49 18.0346
    endloop
  endfacet
  facet normal -0.708541 0.230225 0.667058
    outer loop
      vertex 0.426663 46.1195 14.9342
      vertex 0 46.2102 14.4497
      vertex 0 44.8064 14.9342
    endloop
  endfacet
  facet normal -0.946342 -0.0994638 0.307481
    outer loop
      vertex 2.51947 49 18.0346
      vertex 3.25973 52.4827 21.4395
      vertex 2.1776 52.2527 18.0346
    endloop
  endfacet
  facet normal -0.945904 0.30734 0.103963
    outer loop
      vertex 3.62578 45.4395 25
      vertex 3.25973 45.5173 21.4395
      vertex 2.51947 42.0346 25
    endloop
  endfacet
  facet normal -0.824069 -0.475776 -0.307486
    outer loop
      vertex 1.16693 55.3632 31.9654
      vertex 0 57.7739 31.3627
      vertex 2.1776 55.8132 28.5605
    endloop
  endfacet
  facet normal -0.824074 -0.475775 -0.307474
    outer loop
      vertex 0 57.7739 31.3627
      vertex 1.16693 55.3632 31.9654
      vertex 0 57.3844 31.9654
    endloop
  endfacet
  facet normal -0.904982 -0.294048 0.30748
    outer loop
      vertex 2.1776 52.2527 18.0346
      vertex 3.25973 52.4827 21.4395
      vertex 1.16693 55.3632 18.0346
    endloop
  endfacet
  facet normal -0.824759 0.267987 0.497951
    outer loop
      vertex 0 44.8064 14.9342
      vertex 2.1776 45.7473 18.0346
      vertex 0.426663 46.1195 14.9342
    endloop
  endfacet
  facet normal -0.824761 0.267973 0.497956
    outer loop
      vertex 2.1776 45.7473 18.0346
      vertex 0 44.8064 14.9342
      vertex 0 43.7866 15.483
    endloop
  endfacet
  facet normal -0.740893 -0.0778014 0.667102
    outer loop
      vertex 0.729416 49 14.9342
      vertex 0 49.6568 14.2007
      vertex 0 49 14.1241
    endloop
  endfacet
  facet normal -0.904982 -0.294042 0.307485
    outer loop
      vertex 3.25973 52.4827 21.4395
      vertex 2.1776 55.8132 21.4395
      vertex 1.16693 55.3632 18.0346
    endloop
  endfacet
  facet normal -0.989133 0.103963 -0.103961
    outer loop
      vertex 3.62578 49 28.5605
      vertex 4 49 25
      vertex 3.25973 45.5173 28.5605
    endloop
  endfacet
  facet normal -0.989133 -0.103961 -0.103963
    outer loop
      vertex 3.62578 52.5605 25
      vertex 4 49 25
      vertex 3.25973 52.4827 28.5605
    endloop
  endfacet
  facet normal -0.824066 -0.475777 -0.307491
    outer loop
      vertex 2.1776 55.8132 28.5605
      vertex 0 58.5359 30.1836
      vertex 0.426663 58.8459 28.5605
    endloop
  endfacet
  facet normal -0.824067 -0.475785 -0.307479
    outer loop
      vertex 0 58.5359 30.1836
      vertex 2.1776 55.8132 28.5605
      vertex 0 57.7739 31.3627
    endloop
  endfacet
  facet normal -0.946342 0.0994638 -0.307481
    outer loop
      vertex 2.51947 49 31.9654
      vertex 3.25973 45.5173 28.5605
      vertex 2.1776 45.7473 31.9654
    endloop
  endfacet
  facet normal -0.824764 0.268008 -0.497932
    outer loop
      vertex 2.1776 45.7473 31.9654
      vertex 0 43.1564 34.1778
      vertex 0 43.7866 34.517
    endloop
  endfacet
  facet normal -0.824758 0.267982 -0.497956
    outer loop
      vertex 0 43.1564 34.1778
      vertex 2.1776 45.7473 31.9654
      vertex 1.16693 42.6368 31.9654
    endloop
  endfacet
  facet normal -0.751019 0.433597 0.497959
    outer loop
      vertex 1.16693 42.6368 18.0346
      vertex 0 43.1564 15.8222
      vertex 0 40.6156 18.0346
    endloop
  endfacet
  facet normal -0.73912 -0.665505 -0.103945
    outer loop
      vertex 0 59.8759 25
      vertex 0.729416 59.0658 25
      vertex 0 59.7226 25.9815
    endloop
  endfacet
  facet normal -0.707102 -0.636754 -0.307491
    outer loop
      vertex 0 59.3197 28.5605
      vertex 0.426663 58.8459 28.5605
      vertex 0 58.5359 30.1836
    endloop
  endfacet
  facet normal -0.862456 0.0906471 -0.497949
    outer loop
      vertex 2.51947 49 31.9654
      vertex 2.1776 45.7473 31.9654
      vertex 0.729416 49 35.0658
    endloop
  endfacet
  facet normal -0.73912 0.665505 0.103945
    outer loop
      vertex 0.729416 38.9342 25
      vertex 0 38.2774 24.0185
      vertex 0 38.1241 25
    endloop
  endfacet
  facet normal -0.73912 0.665505 -0.103945
    outer loop
      vertex 0 38.2774 25.9815
      vertex 0.729416 38.9342 25
      vertex 0 38.1241 25
    endloop
  endfacet
  facet normal -0.861329 -0.497299 0.103953
    outer loop
      vertex 2.51947 55.9654 25
      vertex 0.729416 59.0658 25
      vertex 0.426663 58.8459 21.4395
    endloop
  endfacet
  facet normal -0.945904 -0.307339 0.103961
    outer loop
      vertex 3.25973 52.4827 21.4395
      vertex 2.51947 55.9654 25
      vertex 2.1776 55.8132 21.4395
    endloop
  endfacet
  facet normal -0.824761 -0.267973 0.497956
    outer loop
      vertex 0 53.1936 14.9342
      vertex 2.1776 52.2527 18.0346
      vertex 0 54.2134 15.483
    endloop
  endfacet
  facet normal -0.824759 -0.267987 0.497951
    outer loop
      vertex 2.1776 52.2527 18.0346
      vertex 0 53.1936 14.9342
      vertex 0.426663 51.8805 14.9342
    endloop
  endfacet
  facet normal -0.862455 -0.0906478 0.49795
    outer loop
      vertex 0.729416 49 14.9342
      vertex 2.1776 52.2527 18.0346
      vertex 0.426663 51.8805 14.9342
    endloop
  endfacet
  facet normal -0.824758 -0.267982 -0.497956
    outer loop
      vertex 2.1776 52.2527 31.9654
      vertex 0 54.8436 34.1778
      vertex 1.16693 55.3632 31.9654
    endloop
  endfacet
  facet normal -0.824764 -0.268008 -0.497932
    outer loop
      vertex 0 54.8436 34.1778
      vertex 2.1776 52.2527 31.9654
      vertex 0 54.2134 34.517
    endloop
  endfacet
  facet normal -0.989133 -0.103963 -0.103961
    outer loop
      vertex 4 49 25
      vertex 3.62578 49 28.5605
      vertex 3.25973 52.4827 28.5605
    endloop
  endfacet
  facet normal -0.945904 0.307339 -0.103961
    outer loop
      vertex 3.25973 45.5173 28.5605
      vertex 2.51947 42.0346 25
      vertex 2.1776 42.1868 28.5605
    endloop
  endfacet
  facet normal -0.904982 0.294048 -0.30748
    outer loop
      vertex 2.1776 45.7473 31.9654
      vertex 3.25973 45.5173 28.5605
      vertex 1.16693 42.6368 31.9654
    endloop
  endfacet
  facet normal -0.989133 0.103963 0.103961
    outer loop
      vertex 4 49 25
      vertex 3.62578 49 21.4395
      vertex 3.25973 45.5173 21.4395
    endloop
  endfacet
  facet normal -0.989133 -0.103961 0.103963
    outer loop
      vertex 4 49 25
      vertex 3.62578 52.5605 25
      vertex 3.25973 52.4827 21.4395
    endloop
  endfacet
  facet normal -0.708541 0.230225 -0.667058
    outer loop
      vertex 0 46.2102 35.5503
      vertex 0.426663 46.1195 35.0658
      vertex 0 44.8064 35.0658
    endloop
  endfacet
  facet normal -0.946341 0.0994654 -0.307482
    outer loop
      vertex 3.62578 49 28.5605
      vertex 3.25973 45.5173 28.5605
      vertex 2.51947 49 31.9654
    endloop
  endfacet
  facet normal -0.946341 -0.0994654 -0.307482
    outer loop
      vertex 3.25973 52.4827 28.5605
      vertex 3.62578 49 28.5605
      vertex 2.51947 49 31.9654
    endloop
  endfacet
  facet normal -0.862456 -0.0906471 0.497949
    outer loop
      vertex 2.51947 49 18.0346
      vertex 2.1776 52.2527 18.0346
      vertex 0.729416 49 14.9342
    endloop
  endfacet
  facet normal -0.861329 0.497299 0.103953
    outer loop
      vertex 0.729416 38.9342 25
      vertex 2.51947 42.0346 25
      vertex 0.426663 39.1541 21.4395
    endloop
  endfacet
  facet normal -0.946342 0.0994638 0.307481
    outer loop
      vertex 3.25973 45.5173 21.4395
      vertex 2.51947 49 18.0346
      vertex 2.1776 45.7473 18.0346
    endloop
  endfacet
  facet normal -0.862456 0.0906471 0.497949
    outer loop
      vertex 2.1776 45.7473 18.0346
      vertex 2.51947 49 18.0346
      vertex 0.729416 49 14.9342
    endloop
  endfacet
  facet normal -0.904982 0.294042 0.307485
    outer loop
      vertex 2.1776 42.1868 21.4395
      vertex 3.25973 45.5173 21.4395
      vertex 1.16693 42.6368 18.0346
    endloop
  endfacet
  facet normal -0.707102 0.636754 0.307491
    outer loop
      vertex 0.426663 39.1541 21.4395
      vertex 0 39.4641 19.8164
      vertex 0 38.6803 21.4395
    endloop
  endfacet
  facet normal -0.751019 -0.433597 -0.497959
    outer loop
      vertex 0 57.3844 31.9654
      vertex 1.16693 55.3632 31.9654
      vertex 0 54.8436 34.1778
    endloop
  endfacet
  facet normal -0.861332 -0.497292 -0.103961
    outer loop
      vertex 2.51947 55.9654 25
      vertex 2.1776 55.8132 28.5605
      vertex 0.426663 58.8459 28.5605
    endloop
  endfacet
  facet normal -0.945904 -0.30734 -0.103963
    outer loop
      vertex 3.62578 52.5605 25
      vertex 3.25973 52.4827 28.5605
      vertex 2.51947 55.9654 25
    endloop
  endfacet
  facet normal -0.824764 -0.268008 0.497932
    outer loop
      vertex 2.1776 52.2527 18.0346
      vertex 0 54.8436 15.8222
      vertex 0 54.2134 15.483
    endloop
  endfacet
  facet normal -0.824758 -0.267982 0.497956
    outer loop
      vertex 0 54.8436 15.8222
      vertex 2.1776 52.2527 18.0346
      vertex 1.16693 55.3632 18.0346
    endloop
  endfacet
  facet normal -0.707102 -0.636754 0.307491
    outer loop
      vertex 0.426663 58.8459 21.4395
      vertex 0 59.3197 21.4395
      vertex 0 58.5359 19.8164
    endloop
  endfacet
  facet normal -0.73912 -0.665505 0.103945
    outer loop
      vertex 0.729416 59.0658 25
      vertex 0 59.8759 25
      vertex 0 59.7226 24.0185
    endloop
  endfacet
  facet normal -0.824067 -0.475785 0.307479
    outer loop
      vertex 2.1776 55.8132 21.4395
      vertex 0 58.5359 19.8164
      vertex 0 57.7739 18.6373
    endloop
  endfacet
  facet normal -0.824066 -0.475777 0.307491
    outer loop
      vertex 0 58.5359 19.8164
      vertex 2.1776 55.8132 21.4395
      vertex 0.426663 58.8459 21.4395
    endloop
  endfacet
  facet normal -0.708541 -0.230225 0.667058
    outer loop
      vertex 0.426663 51.8805 14.9342
      vertex 0 53.1936 14.9342
      vertex 0 51.7898 14.4497
    endloop
  endfacet
  facet normal -0.739123 0.665501 -0.10395
    outer loop
      vertex 0 38.2774 25.9815
      vertex 0.426663 39.1541 28.5605
      vertex 0.729416 38.9342 25
    endloop
  endfacet
  facet normal -0.739077 0.665548 -0.103974
    outer loop
      vertex 0.426663 39.1541 28.5605
      vertex 0 38.2774 25.9815
      vertex 0 38.6803 28.5605
    endloop
  endfacet
  facet normal -0.945904 0.307339 0.103961
    outer loop
      vertex 2.51947 42.0346 25
      vertex 3.25973 45.5173 21.4395
      vertex 2.1776 42.1868 21.4395
    endloop
  endfacet
  facet normal -0.946341 -0.0994654 0.307482
    outer loop
      vertex 3.62578 49 21.4395
      vertex 3.25973 52.4827 21.4395
      vertex 2.51947 49 18.0346
    endloop
  endfacet
  facet normal -0.989133 -0.103963 0.103961
    outer loop
      vertex 3.62578 49 21.4395
      vertex 4 49 25
      vertex 3.25973 52.4827 21.4395
    endloop
  endfacet
  facet normal -0.751019 0.433597 -0.497959
    outer loop
      vertex 0 43.1564 34.1778
      vertex 1.16693 42.6368 31.9654
      vertex 0 40.6156 31.9654
    endloop
  endfacet
  facet normal -0.862456 -0.0906471 -0.497949
    outer loop
      vertex 2.1776 52.2527 31.9654
      vertex 2.51947 49 31.9654
      vertex 0.729416 49 35.0658
    endloop
  endfacet
  facet normal -0.946342 -0.0994638 -0.307481
    outer loop
      vertex 3.25973 52.4827 28.5605
      vertex 2.51947 49 31.9654
      vertex 2.1776 52.2527 31.9654
    endloop
  endfacet
  facet normal -0.904982 0.294048 0.30748
    outer loop
      vertex 3.25973 45.5173 21.4395
      vertex 2.1776 45.7473 18.0346
      vertex 1.16693 42.6368 18.0346
    endloop
  endfacet
  facet normal -0.824764 0.268008 0.497932
    outer loop
      vertex 0 43.1564 15.8222
      vertex 2.1776 45.7473 18.0346
      vertex 0 43.7866 15.483
    endloop
  endfacet
  facet normal -0.824758 0.267982 0.497956
    outer loop
      vertex 2.1776 45.7473 18.0346
      vertex 0 43.1564 15.8222
      vertex 1.16693 42.6368 18.0346
    endloop
  endfacet
  facet normal -0.989133 0.103961 0.103963
    outer loop
      vertex 3.62578 45.4395 25
      vertex 4 49 25
      vertex 3.25973 45.5173 21.4395
    endloop
  endfacet
  facet normal -0.861332 0.497292 -0.103961
    outer loop
      vertex 2.1776 42.1868 28.5605
      vertex 2.51947 42.0346 25
      vertex 0.426663 39.1541 28.5605
    endloop
  endfacet
  facet normal -0.740893 0.0778014 -0.667102
    outer loop
      vertex 0 49 35.8759
      vertex 0.729416 49 35.0658
      vertex 0 48.3432 35.7993
    endloop
  endfacet
  facet normal -0.740893 -0.0778014 -0.667102
    outer loop
      vertex 0 49.6568 35.7993
      vertex 0.729416 49 35.0658
      vertex 0 49 35.8759
    endloop
  endfacet
  facet normal -0.861332 -0.497292 0.103961
    outer loop
      vertex 2.1776 55.8132 21.4395
      vertex 2.51947 55.9654 25
      vertex 0.426663 58.8459 21.4395
    endloop
  endfacet
  facet normal -0.739123 -0.665501 -0.10395
    outer loop
      vertex 0.426663 58.8459 28.5605
      vertex 0 59.7226 25.9815
      vertex 0.729416 59.0658 25
    endloop
  endfacet
  facet normal -0.739077 -0.665548 -0.103974
    outer loop
      vertex 0 59.7226 25.9815
      vertex 0.426663 58.8459 28.5605
      vertex 0 59.3197 28.5605
    endloop
  endfacet
  facet normal -0.861329 -0.497299 -0.103953
    outer loop
      vertex 0.729416 59.0658 25
      vertex 2.51947 55.9654 25
      vertex 0.426663 58.8459 28.5605
    endloop
  endfacet
  facet normal -0.904982 -0.294042 -0.307485
    outer loop
      vertex 2.1776 55.8132 28.5605
      vertex 3.25973 52.4827 28.5605
      vertex 1.16693 55.3632 31.9654
    endloop
  endfacet
  facet normal -0.945904 -0.307339 -0.103961
    outer loop
      vertex 2.51947 55.9654 25
      vertex 3.25973 52.4827 28.5605
      vertex 2.1776 55.8132 28.5605
    endloop
  endfacet
  facet normal -0.751019 -0.433597 0.497959
    outer loop
      vertex 1.16693 55.3632 18.0346
      vertex 0 57.3844 18.0346
      vertex 0 54.8436 15.8222
    endloop
  endfacet
  facet normal -0.740893 0.0778014 0.667102
    outer loop
      vertex 0.729416 49 14.9342
      vertex 0 49 14.1241
      vertex 0 48.3432 14.2007
    endloop
  endfacet
  facet normal -0.824067 0.475785 -0.307479
    outer loop
      vertex 2.1776 42.1868 28.5605
      vertex 0 39.4641 30.1836
      vertex 0 40.2261 31.3627
    endloop
  endfacet
  facet normal -0.824066 0.475777 -0.307491
    outer loop
      vertex 0 39.4641 30.1836
      vertex 2.1776 42.1868 28.5605
      vertex 0.426663 39.1541 28.5605
    endloop
  endfacet
  facet normal -0.824069 0.475776 -0.307486
    outer loop
      vertex 0 40.2261 31.3627
      vertex 1.16693 42.6368 31.9654
      vertex 2.1776 42.1868 28.5605
    endloop
  endfacet
  facet normal -0.824074 0.475775 -0.307474
    outer loop
      vertex 1.16693 42.6368 31.9654
      vertex 0 40.2261 31.3627
      vertex 0 40.6156 31.9654
    endloop
  endfacet
  facet normal -0.824759 0.267987 -0.497951
    outer loop
      vertex 2.1776 45.7473 31.9654
      vertex 0 44.8064 35.0658
      vertex 0.426663 46.1195 35.0658
    endloop
  endfacet
  facet normal -0.824761 0.267973 -0.497956
    outer loop
      vertex 0 44.8064 35.0658
      vertex 2.1776 45.7473 31.9654
      vertex 0 43.7866 34.517
    endloop
  endfacet
  facet normal -0.824761 -0.267973 -0.497956
    outer loop
      vertex 2.1776 52.2527 31.9654
      vertex 0 53.1936 35.0658
      vertex 0 54.2134 34.517
    endloop
  endfacet
  facet normal -0.824759 -0.267987 -0.497951
    outer loop
      vertex 0 53.1936 35.0658
      vertex 2.1776 52.2527 31.9654
      vertex 0.426663 51.8805 35.0658
    endloop
  endfacet
  facet normal -0.708541 -0.230225 -0.667058
    outer loop
      vertex 0 53.1936 35.0658
      vertex 0.426663 51.8805 35.0658
      vertex 0 51.7898 35.5503
    endloop
  endfacet
  facet normal -0.989133 0.103961 -0.103963
    outer loop
      vertex 4 49 25
      vertex 3.62578 45.4395 25
      vertex 3.25973 45.5173 28.5605
    endloop
  endfacet
  facet normal -0.945904 0.30734 -0.103963
    outer loop
      vertex 3.25973 45.5173 28.5605
      vertex 3.62578 45.4395 25
      vertex 2.51947 42.0346 25
    endloop
  endfacet
  facet normal -0.904982 0.294042 -0.307485
    outer loop
      vertex 3.25973 45.5173 28.5605
      vertex 2.1776 42.1868 28.5605
      vertex 1.16693 42.6368 31.9654
    endloop
  endfacet
  facet normal -0.824067 0.475785 0.307479
    outer loop
      vertex 0 39.4641 19.8164
      vertex 2.1776 42.1868 21.4395
      vertex 0 40.2261 18.6373
    endloop
  endfacet
  facet normal -0.824066 0.475777 0.307491
    outer loop
      vertex 2.1776 42.1868 21.4395
      vertex 0 39.4641 19.8164
      vertex 0.426663 39.1541 21.4395
    endloop
  endfacet
  facet normal -0.861332 0.497292 0.103961
    outer loop
      vertex 2.51947 42.0346 25
      vertex 2.1776 42.1868 21.4395
      vertex 0.426663 39.1541 21.4395
    endloop
  endfacet
  facet normal -0.740927 0.0778701 0.667056
    outer loop
      vertex 0.426663 46.1195 14.9342
      vertex 0 48.3432 14.2007
      vertex 0 46.2102 14.4497
    endloop
  endfacet
  facet normal -0.74092 0.0778739 0.667064
    outer loop
      vertex 0 48.3432 14.2007
      vertex 0.426663 46.1195 14.9342
      vertex 0.729416 49 14.9342
    endloop
  endfacet
  facet normal -0.862455 0.0906478 0.49795
    outer loop
      vertex 2.1776 45.7473 18.0346
      vertex 0.729416 49 14.9342
      vertex 0.426663 46.1195 14.9342
    endloop
  endfacet
  facet normal -0.707102 0.636754 -0.307491
    outer loop
      vertex 0 39.4641 30.1836
      vertex 0.426663 39.1541 28.5605
      vertex 0 38.6803 28.5605
    endloop
  endfacet
  facet normal -0.862455 0.0906478 -0.49795
    outer loop
      vertex 0.729416 49 35.0658
      vertex 2.1776 45.7473 31.9654
      vertex 0.426663 46.1195 35.0658
    endloop
  endfacet
  facet normal -0.74092 0.0778739 -0.667064
    outer loop
      vertex 0.426663 46.1195 35.0658
      vertex 0 48.3432 35.7993
      vertex 0.729416 49 35.0658
    endloop
  endfacet
  facet normal -0.740927 0.0778701 -0.667056
    outer loop
      vertex 0 48.3432 35.7993
      vertex 0.426663 46.1195 35.0658
      vertex 0 46.2102 35.5503
    endloop
  endfacet
endsolid OpenSCAD_Model
