solid OpenSCAD_Model
  facet normal 1 -0 0
    outer loop
      vertex 48 0 25
      vertex 48 48 0
      vertex 48 48 25
    endloop
  endfacet
  facet normal 1 0 0
    outer loop
      vertex 48 48 0
      vertex 48 0 25
      vertex 48 0 0
    endloop
  endfacet
  facet normal 0 0 1
    outer loop
      vertex 48 48 25
      vertex 47 47 25
      vertex 48 0 25
    endloop
  endfacet
  facet normal -0 0 1
    outer loop
      vertex 7.50555 48 25
      vertex 47 47 25
      vertex 48 48 25
    endloop
  endfacet
  facet normal 0 0 1
    outer loop
      vertex 47 47 25
      vertex 7.50555 48 25
      vertex 7.50555 47 25
    endloop
  endfacet
  facet normal -0 0 1
    outer loop
      vertex 47 1 25
      vertex 48 0 25
      vertex 47 47 25
    endloop
  endfacet
  facet normal 0 0 1
    outer loop
      vertex 7.50555 0 25
      vertex 47 1 25
      vertex 7.50555 1 25
    endloop
  endfacet
  facet normal 0 0 1
    outer loop
      vertex 47 1 25
      vertex 7.50555 0 25
      vertex 48 0 25
    endloop
  endfacet
  facet normal 0 0 -1
    outer loop
      vertex 48 0 0
      vertex 45 3 0
      vertex 48 48 0
    endloop
  endfacet
  facet normal 0 0 -1
    outer loop
      vertex 48 0 0
      vertex 3 3 0
      vertex 45 3 0
    endloop
  endfacet
  facet normal -0 0 -1
    outer loop
      vertex 3 3 0
      vertex 0 0 0
      vertex 3 45 0
    endloop
  endfacet
  facet normal 0 0 -1
    outer loop
      vertex 0 0 0
      vertex 3 3 0
      vertex 48 0 0
    endloop
  endfacet
  facet normal 0 0 -1
    outer loop
      vertex 45 45 0
      vertex 48 48 0
      vertex 45 3 0
    endloop
  endfacet
  facet normal 0 0 -1
    outer loop
      vertex 3 45 0
      vertex 48 48 0
      vertex 45 45 0
    endloop
  endfacet
  facet normal 0 0 -1
    outer loop
      vertex 3 45 0
      vertex 0 48 0
      vertex 48 48 0
    endloop
  endfacet
  facet normal 0 0 -1
    outer loop
      vertex 0 48 0
      vertex 3 45 0
      vertex 0 0 0
    endloop
  endfacet
  facet normal -1 0 0
    outer loop
      vertex 0 34.3197 21.4395
      vertex 0 48 38
      vertex 0 48 0
    endloop
  endfacet
  facet normal -1 0 0
    outer loop
      vertex 0 48 38
      vertex 0 34.7226 24.0185
      vertex 0 34.8759 25
    endloop
  endfacet
  facet normal -1 0 0
    outer loop
      vertex 0 48 38
      vertex 0 34.3197 21.4395
      vertex 0 34.7226 24.0185
    endloop
  endfacet
  facet normal -1 0 0
    outer loop
      vertex 0 48 0
      vertex 0 33.5359 19.8164
      vertex 0 34.3197 21.4395
    endloop
  endfacet
  facet normal -1 0 0
    outer loop
      vertex 0 48 0
      vertex 0 32.7739 18.6373
      vertex 0 33.5359 19.8164
    endloop
  endfacet
  facet normal -1 0 0
    outer loop
      vertex 0 48 0
      vertex 0 32.3844 18.0346
      vertex 0 32.7739 18.6373
    endloop
  endfacet
  facet normal -1 0 0
    outer loop
      vertex 0 48 0
      vertex 0 29.8436 15.8222
      vertex 0 32.3844 18.0346
    endloop
  endfacet
  facet normal -1 0 0
    outer loop
      vertex 0 48 0
      vertex 0 29.2134 15.483
      vertex 0 29.8436 15.8222
    endloop
  endfacet
  facet normal -1 0 0
    outer loop
      vertex 0 48 0
      vertex 0 28.1936 14.9342
      vertex 0 29.2134 15.483
    endloop
  endfacet
  facet normal -1 0 0
    outer loop
      vertex 0 48 0
      vertex 0 26.7898 14.4497
      vertex 0 28.1936 14.9342
    endloop
  endfacet
  facet normal -1 0 0
    outer loop
      vertex 0 48 0
      vertex 0 24.6568 14.2007
      vertex 0 26.7898 14.4497
    endloop
  endfacet
  facet normal -1 0 0
    outer loop
      vertex 0 48 0
      vertex 0 24 14.1241
      vertex 0 24.6568 14.2007
    endloop
  endfacet
  facet normal -1 0 0
    outer loop
      vertex 0 0 0
      vertex 0 24 14.1241
      vertex 0 48 0
    endloop
  endfacet
  facet normal -1 -0 0
    outer loop
      vertex 0 24 14.1241
      vertex 0 0 0
      vertex 0 23.3432 14.2007
    endloop
  endfacet
  facet normal -1 -0 0
    outer loop
      vertex 0 23.3432 14.2007
      vertex 0 0 0
      vertex 0 21.2102 14.4497
    endloop
  endfacet
  facet normal -1 0 0
    outer loop
      vertex 0 0 0
      vertex 0 18.7866 15.483
      vertex 0 19.8064 14.9342
    endloop
  endfacet
  facet normal -1 0 0
    outer loop
      vertex 0 0 0
      vertex 0 15.2261 18.6373
      vertex 0 15.6156 18.0346
    endloop
  endfacet
  facet normal -1 0 0
    outer loop
      vertex 0 13.6803 21.4395
      vertex 0 0 38
      vertex 0 13.2774 24.0185
    endloop
  endfacet
  facet normal -1 0 0
    outer loop
      vertex 0 0 38
      vertex 0 13.6803 21.4395
      vertex 0 0 0
    endloop
  endfacet
  facet normal -1 -0 0
    outer loop
      vertex 0 14.4641 19.8164
      vertex 0 0 0
      vertex 0 13.6803 21.4395
    endloop
  endfacet
  facet normal -1 -0 0
    outer loop
      vertex 0 15.2261 18.6373
      vertex 0 0 0
      vertex 0 14.4641 19.8164
    endloop
  endfacet
  facet normal -1 -0 0
    outer loop
      vertex 0 18.1564 15.8222
      vertex 0 0 0
      vertex 0 15.6156 18.0346
    endloop
  endfacet
  facet normal -1 -0 0
    outer loop
      vertex 0 18.7866 15.483
      vertex 0 0 0
      vertex 0 18.1564 15.8222
    endloop
  endfacet
  facet normal -1 -0 0
    outer loop
      vertex 0 21.2102 14.4497
      vertex 0 0 0
      vertex 0 19.8064 14.9342
    endloop
  endfacet
  facet normal -1 0 0
    outer loop
      vertex 0 34.7226 25.9815
      vertex 0 48 38
      vertex 0 34.8759 25
    endloop
  endfacet
  facet normal -1 0 0
    outer loop
      vertex 0 34.3197 28.5605
      vertex 0 48 38
      vertex 0 34.7226 25.9815
    endloop
  endfacet
  facet normal -1 0 0
    outer loop
      vertex 0 33.5359 30.1836
      vertex 0 48 38
      vertex 0 34.3197 28.5605
    endloop
  endfacet
  facet normal -1 0 0
    outer loop
      vertex 0 32.7739 31.3627
      vertex 0 48 38
      vertex 0 33.5359 30.1836
    endloop
  endfacet
  facet normal -1 0 0
    outer loop
      vertex 0 32.3844 31.9654
      vertex 0 48 38
      vertex 0 32.7739 31.3627
    endloop
  endfacet
  facet normal -1 0 0
    outer loop
      vertex 0 29.8436 34.1778
      vertex 0 48 38
      vertex 0 32.3844 31.9654
    endloop
  endfacet
  facet normal -1 0 0
    outer loop
      vertex 0 29.2134 34.517
      vertex 0 48 38
      vertex 0 29.8436 34.1778
    endloop
  endfacet
  facet normal -1 0 0
    outer loop
      vertex 0 28.1936 35.0658
      vertex 0 48 38
      vertex 0 29.2134 34.517
    endloop
  endfacet
  facet normal -1 0 0
    outer loop
      vertex 0 26.7898 35.5503
      vertex 0 48 38
      vertex 0 28.1936 35.0658
    endloop
  endfacet
  facet normal -1 0 0
    outer loop
      vertex 0 24.6568 35.7993
      vertex 0 48 38
      vertex 0 26.7898 35.5503
    endloop
  endfacet
  facet normal -1 0 0
    outer loop
      vertex 0 24 35.8759
      vertex 0 48 38
      vertex 0 24.6568 35.7993
    endloop
  endfacet
  facet normal -1 0 0
    outer loop
      vertex 0 0 38
      vertex 0 18.7866 34.517
      vertex 0 18.1564 34.1778
    endloop
  endfacet
  facet normal -1 0 0
    outer loop
      vertex 0 0 38
      vertex 0 15.2261 31.3627
      vertex 0 14.4641 30.1836
    endloop
  endfacet
  facet normal -1 0 0
    outer loop
      vertex 0 13.2774 24.0185
      vertex 0 0 38
      vertex 0 13.1241 25
    endloop
  endfacet
  facet normal -1 0 0
    outer loop
      vertex 0 13.1241 25
      vertex 0 0 38
      vertex 0 13.2774 25.9815
    endloop
  endfacet
  facet normal -1 0 0
    outer loop
      vertex 0 24 35.8759
      vertex 0 0 38
      vertex 0 48 38
    endloop
  endfacet
  facet normal -1 0 0
    outer loop
      vertex 0 23.3432 35.7993
      vertex 0 0 38
      vertex 0 24 35.8759
    endloop
  endfacet
  facet normal -1 0 0
    outer loop
      vertex 0 21.2102 35.5503
      vertex 0 0 38
      vertex 0 23.3432 35.7993
    endloop
  endfacet
  facet normal -1 0 0
    outer loop
      vertex 0 19.8064 35.0658
      vertex 0 0 38
      vertex 0 21.2102 35.5503
    endloop
  endfacet
  facet normal -1 0 0
    outer loop
      vertex 0 18.7866 34.517
      vertex 0 0 38
      vertex 0 19.8064 35.0658
    endloop
  endfacet
  facet normal -1 0 0
    outer loop
      vertex 0 15.6156 31.9654
      vertex 0 0 38
      vertex 0 18.1564 34.1778
    endloop
  endfacet
  facet normal -1 0 0
    outer loop
      vertex 0 15.2261 31.3627
      vertex 0 0 38
      vertex 0 15.6156 31.9654
    endloop
  endfacet
  facet normal -1 0 0
    outer loop
      vertex 0 13.6803 28.5605
      vertex 0 0 38
      vertex 0 14.4641 30.1836
    endloop
  endfacet
  facet normal -1 0 0
    outer loop
      vertex 0 13.2774 25.9815
      vertex 0 0 38
      vertex 0 13.6803 28.5605
    endloop
  endfacet
  facet normal 0 1 0
    outer loop
      vertex 48 48 25
      vertex 48 48 0
      vertex 7.50555 48 25
    endloop
  endfacet
  facet normal 0 1 0
    outer loop
      vertex 7.50555 48 27
      vertex 0 48 38
      vertex 1 48 38
    endloop
  endfacet
  facet normal 0 1 -0
    outer loop
      vertex 7.50555 48 25
      vertex 0 48 38
      vertex 7.50555 48 27
    endloop
  endfacet
  facet normal 0 1 0
    outer loop
      vertex 7.50555 48 25
      vertex 0 48 0
      vertex 0 48 38
    endloop
  endfacet
  facet normal 0 1 0
    outer loop
      vertex 0 48 0
      vertex 7.50555 48 25
      vertex 48 48 0
    endloop
  endfacet
  facet normal 0 -1 0
    outer loop
      vertex 0 0 38
      vertex 7.50555 0 27
      vertex 1 0 38
    endloop
  endfacet
  facet normal 0 -1 0
    outer loop
      vertex 0 0 38
      vertex 7.50555 0 25
      vertex 7.50555 0 27
    endloop
  endfacet
  facet normal 0 -1 0
    outer loop
      vertex 0 0 0
      vertex 7.50555 0 25
      vertex 0 0 38
    endloop
  endfacet
  facet normal 0 -1 0
    outer loop
      vertex 48 0 0
      vertex 7.50555 0 25
      vertex 0 0 0
    endloop
  endfacet
  facet normal 0 -1 0
    outer loop
      vertex 7.50555 0 25
      vertex 48 0 0
      vertex 48 0 25
    endloop
  endfacet
  facet normal -1 0 0
    outer loop
      vertex 47 1 4
      vertex 47 47 25
      vertex 47 47 4
    endloop
  endfacet
  facet normal -1 -0 0
    outer loop
      vertex 47 47 25
      vertex 47 1 4
      vertex 47 1 25
    endloop
  endfacet
  facet normal -0 0 1
    outer loop
      vertex 2.04089 47 4
      vertex 47 1 4
      vertex 47 47 4
    endloop
  endfacet
  facet normal 0 0 1
    outer loop
      vertex 47 1 4
      vertex 2.04089 47 4
      vertex 2.04089 1 4
    endloop
  endfacet
  facet normal 0 -1 0
    outer loop
      vertex 47 47 4
      vertex 7.50555 47 25
      vertex 2.04089 47 4
    endloop
  endfacet
  facet normal 0 -1 0
    outer loop
      vertex 7.50555 47 25
      vertex 47 47 4
      vertex 47 47 25
    endloop
  endfacet
  facet normal 0 1 -0
    outer loop
      vertex 47 1 4
      vertex 7.50555 1 25
      vertex 47 1 25
    endloop
  endfacet
  facet normal 0 1 0
    outer loop
      vertex 7.50555 1 25
      vertex 47 1 4
      vertex 2.04089 1 4
    endloop
  endfacet
  facet normal -1 0 0
    outer loop
      vertex 45 3 0
      vertex 45 45 3
      vertex 45 45 0
    endloop
  endfacet
  facet normal -1 -0 0
    outer loop
      vertex 45 45 3
      vertex 45 3 0
      vertex 45 3 3
    endloop
  endfacet
  facet normal 0 0 -1
    outer loop
      vertex 3 3 3
      vertex 45 45 3
      vertex 45 3 3
    endloop
  endfacet
  facet normal -0 0 -1
    outer loop
      vertex 45 45 3
      vertex 3 3 3
      vertex 3 45 3
    endloop
  endfacet
  facet normal 1 -0 0
    outer loop
      vertex 3 3 3
      vertex 3 45 0
      vertex 3 45 3
    endloop
  endfacet
  facet normal 1 0 0
    outer loop
      vertex 3 45 0
      vertex 3 3 3
      vertex 3 3 0
    endloop
  endfacet
  facet normal 0 -1 0
    outer loop
      vertex 3 45 0
      vertex 45 45 3
      vertex 3 45 3
    endloop
  endfacet
  facet normal 0 -1 -0
    outer loop
      vertex 45 45 3
      vertex 3 45 0
      vertex 45 45 0
    endloop
  endfacet
  facet normal 0 1 -0
    outer loop
      vertex 45 3 0
      vertex 3 3 3
      vertex 45 3 3
    endloop
  endfacet
  facet normal 0 1 0
    outer loop
      vertex 3 3 3
      vertex 45 3 0
      vertex 3 3 0
    endloop
  endfacet
  facet normal -0 0 1
    outer loop
      vertex 0 48 38
      vertex 1 0 38
      vertex 1 48 38
    endloop
  endfacet
  facet normal 0 0 1
    outer loop
      vertex 1 0 38
      vertex 0 48 38
      vertex 0 0 38
    endloop
  endfacet
  facet normal 1 0 0
    outer loop
      vertex 7.50555 48 27
      vertex 7.50555 47 25
      vertex 7.50555 48 25
    endloop
  endfacet
  facet normal 1 0 0
    outer loop
      vertex 7.50555 48 27
      vertex 7.50555 1 25
      vertex 7.50555 47 25
    endloop
  endfacet
  facet normal 1 -0 0
    outer loop
      vertex 7.50555 0 27
      vertex 7.50555 1 25
      vertex 7.50555 48 27
    endloop
  endfacet
  facet normal 1 0 0
    outer loop
      vertex 7.50555 1 25
      vertex 7.50555 0 27
      vertex 7.50555 0 25
    endloop
  endfacet
  facet normal 0.860736 -0 0.509051
    outer loop
      vertex 1 0 38
      vertex 7.50555 48 27
      vertex 1 48 38
    endloop
  endfacet
  facet normal 0.860736 0 0.509051
    outer loop
      vertex 7.50555 48 27
      vertex 1 0 38
      vertex 7.50555 0 27
    endloop
  endfacet
  facet normal 0.96777 0 -0.251835
    outer loop
      vertex 7.50555 1 25
      vertex 2.04089 47 4
      vertex 7.50555 47 25
    endloop
  endfacet
  facet normal 0.96777 0 -0.251835
    outer loop
      vertex 2.04089 47 4
      vertex 7.50555 1 25
      vertex 2.04089 1 4
    endloop
  endfacet
  facet normal -0.824069 0.475776 -0.307486
    outer loop
      vertex 0 15.2261 31.3627
      vertex 1.16693 17.6368 31.9654
      vertex 2.1776 17.1868 28.5605
    endloop
  endfacet
  facet normal -0.824074 0.475775 -0.307474
    outer loop
      vertex 1.16693 17.6368 31.9654
      vertex 0 15.2261 31.3627
      vertex 0 15.6156 31.9654
    endloop
  endfacet
  facet normal -0.989133 -0.103963 0.103961
    outer loop
      vertex 3.62578 24 21.4395
      vertex 4 24 25
      vertex 3.25973 27.4827 21.4395
    endloop
  endfacet
  facet normal -0.739077 -0.665548 0.103974
    outer loop
      vertex 0.426663 33.8459 21.4395
      vertex 0 34.7226 24.0185
      vertex 0 34.3197 21.4395
    endloop
  endfacet
  facet normal -0.739123 -0.665501 0.10395
    outer loop
      vertex 0 34.7226 24.0185
      vertex 0.426663 33.8459 21.4395
      vertex 0.729416 34.0658 25
    endloop
  endfacet
  facet normal -0.824761 -0.267973 -0.497956
    outer loop
      vertex 2.1776 27.2527 31.9654
      vertex 0 28.1936 35.0658
      vertex 0 29.2134 34.517
    endloop
  endfacet
  facet normal -0.824759 -0.267987 -0.497951
    outer loop
      vertex 0 28.1936 35.0658
      vertex 2.1776 27.2527 31.9654
      vertex 0.426663 26.8805 35.0658
    endloop
  endfacet
  facet normal -0.824067 -0.475785 0.307479
    outer loop
      vertex 2.1776 30.8132 21.4395
      vertex 0 33.5359 19.8164
      vertex 0 32.7739 18.6373
    endloop
  endfacet
  facet normal -0.824066 -0.475777 0.307491
    outer loop
      vertex 0 33.5359 19.8164
      vertex 2.1776 30.8132 21.4395
      vertex 0.426663 33.8459 21.4395
    endloop
  endfacet
  facet normal -0.861332 0.497292 0.103961
    outer loop
      vertex 2.51947 17.0346 25
      vertex 2.1776 17.1868 21.4395
      vertex 0.426663 14.1541 21.4395
    endloop
  endfacet
  facet normal -0.945904 0.30734 -0.103963
    outer loop
      vertex 3.25973 20.5173 28.5605
      vertex 3.62578 20.4395 25
      vertex 2.51947 17.0346 25
    endloop
  endfacet
  facet normal -0.861329 -0.497299 0.103953
    outer loop
      vertex 2.51947 30.9654 25
      vertex 0.729416 34.0658 25
      vertex 0.426663 33.8459 21.4395
    endloop
  endfacet
  facet normal -0.904982 -0.294048 0.30748
    outer loop
      vertex 2.1776 27.2527 18.0346
      vertex 3.25973 27.4827 21.4395
      vertex 1.16693 30.3632 18.0346
    endloop
  endfacet
  facet normal -0.945904 0.307339 -0.103961
    outer loop
      vertex 3.25973 20.5173 28.5605
      vertex 2.51947 17.0346 25
      vertex 2.1776 17.1868 28.5605
    endloop
  endfacet
  facet normal -0.946342 0.0994638 0.307481
    outer loop
      vertex 3.25973 20.5173 21.4395
      vertex 2.51947 24 18.0346
      vertex 2.1776 20.7473 18.0346
    endloop
  endfacet
  facet normal -0.945904 -0.307339 -0.103961
    outer loop
      vertex 2.51947 30.9654 25
      vertex 3.25973 27.4827 28.5605
      vertex 2.1776 30.8132 28.5605
    endloop
  endfacet
  facet normal -0.904982 0.294042 -0.307485
    outer loop
      vertex 3.25973 20.5173 28.5605
      vertex 2.1776 17.1868 28.5605
      vertex 1.16693 17.6368 31.9654
    endloop
  endfacet
  facet normal -0.824069 -0.475776 -0.307486
    outer loop
      vertex 1.16693 30.3632 31.9654
      vertex 0 32.7739 31.3627
      vertex 2.1776 30.8132 28.5605
    endloop
  endfacet
  facet normal -0.824074 -0.475775 -0.307474
    outer loop
      vertex 0 32.7739 31.3627
      vertex 1.16693 30.3632 31.9654
      vertex 0 32.3844 31.9654
    endloop
  endfacet
  facet normal -0.751019 -0.433597 -0.497959
    outer loop
      vertex 0 32.3844 31.9654
      vertex 1.16693 30.3632 31.9654
      vertex 0 29.8436 34.1778
    endloop
  endfacet
  facet normal -0.751019 0.433597 0.497959
    outer loop
      vertex 1.16693 17.6368 18.0346
      vertex 0 18.1564 15.8222
      vertex 0 15.6156 18.0346
    endloop
  endfacet
  facet normal -0.862456 0.0906471 0.497949
    outer loop
      vertex 2.1776 20.7473 18.0346
      vertex 2.51947 24 18.0346
      vertex 0.729416 24 14.9342
    endloop
  endfacet
  facet normal -0.989133 -0.103961 -0.103963
    outer loop
      vertex 3.62578 27.5605 25
      vertex 4 24 25
      vertex 3.25973 27.4827 28.5605
    endloop
  endfacet
  facet normal -0.824761 -0.267973 0.497956
    outer loop
      vertex 0 28.1936 14.9342
      vertex 2.1776 27.2527 18.0346
      vertex 0 29.2134 15.483
    endloop
  endfacet
  facet normal -0.824759 -0.267987 0.497951
    outer loop
      vertex 2.1776 27.2527 18.0346
      vertex 0 28.1936 14.9342
      vertex 0.426663 26.8805 14.9342
    endloop
  endfacet
  facet normal -0.73912 -0.665505 -0.103945
    outer loop
      vertex 0 34.8759 25
      vertex 0.729416 34.0658 25
      vertex 0 34.7226 25.9815
    endloop
  endfacet
  facet normal -0.861332 0.497292 -0.103961
    outer loop
      vertex 2.1776 17.1868 28.5605
      vertex 2.51947 17.0346 25
      vertex 0.426663 14.1541 28.5605
    endloop
  endfacet
  facet normal -0.862456 -0.0906471 0.497949
    outer loop
      vertex 2.51947 24 18.0346
      vertex 2.1776 27.2527 18.0346
      vertex 0.729416 24 14.9342
    endloop
  endfacet
  facet normal -0.946342 -0.0994638 0.307481
    outer loop
      vertex 2.51947 24 18.0346
      vertex 3.25973 27.4827 21.4395
      vertex 2.1776 27.2527 18.0346
    endloop
  endfacet
  facet normal -0.824074 0.475775 0.307474
    outer loop
      vertex 0 15.2261 18.6373
      vertex 1.16693 17.6368 18.0346
      vertex 0 15.6156 18.0346
    endloop
  endfacet
  facet normal -0.824069 0.475776 0.307486
    outer loop
      vertex 1.16693 17.6368 18.0346
      vertex 0 15.2261 18.6373
      vertex 2.1776 17.1868 21.4395
    endloop
  endfacet
  facet normal -0.824759 0.267987 -0.497951
    outer loop
      vertex 2.1776 20.7473 31.9654
      vertex 0 19.8064 35.0658
      vertex 0.426663 21.1195 35.0658
    endloop
  endfacet
  facet normal -0.824761 0.267973 -0.497956
    outer loop
      vertex 0 19.8064 35.0658
      vertex 2.1776 20.7473 31.9654
      vertex 0 18.7866 34.517
    endloop
  endfacet
  facet normal -0.945904 0.307339 0.103961
    outer loop
      vertex 2.51947 17.0346 25
      vertex 3.25973 20.5173 21.4395
      vertex 2.1776 17.1868 21.4395
    endloop
  endfacet
  facet normal -0.989133 -0.103963 -0.103961
    outer loop
      vertex 4 24 25
      vertex 3.62578 24 28.5605
      vertex 3.25973 27.4827 28.5605
    endloop
  endfacet
  facet normal -0.862456 0.0906471 -0.497949
    outer loop
      vertex 2.51947 24 31.9654
      vertex 2.1776 20.7473 31.9654
      vertex 0.729416 24 35.0658
    endloop
  endfacet
  facet normal -0.989133 -0.103961 0.103963
    outer loop
      vertex 4 24 25
      vertex 3.62578 27.5605 25
      vertex 3.25973 27.4827 21.4395
    endloop
  endfacet
  facet normal -0.862455 -0.0906478 -0.49795
    outer loop
      vertex 2.1776 27.2527 31.9654
      vertex 0.729416 24 35.0658
      vertex 0.426663 26.8805 35.0658
    endloop
  endfacet
  facet normal -0.824758 -0.267982 -0.497956
    outer loop
      vertex 2.1776 27.2527 31.9654
      vertex 0 29.8436 34.1778
      vertex 1.16693 30.3632 31.9654
    endloop
  endfacet
  facet normal -0.824764 -0.268008 -0.497932
    outer loop
      vertex 0 29.8436 34.1778
      vertex 2.1776 27.2527 31.9654
      vertex 0 29.2134 34.517
    endloop
  endfacet
  facet normal -0.904982 -0.294042 -0.307485
    outer loop
      vertex 2.1776 30.8132 28.5605
      vertex 3.25973 27.4827 28.5605
      vertex 1.16693 30.3632 31.9654
    endloop
  endfacet
  facet normal -0.707102 -0.636754 -0.307491
    outer loop
      vertex 0 34.3197 28.5605
      vertex 0.426663 33.8459 28.5605
      vertex 0 33.5359 30.1836
    endloop
  endfacet
  facet normal -0.73912 -0.665505 0.103945
    outer loop
      vertex 0.729416 34.0658 25
      vertex 0 34.8759 25
      vertex 0 34.7226 24.0185
    endloop
  endfacet
  facet normal -0.740927 -0.0778701 0.667056
    outer loop
      vertex 0 24.6568 14.2007
      vertex 0.426663 26.8805 14.9342
      vertex 0 26.7898 14.4497
    endloop
  endfacet
  facet normal -0.74092 -0.0778739 0.667064
    outer loop
      vertex 0.426663 26.8805 14.9342
      vertex 0 24.6568 14.2007
      vertex 0.729416 24 14.9342
    endloop
  endfacet
  facet normal -0.945904 -0.30734 0.103963
    outer loop
      vertex 3.25973 27.4827 21.4395
      vertex 3.62578 27.5605 25
      vertex 2.51947 30.9654 25
    endloop
  endfacet
  facet normal -0.904982 -0.294042 0.307485
    outer loop
      vertex 3.25973 27.4827 21.4395
      vertex 2.1776 30.8132 21.4395
      vertex 1.16693 30.3632 18.0346
    endloop
  endfacet
  facet normal -0.751019 0.433597 -0.497959
    outer loop
      vertex 0 18.1564 34.1778
      vertex 1.16693 17.6368 31.9654
      vertex 0 15.6156 31.9654
    endloop
  endfacet
  facet normal -0.946341 0.0994654 0.307482
    outer loop
      vertex 3.25973 20.5173 21.4395
      vertex 3.62578 24 21.4395
      vertex 2.51947 24 18.0346
    endloop
  endfacet
  facet normal -0.946341 -0.0994654 0.307482
    outer loop
      vertex 3.62578 24 21.4395
      vertex 3.25973 27.4827 21.4395
      vertex 2.51947 24 18.0346
    endloop
  endfacet
  facet normal -0.904982 0.294042 0.307485
    outer loop
      vertex 2.1776 17.1868 21.4395
      vertex 3.25973 20.5173 21.4395
      vertex 1.16693 17.6368 18.0346
    endloop
  endfacet
  facet normal -0.708541 0.230225 0.667058
    outer loop
      vertex 0.426663 21.1195 14.9342
      vertex 0 21.2102 14.4497
      vertex 0 19.8064 14.9342
    endloop
  endfacet
  facet normal -0.861329 0.497299 0.103953
    outer loop
      vertex 0.729416 13.9342 25
      vertex 2.51947 17.0346 25
      vertex 0.426663 14.1541 21.4395
    endloop
  endfacet
  facet normal -0.824067 0.475785 0.307479
    outer loop
      vertex 0 14.4641 19.8164
      vertex 2.1776 17.1868 21.4395
      vertex 0 15.2261 18.6373
    endloop
  endfacet
  facet normal -0.824066 0.475777 0.307491
    outer loop
      vertex 2.1776 17.1868 21.4395
      vertex 0 14.4641 19.8164
      vertex 0.426663 14.1541 21.4395
    endloop
  endfacet
  facet normal -0.946341 -0.0994654 -0.307482
    outer loop
      vertex 3.25973 27.4827 28.5605
      vertex 3.62578 24 28.5605
      vertex 2.51947 24 31.9654
    endloop
  endfacet
  facet normal -0.989133 0.103961 -0.103963
    outer loop
      vertex 4 24 25
      vertex 3.62578 20.4395 25
      vertex 3.25973 20.5173 28.5605
    endloop
  endfacet
  facet normal -0.904982 0.294048 -0.30748
    outer loop
      vertex 2.1776 20.7473 31.9654
      vertex 3.25973 20.5173 28.5605
      vertex 1.16693 17.6368 31.9654
    endloop
  endfacet
  facet normal -0.740893 -0.0778014 -0.667102
    outer loop
      vertex 0 24.6568 35.7993
      vertex 0.729416 24 35.0658
      vertex 0 24 35.8759
    endloop
  endfacet
  facet normal -0.862455 0.0906478 -0.49795
    outer loop
      vertex 0.729416 24 35.0658
      vertex 2.1776 20.7473 31.9654
      vertex 0.426663 21.1195 35.0658
    endloop
  endfacet
  facet normal -0.824066 -0.475777 -0.307491
    outer loop
      vertex 2.1776 30.8132 28.5605
      vertex 0 33.5359 30.1836
      vertex 0.426663 33.8459 28.5605
    endloop
  endfacet
  facet normal -0.824067 -0.475785 -0.307479
    outer loop
      vertex 0 33.5359 30.1836
      vertex 2.1776 30.8132 28.5605
      vertex 0 32.7739 31.3627
    endloop
  endfacet
  facet normal -0.861329 -0.497299 -0.103953
    outer loop
      vertex 0.729416 34.0658 25
      vertex 2.51947 30.9654 25
      vertex 0.426663 33.8459 28.5605
    endloop
  endfacet
  facet normal -0.862455 -0.0906478 0.49795
    outer loop
      vertex 0.729416 24 14.9342
      vertex 2.1776 27.2527 18.0346
      vertex 0.426663 26.8805 14.9342
    endloop
  endfacet
  facet normal -0.739123 -0.665501 -0.10395
    outer loop
      vertex 0.426663 33.8459 28.5605
      vertex 0 34.7226 25.9815
      vertex 0.729416 34.0658 25
    endloop
  endfacet
  facet normal -0.739077 -0.665548 -0.103974
    outer loop
      vertex 0 34.7226 25.9815
      vertex 0.426663 33.8459 28.5605
      vertex 0 34.3197 28.5605
    endloop
  endfacet
  facet normal -0.824764 -0.268008 0.497932
    outer loop
      vertex 2.1776 27.2527 18.0346
      vertex 0 29.8436 15.8222
      vertex 0 29.2134 15.483
    endloop
  endfacet
  facet normal -0.824758 -0.267982 0.497956
    outer loop
      vertex 0 29.8436 15.8222
      vertex 2.1776 27.2527 18.0346
      vertex 1.16693 30.3632 18.0346
    endloop
  endfacet
  facet normal -0.739123 0.665501 -0.10395
    outer loop
      vertex 0 13.2774 25.9815
      vertex 0.426663 14.1541 28.5605
      vertex 0.729416 13.9342 25
    endloop
  endfacet
  facet normal -0.739077 0.665548 -0.103974
    outer loop
      vertex 0.426663 14.1541 28.5605
      vertex 0 13.2774 25.9815
      vertex 0 13.6803 28.5605
    endloop
  endfacet
  facet normal -0.861329 0.497299 -0.103953
    outer loop
      vertex 2.51947 17.0346 25
      vertex 0.729416 13.9342 25
      vertex 0.426663 14.1541 28.5605
    endloop
  endfacet
  facet normal -0.945904 0.30734 0.103963
    outer loop
      vertex 3.62578 20.4395 25
      vertex 3.25973 20.5173 21.4395
      vertex 2.51947 17.0346 25
    endloop
  endfacet
  facet normal -0.989133 0.103963 -0.103961
    outer loop
      vertex 3.62578 24 28.5605
      vertex 4 24 25
      vertex 3.25973 20.5173 28.5605
    endloop
  endfacet
  facet normal -0.989133 0.103961 0.103963
    outer loop
      vertex 3.62578 20.4395 25
      vertex 4 24 25
      vertex 3.25973 20.5173 21.4395
    endloop
  endfacet
  facet normal -0.989133 0.103963 0.103961
    outer loop
      vertex 4 24 25
      vertex 3.62578 24 21.4395
      vertex 3.25973 20.5173 21.4395
    endloop
  endfacet
  facet normal -0.73912 0.665505 0.103945
    outer loop
      vertex 0.729416 13.9342 25
      vertex 0 13.2774 24.0185
      vertex 0 13.1241 25
    endloop
  endfacet
  facet normal -0.904982 0.294048 0.30748
    outer loop
      vertex 3.25973 20.5173 21.4395
      vertex 2.1776 20.7473 18.0346
      vertex 1.16693 17.6368 18.0346
    endloop
  endfacet
  facet normal -0.824764 0.268008 0.497932
    outer loop
      vertex 0 18.1564 15.8222
      vertex 2.1776 20.7473 18.0346
      vertex 0 18.7866 15.483
    endloop
  endfacet
  facet normal -0.824758 0.267982 0.497956
    outer loop
      vertex 2.1776 20.7473 18.0346
      vertex 0 18.1564 15.8222
      vertex 1.16693 17.6368 18.0346
    endloop
  endfacet
  facet normal -0.946342 -0.0994638 -0.307481
    outer loop
      vertex 3.25973 27.4827 28.5605
      vertex 2.51947 24 31.9654
      vertex 2.1776 27.2527 31.9654
    endloop
  endfacet
  facet normal -0.824764 0.268008 -0.497932
    outer loop
      vertex 2.1776 20.7473 31.9654
      vertex 0 18.1564 34.1778
      vertex 0 18.7866 34.517
    endloop
  endfacet
  facet normal -0.824758 0.267982 -0.497956
    outer loop
      vertex 0 18.1564 34.1778
      vertex 2.1776 20.7473 31.9654
      vertex 1.16693 17.6368 31.9654
    endloop
  endfacet
  facet normal -0.904982 -0.294048 -0.30748
    outer loop
      vertex 3.25973 27.4827 28.5605
      vertex 2.1776 27.2527 31.9654
      vertex 1.16693 30.3632 31.9654
    endloop
  endfacet
  facet normal -0.862456 -0.0906471 -0.497949
    outer loop
      vertex 2.1776 27.2527 31.9654
      vertex 2.51947 24 31.9654
      vertex 0.729416 24 35.0658
    endloop
  endfacet
  facet normal -0.946342 0.0994638 -0.307481
    outer loop
      vertex 2.51947 24 31.9654
      vertex 3.25973 20.5173 28.5605
      vertex 2.1776 20.7473 31.9654
    endloop
  endfacet
  facet normal -0.946341 0.0994654 -0.307482
    outer loop
      vertex 3.62578 24 28.5605
      vertex 3.25973 20.5173 28.5605
      vertex 2.51947 24 31.9654
    endloop
  endfacet
  facet normal -0.74092 0.0778739 -0.667064
    outer loop
      vertex 0.426663 21.1195 35.0658
      vertex 0 23.3432 35.7993
      vertex 0.729416 24 35.0658
    endloop
  endfacet
  facet normal -0.740927 0.0778701 -0.667056
    outer loop
      vertex 0 23.3432 35.7993
      vertex 0.426663 21.1195 35.0658
      vertex 0 21.2102 35.5503
    endloop
  endfacet
  facet normal -0.708541 0.230225 -0.667058
    outer loop
      vertex 0 21.2102 35.5503
      vertex 0.426663 21.1195 35.0658
      vertex 0 19.8064 35.0658
    endloop
  endfacet
  facet normal -0.708541 -0.230225 -0.667058
    outer loop
      vertex 0 28.1936 35.0658
      vertex 0.426663 26.8805 35.0658
      vertex 0 26.7898 35.5503
    endloop
  endfacet
  facet normal -0.740927 -0.0778701 -0.667056
    outer loop
      vertex 0.426663 26.8805 35.0658
      vertex 0 24.6568 35.7993
      vertex 0 26.7898 35.5503
    endloop
  endfacet
  facet normal -0.74092 -0.0778739 -0.667064
    outer loop
      vertex 0 24.6568 35.7993
      vertex 0.426663 26.8805 35.0658
      vertex 0.729416 24 35.0658
    endloop
  endfacet
  facet normal -0.740893 0.0778014 -0.667102
    outer loop
      vertex 0 24 35.8759
      vertex 0.729416 24 35.0658
      vertex 0 23.3432 35.7993
    endloop
  endfacet
  facet normal -0.861332 -0.497292 -0.103961
    outer loop
      vertex 2.51947 30.9654 25
      vertex 2.1776 30.8132 28.5605
      vertex 0.426663 33.8459 28.5605
    endloop
  endfacet
  facet normal -0.945904 -0.30734 -0.103963
    outer loop
      vertex 3.62578 27.5605 25
      vertex 3.25973 27.4827 28.5605
      vertex 2.51947 30.9654 25
    endloop
  endfacet
  facet normal -0.708541 -0.230225 0.667058
    outer loop
      vertex 0.426663 26.8805 14.9342
      vertex 0 28.1936 14.9342
      vertex 0 26.7898 14.4497
    endloop
  endfacet
  facet normal -0.740893 -0.0778014 0.667102
    outer loop
      vertex 0.729416 24 14.9342
      vertex 0 24.6568 14.2007
      vertex 0 24 14.1241
    endloop
  endfacet
  facet normal -0.707102 -0.636754 0.307491
    outer loop
      vertex 0.426663 33.8459 21.4395
      vertex 0 34.3197 21.4395
      vertex 0 33.5359 19.8164
    endloop
  endfacet
  facet normal -0.751019 -0.433597 0.497959
    outer loop
      vertex 1.16693 30.3632 18.0346
      vertex 0 32.3844 18.0346
      vertex 0 29.8436 15.8222
    endloop
  endfacet
  facet normal -0.824074 -0.475775 0.307474
    outer loop
      vertex 1.16693 30.3632 18.0346
      vertex 0 32.7739 18.6373
      vertex 0 32.3844 18.0346
    endloop
  endfacet
  facet normal -0.824069 -0.475776 0.307486
    outer loop
      vertex 0 32.7739 18.6373
      vertex 1.16693 30.3632 18.0346
      vertex 2.1776 30.8132 21.4395
    endloop
  endfacet
  facet normal -0.739077 0.665548 0.103974
    outer loop
      vertex 0 13.2774 24.0185
      vertex 0.426663 14.1541 21.4395
      vertex 0 13.6803 21.4395
    endloop
  endfacet
  facet normal -0.739123 0.665501 0.10395
    outer loop
      vertex 0.426663 14.1541 21.4395
      vertex 0 13.2774 24.0185
      vertex 0.729416 13.9342 25
    endloop
  endfacet
  facet normal -0.707102 0.636754 0.307491
    outer loop
      vertex 0.426663 14.1541 21.4395
      vertex 0 14.4641 19.8164
      vertex 0 13.6803 21.4395
    endloop
  endfacet
  facet normal -0.73912 0.665505 -0.103945
    outer loop
      vertex 0 13.2774 25.9815
      vertex 0.729416 13.9342 25
      vertex 0 13.1241 25
    endloop
  endfacet
  facet normal -0.862455 0.0906478 0.49795
    outer loop
      vertex 2.1776 20.7473 18.0346
      vertex 0.729416 24 14.9342
      vertex 0.426663 21.1195 14.9342
    endloop
  endfacet
  facet normal -0.824759 0.267987 0.497951
    outer loop
      vertex 0 19.8064 14.9342
      vertex 2.1776 20.7473 18.0346
      vertex 0.426663 21.1195 14.9342
    endloop
  endfacet
  facet normal -0.824761 0.267973 0.497956
    outer loop
      vertex 2.1776 20.7473 18.0346
      vertex 0 19.8064 14.9342
      vertex 0 18.7866 15.483
    endloop
  endfacet
  facet normal -0.707102 0.636754 -0.307491
    outer loop
      vertex 0 14.4641 30.1836
      vertex 0.426663 14.1541 28.5605
      vertex 0 13.6803 28.5605
    endloop
  endfacet
  facet normal -0.824067 0.475785 -0.307479
    outer loop
      vertex 2.1776 17.1868 28.5605
      vertex 0 14.4641 30.1836
      vertex 0 15.2261 31.3627
    endloop
  endfacet
  facet normal -0.824066 0.475777 -0.307491
    outer loop
      vertex 0 14.4641 30.1836
      vertex 2.1776 17.1868 28.5605
      vertex 0.426663 14.1541 28.5605
    endloop
  endfacet
  facet normal -0.945904 -0.307339 0.103961
    outer loop
      vertex 3.25973 27.4827 21.4395
      vertex 2.51947 30.9654 25
      vertex 2.1776 30.8132 21.4395
    endloop
  endfacet
  facet normal -0.861332 -0.497292 0.103961
    outer loop
      vertex 2.1776 30.8132 21.4395
      vertex 2.51947 30.9654 25
      vertex 0.426663 33.8459 21.4395
    endloop
  endfacet
  facet normal -0.740893 0.0778014 0.667102
    outer loop
      vertex 0.729416 24 14.9342
      vertex 0 24 14.1241
      vertex 0 23.3432 14.2007
    endloop
  endfacet
  facet normal -0.740927 0.0778701 0.667056
    outer loop
      vertex 0.426663 21.1195 14.9342
      vertex 0 23.3432 14.2007
      vertex 0 21.2102 14.4497
    endloop
  endfacet
  facet normal -0.74092 0.0778739 0.667064
    outer loop
      vertex 0 23.3432 14.2007
      vertex 0.426663 21.1195 14.9342
      vertex 0.729416 24 14.9342
    endloop
  endfacet
endsolid OpenSCAD_Model
