<?xml version="1.0" encoding="UTF-8" standalone="no"?>
<svg xmlns="http://www.w3.org/2000/svg" version="1.2" xmlns:xlink="http://www.w3.org/1999/xlink" width="28.780001640319824" height="31.31999969482422"><g><g><circle cx="2.54" cy="5.08" r="1" fill="black"></circle><g><circle cx="5.08" cy="5.08" r="1" fill="black"></circle><circle cx="7.62" cy="5.08" r="1" fill="black"></circle></g><g><circle cx="10.16" cy="5.08" r="1" fill="black"></circle><circle cx="17.78" cy="5.08" r="1" fill="black"></circle></g></g><g><circle cx="2.54" cy="10.16" r="1" fill="black"></circle><g><circle cx="5.08" cy="10.16" r="1" fill="black"></circle><circle cx="7.62" cy="10.16" r="1" fill="black"></circle></g><g><circle cx="10.16" cy="10.16" r="1" fill="black"></circle><circle cx="17.78" cy="10.16" r="1" fill="black"></circle></g></g><g><circle cx="2.54" cy="15.24" r="1" fill="black"></circle><g><circle cx="5.08" cy="15.24" r="1" fill="black"></circle><circle cx="7.62" cy="15.24" r="1" fill="black"></circle></g><g><circle cx="10.16" cy="15.24" r="1" fill="black"></circle><circle cx="17.78" cy="15.24" r="1" fill="black"></circle></g></g><g><circle cx="2.54" cy="20.32" r="1" fill="black"></circle><g><circle cx="5.08" cy="20.32" r="1" fill="black"></circle><circle cx="7.62" cy="20.32" r="1" fill="black"></circle></g><g><circle cx="10.16" cy="20.32" r="1" fill="black"></circle><circle cx="17.78" cy="20.32" r="1" fill="black"></circle></g></g></g></svg>