<?xml version="1.0" encoding="UTF-8" standalone="no"?>
<svg xmlns="http://www.w3.org/2000/svg" version="1.2" xmlns:xlink="http://www.w3.org/1999/xlink" width="28.780001640319824" height="21.15999984741211"><g><g><circle cx="2.54" cy="2.54" r="1" fill="black"></circle><g><circle cx="5.08" cy="2.54" r="1" fill="black"></circle><circle cx="7.62" cy="2.54" r="1" fill="black"></circle></g><g><circle cx="10.16" cy="2.54" r="1" fill="black"></circle><circle cx="17.78" cy="2.54" r="1" fill="black"></circle></g></g><g><circle cx="2.54" cy="5.08" r="1" fill="black"></circle><g><circle cx="5.08" cy="5.08" r="1" fill="black"></circle><circle cx="7.62" cy="5.08" r="1" fill="black"></circle></g><g><circle cx="10.16" cy="5.08" r="1" fill="black"></circle><circle cx="17.78" cy="5.08" r="1" fill="black"></circle></g></g><g><circle cx="2.54" cy="7.62" r="1" fill="black"></circle><g><circle cx="5.08" cy="7.62" r="1" fill="black"></circle><circle cx="7.62" cy="7.62" r="1" fill="black"></circle></g><g><circle cx="10.16" cy="7.62" r="1" fill="black"></circle><circle cx="17.78" cy="7.62" r="1" fill="black"></circle></g></g><g><circle cx="2.54" cy="10.16" r="1" fill="black"></circle><g><circle cx="5.08" cy="10.16" r="1" fill="black"></circle><circle cx="7.62" cy="10.16" r="1" fill="black"></circle></g><g><circle cx="10.16" cy="10.16" r="1" fill="black"></circle><circle cx="17.78" cy="10.16" r="1" fill="black"></circle></g></g></g></svg>