solid OpenSCAD_Model
  facet normal 1 0 0
    outer loop
      vertex 20 -1.5 5
      vertex 20 -3 5
      vertex 20 -1.5 -3.5
    endloop
  endfacet
  facet normal 1 0 0
    outer loop
      vertex 20 1.5 -3.5
      vertex 20 3 5
      vertex 20 1.5 5
    endloop
  endfacet
  facet normal 1 0 0
    outer loop
      vertex 20 3 5
      vertex 20 1.5 -3.5
      vertex 20 3 -5
    endloop
  endfacet
  facet normal 1 -0 0
    outer loop
      vertex 20 -1.5 -3.5
      vertex 20 3 -5
      vertex 20 1.5 -3.5
    endloop
  endfacet
  facet normal 1 0 0
    outer loop
      vertex 20 -1.5 -3.5
      vertex 20 -3 -5
      vertex 20 3 -5
    endloop
  endfacet
  facet normal 1 0 0
    outer loop
      vertex 20 -3 -5
      vertex 20 -1.5 -3.5
      vertex 20 -3 5
    endloop
  endfacet
  facet normal 0 0 1
    outer loop
      vertex -1.5 -1.5 5
      vertex -3 -3 5
      vertex -1.5 -20 5
    endloop
  endfacet
  facet normal -0 0 1
    outer loop
      vertex -20 -1.5 5
      vertex -3 -3 5
      vertex -1.5 -1.5 5
    endloop
  endfacet
  facet normal 0 0 1
    outer loop
      vertex -3 -3 5
      vertex -20 -1.5 5
      vertex -20 -3 5
    endloop
  endfacet
  facet normal 0 0 1
    outer loop
      vertex -1.5 -20 5
      vertex -3 -3 5
      vertex -3 -20 5
    endloop
  endfacet
  facet normal 0 0 1
    outer loop
      vertex -3 3 5
      vertex -1.5 20 5
      vertex -3 20 5
    endloop
  endfacet
  facet normal 0 0 1
    outer loop
      vertex -1.5 20 5
      vertex -3 3 5
      vertex -1.5 1.5 5
    endloop
  endfacet
  facet normal 0 0 1
    outer loop
      vertex -20 1.5 5
      vertex -3 3 5
      vertex -20 3 5
    endloop
  endfacet
  facet normal 0 0 1
    outer loop
      vertex -3 3 5
      vertex -20 1.5 5
      vertex -1.5 1.5 5
    endloop
  endfacet
  facet normal 0 0 1
    outer loop
      vertex 20 -1.5 5
      vertex 3 -3 5
      vertex 20 -3 5
    endloop
  endfacet
  facet normal -0 0 1
    outer loop
      vertex 1.5 -1.5 5
      vertex 3 -3 5
      vertex 20 -1.5 5
    endloop
  endfacet
  facet normal 0 0 1
    outer loop
      vertex 1.5 -20 5
      vertex 3 -3 5
      vertex 1.5 -1.5 5
    endloop
  endfacet
  facet normal 0 0 1
    outer loop
      vertex 3 -3 5
      vertex 1.5 -20 5
      vertex 3 -20 5
    endloop
  endfacet
  facet normal 0 0 1
    outer loop
      vertex 3 20 5
      vertex 1.5 20 5
      vertex 3 3 5
    endloop
  endfacet
  facet normal -0 0 1
    outer loop
      vertex 3 3 5
      vertex 20 1.5 5
      vertex 20 3 5
    endloop
  endfacet
  facet normal 0 0 1
    outer loop
      vertex 3 3 5
      vertex 1.5 1.5 5
      vertex 20 1.5 5
    endloop
  endfacet
  facet normal 0 0 1
    outer loop
      vertex 1.5 1.5 5
      vertex 3 3 5
      vertex 1.5 20 5
    endloop
  endfacet
  facet normal 0 0 -1
    outer loop
      vertex -20 -3 -5
      vertex -3 3 -5
      vertex -3 -3 -5
    endloop
  endfacet
  facet normal -0 0 -1
    outer loop
      vertex -3 3 -5
      vertex -20 -3 -5
      vertex -20 3 -5
    endloop
  endfacet
  facet normal 0 0 -1
    outer loop
      vertex -3 -3 -5
      vertex 3 -3 -5
      vertex 3 -20 -5
    endloop
  endfacet
  facet normal 0 0 -1
    outer loop
      vertex 3 -3 -5
      vertex -3 -3 -5
      vertex 3 3 -5
    endloop
  endfacet
  facet normal 0 0 -1
    outer loop
      vertex -3 -3 -5
      vertex 3 -20 -5
      vertex -3 -20 -5
    endloop
  endfacet
  facet normal 0 0 -1
    outer loop
      vertex -3 3 -5
      vertex 3 3 -5
      vertex -3 -3 -5
    endloop
  endfacet
  facet normal 0 0 -1
    outer loop
      vertex 3 3 -5
      vertex -3 3 -5
      vertex 3 20 -5
    endloop
  endfacet
  facet normal -0 0 -1
    outer loop
      vertex 3 20 -5
      vertex -3 3 -5
      vertex -3 20 -5
    endloop
  endfacet
  facet normal 0 0 -1
    outer loop
      vertex 3 -3 -5
      vertex 20 3 -5
      vertex 20 -3 -5
    endloop
  endfacet
  facet normal -0 0 -1
    outer loop
      vertex 20 3 -5
      vertex 3 -3 -5
      vertex 3 3 -5
    endloop
  endfacet
  facet normal -1 0 0
    outer loop
      vertex -20 3 -5
      vertex -20 1.5 -3.5
      vertex -20 3 5
    endloop
  endfacet
  facet normal -1 0 0
    outer loop
      vertex -20 3 -5
      vertex -20 -1.5 -3.5
      vertex -20 1.5 -3.5
    endloop
  endfacet
  facet normal -1 0 0
    outer loop
      vertex -20 -3 -5
      vertex -20 -1.5 -3.5
      vertex -20 3 -5
    endloop
  endfacet
  facet normal -1 0 0
    outer loop
      vertex -20 -3 5
      vertex -20 -1.5 -3.5
      vertex -20 -3 -5
    endloop
  endfacet
  facet normal -1 0 0
    outer loop
      vertex -20 -1.5 -3.5
      vertex -20 -3 5
      vertex -20 -1.5 5
    endloop
  endfacet
  facet normal -1 -0 0
    outer loop
      vertex -20 3 5
      vertex -20 1.5 -3.5
      vertex -20 1.5 5
    endloop
  endfacet
  facet normal 0 1 -0
    outer loop
      vertex -3 3 -5
      vertex -20 3 5
      vertex -3 3 5
    endloop
  endfacet
  facet normal 0 1 0
    outer loop
      vertex -20 3 5
      vertex -3 3 -5
      vertex -20 3 -5
    endloop
  endfacet
  facet normal 0 1 -0
    outer loop
      vertex 20 3 -5
      vertex 3 3 5
      vertex 20 3 5
    endloop
  endfacet
  facet normal 0 1 0
    outer loop
      vertex 3 3 5
      vertex 20 3 -5
      vertex 3 3 -5
    endloop
  endfacet
  facet normal 0 -1 0
    outer loop
      vertex -20 -3 -5
      vertex -3 -3 5
      vertex -20 -3 5
    endloop
  endfacet
  facet normal 0 -1 -0
    outer loop
      vertex -3 -3 5
      vertex -20 -3 -5
      vertex -3 -3 -5
    endloop
  endfacet
  facet normal 0 -1 0
    outer loop
      vertex 3 -3 -5
      vertex 20 -3 5
      vertex 3 -3 5
    endloop
  endfacet
  facet normal 0 -1 -0
    outer loop
      vertex 20 -3 5
      vertex 3 -3 -5
      vertex 20 -3 -5
    endloop
  endfacet
  facet normal 0 1 0
    outer loop
      vertex 3 20 5
      vertex 1.5 20 -3.5
      vertex 1.5 20 5
    endloop
  endfacet
  facet normal 0 1 0
    outer loop
      vertex 1.5 20 -3.5
      vertex 3 20 -5
      vertex -1.5 20 -3.5
    endloop
  endfacet
  facet normal 0 1 -0
    outer loop
      vertex 3 20 -5
      vertex 1.5 20 -3.5
      vertex 3 20 5
    endloop
  endfacet
  facet normal 0 1 -0
    outer loop
      vertex -1.5 20 -3.5
      vertex -3 20 5
      vertex -1.5 20 5
    endloop
  endfacet
  facet normal 0 1 0
    outer loop
      vertex -1.5 20 -3.5
      vertex -3 20 -5
      vertex -3 20 5
    endloop
  endfacet
  facet normal 0 1 0
    outer loop
      vertex -3 20 -5
      vertex -1.5 20 -3.5
      vertex 3 20 -5
    endloop
  endfacet
  facet normal 0 -1 0
    outer loop
      vertex -3 -20 5
      vertex -1.5 -20 -3.5
      vertex -1.5 -20 5
    endloop
  endfacet
  facet normal 0 -1 -0
    outer loop
      vertex -1.5 -20 -3.5
      vertex -3 -20 -5
      vertex 1.5 -20 -3.5
    endloop
  endfacet
  facet normal 0 -1 0
    outer loop
      vertex -3 -20 -5
      vertex -1.5 -20 -3.5
      vertex -3 -20 5
    endloop
  endfacet
  facet normal 0 -1 0
    outer loop
      vertex 1.5 -20 -3.5
      vertex 3 -20 5
      vertex 1.5 -20 5
    endloop
  endfacet
  facet normal 0 -1 0
    outer loop
      vertex 1.5 -20 -3.5
      vertex 3 -20 -5
      vertex 3 -20 5
    endloop
  endfacet
  facet normal 0 -1 0
    outer loop
      vertex 3 -20 -5
      vertex 1.5 -20 -3.5
      vertex -3 -20 -5
    endloop
  endfacet
  facet normal -1 0 0
    outer loop
      vertex -3 -20 -5
      vertex -3 -3 5
      vertex -3 -3 -5
    endloop
  endfacet
  facet normal -1 -0 0
    outer loop
      vertex -3 -3 5
      vertex -3 -20 -5
      vertex -3 -20 5
    endloop
  endfacet
  facet normal -1 0 0
    outer loop
      vertex -3 3 -5
      vertex -3 20 5
      vertex -3 20 -5
    endloop
  endfacet
  facet normal -1 -0 0
    outer loop
      vertex -3 20 5
      vertex -3 3 -5
      vertex -3 3 5
    endloop
  endfacet
  facet normal 1 -0 0
    outer loop
      vertex 3 -20 5
      vertex 3 -3 -5
      vertex 3 -3 5
    endloop
  endfacet
  facet normal 1 0 0
    outer loop
      vertex 3 -3 -5
      vertex 3 -20 5
      vertex 3 -20 -5
    endloop
  endfacet
  facet normal 1 -0 0
    outer loop
      vertex 3 3 5
      vertex 3 20 -5
      vertex 3 20 5
    endloop
  endfacet
  facet normal 1 0 0
    outer loop
      vertex 3 20 -5
      vertex 3 3 5
      vertex 3 3 -5
    endloop
  endfacet
  facet normal -0 0 1
    outer loop
      vertex -20 1.5 -3.5
      vertex -1.5 -1.5 -3.5
      vertex -1.5 1.5 -3.5
    endloop
  endfacet
  facet normal 0 0 1
    outer loop
      vertex -1.5 -1.5 -3.5
      vertex -20 1.5 -3.5
      vertex -20 -1.5 -3.5
    endloop
  endfacet
  facet normal 0 0 1
    outer loop
      vertex -1.5 1.5 -3.5
      vertex 1.5 1.5 -3.5
      vertex 1.5 20 -3.5
    endloop
  endfacet
  facet normal 0 0 1
    outer loop
      vertex 1.5 1.5 -3.5
      vertex -1.5 1.5 -3.5
      vertex 1.5 -1.5 -3.5
    endloop
  endfacet
  facet normal 0 0 1
    outer loop
      vertex -1.5 1.5 -3.5
      vertex 1.5 20 -3.5
      vertex -1.5 20 -3.5
    endloop
  endfacet
  facet normal 0 0 1
    outer loop
      vertex -1.5 -1.5 -3.5
      vertex 1.5 -1.5 -3.5
      vertex -1.5 1.5 -3.5
    endloop
  endfacet
  facet normal 0 0 1
    outer loop
      vertex 1.5 -1.5 -3.5
      vertex -1.5 -1.5 -3.5
      vertex 1.5 -20 -3.5
    endloop
  endfacet
  facet normal 0 0 1
    outer loop
      vertex 1.5 -20 -3.5
      vertex -1.5 -1.5 -3.5
      vertex -1.5 -20 -3.5
    endloop
  endfacet
  facet normal -0 0 1
    outer loop
      vertex 1.5 1.5 -3.5
      vertex 20 -1.5 -3.5
      vertex 20 1.5 -3.5
    endloop
  endfacet
  facet normal 0 0 1
    outer loop
      vertex 20 -1.5 -3.5
      vertex 1.5 1.5 -3.5
      vertex 1.5 -1.5 -3.5
    endloop
  endfacet
  facet normal 0 -1 0
    outer loop
      vertex -20 1.5 -3.5
      vertex -1.5 1.5 5
      vertex -20 1.5 5
    endloop
  endfacet
  facet normal 0 -1 -0
    outer loop
      vertex -1.5 1.5 5
      vertex -20 1.5 -3.5
      vertex -1.5 1.5 -3.5
    endloop
  endfacet
  facet normal 0 -1 0
    outer loop
      vertex 1.5 1.5 -3.5
      vertex 20 1.5 5
      vertex 1.5 1.5 5
    endloop
  endfacet
  facet normal 0 -1 -0
    outer loop
      vertex 20 1.5 5
      vertex 1.5 1.5 -3.5
      vertex 20 1.5 -3.5
    endloop
  endfacet
  facet normal 0 1 -0
    outer loop
      vertex -1.5 -1.5 -3.5
      vertex -20 -1.5 5
      vertex -1.5 -1.5 5
    endloop
  endfacet
  facet normal 0 1 0
    outer loop
      vertex -20 -1.5 5
      vertex -1.5 -1.5 -3.5
      vertex -20 -1.5 -3.5
    endloop
  endfacet
  facet normal 0 1 -0
    outer loop
      vertex 20 -1.5 -3.5
      vertex 1.5 -1.5 5
      vertex 20 -1.5 5
    endloop
  endfacet
  facet normal 0 1 0
    outer loop
      vertex 1.5 -1.5 5
      vertex 20 -1.5 -3.5
      vertex 1.5 -1.5 -3.5
    endloop
  endfacet
  facet normal 1 -0 0
    outer loop
      vertex -1.5 -20 5
      vertex -1.5 -1.5 -3.5
      vertex -1.5 -1.5 5
    endloop
  endfacet
  facet normal 1 0 0
    outer loop
      vertex -1.5 -1.5 -3.5
      vertex -1.5 -20 5
      vertex -1.5 -20 -3.5
    endloop
  endfacet
  facet normal 1 -0 0
    outer loop
      vertex -1.5 1.5 5
      vertex -1.5 20 -3.5
      vertex -1.5 20 5
    endloop
  endfacet
  facet normal 1 0 0
    outer loop
      vertex -1.5 20 -3.5
      vertex -1.5 1.5 5
      vertex -1.5 1.5 -3.5
    endloop
  endfacet
  facet normal -1 0 0
    outer loop
      vertex 1.5 -20 -3.5
      vertex 1.5 -1.5 5
      vertex 1.5 -1.5 -3.5
    endloop
  endfacet
  facet normal -1 -0 0
    outer loop
      vertex 1.5 -1.5 5
      vertex 1.5 -20 -3.5
      vertex 1.5 -20 5
    endloop
  endfacet
  facet normal -1 0 0
    outer loop
      vertex 1.5 1.5 -3.5
      vertex 1.5 20 5
      vertex 1.5 20 -3.5
    endloop
  endfacet
  facet normal -1 -0 0
    outer loop
      vertex 1.5 20 5
      vertex 1.5 1.5 -3.5
      vertex 1.5 1.5 5
    endloop
  endfacet
  facet normal 0 0 1
    outer loop
      vertex 48.5 -1.5 5
      vertex 47 -3 5
      vertex 48.5 -20 5
    endloop
  endfacet
  facet normal -0 0 1
    outer loop
      vertex 30 -1.5 5
      vertex 47 -3 5
      vertex 48.5 -1.5 5
    endloop
  endfacet
  facet normal 0 0 1
    outer loop
      vertex 47 -3 5
      vertex 30 -1.5 5
      vertex 30 -3 5
    endloop
  endfacet
  facet normal 0 0 1
    outer loop
      vertex 48.5 -20 5
      vertex 47 -3 5
      vertex 47 -20 5
    endloop
  endfacet
  facet normal 0 0 1
    outer loop
      vertex 47 3 5
      vertex 48.5 20 5
      vertex 47 20 5
    endloop
  endfacet
  facet normal 0 0 1
    outer loop
      vertex 48.5 20 5
      vertex 47 3 5
      vertex 48.5 1.5 5
    endloop
  endfacet
  facet normal 0 0 1
    outer loop
      vertex 30 1.5 5
      vertex 47 3 5
      vertex 30 3 5
    endloop
  endfacet
  facet normal 0 0 1
    outer loop
      vertex 47 3 5
      vertex 30 1.5 5
      vertex 48.5 1.5 5
    endloop
  endfacet
  facet normal 0 0 1
    outer loop
      vertex 53.01 -1.5 5
      vertex 53 -3 5
      vertex 53.01 -3 5
    endloop
  endfacet
  facet normal -0 0 1
    outer loop
      vertex 51.5 -1.5 5
      vertex 53 -3 5
      vertex 53.01 -1.5 5
    endloop
  endfacet
  facet normal 0 0 1
    outer loop
      vertex 51.5 -20 5
      vertex 53 -3 5
      vertex 51.5 -1.5 5
    endloop
  endfacet
  facet normal 0 0 1
    outer loop
      vertex 53 -3 5
      vertex 51.5 -20 5
      vertex 53 -20 5
    endloop
  endfacet
  facet normal 0 0 1
    outer loop
      vertex 53 20 5
      vertex 51.5 20 5
      vertex 53 3 5
    endloop
  endfacet
  facet normal -0 0 1
    outer loop
      vertex 53 3 5
      vertex 53.01 1.5 5
      vertex 53.01 3 5
    endloop
  endfacet
  facet normal 0 0 1
    outer loop
      vertex 51.5 1.5 5
      vertex 53 3 5
      vertex 51.5 20 5
    endloop
  endfacet
  facet normal 0 0 1
    outer loop
      vertex 53 3 5
      vertex 51.5 1.5 5
      vertex 53.01 1.5 5
    endloop
  endfacet
  facet normal 0 0 -1
    outer loop
      vertex 30 -3 -5
      vertex 47 3 -5
      vertex 47 -3 -5
    endloop
  endfacet
  facet normal -0 0 -1
    outer loop
      vertex 47 3 -5
      vertex 30 -3 -5
      vertex 30 3 -5
    endloop
  endfacet
  facet normal 0 0 -1
    outer loop
      vertex 47 -3 -5
      vertex 53 -3 -5
      vertex 53 -20 -5
    endloop
  endfacet
  facet normal 0 0 -1
    outer loop
      vertex 53 -3 -5
      vertex 47 -3 -5
      vertex 53 3 -5
    endloop
  endfacet
  facet normal 0 0 -1
    outer loop
      vertex 47 -3 -5
      vertex 53 -20 -5
      vertex 47 -20 -5
    endloop
  endfacet
  facet normal 0 0 -1
    outer loop
      vertex 47 3 -5
      vertex 53 3 -5
      vertex 47 -3 -5
    endloop
  endfacet
  facet normal 0 0 -1
    outer loop
      vertex 53 3 -5
      vertex 47 3 -5
      vertex 53 20 -5
    endloop
  endfacet
  facet normal -0 0 -1
    outer loop
      vertex 53 20 -5
      vertex 47 3 -5
      vertex 47 20 -5
    endloop
  endfacet
  facet normal 0 0 -1
    outer loop
      vertex 53 -3 -5
      vertex 53.01 3 -5
      vertex 53.01 -3 -5
    endloop
  endfacet
  facet normal -0 0 -1
    outer loop
      vertex 53.01 3 -5
      vertex 53 -3 -5
      vertex 53 3 -5
    endloop
  endfacet
  facet normal -1 0 0
    outer loop
      vertex 30 3 -5
      vertex 30 1.5 -3.5
      vertex 30 3 5
    endloop
  endfacet
  facet normal -1 0 0
    outer loop
      vertex 30 3 -5
      vertex 30 -1.5 -3.5
      vertex 30 1.5 -3.5
    endloop
  endfacet
  facet normal -1 0 0
    outer loop
      vertex 30 -3 -5
      vertex 30 -1.5 -3.5
      vertex 30 3 -5
    endloop
  endfacet
  facet normal -1 0 0
    outer loop
      vertex 30 -3 5
      vertex 30 -1.5 -3.5
      vertex 30 -3 -5
    endloop
  endfacet
  facet normal -1 0 0
    outer loop
      vertex 30 -1.5 -3.5
      vertex 30 -3 5
      vertex 30 -1.5 5
    endloop
  endfacet
  facet normal -1 -0 0
    outer loop
      vertex 30 3 5
      vertex 30 1.5 -3.5
      vertex 30 1.5 5
    endloop
  endfacet
  facet normal 0 1 -0
    outer loop
      vertex 47 3 -5
      vertex 30 3 5
      vertex 47 3 5
    endloop
  endfacet
  facet normal 0 1 0
    outer loop
      vertex 30 3 5
      vertex 47 3 -5
      vertex 30 3 -5
    endloop
  endfacet
  facet normal 0 1 -0
    outer loop
      vertex 53.01 3 -5
      vertex 53 3 5
      vertex 53.01 3 5
    endloop
  endfacet
  facet normal 0 1 0
    outer loop
      vertex 53 3 5
      vertex 53.01 3 -5
      vertex 53 3 -5
    endloop
  endfacet
  facet normal 0 -1 0
    outer loop
      vertex 30 -3 -5
      vertex 47 -3 5
      vertex 30 -3 5
    endloop
  endfacet
  facet normal 0 -1 -0
    outer loop
      vertex 47 -3 5
      vertex 30 -3 -5
      vertex 47 -3 -5
    endloop
  endfacet
  facet normal 0 -1 0
    outer loop
      vertex 53 -3 -5
      vertex 53.01 -3 5
      vertex 53 -3 5
    endloop
  endfacet
  facet normal 0 -1 -0
    outer loop
      vertex 53.01 -3 5
      vertex 53 -3 -5
      vertex 53.01 -3 -5
    endloop
  endfacet
  facet normal 0 1 0
    outer loop
      vertex 53 20 5
      vertex 51.5 20 -3.5
      vertex 51.5 20 5
    endloop
  endfacet
  facet normal 0 1 0
    outer loop
      vertex 51.5 20 -3.5
      vertex 53 20 -5
      vertex 48.5 20 -3.5
    endloop
  endfacet
  facet normal 0 1 -0
    outer loop
      vertex 53 20 -5
      vertex 51.5 20 -3.5
      vertex 53 20 5
    endloop
  endfacet
  facet normal 0 1 -0
    outer loop
      vertex 48.5 20 -3.5
      vertex 47 20 5
      vertex 48.5 20 5
    endloop
  endfacet
  facet normal 0 1 0
    outer loop
      vertex 48.5 20 -3.5
      vertex 47 20 -5
      vertex 47 20 5
    endloop
  endfacet
  facet normal 0 1 0
    outer loop
      vertex 47 20 -5
      vertex 48.5 20 -3.5
      vertex 53 20 -5
    endloop
  endfacet
  facet normal 0 -1 0
    outer loop
      vertex 47 -20 5
      vertex 48.5 -20 -3.5
      vertex 48.5 -20 5
    endloop
  endfacet
  facet normal 0 -1 -0
    outer loop
      vertex 48.5 -20 -3.5
      vertex 47 -20 -5
      vertex 51.5 -20 -3.5
    endloop
  endfacet
  facet normal 0 -1 0
    outer loop
      vertex 47 -20 -5
      vertex 48.5 -20 -3.5
      vertex 47 -20 5
    endloop
  endfacet
  facet normal 0 -1 0
    outer loop
      vertex 51.5 -20 -3.5
      vertex 53 -20 5
      vertex 51.5 -20 5
    endloop
  endfacet
  facet normal 0 -1 0
    outer loop
      vertex 51.5 -20 -3.5
      vertex 53 -20 -5
      vertex 53 -20 5
    endloop
  endfacet
  facet normal 0 -1 0
    outer loop
      vertex 53 -20 -5
      vertex 51.5 -20 -3.5
      vertex 47 -20 -5
    endloop
  endfacet
  facet normal -1 0 0
    outer loop
      vertex 47 -20 -5
      vertex 47 -3 5
      vertex 47 -3 -5
    endloop
  endfacet
  facet normal -1 -0 0
    outer loop
      vertex 47 -3 5
      vertex 47 -20 -5
      vertex 47 -20 5
    endloop
  endfacet
  facet normal -1 0 0
    outer loop
      vertex 47 3 -5
      vertex 47 20 5
      vertex 47 20 -5
    endloop
  endfacet
  facet normal -1 -0 0
    outer loop
      vertex 47 20 5
      vertex 47 3 -5
      vertex 47 3 5
    endloop
  endfacet
  facet normal 1 -0 0
    outer loop
      vertex 53 -20 5
      vertex 53 -3 -5
      vertex 53 -3 5
    endloop
  endfacet
  facet normal 1 0 0
    outer loop
      vertex 53 -3 -5
      vertex 53 -20 5
      vertex 53 -20 -5
    endloop
  endfacet
  facet normal 1 -0 0
    outer loop
      vertex 53 3 5
      vertex 53 20 -5
      vertex 53 20 5
    endloop
  endfacet
  facet normal 1 0 0
    outer loop
      vertex 53 20 -5
      vertex 53 3 5
      vertex 53 3 -5
    endloop
  endfacet
  facet normal -0 0 1
    outer loop
      vertex 30 1.5 -3.5
      vertex 48.5 -1.5 -3.5
      vertex 48.5 1.5 -3.5
    endloop
  endfacet
  facet normal 0 0 1
    outer loop
      vertex 48.5 -1.5 -3.5
      vertex 30 1.5 -3.5
      vertex 30 -1.5 -3.5
    endloop
  endfacet
  facet normal 0 0 1
    outer loop
      vertex 48.5 1.5 -3.5
      vertex 51.5 1.5 -3.5
      vertex 51.5 20 -3.5
    endloop
  endfacet
  facet normal 0 0 1
    outer loop
      vertex 51.5 1.5 -3.5
      vertex 48.5 1.5 -3.5
      vertex 51.5 -1.5 -3.5
    endloop
  endfacet
  facet normal 0 0 1
    outer loop
      vertex 48.5 1.5 -3.5
      vertex 51.5 20 -3.5
      vertex 48.5 20 -3.5
    endloop
  endfacet
  facet normal 0 0 1
    outer loop
      vertex 48.5 -1.5 -3.5
      vertex 51.5 -1.5 -3.5
      vertex 48.5 1.5 -3.5
    endloop
  endfacet
  facet normal 0 0 1
    outer loop
      vertex 51.5 -1.5 -3.5
      vertex 48.5 -1.5 -3.5
      vertex 51.5 -20 -3.5
    endloop
  endfacet
  facet normal 0 0 1
    outer loop
      vertex 51.5 -20 -3.5
      vertex 48.5 -1.5 -3.5
      vertex 48.5 -20 -3.5
    endloop
  endfacet
  facet normal -0 0 1
    outer loop
      vertex 51.5 1.5 -3.5
      vertex 53.01 -1.5 -3.5
      vertex 53.01 1.5 -3.5
    endloop
  endfacet
  facet normal 0 0 1
    outer loop
      vertex 53.01 -1.5 -3.5
      vertex 51.5 1.5 -3.5
      vertex 51.5 -1.5 -3.5
    endloop
  endfacet
  facet normal 0 -1 0
    outer loop
      vertex 30 1.5 -3.5
      vertex 48.5 1.5 5
      vertex 30 1.5 5
    endloop
  endfacet
  facet normal 0 -1 -0
    outer loop
      vertex 48.5 1.5 5
      vertex 30 1.5 -3.5
      vertex 48.5 1.5 -3.5
    endloop
  endfacet
  facet normal 0 -1 0
    outer loop
      vertex 51.5 1.5 -3.5
      vertex 53.01 1.5 5
      vertex 51.5 1.5 5
    endloop
  endfacet
  facet normal 0 -1 -0
    outer loop
      vertex 53.01 1.5 5
      vertex 51.5 1.5 -3.5
      vertex 53.01 1.5 -3.5
    endloop
  endfacet
  facet normal 0 1 -0
    outer loop
      vertex 48.5 -1.5 -3.5
      vertex 30 -1.5 5
      vertex 48.5 -1.5 5
    endloop
  endfacet
  facet normal 0 1 0
    outer loop
      vertex 30 -1.5 5
      vertex 48.5 -1.5 -3.5
      vertex 30 -1.5 -3.5
    endloop
  endfacet
  facet normal 0 1 -0
    outer loop
      vertex 53.01 -1.5 -3.5
      vertex 51.5 -1.5 5
      vertex 53.01 -1.5 5
    endloop
  endfacet
  facet normal 0 1 0
    outer loop
      vertex 51.5 -1.5 5
      vertex 53.01 -1.5 -3.5
      vertex 51.5 -1.5 -3.5
    endloop
  endfacet
  facet normal 1 -0 0
    outer loop
      vertex 48.5 -20 5
      vertex 48.5 -1.5 -3.5
      vertex 48.5 -1.5 5
    endloop
  endfacet
  facet normal 1 0 0
    outer loop
      vertex 48.5 -1.5 -3.5
      vertex 48.5 -20 5
      vertex 48.5 -20 -3.5
    endloop
  endfacet
  facet normal 1 -0 0
    outer loop
      vertex 48.5 1.5 5
      vertex 48.5 20 -3.5
      vertex 48.5 20 5
    endloop
  endfacet
  facet normal 1 0 0
    outer loop
      vertex 48.5 20 -3.5
      vertex 48.5 1.5 5
      vertex 48.5 1.5 -3.5
    endloop
  endfacet
  facet normal -1 0 0
    outer loop
      vertex 51.5 -20 -3.5
      vertex 51.5 -1.5 5
      vertex 51.5 -1.5 -3.5
    endloop
  endfacet
  facet normal -1 -0 0
    outer loop
      vertex 51.5 -1.5 5
      vertex 51.5 -20 -3.5
      vertex 51.5 -20 5
    endloop
  endfacet
  facet normal -1 0 0
    outer loop
      vertex 51.5 1.5 -3.5
      vertex 51.5 20 5
      vertex 51.5 20 -3.5
    endloop
  endfacet
  facet normal -1 -0 0
    outer loop
      vertex 51.5 20 5
      vertex 51.5 1.5 -3.5
      vertex 51.5 1.5 5
    endloop
  endfacet
  facet normal 1 0 0
    outer loop
      vertex 53.01 -1.5 5
      vertex 53.01 -3 5
      vertex 53.01 -1.5 -3.5
    endloop
  endfacet
  facet normal 1 0 0
    outer loop
      vertex 53.01 1.5 -3.5
      vertex 53.01 3 5
      vertex 53.01 1.5 5
    endloop
  endfacet
  facet normal 1 0 0
    outer loop
      vertex 53.01 3 5
      vertex 53.01 1.5 -3.5
      vertex 53.01 3 -5
    endloop
  endfacet
  facet normal 1 -0 0
    outer loop
      vertex 53.01 -1.5 -3.5
      vertex 53.01 3 -5
      vertex 53.01 1.5 -3.5
    endloop
  endfacet
  facet normal 1 0 0
    outer loop
      vertex 53.01 -1.5 -3.5
      vertex 53.01 -3 -5
      vertex 53.01 3 -5
    endloop
  endfacet
  facet normal 1 0 0
    outer loop
      vertex 53.01 -3 -5
      vertex 53.01 -1.5 -3.5
      vertex 53.01 -3 5
    endloop
  endfacet
  facet normal 0 0 1
    outer loop
      vertex 78.5 -1.5 5
      vertex 77 -3 5
      vertex 78.5 -20 5
    endloop
  endfacet
  facet normal -0 0 1
    outer loop
      vertex 60 -1.5 5
      vertex 77 -3 5
      vertex 78.5 -1.5 5
    endloop
  endfacet
  facet normal 0 0 1
    outer loop
      vertex 77 -3 5
      vertex 60 -1.5 5
      vertex 60 -3 5
    endloop
  endfacet
  facet normal 0 0 1
    outer loop
      vertex 78.5 -20 5
      vertex 77 -3 5
      vertex 77 -20 5
    endloop
  endfacet
  facet normal 0 0 1
    outer loop
      vertex 83.01 -1.5 5
      vertex 83 -3 5
      vertex 83.01 -3 5
    endloop
  endfacet
  facet normal -0 0 1
    outer loop
      vertex 81.5 -1.5 5
      vertex 83 -3 5
      vertex 83.01 -1.5 5
    endloop
  endfacet
  facet normal 0 0 1
    outer loop
      vertex 81.5 -20 5
      vertex 83 -3 5
      vertex 81.5 -1.5 5
    endloop
  endfacet
  facet normal 0 0 1
    outer loop
      vertex 83 -3 5
      vertex 81.5 -20 5
      vertex 83 -20 5
    endloop
  endfacet
  facet normal -0 0 1
    outer loop
      vertex 76.99 3 5
      vertex 78.5 1.5 5
      vertex 78.5 3 5
    endloop
  endfacet
  facet normal 0 0 1
    outer loop
      vertex 60 1.5 5
      vertex 76.99 3 5
      vertex 60 3 5
    endloop
  endfacet
  facet normal 0 0 1
    outer loop
      vertex 76.99 3 5
      vertex 60 1.5 5
      vertex 78.5 1.5 5
    endloop
  endfacet
  facet normal -0 0 1
    outer loop
      vertex 81.5 3 5
      vertex 83.01 1.5 5
      vertex 83.01 3 5
    endloop
  endfacet
  facet normal 0 0 1
    outer loop
      vertex 83.01 1.5 5
      vertex 81.5 3 5
      vertex 81.5 1.5 5
    endloop
  endfacet
  facet normal 0 0 -1
    outer loop
      vertex 83 -20 -5
      vertex 77 -20 -5
      vertex 83 -3 -5
    endloop
  endfacet
  facet normal 0 0 -1
    outer loop
      vertex 83 -3 -5
      vertex 83.01 3 -5
      vertex 83.01 -3 -5
    endloop
  endfacet
  facet normal 0 0 -1
    outer loop
      vertex 77 -3 -5
      vertex 83 -3 -5
      vertex 77 -20 -5
    endloop
  endfacet
  facet normal 0 0 -1
    outer loop
      vertex 83 -3 -5
      vertex 77 -3 -5
      vertex 83.01 3 -5
    endloop
  endfacet
  facet normal 0 0 -1
    outer loop
      vertex 77 -3 -5
      vertex 76.99 3 -5
      vertex 83.01 3 -5
    endloop
  endfacet
  facet normal 0 0 -1
    outer loop
      vertex 60 -3 -5
      vertex 76.99 3 -5
      vertex 77 -3 -5
    endloop
  endfacet
  facet normal -0 0 -1
    outer loop
      vertex 76.99 3 -5
      vertex 60 -3 -5
      vertex 60 3 -5
    endloop
  endfacet
  facet normal -1 0 0
    outer loop
      vertex 60 3 -5
      vertex 60 1.5 -3.5
      vertex 60 3 5
    endloop
  endfacet
  facet normal -1 0 0
    outer loop
      vertex 60 3 -5
      vertex 60 -1.5 -3.5
      vertex 60 1.5 -3.5
    endloop
  endfacet
  facet normal -1 0 0
    outer loop
      vertex 60 -3 -5
      vertex 60 -1.5 -3.5
      vertex 60 3 -5
    endloop
  endfacet
  facet normal -1 0 0
    outer loop
      vertex 60 -3 5
      vertex 60 -1.5 -3.5
      vertex 60 -3 -5
    endloop
  endfacet
  facet normal -1 0 0
    outer loop
      vertex 60 -1.5 -3.5
      vertex 60 -3 5
      vertex 60 -1.5 5
    endloop
  endfacet
  facet normal -1 -0 0
    outer loop
      vertex 60 3 5
      vertex 60 1.5 -3.5
      vertex 60 1.5 5
    endloop
  endfacet
  facet normal 0 1 -0
    outer loop
      vertex 76.99 3 -5
      vertex 60 3 5
      vertex 76.99 3 5
    endloop
  endfacet
  facet normal 0 1 0
    outer loop
      vertex 60 3 5
      vertex 76.99 3 -5
      vertex 60 3 -5
    endloop
  endfacet
  facet normal 0 1 0
    outer loop
      vertex 83.01 3 5
      vertex 81.5 3 -3.5
      vertex 81.5 3 5
    endloop
  endfacet
  facet normal 0 1 0
    outer loop
      vertex 81.5 3 -3.5
      vertex 83.01 3 -5
      vertex 78.5 3 -3.5
    endloop
  endfacet
  facet normal 0 1 -0
    outer loop
      vertex 83.01 3 -5
      vertex 81.5 3 -3.5
      vertex 83.01 3 5
    endloop
  endfacet
  facet normal 0 1 -0
    outer loop
      vertex 78.5 3 -3.5
      vertex 76.99 3 5
      vertex 78.5 3 5
    endloop
  endfacet
  facet normal 0 1 0
    outer loop
      vertex 78.5 3 -3.5
      vertex 76.99 3 -5
      vertex 76.99 3 5
    endloop
  endfacet
  facet normal 0 1 0
    outer loop
      vertex 76.99 3 -5
      vertex 78.5 3 -3.5
      vertex 83.01 3 -5
    endloop
  endfacet
  facet normal 0 -1 0
    outer loop
      vertex 60 -3 -5
      vertex 77 -3 5
      vertex 60 -3 5
    endloop
  endfacet
  facet normal 0 -1 -0
    outer loop
      vertex 77 -3 5
      vertex 60 -3 -5
      vertex 77 -3 -5
    endloop
  endfacet
  facet normal 0 -1 0
    outer loop
      vertex 83 -3 -5
      vertex 83.01 -3 5
      vertex 83 -3 5
    endloop
  endfacet
  facet normal 0 -1 -0
    outer loop
      vertex 83.01 -3 5
      vertex 83 -3 -5
      vertex 83.01 -3 -5
    endloop
  endfacet
  facet normal 0 -1 0
    outer loop
      vertex 77 -20 5
      vertex 78.5 -20 -3.5
      vertex 78.5 -20 5
    endloop
  endfacet
  facet normal 0 -1 -0
    outer loop
      vertex 78.5 -20 -3.5
      vertex 77 -20 -5
      vertex 81.5 -20 -3.5
    endloop
  endfacet
  facet normal 0 -1 0
    outer loop
      vertex 77 -20 -5
      vertex 78.5 -20 -3.5
      vertex 77 -20 5
    endloop
  endfacet
  facet normal 0 -1 0
    outer loop
      vertex 81.5 -20 -3.5
      vertex 83 -20 5
      vertex 81.5 -20 5
    endloop
  endfacet
  facet normal 0 -1 0
    outer loop
      vertex 81.5 -20 -3.5
      vertex 83 -20 -5
      vertex 83 -20 5
    endloop
  endfacet
  facet normal 0 -1 0
    outer loop
      vertex 83 -20 -5
      vertex 81.5 -20 -3.5
      vertex 77 -20 -5
    endloop
  endfacet
  facet normal -1 0 0
    outer loop
      vertex 77 -20 -5
      vertex 77 -3 5
      vertex 77 -3 -5
    endloop
  endfacet
  facet normal -1 -0 0
    outer loop
      vertex 77 -3 5
      vertex 77 -20 -5
      vertex 77 -20 5
    endloop
  endfacet
  facet normal 1 -0 0
    outer loop
      vertex 83 -20 5
      vertex 83 -3 -5
      vertex 83 -3 5
    endloop
  endfacet
  facet normal 1 0 0
    outer loop
      vertex 83 -3 -5
      vertex 83 -20 5
      vertex 83 -20 -5
    endloop
  endfacet
  facet normal -0 0 1
    outer loop
      vertex 60 1.5 -3.5
      vertex 78.5 -1.5 -3.5
      vertex 78.5 1.5 -3.5
    endloop
  endfacet
  facet normal 0 0 1
    outer loop
      vertex 78.5 -1.5 -3.5
      vertex 60 1.5 -3.5
      vertex 60 -1.5 -3.5
    endloop
  endfacet
  facet normal 0 0 1
    outer loop
      vertex 78.5 1.5 -3.5
      vertex 81.5 1.5 -3.5
      vertex 81.5 3 -3.5
    endloop
  endfacet
  facet normal 0 0 1
    outer loop
      vertex 81.5 1.5 -3.5
      vertex 78.5 1.5 -3.5
      vertex 81.5 -1.5 -3.5
    endloop
  endfacet
  facet normal 0 0 1
    outer loop
      vertex 78.5 1.5 -3.5
      vertex 81.5 3 -3.5
      vertex 78.5 3 -3.5
    endloop
  endfacet
  facet normal 0 0 1
    outer loop
      vertex 81.5 -1.5 -3.5
      vertex 78.5 1.5 -3.5
      vertex 78.5 -1.5 -3.5
    endloop
  endfacet
  facet normal 0 0 1
    outer loop
      vertex 81.5 -1.5 -3.5
      vertex 78.5 -1.5 -3.5
      vertex 81.5 -20 -3.5
    endloop
  endfacet
  facet normal 0 0 1
    outer loop
      vertex 81.5 -20 -3.5
      vertex 78.5 -1.5 -3.5
      vertex 78.5 -20 -3.5
    endloop
  endfacet
  facet normal -0 0 1
    outer loop
      vertex 81.5 1.5 -3.5
      vertex 83.01 -1.5 -3.5
      vertex 83.01 1.5 -3.5
    endloop
  endfacet
  facet normal 0 0 1
    outer loop
      vertex 83.01 -1.5 -3.5
      vertex 81.5 1.5 -3.5
      vertex 81.5 -1.5 -3.5
    endloop
  endfacet
  facet normal 0 -1 0
    outer loop
      vertex 60 1.5 -3.5
      vertex 78.5 1.5 5
      vertex 60 1.5 5
    endloop
  endfacet
  facet normal 0 -1 -0
    outer loop
      vertex 78.5 1.5 5
      vertex 60 1.5 -3.5
      vertex 78.5 1.5 -3.5
    endloop
  endfacet
  facet normal 0 -1 0
    outer loop
      vertex 81.5 1.5 -3.5
      vertex 83.01 1.5 5
      vertex 81.5 1.5 5
    endloop
  endfacet
  facet normal 0 -1 -0
    outer loop
      vertex 83.01 1.5 5
      vertex 81.5 1.5 -3.5
      vertex 83.01 1.5 -3.5
    endloop
  endfacet
  facet normal 0 1 -0
    outer loop
      vertex 78.5 -1.5 -3.5
      vertex 60 -1.5 5
      vertex 78.5 -1.5 5
    endloop
  endfacet
  facet normal 0 1 0
    outer loop
      vertex 60 -1.5 5
      vertex 78.5 -1.5 -3.5
      vertex 60 -1.5 -3.5
    endloop
  endfacet
  facet normal 0 1 -0
    outer loop
      vertex 83.01 -1.5 -3.5
      vertex 81.5 -1.5 5
      vertex 83.01 -1.5 5
    endloop
  endfacet
  facet normal 0 1 0
    outer loop
      vertex 81.5 -1.5 5
      vertex 83.01 -1.5 -3.5
      vertex 81.5 -1.5 -3.5
    endloop
  endfacet
  facet normal 1 -0 0
    outer loop
      vertex 78.5 -20 5
      vertex 78.5 -1.5 -3.5
      vertex 78.5 -1.5 5
    endloop
  endfacet
  facet normal 1 0 0
    outer loop
      vertex 78.5 -1.5 -3.5
      vertex 78.5 -20 5
      vertex 78.5 -20 -3.5
    endloop
  endfacet
  facet normal 1 -0 0
    outer loop
      vertex 78.5 1.5 5
      vertex 78.5 3 -3.5
      vertex 78.5 3 5
    endloop
  endfacet
  facet normal 1 0 0
    outer loop
      vertex 78.5 3 -3.5
      vertex 78.5 1.5 5
      vertex 78.5 1.5 -3.5
    endloop
  endfacet
  facet normal -1 0 0
    outer loop
      vertex 81.5 -20 -3.5
      vertex 81.5 -1.5 5
      vertex 81.5 -1.5 -3.5
    endloop
  endfacet
  facet normal -1 -0 0
    outer loop
      vertex 81.5 -1.5 5
      vertex 81.5 -20 -3.5
      vertex 81.5 -20 5
    endloop
  endfacet
  facet normal -1 0 0
    outer loop
      vertex 81.5 1.5 -3.5
      vertex 81.5 3 5
      vertex 81.5 3 -3.5
    endloop
  endfacet
  facet normal -1 -0 0
    outer loop
      vertex 81.5 3 5
      vertex 81.5 1.5 -3.5
      vertex 81.5 1.5 5
    endloop
  endfacet
  facet normal 1 0 0
    outer loop
      vertex 83.01 -1.5 5
      vertex 83.01 -3 5
      vertex 83.01 -1.5 -3.5
    endloop
  endfacet
  facet normal 1 0 0
    outer loop
      vertex 83.01 1.5 -3.5
      vertex 83.01 3 5
      vertex 83.01 1.5 5
    endloop
  endfacet
  facet normal 1 0 0
    outer loop
      vertex 83.01 3 5
      vertex 83.01 1.5 -3.5
      vertex 83.01 3 -5
    endloop
  endfacet
  facet normal 1 -0 0
    outer loop
      vertex 83.01 -1.5 -3.5
      vertex 83.01 3 -5
      vertex 83.01 1.5 -3.5
    endloop
  endfacet
  facet normal 1 0 0
    outer loop
      vertex 83.01 -1.5 -3.5
      vertex 83.01 -3 -5
      vertex 83.01 3 -5
    endloop
  endfacet
  facet normal 1 0 0
    outer loop
      vertex 83.01 -3 -5
      vertex 83.01 -1.5 -3.5
      vertex 83.01 -3 5
    endloop
  endfacet
endsolid OpenSCAD_Model
