solid OpenSCAD_Model
  facet normal -0 0 1
    outer loop
      vertex -10 1.25 -3.5
      vertex -1.25 -1.25 -3.5
      vertex -1.25 1.25 -3.5
    endloop
  endfacet
  facet normal 0 0 1
    outer loop
      vertex -1.25 -1.25 -3.5
      vertex -10 1.25 -3.5
      vertex -10 -1.25 -3.5
    endloop
  endfacet
  facet normal 0 0 1
    outer loop
      vertex -1.25 1.25 -3.5
      vertex 1.25 1.25 -3.5
      vertex 1.25 2.76 -3.5
    endloop
  endfacet
  facet normal 0 0 1
    outer loop
      vertex 1.25 1.25 -3.5
      vertex -1.25 1.25 -3.5
      vertex 1.25 -1.25 -3.5
    endloop
  endfacet
  facet normal 0 0 1
    outer loop
      vertex -1.25 1.25 -3.5
      vertex 1.25 2.76 -3.5
      vertex -1.25 2.76 -3.5
    endloop
  endfacet
  facet normal 0 0 1
    outer loop
      vertex 1.25 -1.25 -3.5
      vertex -1.25 1.25 -3.5
      vertex -1.25 -1.25 -3.5
    endloop
  endfacet
  facet normal 0 0 1
    outer loop
      vertex 1.25 -1.25 -3.5
      vertex -1.25 -1.25 -3.5
      vertex 1.25 -10 -3.5
    endloop
  endfacet
  facet normal 0 0 1
    outer loop
      vertex 1.25 -10 -3.5
      vertex -1.25 -1.25 -3.5
      vertex -1.25 -10 -3.5
    endloop
  endfacet
  facet normal -0 0 1
    outer loop
      vertex 1.25 1.25 -3.5
      vertex 2.76 -1.25 -3.5
      vertex 2.76 1.25 -3.5
    endloop
  endfacet
  facet normal 0 0 1
    outer loop
      vertex 2.76 -1.25 -3.5
      vertex 1.25 1.25 -3.5
      vertex 1.25 -1.25 -3.5
    endloop
  endfacet
  facet normal 0 -1 0
    outer loop
      vertex -10 1.25 -3.5
      vertex -1.25 1.25 5
      vertex -10 1.25 5
    endloop
  endfacet
  facet normal 0 -1 -0
    outer loop
      vertex -1.25 1.25 5
      vertex -10 1.25 -3.5
      vertex -1.25 1.25 -3.5
    endloop
  endfacet
  facet normal 0 -1 0
    outer loop
      vertex 1.25 1.25 -3.5
      vertex 2.76 1.25 5
      vertex 1.25 1.25 5
    endloop
  endfacet
  facet normal 0 -1 -0
    outer loop
      vertex 2.76 1.25 5
      vertex 1.25 1.25 -3.5
      vertex 2.76 1.25 -3.5
    endloop
  endfacet
  facet normal 0 1 -0
    outer loop
      vertex -1.25 -1.25 -3.5
      vertex -10 -1.25 5
      vertex -1.25 -1.25 5
    endloop
  endfacet
  facet normal 0 1 0
    outer loop
      vertex -10 -1.25 5
      vertex -1.25 -1.25 -3.5
      vertex -10 -1.25 -3.5
    endloop
  endfacet
  facet normal 0 1 -0
    outer loop
      vertex 2.76 -1.25 -3.5
      vertex 1.25 -1.25 5
      vertex 2.76 -1.25 5
    endloop
  endfacet
  facet normal 0 1 0
    outer loop
      vertex 1.25 -1.25 5
      vertex 2.76 -1.25 -3.5
      vertex 1.25 -1.25 -3.5
    endloop
  endfacet
  facet normal 1 -0 0
    outer loop
      vertex -1.25 -10 5
      vertex -1.25 -1.25 -3.5
      vertex -1.25 -1.25 5
    endloop
  endfacet
  facet normal 1 0 0
    outer loop
      vertex -1.25 -1.25 -3.5
      vertex -1.25 -10 5
      vertex -1.25 -10 -3.5
    endloop
  endfacet
  facet normal 1 -0 0
    outer loop
      vertex -1.25 1.25 5
      vertex -1.25 2.76 -3.5
      vertex -1.25 2.76 5
    endloop
  endfacet
  facet normal 1 0 0
    outer loop
      vertex -1.25 2.76 -3.5
      vertex -1.25 1.25 5
      vertex -1.25 1.25 -3.5
    endloop
  endfacet
  facet normal -1 0 0
    outer loop
      vertex 1.25 -10 -3.5
      vertex 1.25 -1.25 5
      vertex 1.25 -1.25 -3.5
    endloop
  endfacet
  facet normal -1 -0 0
    outer loop
      vertex 1.25 -1.25 5
      vertex 1.25 -10 -3.5
      vertex 1.25 -10 5
    endloop
  endfacet
  facet normal -1 0 0
    outer loop
      vertex 1.25 1.25 -3.5
      vertex 1.25 2.76 5
      vertex 1.25 2.76 -3.5
    endloop
  endfacet
  facet normal -1 -0 0
    outer loop
      vertex 1.25 2.76 5
      vertex 1.25 1.25 -3.5
      vertex 1.25 1.25 5
    endloop
  endfacet
  facet normal 0 0 1
    outer loop
      vertex -1.25 -1.25 5
      vertex -2.75 -2.75 5
      vertex -1.25 -10 5
    endloop
  endfacet
  facet normal -0 0 1
    outer loop
      vertex -10 -1.25 5
      vertex -2.75 -2.75 5
      vertex -1.25 -1.25 5
    endloop
  endfacet
  facet normal 0 0 1
    outer loop
      vertex -2.75 -2.75 5
      vertex -10 -1.25 5
      vertex -10 -2.75 5
    endloop
  endfacet
  facet normal 0 0 1
    outer loop
      vertex -1.25 -10 5
      vertex -2.75 -2.75 5
      vertex -2.75 -10 5
    endloop
  endfacet
  facet normal 0 0 1
    outer loop
      vertex 2.76 -1.25 5
      vertex 2.75 -2.75 5
      vertex 2.76 -2.75 5
    endloop
  endfacet
  facet normal -0 0 1
    outer loop
      vertex 1.25 -1.25 5
      vertex 2.75 -2.75 5
      vertex 2.76 -1.25 5
    endloop
  endfacet
  facet normal 0 0 1
    outer loop
      vertex 1.25 -10 5
      vertex 2.75 -2.75 5
      vertex 1.25 -1.25 5
    endloop
  endfacet
  facet normal 0 0 1
    outer loop
      vertex 2.75 -2.75 5
      vertex 1.25 -10 5
      vertex 2.75 -10 5
    endloop
  endfacet
  facet normal 0 0 1
    outer loop
      vertex -2.75 2.75 5
      vertex -1.25 2.76 5
      vertex -2.75 2.76 5
    endloop
  endfacet
  facet normal 0 0 1
    outer loop
      vertex -1.25 2.76 5
      vertex -2.75 2.75 5
      vertex -1.25 1.25 5
    endloop
  endfacet
  facet normal 0 0 1
    outer loop
      vertex -10 1.25 5
      vertex -2.75 2.75 5
      vertex -10 2.75 5
    endloop
  endfacet
  facet normal 0 0 1
    outer loop
      vertex -2.75 2.75 5
      vertex -10 1.25 5
      vertex -1.25 1.25 5
    endloop
  endfacet
  facet normal 0 0 1
    outer loop
      vertex 2.75 2.76 5
      vertex 1.25 2.76 5
      vertex 2.75 2.75 5
    endloop
  endfacet
  facet normal -0 0 1
    outer loop
      vertex 2.75 2.75 5
      vertex 2.76 1.25 5
      vertex 2.76 2.75 5
    endloop
  endfacet
  facet normal 0 0 1
    outer loop
      vertex 1.25 1.25 5
      vertex 2.75 2.75 5
      vertex 1.25 2.76 5
    endloop
  endfacet
  facet normal 0 0 1
    outer loop
      vertex 2.75 2.75 5
      vertex 1.25 1.25 5
      vertex 2.76 1.25 5
    endloop
  endfacet
  facet normal 0 0 -1
    outer loop
      vertex -10 -2.75 -5
      vertex -2.75 2.75 -5
      vertex -2.75 -2.75 -5
    endloop
  endfacet
  facet normal -0 0 -1
    outer loop
      vertex -2.75 2.75 -5
      vertex -10 -2.75 -5
      vertex -10 2.75 -5
    endloop
  endfacet
  facet normal 0 0 -1
    outer loop
      vertex -2.75 -2.75 -5
      vertex 2.75 -2.75 -5
      vertex 2.75 -10 -5
    endloop
  endfacet
  facet normal 0 0 -1
    outer loop
      vertex 2.75 -2.75 -5
      vertex -2.75 -2.75 -5
      vertex 2.75 2.75 -5
    endloop
  endfacet
  facet normal 0 0 -1
    outer loop
      vertex -2.75 -2.75 -5
      vertex 2.75 -10 -5
      vertex -2.75 -10 -5
    endloop
  endfacet
  facet normal 0 0 -1
    outer loop
      vertex -2.75 2.75 -5
      vertex 2.75 2.75 -5
      vertex -2.75 -2.75 -5
    endloop
  endfacet
  facet normal 0 0 -1
    outer loop
      vertex 2.75 2.75 -5
      vertex -2.75 2.75 -5
      vertex 2.75 2.76 -5
    endloop
  endfacet
  facet normal -0 0 -1
    outer loop
      vertex 2.75 2.76 -5
      vertex -2.75 2.75 -5
      vertex -2.75 2.76 -5
    endloop
  endfacet
  facet normal 0 0 -1
    outer loop
      vertex 2.75 -2.75 -5
      vertex 2.76 2.75 -5
      vertex 2.76 -2.75 -5
    endloop
  endfacet
  facet normal -0 0 -1
    outer loop
      vertex 2.76 2.75 -5
      vertex 2.75 -2.75 -5
      vertex 2.75 2.75 -5
    endloop
  endfacet
  facet normal -1 0 0
    outer loop
      vertex -10 2.75 -5
      vertex -10 1.25 -3.5
      vertex -10 2.75 5
    endloop
  endfacet
  facet normal -1 0 0
    outer loop
      vertex -10 2.75 -5
      vertex -10 -1.25 -3.5
      vertex -10 1.25 -3.5
    endloop
  endfacet
  facet normal -1 0 0
    outer loop
      vertex -10 -2.75 -5
      vertex -10 -1.25 -3.5
      vertex -10 2.75 -5
    endloop
  endfacet
  facet normal -1 0 0
    outer loop
      vertex -10 -2.75 5
      vertex -10 -1.25 -3.5
      vertex -10 -2.75 -5
    endloop
  endfacet
  facet normal -1 0 0
    outer loop
      vertex -10 -1.25 -3.5
      vertex -10 -2.75 5
      vertex -10 -1.25 5
    endloop
  endfacet
  facet normal -1 -0 0
    outer loop
      vertex -10 2.75 5
      vertex -10 1.25 -3.5
      vertex -10 1.25 5
    endloop
  endfacet
  facet normal 0 1 -0
    outer loop
      vertex -2.75 2.75 -5
      vertex -10 2.75 5
      vertex -2.75 2.75 5
    endloop
  endfacet
  facet normal 0 1 0
    outer loop
      vertex -10 2.75 5
      vertex -2.75 2.75 -5
      vertex -10 2.75 -5
    endloop
  endfacet
  facet normal 0 1 -0
    outer loop
      vertex 2.76 2.75 -5
      vertex 2.75 2.75 5
      vertex 2.76 2.75 5
    endloop
  endfacet
  facet normal 0 1 0
    outer loop
      vertex 2.75 2.75 5
      vertex 2.76 2.75 -5
      vertex 2.75 2.75 -5
    endloop
  endfacet
  facet normal 0 -1 0
    outer loop
      vertex -10 -2.75 -5
      vertex -2.75 -2.75 5
      vertex -10 -2.75 5
    endloop
  endfacet
  facet normal 0 -1 -0
    outer loop
      vertex -2.75 -2.75 5
      vertex -10 -2.75 -5
      vertex -2.75 -2.75 -5
    endloop
  endfacet
  facet normal 0 -1 0
    outer loop
      vertex 2.75 -2.75 -5
      vertex 2.76 -2.75 5
      vertex 2.75 -2.75 5
    endloop
  endfacet
  facet normal 0 -1 -0
    outer loop
      vertex 2.76 -2.75 5
      vertex 2.75 -2.75 -5
      vertex 2.76 -2.75 -5
    endloop
  endfacet
  facet normal 0 -1 0
    outer loop
      vertex -2.75 -10 5
      vertex -1.25 -10 -3.5
      vertex -1.25 -10 5
    endloop
  endfacet
  facet normal 0 -1 -0
    outer loop
      vertex -1.25 -10 -3.5
      vertex -2.75 -10 -5
      vertex 1.25 -10 -3.5
    endloop
  endfacet
  facet normal 0 -1 0
    outer loop
      vertex -2.75 -10 -5
      vertex -1.25 -10 -3.5
      vertex -2.75 -10 5
    endloop
  endfacet
  facet normal 0 -1 0
    outer loop
      vertex 1.25 -10 -3.5
      vertex 2.75 -10 5
      vertex 1.25 -10 5
    endloop
  endfacet
  facet normal 0 -1 0
    outer loop
      vertex 1.25 -10 -3.5
      vertex 2.75 -10 -5
      vertex 2.75 -10 5
    endloop
  endfacet
  facet normal 0 -1 0
    outer loop
      vertex 2.75 -10 -5
      vertex 1.25 -10 -3.5
      vertex -2.75 -10 -5
    endloop
  endfacet
  facet normal -1 0 0
    outer loop
      vertex -2.75 -10 -5
      vertex -2.75 -2.75 5
      vertex -2.75 -2.75 -5
    endloop
  endfacet
  facet normal -1 -0 0
    outer loop
      vertex -2.75 -2.75 5
      vertex -2.75 -10 -5
      vertex -2.75 -10 5
    endloop
  endfacet
  facet normal -1 0 0
    outer loop
      vertex -2.75 2.75 -5
      vertex -2.75 2.76 5
      vertex -2.75 2.76 -5
    endloop
  endfacet
  facet normal -1 -0 0
    outer loop
      vertex -2.75 2.76 5
      vertex -2.75 2.75 -5
      vertex -2.75 2.75 5
    endloop
  endfacet
  facet normal 1 -0 0
    outer loop
      vertex 2.75 -10 5
      vertex 2.75 -2.75 -5
      vertex 2.75 -2.75 5
    endloop
  endfacet
  facet normal 1 0 0
    outer loop
      vertex 2.75 -2.75 -5
      vertex 2.75 -10 5
      vertex 2.75 -10 -5
    endloop
  endfacet
  facet normal 1 -0 0
    outer loop
      vertex 2.75 2.75 5
      vertex 2.75 2.76 -5
      vertex 2.75 2.76 5
    endloop
  endfacet
  facet normal 1 0 0
    outer loop
      vertex 2.75 2.76 -5
      vertex 2.75 2.75 5
      vertex 2.75 2.75 -5
    endloop
  endfacet
  facet normal 0 1 0
    outer loop
      vertex 2.75 2.76 5
      vertex 1.25 2.76 -3.5
      vertex 1.25 2.76 5
    endloop
  endfacet
  facet normal 0 1 0
    outer loop
      vertex 1.25 2.76 -3.5
      vertex 2.75 2.76 -5
      vertex -1.25 2.76 -3.5
    endloop
  endfacet
  facet normal 0 1 -0
    outer loop
      vertex 2.75 2.76 -5
      vertex 1.25 2.76 -3.5
      vertex 2.75 2.76 5
    endloop
  endfacet
  facet normal 0 1 -0
    outer loop
      vertex -1.25 2.76 -3.5
      vertex -2.75 2.76 5
      vertex -1.25 2.76 5
    endloop
  endfacet
  facet normal 0 1 0
    outer loop
      vertex -1.25 2.76 -3.5
      vertex -2.75 2.76 -5
      vertex -2.75 2.76 5
    endloop
  endfacet
  facet normal 0 1 0
    outer loop
      vertex -2.75 2.76 -5
      vertex -1.25 2.76 -3.5
      vertex 2.75 2.76 -5
    endloop
  endfacet
  facet normal 1 0 0
    outer loop
      vertex 2.76 -1.25 5
      vertex 2.76 -2.75 5
      vertex 2.76 -1.25 -3.5
    endloop
  endfacet
  facet normal 1 0 0
    outer loop
      vertex 2.76 1.25 -3.5
      vertex 2.76 2.75 5
      vertex 2.76 1.25 5
    endloop
  endfacet
  facet normal 1 0 0
    outer loop
      vertex 2.76 2.75 5
      vertex 2.76 1.25 -3.5
      vertex 2.76 2.75 -5
    endloop
  endfacet
  facet normal 1 -0 0
    outer loop
      vertex 2.76 -1.25 -3.5
      vertex 2.76 2.75 -5
      vertex 2.76 1.25 -3.5
    endloop
  endfacet
  facet normal 1 0 0
    outer loop
      vertex 2.76 -1.25 -3.5
      vertex 2.76 -2.75 -5
      vertex 2.76 2.75 -5
    endloop
  endfacet
  facet normal 1 0 0
    outer loop
      vertex 2.76 -2.75 -5
      vertex 2.76 -1.25 -3.5
      vertex 2.76 -2.75 5
    endloop
  endfacet
endsolid OpenSCAD_Model
