solid OpenSCAD_Model
  facet normal 1 -0 0
    outer loop
      vertex 49 0 2
      vertex 49 49 0
      vertex 49 49 2
    endloop
  endfacet
  facet normal 1 0 0
    outer loop
      vertex 49 49 0
      vertex 49 0 2
      vertex 49 0 0
    endloop
  endfacet
  facet normal 0 0 1
    outer loop
      vertex 37 29 2
      vertex 24.9635 13.4266 2
      vertex 26 12 2
    endloop
  endfacet
  facet normal -0 0 1
    outer loop
      vertex 12 29 2
      vertex 24.9635 13.4266 2
      vertex 37 29 2
    endloop
  endfacet
  facet normal 0 0 1
    outer loop
      vertex 0 0 2
      vertex 23.2865 12.8817 2
      vertex 12 29 2
    endloop
  endfacet
  facet normal 0 0 1
    outer loop
      vertex 24.9635 13.4266 2
      vertex 12 29 2
      vertex 23.2865 12.8817 2
    endloop
  endfacet
  facet normal 0 0 1
    outer loop
      vertex 37 29 2
      vertex 49 49 2
      vertex 37 39 2
    endloop
  endfacet
  facet normal 0 0 1
    outer loop
      vertex 49 49 2
      vertex 12 39 2
      vertex 37 39 2
    endloop
  endfacet
  facet normal 0 0 1
    outer loop
      vertex 12 39 2
      vertex 0 49 2
      vertex 12 29 2
    endloop
  endfacet
  facet normal -0 0 1
    outer loop
      vertex 0 49 2
      vertex 12 39 2
      vertex 49 49 2
    endloop
  endfacet
  facet normal 0 0 1
    outer loop
      vertex 49 49 2
      vertex 37 29 2
      vertex 49 0 2
    endloop
  endfacet
  facet normal -0 0 1
    outer loop
      vertex 26 12 2
      vertex 49 0 2
      vertex 37 29 2
    endloop
  endfacet
  facet normal -0 0 1
    outer loop
      vertex 24.9635 10.5734 2
      vertex 49 0 2
      vertex 26 12 2
    endloop
  endfacet
  facet normal 0 0 1
    outer loop
      vertex 0 0 2
      vertex 24.9635 10.5734 2
      vertex 23.2865 11.1183 2
    endloop
  endfacet
  facet normal 0 0 1
    outer loop
      vertex 24.9635 10.5734 2
      vertex 0 0 2
      vertex 49 0 2
    endloop
  endfacet
  facet normal 0 0 1
    outer loop
      vertex 23.2865 12.8817 2
      vertex 0 0 2
      vertex 23.2865 11.1183 2
    endloop
  endfacet
  facet normal 0 0 1
    outer loop
      vertex 0 0 2
      vertex 12 29 2
      vertex 0 49 2
    endloop
  endfacet
  facet normal 0 0 -1
    outer loop
      vertex 49 0 0
      vertex 37 29 0
      vertex 49 49 0
    endloop
  endfacet
  facet normal 0 0 -1
    outer loop
      vertex 49 0 0
      vertex 26 12 0
      vertex 37 29 0
    endloop
  endfacet
  facet normal 0 0 -1
    outer loop
      vertex 49 0 0
      vertex 24.9635 10.5734 0
      vertex 26 12 0
    endloop
  endfacet
  facet normal 0 0 -1
    outer loop
      vertex 0 0 0
      vertex 24.9635 10.5734 0
      vertex 49 0 0
    endloop
  endfacet
  facet normal 0 0 -1
    outer loop
      vertex 0 0 0
      vertex 23.2865 12.8817 0
      vertex 23.2865 11.1183 0
    endloop
  endfacet
  facet normal 0 0 -1
    outer loop
      vertex 0 49 0
      vertex 12 29 0
      vertex 0 0 0
    endloop
  endfacet
  facet normal -0 0 -1
    outer loop
      vertex 23.2865 12.8817 0
      vertex 0 0 0
      vertex 12 29 0
    endloop
  endfacet
  facet normal -0 0 -1
    outer loop
      vertex 24.9635 10.5734 0
      vertex 0 0 0
      vertex 23.2865 11.1183 0
    endloop
  endfacet
  facet normal 0 0 -1
    outer loop
      vertex 37 39 0
      vertex 49 49 0
      vertex 37 29 0
    endloop
  endfacet
  facet normal 0 0 -1
    outer loop
      vertex 12 39 0
      vertex 49 49 0
      vertex 37 39 0
    endloop
  endfacet
  facet normal 0 0 -1
    outer loop
      vertex 12 39 0
      vertex 0 49 0
      vertex 49 49 0
    endloop
  endfacet
  facet normal 0 0 -1
    outer loop
      vertex 12 29 0
      vertex 0 49 0
      vertex 12 39 0
    endloop
  endfacet
  facet normal 0 0 -1
    outer loop
      vertex 24.9635 13.4266 0
      vertex 37 29 0
      vertex 26 12 0
    endloop
  endfacet
  facet normal 0 0 -1
    outer loop
      vertex 12 29 0
      vertex 24.9635 13.4266 0
      vertex 23.2865 12.8817 0
    endloop
  endfacet
  facet normal 0 0 -1
    outer loop
      vertex 24.9635 13.4266 0
      vertex 12 29 0
      vertex 37 29 0
    endloop
  endfacet
  facet normal -1 0 0
    outer loop
      vertex 0 0 0
      vertex 0 49 2
      vertex 0 49 0
    endloop
  endfacet
  facet normal -1 -0 0
    outer loop
      vertex 0 49 2
      vertex 0 0 0
      vertex 0 0 2
    endloop
  endfacet
  facet normal 0 1 -0
    outer loop
      vertex 49 49 0
      vertex 0 49 2
      vertex 49 49 2
    endloop
  endfacet
  facet normal 0 1 0
    outer loop
      vertex 0 49 2
      vertex 49 49 0
      vertex 0 49 0
    endloop
  endfacet
  facet normal 0 -1 0
    outer loop
      vertex 0 0 0
      vertex 49 0 2
      vertex 0 0 2
    endloop
  endfacet
  facet normal 0 -1 -0
    outer loop
      vertex 49 0 2
      vertex 0 0 0
      vertex 49 0 0
    endloop
  endfacet
  facet normal -1 0 0
    outer loop
      vertex 37 29 0
      vertex 37 39 2
      vertex 37 39 0
    endloop
  endfacet
  facet normal -1 -0 0
    outer loop
      vertex 37 39 2
      vertex 37 29 0
      vertex 37 29 2
    endloop
  endfacet
  facet normal 1 -0 0
    outer loop
      vertex 12 29 2
      vertex 12 39 0
      vertex 12 39 2
    endloop
  endfacet
  facet normal 1 0 0
    outer loop
      vertex 12 39 0
      vertex 12 29 2
      vertex 12 29 0
    endloop
  endfacet
  facet normal 0 -1 0
    outer loop
      vertex 12 39 0
      vertex 37 39 2
      vertex 12 39 2
    endloop
  endfacet
  facet normal 0 -1 -0
    outer loop
      vertex 37 39 2
      vertex 12 39 0
      vertex 37 39 0
    endloop
  endfacet
  facet normal 0 1 -0
    outer loop
      vertex 37 29 0
      vertex 12 29 2
      vertex 37 29 2
    endloop
  endfacet
  facet normal 0 1 0
    outer loop
      vertex 12 29 2
      vertex 37 29 0
      vertex 12 29 0
    endloop
  endfacet
  facet normal 0.309022 0.951055 -0
    outer loop
      vertex 24.9635 10.5734 0
      vertex 23.2865 11.1183 2
      vertex 24.9635 10.5734 2
    endloop
  endfacet
  facet normal 0.309022 0.951055 0
    outer loop
      vertex 23.2865 11.1183 2
      vertex 24.9635 10.5734 0
      vertex 23.2865 11.1183 0
    endloop
  endfacet
  facet normal 0.309022 -0.951055 0
    outer loop
      vertex 23.2865 12.8817 0
      vertex 24.9635 13.4266 2
      vertex 23.2865 12.8817 2
    endloop
  endfacet
  facet normal 0.309022 -0.951055 0
    outer loop
      vertex 24.9635 13.4266 2
      vertex 23.2865 12.8817 0
      vertex 24.9635 13.4266 0
    endloop
  endfacet
  facet normal -0.809013 -0.587791 0
    outer loop
      vertex 26 12 0
      vertex 24.9635 13.4266 2
      vertex 24.9635 13.4266 0
    endloop
  endfacet
  facet normal -0.809013 -0.587791 0
    outer loop
      vertex 24.9635 13.4266 2
      vertex 26 12 0
      vertex 26 12 2
    endloop
  endfacet
  facet normal 1 -0 0
    outer loop
      vertex 23.2865 11.1183 2
      vertex 23.2865 12.8817 0
      vertex 23.2865 12.8817 2
    endloop
  endfacet
  facet normal 1 0 0
    outer loop
      vertex 23.2865 12.8817 0
      vertex 23.2865 11.1183 2
      vertex 23.2865 11.1183 0
    endloop
  endfacet
  facet normal -0.809013 0.587791 0
    outer loop
      vertex 24.9635 10.5734 0
      vertex 26 12 2
      vertex 26 12 0
    endloop
  endfacet
  facet normal -0.809013 0.587791 0
    outer loop
      vertex 26 12 2
      vertex 24.9635 10.5734 0
      vertex 24.9635 10.5734 2
    endloop
  endfacet
endsolid OpenSCAD_Model
