solid OpenSCAD_Model
  facet normal -0.7289686274214116 -0.6845471059286886 0
    outer loop
      vertex -10.274515828561832 -7.464872704114408 0
      vertex -8.095284669808358 -9.785518183252524 0
      vertex -10.274515828561832 -7.464872704114408 29.209999999999994
    endloop
  endfacet
  facet normal -0.5358267949789963 -0.8443279255020152 0
    outer loop
      vertex -8.095284669808358 -9.785518183252524 0
      vertex -5.40739700287642 -11.491303566318448 0
      vertex -5.40739700287642 -11.491303566318448 29.209999999999994
    endloop
  endfacet
  facet normal 0 0 -1
    outer loop
      vertex -11.808161370780793 -4.675181819095409 0
      vertex -12.599856706693869 -1.5917320662666614 0
      vertex -11.808161370780793 4.675181819095409 0
    endloop
  endfacet
  facet normal 0 0 -1
    outer loop
      vertex -10.274515828561832 -7.464872704114408 0
      vertex -11.808161370780793 -4.675181819095409 0
      vertex -10.274515828561832 7.464872704114408 0
    endloop
  endfacet
  facet normal 0 0 -1
    outer loop
      vertex -8.095284669808358 -9.785518183252524 0
      vertex -5.407397002876423 11.491303566318447 0
      vertex -5.40739700287642 -11.491303566318448 0
    endloop
  endfacet
  facet normal 0 0 -1
    outer loop
      vertex -10.274515828561832 -7.464872704114408 0
      vertex -8.095284669808358 9.785518183252524 0
      vertex -8.095284669808358 -9.785518183252524 0
    endloop
  endfacet
  facet normal -0.8763066800438637 -0.4817536741017153 0
    outer loop
      vertex -10.274515828561832 -7.464872704114408 0
      vertex -11.808161370780793 -4.675181819095409 29.209999999999994
      vertex -11.808161370780793 -4.675181819095409 0
    endloop
  endfacet
  facet normal -0.9685831611286312 -0.24868988716485477 0
    outer loop
      vertex -11.808161370780793 -4.675181819095409 0
      vertex -12.599856706693869 -1.5917320662666614 29.209999999999994
      vertex -12.599856706693869 -1.5917320662666614 0
    endloop
  endfacet
  facet normal 0 0 -1
    outer loop
      vertex -5.40739700287642 -11.491303566318448 0
      vertex -2.361632274156159 -0.9350363638190818 0
      vertex -2.379742695238705 -12.475048084254345 0
    endloop
  endfacet
  facet normal 0 0 -1
    outer loop
      vertex -2.379742695238705 -12.475048084254345 0
      vertex 0.15948791960445696 -2.53498789020781 0
      vertex 0.7974395980222847 -12.674939451039048 0
    endloop
  endfacet
  facet normal -0.30901699437494745 -0.9510565162951536 0
    outer loop
      vertex -5.40739700287642 -11.491303566318448 0
      vertex -2.379742695238705 -12.475048084254345 0
      vertex -2.379742695238705 -12.475048084254345 29.209999999999994
    endloop
  endfacet
  facet normal -0.06279051952931339 -0.9980267284282714 0
    outer loop
      vertex -2.379742695238705 -12.475048084254345 0
      vertex 0.7974395980222847 -12.674939451039048 0
      vertex 0.7974395980222847 -12.674939451039048 29.209999999999994
    endloop
  endfacet
  facet normal 0 0 -1
    outer loop
      vertex -5.40739700287642 -11.491303566318448 0
      vertex -2.5199713413387737 -0.31834641325333235 0
      vertex -2.361632274156159 -0.9350363638190818 0
    endloop
  endfacet
  facet normal 0 0 -1
    outer loop
      vertex -5.40739700287642 -11.491303566318448 0
      vertex -2.5199713413387737 0.31834641325333235 0
      vertex -2.5199713413387737 -0.31834641325333235 0
    endloop
  endfacet
  facet normal 0 0 -1
    outer loop
      vertex -2.379742695238705 -12.475048084254345 0
      vertex -1.6190569339616716 -1.957103636650505 0
      vertex -1.081479400575284 -2.29826071326369 0
    endloop
  endfacet
  facet normal 0 0 -1
    outer loop
      vertex -2.379742695238705 -12.475048084254345 0
      vertex -2.0549031657123664 -1.4929745408228818 0
      vertex -1.6190569339616716 -1.957103636650505 0
    endloop
  endfacet
  facet normal 0 0 -1
    outer loop
      vertex -2.379742695238705 -12.475048084254345 0
      vertex -2.361632274156159 -0.9350363638190818 0
      vertex -2.0549031657123664 -1.4929745408228818 0
    endloop
  endfacet
  facet normal 0 0 -1
    outer loop
      vertex -2.379742695238705 -12.475048084254345 0
      vertex -1.081479400575284 -2.29826071326369 0
      vertex -0.47594853904774104 -2.495009616850869 0
    endloop
  endfacet
  facet normal 0 0 -1
    outer loop
      vertex -2.379742695238705 -12.475048084254345 0
      vertex -0.47594853904774104 -2.495009616850869 0
      vertex 0.15948791960445696 -2.53498789020781 0
    endloop
  endfacet
  facet normal -0.8763066800438637 -0.4817536741017153 0
    outer loop
      vertex -10.274515828561832 -7.464872704114408 0
      vertex -10.274515828561832 -7.464872704114408 29.209999999999994
      vertex -11.808161370780793 -4.675181819095409 29.209999999999994
    endloop
  endfacet
  facet normal -0.5358267949789963 -0.8443279255020152 0
    outer loop
      vertex -8.095284669808358 -9.785518183252524 0
      vertex -5.40739700287642 -11.491303566318448 29.209999999999994
      vertex -8.095284669808358 -9.785518183252524 29.209999999999994
    endloop
  endfacet
  facet normal -0.7289686274214116 -0.6845471059286886 0
    outer loop
      vertex -8.095284669808358 -9.785518183252524 0
      vertex -8.095284669808358 -9.785518183252524 29.209999999999994
      vertex -10.274515828561832 -7.464872704114408 29.209999999999994
    endloop
  endfacet
  facet normal -0.9685831611286312 -0.24868988716485477 0
    outer loop
      vertex -11.808161370780793 -4.675181819095409 0
      vertex -11.808161370780793 -4.675181819095409 29.209999999999994
      vertex -12.599856706693869 -1.5917320662666614 29.209999999999994
    endloop
  endfacet
  facet normal -1 0 0
    outer loop
      vertex -12.599856706693869 -1.5917320662666614 0
      vertex -12.599856706693869 -1.5917320662666614 29.209999999999994
      vertex -12.599856706693869 1.5917320662666614 29.209999999999994
    endloop
  endfacet
  facet normal 0 0 1
    outer loop
      vertex -10.274515828561832 -7.464872704114408 29.209999999999994
      vertex -8.095284669808358 -9.785518183252524 29.209999999999994
      vertex -10.274515828561832 7.464872704114408 29.209999999999994
    endloop
  endfacet
  facet normal 0 0 1
    outer loop
      vertex -10.274515828561832 -7.464872704114408 29.209999999999994
      vertex -11.808161370780793 4.675181819095409 29.209999999999994
      vertex -11.808161370780793 -4.675181819095409 29.209999999999994
    endloop
  endfacet
  facet normal 0 0 1
    outer loop
      vertex -11.808161370780793 -4.675181819095409 29.209999999999994
      vertex -12.599856706693869 1.5917320662666614 29.209999999999994
      vertex -12.599856706693869 -1.5917320662666614 29.209999999999994
    endloop
  endfacet
  facet normal 0 0 1
    outer loop
      vertex -8.095284669808358 -9.785518183252524 29.209999999999994
      vertex -5.40739700287642 -11.491303566318448 29.209999999999994
      vertex -8.095284669808358 9.785518183252524 29.209999999999994
    endloop
  endfacet
  facet normal -0.30901699437494745 -0.9510565162951536 0
    outer loop
      vertex -5.40739700287642 -11.491303566318448 0
      vertex -2.379742695238705 -12.475048084254345 29.209999999999994
      vertex -5.40739700287642 -11.491303566318448 29.209999999999994
    endloop
  endfacet
  facet normal -0.06279051952931339 -0.9980267284282714 0
    outer loop
      vertex -2.379742695238705 -12.475048084254345 0
      vertex 0.7974395980222847 -12.674939451039048 29.209999999999994
      vertex -2.379742695238705 -12.475048084254345 29.209999999999994
    endloop
  endfacet
  facet normal 0 0 1
    outer loop
      vertex -2.379742695238705 -12.475048084254345 29.209999999999994
      vertex 0.7974395980222847 -12.674939451039048 29.209999999999994
      vertex -1.081479400575284 -2.29826071326369 29.209999999999994
    endloop
  endfacet
  facet normal 0 0 1
    outer loop
      vertex -5.40739700287642 -11.491303566318448 29.209999999999994
      vertex -2.379742695238705 -12.475048084254345 29.209999999999994
      vertex -5.407397002876423 11.491303566318447 29.209999999999994
    endloop
  endfacet
  facet normal 0 0 1
    outer loop
      vertex -2.379742695238705 -12.475048084254345 29.209999999999994
      vertex -2.5199713413387737 -0.31834641325333235 29.209999999999994
      vertex -5.407397002876423 11.491303566318447 29.209999999999994
    endloop
  endfacet
  facet normal 0 0 1
    outer loop
      vertex -2.379742695238705 -12.475048084254345 29.209999999999994
      vertex -1.081479400575284 -2.29826071326369 29.209999999999994
      vertex -1.6190569339616716 -1.957103636650505 29.209999999999994
    endloop
  endfacet
  facet normal 0 0 1
    outer loop
      vertex -2.379742695238705 -12.475048084254345 29.209999999999994
      vertex -1.6190569339616716 -1.957103636650505 29.209999999999994
      vertex -2.0549031657123664 -1.4929745408228818 29.209999999999994
    endloop
  endfacet
  facet normal 0 0 1
    outer loop
      vertex -2.379742695238705 -12.475048084254345 29.209999999999994
      vertex -2.0549031657123664 -1.4929745408228818 29.209999999999994
      vertex -2.361632274156159 -0.9350363638190818 29.209999999999994
    endloop
  endfacet
  facet normal 0 0 1
    outer loop
      vertex -2.379742695238705 -12.475048084254345 29.209999999999994
      vertex -2.361632274156159 -0.9350363638190818 29.209999999999994
      vertex -2.5199713413387737 -0.31834641325333235 29.209999999999994
    endloop
  endfacet
  facet normal 0 0 1
    outer loop
      vertex 0.7974395980222847 -12.674939451039048 29.209999999999994
      vertex -0.47594853904774104 -2.495009616850869 29.209999999999994
      vertex -1.081479400575284 -2.29826071326369 29.209999999999994
    endloop
  endfacet
  facet normal 0 0 -1
    outer loop
      vertex -12.599856706693869 -1.5917320662666614 0
      vertex -12.599856706693869 1.5917320662666614 0
      vertex -11.808161370780793 4.675181819095409 0
    endloop
  endfacet
  facet normal 0 0 -1
    outer loop
      vertex -11.808161370780793 -4.675181819095409 0
      vertex -11.808161370780793 4.675181819095409 0
      vertex -10.274515828561832 7.464872704114408 0
    endloop
  endfacet
  facet normal 0 0 -1
    outer loop
      vertex -10.274515828561832 -7.464872704114408 0
      vertex -10.274515828561832 7.464872704114408 0
      vertex -8.095284669808358 9.785518183252524 0
    endloop
  endfacet
  facet normal 0 0 -1
    outer loop
      vertex -8.095284669808358 -9.785518183252524 0
      vertex -8.095284669808358 9.785518183252524 0
      vertex -5.407397002876423 11.491303566318447 0
    endloop
  endfacet
  facet normal -1 0 0
    outer loop
      vertex -12.599856706693869 -1.5917320662666614 0
      vertex -12.599856706693869 1.5917320662666614 29.209999999999994
      vertex -12.599856706693869 1.5917320662666614 0
    endloop
  endfacet
  facet normal -0.9685831611286312 0.24868988716485477 0
    outer loop
      vertex -12.599856706693869 1.5917320662666614 0
      vertex -11.808161370780793 4.675181819095409 29.209999999999994
      vertex -11.808161370780793 4.675181819095409 0
    endloop
  endfacet
  facet normal -0.8763066800438637 0.4817536741017153 0
    outer loop
      vertex -11.808161370780793 4.675181819095409 0
      vertex -10.274515828561832 7.464872704114408 29.209999999999994
      vertex -10.274515828561832 7.464872704114408 0
    endloop
  endfacet
  facet normal -0.7289686274214116 0.6845471059286886 0
    outer loop
      vertex -10.274515828561832 7.464872704114408 0
      vertex -8.095284669808358 9.785518183252524 29.209999999999994
      vertex -8.095284669808358 9.785518183252524 0
    endloop
  endfacet
  facet normal -0.5358267949789964 0.8443279255020152 0
    outer loop
      vertex -8.095284669808358 9.785518183252524 0
      vertex -8.095284669808358 9.785518183252524 29.209999999999994
      vertex -5.407397002876423 11.491303566318447 0
    endloop
  endfacet
  facet normal 0 0 -1
    outer loop
      vertex -5.40739700287642 -11.491303566318448 0
      vertex -2.379742695238702 12.475048084254347 0
      vertex -2.5199713413387737 0.31834641325333235 0
    endloop
  endfacet
  facet normal 0 0 -1
    outer loop
      vertex -5.40739700287642 -11.491303566318448 0
      vertex -5.407397002876423 11.491303566318447 0
      vertex -2.379742695238702 12.475048084254347 0
    endloop
  endfacet
  facet normal 0 0 -1
    outer loop
      vertex -2.379742695238702 12.475048084254347 0
      vertex -2.361632274156159 0.9350363638190818 0
      vertex -2.5199713413387737 0.31834641325333235 0
    endloop
  endfacet
  facet normal 0 0 -1
    outer loop
      vertex -2.379742695238702 12.475048084254347 0
      vertex -2.0549031657123664 1.4929745408228818 0
      vertex -2.361632274156159 0.9350363638190818 0
    endloop
  endfacet
  facet normal 0 0 -1
    outer loop
      vertex -2.379742695238702 12.475048084254347 0
      vertex -1.6190569339616716 1.957103636650505 0
      vertex -2.0549031657123664 1.4929745408228818 0
    endloop
  endfacet
  facet normal 0 0 -1
    outer loop
      vertex -2.379742695238702 12.475048084254347 0
      vertex -1.0814794005752848 2.2982607132636894 0
      vertex -1.6190569339616716 1.957103636650505 0
    endloop
  endfacet
  facet normal 0 0 -1
    outer loop
      vertex 0.7974395980222786 12.674939451039048 0
      vertex -0.4759485390477404 2.4950096168508695 0
      vertex -1.0814794005752848 2.2982607132636894 0
    endloop
  endfacet
  facet normal 0 0 -1
    outer loop
      vertex -2.379742695238702 12.475048084254347 0
      vertex 0.7974395980222786 12.674939451039048 0
      vertex -1.0814794005752848 2.2982607132636894 0
    endloop
  endfacet
  facet normal -0.3090169943749478 0.9510565162951534 0
    outer loop
      vertex -5.407397002876423 11.491303566318447 0
      vertex -5.407397002876423 11.491303566318447 29.209999999999994
      vertex -2.379742695238702 12.475048084254347 0
    endloop
  endfacet
  facet normal -0.06279051952931303 0.9980267284282716 0
    outer loop
      vertex -2.379742695238702 12.475048084254347 0
      vertex -2.379742695238702 12.475048084254347 29.209999999999994
      vertex 0.7974395980222786 12.674939451039048 0
    endloop
  endfacet
  facet normal -0.9685831611286312 0.24868988716485477 0
    outer loop
      vertex -12.599856706693869 1.5917320662666614 0
      vertex -12.599856706693869 1.5917320662666614 29.209999999999994
      vertex -11.808161370780793 4.675181819095409 29.209999999999994
    endloop
  endfacet
  facet normal -0.8763066800438637 0.4817536741017153 0
    outer loop
      vertex -11.808161370780793 4.675181819095409 0
      vertex -11.808161370780793 4.675181819095409 29.209999999999994
      vertex -10.274515828561832 7.464872704114408 29.209999999999994
    endloop
  endfacet
  facet normal 0 0 1
    outer loop
      vertex -11.808161370780793 -4.675181819095409 29.209999999999994
      vertex -11.808161370780793 4.675181819095409 29.209999999999994
      vertex -12.599856706693869 1.5917320662666614 29.209999999999994
    endloop
  endfacet
  facet normal 0 0 1
    outer loop
      vertex -10.274515828561832 -7.464872704114408 29.209999999999994
      vertex -10.274515828561832 7.464872704114408 29.209999999999994
      vertex -11.808161370780793 4.675181819095409 29.209999999999994
    endloop
  endfacet
  facet normal 0 0 1
    outer loop
      vertex -8.095284669808358 -9.785518183252524 29.209999999999994
      vertex -8.095284669808358 9.785518183252524 29.209999999999994
      vertex -10.274515828561832 7.464872704114408 29.209999999999994
    endloop
  endfacet
  facet normal 0 0 1
    outer loop
      vertex -5.40739700287642 -11.491303566318448 29.209999999999994
      vertex -5.407397002876423 11.491303566318447 29.209999999999994
      vertex -8.095284669808358 9.785518183252524 29.209999999999994
    endloop
  endfacet
  facet normal -0.7289686274214116 0.6845471059286886 0
    outer loop
      vertex -10.274515828561832 7.464872704114408 0
      vertex -10.274515828561832 7.464872704114408 29.209999999999994
      vertex -8.095284669808358 9.785518183252524 29.209999999999994
    endloop
  endfacet
  facet normal -0.5358267949789964 0.8443279255020152 0
    outer loop
      vertex -5.407397002876423 11.491303566318447 0
      vertex -8.095284669808358 9.785518183252524 29.209999999999994
      vertex -5.407397002876423 11.491303566318447 29.209999999999994
    endloop
  endfacet
  facet normal 0 0 1
    outer loop
      vertex -5.407397002876423 11.491303566318447 29.209999999999994
      vertex -2.5199713413387737 -0.31834641325333235 29.209999999999994
      vertex -2.5199713413387737 0.31834641325333235 29.209999999999994
    endloop
  endfacet
  facet normal 0 0 1
    outer loop
      vertex -5.407397002876423 11.491303566318447 29.209999999999994
      vertex -2.5199713413387737 0.31834641325333235 29.209999999999994
      vertex -2.361632274156159 0.9350363638190818 29.209999999999994
    endloop
  endfacet
  facet normal 0 0 1
    outer loop
      vertex -2.379742695238702 12.475048084254347 29.209999999999994
      vertex -2.361632274156159 0.9350363638190818 29.209999999999994
      vertex -2.0549031657123664 1.4929745408228818 29.209999999999994
    endloop
  endfacet
  facet normal 0 0 1
    outer loop
      vertex -2.379742695238702 12.475048084254347 29.209999999999994
      vertex -2.0549031657123664 1.4929745408228818 29.209999999999994
      vertex -1.6190569339616716 1.957103636650505 29.209999999999994
    endloop
  endfacet
  facet normal 0 0 1
    outer loop
      vertex -2.379742695238702 12.475048084254347 29.209999999999994
      vertex -1.6190569339616716 1.957103636650505 29.209999999999994
      vertex -1.0814794005752848 2.2982607132636894 29.209999999999994
    endloop
  endfacet
  facet normal 0 0 1
    outer loop
      vertex -2.379742695238702 12.475048084254347 29.209999999999994
      vertex -1.0814794005752848 2.2982607132636894 29.209999999999994
      vertex -0.4759485390477404 2.4950096168508695 29.209999999999994
    endloop
  endfacet
  facet normal -0.3090169943749478 0.9510565162951534 0
    outer loop
      vertex -2.379742695238702 12.475048084254347 0
      vertex -5.407397002876423 11.491303566318447 29.209999999999994
      vertex -2.379742695238702 12.475048084254347 29.209999999999994
    endloop
  endfacet
  facet normal -0.06279051952931303 0.9980267284282716 0
    outer loop
      vertex -2.379742695238702 12.475048084254347 29.209999999999994
      vertex 0.7974395980222786 12.674939451039048 29.209999999999994
      vertex 0.7974395980222786 12.674939451039048 0
    endloop
  endfacet
  facet normal 0 0 1
    outer loop
      vertex -5.407397002876423 11.491303566318447 29.209999999999994
      vertex -2.361632274156159 0.9350363638190818 29.209999999999994
      vertex -2.379742695238702 12.475048084254347 29.209999999999994
    endloop
  endfacet
  facet normal 0 0 1
    outer loop
      vertex -2.379742695238702 12.475048084254347 29.209999999999994
      vertex -0.4759485390477404 2.4950096168508695 29.209999999999994
      vertex 0.7974395980222786 12.674939451039048 29.209999999999994
    endloop
  endfacet
  facet normal 0 0 -1
    outer loop
      vertex 0.7974395980222847 -12.674939451039048 0
      vertex 2.4602012292667235 -0.6316723133987303 0
      vertex 3.9245158285618316 -12.078417756948449 0
    endloop
  endfacet
  facet normal 0.18738131458572518 -0.9822872507286885 0
    outer loop
      vertex 0.7974395980222847 -12.674939451039048 0
      vertex 3.9245158285618316 -12.078417756948449 0
      vertex 3.9245158285618316 -12.078417756948449 29.209999999999994
    endloop
  endfacet
  facet normal 0.4257792915650725 -0.9048270524660197 0
    outer loop
      vertex 3.9245158285618316 -12.078417756948449 0
      vertex 6.805000296233252 -10.722964653875593 0
      vertex 6.805000296233252 -10.722964653875593 29.209999999999994
    endloop
  endfacet
  facet normal 0 0 -1
    outer loop
      vertex 0.7974395980222847 -12.674939451039048 0
      vertex 0.15948791960445696 -2.53498789020781 0
      vertex 0.7849031657123664 -2.41568355138969 0
    endloop
  endfacet
  facet normal 0 0 -1
    outer loop
      vertex 0.7974395980222847 -12.674939451039048 0
      vertex 0.7849031657123664 -2.41568355138969 0
      vertex 1.3610000592466505 -2.144592930775119 0
    endloop
  endfacet
  facet normal 0 0 -1
    outer loop
      vertex 0.7974395980222847 -12.674939451039048 0
      vertex 1.3610000592466505 -2.144592930775119 0
      vertex 1.8515803136503857 -1.7387496490588688 0
    endloop
  endfacet
  facet normal 0 0 -1
    outer loop
      vertex 0.7974395980222847 -12.674939451039048 0
      vertex 1.8515803136503857 -1.7387496490588688 0
      vertex 2.225818967311413 -1.223654332218357 0
    endloop
  endfacet
  facet normal 0 0 -1
    outer loop
      vertex 0.7974395980222847 -12.674939451039048 0
      vertex 2.225818967311413 -1.223654332218357 0
      vertex 2.4602012292667235 -0.6316723133987303 0
    endloop
  endfacet
  facet normal 0 0 -1
    outer loop
      vertex 3.9245158285618316 -12.078417756948449 0
      vertex 2.4602012292667235 -0.6316723133987303 0
      vertex 2.54 0 0
    endloop
  endfacet
  facet normal 0 0 -1
    outer loop
      vertex 3.9245158285618316 -12.078417756948449 0
      vertex 6.805000296233257 10.722964653875591 0
      vertex 6.805000296233252 -10.722964653875593 0
    endloop
  endfacet
  facet normal 0.6374239897486893 -0.7705132427757896 0
    outer loop
      vertex 6.805000296233252 -10.722964653875593 0
      vertex 9.257901568251928 -8.693748245294344 0
      vertex 9.257901568251928 -8.693748245294344 29.209999999999994
    endloop
  endfacet
  facet normal 0.8090169943749476 -0.5877852522924729 0
    outer loop
      vertex 9.257901568251928 -8.693748245294344 0
      vertex 11.129094836557066 -6.118271661091785 0
      vertex 9.257901568251928 -8.693748245294344 29.209999999999994
    endloop
  endfacet
  facet normal 0 0 -1
    outer loop
      vertex 6.805000296233252 -10.722964653875593 0
      vertex 9.257901568251926 8.693748245294346 0
      vertex 9.257901568251928 -8.693748245294344 0
    endloop
  endfacet
  facet normal 0 0 -1
    outer loop
      vertex 9.257901568251928 -8.693748245294344 0
      vertex 11.129094836557067 6.118271661091784 0
      vertex 11.129094836557066 -6.118271661091785 0
    endloop
  endfacet
  facet normal 0 0 -1
    outer loop
      vertex 11.129094836557066 -6.118271661091785 0
      vertex 12.301006146333615 3.1583615669936558 0
      vertex 12.301006146333615 -3.1583615669936513 0
    endloop
  endfacet
  facet normal 0.9297764858882515 -0.3681245526846778 0
    outer loop
      vertex 11.129094836557066 -6.118271661091785 0
      vertex 12.301006146333615 -3.1583615669936513 0
      vertex 11.129094836557066 -6.118271661091785 29.209999999999994
    endloop
  endfacet
  facet normal 0.9921147013144778 -0.12533323356430437 0
    outer loop
      vertex 12.301006146333615 -3.1583615669936513 0
      vertex 12.7 0 0
      vertex 12.301006146333615 -3.1583615669936513 29.209999999999994
    endloop
  endfacet
  facet normal 0.18738131458572518 -0.9822872507286885 0
    outer loop
      vertex 0.7974395980222847 -12.674939451039048 0
      vertex 3.9245158285618316 -12.078417756948449 29.209999999999994
      vertex 0.7974395980222847 -12.674939451039048 29.209999999999994
    endloop
  endfacet
  facet normal 0.4257792915650725 -0.9048270524660197 0
    outer loop
      vertex 3.9245158285618316 -12.078417756948449 0
      vertex 6.805000296233252 -10.722964653875593 29.209999999999994
      vertex 3.9245158285618316 -12.078417756948449 29.209999999999994
    endloop
  endfacet
  facet normal 0 0 1
    outer loop
      vertex 0.7974395980222847 -12.674939451039048 29.209999999999994
      vertex 3.9245158285618316 -12.078417756948449 29.209999999999994
      vertex 0.7849031657123664 -2.41568355138969 29.209999999999994
    endloop
  endfacet
  facet normal 0 0 1
    outer loop
      vertex 0.7974395980222847 -12.674939451039048 29.209999999999994
      vertex 0.15948791960445696 -2.53498789020781 29.209999999999994
      vertex -0.47594853904774104 -2.495009616850869 29.209999999999994
    endloop
  endfacet
  facet normal 0 0 1
    outer loop
      vertex 0.7974395980222847 -12.674939451039048 29.209999999999994
      vertex 0.7849031657123664 -2.41568355138969 29.209999999999994
      vertex 0.15948791960445696 -2.53498789020781 29.209999999999994
    endloop
  endfacet
  facet normal 0 0 1
    outer loop
      vertex 3.9245158285618316 -12.078417756948449 29.209999999999994
      vertex 1.3610000592466505 -2.144592930775119 29.209999999999994
      vertex 0.7849031657123664 -2.41568355138969 29.209999999999994
    endloop
  endfacet
  facet normal 0 0 1
    outer loop
      vertex 3.9245158285618316 -12.078417756948449 29.209999999999994
      vertex 1.8515803136503857 -1.7387496490588688 29.209999999999994
      vertex 1.3610000592466505 -2.144592930775119 29.209999999999994
    endloop
  endfacet
  facet normal 0 0 1
    outer loop
      vertex 3.9245158285618316 -12.078417756948449 29.209999999999994
      vertex 2.225818967311413 -1.223654332218357 29.209999999999994
      vertex 1.8515803136503857 -1.7387496490588688 29.209999999999994
    endloop
  endfacet
  facet normal 0 0 1
    outer loop
      vertex 3.9245158285618316 -12.078417756948449 29.209999999999994
      vertex 2.4602012292667235 -0.6316723133987303 29.209999999999994
      vertex 2.225818967311413 -1.223654332218357 29.209999999999994
    endloop
  endfacet
  facet normal 0 0 1
    outer loop
      vertex 3.9245158285618316 -12.078417756948449 29.209999999999994
      vertex 2.54 0 29.209999999999994
      vertex 2.4602012292667235 -0.6316723133987303 29.209999999999994
    endloop
  endfacet
  facet normal 0 0 1
    outer loop
      vertex 3.9245158285618316 -12.078417756948449 29.209999999999994
      vertex 6.805000296233252 -10.722964653875593 29.209999999999994
      vertex 3.9245158285618316 12.078417756948449 29.209999999999994
    endloop
  endfacet
  facet normal 0.6374239897486893 -0.7705132427757896 0
    outer loop
      vertex 6.805000296233252 -10.722964653875593 0
      vertex 9.257901568251928 -8.693748245294344 29.209999999999994
      vertex 6.805000296233252 -10.722964653875593 29.209999999999994
    endloop
  endfacet
  facet normal 0.8090169943749476 -0.5877852522924729 0
    outer loop
      vertex 11.129094836557066 -6.118271661091785 0
      vertex 11.129094836557066 -6.118271661091785 29.209999999999994
      vertex 9.257901568251928 -8.693748245294344 29.209999999999994
    endloop
  endfacet
  facet normal 0.9297764858882515 -0.3681245526846778 0
    outer loop
      vertex 12.301006146333615 -3.1583615669936513 0
      vertex 12.301006146333615 -3.1583615669936513 29.209999999999994
      vertex 11.129094836557066 -6.118271661091785 29.209999999999994
    endloop
  endfacet
  facet normal 0.9921147013144778 -0.12533323356430437 0
    outer loop
      vertex 12.301006146333615 -3.1583615669936513 29.209999999999994
      vertex 12.7 0 0
      vertex 12.7 0 29.209999999999994
    endloop
  endfacet
  facet normal 0 0 1
    outer loop
      vertex 6.805000296233252 -10.722964653875593 29.209999999999994
      vertex 9.257901568251928 -8.693748245294344 29.209999999999994
      vertex 6.805000296233257 10.722964653875591 29.209999999999994
    endloop
  endfacet
  facet normal 0 0 1
    outer loop
      vertex 9.257901568251928 -8.693748245294344 29.209999999999994
      vertex 11.129094836557066 -6.118271661091785 29.209999999999994
      vertex 9.257901568251926 8.693748245294346 29.209999999999994
    endloop
  endfacet
  facet normal 0 0 1
    outer loop
      vertex 11.129094836557066 -6.118271661091785 29.209999999999994
      vertex 12.301006146333615 -3.1583615669936513 29.209999999999994
      vertex 11.129094836557067 6.118271661091784 29.209999999999994
    endloop
  endfacet
  facet normal 0 0 -1
    outer loop
      vertex 0.7974395980222786 12.674939451039048 0
      vertex 0.1594879196044557 2.53498789020781 0
      vertex -0.4759485390477404 2.4950096168508695 0
    endloop
  endfacet
  facet normal 0 0 -1
    outer loop
      vertex 0.7974395980222786 12.674939451039048 0
      vertex 0.7849031657123664 2.41568355138969 0
      vertex 0.1594879196044557 2.53498789020781 0
    endloop
  endfacet
  facet normal 0 0 -1
    outer loop
      vertex 3.9245158285618316 12.078417756948449 0
      vertex 2.54 0 0
      vertex 2.460201229266723 0.6316723133987312 0
    endloop
  endfacet
  facet normal 0 0 -1
    outer loop
      vertex 3.9245158285618316 12.078417756948449 0
      vertex 2.460201229266723 0.6316723133987312 0
      vertex 2.2258189673114135 1.2236543322183568 0
    endloop
  endfacet
  facet normal 0 0 -1
    outer loop
      vertex 3.9245158285618316 12.078417756948449 0
      vertex 1.8515803136503854 1.7387496490588694 0
      vertex 1.3610000592466516 2.144592930775118 0
    endloop
  endfacet
  facet normal 0 0 -1
    outer loop
      vertex 3.9245158285618316 12.078417756948449 0
      vertex 1.3610000592466516 2.144592930775118 0
      vertex 0.7849031657123664 2.41568355138969 0
    endloop
  endfacet
  facet normal 0 0 -1
    outer loop
      vertex 3.9245158285618316 12.078417756948449 0
      vertex 2.2258189673114135 1.2236543322183568 0
      vertex 1.8515803136503854 1.7387496490588694 0
    endloop
  endfacet
  facet normal 0 0 -1
    outer loop
      vertex 3.9245158285618316 -12.078417756948449 0
      vertex 2.54 0 0
      vertex 3.9245158285618316 12.078417756948449 0
    endloop
  endfacet
  facet normal 0 0 -1
    outer loop
      vertex 3.9245158285618316 -12.078417756948449 0
      vertex 3.9245158285618316 12.078417756948449 0
      vertex 6.805000296233257 10.722964653875591 0
    endloop
  endfacet
  facet normal 0 0 -1
    outer loop
      vertex 0.7974395980222786 12.674939451039048 0
      vertex 3.9245158285618316 12.078417756948449 0
      vertex 0.7849031657123664 2.41568355138969 0
    endloop
  endfacet
  facet normal 0.18738131458572482 0.9822872507286886 0
    outer loop
      vertex 0.7974395980222786 12.674939451039048 0
      vertex 0.7974395980222786 12.674939451039048 29.209999999999994
      vertex 3.9245158285618316 12.078417756948449 0
    endloop
  endfacet
  facet normal 0.4257792915650722 0.9048270524660198 0
    outer loop
      vertex 3.9245158285618316 12.078417756948449 0
      vertex 3.9245158285618316 12.078417756948449 29.209999999999994
      vertex 6.805000296233257 10.722964653875591 0
    endloop
  endfacet
  facet normal 0 0 -1
    outer loop
      vertex 6.805000296233252 -10.722964653875593 0
      vertex 6.805000296233257 10.722964653875591 0
      vertex 9.257901568251926 8.693748245294346 0
    endloop
  endfacet
  facet normal 0 0 -1
    outer loop
      vertex 9.257901568251928 -8.693748245294344 0
      vertex 9.257901568251926 8.693748245294346 0
      vertex 11.129094836557067 6.118271661091784 0
    endloop
  endfacet
  facet normal 0 0 -1
    outer loop
      vertex 11.129094836557066 -6.118271661091785 0
      vertex 11.129094836557067 6.118271661091784 0
      vertex 12.301006146333615 3.1583615669936558 0
    endloop
  endfacet
  facet normal 0 0 -1
    outer loop
      vertex 12.301006146333615 -3.1583615669936513 0
      vertex 12.301006146333615 3.1583615669936558 0
      vertex 12.7 0 0
    endloop
  endfacet
  facet normal 0.9921147013144779 0.1253332335643042 0
    outer loop
      vertex 12.7 0 0
      vertex 12.301006146333615 3.1583615669936558 0
      vertex 12.7 0 29.209999999999994
    endloop
  endfacet
  facet normal 0.9297764858882516 0.36812455268467786 0
    outer loop
      vertex 12.301006146333615 3.1583615669936558 0
      vertex 11.129094836557067 6.118271661091784 0
      vertex 12.301006146333615 3.1583615669936558 29.209999999999994
    endloop
  endfacet
  facet normal 0.6374239897486897 0.7705132427757891 0
    outer loop
      vertex 9.257901568251926 8.693748245294346 0
      vertex 6.805000296233257 10.722964653875591 0
      vertex 6.805000296233257 10.722964653875591 29.209999999999994
    endloop
  endfacet
  facet normal 0.8090169943749473 0.5877852522924732 0
    outer loop
      vertex 11.129094836557067 6.118271661091784 0
      vertex 9.257901568251926 8.693748245294346 0
      vertex 11.129094836557067 6.118271661091784 29.209999999999994
    endloop
  endfacet
  facet normal 0 0 1
    outer loop
      vertex 0.7974395980222786 12.674939451039048 29.209999999999994
      vertex -0.4759485390477404 2.4950096168508695 29.209999999999994
      vertex 0.1594879196044557 2.53498789020781 29.209999999999994
    endloop
  endfacet
  facet normal 0 0 1
    outer loop
      vertex 0.7974395980222786 12.674939451039048 29.209999999999994
      vertex 0.1594879196044557 2.53498789020781 29.209999999999994
      vertex 0.7849031657123664 2.41568355138969 29.209999999999994
    endloop
  endfacet
  facet normal 0 0 1
    outer loop
      vertex 0.7974395980222786 12.674939451039048 29.209999999999994
      vertex 1.3610000592466516 2.144592930775118 29.209999999999994
      vertex 1.8515803136503854 1.7387496490588694 29.209999999999994
    endloop
  endfacet
  facet normal 0 0 1
    outer loop
      vertex 0.7974395980222786 12.674939451039048 29.209999999999994
      vertex 1.8515803136503854 1.7387496490588694 29.209999999999994
      vertex 2.2258189673114135 1.2236543322183568 29.209999999999994
    endloop
  endfacet
  facet normal 0 0 1
    outer loop
      vertex 0.7974395980222786 12.674939451039048 29.209999999999994
      vertex 0.7849031657123664 2.41568355138969 29.209999999999994
      vertex 1.3610000592466516 2.144592930775118 29.209999999999994
    endloop
  endfacet
  facet normal 0 0 1
    outer loop
      vertex 3.9245158285618316 12.078417756948449 29.209999999999994
      vertex 2.460201229266723 0.6316723133987312 29.209999999999994
      vertex 2.54 0 29.209999999999994
    endloop
  endfacet
  facet normal 0 0 1
    outer loop
      vertex 0.7974395980222786 12.674939451039048 29.209999999999994
      vertex 2.2258189673114135 1.2236543322183568 29.209999999999994
      vertex 2.460201229266723 0.6316723133987312 29.209999999999994
    endloop
  endfacet
  facet normal 0 0 1
    outer loop
      vertex 3.9245158285618316 -12.078417756948449 29.209999999999994
      vertex 3.9245158285618316 12.078417756948449 29.209999999999994
      vertex 2.54 0 29.209999999999994
    endloop
  endfacet
  facet normal 0 0 1
    outer loop
      vertex 6.805000296233252 -10.722964653875593 29.209999999999994
      vertex 6.805000296233257 10.722964653875591 29.209999999999994
      vertex 3.9245158285618316 12.078417756948449 29.209999999999994
    endloop
  endfacet
  facet normal 0.18738131458572482 0.9822872507286886 0
    outer loop
      vertex 3.9245158285618316 12.078417756948449 0
      vertex 0.7974395980222786 12.674939451039048 29.209999999999994
      vertex 3.9245158285618316 12.078417756948449 29.209999999999994
    endloop
  endfacet
  facet normal 0.4257792915650722 0.9048270524660198 0
    outer loop
      vertex 6.805000296233257 10.722964653875591 0
      vertex 3.9245158285618316 12.078417756948449 29.209999999999994
      vertex 6.805000296233257 10.722964653875591 29.209999999999994
    endloop
  endfacet
  facet normal 0 0 1
    outer loop
      vertex 0.7974395980222786 12.674939451039048 29.209999999999994
      vertex 2.460201229266723 0.6316723133987312 29.209999999999994
      vertex 3.9245158285618316 12.078417756948449 29.209999999999994
    endloop
  endfacet
  facet normal 0.9921147013144779 0.1253332335643042 0
    outer loop
      vertex 12.301006146333615 3.1583615669936558 0
      vertex 12.301006146333615 3.1583615669936558 29.209999999999994
      vertex 12.7 0 29.209999999999994
    endloop
  endfacet
  facet normal 0.9297764858882516 0.36812455268467786 0
    outer loop
      vertex 11.129094836557067 6.118271661091784 0
      vertex 11.129094836557067 6.118271661091784 29.209999999999994
      vertex 12.301006146333615 3.1583615669936558 29.209999999999994
    endloop
  endfacet
  facet normal 0 0 1
    outer loop
      vertex 9.257901568251928 -8.693748245294344 29.209999999999994
      vertex 9.257901568251926 8.693748245294346 29.209999999999994
      vertex 6.805000296233257 10.722964653875591 29.209999999999994
    endloop
  endfacet
  facet normal 0 0 1
    outer loop
      vertex 11.129094836557066 -6.118271661091785 29.209999999999994
      vertex 11.129094836557067 6.118271661091784 29.209999999999994
      vertex 9.257901568251926 8.693748245294346 29.209999999999994
    endloop
  endfacet
  facet normal 0 0 1
    outer loop
      vertex 12.301006146333615 -3.1583615669936513 29.209999999999994
      vertex 12.7 0 29.209999999999994
      vertex 12.301006146333615 3.1583615669936558 29.209999999999994
    endloop
  endfacet
  facet normal 0 0 1
    outer loop
      vertex 12.301006146333615 -3.1583615669936513 29.209999999999994
      vertex 12.301006146333615 3.1583615669936558 29.209999999999994
      vertex 11.129094836557067 6.118271661091784 29.209999999999994
    endloop
  endfacet
  facet normal 0.6374239897486897 0.7705132427757891 0
    outer loop
      vertex 9.257901568251926 8.693748245294346 0
      vertex 6.805000296233257 10.722964653875591 29.209999999999994
      vertex 9.257901568251926 8.693748245294346 29.209999999999994
    endloop
  endfacet
  facet normal 0.8090169943749473 0.5877852522924732 0
    outer loop
      vertex 9.257901568251926 8.693748245294346 0
      vertex 9.257901568251926 8.693748245294346 29.209999999999994
      vertex 11.129094836557067 6.118271661091784 29.209999999999994
    endloop
  endfacet
  facet normal 0.7289686274214116 0.6845471059286885 0
    outer loop
      vertex -2.0549031657123664 -1.4929745408228818 29.209999999999994
      vertex -1.6190569339616716 -1.957103636650505 0
      vertex -2.0549031657123664 -1.4929745408228818 0
    endloop
  endfacet
  facet normal 0.9685831611286313 0.2486898871648542 0
    outer loop
      vertex -2.361632274156159 -0.9350363638190818 0
      vertex -2.5199713413387737 -0.31834641325333235 0
      vertex -2.5199713413387737 -0.31834641325333235 29.209999999999994
    endloop
  endfacet
  facet normal 0.8763066800438635 0.48175367410171543 0
    outer loop
      vertex -2.361632274156159 -0.9350363638190818 29.209999999999994
      vertex -2.0549031657123664 -1.4929745408228818 0
      vertex -2.361632274156159 -0.9350363638190818 0
    endloop
  endfacet
  facet normal 0.5358267949789962 0.8443279255020152 0
    outer loop
      vertex -1.081479400575284 -2.29826071326369 0
      vertex -1.6190569339616716 -1.957103636650505 0
      vertex -1.6190569339616716 -1.957103636650505 29.209999999999994
    endloop
  endfacet
  facet normal 0.30901699437494734 0.9510565162951535 0
    outer loop
      vertex -0.47594853904774104 -2.495009616850869 0
      vertex -1.081479400575284 -2.29826071326369 0
      vertex -1.081479400575284 -2.29826071326369 29.209999999999994
    endloop
  endfacet
  facet normal 0.06279051952931353 0.9980267284282716 0
    outer loop
      vertex 0.15948791960445696 -2.53498789020781 0
      vertex -0.47594853904774104 -2.495009616850869 0
      vertex -0.47594853904774104 -2.495009616850869 29.209999999999994
    endloop
  endfacet
  facet normal 0.7289686274214116 0.6845471059286885 0
    outer loop
      vertex -2.0549031657123664 -1.4929745408228818 29.209999999999994
      vertex -1.6190569339616716 -1.957103636650505 29.209999999999994
      vertex -1.6190569339616716 -1.957103636650505 0
    endloop
  endfacet
  facet normal 0.9685831611286313 0.2486898871648542 0
    outer loop
      vertex -2.5199713413387737 -0.31834641325333235 29.209999999999994
      vertex -2.361632274156159 -0.9350363638190818 29.209999999999994
      vertex -2.361632274156159 -0.9350363638190818 0
    endloop
  endfacet
  facet normal 1 0 0
    outer loop
      vertex -2.5199713413387737 -0.31834641325333235 29.209999999999994
      vertex -2.5199713413387737 -0.31834641325333235 0
      vertex -2.5199713413387737 0.31834641325333235 29.209999999999994
    endloop
  endfacet
  facet normal 0.8763066800438635 0.48175367410171543 0
    outer loop
      vertex -2.361632274156159 -0.9350363638190818 29.209999999999994
      vertex -2.0549031657123664 -1.4929745408228818 29.209999999999994
      vertex -2.0549031657123664 -1.4929745408228818 0
    endloop
  endfacet
  facet normal 0.5358267949789962 0.8443279255020152 0
    outer loop
      vertex -1.081479400575284 -2.29826071326369 0
      vertex -1.6190569339616716 -1.957103636650505 29.209999999999994
      vertex -1.081479400575284 -2.29826071326369 29.209999999999994
    endloop
  endfacet
  facet normal 0.30901699437494734 0.9510565162951535 0
    outer loop
      vertex -1.081479400575284 -2.29826071326369 29.209999999999994
      vertex -0.47594853904774104 -2.495009616850869 29.209999999999994
      vertex -0.47594853904774104 -2.495009616850869 0
    endloop
  endfacet
  facet normal 0.06279051952931353 0.9980267284282716 0
    outer loop
      vertex 0.15948791960445696 -2.53498789020781 0
      vertex -0.47594853904774104 -2.495009616850869 29.209999999999994
      vertex 0.15948791960445696 -2.53498789020781 29.209999999999994
    endloop
  endfacet
  facet normal 1 0 0
    outer loop
      vertex -2.5199713413387737 -0.31834641325333235 0
      vertex -2.5199713413387737 0.31834641325333235 0
      vertex -2.5199713413387737 0.31834641325333235 29.209999999999994
    endloop
  endfacet
  facet normal 0.9685831611286313 -0.2486898871648542 0
    outer loop
      vertex -2.5199713413387737 0.31834641325333235 0
      vertex -2.361632274156159 0.9350363638190818 0
      vertex -2.361632274156159 0.9350363638190818 29.209999999999994
    endloop
  endfacet
  facet normal 0.8763066800438635 -0.48175367410171543 0
    outer loop
      vertex -2.0549031657123664 1.4929745408228818 29.209999999999994
      vertex -2.361632274156159 0.9350363638190818 0
      vertex -2.0549031657123664 1.4929745408228818 0
    endloop
  endfacet
  facet normal 0.7289686274214116 -0.6845471059286885 0
    outer loop
      vertex -1.6190569339616716 1.957103636650505 29.209999999999994
      vertex -2.0549031657123664 1.4929745408228818 0
      vertex -1.6190569339616716 1.957103636650505 0
    endloop
  endfacet
  facet normal 0.5358267949789963 -0.8443279255020153 0
    outer loop
      vertex -1.6190569339616716 1.957103636650505 0
      vertex -1.0814794005752848 2.2982607132636894 0
      vertex -1.0814794005752848 2.2982607132636894 29.209999999999994
    endloop
  endfacet
  facet normal 0.30901699437494795 -0.9510565162951534 0
    outer loop
      vertex -1.0814794005752848 2.2982607132636894 0
      vertex -0.4759485390477404 2.4950096168508695 0
      vertex -0.4759485390477404 2.4950096168508695 29.209999999999994
    endloop
  endfacet
  facet normal 0.06279051952931303 -0.9980267284282716 0
    outer loop
      vertex 0.1594879196044557 2.53498789020781 0
      vertex 0.1594879196044557 2.53498789020781 29.209999999999994
      vertex -0.4759485390477404 2.4950096168508695 0
    endloop
  endfacet
  facet normal 0.9685831611286313 -0.2486898871648542 0
    outer loop
      vertex -2.5199713413387737 0.31834641325333235 0
      vertex -2.361632274156159 0.9350363638190818 29.209999999999994
      vertex -2.5199713413387737 0.31834641325333235 29.209999999999994
    endloop
  endfacet
  facet normal 0.8763066800438635 -0.48175367410171543 0
    outer loop
      vertex -2.0549031657123664 1.4929745408228818 29.209999999999994
      vertex -2.361632274156159 0.9350363638190818 29.209999999999994
      vertex -2.361632274156159 0.9350363638190818 0
    endloop
  endfacet
  facet normal 0.7289686274214116 -0.6845471059286885 0
    outer loop
      vertex -1.6190569339616716 1.957103636650505 29.209999999999994
      vertex -2.0549031657123664 1.4929745408228818 29.209999999999994
      vertex -2.0549031657123664 1.4929745408228818 0
    endloop
  endfacet
  facet normal 0.5358267949789963 -0.8443279255020153 0
    outer loop
      vertex -1.6190569339616716 1.957103636650505 29.209999999999994
      vertex -1.6190569339616716 1.957103636650505 0
      vertex -1.0814794005752848 2.2982607132636894 29.209999999999994
    endloop
  endfacet
  facet normal 0.30901699437494795 -0.9510565162951534 0
    outer loop
      vertex -1.0814794005752848 2.2982607132636894 0
      vertex -0.4759485390477404 2.4950096168508695 29.209999999999994
      vertex -1.0814794005752848 2.2982607132636894 29.209999999999994
    endloop
  endfacet
  facet normal 0.06279051952931303 -0.9980267284282716 0
    outer loop
      vertex 0.1594879196044557 2.53498789020781 29.209999999999994
      vertex -0.4759485390477404 2.4950096168508695 29.209999999999994
      vertex -0.4759485390477404 2.4950096168508695 0
    endloop
  endfacet
  facet normal -0.18738131458572516 0.9822872507286885 0
    outer loop
      vertex 0.7849031657123664 -2.41568355138969 0
      vertex 0.15948791960445696 -2.53498789020781 0
      vertex 0.15948791960445696 -2.53498789020781 29.209999999999994
    endloop
  endfacet
  facet normal -0.42577929156507205 0.9048270524660198 0
    outer loop
      vertex 1.3610000592466505 -2.144592930775119 0
      vertex 0.7849031657123664 -2.41568355138969 0
      vertex 0.7849031657123664 -2.41568355138969 29.209999999999994
    endloop
  endfacet
  facet normal -0.6374239897486899 0.7705132427757893 0
    outer loop
      vertex 1.8515803136503857 -1.7387496490588688 0
      vertex 1.3610000592466505 -2.144592930775119 0
      vertex 1.3610000592466505 -2.144592930775119 29.209999999999994
    endloop
  endfacet
  facet normal -0.8090169943749476 0.5877852522924727 0
    outer loop
      vertex 1.8515803136503857 -1.7387496490588688 0
      vertex 1.8515803136503857 -1.7387496490588688 29.209999999999994
      vertex 2.225818967311413 -1.223654332218357 0
    endloop
  endfacet
  facet normal -0.9297764858882512 0.36812455268467864 0
    outer loop
      vertex 2.4602012292667235 -0.6316723133987303 0
      vertex 2.225818967311413 -1.223654332218357 0
      vertex 2.225818967311413 -1.223654332218357 29.209999999999994
    endloop
  endfacet
  facet normal -0.992114701314478 0.12533323356430381 0
    outer loop
      vertex 2.4602012292667235 -0.6316723133987303 0
      vertex 2.4602012292667235 -0.6316723133987303 29.209999999999994
      vertex 2.54 0 0
    endloop
  endfacet
  facet normal -0.18738131458572516 0.9822872507286885 0
    outer loop
      vertex 0.7849031657123664 -2.41568355138969 0
      vertex 0.15948791960445696 -2.53498789020781 29.209999999999994
      vertex 0.7849031657123664 -2.41568355138969 29.209999999999994
    endloop
  endfacet
  facet normal -0.42577929156507205 0.9048270524660198 0
    outer loop
      vertex 1.3610000592466505 -2.144592930775119 29.209999999999994
      vertex 1.3610000592466505 -2.144592930775119 0
      vertex 0.7849031657123664 -2.41568355138969 29.209999999999994
    endloop
  endfacet
  facet normal -0.6374239897486899 0.7705132427757893 0
    outer loop
      vertex 1.8515803136503857 -1.7387496490588688 29.209999999999994
      vertex 1.8515803136503857 -1.7387496490588688 0
      vertex 1.3610000592466505 -2.144592930775119 29.209999999999994
    endloop
  endfacet
  facet normal -0.8090169943749476 0.5877852522924727 0
    outer loop
      vertex 1.8515803136503857 -1.7387496490588688 29.209999999999994
      vertex 2.225818967311413 -1.223654332218357 29.209999999999994
      vertex 2.225818967311413 -1.223654332218357 0
    endloop
  endfacet
  facet normal -0.9297764858882512 0.36812455268467864 0
    outer loop
      vertex 2.4602012292667235 -0.6316723133987303 0
      vertex 2.225818967311413 -1.223654332218357 29.209999999999994
      vertex 2.4602012292667235 -0.6316723133987303 29.209999999999994
    endloop
  endfacet
  facet normal -0.992114701314478 0.12533323356430381 0
    outer loop
      vertex 2.54 0 0
      vertex 2.4602012292667235 -0.6316723133987303 29.209999999999994
      vertex 2.54 0 29.209999999999994
    endloop
  endfacet
  facet normal -0.1873813145857248 -0.9822872507286886 0
    outer loop
      vertex 0.1594879196044557 2.53498789020781 0
      vertex 0.7849031657123664 2.41568355138969 0
      vertex 0.7849031657123664 2.41568355138969 29.209999999999994
    endloop
  endfacet
  facet normal -0.42577929156507255 -0.9048270524660197 0
    outer loop
      vertex 0.7849031657123664 2.41568355138969 0
      vertex 1.3610000592466516 2.144592930775118 0
      vertex 1.3610000592466516 2.144592930775118 29.209999999999994
    endloop
  endfacet
  facet normal -0.9297764858882515 -0.36812455268467803 0
    outer loop
      vertex 2.2258189673114135 1.2236543322183568 0
      vertex 2.460201229266723 0.6316723133987312 0
      vertex 2.460201229266723 0.6316723133987312 29.209999999999994
    endloop
  endfacet
  facet normal -0.8090169943749477 -0.5877852522924728 0
    outer loop
      vertex 2.2258189673114135 1.2236543322183568 29.209999999999994
      vertex 1.8515803136503854 1.7387496490588694 0
      vertex 2.2258189673114135 1.2236543322183568 0
    endloop
  endfacet
  facet normal -0.9921147013144778 -0.1253332335643043 0
    outer loop
      vertex 2.460201229266723 0.6316723133987312 0
      vertex 2.54 0 0
      vertex 2.54 0 29.209999999999994
    endloop
  endfacet
  facet normal -0.6374239897486894 -0.7705132427757895 0
    outer loop
      vertex 1.3610000592466516 2.144592930775118 0
      vertex 1.8515803136503854 1.7387496490588694 0
      vertex 1.8515803136503854 1.7387496490588694 29.209999999999994
    endloop
  endfacet
  facet normal -0.1873813145857248 -0.9822872507286886 0
    outer loop
      vertex 0.1594879196044557 2.53498789020781 0
      vertex 0.7849031657123664 2.41568355138969 29.209999999999994
      vertex 0.1594879196044557 2.53498789020781 29.209999999999994
    endloop
  endfacet
  facet normal -0.42577929156507255 -0.9048270524660197 0
    outer loop
      vertex 1.3610000592466516 2.144592930775118 29.209999999999994
      vertex 0.7849031657123664 2.41568355138969 29.209999999999994
      vertex 0.7849031657123664 2.41568355138969 0
    endloop
  endfacet
  facet normal -0.6374239897486894 -0.7705132427757895 0
    outer loop
      vertex 1.3610000592466516 2.144592930775118 29.209999999999994
      vertex 1.3610000592466516 2.144592930775118 0
      vertex 1.8515803136503854 1.7387496490588694 29.209999999999994
    endloop
  endfacet
  facet normal -0.8090169943749477 -0.5877852522924728 0
    outer loop
      vertex 2.2258189673114135 1.2236543322183568 29.209999999999994
      vertex 1.8515803136503854 1.7387496490588694 29.209999999999994
      vertex 1.8515803136503854 1.7387496490588694 0
    endloop
  endfacet
  facet normal -0.9297764858882515 -0.36812455268467803 0
    outer loop
      vertex 2.460201229266723 0.6316723133987312 29.209999999999994
      vertex 2.2258189673114135 1.2236543322183568 29.209999999999994
      vertex 2.2258189673114135 1.2236543322183568 0
    endloop
  endfacet
  facet normal -0.9921147013144778 -0.1253332335643043 0
    outer loop
      vertex 2.460201229266723 0.6316723133987312 0
      vertex 2.54 0 29.209999999999994
      vertex 2.460201229266723 0.6316723133987312 29.209999999999994
    endloop
  endfacet
endsolid OpenSCAD_Model
