solid OpenSCAD_Model
  facet normal 0 0 1
    outer loop
      vertex -25.343352164247115 21.30936919026535 0
      vertex -24.353297385322175 24.68118611665134 0
      vertex -25.343352164247115 23.140630809734645 0
    endloop
  endfacet
  facet normal 0 0 1
    outer loop
      vertex -25.343352164247115 21.30936919026535 0
      vertex -24.353297385322175 19.768813883348656 0
      vertex -24.353297385322175 24.68118611665134 0
    endloop
  endfacet
  facet normal 0 0 1
    outer loop
      vertex -24.353297385322175 19.768813883348656 0
      vertex -22.687523224388176 19.008080313886968 0
      vertex -22.687523224388176 25.441919686113028 0
    endloop
  endfacet
  facet normal 0 0 1
    outer loop
      vertex -24.353297385322175 19.768813883348656 0
      vertex -22.687523224388176 25.441919686113028 0
      vertex -24.353297385322175 24.68118611665134 0
    endloop
  endfacet
  facet normal 0 0 1
    outer loop
      vertex -22.687523224388176 19.008080313886968 0
      vertex -20.874901207743868 25.181303984902183 0
      vertex -22.687523224388176 25.441919686113028 0
    endloop
  endfacet
  facet normal 0 0 1
    outer loop
      vertex -22.687523224388176 19.008080313886968 0
      vertex -20.874901207743868 19.268696015097813 0
      vertex -20.874901207743868 25.181303984902183 0
    endloop
  endfacet
  facet normal 0 0 1
    outer loop
      vertex -20.874901207743868 19.268696015097813 0
      vertex -19.49092601829866 20.467917343269306 0
      vertex -19.49092601829866 23.98208265673069 0
    endloop
  endfacet
  facet normal 0 0 1
    outer loop
      vertex -20.874901207743868 19.268696015097813 0
      vertex -19.49092601829866 23.98208265673069 0
      vertex -20.874901207743868 25.181303984902183 0
    endloop
  endfacet
  facet normal 0 0 1
    outer loop
      vertex -19.49092601829866 20.467917343269306 0
      vertex -18.974999999999998 22.224999999999998 0
      vertex -19.49092601829866 23.98208265673069 0
    endloop
  endfacet
  facet normal 0.8412535328311814 0.540640817455597 0
    outer loop
      vertex -25.343352164247115 21.30936919026535 10
      vertex -25.343352164247115 21.30936919026535 14.7625
      vertex -24.353297385322175 19.768813883348656 10
    endloop
  endfacet
  facet normal 1 0 0
    outer loop
      vertex -25.343352164247115 21.30936919026535 10
      vertex -25.343352164247115 23.140630809734645 10
      vertex -25.343352164247115 23.140630809734645 14.7625
    endloop
  endfacet
  facet normal 0.8412535328311814 0.540640817455597 0
    outer loop
      vertex -24.353297385322175 19.768813883348656 10
      vertex -25.343352164247115 21.30936919026535 14.7625
      vertex -24.353297385322175 19.768813883348656 14.7625
    endloop
  endfacet
  facet normal 1 0 0
    outer loop
      vertex -25.343352164247115 21.30936919026535 10
      vertex -25.343352164247115 23.140630809734645 14.7625
      vertex -25.343352164247115 21.30936919026535 14.7625
    endloop
  endfacet
  facet normal 0.8412535328311814 -0.540640817455597 0
    outer loop
      vertex -25.343352164247115 23.140630809734645 10
      vertex -24.353297385322175 24.68118611665134 14.7625
      vertex -25.343352164247115 23.140630809734645 14.7625
    endloop
  endfacet
  facet normal 0.8412535328311814 -0.540640817455597 0
    outer loop
      vertex -25.343352164247115 23.140630809734645 10
      vertex -24.353297385322175 24.68118611665134 10
      vertex -24.353297385322175 24.68118611665134 14.7625
    endloop
  endfacet
  facet normal 0.415415013001885 0.909631995354519 0
    outer loop
      vertex -24.353297385322175 19.768813883348656 10
      vertex -24.353297385322175 19.768813883348656 14.7625
      vertex -22.687523224388176 19.008080313886968 10
    endloop
  endfacet
  facet normal -0.14231483827328442 0.9898214418809329 0
    outer loop
      vertex -22.687523224388176 19.008080313886968 10
      vertex -22.687523224388176 19.008080313886968 14.7625
      vertex -20.874901207743868 19.268696015097813 10
    endloop
  endfacet
  facet normal -0.6548607339452849 0.7557495743542584 0
    outer loop
      vertex -20.874901207743868 19.268696015097813 10
      vertex -20.874901207743868 19.268696015097813 14.7625
      vertex -19.49092601829866 20.467917343269306 10
    endloop
  endfacet
  facet normal -0.9594929736144975 0.28173255684142956 0
    outer loop
      vertex -19.49092601829866 20.467917343269306 10
      vertex -19.49092601829866 20.467917343269306 14.7625
      vertex -18.974999999999998 22.224999999999998 10
    endloop
  endfacet
  facet normal -0.9594929736144975 -0.28173255684142956 0
    outer loop
      vertex -18.974999999999998 22.224999999999998 10
      vertex -18.974999999999998 22.224999999999998 14.7625
      vertex -19.49092601829866 23.98208265673069 10
    endloop
  endfacet
  facet normal 0.415415013001885 0.909631995354519 0
    outer loop
      vertex -22.687523224388176 19.008080313886968 10
      vertex -24.353297385322175 19.768813883348656 14.7625
      vertex -22.687523224388176 19.008080313886968 14.7625
    endloop
  endfacet
  facet normal -0.14231483827328442 0.9898214418809329 0
    outer loop
      vertex -20.874901207743868 19.268696015097813 10
      vertex -22.687523224388176 19.008080313886968 14.7625
      vertex -20.874901207743868 19.268696015097813 14.7625
    endloop
  endfacet
  facet normal -0.6548607339452849 0.7557495743542584 0
    outer loop
      vertex -19.49092601829866 20.467917343269306 10
      vertex -20.874901207743868 19.268696015097813 14.7625
      vertex -19.49092601829866 20.467917343269306 14.7625
    endloop
  endfacet
  facet normal -0.9594929736144975 0.28173255684142956 0
    outer loop
      vertex -18.974999999999998 22.224999999999998 10
      vertex -19.49092601829866 20.467917343269306 14.7625
      vertex -18.974999999999998 22.224999999999998 14.7625
    endloop
  endfacet
  facet normal -0.9594929736144975 -0.28173255684142956 0
    outer loop
      vertex -19.49092601829866 23.98208265673069 10
      vertex -18.974999999999998 22.224999999999998 14.7625
      vertex -19.49092601829866 23.98208265673069 14.7625
    endloop
  endfacet
  facet normal 0.415415013001885 -0.909631995354519 0
    outer loop
      vertex -24.353297385322175 24.68118611665134 10
      vertex -22.687523224388176 25.441919686113028 10
      vertex -22.687523224388176 25.441919686113028 14.7625
    endloop
  endfacet
  facet normal -0.14231483827328442 -0.9898214418809329 0
    outer loop
      vertex -22.687523224388176 25.441919686113028 10
      vertex -20.874901207743868 25.181303984902183 10
      vertex -20.874901207743868 25.181303984902183 14.7625
    endloop
  endfacet
  facet normal -0.6548607339452849 -0.7557495743542584 0
    outer loop
      vertex -19.49092601829866 23.98208265673069 10
      vertex -19.49092601829866 23.98208265673069 14.7625
      vertex -20.874901207743868 25.181303984902183 10
    endloop
  endfacet
  facet normal 0.415415013001885 -0.909631995354519 0
    outer loop
      vertex -24.353297385322175 24.68118611665134 10
      vertex -22.687523224388176 25.441919686113028 14.7625
      vertex -24.353297385322175 24.68118611665134 14.7625
    endloop
  endfacet
  facet normal -0.14231483827328442 -0.9898214418809329 0
    outer loop
      vertex -22.687523224388176 25.441919686113028 10
      vertex -20.874901207743868 25.181303984902183 14.7625
      vertex -22.687523224388176 25.441919686113028 14.7625
    endloop
  endfacet
  facet normal -0.6548607339452849 -0.7557495743542584 0
    outer loop
      vertex -20.874901207743868 25.181303984902183 10
      vertex -19.49092601829866 23.98208265673069 14.7625
      vertex -20.874901207743868 25.181303984902183 14.7625
    endloop
  endfacet
  facet normal 0 0 1
    outer loop
      vertex -25.343352164247115 4.084369190265353 0
      vertex -24.353297385322175 7.45618611665134 0
      vertex -25.343352164247115 5.915630809734647 0
    endloop
  endfacet
  facet normal 0 0 1
    outer loop
      vertex -25.343352164247115 4.084369190265353 0
      vertex -24.353297385322175 2.54381388334866 0
      vertex -24.353297385322175 7.45618611665134 0
    endloop
  endfacet
  facet normal 0 0 1
    outer loop
      vertex -22.687523224388176 1.7830803138869689 0
      vertex -20.874901207743868 2.0436960150978156 0
      vertex -20.874901207743868 7.956303984902185 0
    endloop
  endfacet
  facet normal 0 0 1
    outer loop
      vertex -24.353297385322175 2.54381388334866 0
      vertex -22.687523224388176 1.7830803138869689 0
      vertex -22.687523224388176 8.21691968611303 0
    endloop
  endfacet
  facet normal 0 0 1
    outer loop
      vertex -24.353297385322175 2.54381388334866 0
      vertex -22.687523224388176 8.21691968611303 0
      vertex -24.353297385322175 7.45618611665134 0
    endloop
  endfacet
  facet normal 0 0 1
    outer loop
      vertex -22.687523224388176 1.7830803138869689 0
      vertex -20.874901207743868 7.956303984902185 0
      vertex -22.687523224388176 8.21691968611303 0
    endloop
  endfacet
  facet normal 0 0 1
    outer loop
      vertex -20.874901207743868 2.0436960150978156 0
      vertex -19.49092601829866 3.2429173432693066 0
      vertex -19.49092601829866 6.757082656730692 0
    endloop
  endfacet
  facet normal 0 0 1
    outer loop
      vertex -20.874901207743868 2.0436960150978156 0
      vertex -19.49092601829866 6.757082656730692 0
      vertex -20.874901207743868 7.956303984902185 0
    endloop
  endfacet
  facet normal 0 0 1
    outer loop
      vertex -19.49092601829866 3.2429173432693066 0
      vertex -18.974999999999998 5 0
      vertex -19.49092601829866 6.757082656730692 0
    endloop
  endfacet
  facet normal 0.8412535328311814 0.5406408174555972 0
    outer loop
      vertex -25.343352164247115 4.084369190265353 10
      vertex -25.343352164247115 4.084369190265353 14.7625
      vertex -24.353297385322175 2.54381388334866 10
    endloop
  endfacet
  facet normal 1 0 0
    outer loop
      vertex -25.343352164247115 4.084369190265353 10
      vertex -25.343352164247115 5.915630809734647 10
      vertex -25.343352164247115 5.915630809734647 14.7625
    endloop
  endfacet
  facet normal 0.8412535328311814 -0.5406408174555972 0
    outer loop
      vertex -25.343352164247115 5.915630809734647 10
      vertex -24.353297385322175 7.45618611665134 10
      vertex -24.353297385322175 7.45618611665134 14.7625
    endloop
  endfacet
  facet normal 0.8412535328311814 0.5406408174555972 0
    outer loop
      vertex -24.353297385322175 2.54381388334866 10
      vertex -25.343352164247115 4.084369190265353 14.7625
      vertex -24.353297385322175 2.54381388334866 14.7625
    endloop
  endfacet
  facet normal 1 0 0
    outer loop
      vertex -25.343352164247115 4.084369190265353 10
      vertex -25.343352164247115 5.915630809734647 14.7625
      vertex -25.343352164247115 4.084369190265353 14.7625
    endloop
  endfacet
  facet normal 0.8412535328311814 -0.5406408174555972 0
    outer loop
      vertex -25.343352164247115 5.915630809734647 10
      vertex -24.353297385322175 7.45618611665134 14.7625
      vertex -25.343352164247115 5.915630809734647 14.7625
    endloop
  endfacet
  facet normal -0.14231483827328514 0.9898214418809327 0
    outer loop
      vertex -22.687523224388176 1.7830803138869689 10
      vertex -22.687523224388176 1.7830803138869689 14.7625
      vertex -20.874901207743868 2.0436960150978156 10
    endloop
  endfacet
  facet normal 0.4154150130018862 0.9096319953545184 0
    outer loop
      vertex -24.353297385322175 2.54381388334866 10
      vertex -24.353297385322175 2.54381388334866 14.7625
      vertex -22.687523224388176 1.7830803138869689 10
    endloop
  endfacet
  facet normal -0.6548607339452842 0.755749574354259 0
    outer loop
      vertex -20.874901207743868 2.0436960150978156 10
      vertex -20.874901207743868 2.0436960150978156 14.7625
      vertex -19.49092601829866 3.2429173432693066 10
    endloop
  endfacet
  facet normal -0.6548607339452849 -0.7557495743542584 0
    outer loop
      vertex -20.874901207743868 7.956303984902185 10
      vertex -19.49092601829866 6.757082656730692 10
      vertex -19.49092601829866 6.757082656730692 14.7625
    endloop
  endfacet
  facet normal -0.9594929736144975 0.2817325568414292 0
    outer loop
      vertex -19.49092601829866 3.2429173432693066 10
      vertex -19.49092601829866 3.2429173432693066 14.7625
      vertex -18.974999999999998 5 10
    endloop
  endfacet
  facet normal -0.9594929736144975 -0.28173255684142956 0
    outer loop
      vertex -18.974999999999998 5 10
      vertex -18.974999999999998 5 14.7625
      vertex -19.49092601829866 6.757082656730692 10
    endloop
  endfacet
  facet normal 0.4154150130018862 0.9096319953545184 0
    outer loop
      vertex -22.687523224388176 1.7830803138869689 10
      vertex -24.353297385322175 2.54381388334866 14.7625
      vertex -22.687523224388176 1.7830803138869689 14.7625
    endloop
  endfacet
  facet normal -0.14231483827328514 0.9898214418809327 0
    outer loop
      vertex -20.874901207743868 2.0436960150978156 10
      vertex -22.687523224388176 1.7830803138869689 14.7625
      vertex -20.874901207743868 2.0436960150978156 14.7625
    endloop
  endfacet
  facet normal -0.6548607339452842 0.755749574354259 0
    outer loop
      vertex -19.49092601829866 3.2429173432693066 10
      vertex -20.874901207743868 2.0436960150978156 14.7625
      vertex -19.49092601829866 3.2429173432693066 14.7625
    endloop
  endfacet
  facet normal 0.41541501300188577 -0.9096319953545187 0
    outer loop
      vertex -24.353297385322175 7.45618611665134 10
      vertex -22.687523224388176 8.21691968611303 14.7625
      vertex -24.353297385322175 7.45618611665134 14.7625
    endloop
  endfacet
  facet normal -0.6548607339452849 -0.7557495743542584 0
    outer loop
      vertex -20.874901207743868 7.956303984902185 10
      vertex -19.49092601829866 6.757082656730692 14.7625
      vertex -20.874901207743868 7.956303984902185 14.7625
    endloop
  endfacet
  facet normal -0.9594929736144975 0.2817325568414292 0
    outer loop
      vertex -18.974999999999998 5 10
      vertex -19.49092601829866 3.2429173432693066 14.7625
      vertex -18.974999999999998 5 14.7625
    endloop
  endfacet
  facet normal -0.9594929736144975 -0.28173255684142956 0
    outer loop
      vertex -19.49092601829866 6.757082656730692 10
      vertex -18.974999999999998 5 14.7625
      vertex -19.49092601829866 6.757082656730692 14.7625
    endloop
  endfacet
  facet normal 0.41541501300188577 -0.9096319953545187 0
    outer loop
      vertex -24.353297385322175 7.45618611665134 10
      vertex -22.687523224388176 8.21691968611303 10
      vertex -22.687523224388176 8.21691968611303 14.7625
    endloop
  endfacet
  facet normal -0.14231483827328442 -0.9898214418809329 0
    outer loop
      vertex -22.687523224388176 8.21691968611303 10
      vertex -20.874901207743868 7.956303984902185 10
      vertex -20.874901207743868 7.956303984902185 14.7625
    endloop
  endfacet
  facet normal -0.14231483827328442 -0.9898214418809329 0
    outer loop
      vertex -22.687523224388176 8.21691968611303 10
      vertex -20.874901207743868 7.956303984902185 14.7625
      vertex -22.687523224388176 8.21691968611303 14.7625
    endloop
  endfacet
  facet normal 0 0 1
    outer loop
      vertex 20.09670261467782 19.768813883348656 0
      vertex 20.09670261467782 24.68118611665134 0
      vertex 19.10664783575288 21.30936919026535 0
    endloop
  endfacet
  facet normal 0 0 1
    outer loop
      vertex 19.10664783575288 21.30936919026535 0
      vertex 20.09670261467782 24.68118611665134 0
      vertex 19.10664783575288 23.140630809734645 0
    endloop
  endfacet
  facet normal 0 0 1
    outer loop
      vertex 20.09670261467782 19.768813883348656 0
      vertex 21.76247677561182 19.008080313886968 0
      vertex 21.76247677561182 25.441919686113028 0
    endloop
  endfacet
  facet normal 0 0 1
    outer loop
      vertex 20.09670261467782 19.768813883348656 0
      vertex 21.76247677561182 25.441919686113028 0
      vertex 20.09670261467782 24.68118611665134 0
    endloop
  endfacet
  facet normal 0 0 1
    outer loop
      vertex 21.76247677561182 19.008080313886968 0
      vertex 23.575098792256128 19.268696015097813 0
      vertex 23.575098792256128 25.181303984902183 0
    endloop
  endfacet
  facet normal 0 0 1
    outer loop
      vertex 21.76247677561182 19.008080313886968 0
      vertex 23.575098792256128 25.181303984902183 0
      vertex 21.76247677561182 25.441919686113028 0
    endloop
  endfacet
  facet normal 0 0 1
    outer loop
      vertex 23.575098792256128 19.268696015097813 0
      vertex 24.959073981701337 20.467917343269306 0
      vertex 24.959073981701337 23.98208265673069 0
    endloop
  endfacet
  facet normal 0 0 1
    outer loop
      vertex 23.575098792256128 19.268696015097813 0
      vertex 24.959073981701337 23.98208265673069 0
      vertex 23.575098792256128 25.181303984902183 0
    endloop
  endfacet
  facet normal 0 0 1
    outer loop
      vertex 24.959073981701337 20.467917343269306 0
      vertex 25.474999999999998 22.224999999999998 0
      vertex 24.959073981701337 23.98208265673069 0
    endloop
  endfacet
  facet normal 0.8412535328311814 0.540640817455597 0
    outer loop
      vertex 20.09670261467782 19.768813883348656 10
      vertex 19.10664783575288 21.30936919026535 10
      vertex 19.10664783575288 21.30936919026535 14.7625
    endloop
  endfacet
  facet normal 1 0 0
    outer loop
      vertex 19.10664783575288 21.30936919026535 10
      vertex 19.10664783575288 23.140630809734645 10
      vertex 19.10664783575288 23.140630809734645 14.7625
    endloop
  endfacet
  facet normal 0.415415013001885 0.909631995354519 0
    outer loop
      vertex 20.09670261467782 19.768813883348656 10
      vertex 20.09670261467782 19.768813883348656 14.7625
      vertex 21.76247677561182 19.008080313886968 10
    endloop
  endfacet
  facet normal -0.14231483827328442 0.9898214418809329 0
    outer loop
      vertex 21.76247677561182 19.008080313886968 10
      vertex 21.76247677561182 19.008080313886968 14.7625
      vertex 23.575098792256128 19.268696015097813 10
    endloop
  endfacet
  facet normal 0.8412535328311814 0.540640817455597 0
    outer loop
      vertex 20.09670261467782 19.768813883348656 10
      vertex 19.10664783575288 21.30936919026535 14.7625
      vertex 20.09670261467782 19.768813883348656 14.7625
    endloop
  endfacet
  facet normal 1 0 0
    outer loop
      vertex 19.10664783575288 21.30936919026535 10
      vertex 19.10664783575288 23.140630809734645 14.7625
      vertex 19.10664783575288 21.30936919026535 14.7625
    endloop
  endfacet
  facet normal 0.8412535328311814 -0.540640817455597 0
    outer loop
      vertex 19.10664783575288 23.140630809734645 10
      vertex 20.09670261467782 24.68118611665134 14.7625
      vertex 19.10664783575288 23.140630809734645 14.7625
    endloop
  endfacet
  facet normal 0.415415013001885 0.909631995354519 0
    outer loop
      vertex 21.76247677561182 19.008080313886968 10
      vertex 20.09670261467782 19.768813883348656 14.7625
      vertex 21.76247677561182 19.008080313886968 14.7625
    endloop
  endfacet
  facet normal -0.14231483827328442 0.9898214418809329 0
    outer loop
      vertex 23.575098792256128 19.268696015097813 10
      vertex 21.76247677561182 19.008080313886968 14.7625
      vertex 23.575098792256128 19.268696015097813 14.7625
    endloop
  endfacet
  facet normal 0.8412535328311814 -0.540640817455597 0
    outer loop
      vertex 19.10664783575288 23.140630809734645 10
      vertex 20.09670261467782 24.68118611665134 10
      vertex 20.09670261467782 24.68118611665134 14.7625
    endloop
  endfacet
  facet normal 0.415415013001885 -0.909631995354519 0
    outer loop
      vertex 20.09670261467782 24.68118611665134 10
      vertex 21.76247677561182 25.441919686113028 10
      vertex 21.76247677561182 25.441919686113028 14.7625
    endloop
  endfacet
  facet normal -0.14231483827328442 -0.9898214418809329 0
    outer loop
      vertex 21.76247677561182 25.441919686113028 10
      vertex 23.575098792256128 25.181303984902183 10
      vertex 23.575098792256128 25.181303984902183 14.7625
    endloop
  endfacet
  facet normal 0.415415013001885 -0.909631995354519 0
    outer loop
      vertex 20.09670261467782 24.68118611665134 10
      vertex 21.76247677561182 25.441919686113028 14.7625
      vertex 20.09670261467782 24.68118611665134 14.7625
    endloop
  endfacet
  facet normal -0.14231483827328442 -0.9898214418809329 0
    outer loop
      vertex 21.76247677561182 25.441919686113028 10
      vertex 23.575098792256128 25.181303984902183 14.7625
      vertex 21.76247677561182 25.441919686113028 14.7625
    endloop
  endfacet
  facet normal -0.6548607339452849 0.7557495743542584 0
    outer loop
      vertex 23.575098792256128 19.268696015097813 10
      vertex 23.575098792256128 19.268696015097813 14.7625
      vertex 24.959073981701337 20.467917343269306 10
    endloop
  endfacet
  facet normal -0.9594929736144975 0.28173255684142956 0
    outer loop
      vertex 24.959073981701337 20.467917343269306 10
      vertex 24.959073981701337 20.467917343269306 14.7625
      vertex 25.474999999999998 22.224999999999998 10
    endloop
  endfacet
  facet normal -0.9594929736144975 -0.28173255684142956 0
    outer loop
      vertex 24.959073981701337 23.98208265673069 10
      vertex 25.474999999999998 22.224999999999998 10
      vertex 25.474999999999998 22.224999999999998 14.7625
    endloop
  endfacet
  facet normal -0.6548607339452849 0.7557495743542584 0
    outer loop
      vertex 24.959073981701337 20.467917343269306 10
      vertex 23.575098792256128 19.268696015097813 14.7625
      vertex 24.959073981701337 20.467917343269306 14.7625
    endloop
  endfacet
  facet normal -0.9594929736144975 0.28173255684142956 0
    outer loop
      vertex 25.474999999999998 22.224999999999998 10
      vertex 24.959073981701337 20.467917343269306 14.7625
      vertex 25.474999999999998 22.224999999999998 14.7625
    endloop
  endfacet
  facet normal -0.9594929736144975 -0.28173255684142956 0
    outer loop
      vertex 24.959073981701337 23.98208265673069 10
      vertex 25.474999999999998 22.224999999999998 14.7625
      vertex 24.959073981701337 23.98208265673069 14.7625
    endloop
  endfacet
  facet normal -0.6548607339452849 -0.7557495743542584 0
    outer loop
      vertex 24.959073981701337 23.98208265673069 10
      vertex 24.959073981701337 23.98208265673069 14.7625
      vertex 23.575098792256128 25.181303984902183 10
    endloop
  endfacet
  facet normal -0.6548607339452849 -0.7557495743542584 0
    outer loop
      vertex 23.575098792256128 25.181303984902183 10
      vertex 24.959073981701337 23.98208265673069 14.7625
      vertex 23.575098792256128 25.181303984902183 14.7625
    endloop
  endfacet
  facet normal 0 0 1
    outer loop
      vertex 19.10664783575288 4.084369190265353 0
      vertex 20.09670261467782 2.54381388334866 0
      vertex 20.09670261467782 7.45618611665134 0
    endloop
  endfacet
  facet normal 0 0 1
    outer loop
      vertex 19.10664783575288 4.084369190265353 0
      vertex 20.09670261467782 7.45618611665134 0
      vertex 19.10664783575288 5.915630809734647 0
    endloop
  endfacet
  facet normal 0 0 1
    outer loop
      vertex 21.76247677561182 1.7830803138869689 0
      vertex 23.575098792256128 2.0436960150978156 0
      vertex 23.575098792256128 7.956303984902185 0
    endloop
  endfacet
  facet normal 0 0 1
    outer loop
      vertex 20.09670261467782 2.54381388334866 0
      vertex 21.76247677561182 1.7830803138869689 0
      vertex 21.76247677561182 8.21691968611303 0
    endloop
  endfacet
  facet normal 0 0 1
    outer loop
      vertex 20.09670261467782 2.54381388334866 0
      vertex 21.76247677561182 8.21691968611303 0
      vertex 20.09670261467782 7.45618611665134 0
    endloop
  endfacet
  facet normal 0 0 1
    outer loop
      vertex 21.76247677561182 1.7830803138869689 0
      vertex 23.575098792256128 7.956303984902185 0
      vertex 21.76247677561182 8.21691968611303 0
    endloop
  endfacet
  facet normal 0 0 1
    outer loop
      vertex 23.575098792256128 2.0436960150978156 0
      vertex 24.959073981701337 3.2429173432693066 0
      vertex 24.959073981701337 6.757082656730692 0
    endloop
  endfacet
  facet normal 0 0 1
    outer loop
      vertex 23.575098792256128 2.0436960150978156 0
      vertex 24.959073981701337 6.757082656730692 0
      vertex 23.575098792256128 7.956303984902185 0
    endloop
  endfacet
  facet normal 0 0 1
    outer loop
      vertex 24.959073981701337 3.2429173432693066 0
      vertex 25.474999999999998 5 0
      vertex 24.959073981701337 6.757082656730692 0
    endloop
  endfacet
  facet normal 0.8412535328311814 0.5406408174555972 0
    outer loop
      vertex 19.10664783575288 4.084369190265353 10
      vertex 19.10664783575288 4.084369190265353 14.7625
      vertex 20.09670261467782 2.54381388334866 10
    endloop
  endfacet
  facet normal 1 0 0
    outer loop
      vertex 19.10664783575288 4.084369190265353 10
      vertex 19.10664783575288 5.915630809734647 10
      vertex 19.10664783575288 5.915630809734647 14.7625
    endloop
  endfacet
  facet normal 0.8412535328311814 -0.5406408174555972 0
    outer loop
      vertex 19.10664783575288 5.915630809734647 10
      vertex 20.09670261467782 7.45618611665134 10
      vertex 20.09670261467782 7.45618611665134 14.7625
    endloop
  endfacet
  facet normal 0.4154150130018862 0.9096319953545184 0
    outer loop
      vertex 20.09670261467782 2.54381388334866 10
      vertex 20.09670261467782 2.54381388334866 14.7625
      vertex 21.76247677561182 1.7830803138869689 10
    endloop
  endfacet
  facet normal -0.14231483827328514 0.9898214418809327 0
    outer loop
      vertex 21.76247677561182 1.7830803138869689 10
      vertex 21.76247677561182 1.7830803138869689 14.7625
      vertex 23.575098792256128 2.0436960150978156 10
    endloop
  endfacet
  facet normal 0.8412535328311814 0.5406408174555972 0
    outer loop
      vertex 20.09670261467782 2.54381388334866 10
      vertex 19.10664783575288 4.084369190265353 14.7625
      vertex 20.09670261467782 2.54381388334866 14.7625
    endloop
  endfacet
  facet normal 1 0 0
    outer loop
      vertex 19.10664783575288 4.084369190265353 10
      vertex 19.10664783575288 5.915630809734647 14.7625
      vertex 19.10664783575288 4.084369190265353 14.7625
    endloop
  endfacet
  facet normal 0.8412535328311814 -0.5406408174555972 0
    outer loop
      vertex 19.10664783575288 5.915630809734647 10
      vertex 20.09670261467782 7.45618611665134 14.7625
      vertex 19.10664783575288 5.915630809734647 14.7625
    endloop
  endfacet
  facet normal 0.4154150130018862 0.9096319953545184 0
    outer loop
      vertex 21.76247677561182 1.7830803138869689 10
      vertex 20.09670261467782 2.54381388334866 14.7625
      vertex 21.76247677561182 1.7830803138869689 14.7625
    endloop
  endfacet
  facet normal -0.14231483827328514 0.9898214418809327 0
    outer loop
      vertex 23.575098792256128 2.0436960150978156 10
      vertex 21.76247677561182 1.7830803138869689 14.7625
      vertex 23.575098792256128 2.0436960150978156 14.7625
    endloop
  endfacet
  facet normal 0.41541501300188577 -0.9096319953545187 0
    outer loop
      vertex 20.09670261467782 7.45618611665134 10
      vertex 21.76247677561182 8.21691968611303 14.7625
      vertex 20.09670261467782 7.45618611665134 14.7625
    endloop
  endfacet
  facet normal 0.41541501300188577 -0.9096319953545187 0
    outer loop
      vertex 20.09670261467782 7.45618611665134 10
      vertex 21.76247677561182 8.21691968611303 10
      vertex 21.76247677561182 8.21691968611303 14.7625
    endloop
  endfacet
  facet normal -0.14231483827328442 -0.9898214418809329 0
    outer loop
      vertex 21.76247677561182 8.21691968611303 10
      vertex 23.575098792256128 7.956303984902185 10
      vertex 23.575098792256128 7.956303984902185 14.7625
    endloop
  endfacet
  facet normal -0.14231483827328442 -0.9898214418809329 0
    outer loop
      vertex 21.76247677561182 8.21691968611303 10
      vertex 23.575098792256128 7.956303984902185 14.7625
      vertex 21.76247677561182 8.21691968611303 14.7625
    endloop
  endfacet
  facet normal -0.6548607339452842 0.755749574354259 0
    outer loop
      vertex 23.575098792256128 2.0436960150978156 10
      vertex 23.575098792256128 2.0436960150978156 14.7625
      vertex 24.959073981701337 3.2429173432693066 10
    endloop
  endfacet
  facet normal -0.9594929736144975 0.2817325568414292 0
    outer loop
      vertex 24.959073981701337 3.2429173432693066 10
      vertex 24.959073981701337 3.2429173432693066 14.7625
      vertex 25.474999999999998 5 10
    endloop
  endfacet
  facet normal -0.9594929736144975 -0.28173255684142956 0
    outer loop
      vertex 24.959073981701337 6.757082656730692 10
      vertex 25.474999999999998 5 10
      vertex 25.474999999999998 5 14.7625
    endloop
  endfacet
  facet normal -0.6548607339452849 -0.7557495743542584 0
    outer loop
      vertex 23.575098792256128 7.956303984902185 10
      vertex 24.959073981701337 6.757082656730692 10
      vertex 24.959073981701337 6.757082656730692 14.7625
    endloop
  endfacet
  facet normal -0.6548607339452842 0.755749574354259 0
    outer loop
      vertex 24.959073981701337 3.2429173432693066 10
      vertex 23.575098792256128 2.0436960150978156 14.7625
      vertex 24.959073981701337 3.2429173432693066 14.7625
    endloop
  endfacet
  facet normal -0.9594929736144975 0.2817325568414292 0
    outer loop
      vertex 25.474999999999998 5 10
      vertex 24.959073981701337 3.2429173432693066 14.7625
      vertex 25.474999999999998 5 14.7625
    endloop
  endfacet
  facet normal -0.6548607339452849 -0.7557495743542584 0
    outer loop
      vertex 23.575098792256128 7.956303984902185 10
      vertex 24.959073981701337 6.757082656730692 14.7625
      vertex 23.575098792256128 7.956303984902185 14.7625
    endloop
  endfacet
  facet normal -0.9594929736144975 -0.28173255684142956 0
    outer loop
      vertex 24.959073981701337 6.757082656730692 10
      vertex 25.474999999999998 5 14.7625
      vertex 24.959073981701337 6.757082656730692 14.7625
    endloop
  endfacet
  facet normal 0 0 -1
    outer loop
      vertex -31.75 -31.75 -9.524999999999999
      vertex -13.625 -15.625 -9.524999999999999
      vertex -6.8125 -27.424596126562975 -9.524999999999999
    endloop
  endfacet
  facet normal -1 0 0
    outer loop
      vertex -31.75 -31.75 -9.524999999999999
      vertex -31.75 -31.75 14.7625
      vertex -31.75 0 0
    endloop
  endfacet
  facet normal 0 0 -1
    outer loop
      vertex -31.75 -31.75 -9.524999999999999
      vertex -31.75 31.75 -9.524999999999999
      vertex -13.625 -15.625 -9.524999999999999
    endloop
  endfacet
  facet normal 0 0 -1
    outer loop
      vertex -31.75 -31.75 -9.524999999999999
      vertex -6.8125 -27.424596126562975 -9.524999999999999
      vertex 31.75 -31.75 -9.524999999999999
    endloop
  endfacet
  facet normal 0 0 1
    outer loop
      vertex -31.75 -31.75 14.7625
      vertex -6.8125 -27.424596126562975 14.7625
      vertex -13.625 -15.625 14.7625
    endloop
  endfacet
  facet normal -1 0 0
    outer loop
      vertex -31.75 -31.75 14.7625
      vertex -31.75 0 10
      vertex -31.75 0 0
    endloop
  endfacet
  facet normal 0 0 1
    outer loop
      vertex -31.75 -31.75 14.7625
      vertex -24.353297385322175 2.54381388334866 14.7625
      vertex -25.343352164247115 4.084369190265353 14.7625
    endloop
  endfacet
  facet normal 0 0 1
    outer loop
      vertex -31.75 -31.75 14.7625
      vertex -25.343352164247115 4.084369190265353 14.7625
      vertex -25.343352164247115 5.915630809734647 14.7625
    endloop
  endfacet
  facet normal 0 0 1
    outer loop
      vertex -31.75 -31.75 14.7625
      vertex -13.625 -15.625 14.7625
      vertex -24.353297385322175 2.54381388334866 14.7625
    endloop
  endfacet
  facet normal 0 0 1
    outer loop
      vertex -13.625 -15.625 14.7625
      vertex -22.687523224388176 1.7830803138869689 14.7625
      vertex -24.353297385322175 2.54381388334866 14.7625
    endloop
  endfacet
  facet normal 0 0 1
    outer loop
      vertex -13.625 -15.625 14.7625
      vertex -20.874901207743868 2.0436960150978156 14.7625
      vertex -22.687523224388176 1.7830803138869689 14.7625
    endloop
  endfacet
  facet normal 0 0 1
    outer loop
      vertex -13.625 -15.625 14.7625
      vertex -19.49092601829866 3.2429173432693066 14.7625
      vertex -20.874901207743868 2.0436960150978156 14.7625
    endloop
  endfacet
  facet normal 0 -1 0
    outer loop
      vertex -31.75 -31.75 -9.524999999999999
      vertex 31.75 -31.75 14.7625
      vertex -31.75 -31.75 14.7625
    endloop
  endfacet
  facet normal 0 0 1
    outer loop
      vertex -31.75 -31.75 14.7625
      vertex 6.8125 -27.424596126562975 14.7625
      vertex -6.8125 -27.424596126562975 14.7625
    endloop
  endfacet
  facet normal 0 0 1
    outer loop
      vertex -6.8125 -3.8254038734370237 14.7625
      vertex -19.49092601829866 3.2429173432693066 14.7625
      vertex -13.625 -15.625 14.7625
    endloop
  endfacet
  facet normal 0 0 1
    outer loop
      vertex -6.8125 -3.8254038734370237 14.7625
      vertex 6.8125 -3.8254038734370237 14.7625
      vertex -19.49092601829866 3.2429173432693066 14.7625
    endloop
  endfacet
  facet normal -1 0 0
    outer loop
      vertex -31.75 -31.75 -9.524999999999999
      vertex -31.75 31.75 0
      vertex -31.75 31.75 -9.524999999999999
    endloop
  endfacet
  facet normal 0 0 -1
    outer loop
      vertex -31.75 31.75 -9.524999999999999
      vertex -6.8125 -3.8254038734370237 -9.524999999999999
      vertex -13.625 -15.625 -9.524999999999999
    endloop
  endfacet
  facet normal -1 0 0
    outer loop
      vertex -31.75 -31.75 -9.524999999999999
      vertex -31.75 0 0
      vertex -31.75 31.75 0
    endloop
  endfacet
  facet normal 0 0 -1
    outer loop
      vertex -31.75 31.75 -9.524999999999999
      vertex 31.75 31.75 -9.524999999999999
      vertex -6.8125 -3.8254038734370237 -9.524999999999999
    endloop
  endfacet
  facet normal 0 1 0
    outer loop
      vertex -31.75 31.75 -9.524999999999999
      vertex -31.75 31.75 0
      vertex 31.75 31.75 0
    endloop
  endfacet
  facet normal -1 0 0
    outer loop
      vertex -31.75 -31.75 14.7625
      vertex -31.75 31.75 10
      vertex -31.75 0 10
    endloop
  endfacet
  facet normal 0 0 1
    outer loop
      vertex -31.75 -31.75 14.7625
      vertex -25.343352164247115 5.915630809734647 14.7625
      vertex -31.75 31.75 14.7625
    endloop
  endfacet
  facet normal -1 0 0
    outer loop
      vertex -31.75 -31.75 14.7625
      vertex -31.75 31.75 14.7625
      vertex -31.75 31.75 10
    endloop
  endfacet
  facet normal 0 0 1
    outer loop
      vertex -25.343352164247115 5.915630809734647 14.7625
      vertex -24.353297385322175 7.45618611665134 14.7625
      vertex -25.343352164247115 21.30936919026535 14.7625
    endloop
  endfacet
  facet normal 0 0 1
    outer loop
      vertex -22.687523224388176 8.21691968611303 14.7625
      vertex -24.353297385322175 19.768813883348656 14.7625
      vertex -24.353297385322175 7.45618611665134 14.7625
    endloop
  endfacet
  facet normal 0 0 1
    outer loop
      vertex -20.874901207743868 7.956303984902185 14.7625
      vertex -22.687523224388176 19.008080313886968 14.7625
      vertex -22.687523224388176 8.21691968611303 14.7625
    endloop
  endfacet
  facet normal 0 0 1
    outer loop
      vertex -19.49092601829866 6.757082656730692 14.7625
      vertex -22.687523224388176 19.008080313886968 14.7625
      vertex -20.874901207743868 7.956303984902185 14.7625
    endloop
  endfacet
  facet normal 0 0 1
    outer loop
      vertex -18.974999999999998 5 14.7625
      vertex -22.687523224388176 19.008080313886968 14.7625
      vertex -19.49092601829866 6.757082656730692 14.7625
    endloop
  endfacet
  facet normal 0 0 1
    outer loop
      vertex -22.687523224388176 8.21691968611303 14.7625
      vertex -22.687523224388176 19.008080313886968 14.7625
      vertex -24.353297385322175 19.768813883348656 14.7625
    endloop
  endfacet
  facet normal 0 0 1
    outer loop
      vertex -31.75 31.75 14.7625
      vertex -25.343352164247115 5.915630809734647 14.7625
      vertex -25.343352164247115 21.30936919026535 14.7625
    endloop
  endfacet
  facet normal 0 0 1
    outer loop
      vertex -24.353297385322175 7.45618611665134 14.7625
      vertex -24.353297385322175 19.768813883348656 14.7625
      vertex -25.343352164247115 21.30936919026535 14.7625
    endloop
  endfacet
  facet normal 0 0 1
    outer loop
      vertex -31.75 31.75 14.7625
      vertex -25.343352164247115 21.30936919026535 14.7625
      vertex -25.343352164247115 23.140630809734645 14.7625
    endloop
  endfacet
  facet normal 0 0 1
    outer loop
      vertex -31.75 31.75 14.7625
      vertex -25.343352164247115 23.140630809734645 14.7625
      vertex -24.353297385322175 24.68118611665134 14.7625
    endloop
  endfacet
  facet normal 0 0 1
    outer loop
      vertex -31.75 31.75 14.7625
      vertex -24.353297385322175 24.68118611665134 14.7625
      vertex -22.687523224388176 25.441919686113028 14.7625
    endloop
  endfacet
  facet normal 0 0 1
    outer loop
      vertex 6.8125 -3.8254038734370237 14.7625
      vertex -18.974999999999998 5 14.7625
      vertex -19.49092601829866 3.2429173432693066 14.7625
    endloop
  endfacet
  facet normal 0 0 1
    outer loop
      vertex 6.8125 -3.8254038734370237 14.7625
      vertex -22.687523224388176 19.008080313886968 14.7625
      vertex -18.974999999999998 5 14.7625
    endloop
  endfacet
  facet normal 0 0 1
    outer loop
      vertex 6.8125 -3.8254038734370237 14.7625
      vertex -20.874901207743868 19.268696015097813 14.7625
      vertex -22.687523224388176 19.008080313886968 14.7625
    endloop
  endfacet
  facet normal 0 0 1
    outer loop
      vertex 6.8125 -3.8254038734370237 14.7625
      vertex -19.49092601829866 20.467917343269306 14.7625
      vertex -20.874901207743868 19.268696015097813 14.7625
    endloop
  endfacet
  facet normal 0 0 1
    outer loop
      vertex 6.8125 -3.8254038734370237 14.7625
      vertex -18.974999999999998 22.224999999999998 14.7625
      vertex -19.49092601829866 20.467917343269306 14.7625
    endloop
  endfacet
  facet normal 0 1 0
    outer loop
      vertex -31.75 31.75 14.7625
      vertex 31.75 31.75 10
      vertex -31.75 31.75 10
    endloop
  endfacet
  facet normal 0 0 1
    outer loop
      vertex -18.974999999999998 22.224999999999998 14.7625
      vertex 19.10664783575288 23.140630809734645 14.7625
      vertex -19.49092601829866 23.98208265673069 14.7625
    endloop
  endfacet
  facet normal 0 0 1
    outer loop
      vertex -31.75 31.75 14.7625
      vertex -22.687523224388176 25.441919686113028 14.7625
      vertex 31.75 31.75 14.7625
    endloop
  endfacet
  facet normal 0 0 1
    outer loop
      vertex 31.75 31.75 14.7625
      vertex -22.687523224388176 25.441919686113028 14.7625
      vertex -20.874901207743868 25.181303984902183 14.7625
    endloop
  endfacet
  facet normal 0 0 1
    outer loop
      vertex 31.75 31.75 14.7625
      vertex -20.874901207743868 25.181303984902183 14.7625
      vertex -19.49092601829866 23.98208265673069 14.7625
    endloop
  endfacet
  facet normal 0 0 -1
    outer loop
      vertex 31.75 -31.75 -9.524999999999999
      vertex -6.8125 -27.424596126562975 -9.524999999999999
      vertex 6.8125 -27.424596126562975 -9.524999999999999
    endloop
  endfacet
  facet normal 0 -1 0
    outer loop
      vertex -31.75 -31.75 -9.524999999999999
      vertex 31.75 -31.75 -9.524999999999999
      vertex 31.75 -31.75 14.7625
    endloop
  endfacet
  facet normal 0 0 -1
    outer loop
      vertex 31.75 -31.75 -9.524999999999999
      vertex 6.8125 -27.424596126562975 -9.524999999999999
      vertex 13.625 -15.625 -9.524999999999999
    endloop
  endfacet
  facet normal 0 0 -1
    outer loop
      vertex 31.75 -31.75 -9.524999999999999
      vertex 13.625 -15.625 -9.524999999999999
      vertex 31.75 31.75 -9.524999999999999
    endloop
  endfacet
  facet normal 1 0 0
    outer loop
      vertex 31.75 -31.75 -9.524999999999999
      vertex 31.75 0 0
      vertex 31.75 0 10
    endloop
  endfacet
  facet normal 0 0 1
    outer loop
      vertex -31.75 -31.75 14.7625
      vertex 31.75 -31.75 14.7625
      vertex 6.8125 -27.424596126562975 14.7625
    endloop
  endfacet
  facet normal 0 0 1
    outer loop
      vertex 13.625 -15.625 14.7625
      vertex 20.09670261467782 2.54381388334866 14.7625
      vertex 6.8125 -3.8254038734370237 14.7625
    endloop
  endfacet
  facet normal 1 0 0
    outer loop
      vertex 31.75 -31.75 -9.524999999999999
      vertex 31.75 0 10
      vertex 31.75 -31.75 14.7625
    endloop
  endfacet
  facet normal 0 0 1
    outer loop
      vertex 31.75 -31.75 14.7625
      vertex 13.625 -15.625 14.7625
      vertex 6.8125 -27.424596126562975 14.7625
    endloop
  endfacet
  facet normal 0 0 1
    outer loop
      vertex 31.75 -31.75 14.7625
      vertex 21.76247677561182 1.7830803138869689 14.7625
      vertex 13.625 -15.625 14.7625
    endloop
  endfacet
  facet normal 0 0 1
    outer loop
      vertex 13.625 -15.625 14.7625
      vertex 21.76247677561182 1.7830803138869689 14.7625
      vertex 20.09670261467782 2.54381388334866 14.7625
    endloop
  endfacet
  facet normal 0 0 1
    outer loop
      vertex 31.75 -31.75 14.7625
      vertex 23.575098792256128 2.0436960150978156 14.7625
      vertex 21.76247677561182 1.7830803138869689 14.7625
    endloop
  endfacet
  facet normal 0 0 1
    outer loop
      vertex 31.75 -31.75 14.7625
      vertex 24.959073981701337 3.2429173432693066 14.7625
      vertex 23.575098792256128 2.0436960150978156 14.7625
    endloop
  endfacet
  facet normal 0 0 1
    outer loop
      vertex 31.75 -31.75 14.7625
      vertex 25.474999999999998 5 14.7625
      vertex 24.959073981701337 3.2429173432693066 14.7625
    endloop
  endfacet
  facet normal 0 0 -1
    outer loop
      vertex 31.75 31.75 -9.524999999999999
      vertex 6.8125 -3.8254038734370237 -9.524999999999999
      vertex -6.8125 -3.8254038734370237 -9.524999999999999
    endloop
  endfacet
  facet normal 0 1 0
    outer loop
      vertex -31.75 31.75 -9.524999999999999
      vertex 31.75 31.75 0
      vertex 31.75 31.75 -9.524999999999999
    endloop
  endfacet
  facet normal 0 0 -1
    outer loop
      vertex 31.75 31.75 -9.524999999999999
      vertex 13.625 -15.625 -9.524999999999999
      vertex 6.8125 -3.8254038734370237 -9.524999999999999
    endloop
  endfacet
  facet normal 1 0 0
    outer loop
      vertex 31.75 -31.75 -9.524999999999999
      vertex 31.75 31.75 -9.524999999999999
      vertex 31.75 0 0
    endloop
  endfacet
  facet normal 1 0 0
    outer loop
      vertex 31.75 31.75 -9.524999999999999
      vertex 31.75 31.75 0
      vertex 31.75 0 0
    endloop
  endfacet
  facet normal 0 0 1
    outer loop
      vertex -18.974999999999998 22.224999999999998 14.7625
      vertex 6.8125 -3.8254038734370237 14.7625
      vertex 19.10664783575288 5.915630809734647 14.7625
    endloop
  endfacet
  facet normal 0 0 1
    outer loop
      vertex -18.974999999999998 22.224999999999998 14.7625
      vertex 19.10664783575288 5.915630809734647 14.7625
      vertex 20.09670261467782 7.45618611665134 14.7625
    endloop
  endfacet
  facet normal 0 0 1
    outer loop
      vertex 6.8125 -3.8254038734370237 14.7625
      vertex 20.09670261467782 2.54381388334866 14.7625
      vertex 19.10664783575288 4.084369190265353 14.7625
    endloop
  endfacet
  facet normal 0 0 1
    outer loop
      vertex 6.8125 -3.8254038734370237 14.7625
      vertex 19.10664783575288 4.084369190265353 14.7625
      vertex 19.10664783575288 5.915630809734647 14.7625
    endloop
  endfacet
  facet normal 0 0 1
    outer loop
      vertex -18.974999999999998 22.224999999999998 14.7625
      vertex 20.09670261467782 7.45618611665134 14.7625
      vertex 20.09670261467782 19.768813883348656 14.7625
    endloop
  endfacet
  facet normal 0 0 1
    outer loop
      vertex -18.974999999999998 22.224999999999998 14.7625
      vertex 20.09670261467782 19.768813883348656 14.7625
      vertex 19.10664783575288 21.30936919026535 14.7625
    endloop
  endfacet
  facet normal 0 0 1
    outer loop
      vertex -18.974999999999998 22.224999999999998 14.7625
      vertex 19.10664783575288 21.30936919026535 14.7625
      vertex 19.10664783575288 23.140630809734645 14.7625
    endloop
  endfacet
  facet normal 0 0 1
    outer loop
      vertex -19.49092601829866 23.98208265673069 14.7625
      vertex 19.10664783575288 23.140630809734645 14.7625
      vertex 20.09670261467782 24.68118611665134 14.7625
    endloop
  endfacet
  facet normal 0 0 1
    outer loop
      vertex 31.75 31.75 14.7625
      vertex -19.49092601829866 23.98208265673069 14.7625
      vertex 20.09670261467782 24.68118611665134 14.7625
    endloop
  endfacet
  facet normal 0 1 0
    outer loop
      vertex -31.75 31.75 14.7625
      vertex 31.75 31.75 14.7625
      vertex 31.75 31.75 10
    endloop
  endfacet
  facet normal 0 0 1
    outer loop
      vertex 21.76247677561182 8.21691968611303 14.7625
      vertex 20.09670261467782 19.768813883348656 14.7625
      vertex 20.09670261467782 7.45618611665134 14.7625
    endloop
  endfacet
  facet normal 0 0 1
    outer loop
      vertex 23.575098792256128 7.956303984902185 14.7625
      vertex 21.76247677561182 19.008080313886968 14.7625
      vertex 21.76247677561182 8.21691968611303 14.7625
    endloop
  endfacet
  facet normal 0 0 1
    outer loop
      vertex 21.76247677561182 8.21691968611303 14.7625
      vertex 21.76247677561182 19.008080313886968 14.7625
      vertex 20.09670261467782 19.768813883348656 14.7625
    endloop
  endfacet
  facet normal 0 0 1
    outer loop
      vertex 21.76247677561182 19.008080313886968 14.7625
      vertex 23.575098792256128 7.956303984902185 14.7625
      vertex 23.575098792256128 19.268696015097813 14.7625
    endloop
  endfacet
  facet normal 1 0 0
    outer loop
      vertex 31.75 -31.75 14.7625
      vertex 31.75 0 10
      vertex 31.75 31.75 10
    endloop
  endfacet
  facet normal 0 0 1
    outer loop
      vertex 31.75 -31.75 14.7625
      vertex 31.75 31.75 14.7625
      vertex 25.474999999999998 5 14.7625
    endloop
  endfacet
  facet normal 0 0 1
    outer loop
      vertex 24.959073981701337 6.757082656730692 14.7625
      vertex 23.575098792256128 19.268696015097813 14.7625
      vertex 23.575098792256128 7.956303984902185 14.7625
    endloop
  endfacet
  facet normal 0 0 1
    outer loop
      vertex 24.959073981701337 20.467917343269306 14.7625
      vertex 24.959073981701337 6.757082656730692 14.7625
      vertex 25.474999999999998 5 14.7625
    endloop
  endfacet
  facet normal 0 0 1
    outer loop
      vertex 23.575098792256128 19.268696015097813 14.7625
      vertex 24.959073981701337 6.757082656730692 14.7625
      vertex 24.959073981701337 20.467917343269306 14.7625
    endloop
  endfacet
  facet normal 1 0 0
    outer loop
      vertex 31.75 -31.75 14.7625
      vertex 31.75 31.75 10
      vertex 31.75 31.75 14.7625
    endloop
  endfacet
  facet normal 0 0 1
    outer loop
      vertex 25.474999999999998 5 14.7625
      vertex 25.474999999999998 22.224999999999998 14.7625
      vertex 24.959073981701337 20.467917343269306 14.7625
    endloop
  endfacet
  facet normal 0 0 1
    outer loop
      vertex 31.75 31.75 14.7625
      vertex 25.474999999999998 22.224999999999998 14.7625
      vertex 25.474999999999998 5 14.7625
    endloop
  endfacet
  facet normal 0 0 1
    outer loop
      vertex 31.75 31.75 14.7625
      vertex 20.09670261467782 24.68118611665134 14.7625
      vertex 21.76247677561182 25.441919686113028 14.7625
    endloop
  endfacet
  facet normal 0 0 1
    outer loop
      vertex 31.75 31.75 14.7625
      vertex 21.76247677561182 25.441919686113028 14.7625
      vertex 23.575098792256128 25.181303984902183 14.7625
    endloop
  endfacet
  facet normal 0 0 1
    outer loop
      vertex 31.75 31.75 14.7625
      vertex 23.575098792256128 25.181303984902183 14.7625
      vertex 24.959073981701337 23.98208265673069 14.7625
    endloop
  endfacet
  facet normal 0 0 1
    outer loop
      vertex 31.75 31.75 14.7625
      vertex 24.959073981701337 23.98208265673069 14.7625
      vertex 25.474999999999998 22.224999999999998 14.7625
    endloop
  endfacet
  facet normal 0 0 1
    outer loop
      vertex -24.353297385322175 2.54381388334866 0
      vertex -31.75 0 0
      vertex -22.687523224388176 1.7830803138869689 0
    endloop
  endfacet
  facet normal 0 0 1
    outer loop
      vertex -25.343352164247115 4.084369190265353 0
      vertex -31.75 0 0
      vertex -24.353297385322175 2.54381388334866 0
    endloop
  endfacet
  facet normal 0 0 1
    outer loop
      vertex -25.343352164247115 4.084369190265353 0
      vertex -31.75 31.75 0
      vertex -31.75 0 0
    endloop
  endfacet
  facet normal 0 0 1
    outer loop
      vertex -25.343352164247115 5.915630809734647 0
      vertex -24.353297385322175 7.45618611665134 0
      vertex -25.343352164247115 21.30936919026535 0
    endloop
  endfacet
  facet normal 0 0 1
    outer loop
      vertex -25.343352164247115 4.084369190265353 0
      vertex -25.343352164247115 5.915630809734647 0
      vertex -31.75 31.75 0
    endloop
  endfacet
  facet normal 0 0 1
    outer loop
      vertex -24.353297385322175 7.45618611665134 0
      vertex -22.687523224388176 8.21691968611303 0
      vertex -24.353297385322175 19.768813883348656 0
    endloop
  endfacet
  facet normal 0 0 1
    outer loop
      vertex -22.687523224388176 8.21691968611303 0
      vertex -20.874901207743868 7.956303984902185 0
      vertex -22.687523224388176 19.008080313886968 0
    endloop
  endfacet
  facet normal 0 0 1
    outer loop
      vertex -20.874901207743868 7.956303984902185 0
      vertex -19.49092601829866 6.757082656730692 0
      vertex -20.874901207743868 19.268696015097813 0
    endloop
  endfacet
  facet normal 0 0 1
    outer loop
      vertex -22.687523224388176 8.21691968611303 0
      vertex -22.687523224388176 19.008080313886968 0
      vertex -24.353297385322175 19.768813883348656 0
    endloop
  endfacet
  facet normal 0 0 1
    outer loop
      vertex -20.874901207743868 7.956303984902185 0
      vertex -20.874901207743868 19.268696015097813 0
      vertex -22.687523224388176 19.008080313886968 0
    endloop
  endfacet
  facet normal 0 0 1
    outer loop
      vertex -25.343352164247115 5.915630809734647 0
      vertex -25.343352164247115 21.30936919026535 0
      vertex -31.75 31.75 0
    endloop
  endfacet
  facet normal 0 0 1
    outer loop
      vertex -25.343352164247115 21.30936919026535 0
      vertex -24.353297385322175 7.45618611665134 0
      vertex -24.353297385322175 19.768813883348656 0
    endloop
  endfacet
  facet normal 0 0 1
    outer loop
      vertex -25.343352164247115 21.30936919026535 0
      vertex -25.343352164247115 23.140630809734645 0
      vertex -31.75 31.75 0
    endloop
  endfacet
  facet normal 0 0 1
    outer loop
      vertex -25.343352164247115 23.140630809734645 0
      vertex -24.353297385322175 24.68118611665134 0
      vertex -31.75 31.75 0
    endloop
  endfacet
  facet normal 0 0 1
    outer loop
      vertex -24.353297385322175 24.68118611665134 0
      vertex -22.687523224388176 25.441919686113028 0
      vertex -31.75 31.75 0
    endloop
  endfacet
  facet normal 0 0 1
    outer loop
      vertex -22.687523224388176 25.441919686113028 0
      vertex -20.874901207743868 25.181303984902183 0
      vertex -31.75 31.75 0
    endloop
  endfacet
  facet normal 0 0 1
    outer loop
      vertex -22.687523224388176 1.7830803138869689 0
      vertex -31.75 0 0
      vertex 31.75 0 0
    endloop
  endfacet
  facet normal 0 0 1
    outer loop
      vertex -20.874901207743868 2.0436960150978156 0
      vertex 20.09670261467782 2.54381388334866 0
      vertex -19.49092601829866 3.2429173432693066 0
    endloop
  endfacet
  facet normal 0 0 1
    outer loop
      vertex -19.49092601829866 3.2429173432693066 0
      vertex 19.10664783575288 4.084369190265353 0
      vertex -18.974999999999998 5 0
    endloop
  endfacet
  facet normal 0 0 1
    outer loop
      vertex -18.974999999999998 5 0
      vertex 19.10664783575288 5.915630809734647 0
      vertex -19.49092601829866 6.757082656730692 0
    endloop
  endfacet
  facet normal 0 0 1
    outer loop
      vertex -22.687523224388176 1.7830803138869689 0
      vertex 31.75 0 0
      vertex -20.874901207743868 2.0436960150978156 0
    endloop
  endfacet
  facet normal 0 0 1
    outer loop
      vertex -19.49092601829866 6.757082656730692 0
      vertex 20.09670261467782 7.45618611665134 0
      vertex -20.874901207743868 19.268696015097813 0
    endloop
  endfacet
  facet normal 0 0 1
    outer loop
      vertex -20.874901207743868 19.268696015097813 0
      vertex 20.09670261467782 7.45618611665134 0
      vertex -19.49092601829866 20.467917343269306 0
    endloop
  endfacet
  facet normal 0 0 1
    outer loop
      vertex -19.49092601829866 20.467917343269306 0
      vertex 19.10664783575288 21.30936919026535 0
      vertex -18.974999999999998 22.224999999999998 0
    endloop
  endfacet
  facet normal 0 0 1
    outer loop
      vertex -18.974999999999998 22.224999999999998 0
      vertex 19.10664783575288 23.140630809734645 0
      vertex -19.49092601829866 23.98208265673069 0
    endloop
  endfacet
  facet normal 0 0 1
    outer loop
      vertex -19.49092601829866 23.98208265673069 0
      vertex 20.09670261467782 24.68118611665134 0
      vertex -20.874901207743868 25.181303984902183 0
    endloop
  endfacet
  facet normal 0 0 1
    outer loop
      vertex -20.874901207743868 25.181303984902183 0
      vertex 31.75 31.75 0
      vertex -31.75 31.75 0
    endloop
  endfacet
  facet normal 0 0 -1
    outer loop
      vertex -24.353297385322175 2.54381388334866 10
      vertex -22.687523224388176 1.7830803138869689 10
      vertex -31.75 0 10
    endloop
  endfacet
  facet normal 0 0 -1
    outer loop
      vertex -25.343352164247115 4.084369190265353 10
      vertex -24.353297385322175 2.54381388334866 10
      vertex -31.75 0 10
    endloop
  endfacet
  facet normal 0 0 -1
    outer loop
      vertex -25.343352164247115 4.084369190265353 10
      vertex -31.75 0 10
      vertex -25.343352164247115 5.915630809734647 10
    endloop
  endfacet
  facet normal 0 0 -1
    outer loop
      vertex -25.343352164247115 5.915630809734647 10
      vertex -31.75 0 10
      vertex -31.75 31.75 10
    endloop
  endfacet
  facet normal 0 0 -1
    outer loop
      vertex -25.343352164247115 5.915630809734647 10
      vertex -24.353297385322175 19.768813883348656 10
      vertex -24.353297385322175 7.45618611665134 10
    endloop
  endfacet
  facet normal 0 0 -1
    outer loop
      vertex -25.343352164247115 5.915630809734647 10
      vertex -25.343352164247115 21.30936919026535 10
      vertex -24.353297385322175 19.768813883348656 10
    endloop
  endfacet
  facet normal 0 0 -1
    outer loop
      vertex -24.353297385322175 7.45618611665134 10
      vertex -22.687523224388176 19.008080313886968 10
      vertex -22.687523224388176 8.21691968611303 10
    endloop
  endfacet
  facet normal 0 0 -1
    outer loop
      vertex -22.687523224388176 8.21691968611303 10
      vertex -20.874901207743868 19.268696015097813 10
      vertex -20.874901207743868 7.956303984902185 10
    endloop
  endfacet
  facet normal 0 0 -1
    outer loop
      vertex -20.874901207743868 7.956303984902185 10
      vertex -19.49092601829866 20.467917343269306 10
      vertex -19.49092601829866 6.757082656730692 10
    endloop
  endfacet
  facet normal 0 0 -1
    outer loop
      vertex -24.353297385322175 7.45618611665134 10
      vertex -24.353297385322175 19.768813883348656 10
      vertex -22.687523224388176 19.008080313886968 10
    endloop
  endfacet
  facet normal 0 0 -1
    outer loop
      vertex -22.687523224388176 8.21691968611303 10
      vertex -22.687523224388176 19.008080313886968 10
      vertex -20.874901207743868 19.268696015097813 10
    endloop
  endfacet
  facet normal 0 0 -1
    outer loop
      vertex -25.343352164247115 5.915630809734647 10
      vertex -31.75 31.75 10
      vertex -25.343352164247115 21.30936919026535 10
    endloop
  endfacet
  facet normal 0 0 -1
    outer loop
      vertex -25.343352164247115 21.30936919026535 10
      vertex -31.75 31.75 10
      vertex -25.343352164247115 23.140630809734645 10
    endloop
  endfacet
  facet normal 0 0 -1
    outer loop
      vertex -25.343352164247115 23.140630809734645 10
      vertex -31.75 31.75 10
      vertex -24.353297385322175 24.68118611665134 10
    endloop
  endfacet
  facet normal 0 0 -1
    outer loop
      vertex -24.353297385322175 24.68118611665134 10
      vertex -31.75 31.75 10
      vertex -22.687523224388176 25.441919686113028 10
    endloop
  endfacet
  facet normal 0 0 -1
    outer loop
      vertex -22.687523224388176 25.441919686113028 10
      vertex -31.75 31.75 10
      vertex -20.874901207743868 25.181303984902183 10
    endloop
  endfacet
  facet normal 0 0 -1
    outer loop
      vertex -20.874901207743868 7.956303984902185 10
      vertex -20.874901207743868 19.268696015097813 10
      vertex -19.49092601829866 20.467917343269306 10
    endloop
  endfacet
  facet normal 0 1 0
    outer loop
      vertex -31.75 0 0
      vertex -31.75 0 10
      vertex 31.75 0 10
    endloop
  endfacet
  facet normal 0 0 -1
    outer loop
      vertex -22.687523224388176 1.7830803138869689 10
      vertex 31.75 0 10
      vertex -31.75 0 10
    endloop
  endfacet
  facet normal 0 0 -1
    outer loop
      vertex -20.874901207743868 2.0436960150978156 10
      vertex -19.49092601829866 3.2429173432693066 10
      vertex 20.09670261467782 2.54381388334866 10
    endloop
  endfacet
  facet normal 0 0 -1
    outer loop
      vertex -19.49092601829866 3.2429173432693066 10
      vertex -18.974999999999998 5 10
      vertex 19.10664783575288 4.084369190265353 10
    endloop
  endfacet
  facet normal 0 0 -1
    outer loop
      vertex -18.974999999999998 5 10
      vertex -19.49092601829866 6.757082656730692 10
      vertex 19.10664783575288 5.915630809734647 10
    endloop
  endfacet
  facet normal 0 0 -1
    outer loop
      vertex -22.687523224388176 1.7830803138869689 10
      vertex -20.874901207743868 2.0436960150978156 10
      vertex 31.75 0 10
    endloop
  endfacet
  facet normal 0 0 -1
    outer loop
      vertex -19.49092601829866 6.757082656730692 10
      vertex -19.49092601829866 20.467917343269306 10
      vertex 20.09670261467782 19.768813883348656 10
    endloop
  endfacet
  facet normal 0 0 -1
    outer loop
      vertex -20.874901207743868 25.181303984902183 10
      vertex -31.75 31.75 10
      vertex 20.09670261467782 24.68118611665134 10
    endloop
  endfacet
  facet normal 0 0 -1
    outer loop
      vertex -19.49092601829866 20.467917343269306 10
      vertex -18.974999999999998 22.224999999999998 10
      vertex 19.10664783575288 21.30936919026535 10
    endloop
  endfacet
  facet normal 0 0 -1
    outer loop
      vertex -18.974999999999998 22.224999999999998 10
      vertex -19.49092601829866 23.98208265673069 10
      vertex 19.10664783575288 23.140630809734645 10
    endloop
  endfacet
  facet normal 0 0 -1
    outer loop
      vertex -19.49092601829866 23.98208265673069 10
      vertex -20.874901207743868 25.181303984902183 10
      vertex 20.09670261467782 24.68118611665134 10
    endloop
  endfacet
  facet normal 0 0 1
    outer loop
      vertex -19.49092601829866 3.2429173432693066 0
      vertex 20.09670261467782 2.54381388334866 0
      vertex 19.10664783575288 4.084369190265353 0
    endloop
  endfacet
  facet normal 0 0 1
    outer loop
      vertex -20.874901207743868 2.0436960150978156 0
      vertex 21.76247677561182 1.7830803138869689 0
      vertex 20.09670261467782 2.54381388334866 0
    endloop
  endfacet
  facet normal 0 0 1
    outer loop
      vertex -18.974999999999998 5 0
      vertex 19.10664783575288 4.084369190265353 0
      vertex 19.10664783575288 5.915630809734647 0
    endloop
  endfacet
  facet normal 0 0 1
    outer loop
      vertex -19.49092601829866 6.757082656730692 0
      vertex 19.10664783575288 5.915630809734647 0
      vertex 20.09670261467782 7.45618611665134 0
    endloop
  endfacet
  facet normal 0 0 1
    outer loop
      vertex -20.874901207743868 2.0436960150978156 0
      vertex 31.75 0 0
      vertex 21.76247677561182 1.7830803138869689 0
    endloop
  endfacet
  facet normal 0 0 1
    outer loop
      vertex -19.49092601829866 20.467917343269306 0
      vertex 20.09670261467782 7.45618611665134 0
      vertex 20.09670261467782 19.768813883348656 0
    endloop
  endfacet
  facet normal 0 0 1
    outer loop
      vertex -19.49092601829866 20.467917343269306 0
      vertex 20.09670261467782 19.768813883348656 0
      vertex 19.10664783575288 21.30936919026535 0
    endloop
  endfacet
  facet normal 0 0 1
    outer loop
      vertex -18.974999999999998 22.224999999999998 0
      vertex 19.10664783575288 21.30936919026535 0
      vertex 19.10664783575288 23.140630809734645 0
    endloop
  endfacet
  facet normal 0 0 1
    outer loop
      vertex -19.49092601829866 23.98208265673069 0
      vertex 19.10664783575288 23.140630809734645 0
      vertex 20.09670261467782 24.68118611665134 0
    endloop
  endfacet
  facet normal 0 0 1
    outer loop
      vertex -20.874901207743868 25.181303984902183 0
      vertex 20.09670261467782 24.68118611665134 0
      vertex 21.76247677561182 25.441919686113028 0
    endloop
  endfacet
  facet normal 0 0 1
    outer loop
      vertex -20.874901207743868 25.181303984902183 0
      vertex 21.76247677561182 25.441919686113028 0
      vertex 31.75 31.75 0
    endloop
  endfacet
  facet normal 0 0 1
    outer loop
      vertex 20.09670261467782 7.45618611665134 0
      vertex 21.76247677561182 8.21691968611303 0
      vertex 20.09670261467782 19.768813883348656 0
    endloop
  endfacet
  facet normal 0 0 1
    outer loop
      vertex 21.76247677561182 8.21691968611303 0
      vertex 23.575098792256128 7.956303984902185 0
      vertex 21.76247677561182 19.008080313886968 0
    endloop
  endfacet
  facet normal 0 0 1
    outer loop
      vertex 21.76247677561182 8.21691968611303 0
      vertex 21.76247677561182 19.008080313886968 0
      vertex 20.09670261467782 19.768813883348656 0
    endloop
  endfacet
  facet normal 0 0 1
    outer loop
      vertex 23.575098792256128 7.956303984902185 0
      vertex 23.575098792256128 19.268696015097813 0
      vertex 21.76247677561182 19.008080313886968 0
    endloop
  endfacet
  facet normal 0 0 1
    outer loop
      vertex 21.76247677561182 1.7830803138869689 0
      vertex 31.75 0 0
      vertex 23.575098792256128 2.0436960150978156 0
    endloop
  endfacet
  facet normal 0 0 1
    outer loop
      vertex 23.575098792256128 2.0436960150978156 0
      vertex 31.75 0 0
      vertex 24.959073981701337 3.2429173432693066 0
    endloop
  endfacet
  facet normal 0 0 1
    outer loop
      vertex 24.959073981701337 3.2429173432693066 0
      vertex 31.75 0 0
      vertex 25.474999999999998 5 0
    endloop
  endfacet
  facet normal 0 0 1
    outer loop
      vertex 23.575098792256128 7.956303984902185 0
      vertex 24.959073981701337 6.757082656730692 0
      vertex 23.575098792256128 19.268696015097813 0
    endloop
  endfacet
  facet normal 0 0 1
    outer loop
      vertex 24.959073981701337 6.757082656730692 0
      vertex 25.474999999999998 5 0
      vertex 24.959073981701337 20.467917343269306 0
    endloop
  endfacet
  facet normal 0 0 1
    outer loop
      vertex 25.474999999999998 5 0
      vertex 31.75 0 0
      vertex 25.474999999999998 22.224999999999998 0
    endloop
  endfacet
  facet normal 0 0 1
    outer loop
      vertex 24.959073981701337 6.757082656730692 0
      vertex 24.959073981701337 20.467917343269306 0
      vertex 23.575098792256128 19.268696015097813 0
    endloop
  endfacet
  facet normal 0 0 1
    outer loop
      vertex 24.959073981701337 20.467917343269306 0
      vertex 25.474999999999998 5 0
      vertex 25.474999999999998 22.224999999999998 0
    endloop
  endfacet
  facet normal 0 0 1
    outer loop
      vertex 25.474999999999998 22.224999999999998 0
      vertex 31.75 0 0
      vertex 31.75 31.75 0
    endloop
  endfacet
  facet normal 0 0 1
    outer loop
      vertex 21.76247677561182 25.441919686113028 0
      vertex 23.575098792256128 25.181303984902183 0
      vertex 31.75 31.75 0
    endloop
  endfacet
  facet normal 0 0 1
    outer loop
      vertex 24.959073981701337 23.98208265673069 0
      vertex 31.75 31.75 0
      vertex 23.575098792256128 25.181303984902183 0
    endloop
  endfacet
  facet normal 0 0 1
    outer loop
      vertex 24.959073981701337 23.98208265673069 0
      vertex 25.474999999999998 22.224999999999998 0
      vertex 31.75 31.75 0
    endloop
  endfacet
  facet normal 0 1 0
    outer loop
      vertex 31.75 0 10
      vertex 31.75 0 0
      vertex -31.75 0 0
    endloop
  endfacet
  facet normal 0 0 -1
    outer loop
      vertex -19.49092601829866 3.2429173432693066 10
      vertex 19.10664783575288 4.084369190265353 10
      vertex 20.09670261467782 2.54381388334866 10
    endloop
  endfacet
  facet normal 0 0 -1
    outer loop
      vertex -20.874901207743868 2.0436960150978156 10
      vertex 20.09670261467782 2.54381388334866 10
      vertex 21.76247677561182 1.7830803138869689 10
    endloop
  endfacet
  facet normal 0 0 -1
    outer loop
      vertex -18.974999999999998 5 10
      vertex 19.10664783575288 5.915630809734647 10
      vertex 19.10664783575288 4.084369190265353 10
    endloop
  endfacet
  facet normal 0 0 -1
    outer loop
      vertex -19.49092601829866 6.757082656730692 10
      vertex 20.09670261467782 7.45618611665134 10
      vertex 19.10664783575288 5.915630809734647 10
    endloop
  endfacet
  facet normal 0 0 -1
    outer loop
      vertex -19.49092601829866 6.757082656730692 10
      vertex 20.09670261467782 19.768813883348656 10
      vertex 20.09670261467782 7.45618611665134 10
    endloop
  endfacet
  facet normal 0 0 -1
    outer loop
      vertex -20.874901207743868 2.0436960150978156 10
      vertex 21.76247677561182 1.7830803138869689 10
      vertex 31.75 0 10
    endloop
  endfacet
  facet normal 0 0 -1
    outer loop
      vertex -19.49092601829866 20.467917343269306 10
      vertex 19.10664783575288 21.30936919026535 10
      vertex 20.09670261467782 19.768813883348656 10
    endloop
  endfacet
  facet normal 0 0 -1
    outer loop
      vertex -18.974999999999998 22.224999999999998 10
      vertex 19.10664783575288 23.140630809734645 10
      vertex 19.10664783575288 21.30936919026535 10
    endloop
  endfacet
  facet normal 0 0 -1
    outer loop
      vertex 20.09670261467782 24.68118611665134 10
      vertex -31.75 31.75 10
      vertex 21.76247677561182 25.441919686113028 10
    endloop
  endfacet
  facet normal 0 0 -1
    outer loop
      vertex -19.49092601829866 23.98208265673069 10
      vertex 20.09670261467782 24.68118611665134 10
      vertex 19.10664783575288 23.140630809734645 10
    endloop
  endfacet
  facet normal 0 0 -1
    outer loop
      vertex 21.76247677561182 25.441919686113028 10
      vertex -31.75 31.75 10
      vertex 31.75 31.75 10
    endloop
  endfacet
  facet normal 0 0 -1
    outer loop
      vertex 20.09670261467782 7.45618611665134 10
      vertex 21.76247677561182 19.008080313886968 10
      vertex 21.76247677561182 8.21691968611303 10
    endloop
  endfacet
  facet normal 0 0 -1
    outer loop
      vertex 21.76247677561182 8.21691968611303 10
      vertex 23.575098792256128 19.268696015097813 10
      vertex 23.575098792256128 7.956303984902185 10
    endloop
  endfacet
  facet normal 0 0 -1
    outer loop
      vertex 20.09670261467782 7.45618611665134 10
      vertex 20.09670261467782 19.768813883348656 10
      vertex 21.76247677561182 19.008080313886968 10
    endloop
  endfacet
  facet normal 0 0 -1
    outer loop
      vertex 21.76247677561182 8.21691968611303 10
      vertex 21.76247677561182 19.008080313886968 10
      vertex 23.575098792256128 19.268696015097813 10
    endloop
  endfacet
  facet normal 0 0 -1
    outer loop
      vertex 21.76247677561182 1.7830803138869689 10
      vertex 23.575098792256128 2.0436960150978156 10
      vertex 31.75 0 10
    endloop
  endfacet
  facet normal 0 0 -1
    outer loop
      vertex 23.575098792256128 2.0436960150978156 10
      vertex 24.959073981701337 3.2429173432693066 10
      vertex 31.75 0 10
    endloop
  endfacet
  facet normal 0 0 -1
    outer loop
      vertex 24.959073981701337 3.2429173432693066 10
      vertex 25.474999999999998 5 10
      vertex 31.75 0 10
    endloop
  endfacet
  facet normal 0 0 -1
    outer loop
      vertex 24.959073981701337 6.757082656730692 10
      vertex 31.75 0 10
      vertex 25.474999999999998 5 10
    endloop
  endfacet
  facet normal 0 0 -1
    outer loop
      vertex 23.575098792256128 7.956303984902185 10
      vertex 23.575098792256128 19.268696015097813 10
      vertex 24.959073981701337 6.757082656730692 10
    endloop
  endfacet
  facet normal 0 0 -1
    outer loop
      vertex 24.959073981701337 6.757082656730692 10
      vertex 23.575098792256128 19.268696015097813 10
      vertex 31.75 0 10
    endloop
  endfacet
  facet normal 0 0 -1
    outer loop
      vertex 23.575098792256128 19.268696015097813 10
      vertex 24.959073981701337 20.467917343269306 10
      vertex 31.75 0 10
    endloop
  endfacet
  facet normal 0 0 -1
    outer loop
      vertex 24.959073981701337 20.467917343269306 10
      vertex 31.75 31.75 10
      vertex 31.75 0 10
    endloop
  endfacet
  facet normal 0 0 -1
    outer loop
      vertex 21.76247677561182 25.441919686113028 10
      vertex 31.75 31.75 10
      vertex 23.575098792256128 25.181303984902183 10
    endloop
  endfacet
  facet normal 0 0 -1
    outer loop
      vertex 24.959073981701337 20.467917343269306 10
      vertex 25.474999999999998 22.224999999999998 10
      vertex 31.75 31.75 10
    endloop
  endfacet
  facet normal 0 0 -1
    outer loop
      vertex 24.959073981701337 23.98208265673069 10
      vertex 23.575098792256128 25.181303984902183 10
      vertex 31.75 31.75 10
    endloop
  endfacet
  facet normal 0 0 -1
    outer loop
      vertex 24.959073981701337 23.98208265673069 10
      vertex 31.75 31.75 10
      vertex 25.474999999999998 22.224999999999998 10
    endloop
  endfacet
  facet normal 0.8660254037844387 0.5000000000000001 0
    outer loop
      vertex -13.625 -15.625 14.7625
      vertex -6.8125 -27.424596126562975 -9.524999999999999
      vertex -13.625 -15.625 -9.524999999999999
    endloop
  endfacet
  facet normal 0 1 0
    outer loop
      vertex -6.8125 -27.424596126562975 14.7625
      vertex 6.8125 -27.424596126562975 -9.524999999999999
      vertex -6.8125 -27.424596126562975 -9.524999999999999
    endloop
  endfacet
  facet normal 0.8660254037844387 -0.5 0
    outer loop
      vertex -13.625 -15.625 -9.524999999999999
      vertex -6.8125 -3.8254038734370237 -9.524999999999999
      vertex -6.8125 -3.8254038734370237 14.7625
    endloop
  endfacet
  facet normal 0.8660254037844387 0.5000000000000001 0
    outer loop
      vertex -13.625 -15.625 14.7625
      vertex -6.8125 -27.424596126562975 14.7625
      vertex -6.8125 -27.424596126562975 -9.524999999999999
    endloop
  endfacet
  facet normal 0.8660254037844387 -0.5 0
    outer loop
      vertex -6.8125 -3.8254038734370237 14.7625
      vertex -13.625 -15.625 14.7625
      vertex -13.625 -15.625 -9.524999999999999
    endloop
  endfacet
  facet normal 0 -1 0
    outer loop
      vertex -6.8125 -3.8254038734370237 14.7625
      vertex -6.8125 -3.8254038734370237 -9.524999999999999
      vertex 6.8125 -3.8254038734370237 14.7625
    endloop
  endfacet
  facet normal -0.8660254037844387 0.5000000000000001 0
    outer loop
      vertex 6.8125 -27.424596126562975 -9.524999999999999
      vertex 6.8125 -27.424596126562975 14.7625
      vertex 13.625 -15.625 -9.524999999999999
    endloop
  endfacet
  facet normal 0 -1 0
    outer loop
      vertex -6.8125 -3.8254038734370237 -9.524999999999999
      vertex 6.8125 -3.8254038734370237 -9.524999999999999
      vertex 6.8125 -3.8254038734370237 14.7625
    endloop
  endfacet
  facet normal -0.8660254037844387 -0.5 0
    outer loop
      vertex 13.625 -15.625 14.7625
      vertex 6.8125 -3.8254038734370237 -9.524999999999999
      vertex 13.625 -15.625 -9.524999999999999
    endloop
  endfacet
  facet normal 0 1 0
    outer loop
      vertex -6.8125 -27.424596126562975 14.7625
      vertex 6.8125 -27.424596126562975 14.7625
      vertex 6.8125 -27.424596126562975 -9.524999999999999
    endloop
  endfacet
  facet normal -0.8660254037844387 0.5000000000000001 0
    outer loop
      vertex 6.8125 -27.424596126562975 14.7625
      vertex 13.625 -15.625 14.7625
      vertex 13.625 -15.625 -9.524999999999999
    endloop
  endfacet
  facet normal -0.8660254037844387 -0.5 0
    outer loop
      vertex 13.625 -15.625 14.7625
      vertex 6.8125 -3.8254038734370237 14.7625
      vertex 6.8125 -3.8254038734370237 -9.524999999999999
    endloop
  endfacet
endsolid OpenSCAD_Model
