solid OpenSCAD_Model
  facet normal 1 -0 0
    outer loop
      vertex 142 75.7429 2.01
      vertex 142 140 0
      vertex 142 140 2.01
    endloop
  endfacet
  facet normal 1 0 0
    outer loop
      vertex 142 140 0
      vertex 142 75.7429 2.01
      vertex 142 75.7429 0
    endloop
  endfacet
  facet normal 1 -0 0
    outer loop
      vertex 142 75.7429 9
      vertex 142 78 4
      vertex 142 78 9
    endloop
  endfacet
  facet normal 1 0 0
    outer loop
      vertex 142 78 4
      vertex 142 75.7429 9
      vertex 142 75.7429 4
    endloop
  endfacet
  facet normal 0 0 -1
    outer loop
      vertex 106.089 0 4
      vertex 130.595 50 4
      vertex 108.443 0 4
    endloop
  endfacet
  facet normal 0 0 -1
    outer loop
      vertex 65 21.5 4
      vertex 130.595 50 4
      vertex 106.089 0 4
    endloop
  endfacet
  facet normal 0 0 -1
    outer loop
      vertex 0 50 4
      vertex 65 21.5 4
      vertex 0 21.5 4
    endloop
  endfacet
  facet normal 0 0 -1
    outer loop
      vertex 65 21.5 4
      vertex 0 50 4
      vertex 130.595 50 4
    endloop
  endfacet
  facet normal 0 0 -1
    outer loop
      vertex 135.025 60 4
      vertex 142 78 4
      vertex 142 75.7429 4
    endloop
  endfacet
  facet normal 0 0 -1
    outer loop
      vertex 135.025 60 4
      vertex 85 99.5 4
      vertex 142 78 4
    endloop
  endfacet
  facet normal 0 0 -1
    outer loop
      vertex 0 60 4
      vertex 85 99.5 4
      vertex 135.025 60 4
    endloop
  endfacet
  facet normal -0 0 -1
    outer loop
      vertex 85 99.5 4
      vertex 0 60 4
      vertex 0 99.5 4
    endloop
  endfacet
  facet normal 0 0 -1
    outer loop
      vertex 0 140 0
      vertex 142 75.7429 0
      vertex 130.595 50 0
    endloop
  endfacet
  facet normal 0 0 -1
    outer loop
      vertex 0 140 0
      vertex 130.595 50 0
      vertex 0 50 0
    endloop
  endfacet
  facet normal 0 0 -1
    outer loop
      vertex 142 75.7429 0
      vertex 0 140 0
      vertex 142 140 0
    endloop
  endfacet
  facet normal -1 0 0
    outer loop
      vertex 0 140 0
      vertex 0 60 2.01
      vertex 0 140 2.01
    endloop
  endfacet
  facet normal -1 0 0
    outer loop
      vertex 0 50 4
      vertex 0 60 2.01
      vertex 0 50 0
    endloop
  endfacet
  facet normal -1 0 0
    outer loop
      vertex 0 50 0
      vertex 0 60 2.01
      vertex 0 140 0
    endloop
  endfacet
  facet normal -1 0 0
    outer loop
      vertex 0 60 4
      vertex 0 99.5 24
      vertex 0 99.5 4
    endloop
  endfacet
  facet normal -1 0 0
    outer loop
      vertex 0 60 2.01
      vertex 0 50 4
      vertex 0 60 4
    endloop
  endfacet
  facet normal -1 0 0
    outer loop
      vertex 0 21.5 24
      vertex 0 60 4
      vertex 0 50 4
    endloop
  endfacet
  facet normal -1 0 0
    outer loop
      vertex 0 21.5 24
      vertex 0 50 4
      vertex 0 21.5 4
    endloop
  endfacet
  facet normal -1 0 0
    outer loop
      vertex 0 60 4
      vertex 0 21.5 24
      vertex 0 99.5 24
    endloop
  endfacet
  facet normal 0 1 -0
    outer loop
      vertex 142 140 0
      vertex 0 140 2.01
      vertex 142 140 2.01
    endloop
  endfacet
  facet normal 0 1 0
    outer loop
      vertex 0 140 2.01
      vertex 142 140 0
      vertex 0 140 0
    endloop
  endfacet
  facet normal 0 -1 0
    outer loop
      vertex 0 50 0
      vertex 130.595 50 4
      vertex 0 50 4
    endloop
  endfacet
  facet normal 0 -1 -0
    outer loop
      vertex 130.595 50 4
      vertex 0 50 0
      vertex 130.595 50 0
    endloop
  endfacet
  facet normal -0 0 1
    outer loop
      vertex 0 140 2.01
      vertex 142 75.7429 2.01
      vertex 142 140 2.01
    endloop
  endfacet
  facet normal 0 0 1
    outer loop
      vertex 142 75.7429 2.01
      vertex 0 140 2.01
      vertex 135.025 60 2.01
    endloop
  endfacet
  facet normal 0 0 1
    outer loop
      vertex 135.025 60 2.01
      vertex 0 140 2.01
      vertex 0 60 2.01
    endloop
  endfacet
  facet normal 0 1 -0
    outer loop
      vertex 135.025 60 2.01
      vertex 0 60 4
      vertex 135.025 60 4
    endloop
  endfacet
  facet normal 0 1 0
    outer loop
      vertex 0 60 4
      vertex 135.025 60 2.01
      vertex 0 60 2.01
    endloop
  endfacet
  facet normal 0 1 0
    outer loop
      vertex 0 99.5 4
      vertex 1 99.5 24
      vertex 85 99.5 15.0638
    endloop
  endfacet
  facet normal 0 1 0
    outer loop
      vertex 0 99.5 4
      vertex 85 99.5 15.0638
      vertex 85 99.5 4
    endloop
  endfacet
  facet normal 0 1 0
    outer loop
      vertex 1 99.5 24
      vertex 0 99.5 4
      vertex 0 99.5 24
    endloop
  endfacet
  facet normal 0 -1 0
    outer loop
      vertex 106.089 0 4
      vertex 108.443 0 12.5699
      vertex 106.089 0 12.8203
    endloop
  endfacet
  facet normal 0 -1 -0
    outer loop
      vertex 108.443 0 12.5699
      vertex 106.089 0 4
      vertex 108.443 0 4
    endloop
  endfacet
  facet normal 0.105786 0 0.994389
    outer loop
      vertex 85 99.5 15.0638
      vertex 142 75.7429 9
      vertex 142 78 9
    endloop
  endfacet
  facet normal 0.105775 4.86212e-06 0.99439
    outer loop
      vertex 142 75.7429 9
      vertex 106.089 0 12.8203
      vertex 108.443 0 12.5699
    endloop
  endfacet
  facet normal 0.105786 5.85988e-07 0.994389
    outer loop
      vertex 142 75.7429 9
      vertex 85 99.5 15.0638
      vertex 65 21.5 17.1915
    endloop
  endfacet
  facet normal 0.105787 -4.7527e-07 0.994389
    outer loop
      vertex 142 75.7429 9
      vertex 65 21.5 17.1915
      vertex 106.089 0 12.8203
    endloop
  endfacet
  facet normal 0.105786 4.24953e-07 0.994389
    outer loop
      vertex 1 99.5 24
      vertex 65 21.5 17.1915
      vertex 85 99.5 15.0638
    endloop
  endfacet
  facet normal 0.105786 0 0.994389
    outer loop
      vertex 65 21.5 17.1915
      vertex 1 99.5 24
      vertex 1 21.5 24
    endloop
  endfacet
  facet normal -0 0 1
    outer loop
      vertex 0 99.5 24
      vertex 1 21.5 24
      vertex 1 99.5 24
    endloop
  endfacet
  facet normal 0 0 1
    outer loop
      vertex 1 21.5 24
      vertex 0 99.5 24
      vertex 0 21.5 24
    endloop
  endfacet
  facet normal 0 -1 0
    outer loop
      vertex 0 21.5 4
      vertex 1 21.5 24
      vertex 0 21.5 24
    endloop
  endfacet
  facet normal 0 -1 -0
    outer loop
      vertex 1 21.5 24
      vertex 0 21.5 4
      vertex 65 21.5 17.1915
    endloop
  endfacet
  facet normal 0 -1 -0
    outer loop
      vertex 65 21.5 17.1915
      vertex 0 21.5 4
      vertex 65 21.5 4
    endloop
  endfacet
  facet normal -0.463621 -0.886034 0
    outer loop
      vertex 65 21.5 4
      vertex 106.089 0 12.8203
      vertex 65 21.5 17.1915
    endloop
  endfacet
  facet normal -0.463621 -0.886034 -0
    outer loop
      vertex 106.089 0 12.8203
      vertex 65 21.5 4
      vertex 106.089 0 4
    endloop
  endfacet
  facet normal 0.352922 0.935653 0
    outer loop
      vertex 85 99.5 4
      vertex 142 78 9
      vertex 142 78 4
    endloop
  endfacet
  facet normal 0.352922 0.935653 0
    outer loop
      vertex 142 78 9
      vertex 85 99.5 4
      vertex 85 99.5 15.0638
    endloop
  endfacet
  facet normal 0.914282 -0.405079 0
    outer loop
      vertex 142 75.7429 9
      vertex 135.025 60 4
      vertex 142 75.7429 4
    endloop
  endfacet
  facet normal 0.914301 -0.405035 0
    outer loop
      vertex 135.025 60 4
      vertex 130.595 50 4
      vertex 135.025 60 2.01
    endloop
  endfacet
  facet normal 0.914301 -0.405035 -0.000163715
    outer loop
      vertex 142 75.7429 9
      vertex 130.595 50 4
      vertex 135.025 60 4
    endloop
  endfacet
  facet normal 0.914288 -0.405064 1.30569e-05
    outer loop
      vertex 108.443 0 12.5699
      vertex 130.595 50 4
      vertex 142 75.7429 9
    endloop
  endfacet
  facet normal 0.914287 -0.405066 0
    outer loop
      vertex 130.595 50 4
      vertex 108.443 0 12.5699
      vertex 108.443 0 4
    endloop
  endfacet
  facet normal 0.914282 -0.405079 0
    outer loop
      vertex 135.025 60 2.01
      vertex 142 75.7429 0
      vertex 142 75.7429 2.01
    endloop
  endfacet
  facet normal 0.914289 -0.405062 0.000158197
    outer loop
      vertex 135.025 60 2.01
      vertex 130.595 50 0
      vertex 142 75.7429 0
    endloop
  endfacet
  facet normal 0.914301 -0.405035 0
    outer loop
      vertex 130.595 50 0
      vertex 135.025 60 2.01
      vertex 130.595 50 4
    endloop
  endfacet
endsolid OpenSCAD_Model
