<?xml version="1.0" encoding="UTF-8" standalone="no"?>
<!DOCTYPE svg PUBLIC "-//W3C//DTD SVG 1.1//EN" "http://www.w3.org/Graphics/SVG/1.1/DTD/svg11.dtd">
<svg width="100%" height="100%" viewBox="0 0 1650 2400" version="1.1" xmlns="http://www.w3.org/2000/svg" xmlns:xlink="http://www.w3.org/1999/xlink" xml:space="preserve" xmlns:serif="http://www.serif.com/" style="fill-rule:evenodd;clip-rule:evenodd;stroke-linejoin:round;stroke-miterlimit:2;">
    <g transform="matrix(1,0,0,1,-450,-380)">
        <path d="M2017.03,380C2062.85,380 2100,417.148 2100,462.972L2100,2697.03C2100,2742.85 2062.85,2780 2017.03,2780L532.972,2780C487.148,2780 450,2742.85 450,2697.03L450,462.972C450,417.148 487.148,380 532.972,380L2017.03,380ZM1282.38,1385.12L1274.5,1374L1266.62,1385.12L528.714,1385.12L528.714,1420.55L2021.29,1420.55L2021.29,1385.12L1282.38,1385.12ZM2021.29,1828.03L528.714,1828.03L528.714,1863.47L2021.29,1863.47L2021.29,1828.03ZM2021.29,765.039L528.714,765.039L528.714,800.472L2021.29,800.472L2021.29,765.039ZM2021.29,942.205L528.714,942.205L528.714,977.638L2021.29,977.638L2021.29,942.205ZM528.714,587.874L528.714,623.307L2021.29,623.307L2021.29,587.874L1282.2,587.874L1274.5,577L1266.8,587.874L528.714,587.874ZM2021.29,853.622L528.714,853.622L528.714,889.055L2021.29,889.055L2021.29,853.622ZM2021.29,2448.11L528.714,2448.11L528.714,2483.54L2021.29,2483.54L2021.29,2448.11ZM2021.29,1030.79L528.714,1030.79L528.714,1066.22L2021.29,1066.22L2021.29,1030.79ZM912.431,2005.2L904.5,1994L896.569,2005.2L528.714,2005.2L528.714,2040.63L2021.29,2040.63L2021.29,2005.2L912.431,2005.2ZM1654.85,1562.28L1646.5,1550.5L1638.15,1562.28L1282.49,1562.28L1274.5,1551L1266.51,1562.28L912.138,1562.28L904.5,1551.5L896.862,1562.28L528.714,1562.28L528.714,1597.72L2021.29,1597.72L2021.29,1562.28L1654.85,1562.28ZM1282.97,676.457L1274.5,664.5L1266.03,676.457L528.714,676.457L528.714,711.89L2021.29,711.89L2021.29,676.457L1282.97,676.457ZM1552.96,2270.95L1544.5,2259L1536.04,2270.95L1025.25,2270.95L1017.5,2260L1009.75,2270.95L528.714,2270.95L528.714,2306.38L2021.29,2306.38L2021.29,2270.95L1552.96,2270.95ZM1654.96,1739.45L1646.5,1727.5L1638.04,1739.45L912.255,1739.45L904.5,1728.5L896.745,1739.45L528.714,1739.45L528.714,1774.88L2021.29,1774.88L2021.29,1739.45L1654.96,1739.45ZM1282.55,1119.37L1274.5,1108L1266.45,1119.37L528.714,1119.37L528.714,1154.8L2021.29,1154.8L2021.29,1119.37L1282.55,1119.37ZM1282.67,1296.54L1274.5,1285L1266.33,1296.54L528.714,1296.54L528.714,1331.97L2021.29,1331.97L2021.29,1296.54L1282.67,1296.54ZM1282.97,1207.95L1274.5,1196L1266.03,1207.95L528.714,1207.95L528.714,1243.39L2021.29,1243.39L2021.29,1207.95L1282.97,1207.95ZM1552.84,2093.78L1544.5,2082L1536.16,2093.78L1025.13,2093.78L1017.5,2083L1009.87,2093.78L528.714,2093.78L528.714,2129.21L2021.29,2129.21L2021.29,2093.78L1552.84,2093.78ZM1654.79,1473.7L1646.5,1462L1638.21,1473.7L1282.79,1473.7L1274.5,1462L1266.21,1473.7L912.08,1473.7L904.5,1463L896.92,1473.7L528.714,1473.7L528.714,1509.13L2021.29,1509.13L2021.29,1473.7L1654.79,1473.7ZM1025.49,2625.28L1017.5,2614L1009.51,2625.28L528.714,2625.28L528.714,2660.71L2021.29,2660.71L2021.29,2625.28L1025.49,2625.28ZM1025.31,2359.53L1017.5,2348.5L1009.69,2359.53L528.714,2359.53L528.714,2394.96L2021.29,2394.96L2021.29,2359.53L1025.31,2359.53ZM1025.43,2536.69L1017.5,2525.5L1009.57,2536.69L528.714,2536.69L528.714,2572.13L2021.29,2572.13L2021.29,2536.69L1025.43,2536.69ZM1282.73,1916.61L1274.5,1905L1266.27,1916.61L912.373,1916.61L904.5,1905.5L896.627,1916.61L528.714,1916.61L528.714,1952.05L2021.29,1952.05L2021.29,1916.61L1282.73,1916.61ZM1552.9,2182.36L1544.5,2170.5L1536.1,2182.36L1025.19,2182.36L1017.5,2171.5L1009.81,2182.36L528.714,2182.36L528.714,2217.8L2021.29,2217.8L2021.29,2182.36L1552.9,2182.36ZM1654.9,1650.87L1646.5,1639L1638.1,1650.87L1282.9,1650.87L1274.5,1639L1266.1,1650.87L912.197,1650.87L904.5,1640L896.803,1650.87L528.714,1650.87L528.714,1686.3L2021.29,1686.3L2021.29,1650.87L1654.9,1650.87ZM1274.5,1816L1266,1828L1283,1828L1274.5,1816ZM1274.5,841.5L1266,853.5L1283,853.5L1274.5,841.5ZM1274.5,1727L1266,1739L1283,1739L1274.5,1727ZM1274.5,1018.5L1266,1030.5L1283,1030.5L1274.5,1018.5ZM1274.5,1993L1266,2005L1283,2005L1274.5,1993ZM1646.5,1993L1638,2005L1655,2005L1646.5,1993ZM1274.5,930L1266,942L1283,942L1274.5,930ZM1544.5,2347.5L1536,2359.5L1553,2359.5L1544.5,2347.5ZM1018.5,2436L1010,2448L1027,2448L1018.5,2436ZM1646.5,1904.5L1638,1916.5L1655,1916.5L1646.5,1904.5ZM1646.5,1816L1638,1828L1655,1828L1646.5,1816ZM1544.5,2613L1536,2625L1553,2625L1544.5,2613ZM1545.5,2435L1537,2447L1554,2447L1545.5,2435ZM905.5,1816L897,1828L914,1828L905.5,1816ZM1544.5,2524.5L1536,2536.5L1553,2536.5L1544.5,2524.5ZM1274.5,753L1266,765L1283,765L1274.5,753Z" style="fill:rgb(236,143,143);"/>
    </g>
</svg>
