<?xml version="1.0" encoding="UTF-8" standalone="no"?>
<!DOCTYPE svg PUBLIC "-//W3C//DTD SVG 1.1//EN" "http://www.w3.org/Graphics/SVG/1.1/DTD/svg11.dtd">
<svg width="100%" height="100%" viewBox="0 0 1013 1580" version="1.1" xmlns="http://www.w3.org/2000/svg" xmlns:xlink="http://www.w3.org/1999/xlink" xml:space="preserve" xmlns:serif="http://www.serif.com/" style="fill-rule:evenodd;clip-rule:evenodd;stroke-linecap:round;stroke-linejoin:round;stroke-miterlimit:1.5;">
    <g transform="matrix(2.66667,0,0,2.66667,2.36518,2.36518)">
        <g transform="matrix(1.07441,0,0,1,-2480.29,-532.427)">
            <g transform="matrix(1,0,0,1,-54.9676,-59.0538)">
                <path d="M2385.83,1182.03L2692.91,1182.03" style="fill:none;stroke:black;stroke-width:1.71px;"/>
            </g>
        </g>
        <g transform="matrix(0.99983,0,0,1,-2279.92,-649.606)">
            <g transform="matrix(1,0,0,1,-59.0677,-59.0538)">
                <path d="M2363.38,708.661L2693.76,708.661C2706.8,708.661 2717.39,719.246 2717.39,732.283" style="fill:none;stroke:black;stroke-width:1.77px;"/>
            </g>
        </g>
        <g transform="matrix(1,0,0,1.28518,-2302.76,-858.436)">
            <g transform="matrix(1,0,0,1,-59.0577,-45.9498)">
                <path d="M2362.2,732.283L2361.82,1155.03" style="fill:none;stroke:black;stroke-width:1.54px;"/>
            </g>
        </g>
        <g transform="matrix(1,0,0,0.997929,-1925.2,-548.591)">
            <g transform="matrix(1,0,0,1,-59.0577,-59.1764)">
                <path d="M2362.2,632.579L2362.2,1177.01" style="fill:none;stroke:black;stroke-width:1.77px;"/>
            </g>
        </g>
        <g transform="matrix(0.948602,0,0,0.948602,-2630.21,-383.36)">
            <g transform="matrix(1,0,0,1,-62.2576,-62.2535)">
                <path d="M2859.88,1088.93C2846.14,1088.93 2834.98,1077.78 2834.98,1064.03" style="fill:none;stroke:black;stroke-width:1.87px;"/>
            </g>
        </g>
        <g transform="matrix(0.948602,0,0,0.948602,-2629.83,-926.667)">
            <g transform="matrix(1,0,0,1,-62.2576,-62.2535)">
                <path d="M2834.98,1064.03C2834.98,1050.29 2846.14,1039.13 2859.88,1039.13" style="fill:none;stroke:black;stroke-width:1.87px;"/>
            </g>
        </g>
        <g transform="matrix(0.948602,0,0,0.948602,-2299.51,-383.36)">
            <g transform="matrix(1,0,0,1,-62.2576,-62.2535)">
                <path d="M2884.78,1064.03C2884.78,1077.78 2873.63,1088.93 2859.88,1088.93" style="fill:none;stroke:black;stroke-width:1.87px;"/>
            </g>
        </g>
        <g transform="matrix(1.14631,-2.3425e-16,2.32111e-16,1.14746,-2604.75,-1271.06)">
            <g transform="matrix(1,-4.93038e-32,0,1,-51.5198,-51.4648)">
                <path d="M2381.52,1200.6L2381.52,1236.09L2392.15,1236.09L2392.15,1221.78L2395.69,1228.86L2402.77,1228.86L2406.32,1221.81L2406.32,1236.09L2416.95,1236.09L2416.95,1200.6L2406.32,1200.6L2399.23,1215.36L2392.15,1200.6L2381.52,1200.6ZM2391.17,1202.14L2383.06,1202.14L2383.06,1234.55L2390.6,1234.55L2390.6,1221.78C2390.6,1221.06 2391.09,1220.44 2391.79,1220.27C2392.49,1220.11 2393.21,1220.44 2393.53,1221.09L2396.64,1227.32L2401.82,1227.32L2404.93,1221.12C2405.26,1220.48 2405.98,1220.15 2406.67,1220.31C2407.37,1220.48 2407.86,1221.1 2407.86,1221.81L2407.86,1234.55L2415.41,1234.55L2415.41,1202.14L2407.29,1202.14L2400.62,1216.03C2400.37,1216.56 2399.83,1216.9 2399.23,1216.9C2398.64,1216.9 2398.1,1216.56 2397.84,1216.03L2391.17,1202.14Z"/>
            </g>
        </g>
        <g transform="matrix(1.14762,-2.32092e-16,2.31953e-16,1.14878,-2575.09,-1273.18)">
            <g transform="matrix(1,4.93038e-32,0,1,-51.461,-51.4057)">
                <path d="M2436.11,1201.15L2436.11,1236.63L2446.73,1236.63L2446.73,1201.15L2436.11,1201.15ZM2437.66,1235.09L2445.19,1235.09L2445.19,1202.69L2437.66,1202.69L2437.66,1235.09Z"/>
            </g>
        </g>
        <g transform="matrix(1.14631,-2.3425e-16,2.32111e-16,1.14746,-2569.45,-1270.18)">
            <g transform="matrix(1,-4.93038e-32,0,1,-51.5198,-51.4648)">
                <path d="M2451.69,1199.91L2451.69,1210.46L2457,1210.46L2457,1235.4L2467.63,1235.4L2467.63,1210.46L2472.94,1210.46L2472.94,1199.91L2451.69,1199.91ZM2471.4,1208.91L2471.4,1201.45L2453.23,1201.45L2453.23,1208.91L2457,1208.91C2457.86,1208.91 2458.55,1209.61 2458.55,1210.46L2458.55,1233.86L2466.08,1233.86L2466.08,1210.46C2466.08,1209.61 2466.78,1208.91 2467.63,1208.91L2471.4,1208.91Z"/>
            </g>
        </g>
        <g transform="matrix(1.14631,-2.3425e-16,2.32111e-16,1.14746,-2568.44,-1269.93)">
            <g transform="matrix(1,-4.93038e-32,0,1,-51.5198,-51.4648)">
                <path d="M2493.32,1226.18L2495.1,1226.26L2497.96,1235.04L2508.59,1235.04L2503.42,1220.94C2503.42,1220.94 2506.34,1218.36 2506.34,1212.09C2506.34,1205.02 2499.24,1199.69 2489.25,1199.69L2479.15,1199.69L2479.15,1235.04L2489.78,1235.04L2489.78,1210.32L2492.77,1210.32C2492.77,1210.32 2496.82,1210.14 2496.87,1213.86C2496.91,1217.66 2493.32,1217.44 2493.32,1217.44" style="fill:none;stroke:black;stroke-width:1.54px;"/>
            </g>
        </g>
        <g transform="matrix(0.687649,-1.37366e-16,1.39283e-16,0.688343,-1499.16,-763.328)">
            <g transform="matrix(1,-4.93038e-32,0,1,-85.8835,-85.7912)">
                <path d="M2601.38,1308.07L2601.38,1293.49" style="fill:none;stroke:black;stroke-width:2.58px;"/>
            </g>
        </g>
        <g transform="matrix(1.14934,-2.31886e-16,2.37419e-16,1.15323,-2573.22,-1272.91)">
            <g transform="matrix(1,0,4.93038e-32,1,-51.384,-51.2073)">
                <path d="M2512.11,1196.28L2512.11,1231.62L2522.71,1231.62L2522.71,1196.28L2512.11,1196.28ZM2513.65,1197.82L2513.65,1230.09L2521.17,1230.09L2521.17,1197.82L2513.65,1197.82Z"/>
            </g>
        </g>
        <g transform="matrix(0.687649,-1.37366e-16,1.39283e-16,0.688343,-1339.77,-763.301)">
            <g transform="matrix(1,-4.93038e-32,0,1,-85.8835,-85.7912)">
                <path d="M2459.65,1308.07L2467.73,1307.88L2471.2,1322.79L2488.65,1322.8L2474.4,1263.87L2447.8,1263.87L2433,1322.79L2450.6,1322.79L2460.48,1281.31L2461.18,1281.31L2464.09,1293.38L2459.65,1308.07" style="fill:none;stroke:black;stroke-width:2.58px;"/>
            </g>
        </g>
        <g transform="matrix(0.687649,-1.37366e-16,1.39283e-16,0.688343,-1499.16,-763.499)">
            <g transform="matrix(1,-4.93038e-32,0,1,-85.8835,-85.7912)">
                <path d="M2459.65,1308.07L2467.73,1307.88L2471.46,1323.08L2489.17,1323.08L2474.41,1264.15C2474.41,1264.15 2447.84,1263.84 2447.84,1264.15L2433.07,1323.08L2450.8,1323.08M2450.8,1323.08L2460.48,1281.31L2461.18,1281.31L2464.09,1293.38L2459.65,1308.07" style="fill:none;stroke:black;stroke-width:2.58px;"/>
            </g>
        </g>
        <g transform="matrix(1,0,0,1,-59.0577,-59.0538)">
            <path d="M220.276,224.257L220.276,295.276C220.276,296.254 219.482,297.047 218.504,297.047L159.449,297.047C144.13,297.047 131.693,309.484 131.693,324.803C131.693,340.122 144.13,352.559 159.449,352.559L218.504,352.559C219.482,352.559 220.275,353.351 220.276,354.329L220.346,425.108C220.346,425.499 220.217,425.878 219.98,426.188C216.397,430.861 214.37,436.576 214.37,442.913C214.37,449.193 216.385,454.892 219.908,459.543C220.141,459.851 220.267,460.227 220.268,460.613L220.276,531.496C220.276,531.966 220.089,532.416 219.757,532.749C219.425,533.081 218.974,533.268 218.504,533.268L159.449,533.268C144.13,533.268 131.693,545.705 131.693,561.024C131.693,576.343 144.13,588.78 159.449,588.78L336.614,588.78C351.933,588.78 364.37,576.343 364.37,561.024C364.37,545.705 351.933,533.268 336.614,533.268L277.559,533.268C276.581,533.268 275.787,532.475 275.787,531.496L275.787,460.33C275.787,459.954 275.907,459.587 276.13,459.283C279.49,454.693 281.475,449.033 281.475,442.913C281.475,436.728 279.565,431.168 276.137,426.553C275.91,426.248 275.787,425.877 275.787,425.497L275.787,354.331C275.787,353.352 276.58,352.559 277.559,352.559C277.559,352.559 336.249,352.552 336.466,352.552C351.787,352.552 364.37,340.124 364.37,324.803C364.37,309.486 352.03,297.068 336.713,297.068C336.527,297.068 277.558,297.047 277.558,297.047C276.58,297.047 275.787,296.254 275.787,295.276L275.787,224.121C275.787,223.74 275.91,223.37 276.137,223.064C279.558,218.463 281.583,212.795 281.584,206.693C281.585,191.374 269.147,178.937 253.828,178.937L242.235,178.937C226.916,178.937 214.479,191.374 214.479,206.693C214.479,212.875 216.504,218.587 219.927,223.202L218.504,224.257C214.862,219.347 212.707,213.27 212.707,206.693C212.707,190.396 225.938,177.165 242.235,177.165L253.828,177.165C270.125,177.165 283.357,190.396 283.356,206.693C283.355,213.189 281.2,219.223 277.559,224.121L277.559,295.276C277.559,295.276 336.527,295.296 336.713,295.296C353.01,295.296 366.142,308.506 366.142,324.803C366.142,341.1 352.763,354.324 336.466,354.324C336.249,354.324 277.559,354.331 277.559,354.331L277.559,425.497C281.209,430.41 283.247,436.328 283.247,442.913C283.247,449.424 281.135,455.446 277.559,460.33L277.559,531.496L336.614,531.496C352.911,531.496 366.142,544.727 366.142,561.024C366.142,577.32 352.911,590.551 336.614,590.551L159.449,590.551C143.152,590.551 129.921,577.32 129.921,561.024C129.921,544.727 143.152,531.496 159.449,531.496L218.504,531.496L218.496,460.613C214.746,455.662 212.598,449.597 212.598,442.913C212.598,436.167 214.76,430.085 218.574,425.11L218.504,354.331L159.449,354.331C143.152,354.331 129.921,341.1 129.921,324.803C129.921,308.506 143.152,295.276 159.449,295.276L218.504,295.276L218.504,224.257L220.276,224.257Z"/>
        </g>
    </g>
</svg>
