<?xml version="1.0" encoding="UTF-8" standalone="no"?><!DOCTYPE svg PUBLIC "-//W3C//DTD SVG 1.1//EN" "http://www.w3.org/Graphics/SVG/1.1/DTD/svg11.dtd"><svg width="100%" height="100%" viewBox="0 0 5100 3300" version="1.1" xmlns="http://www.w3.org/2000/svg" xmlns:xlink="http://www.w3.org/1999/xlink" xml:space="preserve" xmlns:serif="http://www.serif.com/" style="fill-rule:evenodd;clip-rule:evenodd;stroke-linejoin:round;stroke-miterlimit:2;"><g id="Keyhole" transform="matrix(1,0,0,1,0,-25.3506)"><path d="M277.559,224.121L277.559,295.276C277.559,295.276 336.527,295.296 336.713,295.296C353.01,295.296 366.142,308.506 366.142,324.803C366.142,341.1 352.763,354.324 336.466,354.324C336.249,354.324 277.559,354.331 277.559,354.331C277.559,354.331 277.358,418.554 277.439,418.646C286.389,423.721 292.433,433.335 292.433,444.35C292.433,455.275 286.502,464.814 277.672,469.921L277.669,469.922L277.559,531.496L336.614,531.496C352.911,531.496 366.142,544.727 366.142,561.024C366.142,577.32 352.911,590.551 336.614,590.551L159.449,590.551C143.152,590.551 129.921,577.32 129.921,561.024C129.921,544.727 143.152,531.496 159.449,531.496L218.504,531.496C218.504,531.496 218.5,485.586 218.498,470.008L218.501,470.009C209.421,464.97 203.288,455.295 203.288,444.183C203.288,433.067 209.444,423.377 218.531,418.34L218.224,418.512L218.504,354.331L159.449,354.331C143.152,354.331 129.921,341.1 129.921,324.803C129.921,308.506 143.152,295.276 159.449,295.276L218.504,295.276L218.504,224.257C209.4,219.225 203.288,209.469 203.288,198.339C203.288,182.042 216.519,168.811 232.816,168.811L262.906,168.978C279.202,168.978 292.433,182.209 292.433,198.506C292.433,209.493 286.471,219.036 277.559,224.121" style="fill:none;"/></g><path id="keyhole-plate-outline" d="M437.008,625.984C437.008,625.984 437.008,82.677 437.008,82.677C437.008,69.64 426.423,59.055 413.386,59.055L83.065,59.055C70.028,59.055 59.443,69.64 59.443,82.677C59.443,84.482 59.443,82.678 59.443,82.678L59.055,625.984C59.055,639.022 69.64,649.606 82.677,649.606L413.386,649.606C426.423,649.606 437.008,639.022 437.008,625.984Z" style="fill:none;"/><g id="Maitria" transform="matrix(1.27298,0,0,1.27298,39.4141,-349.525)"><path d="M44.718,774.901L50.95,774.901L50.95,749.269L51.062,749.269L59.663,769.008L64.851,769.008L73.452,749.269L73.593,749.269L73.593,774.901L79.825,774.901L79.825,733.788L73.931,733.788L62.37,760.577L50.583,733.788L44.718,733.788L44.718,774.901Z" style="fill:none;fill-rule:nonzero;"/><path d="M101.532,760.182L107.481,742.22L107.594,742.22L113.544,760.182L101.532,760.182ZM118.507,774.901L125.077,774.901L110.132,733.788L104.915,733.788L89.97,774.901L96.569,774.901L99.727,765.709L115.321,765.709L118.507,774.901Z" style="fill:none;fill-rule:nonzero;"/><rect x="135.251" y="733.788" width="6.232" height="41.113" style="fill:none;fill-rule:nonzero;"/><path d="M162.88,774.901L169.14,774.901L169.14,739.344L180.391,739.344L180.391,733.788L151.629,733.788L151.629,739.344L162.88,739.344L162.88,774.901Z" style="fill:none;fill-rule:nonzero;"/><path d="M196.796,739.344L206.553,739.344C208.546,739.344 210.068,739.767 211.121,740.612C212.456,741.571 213.142,743.122 213.18,745.265C213.18,747.051 212.606,748.555 211.46,749.777C210.294,751.093 208.546,751.77 206.215,751.807L196.796,751.807L196.796,739.344ZM190.565,774.901L196.796,774.901L196.796,757.334L204.748,757.334L213.236,774.901L220.652,774.901L211.121,756.657C216.347,754.646 218.998,750.848 219.073,745.265C218.96,741.468 217.597,738.545 214.984,736.496C212.822,734.691 210.031,733.788 206.609,733.788L190.565,733.788L190.565,774.901Z" style="fill:none;fill-rule:nonzero;"/><rect x="231.559" y="733.788" width="6.232" height="41.113" style="fill:none;fill-rule:nonzero;"/><path d="M259.498,760.182L265.448,742.22L265.561,742.22L271.51,760.182L259.498,760.182ZM276.473,774.901L283.043,774.901L268.098,733.788L262.882,733.788L247.937,774.901L254.535,774.901L257.693,765.709L273.287,765.709L276.473,774.901Z" style="fill:none;fill-rule:nonzero;"/></g><rect id="hole-plate-outline" x="590.551" y="59.055" width="377.953" height="975.591" style="fill:none;"/><g id="holes"><circle id="plate" cx="778.346" cy="248.031" r="75" style="fill:none;"/><circle id="plate1" serif:id="plate" cx="778.346" cy="543.307" r="75" style="fill:none;"/><circle id="hole" cx="778.346" cy="846.85" r="75" style="fill:none;"/></g></svg>