solid OpenSCAD_Model
  facet normal -0.908660854566026 -0.29524180884432627 -0.29524180884432627
    outer loop
      vertex 0.5729490168751576 1.2366442431225806 3
      vertex 0 3 3
      vertex 0.5729490168751576 3 1.2366442431225806
    endloop
  endfacet
  facet normal -0.908660854566026 -0.29524180884432627 -0.29524180884432627
    outer loop
      vertex 0.5729490168751576 1.2366442431225806 3
      vertex 0.5729490168751576 3 1.2366442431225806
      vertex 1.0364745084375788 1.5734152255572695 1.2366442431225806
    endloop
  endfacet
  facet normal -0.561583292368329 -0.7729530904544454 -0.29524180884432616
    outer loop
      vertex 0.5729490168751576 1.2366442431225806 3
      vertex 1.0364745084375788 1.5734152255572695 1.2366442431225806
      vertex 2.25 0.6917373471185599 1.2366442431225806
    endloop
  endfacet
  facet normal -0.5773502691896257 -0.18759247408507987 -0.7946544722917662
    outer loop
      vertex 1.0364745084375788 1.5734152255572695 1.2366442431225806
      vertex 0.5729490168751576 3 1.2366442431225806
      vertex 2.0729490168751576 3 0.14683045111453952
    endloop
  endfacet
  facet normal -0.561583292368329 -0.7729530904544455 -0.2952418088443261
    outer loop
      vertex 0.5729490168751576 1.2366442431225806 3
      vertex 2.25 0.6917373471185599 1.2366442431225806
      vertex 2.0729490168751576 0.14683045111453952 3
    endloop
  endfacet
  facet normal -0.5773502691896256 -0.1875924740850799 -0.7946544722917662
    outer loop
      vertex 1.0364745084375788 1.5734152255572695 1.2366442431225806
      vertex 2.0729490168751576 3 0.14683045111453952
      vertex 2.25 2.4550931039959796 0.14683045111453952
    endloop
  endfacet
  facet normal -0.3568220897730898 -0.4911234731884229 -0.7946544722917662
    outer loop
      vertex 1.0364745084375788 1.5734152255572695 1.2366442431225806
      vertex 2.713525491562421 2.1183221215612904 0.14683045111453952
      vertex 2.25 0.6917373471185599 1.2366442431225806
    endloop
  endfacet
  facet normal -0.3568220897730899 -0.4911234731884228 -0.7946544722917661
    outer loop
      vertex 1.0364745084375788 1.5734152255572695 1.2366442431225806
      vertex 2.25 2.4550931039959796 0.14683045111453952
      vertex 2.713525491562421 2.1183221215612904 0.14683045111453952
    endloop
  endfacet
  facet normal -0.9510565162951536 -0.3090169943749474 0
    outer loop
      vertex 0.5729490168751576 1.2366442431225806 3
      vertex 0.5729490168751576 1.2366442431225806 103
      vertex 0 3 3
    endloop
  endfacet
  facet normal -0.587785252292473 -0.8090169943749475 0
    outer loop
      vertex 0.5729490168751576 1.2366442431225806 3
      vertex 2.0729490168751576 0.14683045111453952 3
      vertex 0.5729490168751576 1.2366442431225806 103
    endloop
  endfacet
  facet normal -0.9510565162951535 0 -0.3090169943749474
    outer loop
      vertex 0.5729490168751576 3 1.2366442431225806
      vertex 0 3 3
      vertex 0.5729490168751576 72 1.2366442431225806
    endloop
  endfacet
  facet normal 0 0 -1
    outer loop
      vertex 2.25 2.4550931039959796 0.14683045111453952
      vertex 2.713525491562421 72.88167787843871 0.14683045111453952
      vertex 2.713525491562421 2.1183221215612904 0.14683045111453952
    endloop
  endfacet
  facet normal -0.587785252292473 0 -0.8090169943749475
    outer loop
      vertex 0.5729490168751576 3 1.2366442431225806
      vertex 2.0729490168751576 72 0.14683045111453952
      vertex 2.0729490168751576 3 0.14683045111453952
    endloop
  endfacet
  facet normal 0 0 -1
    outer loop
      vertex 2.25 2.4550931039959796 0.14683045111453952
      vertex 2.0729490168751576 3 0.14683045111453952
      vertex 2.713525491562421 72.88167787843871 0.14683045111453952
    endloop
  endfacet
  facet normal 0 -0.9554225632202384 -0.29524180884432616
    outer loop
      vertex 2.25 0.6917373471185599 1.2366442431225806
      vertex 47.92705098312484 0.14683045111453952 3
      vertex 2.0729490168751576 0.14683045111453952 3
    endloop
  endfacet
  facet normal 0 -0.607061998206686 -0.7946544722917661
    outer loop
      vertex 2.25 0.6917373471185599 1.2366442431225806
      vertex 2.713525491562421 2.1183221215612904 0.14683045111453952
      vertex 47.28647450843758 2.1183221215612904 0.14683045111453952
    endloop
  endfacet
  facet normal 0 0 -1
    outer loop
      vertex 2.713525491562421 2.1183221215612904 0.14683045111453952
      vertex 2.713525491562421 72.88167787843871 0.14683045111453952
      vertex 47.28647450843758 2.1183221215612904 0.14683045111453952
    endloop
  endfacet
  facet normal -0.9510565162951536 -0.3090169943749474 0
    outer loop
      vertex 0 3 3
      vertex 0.5729490168751576 1.2366442431225806 103
      vertex 0 3 103
    endloop
  endfacet
  facet normal -0.587785252292473 -0.8090169943749475 0
    outer loop
      vertex 2.0729490168751576 0.14683045111453952 3
      vertex 2.0729490168751576 0.14683045111453952 103
      vertex 0.5729490168751576 1.2366442431225806 103
    endloop
  endfacet
  facet normal -1 0 0
    outer loop
      vertex 0 3 3
      vertex 0 3 103
      vertex 0 72 103
    endloop
  endfacet
  facet normal 0 -1 0
    outer loop
      vertex 2.0729490168751576 0.14683045111453952 3
      vertex 47.92705098312484 0.14683045111453952 103
      vertex 2.0729490168751576 0.14683045111453952 103
    endloop
  endfacet
  facet normal -0.9510565162951535 0 -0.3090169943749474
    outer loop
      vertex 0 3 3
      vertex 0 72 3
      vertex 0.5729490168751576 72 1.2366442431225806
    endloop
  endfacet
  facet normal -0.587785252292473 0 -0.8090169943749475
    outer loop
      vertex 0.5729490168751576 3 1.2366442431225806
      vertex 0.5729490168751576 72 1.2366442431225806
      vertex 2.0729490168751576 72 0.14683045111453952
    endloop
  endfacet
  facet normal 0 0 -1
    outer loop
      vertex 2.0729490168751576 3 0.14683045111453952
      vertex 2.0729490168751576 72 0.14683045111453952
      vertex 2.713525491562421 72.88167787843871 0.14683045111453952
    endloop
  endfacet
  facet normal -1 0 0
    outer loop
      vertex 0 3 3
      vertex 0 72 103
      vertex 0 72 3
    endloop
  endfacet
  facet normal -0.908660854566026 0.29524180884432627 -0.2952418088443262
    outer loop
      vertex 0.5729490168751576 72 1.2366442431225806
      vertex 0 72 3
      vertex 1.0364745084375788 73.42658477444273 1.2366442431225806
    endloop
  endfacet
  facet normal -0.908660854566026 0.2952418088443267 -0.2952418088443258
    outer loop
      vertex 0 72 3
      vertex 0.5729490168751576 73.76335575687742 3
      vertex 1.0364745084375788 73.42658477444273 1.2366442431225806
    endloop
  endfacet
  facet normal -0.5773502691896257 0.1875924740850799 -0.794654472291766
    outer loop
      vertex 0.5729490168751576 72 1.2366442431225806
      vertex 1.0364745084375788 73.42658477444273 1.2366442431225806
      vertex 2.25 72.54490689600402 0.14683045111453952
    endloop
  endfacet
  facet normal -0.5615832923683304 0.7729530904544449 -0.2952418088443251
    outer loop
      vertex 0.5729490168751576 73.76335575687742 3
      vertex 2.0729490168751576 74.85316954888546 3
      vertex 1.0364745084375788 73.42658477444273 1.2366442431225806
    endloop
  endfacet
  facet normal -0.5773502691896257 0.1875924740850793 -0.7946544722917663
    outer loop
      vertex 0.5729490168751576 72 1.2366442431225806
      vertex 2.25 72.54490689600402 0.14683045111453952
      vertex 2.0729490168751576 72 0.14683045111453952
    endloop
  endfacet
  facet normal 0 0 -1
    outer loop
      vertex 2.0729490168751576 72 0.14683045111453952
      vertex 2.25 72.54490689600402 0.14683045111453952
      vertex 2.713525491562421 72.88167787843871 0.14683045111453952
    endloop
  endfacet
  facet normal -0.35682208977308977 0.49112347318842353 -0.7946544722917659
    outer loop
      vertex 1.0364745084375788 73.42658477444273 1.2366442431225806
      vertex 2.25 74.30826265288144 1.2366442431225806
      vertex 2.25 72.54490689600402 0.14683045111453952
    endloop
  endfacet
  facet normal -0.5615832923683284 0.7729530904544457 -0.29524180884432694
    outer loop
      vertex 1.0364745084375788 73.42658477444273 1.2366442431225806
      vertex 2.0729490168751576 74.85316954888546 3
      vertex 2.25 74.30826265288144 1.2366442431225806
    endloop
  endfacet
  facet normal -0.35682208977308744 0.491123473188424 -0.7946544722917667
    outer loop
      vertex 2.25 72.54490689600402 0.14683045111453952
      vertex 2.25 74.30826265288144 1.2366442431225806
      vertex 2.713525491562421 72.88167787843871 0.14683045111453952
    endloop
  endfacet
  facet normal -0.9510565162951534 0.3090169943749478 0
    outer loop
      vertex 0 72 3
      vertex 0.5729490168751576 73.76335575687742 103
      vertex 0.5729490168751576 73.76335575687742 3
    endloop
  endfacet
  facet normal -0.5877852522924741 0.8090169943749466 0
    outer loop
      vertex 0.5729490168751576 73.76335575687742 3
      vertex 2.0729490168751576 74.85316954888546 103
      vertex 2.0729490168751576 74.85316954888546 3
    endloop
  endfacet
  facet normal 0 0.6070619982066862 -0.7946544722917661
    outer loop
      vertex 2.25 74.30826265288144 1.2366442431225806
      vertex 47.75 74.30826265288144 1.2366442431225806
      vertex 2.713525491562421 72.88167787843871 0.14683045111453952
    endloop
  endfacet
  facet normal 0 0.9554225632202381 -0.29524180884432705
    outer loop
      vertex 2.25 74.30826265288144 1.2366442431225806
      vertex 2.0729490168751576 74.85316954888546 3
      vertex 47.92705098312484 74.85316954888546 3
    endloop
  endfacet
  facet normal -0.9510565162951534 0.3090169943749478 0
    outer loop
      vertex 0 72 3
      vertex 0 72 103
      vertex 0.5729490168751576 73.76335575687742 103
    endloop
  endfacet
  facet normal -0.5877852522924741 0.8090169943749466 0
    outer loop
      vertex 0.5729490168751576 73.76335575687742 3
      vertex 0.5729490168751576 73.76335575687742 103
      vertex 2.0729490168751576 74.85316954888546 103
    endloop
  endfacet
  facet normal 0 1 0
    outer loop
      vertex 2.0729490168751576 74.85316954888546 3
      vertex 2.0729490168751576 74.85316954888546 103
      vertex 47.92705098312484 74.85316954888546 103
    endloop
  endfacet
  facet normal 0 -0.6070619982066862 -0.7946544722917661
    outer loop
      vertex 2.25 0.6917373471185599 1.2366442431225806
      vertex 47.28647450843758 2.1183221215612904 0.14683045111453952
      vertex 47.75 0.6917373471185599 1.2366442431225806
    endloop
  endfacet
  facet normal 0 -0.9554225632202383 -0.2952418088443261
    outer loop
      vertex 2.25 0.6917373471185599 1.2366442431225806
      vertex 47.75 0.6917373471185599 1.2366442431225806
      vertex 47.92705098312484 0.14683045111453952 3
    endloop
  endfacet
  facet normal 0 -1 0
    outer loop
      vertex 2.0729490168751576 0.14683045111453952 3
      vertex 47.92705098312484 0.14683045111453952 3
      vertex 47.92705098312484 0.14683045111453952 103
    endloop
  endfacet
  facet normal 0 0 -1
    outer loop
      vertex 2.713525491562421 72.88167787843871 0.14683045111453952
      vertex 47.75 2.4550931039959796 0.14683045111453952
      vertex 47.28647450843758 2.1183221215612904 0.14683045111453952
    endloop
  endfacet
  facet normal 0 0 -1
    outer loop
      vertex 2.713525491562421 72.88167787843871 0.14683045111453952
      vertex 47.92705098312484 3 0.14683045111453952
      vertex 47.75 2.4550931039959796 0.14683045111453952
    endloop
  endfacet
  facet normal 0.3568220897730896 -0.4911234731884229 -0.7946544722917662
    outer loop
      vertex 47.28647450843758 2.1183221215612904 0.14683045111453952
      vertex 47.75 2.4550931039959796 0.14683045111453952
      vertex 47.75 0.6917373471185599 1.2366442431225806
    endloop
  endfacet
  facet normal 0.5615832923683289 -0.7729530904544455 -0.2952418088443264
    outer loop
      vertex 47.75 0.6917373471185599 1.2366442431225806
      vertex 48.96352549156242 1.5734152255572695 1.2366442431225806
      vertex 47.92705098312484 0.14683045111453952 3
    endloop
  endfacet
  facet normal 0.3568220897730897 -0.491123473188423 -0.7946544722917663
    outer loop
      vertex 47.75 0.6917373471185599 1.2366442431225806
      vertex 47.75 2.4550931039959796 0.14683045111453952
      vertex 48.96352549156242 1.5734152255572695 1.2366442431225806
    endloop
  endfacet
  facet normal 0.5773502691896251 -0.18759247408508076 -0.7946544722917664
    outer loop
      vertex 47.75 2.4550931039959796 0.14683045111453952
      vertex 47.92705098312484 3 0.14683045111453952
      vertex 48.96352549156242 1.5734152255572695 1.2366442431225806
    endloop
  endfacet
  facet normal 0.561583292368329 -0.7729530904544455 -0.29524180884432627
    outer loop
      vertex 47.92705098312484 0.14683045111453952 3
      vertex 48.96352549156242 1.5734152255572695 1.2366442431225806
      vertex 49.42705098312484 1.2366442431225806 3
    endloop
  endfacet
  facet normal 0.9086608545660259 -0.2952418088443265 -0.2952418088443265
    outer loop
      vertex 48.96352549156242 1.5734152255572695 1.2366442431225806
      vertex 49.42705098312484 3 1.2366442431225806
      vertex 49.42705098312484 1.2366442431225806 3
    endloop
  endfacet
  facet normal 0.9086608545660262 -0.2952418088443258 -0.2952418088443258
    outer loop
      vertex 49.42705098312484 1.2366442431225806 3
      vertex 49.42705098312484 3 1.2366442431225806
      vertex 50 3 3
    endloop
  endfacet
  facet normal 0.5773502691896257 -0.18759247408508006 -0.7946544722917662
    outer loop
      vertex 47.92705098312484 3 0.14683045111453952
      vertex 49.42705098312484 3 1.2366442431225806
      vertex 48.96352549156242 1.5734152255572695 1.2366442431225806
    endloop
  endfacet
  facet normal 0.587785252292473 -0.8090169943749475 0
    outer loop
      vertex 47.92705098312484 0.14683045111453952 3
      vertex 49.42705098312484 1.2366442431225806 3
      vertex 47.92705098312484 0.14683045111453952 103
    endloop
  endfacet
  facet normal 0.9510565162951538 -0.30901699437494695 0
    outer loop
      vertex 49.42705098312484 1.2366442431225806 3
      vertex 50 3 3
      vertex 50 3 103
    endloop
  endfacet
  facet normal 0.587785252292473 0 -0.8090169943749475
    outer loop
      vertex 47.92705098312484 3 0.14683045111453952
      vertex 49.42705098312484 72 1.2366442431225806
      vertex 49.42705098312484 3 1.2366442431225806
    endloop
  endfacet
  facet normal 0.9510565162951538 0 -0.30901699437494695
    outer loop
      vertex 49.42705098312484 3 1.2366442431225806
      vertex 49.42705098312484 72 1.2366442431225806
      vertex 50 3 3
    endloop
  endfacet
  facet normal 0.587785252292473 -0.8090169943749475 0
    outer loop
      vertex 49.42705098312484 1.2366442431225806 3
      vertex 49.42705098312484 1.2366442431225806 103
      vertex 47.92705098312484 0.14683045111453952 103
    endloop
  endfacet
  facet normal 0.9510565162951538 -0.30901699437494695 0
    outer loop
      vertex 49.42705098312484 1.2366442431225806 3
      vertex 50 3 103
      vertex 49.42705098312484 1.2366442431225806 103
    endloop
  endfacet
  facet normal 1 0 0
    outer loop
      vertex 50 3 3
      vertex 50 72 103
      vertex 50 3 103
    endloop
  endfacet
  facet normal 0 0 -1
    outer loop
      vertex 2.713525491562421 72.88167787843871 0.14683045111453952
      vertex 47.92705098312484 72 0.14683045111453952
      vertex 47.92705098312484 3 0.14683045111453952
    endloop
  endfacet
  facet normal 0 0 -1
    outer loop
      vertex 2.713525491562421 72.88167787843871 0.14683045111453952
      vertex 47.75 72.54490689600402 0.14683045111453952
      vertex 47.92705098312484 72 0.14683045111453952
    endloop
  endfacet
  facet normal 0 0 -1
    outer loop
      vertex 2.713525491562421 72.88167787843871 0.14683045111453952
      vertex 47.28647450843758 72.88167787843871 0.14683045111453952
      vertex 47.75 72.54490689600402 0.14683045111453952
    endloop
  endfacet
  facet normal 0 0.607061998206686 -0.7946544722917661
    outer loop
      vertex 2.713525491562421 72.88167787843871 0.14683045111453952
      vertex 47.75 74.30826265288144 1.2366442431225806
      vertex 47.28647450843758 72.88167787843871 0.14683045111453952
    endloop
  endfacet
  facet normal 0 0.9554225632202381 -0.295241808844327
    outer loop
      vertex 2.25 74.30826265288144 1.2366442431225806
      vertex 47.92705098312484 74.85316954888546 3
      vertex 47.75 74.30826265288144 1.2366442431225806
    endloop
  endfacet
  facet normal 0 1 0
    outer loop
      vertex 2.0729490168751576 74.85316954888546 3
      vertex 47.92705098312484 74.85316954888546 103
      vertex 47.92705098312484 74.85316954888546 3
    endloop
  endfacet
  facet normal 0.587785252292473 0 -0.8090169943749475
    outer loop
      vertex 47.92705098312484 3 0.14683045111453952
      vertex 47.92705098312484 72 0.14683045111453952
      vertex 49.42705098312484 72 1.2366442431225806
    endloop
  endfacet
  facet normal 0.9510565162951538 0 -0.30901699437494695
    outer loop
      vertex 50 3 3
      vertex 49.42705098312484 72 1.2366442431225806
      vertex 50 72 3
    endloop
  endfacet
  facet normal 1 0 0
    outer loop
      vertex 50 3 3
      vertex 50 72 3
      vertex 50 72 103
    endloop
  endfacet
  facet normal 0.35682208977308716 0.4911234731884241 -0.7946544722917668
    outer loop
      vertex 47.28647450843758 72.88167787843871 0.14683045111453952
      vertex 47.75 74.30826265288144 1.2366442431225806
      vertex 47.75 72.54490689600402 0.14683045111453952
    endloop
  endfacet
  facet normal 0.5773502691896254 0.18759247408508029 -0.7946544722917662
    outer loop
      vertex 47.92705098312484 72 0.14683045111453952
      vertex 47.75 72.54490689600402 0.14683045111453952
      vertex 48.96352549156242 73.42658477444273 1.2366442431225806
    endloop
  endfacet
  facet normal 0.3568220897730896 0.49112347318842364 -0.794654472291766
    outer loop
      vertex 47.75 72.54490689600402 0.14683045111453952
      vertex 47.75 74.30826265288144 1.2366442431225806
      vertex 48.96352549156242 73.42658477444273 1.2366442431225806
    endloop
  endfacet
  facet normal 0.5615832923683283 0.7729530904544457 -0.2952418088443272
    outer loop
      vertex 47.75 74.30826265288144 1.2366442431225806
      vertex 47.92705098312484 74.85316954888546 3
      vertex 48.96352549156242 73.42658477444273 1.2366442431225806
    endloop
  endfacet
  facet normal 0.5773502691896257 0.18759247408508006 -0.7946544722917662
    outer loop
      vertex 47.92705098312484 72 0.14683045111453952
      vertex 48.96352549156242 73.42658477444273 1.2366442431225806
      vertex 49.42705098312484 72 1.2366442431225806
    endloop
  endfacet
  facet normal 0.5615832923683304 0.7729530904544449 -0.2952418088443253
    outer loop
      vertex 47.92705098312484 74.85316954888546 3
      vertex 49.42705098312484 73.76335575687742 3
      vertex 48.96352549156242 73.42658477444273 1.2366442431225806
    endloop
  endfacet
  facet normal 0.908660854566026 0.29524180884432655 -0.29524180884432605
    outer loop
      vertex 49.42705098312484 72 1.2366442431225806
      vertex 48.96352549156242 73.42658477444273 1.2366442431225806
      vertex 49.42705098312484 73.76335575687742 3
    endloop
  endfacet
  facet normal 0.9086608545660262 0.29524180884432627 -0.2952418088443258
    outer loop
      vertex 49.42705098312484 72 1.2366442431225806
      vertex 49.42705098312484 73.76335575687742 3
      vertex 50 72 3
    endloop
  endfacet
  facet normal 0.5877852522924741 0.8090169943749466 0
    outer loop
      vertex 47.92705098312484 74.85316954888546 3
      vertex 47.92705098312484 74.85316954888546 103
      vertex 49.42705098312484 73.76335575687742 3
    endloop
  endfacet
  facet normal 0.9510565162951535 0.3090169943749474 0
    outer loop
      vertex 50 72 3
      vertex 49.42705098312484 73.76335575687742 3
      vertex 50 72 103
    endloop
  endfacet
  facet normal 0.5877852522924741 0.8090169943749466 0
    outer loop
      vertex 49.42705098312484 73.76335575687742 3
      vertex 47.92705098312484 74.85316954888546 103
      vertex 49.42705098312484 73.76335575687742 103
    endloop
  endfacet
  facet normal 0.9510565162951535 0.3090169943749474 0
    outer loop
      vertex 49.42705098312484 73.76335575687742 3
      vertex 49.42705098312484 73.76335575687742 103
      vertex 50 72 103
    endloop
  endfacet
  facet normal 0 0 1
    outer loop
      vertex 0.5729490168751576 1.2366442431225806 103
      vertex 2 5 103
      vertex 0 3 103
    endloop
  endfacet
  facet normal 0 0 1
    outer loop
      vertex 0.5729490168751576 1.2366442431225806 103
      vertex 2.0729490168751576 0.14683045111453952 103
      vertex 2.5729490168751576 3.236644243122581 103
    endloop
  endfacet
  facet normal 0 0 1
    outer loop
      vertex 2.0729490168751576 0.14683045111453952 103
      vertex 4.072949016875158 2.1468304511145395 103
      vertex 2.5729490168751576 3.236644243122581 103
    endloop
  endfacet
  facet normal 0 0 1
    outer loop
      vertex 0.5729490168751576 1.2366442431225806 103
      vertex 2.5729490168751576 3.236644243122581 103
      vertex 2 5 103
    endloop
  endfacet
  facet normal 0 0 1
    outer loop
      vertex 0 3 103
      vertex 2 5 103
      vertex 2 70 103
    endloop
  endfacet
  facet normal 0 0 1
    outer loop
      vertex 2.0729490168751576 0.14683045111453952 103
      vertex 47.92705098312484 0.14683045111453952 103
      vertex 4.072949016875158 2.1468304511145395 103
    endloop
  endfacet
  facet normal 0 0 1
    outer loop
      vertex 0 3 103
      vertex 0.5729490168751576 73.76335575687742 103
      vertex 0 72 103
    endloop
  endfacet
  facet normal 0 0 1
    outer loop
      vertex 0 3 103
      vertex 2 70 103
      vertex 2.0729490168751576 74.85316954888546 103
    endloop
  endfacet
  facet normal 0 0 1
    outer loop
      vertex 0 3 103
      vertex 2.0729490168751576 74.85316954888546 103
      vertex 0.5729490168751576 73.76335575687742 103
    endloop
  endfacet
  facet normal 0 0 1
    outer loop
      vertex 2.0729490168751576 74.85316954888546 103
      vertex 2 70 103
      vertex 2.5729490168751576 71.76335575687742 103
    endloop
  endfacet
  facet normal 0 0 1
    outer loop
      vertex 2.0729490168751576 74.85316954888546 103
      vertex 2.5729490168751576 71.76335575687742 103
      vertex 4.072949016875158 72.85316954888546 103
    endloop
  endfacet
  facet normal 0 0 1
    outer loop
      vertex 2.0729490168751576 74.85316954888546 103
      vertex 4.072949016875158 72.85316954888546 103
      vertex 45.92705098312484 72.85316954888546 103
    endloop
  endfacet
  facet normal 0 0 1
    outer loop
      vertex 47.92705098312484 0.14683045111453952 103
      vertex 45.92705098312484 2.1468304511145395 103
      vertex 4.072949016875158 2.1468304511145395 103
    endloop
  endfacet
  facet normal 0 0 1
    outer loop
      vertex 47.92705098312484 0.14683045111453952 103
      vertex 47.42705098312484 3.236644243122581 103
      vertex 45.92705098312484 2.1468304511145395 103
    endloop
  endfacet
  facet normal 0 0 1
    outer loop
      vertex 47.92705098312484 0.14683045111453952 103
      vertex 48 5 103
      vertex 47.42705098312484 3.236644243122581 103
    endloop
  endfacet
  facet normal 0 0 1
    outer loop
      vertex 47.92705098312484 0.14683045111453952 103
      vertex 49.42705098312484 1.2366442431225806 103
      vertex 50 72 103
    endloop
  endfacet
  facet normal 0 0 1
    outer loop
      vertex 47.92705098312484 0.14683045111453952 103
      vertex 50 72 103
      vertex 48 5 103
    endloop
  endfacet
  facet normal 0 0 1
    outer loop
      vertex 49.42705098312484 1.2366442431225806 103
      vertex 50 3 103
      vertex 50 72 103
    endloop
  endfacet
  facet normal 0 0 1
    outer loop
      vertex 2.0729490168751576 74.85316954888546 103
      vertex 45.92705098312484 72.85316954888546 103
      vertex 47.92705098312484 74.85316954888546 103
    endloop
  endfacet
  facet normal 0 0 1
    outer loop
      vertex 50 72 103
      vertex 48 70 103
      vertex 48 5 103
    endloop
  endfacet
  facet normal 0 0 1
    outer loop
      vertex 49.42705098312484 73.76335575687742 103
      vertex 47.42705098312484 71.76335575687742 103
      vertex 48 70 103
    endloop
  endfacet
  facet normal 0 0 1
    outer loop
      vertex 47.92705098312484 74.85316954888546 103
      vertex 45.92705098312484 72.85316954888546 103
      vertex 47.42705098312484 71.76335575687742 103
    endloop
  endfacet
  facet normal 0 0 1
    outer loop
      vertex 47.92705098312484 74.85316954888546 103
      vertex 47.42705098312484 71.76335575687742 103
      vertex 49.42705098312484 73.76335575687742 103
    endloop
  endfacet
  facet normal 0 0 1
    outer loop
      vertex 50 72 103
      vertex 49.42705098312484 73.76335575687742 103
      vertex 48 70 103
    endloop
  endfacet
  facet normal 0.908660854566026 0.2952418088443262 0.2952418088443262
    outer loop
      vertex 2.5729490168751576 3.236644243122581 5
      vertex 3.036474508437579 3.5734152255572695 3.236644243122581
      vertex 2.5729490168751576 5 3.236644243122581
    endloop
  endfacet
  facet normal 0.908660854566026 0.2952418088443262 0.2952418088443262
    outer loop
      vertex 2.5729490168751576 3.236644243122581 5
      vertex 2.5729490168751576 5 3.236644243122581
      vertex 2 5 5
    endloop
  endfacet
  facet normal 0.5773502691896257 0.18759247408507987 0.7946544722917661
    outer loop
      vertex 3.036474508437579 3.5734152255572695 3.236644243122581
      vertex 4.072949016875158 5 2.1468304511145395
      vertex 2.5729490168751576 5 3.236644243122581
    endloop
  endfacet
  facet normal 0.5773502691896257 0.18759247408508006 0.7946544722917661
    outer loop
      vertex 3.036474508437579 3.5734152255572695 3.236644243122581
      vertex 4.25 4.45509310399598 2.1468304511145395
      vertex 4.072949016875158 5 2.1468304511145395
    endloop
  endfacet
  facet normal 0.3568220897730898 0.491123473188423 0.7946544722917661
    outer loop
      vertex 3.036474508437579 3.5734152255572695 3.236644243122581
      vertex 4.25 2.69173734711856 3.236644243122581
      vertex 4.713525491562422 4.11832212156129 2.1468304511145395
    endloop
  endfacet
  facet normal 0.35682208977308993 0.4911234731884227 0.7946544722917662
    outer loop
      vertex 3.036474508437579 3.5734152255572695 3.236644243122581
      vertex 4.713525491562422 4.11832212156129 2.1468304511145395
      vertex 4.25 4.45509310399598 2.1468304511145395
    endloop
  endfacet
  facet normal 0.5615832923683292 0.7729530904544454 0.29524180884432616
    outer loop
      vertex 2.5729490168751576 3.236644243122581 5
      vertex 4.25 2.69173734711856 3.236644243122581
      vertex 3.036474508437579 3.5734152255572695 3.236644243122581
    endloop
  endfacet
  facet normal 0.5615832923683292 0.7729530904544455 0.2952418088443262
    outer loop
      vertex 2.5729490168751576 3.236644243122581 5
      vertex 4.072949016875158 2.1468304511145395 5
      vertex 4.25 2.69173734711856 3.236644243122581
    endloop
  endfacet
  facet normal 0.9510565162951535 0.3090169943749474 0
    outer loop
      vertex 2.5729490168751576 3.236644243122581 5
      vertex 2 5 5
      vertex 2 5 103
    endloop
  endfacet
  facet normal 0.5877852522924731 0.8090169943749475 0
    outer loop
      vertex 2.5729490168751576 3.236644243122581 5
      vertex 2.5729490168751576 3.236644243122581 103
      vertex 4.072949016875158 2.1468304511145395 5
    endloop
  endfacet
  facet normal 0.9510565162951535 0 0.3090169943749474
    outer loop
      vertex 2.5729490168751576 5 3.236644243122581
      vertex 2.5729490168751576 70 3.236644243122581
      vertex 2 5 5
    endloop
  endfacet
  facet normal 0.5877852522924731 0 0.8090169943749475
    outer loop
      vertex 2.5729490168751576 5 3.236644243122581
      vertex 4.072949016875158 5 2.1468304511145395
      vertex 4.072949016875158 70 2.1468304511145395
    endloop
  endfacet
  facet normal 0 0.9554225632202384 0.2952418088443262
    outer loop
      vertex 4.072949016875158 2.1468304511145395 5
      vertex 45.92705098312484 2.1468304511145395 5
      vertex 4.25 2.69173734711856 3.236644243122581
    endloop
  endfacet
  facet normal 0 0.6070619982066863 0.7946544722917661
    outer loop
      vertex 4.25 2.69173734711856 3.236644243122581
      vertex 45.28647450843758 4.11832212156129 2.1468304511145395
      vertex 4.713525491562422 4.11832212156129 2.1468304511145395
    endloop
  endfacet
  facet normal 0 1 0
    outer loop
      vertex 4.072949016875158 2.1468304511145395 5
      vertex 4.072949016875158 2.1468304511145395 103
      vertex 45.92705098312484 2.1468304511145395 5
    endloop
  endfacet
  facet normal 0 0 1
    outer loop
      vertex 4.713525491562422 4.11832212156129 2.1468304511145395
      vertex 45.75 70.54490689600402 2.1468304511145395
      vertex 4.25 4.45509310399598 2.1468304511145395
    endloop
  endfacet
  facet normal 0 0 1
    outer loop
      vertex 4.072949016875158 5 2.1468304511145395
      vertex 4.25 4.45509310399598 2.1468304511145395
      vertex 45.75 70.54490689600402 2.1468304511145395
    endloop
  endfacet
  facet normal 0.9510565162951535 0.3090169943749474 0
    outer loop
      vertex 2.5729490168751576 3.236644243122581 5
      vertex 2 5 103
      vertex 2.5729490168751576 3.236644243122581 103
    endloop
  endfacet
  facet normal 0.5877852522924731 0.8090169943749475 0
    outer loop
      vertex 4.072949016875158 2.1468304511145395 5
      vertex 2.5729490168751576 3.236644243122581 103
      vertex 4.072949016875158 2.1468304511145395 103
    endloop
  endfacet
  facet normal 1 0 0
    outer loop
      vertex 2 5 5
      vertex 2 70 103
      vertex 2 5 103
    endloop
  endfacet
  facet normal 0.5877852522924731 0 0.8090169943749475
    outer loop
      vertex 2.5729490168751576 5 3.236644243122581
      vertex 4.072949016875158 70 2.1468304511145395
      vertex 2.5729490168751576 70 3.236644243122581
    endloop
  endfacet
  facet normal 0.9510565162951535 0 0.3090169943749474
    outer loop
      vertex 2 5 5
      vertex 2.5729490168751576 70 3.236644243122581
      vertex 2 70 5
    endloop
  endfacet
  facet normal 1 0 0
    outer loop
      vertex 2 5 5
      vertex 2 70 5
      vertex 2 70 103
    endloop
  endfacet
  facet normal 0.908660854566026 -0.2952418088443262 0.2952418088443262
    outer loop
      vertex 2.5729490168751576 70 3.236644243122581
      vertex 3.036474508437579 71.42658477444273 3.236644243122581
      vertex 2 70 5
    endloop
  endfacet
  facet normal 0.908660854566026 -0.29524180884432666 0.2952418088443258
    outer loop
      vertex 2 70 5
      vertex 3.036474508437579 71.42658477444273 3.236644243122581
      vertex 2.5729490168751576 71.76335575687742 5
    endloop
  endfacet
  facet normal 0.5773502691896257 -0.18759247408507948 0.7946544722917661
    outer loop
      vertex 2.5729490168751576 70 3.236644243122581
      vertex 4.072949016875158 70 2.1468304511145395
      vertex 4.25 70.54490689600402 2.1468304511145395
    endloop
  endfacet
  facet normal 0.577350269189626 -0.18759247408507992 0.794654472291766
    outer loop
      vertex 2.5729490168751576 70 3.236644243122581
      vertex 4.25 70.54490689600402 2.1468304511145395
      vertex 3.036474508437579 71.42658477444273 3.236644243122581
    endloop
  endfacet
  facet normal 0.35682208977308977 -0.49112347318842364 0.7946544722917658
    outer loop
      vertex 3.036474508437579 71.42658477444273 3.236644243122581
      vertex 4.25 70.54490689600402 2.1468304511145395
      vertex 4.25 72.30826265288144 3.236644243122581
    endloop
  endfacet
  facet normal 0.35682208977308716 -0.4911234731884241 0.7946544722917666
    outer loop
      vertex 4.25 70.54490689600402 2.1468304511145395
      vertex 4.713525491562422 70.88167787843871 2.1468304511145395
      vertex 4.25 72.30826265288144 3.236644243122581
    endloop
  endfacet
  facet normal 0.5615832923683304 -0.7729530904544448 0.29524180884432516
    outer loop
      vertex 2.5729490168751576 71.76335575687742 5
      vertex 3.036474508437579 71.42658477444273 3.236644243122581
      vertex 4.072949016875158 72.85316954888546 5
    endloop
  endfacet
  facet normal 0.5615832923683284 -0.7729530904544456 0.29524180884432694
    outer loop
      vertex 3.036474508437579 71.42658477444273 3.236644243122581
      vertex 4.25 72.30826265288144 3.236644243122581
      vertex 4.072949016875158 72.85316954888546 5
    endloop
  endfacet
  facet normal 0.9510565162951534 -0.30901699437494784 0
    outer loop
      vertex 2 70 5
      vertex 2.5729490168751576 71.76335575687742 5
      vertex 2.5729490168751576 71.76335575687742 103
    endloop
  endfacet
  facet normal 0.5877852522924741 -0.8090169943749466 0
    outer loop
      vertex 2.5729490168751576 71.76335575687742 5
      vertex 4.072949016875158 72.85316954888546 5
      vertex 4.072949016875158 72.85316954888546 103
    endloop
  endfacet
  facet normal 0 0 1
    outer loop
      vertex 4.072949016875158 5 2.1468304511145395
      vertex 45.75 70.54490689600402 2.1468304511145395
      vertex 4.072949016875158 70 2.1468304511145395
    endloop
  endfacet
  facet normal 0 0 1
    outer loop
      vertex 4.072949016875158 70 2.1468304511145395
      vertex 45.75 70.54490689600402 2.1468304511145395
      vertex 4.25 70.54490689600402 2.1468304511145395
    endloop
  endfacet
  facet normal 0 0 1
    outer loop
      vertex 4.25 70.54490689600402 2.1468304511145395
      vertex 45.75 70.54490689600402 2.1468304511145395
      vertex 4.713525491562422 70.88167787843871 2.1468304511145395
    endloop
  endfacet
  facet normal 0 -0.6070619982066862 0.7946544722917661
    outer loop
      vertex 4.713525491562422 70.88167787843871 2.1468304511145395
      vertex 45.75 72.30826265288144 3.236644243122581
      vertex 4.25 72.30826265288144 3.236644243122581
    endloop
  endfacet
  facet normal 0 -0.9554225632202381 0.295241808844327
    outer loop
      vertex 4.072949016875158 72.85316954888546 5
      vertex 4.25 72.30826265288144 3.236644243122581
      vertex 45.75 72.30826265288144 3.236644243122581
    endloop
  endfacet
  facet normal 0.9510565162951534 -0.30901699437494784 0
    outer loop
      vertex 2 70 5
      vertex 2.5729490168751576 71.76335575687742 103
      vertex 2 70 103
    endloop
  endfacet
  facet normal 0.5877852522924741 -0.8090169943749466 0
    outer loop
      vertex 2.5729490168751576 71.76335575687742 5
      vertex 4.072949016875158 72.85316954888546 103
      vertex 2.5729490168751576 71.76335575687742 103
    endloop
  endfacet
  facet normal 0 -1 0
    outer loop
      vertex 4.072949016875158 72.85316954888546 5
      vertex 45.92705098312484 72.85316954888546 103
      vertex 4.072949016875158 72.85316954888546 103
    endloop
  endfacet
  facet normal 0 0.6070619982066864 0.7946544722917661
    outer loop
      vertex 4.25 2.69173734711856 3.236644243122581
      vertex 45.75 2.69173734711856 3.236644243122581
      vertex 45.28647450843758 4.11832212156129 2.1468304511145395
    endloop
  endfacet
  facet normal 0 0.9554225632202384 0.29524180884432616
    outer loop
      vertex 4.25 2.69173734711856 3.236644243122581
      vertex 45.92705098312484 2.1468304511145395 5
      vertex 45.75 2.69173734711856 3.236644243122581
    endloop
  endfacet
  facet normal 0 0 1
    outer loop
      vertex 4.713525491562422 4.11832212156129 2.1468304511145395
      vertex 45.28647450843758 4.11832212156129 2.1468304511145395
      vertex 45.75 70.54490689600402 2.1468304511145395
    endloop
  endfacet
  facet normal -0.3568220897730901 0.4911234731884229 0.7946544722917661
    outer loop
      vertex 45.75 2.69173734711856 3.236644243122581
      vertex 45.75 4.45509310399598 2.1468304511145395
      vertex 45.28647450843758 4.11832212156129 2.1468304511145395
    endloop
  endfacet
  facet normal -0.3568220897730897 0.491123473188423 0.7946544722917661
    outer loop
      vertex 45.75 2.69173734711856 3.236644243122581
      vertex 46.96352549156242 3.5734152255572695 3.236644243122581
      vertex 45.75 4.45509310399598 2.1468304511145395
    endloop
  endfacet
  facet normal -0.5773502691896252 0.1875924740850808 0.7946544722917664
    outer loop
      vertex 45.75 4.45509310399598 2.1468304511145395
      vertex 46.96352549156242 3.5734152255572695 3.236644243122581
      vertex 45.92705098312484 5 2.1468304511145395
    endloop
  endfacet
  facet normal -0.5773502691896257 0.18759247408508004 0.7946544722917661
    outer loop
      vertex 45.92705098312484 5 2.1468304511145395
      vertex 46.96352549156242 3.5734152255572695 3.236644243122581
      vertex 47.42705098312484 5 3.236644243122581
    endloop
  endfacet
  facet normal -0.5615832923683289 0.7729530904544455 0.29524180884432644
    outer loop
      vertex 45.75 2.69173734711856 3.236644243122581
      vertex 45.92705098312484 2.1468304511145395 5
      vertex 46.96352549156242 3.5734152255572695 3.236644243122581
    endloop
  endfacet
  facet normal -0.5615832923683292 0.7729530904544455 0.2952418088443262
    outer loop
      vertex 45.92705098312484 2.1468304511145395 5
      vertex 47.42705098312484 3.236644243122581 5
      vertex 46.96352549156242 3.5734152255572695 3.236644243122581
    endloop
  endfacet
  facet normal -0.9086608545660259 0.29524180884432644 0.29524180884432644
    outer loop
      vertex 46.96352549156242 3.5734152255572695 3.236644243122581
      vertex 47.42705098312484 3.236644243122581 5
      vertex 47.42705098312484 5 3.236644243122581
    endloop
  endfacet
  facet normal -0.9086608545660263 0.2952418088443259 0.2952418088443259
    outer loop
      vertex 47.42705098312484 3.236644243122581 5
      vertex 48 5 5
      vertex 47.42705098312484 5 3.236644243122581
    endloop
  endfacet
  facet normal -0.5877852522924731 0.8090169943749475 0
    outer loop
      vertex 45.92705098312484 2.1468304511145395 5
      vertex 45.92705098312484 2.1468304511145395 103
      vertex 47.42705098312484 3.236644243122581 5
    endloop
  endfacet
  facet normal -0.9510565162951538 0.309016994374947 0
    outer loop
      vertex 47.42705098312484 3.236644243122581 5
      vertex 47.42705098312484 3.236644243122581 103
      vertex 48 5 5
    endloop
  endfacet
  facet normal 0 0 1
    outer loop
      vertex 45.28647450843758 4.11832212156129 2.1468304511145395
      vertex 45.75 4.45509310399598 2.1468304511145395
      vertex 45.75 70.54490689600402 2.1468304511145395
    endloop
  endfacet
  facet normal 0 0 1
    outer loop
      vertex 45.75 4.45509310399598 2.1468304511145395
      vertex 45.92705098312484 5 2.1468304511145395
      vertex 45.75 70.54490689600402 2.1468304511145395
    endloop
  endfacet
  facet normal -0.5877852522924731 0 0.8090169943749475
    outer loop
      vertex 45.92705098312484 5 2.1468304511145395
      vertex 47.42705098312484 5 3.236644243122581
      vertex 45.92705098312484 70 2.1468304511145395
    endloop
  endfacet
  facet normal -0.9510565162951536 0 0.30901699437494695
    outer loop
      vertex 47.42705098312484 5 3.236644243122581
      vertex 48 5 5
      vertex 48 70 5
    endloop
  endfacet
  facet normal -1 0 0
    outer loop
      vertex 48 5 5
      vertex 48 5 103
      vertex 48 70 5
    endloop
  endfacet
  facet normal 0 1 0
    outer loop
      vertex 45.92705098312484 2.1468304511145395 5
      vertex 4.072949016875158 2.1468304511145395 103
      vertex 45.92705098312484 2.1468304511145395 103
    endloop
  endfacet
  facet normal -0.5877852522924731 0.8090169943749475 0
    outer loop
      vertex 47.42705098312484 3.236644243122581 5
      vertex 45.92705098312484 2.1468304511145395 103
      vertex 47.42705098312484 3.236644243122581 103
    endloop
  endfacet
  facet normal -0.9510565162951538 0.309016994374947 0
    outer loop
      vertex 48 5 5
      vertex 47.42705098312484 3.236644243122581 103
      vertex 48 5 103
    endloop
  endfacet
  facet normal 0 0 1
    outer loop
      vertex 4.713525491562422 70.88167787843871 2.1468304511145395
      vertex 45.75 70.54490689600402 2.1468304511145395
      vertex 45.28647450843758 70.88167787843871 2.1468304511145395
    endloop
  endfacet
  facet normal 0 -0.6070619982066862 0.7946544722917662
    outer loop
      vertex 4.713525491562422 70.88167787843871 2.1468304511145395
      vertex 45.28647450843758 70.88167787843871 2.1468304511145395
      vertex 45.75 72.30826265288144 3.236644243122581
    endloop
  endfacet
  facet normal 0 -0.9554225632202381 0.29524180884432705
    outer loop
      vertex 4.072949016875158 72.85316954888546 5
      vertex 45.75 72.30826265288144 3.236644243122581
      vertex 45.92705098312484 72.85316954888546 5
    endloop
  endfacet
  facet normal 0 -1 0
    outer loop
      vertex 4.072949016875158 72.85316954888546 5
      vertex 45.92705098312484 72.85316954888546 5
      vertex 45.92705098312484 72.85316954888546 103
    endloop
  endfacet
  facet normal 0 0 1
    outer loop
      vertex 45.92705098312484 5 2.1468304511145395
      vertex 45.92705098312484 70 2.1468304511145395
      vertex 45.75 70.54490689600402 2.1468304511145395
    endloop
  endfacet
  facet normal -0.5877852522924731 0 0.8090169943749475
    outer loop
      vertex 47.42705098312484 5 3.236644243122581
      vertex 47.42705098312484 70 3.236644243122581
      vertex 45.92705098312484 70 2.1468304511145395
    endloop
  endfacet
  facet normal -0.9510565162951536 0 0.30901699437494695
    outer loop
      vertex 47.42705098312484 5 3.236644243122581
      vertex 48 70 5
      vertex 47.42705098312484 70 3.236644243122581
    endloop
  endfacet
  facet normal -0.35682208977308716 -0.4911234731884241 0.7946544722917666
    outer loop
      vertex 45.75 70.54490689600402 2.1468304511145395
      vertex 45.75 72.30826265288144 3.236644243122581
      vertex 45.28647450843758 70.88167787843871 2.1468304511145395
    endloop
  endfacet
  facet normal -0.5773502691896255 -0.18759247408508034 0.7946544722917662
    outer loop
      vertex 45.75 70.54490689600402 2.1468304511145395
      vertex 45.92705098312484 70 2.1468304511145395
      vertex 46.96352549156242 71.42658477444273 3.236644243122581
    endloop
  endfacet
  facet normal -0.5773502691896257 -0.18759247408508004 0.7946544722917661
    outer loop
      vertex 45.92705098312484 70 2.1468304511145395
      vertex 47.42705098312484 70 3.236644243122581
      vertex 46.96352549156242 71.42658477444273 3.236644243122581
    endloop
  endfacet
  facet normal -0.35682208977308966 -0.49112347318842364 0.7946544722917659
    outer loop
      vertex 45.75 70.54490689600402 2.1468304511145395
      vertex 46.96352549156242 71.42658477444273 3.236644243122581
      vertex 45.75 72.30826265288144 3.236644243122581
    endloop
  endfacet
  facet normal -0.5615832923683283 -0.7729530904544457 0.29524180884432727
    outer loop
      vertex 45.75 72.30826265288144 3.236644243122581
      vertex 46.96352549156242 71.42658477444273 3.236644243122581
      vertex 45.92705098312484 72.85316954888546 5
    endloop
  endfacet
  facet normal -0.5615832923683304 -0.7729530904544448 0.2952418088443253
    outer loop
      vertex 45.92705098312484 72.85316954888546 5
      vertex 46.96352549156242 71.42658477444273 3.236644243122581
      vertex 47.42705098312484 71.76335575687742 5
    endloop
  endfacet
  facet normal -0.9086608545660262 -0.2952418088443263 0.2952418088443258
    outer loop
      vertex 47.42705098312484 70 3.236644243122581
      vertex 48 70 5
      vertex 47.42705098312484 71.76335575687742 5
    endloop
  endfacet
  facet normal -0.908660854566026 -0.2952418088443265 0.29524180884432605
    outer loop
      vertex 47.42705098312484 70 3.236644243122581
      vertex 47.42705098312484 71.76335575687742 5
      vertex 46.96352549156242 71.42658477444273 3.236644243122581
    endloop
  endfacet
  facet normal -0.5877852522924741 -0.8090169943749466 0
    outer loop
      vertex 45.92705098312484 72.85316954888546 5
      vertex 47.42705098312484 71.76335575687742 5
      vertex 47.42705098312484 71.76335575687742 103
    endloop
  endfacet
  facet normal -0.9510565162951535 -0.3090169943749474 0
    outer loop
      vertex 48 70 5
      vertex 48 70 103
      vertex 47.42705098312484 71.76335575687742 5
    endloop
  endfacet
  facet normal -1 0 0
    outer loop
      vertex 48 70 5
      vertex 48 5 103
      vertex 48 70 103
    endloop
  endfacet
  facet normal -0.5877852522924741 -0.8090169943749466 0
    outer loop
      vertex 45.92705098312484 72.85316954888546 5
      vertex 47.42705098312484 71.76335575687742 103
      vertex 45.92705098312484 72.85316954888546 103
    endloop
  endfacet
  facet normal -0.9510565162951535 -0.3090169943749474 0
    outer loop
      vertex 47.42705098312484 71.76335575687742 5
      vertex 48 70 103
      vertex 47.42705098312484 71.76335575687742 103
    endloop
  endfacet
endsolid OpenSCAD_Model
